<svg width="411" height="107" viewBox="0 0 411 107" fill="none" xmlns="http://www.w3.org/2000/svg">
<path d="M154 105.106V102.187C154 102.187 118.9 102.025 105.606 102.187C104.05 102.187 102.487 102.118 100.937 102.025C100.146 101.982 99.3186 101.808 99.0221 101.025C98.6515 100.081 99.3494 99.4847 100.066 98.9568C103.296 96.5902 106.496 94.1864 109.782 91.8881C111.282 90.725 113.092 90.0354 114.982 89.9067C114.914 90.6334 114.853 91.1489 114.828 91.6272C114.742 93.0124 115.267 94.1118 116.786 94.4907C117.488 94.6759 118.23 94.6242 118.9 94.3437C119.569 94.0631 120.129 93.5692 120.492 92.9379C122.116 90.5278 120.449 87.6519 117.206 87.2978C115.013 87.0618 113.018 87.7264 111.104 88.6022C107.583 90.2172 104.575 92.5155 101.573 94.8137C96.4903 98.7715 90.2617 100.952 83.8338 101.025C76.669 101.218 69.955 99.5841 63.204 97.7952C58.2627 96.4846 54.1491 93.8509 50.4617 90.6645C48.5222 88.9874 46.7557 87.0991 45.7675 84.7139C45.4525 83.9374 45.051 83.0678 45.9466 82.4591C46.694 81.956 47.4043 82.4591 48.0466 82.9249C50.7515 84.7766 53.581 86.437 56.5147 87.8941C64.0934 91.6645 72.0489 94.0621 80.8135 93.4845C86.1748 93.1366 90.7331 91.267 94.2352 87.4345C96.3106 85.1549 97.5273 82.5585 97.1876 79.4838C96.57 73.6015 92.2464 69.2349 85.903 67.9801C82.6479 67.359 79.4732 67.2596 76.5887 69.0982C75.495 69.7406 74.6785 70.7696 74.2982 71.9846C73.918 73.1996 74.0013 74.5134 74.5319 75.6699C75.7672 78.2104 78.7876 79.6577 81.3261 78.9558C83.8647 78.2539 85.1062 76.2352 84.7541 73.0549C84.5194 70.8933 85.4706 70.2163 87.6695 71.1169C94.4143 73.8873 97.1629 82.3597 90.5601 87.3289C88.5523 88.9048 86.2536 90.0648 83.7972 90.7418C81.3408 91.4188 78.7752 91.5994 76.249 91.2732C68.7197 90.3353 61.9501 87.5463 55.4215 84.0989C54.9322 83.8696 54.4836 83.5611 54.0935 83.1858C53.4326 82.4839 53.4759 81.8628 54.5938 81.6081C55.3412 81.4218 56.1194 81.3348 56.8668 81.1485C57.5017 81.0154 58.0943 80.727 58.592 80.3088C59.0897 79.8906 59.4773 79.3555 59.7204 78.7508C59.9174 78.3137 60.0143 77.8376 60.0039 77.3578C59.9934 76.8779 59.876 76.4066 59.6602 75.9785C59.4444 75.5504 59.1357 75.1765 58.757 74.8845C58.3783 74.5924 57.9392 74.3896 57.4721 74.291C55.545 73.7817 53.4512 74.5146 53.4079 76.7135C53.4452 76.9615 53.3902 77.2146 53.2534 77.4243C53.1167 77.6341 52.9078 77.7857 52.6667 77.8502C51.1531 77.4512 49.7705 76.6586 48.6581 75.5519C41.8947 69.0858 39.9985 62.6942 44.2048 54.8677C44.9583 53.4826 45.7798 52.1347 46.4778 50.7247C49.0167 45.7171 50.2695 40.1503 50.122 34.5313C50.1816 33.1665 49.7146 31.8313 48.8187 30.8044C48.1731 30.2019 47.3712 29.7953 46.5056 29.6315C45.64 29.4678 44.746 29.5535 43.9268 29.8789C43.3106 30.1815 42.8166 30.688 42.5276 31.3134C42.2386 31.9388 42.1721 32.6451 42.3395 33.3139C42.7903 35.0655 44.0812 35.8482 46.3419 35.7426C46.7681 35.7426 47.1943 35.6246 47.7193 35.55C47.8376 35.9687 47.9203 36.3968 47.9663 36.8296C47.9669 37.4524 47.9298 38.0747 47.8552 38.693C47.1387 45.9232 42.7039 51.9732 40.1035 58.6319C40.0653 58.7293 40.011 58.8196 39.9429 58.899C39.0782 59.9922 38.1332 59.9425 37.3611 58.7437C36.589 57.5449 36.6199 56.3647 36.6199 55.141C36.6199 51.321 36.7496 47.5071 36.7496 43.6933C36.7699 40.4503 35.9046 37.264 34.2481 34.4816C32.4016 31.2585 29.4332 28.8376 25.9159 27.6863C24.039 27.0195 22.0015 26.9605 20.0895 27.5175C18.1775 28.0745 16.487 29.2196 15.2551 30.792C13.9642 32.5375 14.0198 34.4195 15.3477 35.9413C16.6757 37.4632 18.609 37.9476 20.0296 37.0843C21.6664 36.0842 21.8826 34.3885 20.5484 32.5002C19.2143 30.6119 19.8319 29.2951 22.2902 29.0031C23.9515 28.86 25.614 29.2632 27.0277 30.1522C32.5866 33.258 34.3408 38.2272 34.6125 43.8175C34.8967 49.8426 33.9949 55.8926 35.2302 62.2656C34.1195 61.5995 33.1398 60.7342 32.3395 59.7127C28.7325 55.9163 24.3345 52.97 19.4613 51.0849C17.0824 50.1164 14.502 49.7558 11.9506 50.0352C8.54729 50.3768 6.1693 53.0291 6.49666 55.9734C6.58665 56.893 7.01819 57.7446 7.70515 58.3583C8.39211 58.972 9.28394 59.3026 10.2026 59.2841C11.9629 59.2841 13.2291 57.9734 13.4453 55.9858C13.4762 55.6752 13.4083 55.3646 13.4453 55.0603C13.5936 53.4018 14.378 52.6813 16.2124 52.7372C17.6531 52.8046 19.0661 53.1593 20.3693 53.7807C24.1737 55.3721 27.5727 57.8051 30.3136 60.8991C33.696 64.7898 36.2988 69.3013 37.9788 74.1854C39.0765 77.7602 40.3863 81.2656 41.9009 84.6828C42.3827 85.6891 44.0689 86.9127 42.5186 87.9252C41.2153 88.7886 40.1159 87.304 39.1894 86.5462C36.5211 84.3536 34.0072 82.0119 31.3328 79.8316C28.584 77.4431 25.2625 75.818 21.6973 75.1171C17.6207 74.4214 13.8159 76.2849 12.4324 79.5894C11.6418 81.4528 12.0988 82.9871 13.6306 84.3474C15.3724 85.8878 17.6207 86.4407 19.4181 85.6953C20.3006 85.336 21.0533 84.7151 21.5763 83.9151C22.0993 83.1151 22.3677 82.1739 22.3458 81.2168C22.3458 80.695 21.6108 80.0428 22.6608 79.7074C24.0011 81.3162 24.1926 81.7758 23.9641 83.2417C23.7882 84.4061 23.3268 85.508 22.6216 86.4482C21.9164 87.3884 20.9895 88.1372 19.9246 88.6271C18.2542 89.518 16.4192 90.0533 14.534 90.1997C12.6489 90.3461 10.7539 90.1005 8.9673 89.4781C7.92669 89.183 6.96286 88.6627 6.14341 87.9534C5.32396 87.2441 4.66873 86.3632 4.22367 85.3723C3.37563 83.4813 2.92731 81.4338 2.90711 79.3595C2.88691 77.2852 3.29526 75.2293 4.10631 73.322C5.87282 68.974 13.3712 65.7875 17.7689 68.4957C19.498 69.4476 21.2775 70.304 23.0993 71.061C24.4982 71.7866 26.0944 72.0331 27.6453 71.7629C28.6465 71.5803 29.5535 71.0536 30.2114 70.2731C30.8694 69.4925 31.2373 68.5064 31.2525 67.4832C31.1969 65.6198 29.591 64.0048 27.5465 63.6694C25.502 63.334 24.7423 63.8557 23.6923 66.4459C23.0746 67.9615 22.562 68.1789 20.9375 67.5578C20.5236 67.4086 20.1279 67.2127 19.7578 66.9739C16.0951 64.5638 12.1544 64.4458 7.96051 65.5452C4.18043 66.5391 3.43924 66.0359 2.83393 62.5202C2.69805 61.7128 2.73511 60.8742 2.67334 60.0357C2.46334 57.1349 3.05012 54.2776 3.23541 51.4017C3.53807 46.8301 5.63811 44.5691 10.4559 43.2585C14.5324 42.1652 18.6151 42.6373 22.6917 43.3019C23.5564 43.451 24.5447 43.6312 25.0079 44.3827C25.4712 45.1343 24.52 45.625 24.3223 46.3207C23.8097 48.0351 24.6806 49.5942 26.5459 50.2774C28.1703 50.8986 30.1407 50.3333 30.9189 48.9792C31.8145 47.4139 31.2833 45.917 30.2333 44.6312C29.3353 43.5212 28.2224 42.6064 26.962 41.9423C25.7017 41.2781 24.3203 40.8785 22.9017 40.7677C21.129 40.6 19.3625 40.395 17.596 40.19C16.2823 40.0453 15.0541 39.4638 14.1062 38.5377C11.0735 35.7053 11.0179 31.3386 14.273 28.6366C17.0575 26.3076 19.669 23.777 22.0864 21.0649C24.1595 18.8188 25.6749 16.1114 26.5088 13.1639C26.9968 11.3377 27.1697 9.47423 25.7985 7.84061C25.2738 7.19821 24.5594 6.74053 23.7587 6.53392C22.958 6.32731 22.1126 6.3825 21.3452 6.69149C20.5599 7.01377 19.9152 7.60804 19.5278 8.36681C19.1403 9.12557 19.0357 9.99873 19.2328 10.8283C19.5849 12.4371 20.7831 13.1887 22.9696 13.139C23.3897 13.139 23.7911 12.8409 24.4088 13.1887C23.6182 16.4373 21.6973 19.1828 19.3502 21.6425C15.6133 25.5868 11.2156 28.9659 7.51579 32.9723C7.23743 33.3032 6.9002 33.5792 6.52136 33.786C6.09694 34.0525 5.58625 34.1433 5.09669 34.039C4.60714 33.9347 4.17685 33.6436 3.89631 33.2269C3.51222 32.6104 3.26567 31.9174 3.17365 31.1958C2.43863 28.0279 2.84011 24.8228 2.66717 21.6425C2.59922 20.4561 3.42071 18.3691 1.38861 18.4188C-0.414956 18.4622 0.0977018 20.5182 0.0915252 21.773C0.0421124 48.0765 0.017406 74.3717 0.017406 100.659C0.017406 105.112 -0.458192 105.212 4.98957 105.218C32.5001 105.255 60.0107 105.218 87.5213 105.429C97.2123 105.504 106.891 105.727 116.551 105.336C129.047 104.864 141.523 105.112 154 105.106ZM43.4389 92.9751C44.438 93.4164 45.4095 93.9184 46.3481 94.4783C51.2893 97.3418 56.6692 99.2487 62.2157 100.802C63.309 101.112 64.5381 101.205 65.7302 102.435C58.9792 102.733 52.7285 102.92 46.6384 101.019C43.9324 100.192 41.6626 98.3202 40.3259 95.8138C39.807 94.882 39.56 93.7764 40.3815 92.9068C41.345 91.9005 42.4692 92.5652 43.4512 92.9751H43.4389ZM21.407 90.3104C24.1617 88.6271 25.7862 86.3226 26.1135 83.2169C26.305 81.3534 26.8238 81.105 28.6768 81.8007C33.6181 83.6641 37.2623 89.1675 37.0523 94.4597C35.4896 94.3044 35.2487 93.0869 34.7855 92.0931C34.1678 90.77 33.7725 89.3538 33.0684 88.0867C32.2778 86.6953 31.1351 85.5462 29.2759 85.3661C28.9015 85.2755 28.509 85.2972 28.1467 85.4286C27.7845 85.56 27.4684 85.7952 27.2377 86.1052C27.0067 86.4561 26.9061 86.8776 26.9535 87.2956C27.001 87.7137 27.1934 88.1016 27.4971 88.3911C27.7404 88.6904 28.0703 88.9062 28.441 89.0086C28.8118 89.111 29.205 89.0949 29.5662 88.9625C30.2333 88.7948 30.7151 87.6084 31.5304 88.4594C32.4698 89.4536 33.0052 90.7654 33.0313 92.1366C33.0313 92.7577 32.3395 92.9565 31.796 92.8323C30.8354 92.5913 29.8906 92.2905 28.9671 91.9316C27.6486 91.3522 26.2353 91.0217 24.7979 90.9564C22.6979 90.9564 21.1846 91.9813 20.8696 93.6211C20.5546 95.2609 21.5737 96.4287 23.785 97.0747C24.0876 97.1679 24.4026 97.2486 25.1623 97.466C22.6238 98.8326 20.7955 98.1679 19.1216 97.0685C17.8863 96.2486 17.7319 94.7206 18.4298 93.1304C18.9981 91.7949 20.2334 91.0558 21.4193 90.3104H21.407ZM18.8807 102.448C13.3897 102.063 9.33789 98.8512 6.18783 94.7516C5.75547 94.1926 5.18104 93.5652 5.81105 92.8074C6.08063 92.5261 6.42254 92.3254 6.79874 92.2278C7.17495 92.1302 7.5707 92.1395 7.94198 92.2546C10.4983 92.7419 13.1109 92.857 15.6998 92.5962C16.1074 97.6213 18.5719 100.05 22.9696 100.131C26.5891 100.199 28.4668 98.317 28.8992 94.1615C29.7145 93.6957 30.3754 94.2299 31.0177 94.528C34.0476 95.9848 36.9031 97.7832 39.5291 99.8885C40.0973 100.336 40.8262 100.876 40.4865 101.696C40.1468 102.516 39.3129 102.597 38.5223 102.597C31.9689 102.597 25.397 102.907 18.8807 102.448Z" fill="#D29A48"/>
<path d="M4.85575 11.0504C4.87587 10.7345 4.83193 10.4177 4.72659 10.1195C4.62125 9.82116 4.45671 9.54752 4.24297 9.31514C4.02923 9.08277 3.77075 8.89651 3.48323 8.76769C3.1957 8.63887 2.88514 8.57017 2.57041 8.56577C2.25504 8.54298 1.93831 8.58317 1.63847 8.68403C1.33862 8.78489 1.06158 8.94443 0.823314 9.15344C0.585047 9.36245 0.390262 9.61681 0.250182 9.90186C0.110101 10.1869 0.027494 10.497 0.00711995 10.8143C-0.0282063 11.1313 0.0043149 11.4522 0.1025 11.7556C0.200685 12.0589 0.362262 12.3376 0.576382 12.5729C0.790503 12.8082 1.05221 12.9948 1.34393 13.12C1.63566 13.2452 1.95065 13.3062 2.26775 13.2989C2.58476 13.3234 2.90345 13.2846 3.20547 13.1847C3.50748 13.0848 3.78683 12.9257 4.02742 12.7167C4.268 12.5076 4.46506 12.2528 4.60723 11.9668C4.74939 11.6808 4.83386 11.3693 4.85575 11.0504Z" fill="#CE9747"/>
<path d="M3.28095 0C2.15063 0.16771 1.3662 0.621148 1.42797 1.75785C1.41282 2.00055 1.45154 2.2436 1.54131 2.4694C1.63109 2.69519 1.76968 2.89808 1.94705 3.06337C2.12442 3.22866 2.33612 3.35221 2.56682 3.42507C2.79753 3.49793 3.04146 3.51828 3.28095 3.48464C3.51929 3.51474 3.76129 3.49212 3.99003 3.41836C4.21877 3.3446 4.42873 3.22147 4.60522 3.05759C4.7817 2.89372 4.92046 2.69304 5.01179 2.46961C5.10311 2.24618 5.14479 2.00538 5.13393 1.76406C5.1154 0.683263 4.38038 0.12423 3.28095 0Z" fill="#C99447"/>
<path d="M257 105.575V102.655C257 102.655 292.1 102.494 305.394 102.655C306.95 102.655 308.513 102.587 310.063 102.494C310.854 102.451 311.681 102.277 311.978 101.494C312.349 100.55 311.651 99.9535 310.934 99.4255C307.704 97.059 304.504 94.6551 301.218 92.3569C299.718 91.1937 297.908 90.5042 296.018 90.3754C296.086 91.1021 296.147 91.6177 296.172 92.096C296.258 93.4811 295.733 94.5806 294.214 94.9595C293.512 95.1446 292.77 95.093 292.1 94.8124C291.431 94.5319 290.871 94.038 290.508 93.4066C288.884 90.9965 290.551 88.1206 293.794 87.7666C295.987 87.5305 297.982 88.1952 299.896 89.071C303.417 90.686 306.425 92.9842 309.427 95.2825C314.51 99.2402 320.738 101.421 327.166 101.494C334.331 101.687 341.045 100.053 347.796 98.264C352.737 96.9534 356.851 94.3197 360.538 91.1332C362.478 89.4561 364.244 87.5678 365.233 85.1826C365.548 84.4062 365.949 83.5366 365.053 82.9278C364.306 82.4247 363.596 82.9278 362.953 83.3937C360.249 85.2453 357.419 86.9057 354.485 88.3629C346.907 92.1333 338.951 94.5309 330.187 93.9532C324.825 93.6054 320.267 91.7357 316.765 87.9032C314.689 85.6236 313.473 83.0272 313.812 79.9525C314.43 74.0703 318.754 69.7036 325.097 68.4489C328.352 67.8277 331.527 67.7284 334.411 69.567C335.505 70.2094 336.322 71.2384 336.702 72.4534C337.082 73.6683 336.999 74.9821 336.468 76.1387C335.233 78.6792 332.212 80.1265 329.674 79.4246C327.135 78.7227 325.894 76.7039 326.246 73.5237C326.481 71.3621 325.529 70.685 323.331 71.5857C316.586 74.356 313.837 82.8285 320.44 87.7976C322.448 89.3736 324.746 90.5335 327.203 91.2106C329.659 91.8876 332.225 92.0682 334.751 91.7419C342.28 90.804 349.05 88.015 355.579 84.5677C356.068 84.3383 356.516 84.0299 356.906 83.6546C357.567 82.9527 357.524 82.3315 356.406 82.0769C355.659 81.8905 354.881 81.8036 354.133 81.6172C353.498 81.4841 352.906 81.1957 352.408 80.7775C351.91 80.3593 351.523 79.8243 351.28 79.2196C351.083 78.7824 350.986 78.3064 350.996 77.8265C351.007 77.3467 351.124 76.8753 351.34 76.4473C351.556 76.0192 351.864 75.6453 352.243 75.3532C352.622 75.0611 353.061 74.8583 353.528 74.7598C355.455 74.2504 357.549 74.9834 357.592 77.1822C357.555 77.4302 357.61 77.6833 357.747 77.8931C357.883 78.1028 358.092 78.2545 358.333 78.3189C359.847 77.92 361.229 77.1273 362.342 76.0207C369.105 69.5545 371.001 63.1629 366.795 55.3365C366.042 53.9513 365.22 52.6034 364.522 51.1934C361.983 46.1859 360.731 40.6191 360.878 35.0001C360.818 33.6353 361.285 32.3001 362.181 31.2732C362.827 30.6707 363.629 30.264 364.494 30.1003C365.36 29.9365 366.254 30.0223 367.073 30.3477C367.689 30.6503 368.183 31.1567 368.472 31.7821C368.761 32.4075 368.828 33.1138 368.661 33.7826C368.21 35.5343 366.919 36.3169 364.658 36.2113C364.232 36.2113 363.806 36.0933 363.281 36.0188C363.162 36.4375 363.08 36.8655 363.034 37.2983C363.033 37.9212 363.07 38.5435 363.145 39.1618C363.861 46.3919 368.296 52.4419 370.896 59.1006C370.935 59.1981 370.989 59.2884 371.057 59.3677C371.922 60.4609 372.867 60.4112 373.639 59.2124C374.411 58.0136 374.38 56.8334 374.38 55.6098C374.38 51.7897 374.25 47.9759 374.25 44.162C374.23 40.9191 375.095 37.7328 376.752 34.9504C378.598 31.7272 381.567 29.3063 385.084 28.155C386.961 27.4882 388.998 27.4292 390.91 27.9862C392.822 28.5432 394.513 29.6883 395.745 31.2608C397.036 33.0062 396.98 34.8883 395.652 36.4101C394.324 37.9319 392.391 38.4164 390.97 37.553C389.334 36.553 389.117 34.8572 390.452 32.9689C391.786 31.0806 391.168 29.7638 388.71 29.4719C387.049 29.3287 385.386 29.732 383.972 30.621C378.413 33.7267 376.659 38.6959 376.387 44.2862C376.103 50.3114 377.005 56.3614 375.77 62.7343C376.88 62.0683 377.86 61.203 378.66 60.1814C382.268 56.3851 386.665 53.4387 391.539 51.5537C393.918 50.5852 396.498 50.2245 399.049 50.5039C402.453 50.8456 404.831 53.4979 404.503 56.4421C404.413 57.3617 403.982 58.2134 403.295 58.8271C402.608 59.4407 401.716 59.7713 400.797 59.7528C399.037 59.7528 397.771 58.4422 397.555 56.4545C397.524 56.144 397.592 55.8334 397.555 55.529C397.406 53.8705 396.622 53.15 394.788 53.2059C393.347 53.2733 391.934 53.6281 390.631 54.2495C386.826 55.8408 383.427 58.2739 380.686 61.3678C377.304 65.2586 374.701 69.7701 373.021 74.6542C371.923 78.2289 370.614 81.7343 369.099 85.1516C368.617 86.1578 366.931 87.3815 368.481 88.3939C369.785 89.2573 370.884 87.7728 371.811 87.015C374.479 84.8223 376.993 82.4806 379.667 80.3004C382.416 77.9119 385.737 76.2868 389.303 75.5859C393.379 74.8902 397.184 76.7536 398.568 80.0581C399.358 81.9216 398.901 83.4558 397.369 84.8161C395.628 86.3566 393.379 86.9094 391.582 86.164C390.699 85.8048 389.947 85.1839 389.424 84.3839C388.901 83.5839 388.632 82.6427 388.654 81.6855C388.654 81.1638 389.389 80.5116 388.339 80.1762C386.999 81.7849 386.807 82.2446 387.036 83.7105C387.212 84.8748 387.673 85.9768 388.378 86.917C389.084 87.8571 390.01 88.606 391.075 89.0958C392.746 89.9867 394.581 90.5221 396.466 90.6685C398.351 90.8149 400.246 90.5692 402.033 89.9468C403.073 89.6518 404.037 89.1314 404.857 88.4221C405.676 87.7129 406.331 86.8319 406.776 85.841C407.624 83.9501 408.073 81.9026 408.093 79.8283C408.113 77.754 407.705 75.6981 406.894 73.7908C405.127 69.4427 397.629 66.2562 393.231 68.9644C391.502 69.9164 389.723 70.7728 387.901 71.5298C386.502 72.2554 384.906 72.5018 383.355 72.2317C382.354 72.049 381.446 71.5224 380.789 70.7418C380.131 69.9612 379.763 68.9751 379.748 67.952C379.803 66.0885 381.409 64.4735 383.454 64.1381C385.498 63.8027 386.258 64.3245 387.308 66.9146C387.925 68.4303 388.438 68.6477 390.062 68.0265C390.476 67.8773 390.872 67.6815 391.242 67.4426C394.905 65.0326 398.846 64.9146 403.039 66.014C406.82 67.0078 407.561 66.5047 408.166 62.989C408.302 62.1815 408.265 61.343 408.327 60.5044C408.537 57.6036 407.95 54.7464 407.765 51.8705C407.462 47.2988 405.362 45.0378 400.544 43.7272C396.468 42.634 392.385 43.1061 388.308 43.7707C387.444 43.9198 386.455 44.0999 385.992 44.8515C385.529 45.6031 386.48 46.0938 386.678 46.7895C387.19 48.5038 386.319 50.0629 384.454 50.7462C382.83 51.3673 380.859 50.8021 380.081 49.448C379.185 47.8827 379.717 46.3857 380.767 45.0999C381.665 43.99 382.778 43.0752 384.038 42.411C385.298 41.7469 386.68 41.3472 388.098 41.2364C389.871 41.0687 391.637 40.8637 393.404 40.6587C394.718 40.514 395.946 39.9326 396.894 39.0065C399.926 36.1741 399.982 31.8074 396.727 29.1054C393.942 26.7764 391.331 24.2457 388.914 21.5336C386.84 19.2875 385.325 16.5801 384.491 13.6326C384.003 11.8064 383.83 9.94298 385.201 8.30936C385.726 7.66696 386.441 7.20928 387.241 7.00267C388.042 6.79606 388.887 6.85125 389.655 7.16024C390.44 7.48252 391.085 8.07679 391.472 8.83556C391.86 9.59432 391.964 10.4675 391.767 11.2971C391.415 12.9059 390.217 13.6574 388.03 13.6078C387.61 13.6078 387.209 13.3096 386.591 13.6574C387.382 16.906 389.303 19.6515 391.65 22.1113C395.387 26.0556 399.784 29.4346 403.484 33.441C403.763 33.772 404.1 34.0479 404.479 34.2547C404.903 34.5213 405.414 34.612 405.903 34.5077C406.393 34.4035 406.823 34.1124 407.104 33.6957C407.488 33.0791 407.734 32.3862 407.826 31.6645C408.561 28.4967 408.16 25.2915 408.333 22.1113C408.401 20.9249 407.579 18.8378 409.611 18.8875C411.415 18.931 410.902 20.987 410.908 22.2417C410.958 48.5452 410.983 74.8405 410.983 101.127C410.983 105.581 411.458 105.68 406.01 105.687C378.5 105.724 350.989 105.687 323.479 105.898C313.788 105.972 304.109 106.196 294.449 105.805C281.953 105.333 269.477 105.581 257 105.575ZM367.561 93.4439C366.562 93.8852 365.59 94.3871 364.652 94.9471C359.711 97.8105 354.331 99.7175 348.784 101.27C347.691 101.581 346.462 101.674 345.27 102.904C352.021 103.202 358.272 103.388 364.362 101.488C367.068 100.661 369.337 98.7889 370.674 96.2825C371.193 95.3508 371.44 94.2452 370.619 93.3755C369.655 92.3693 368.531 93.0339 367.549 93.4439H367.561ZM389.593 90.7791C386.838 89.0958 385.214 86.7914 384.886 83.6856C384.695 81.8222 384.176 81.5737 382.323 82.2694C377.382 84.1329 373.738 89.6362 373.948 94.9284C375.51 94.7731 375.751 93.5557 376.215 92.5618C376.832 91.2388 377.227 89.8226 377.932 88.5554C378.722 87.1641 379.865 86.0149 381.724 85.8348C382.098 85.7442 382.491 85.766 382.853 85.8973C383.216 86.0287 383.532 86.2639 383.762 86.574C383.993 86.9248 384.094 87.3463 384.046 87.7644C383.999 88.1824 383.807 88.5703 383.503 88.8598C383.26 89.1592 382.93 89.375 382.559 89.4774C382.188 89.5798 381.795 89.5637 381.434 89.4313C380.767 89.2635 380.285 88.0772 379.47 88.9281C378.53 89.9223 377.995 91.2341 377.969 92.6053C377.969 93.2265 378.66 93.4252 379.204 93.301C380.165 93.0601 381.109 92.7593 382.033 92.4003C383.351 91.821 384.765 91.4904 386.202 91.4251C388.302 91.4251 389.815 92.45 390.13 94.0899C390.445 95.7297 389.426 96.8975 387.215 97.5434C386.912 97.6366 386.597 97.7174 385.838 97.9348C388.376 99.3013 390.205 98.6367 391.878 97.5372C393.114 96.7173 393.268 95.1893 392.57 93.5992C392.002 92.2637 390.767 91.5245 389.581 90.7791H389.593ZM392.119 102.916C397.61 102.531 401.662 99.3199 404.812 95.2204C405.245 94.6613 405.819 94.034 405.189 93.2762C404.919 92.9948 404.577 92.7942 404.201 92.6966C403.825 92.599 403.429 92.6082 403.058 92.7233C400.502 93.2107 397.889 93.3257 395.3 93.065C394.893 98.0901 392.428 100.519 388.03 100.599C384.411 100.668 382.533 98.7857 382.101 94.6303C381.286 94.1644 380.625 94.6986 379.982 94.9967C376.952 96.4536 374.097 98.2519 371.471 100.357C370.903 100.804 370.174 101.345 370.514 102.165C370.853 102.985 371.687 103.065 372.478 103.065C379.031 103.065 385.603 103.376 392.119 102.916Z" fill="#D29A48"/>
<path d="M406.144 11.5191C406.124 11.2032 406.168 10.8865 406.273 10.5882C406.379 10.2899 406.543 10.0163 406.757 9.78389C406.971 9.55152 407.229 9.36526 407.517 9.23644C407.804 9.10762 408.115 9.03892 408.43 9.03452C408.745 9.01173 409.062 9.05192 409.362 9.15278C409.661 9.25364 409.938 9.41318 410.177 9.62219C410.415 9.8312 410.61 10.0856 410.75 10.3706C410.89 10.6557 410.973 10.9658 410.993 11.2831C411.028 11.6001 410.996 11.921 410.897 12.2243C410.799 12.5276 410.638 12.8063 410.424 13.0416C410.209 13.277 409.948 13.4635 409.656 13.5887C409.364 13.714 409.049 13.775 408.732 13.7677C408.415 13.7922 408.097 13.7534 407.795 13.6535C407.493 13.5535 407.213 13.3945 406.973 13.1854C406.732 12.9764 406.535 12.7215 406.393 12.4355C406.251 12.1496 406.166 11.8381 406.144 11.5191Z" fill="#CE9747"/>
<path d="M407.719 0.46875C408.849 0.63646 409.634 1.0899 409.572 2.2266C409.587 2.4693 409.548 2.71235 409.459 2.93815C409.369 3.16394 409.23 3.36683 409.053 3.53212C408.876 3.69741 408.664 3.82096 408.433 3.89382C408.202 3.96668 407.959 3.98703 407.719 3.95339C407.481 3.98349 407.239 3.96087 407.01 3.88711C406.781 3.81335 406.571 3.69022 406.395 3.52634C406.218 3.36247 406.08 3.16179 405.988 2.93836C405.897 2.71493 405.855 2.47413 405.866 2.23281C405.885 1.15201 406.62 0.59298 407.719 0.46875Z" fill="#C99447"/>
</svg>
