<svg width="411" height="106" viewBox="0 0 411 106" fill="none" xmlns="http://www.w3.org/2000/svg">
<path d="M154 0.454399V3.37381C154 3.37381 118.9 3.5353 105.606 3.37381C104.05 3.37381 102.487 3.44213 100.937 3.5353C100.146 3.57878 99.3186 3.7527 99.0221 4.53535C98.6515 5.47949 99.3494 6.0758 100.066 6.60378C103.296 8.97034 106.496 11.3742 109.782 13.6724C111.282 14.8356 113.092 15.5251 114.982 15.6539C114.914 14.9271 114.853 14.4116 114.828 13.9333C114.742 12.5482 115.267 11.4487 116.786 11.0698C117.488 10.8847 118.23 10.9363 118.9 11.2169C119.569 11.4974 120.129 11.9913 120.492 12.6227C122.116 15.0328 120.449 17.9087 117.206 18.2627C115.013 18.4987 113.018 17.8341 111.104 16.9583C107.583 15.3433 104.575 13.0451 101.573 10.7468C96.4903 6.78908 90.2617 4.60812 83.8338 4.53535C76.669 4.3428 69.955 5.97641 63.204 7.76531C58.2627 9.07594 54.1491 11.7096 50.4617 14.8961C48.5222 16.5732 46.7557 18.4615 45.7675 20.8467C45.4525 21.6231 45.051 22.4927 45.9466 23.1015C46.694 23.6046 47.4043 23.1015 48.0466 22.6356C50.7515 20.784 53.581 19.1236 56.5147 17.6664C64.0934 13.896 72.0489 11.4984 80.8135 12.0761C86.1748 12.4239 90.7331 14.2936 94.2352 18.1261C96.3106 20.4057 97.5273 23.0021 97.1876 26.0768C96.57 31.959 92.2464 36.3257 85.903 37.5804C82.6479 38.2016 79.4732 38.3009 76.5887 36.4623C75.495 35.8199 74.6785 34.7909 74.2982 33.5759C73.918 32.361 74.0013 31.0472 74.5319 29.8906C75.7672 27.3501 78.7876 25.9028 81.3261 26.6047C83.8647 27.3066 85.1062 29.3254 84.7541 32.5056C84.5194 34.6672 85.4706 35.3443 87.6695 34.4436C94.4143 31.6733 97.1629 23.2008 90.5601 18.2317C88.5523 16.6557 86.2536 15.4958 83.7972 14.8187C81.3408 14.1417 78.7752 13.9611 76.249 14.2874C68.7197 15.2253 61.9501 18.0143 55.4215 21.4616C54.9322 21.691 54.4836 21.9994 54.0935 22.3747C53.4326 23.0766 53.4759 23.6978 54.5938 23.9524C55.3412 24.1388 56.1194 24.2257 56.8668 24.4121C57.5017 24.5452 58.0943 24.8336 58.592 25.2518C59.0897 25.67 59.4773 26.205 59.7204 26.8097C59.9174 27.2469 60.0143 27.7229 60.0039 28.2028C59.9934 28.6826 59.876 29.154 59.6602 29.582C59.4444 30.0101 59.1357 30.384 58.757 30.6761C58.3783 30.9681 57.9392 31.171 57.4721 31.2695C55.545 31.7789 53.4512 31.0459 53.4079 28.8471C53.4452 28.5991 53.3902 28.346 53.2534 28.1362C53.1167 27.9265 52.9078 27.7748 52.6667 27.7104C51.1531 28.1093 49.7705 28.9019 48.6581 30.0086C41.8947 36.4748 39.9985 42.8664 44.2048 50.6928C44.9583 52.078 45.7798 53.4259 46.4778 54.8359C49.0167 59.8434 50.2695 65.4102 50.122 71.0292C50.1816 72.394 49.7146 73.7292 48.8187 74.7561C48.1731 75.3586 47.3712 75.7652 46.5056 75.929C45.64 76.0928 44.746 76.007 43.9268 75.6816C43.3106 75.379 42.8166 74.8725 42.5276 74.2472C42.2386 73.6218 42.1721 72.9155 42.3395 72.2467C42.7903 70.495 44.0812 69.7124 46.3419 69.818C46.7681 69.818 47.1943 69.936 47.7193 70.0105C47.8376 69.5918 47.9203 69.1638 47.9663 68.731C47.9669 68.1081 47.9298 67.4858 47.8552 66.8675C47.1387 59.6374 42.7039 53.5874 40.1035 46.9287C40.0653 46.8312 40.011 46.7409 39.9429 46.6616C39.0782 45.5684 38.1332 45.6181 37.3611 46.8169C36.589 48.0157 36.6199 49.1959 36.6199 50.4195C36.6199 54.2396 36.7496 58.0534 36.7496 61.8673C36.7699 65.1102 35.9046 68.2965 34.2481 71.0789C32.4016 74.302 29.4332 76.723 25.9159 77.8743C24.039 78.5411 22.0015 78.6001 20.0895 78.0431C18.1775 77.4861 16.487 76.341 15.2551 74.7685C13.9642 73.0231 14.0198 71.141 15.3477 69.6192C16.6757 68.0974 18.609 67.6129 20.0296 68.4763C21.6664 69.4763 21.8826 71.1721 20.5484 73.0604C19.2143 74.9487 19.8319 76.2655 22.2902 76.5574C23.9515 76.7006 25.614 76.2973 27.0277 75.4083C32.5866 72.3026 34.3408 67.3334 34.6125 61.7431C34.8967 55.7179 33.9949 49.6679 35.2302 43.295C34.1195 43.961 33.1398 44.8263 32.3395 45.8479C28.7325 49.6442 24.3345 52.5906 19.4613 54.4756C17.0824 55.4441 14.502 55.8048 11.9506 55.5254C8.54729 55.1837 6.1693 52.5314 6.49666 49.5872C6.58665 48.6676 7.01819 47.8159 7.70515 47.2022C8.39211 46.5886 9.28394 46.258 10.2026 46.2765C11.9629 46.2765 13.2291 47.5871 13.4453 49.5748C13.4762 49.8853 13.4083 50.1959 13.4453 50.5003C13.5936 52.1587 14.378 52.8793 16.2124 52.8234C17.6531 52.756 19.0661 52.4012 20.3693 51.7798C24.1737 50.1885 27.5727 47.7554 30.3136 44.6615C33.696 40.7707 36.2988 36.2592 37.9788 31.3751C39.0765 27.8004 40.3863 24.295 41.9009 20.8777C42.3827 19.8715 44.0689 18.6478 42.5186 17.6354C41.2153 16.772 40.1159 18.2565 39.1894 19.0143C36.5211 21.207 34.0072 23.5487 31.3328 25.7289C28.584 28.1174 25.2625 29.7425 21.6973 30.4434C17.6207 31.1391 13.8159 29.2757 12.4324 25.9712C11.6418 24.1077 12.0988 22.5735 13.6306 21.2132C15.3724 19.6727 17.6207 19.1199 19.4181 19.8653C20.3006 20.2245 21.0533 20.8454 21.5763 21.6454C22.0993 22.4454 22.3677 23.3866 22.3458 24.3438C22.3458 24.8655 21.6108 25.5177 22.6608 25.8531C24.0011 24.2444 24.1926 23.7847 23.9641 22.3188C23.7882 21.1545 23.3268 20.0525 22.6216 19.1123C21.9164 18.1722 20.9895 17.4233 19.9246 16.9335C18.2542 16.0426 16.4192 15.5072 14.534 15.3608C12.6489 15.2144 10.7539 15.4601 8.9673 16.0825C7.92669 16.3775 6.96286 16.8979 6.14341 17.6072C5.32396 18.3164 4.66873 19.1974 4.22367 20.1883C3.37563 22.0792 2.92731 24.1267 2.90711 26.201C2.88691 28.2753 3.29526 30.3312 4.10631 32.2385C5.87282 36.5866 13.3712 39.7731 17.7689 37.0649C19.498 36.1129 21.2775 35.2565 23.0993 34.4995C24.4982 33.7739 26.0944 33.5275 27.6453 33.7976C28.6465 33.9803 29.5535 34.5069 30.2114 35.2875C30.8694 36.0681 31.2373 37.0542 31.2525 38.0773C31.1969 39.9408 29.591 41.5558 27.5465 41.8912C25.502 42.2266 24.7423 41.7048 23.6923 39.1146C23.0746 37.599 22.562 37.3816 20.9375 38.0028C20.5236 38.152 20.1279 38.3478 19.7578 38.5867C16.0951 40.9967 12.1544 41.1147 7.96051 40.0153C4.18043 39.0215 3.43924 39.5246 2.83393 43.0403C2.69805 43.8478 2.73511 44.6863 2.67334 45.5249C2.46334 48.4256 3.05012 51.2829 3.23541 54.1588C3.53807 58.7305 5.63811 60.9915 10.4559 62.3021C14.5324 63.3953 18.6151 62.9232 22.6917 62.2586C23.5564 62.1095 24.5447 61.9294 25.0079 61.1778C25.4712 60.4262 24.52 59.9355 24.3223 59.2398C23.8097 57.5255 24.6806 55.9664 26.5459 55.2831C28.1703 54.662 30.1407 55.2272 30.9189 56.5813C31.8145 58.1466 31.2833 59.6436 30.2333 60.9294C29.3353 62.0393 28.2224 62.9541 26.962 63.6183C25.7017 64.2824 24.3203 64.6821 22.9017 64.7929C21.129 64.9606 19.3625 65.1656 17.596 65.3706C16.2823 65.5153 15.0541 66.0967 14.1062 67.0228C11.0735 69.8552 11.0179 74.2219 14.273 76.9239C17.0575 79.2529 19.669 81.7836 22.0864 84.4957C24.1595 86.7418 25.6749 89.4491 26.5088 92.3967C26.9968 94.2229 27.1697 96.0863 25.7985 97.7199C25.2738 98.3623 24.5594 98.82 23.7587 99.0266C22.958 99.2332 22.1126 99.178 21.3452 98.8691C20.5599 98.5468 19.9152 97.9525 19.5278 97.1937C19.1403 96.435 19.0357 95.5618 19.2328 94.7322C19.5849 93.1234 20.7831 92.3719 22.9696 92.4215C23.3897 92.4215 23.7911 92.7197 24.4088 92.3719C23.6182 89.1232 21.6973 86.3778 19.3502 83.918C15.6133 79.9737 11.2156 76.5947 7.51579 72.5883C7.23743 72.2573 6.9002 71.9814 6.52136 71.7746C6.09694 71.508 5.58625 71.4173 5.09669 71.5216C4.60714 71.6258 4.17685 71.9169 3.89631 72.3336C3.51222 72.9502 3.26567 73.6431 3.17365 74.3648C2.43863 77.5326 2.84011 80.7378 2.66717 83.918C2.59922 85.1044 3.42071 87.1915 1.38861 87.1418C-0.414956 87.0983 0.0977018 85.0423 0.0915252 83.7876C0.0421124 57.4841 0.017406 31.1888 0.017406 4.90182C0.017406 0.448196 -0.458192 0.348816 4.98957 0.342606C32.5001 0.305336 60.0107 0.342606 87.5213 0.131416C97.2123 0.0568771 106.891 -0.16674 116.551 0.224579C129.047 0.696655 141.523 0.448189 154 0.454399ZM43.4389 12.5854C44.438 12.1441 45.4095 11.6422 46.3481 11.0822C51.2893 8.21875 56.6692 6.31183 62.2157 4.75896C63.309 4.44839 64.5381 4.35522 65.7302 3.12534C58.9792 2.82719 52.7285 2.64085 46.6384 4.54156C43.9324 5.36873 41.6626 7.24039 40.3259 9.74678C39.807 10.6785 39.56 11.7841 40.3815 12.6537C41.345 13.66 42.4692 12.9954 43.4512 12.5854H43.4389ZM21.407 15.2502C24.1617 16.9335 25.7862 19.2379 26.1135 22.3437C26.305 24.2071 26.8238 24.4556 28.6768 23.7599C33.6181 21.8964 37.2623 16.3931 37.0523 11.1009C35.4896 11.2562 35.2487 12.4736 34.7855 13.4675C34.1678 14.7905 33.7725 16.2067 33.0684 17.4739C32.2778 18.8652 31.1351 20.0144 29.2759 20.1945C28.9015 20.2851 28.509 20.2633 28.1467 20.132C27.7845 20.0006 27.4684 19.7654 27.2377 19.4553C27.0067 19.1045 26.9061 18.683 26.9535 18.2649C27.001 17.8468 27.1934 17.459 27.4971 17.1695C27.7404 16.8701 28.0703 16.6543 28.441 16.5519C28.8118 16.4495 29.205 16.4656 29.5662 16.598C30.2333 16.7657 30.7151 17.9521 31.5304 17.1012C32.4698 16.1069 33.0052 14.7952 33.0313 13.424C33.0313 12.8028 32.3395 12.6041 31.796 12.7283C30.8354 12.9692 29.8906 13.27 28.9671 13.629C27.6486 14.2083 26.2353 14.5389 24.7979 14.6041C22.6979 14.6041 21.1846 13.5793 20.8696 11.9394C20.5546 10.2996 21.5737 9.13184 23.785 8.48586C24.0876 8.39268 24.4026 8.31193 25.1623 8.09453C22.6238 6.728 20.7955 7.39263 19.1216 8.49206C17.8863 9.31197 17.7319 10.84 18.4298 12.4301C18.9981 13.7656 20.2334 14.5048 21.4193 15.2502H21.407ZM18.8807 3.11292C13.3897 3.49802 9.33789 6.70936 6.18783 10.8089C5.75547 11.368 5.18104 11.9953 5.81105 12.7531C6.08063 13.0345 6.42254 13.2351 6.79874 13.3327C7.17495 13.4303 7.5707 13.4211 7.94198 13.306C10.4983 12.8186 13.1109 12.7036 15.6998 12.9643C16.1074 7.93924 18.5719 5.51055 22.9696 5.4298C26.5891 5.36148 28.4668 7.24355 28.8992 11.399C29.7145 11.8649 30.3754 11.3307 31.0177 11.0325C34.0476 9.57571 36.9031 7.77735 39.5291 5.67205C40.0973 5.22482 40.8262 4.68443 40.4865 3.86451C40.1468 3.0446 39.3129 2.96385 38.5223 2.96385C31.9689 2.96385 25.397 2.65327 18.8807 3.11292Z" fill="#D29A48"/>
<path d="M4.85575 94.5102C4.87587 94.8261 4.83193 95.1428 4.72659 95.4411C4.62125 95.7394 4.45671 96.013 4.24297 96.2454C4.02923 96.4778 3.77075 96.664 3.48323 96.7929C3.1957 96.9217 2.88514 96.9904 2.57041 96.9948C2.25504 97.0176 1.93831 96.9774 1.63847 96.8765C1.33862 96.7757 1.06158 96.6161 0.823314 96.4071C0.585047 96.1981 0.390262 95.9437 0.250182 95.6587C0.110101 95.3736 0.027494 95.0635 0.00711995 94.7462C-0.0282063 94.4292 0.0043149 94.1083 0.1025 93.805C0.200685 93.5017 0.362262 93.223 0.576382 92.9877C0.790503 92.7523 1.05221 92.5658 1.34393 92.4406C1.63566 92.3153 1.95065 92.2543 2.26775 92.2616C2.58476 92.2371 2.90345 92.2759 3.20547 92.3758C3.50748 92.4758 3.78683 92.6348 4.02742 92.8439C4.268 93.0529 4.46506 93.3078 4.60723 93.5938C4.74939 93.8797 4.83386 94.1912 4.85575 94.5102Z" fill="#CE9747"/>
<path d="M3.28095 105.561C2.15063 105.393 1.3662 104.939 1.42797 103.803C1.41282 103.56 1.45154 103.317 1.54131 103.091C1.63109 102.865 1.76968 102.662 1.94705 102.497C2.12442 102.332 2.33612 102.208 2.56682 102.135C2.79753 102.063 3.04146 102.042 3.28095 102.076C3.51929 102.046 3.76129 102.068 3.99003 102.142C4.21877 102.216 4.42873 102.339 4.60522 102.503C4.7817 102.667 4.92046 102.868 5.01179 103.091C5.10311 103.314 5.14479 103.555 5.13393 103.796C5.1154 104.877 4.38038 105.436 3.28095 105.561Z" fill="#C99447"/>
<path d="M257 0.454399V3.37381C257 3.37381 292.1 3.5353 305.394 3.37381C306.95 3.37381 308.513 3.44213 310.063 3.5353C310.854 3.57878 311.681 3.7527 311.978 4.53535C312.349 5.47949 311.651 6.0758 310.934 6.60378C307.704 8.97034 304.504 11.3742 301.218 13.6724C299.718 14.8356 297.908 15.5251 296.018 15.6539C296.086 14.9271 296.147 14.4116 296.172 13.9333C296.258 12.5482 295.733 11.4487 294.214 11.0698C293.512 10.8847 292.77 10.9363 292.1 11.2169C291.431 11.4974 290.871 11.9913 290.508 12.6227C288.884 15.0328 290.551 17.9087 293.794 18.2627C295.987 18.4987 297.982 17.8341 299.896 16.9583C303.417 15.3433 306.425 13.0451 309.427 10.7468C314.51 6.78908 320.738 4.60812 327.166 4.53535C334.331 4.3428 341.045 5.97641 347.796 7.76531C352.737 9.07594 356.851 11.7096 360.538 14.8961C362.478 16.5732 364.244 18.4615 365.233 20.8467C365.548 21.6231 365.949 22.4927 365.053 23.1015C364.306 23.6046 363.596 23.1015 362.953 22.6356C360.249 20.784 357.419 19.1236 354.485 17.6664C346.907 13.896 338.951 11.4984 330.187 12.0761C324.825 12.4239 320.267 14.2936 316.765 18.1261C314.689 20.4057 313.473 23.0021 313.812 26.0768C314.43 31.959 318.754 36.3257 325.097 37.5804C328.352 38.2016 331.527 38.3009 334.411 36.4623C335.505 35.8199 336.322 34.7909 336.702 33.5759C337.082 32.361 336.999 31.0472 336.468 29.8906C335.233 27.3501 332.212 25.9028 329.674 26.6047C327.135 27.3066 325.894 29.3254 326.246 32.5056C326.481 34.6672 325.529 35.3443 323.331 34.4436C316.586 31.6733 313.837 23.2008 320.44 18.2317C322.448 16.6557 324.746 15.4958 327.203 14.8187C329.659 14.1417 332.225 13.9611 334.751 14.2874C342.28 15.2253 349.05 18.0143 355.579 21.4616C356.068 21.691 356.516 21.9994 356.906 22.3747C357.567 23.0766 357.524 23.6978 356.406 23.9524C355.659 24.1388 354.881 24.2257 354.133 24.4121C353.498 24.5452 352.906 24.8336 352.408 25.2518C351.91 25.67 351.523 26.205 351.28 26.8097C351.083 27.2469 350.986 27.7229 350.996 28.2028C351.007 28.6826 351.124 29.154 351.34 29.582C351.556 30.0101 351.864 30.384 352.243 30.6761C352.622 30.9681 353.061 31.171 353.528 31.2695C355.455 31.7789 357.549 31.0459 357.592 28.8471C357.555 28.5991 357.61 28.346 357.747 28.1362C357.883 27.9265 358.092 27.7748 358.333 27.7104C359.847 28.1093 361.229 28.9019 362.342 30.0086C369.105 36.4748 371.001 42.8664 366.795 50.6928C366.042 52.078 365.22 53.4259 364.522 54.8359C361.983 59.8434 360.731 65.4102 360.878 71.0292C360.818 72.394 361.285 73.7292 362.181 74.7561C362.827 75.3586 363.629 75.7652 364.494 75.929C365.36 76.0928 366.254 76.007 367.073 75.6816C367.689 75.379 368.183 74.8725 368.472 74.2472C368.761 73.6218 368.828 72.9155 368.661 72.2467C368.21 70.495 366.919 69.7124 364.658 69.818C364.232 69.818 363.806 69.936 363.281 70.0105C363.162 69.5918 363.08 69.1638 363.034 68.731C363.033 68.1081 363.07 67.4858 363.145 66.8675C363.861 59.6374 368.296 53.5874 370.896 46.9287C370.935 46.8312 370.989 46.7409 371.057 46.6616C371.922 45.5684 372.867 45.6181 373.639 46.8169C374.411 48.0157 374.38 49.1959 374.38 50.4195C374.38 54.2396 374.25 58.0534 374.25 61.8673C374.23 65.1102 375.095 68.2965 376.752 71.0789C378.598 74.302 381.567 76.723 385.084 77.8743C386.961 78.5411 388.998 78.6001 390.91 78.0431C392.822 77.4861 394.513 76.341 395.745 74.7685C397.036 73.0231 396.98 71.141 395.652 69.6192C394.324 68.0974 392.391 67.6129 390.97 68.4763C389.334 69.4763 389.117 71.1721 390.452 73.0604C391.786 74.9487 391.168 76.2655 388.71 76.5574C387.049 76.7006 385.386 76.2973 383.972 75.4083C378.413 72.3026 376.659 67.3334 376.387 61.7431C376.103 55.7179 377.005 49.6679 375.77 43.295C376.88 43.961 377.86 44.8263 378.66 45.8479C382.268 49.6442 386.665 52.5906 391.539 54.4756C393.918 55.4441 396.498 55.8048 399.049 55.5254C402.453 55.1837 404.831 52.5314 404.503 49.5872C404.413 48.6676 403.982 47.8159 403.295 47.2022C402.608 46.5886 401.716 46.258 400.797 46.2765C399.037 46.2765 397.771 47.5871 397.555 49.5748C397.524 49.8853 397.592 50.1959 397.555 50.5003C397.406 52.1587 396.622 52.8793 394.788 52.8234C393.347 52.756 391.934 52.4012 390.631 51.7798C386.826 50.1885 383.427 47.7554 380.686 44.6615C377.304 40.7707 374.701 36.2592 373.021 31.3751C371.923 27.8004 370.614 24.295 369.099 20.8777C368.617 19.8715 366.931 18.6478 368.481 17.6354C369.785 16.772 370.884 18.2565 371.811 19.0143C374.479 21.207 376.993 23.5487 379.667 25.7289C382.416 28.1174 385.737 29.7425 389.303 30.4434C393.379 31.1391 397.184 29.2757 398.568 25.9712C399.358 24.1077 398.901 22.5735 397.369 21.2132C395.628 19.6727 393.379 19.1199 391.582 19.8653C390.699 20.2245 389.947 20.8454 389.424 21.6454C388.901 22.4454 388.632 23.3866 388.654 24.3438C388.654 24.8655 389.389 25.5177 388.339 25.8531C386.999 24.2444 386.807 23.7847 387.036 22.3188C387.212 21.1545 387.673 20.0525 388.378 19.1123C389.084 18.1722 390.01 17.4233 391.075 16.9335C392.746 16.0426 394.581 15.5072 396.466 15.3608C398.351 15.2144 400.246 15.4601 402.033 16.0825C403.073 16.3775 404.037 16.8979 404.857 17.6072C405.676 18.3164 406.331 19.1974 406.776 20.1883C407.624 22.0792 408.073 24.1267 408.093 26.201C408.113 28.2753 407.705 30.3312 406.894 32.2385C405.127 36.5866 397.629 39.7731 393.231 37.0649C391.502 36.1129 389.723 35.2565 387.901 34.4995C386.502 33.7739 384.906 33.5275 383.355 33.7976C382.354 33.9803 381.446 34.5069 380.789 35.2875C380.131 36.0681 379.763 37.0542 379.748 38.0773C379.803 39.9408 381.409 41.5558 383.454 41.8912C385.498 42.2266 386.258 41.7048 387.308 39.1146C387.925 37.599 388.438 37.3816 390.062 38.0028C390.476 38.152 390.872 38.3478 391.242 38.5867C394.905 40.9967 398.846 41.1147 403.039 40.0153C406.82 39.0215 407.561 39.5246 408.166 43.0403C408.302 43.8478 408.265 44.6863 408.327 45.5249C408.537 48.4256 407.95 51.2829 407.765 54.1588C407.462 58.7305 405.362 60.9915 400.544 62.3021C396.468 63.3953 392.385 62.9232 388.308 62.2586C387.444 62.1095 386.455 61.9294 385.992 61.1778C385.529 60.4262 386.48 59.9355 386.678 59.2398C387.19 57.5255 386.319 55.9664 384.454 55.2831C382.83 54.662 380.859 55.2272 380.081 56.5813C379.185 58.1466 379.717 59.6436 380.767 60.9294C381.665 62.0393 382.778 62.9541 384.038 63.6183C385.298 64.2824 386.68 64.6821 388.098 64.7929C389.871 64.9606 391.637 65.1656 393.404 65.3706C394.718 65.5153 395.946 66.0967 396.894 67.0228C399.926 69.8552 399.982 74.2219 396.727 76.9239C393.942 79.2529 391.331 81.7836 388.914 84.4957C386.84 86.7418 385.325 89.4491 384.491 92.3967C384.003 94.2229 383.83 96.0863 385.201 97.7199C385.726 98.3623 386.441 98.82 387.241 99.0266C388.042 99.2332 388.887 99.178 389.655 98.8691C390.44 98.5468 391.085 97.9525 391.472 97.1937C391.86 96.435 391.964 95.5618 391.767 94.7322C391.415 93.1234 390.217 92.3719 388.03 92.4215C387.61 92.4215 387.209 92.7197 386.591 92.3719C387.382 89.1232 389.303 86.3778 391.65 83.918C395.387 79.9737 399.784 76.5947 403.484 72.5883C403.763 72.2573 404.1 71.9814 404.479 71.7746C404.903 71.508 405.414 71.4173 405.903 71.5216C406.393 71.6258 406.823 71.9169 407.104 72.3336C407.488 72.9502 407.734 73.6431 407.826 74.3648C408.561 77.5326 408.16 80.7378 408.333 83.918C408.401 85.1044 407.579 87.1915 409.611 87.1418C411.415 87.0983 410.902 85.0423 410.908 83.7876C410.958 57.4841 410.983 31.1888 410.983 4.90182C410.983 0.448196 411.458 0.348816 406.01 0.342606C378.5 0.305336 350.989 0.342606 323.479 0.131416C313.788 0.0568771 304.109 -0.16674 294.449 0.224579C281.953 0.696655 269.477 0.448189 257 0.454399ZM367.561 12.5854C366.562 12.1441 365.59 11.6422 364.652 11.0822C359.711 8.21875 354.331 6.31183 348.784 4.75896C347.691 4.44839 346.462 4.35522 345.27 3.12534C352.021 2.82719 358.272 2.64085 364.362 4.54156C367.068 5.36873 369.337 7.24039 370.674 9.74678C371.193 10.6785 371.44 11.7841 370.619 12.6537C369.655 13.66 368.531 12.9954 367.549 12.5854H367.561ZM389.593 15.2502C386.838 16.9335 385.214 19.2379 384.886 22.3437C384.695 24.2071 384.176 24.4556 382.323 23.7599C377.382 21.8964 373.738 16.3931 373.948 11.1009C375.51 11.2562 375.751 12.4736 376.215 13.4675C376.832 14.7905 377.227 16.2067 377.932 17.4739C378.722 18.8652 379.865 20.0144 381.724 20.1945C382.098 20.2851 382.491 20.2633 382.853 20.132C383.216 20.0006 383.532 19.7654 383.762 19.4553C383.993 19.1045 384.094 18.683 384.046 18.2649C383.999 17.8468 383.807 17.459 383.503 17.1695C383.26 16.8701 382.93 16.6543 382.559 16.5519C382.188 16.4495 381.795 16.4656 381.434 16.598C380.767 16.7657 380.285 17.9521 379.47 17.1012C378.53 16.1069 377.995 14.7952 377.969 13.424C377.969 12.8028 378.66 12.6041 379.204 12.7283C380.165 12.9692 381.109 13.27 382.033 13.629C383.351 14.2083 384.765 14.5389 386.202 14.6041C388.302 14.6041 389.815 13.5793 390.13 11.9394C390.445 10.2996 389.426 9.13184 387.215 8.48586C386.912 8.39268 386.597 8.31193 385.838 8.09453C388.376 6.728 390.205 7.39263 391.878 8.49206C393.114 9.31197 393.268 10.84 392.57 12.4301C392.002 13.7656 390.767 14.5048 389.581 15.2502H389.593ZM392.119 3.11292C397.61 3.49802 401.662 6.70936 404.812 10.8089C405.245 11.368 405.819 11.9953 405.189 12.7531C404.919 13.0345 404.577 13.2351 404.201 13.3327C403.825 13.4303 403.429 13.4211 403.058 13.306C400.502 12.8186 397.889 12.7036 395.3 12.9643C394.893 7.93924 392.428 5.51055 388.03 5.4298C384.411 5.36148 382.533 7.24355 382.101 11.399C381.286 11.8649 380.625 11.3307 379.982 11.0325C376.952 9.57571 374.097 7.77735 371.471 5.67205C370.903 5.22482 370.174 4.68443 370.514 3.86451C370.853 3.0446 371.687 2.96385 372.478 2.96385C379.031 2.96385 385.603 2.65327 392.119 3.11292Z" fill="#D29A48"/>
<path d="M406.144 94.5102C406.124 94.8261 406.168 95.1428 406.273 95.4411C406.379 95.7394 406.543 96.013 406.757 96.2454C406.971 96.4778 407.229 96.664 407.517 96.7929C407.804 96.9217 408.115 96.9904 408.43 96.9948C408.745 97.0176 409.062 96.9774 409.362 96.8765C409.661 96.7757 409.938 96.6161 410.177 96.4071C410.415 96.1981 410.61 95.9437 410.75 95.6587C410.89 95.3736 410.973 95.0635 410.993 94.7462C411.028 94.4292 410.996 94.1083 410.897 93.805C410.799 93.5017 410.638 93.223 410.424 92.9877C410.209 92.7523 409.948 92.5658 409.656 92.4406C409.364 92.3153 409.049 92.2543 408.732 92.2616C408.415 92.2371 408.097 92.2759 407.795 92.3758C407.493 92.4758 407.213 92.6348 406.973 92.8439C406.732 93.0529 406.535 93.3078 406.393 93.5938C406.251 93.8797 406.166 94.1912 406.144 94.5102Z" fill="#CE9747"/>
<path d="M407.719 105.561C408.849 105.393 409.634 104.939 409.572 103.803C409.587 103.56 409.548 103.317 409.459 103.091C409.369 102.865 409.23 102.662 409.053 102.497C408.876 102.332 408.664 102.208 408.433 102.135C408.202 102.063 407.959 102.042 407.719 102.076C407.481 102.046 407.239 102.068 407.01 102.142C406.781 102.216 406.571 102.339 406.395 102.503C406.218 102.667 406.08 102.868 405.988 103.091C405.897 103.314 405.855 103.555 405.866 103.796C405.885 104.877 406.62 105.436 407.719 105.561Z" fill="#C99447"/>
</svg>
