<svg width="1440" height="181" viewBox="0 0 1440 181" fill="none" xmlns="http://www.w3.org/2000/svg">
<path d="M1393.68 15.36C1392.84 17.9108 1392.89 20.6732 1393.82 23.1925C1395.42 28.1889 1398.11 32.7657 1401.7 36.5877C1405.72 41.1709 1410.14 45.3798 1414.92 49.1623C1419.19 52.4338 1419.66 56.8562 1418.28 61.268C1416.9 65.6798 1413.63 68.5357 1408.39 69.0579C1405.34 69.3563 1402.27 69.6014 1399.23 70.0489C1393.17 70.9547 1388.37 73.6828 1385.9 79.011C1384.41 82.208 1385.64 84.8188 1388.69 86.1402C1390.18 86.7702 1391.85 86.8468 1393.38 86.3561C1394.92 85.8655 1396.24 84.84 1397.09 83.4654C1397.58 82.714 1397.83 81.8246 1397.79 80.9248C1397.75 80.025 1397.42 79.161 1396.86 78.4569C1395.5 76.6346 1396 75.4411 1398.17 74.9189C1407.26 72.7344 1416.31 71.8605 1425.27 75.5477C1430.44 77.679 1433.28 81.4407 1433.8 86.6837C1434.14 90.3815 1434.67 94.0686 1434.79 97.777C1434.91 101.485 1435.24 105.237 1434.19 108.86C1433 113.122 1431.89 114.017 1427.34 112.749C1419.13 110.458 1411.57 110.746 1404.23 115.36C1400.71 117.566 1399.97 116.959 1398.36 112.824C1397.1 109.542 1394.87 108.434 1391.27 109.318C1385.6 110.714 1383.64 116.618 1387.5 120.656C1390.08 123.374 1393.66 124.141 1398.04 122.457C1401.78 121.108 1405.4 119.432 1408.85 117.449C1416.32 112.941 1429.35 118.248 1432.4 125.867C1433.76 129.071 1434.46 132.513 1434.46 135.991C1434.46 139.469 1433.76 142.912 1432.4 146.115C1431.72 147.747 1430.71 149.219 1429.42 150.434C1428.13 151.65 1426.61 152.581 1424.94 153.169C1421.56 154.559 1417.9 155.128 1414.26 154.832C1410.62 154.536 1407.1 153.381 1404 151.464C1399.46 148.768 1397.3 144.687 1398.18 139.593C1398.41 138.293 1398.92 136.918 1400.93 136.748C1401.64 138.186 1400.56 139.337 1400.78 140.531C1400.97 142.093 1401.62 143.564 1402.65 144.758C1403.67 145.953 1405.03 146.817 1406.55 147.244C1410.17 148.31 1413.3 147.084 1415.98 144.687C1418.42 142.502 1419.35 140.062 1418.11 137.003C1417.42 135.187 1416.31 133.562 1414.87 132.264C1413.43 130.966 1411.69 130.033 1409.81 129.544C1403.56 127.626 1398.08 129.469 1392.75 132.165C1387.65 134.744 1383.45 138.41 1379.26 142.076C1376.06 144.882 1372.78 147.617 1369.44 150.281C1368.48 151.059 1367.22 151.986 1365.84 150.985C1364.47 149.983 1365.18 148.747 1365.84 147.639C1369.62 141.01 1371.68 133.785 1374.12 126.741C1377.03 118.344 1381.62 110.625 1387.6 104.054C1393.07 97.7994 1400.26 93.2954 1408.28 91.1061C1414.15 89.5396 1415.66 90.6052 1416.31 96.1786C1416.7 99.546 1418.95 101.752 1422 101.752C1423.58 101.755 1425.11 101.164 1426.28 100.096C1427.44 99.0279 1428.16 97.5612 1428.3 95.9868C1428.8 90.9356 1424.66 86.396 1418.77 85.8844C1414.75 85.4199 1410.67 85.9129 1406.88 87.3231C1398.22 90.4704 1390.38 95.5426 1383.97 102.157C1382.47 104.056 1380.63 105.663 1378.55 106.899C1380.59 97.3082 1379.55 88.3674 1379.61 79.4053C1379.61 77.4658 1379.55 75.505 1379.74 73.5762C1380.66 64.5502 1383.85 56.6751 1392.86 51.7305C1395.15 50.3296 1397.81 49.6535 1400.49 49.791C1405.11 50.1427 1406.36 52.3592 1403.91 55.8758C1403.56 56.2898 1403.24 56.7317 1402.95 57.1972C1402.43 58.2487 1402.29 59.4521 1402.57 60.5935C1402.85 61.7349 1403.53 62.7404 1404.48 63.4313C1406.61 65.0191 1408.74 64.6461 1410.88 63.4313C1411.82 62.9672 1412.64 62.2926 1413.29 61.4598C1413.93 60.627 1414.37 59.6582 1414.57 58.6282C1414.78 57.5982 1414.75 56.5347 1414.47 55.5197C1414.2 54.5048 1413.7 53.5656 1413.01 52.7748C1408.04 46.1998 1398.28 44.6759 1390.41 49.3221C1380.65 55.0766 1376.47 63.719 1376.02 74.0025C1375.74 80.3964 1376.17 86.7902 1376.22 93.0989C1376.41 95.4039 1376.11 97.7221 1375.36 99.9083C1374.86 101.07 1374.29 102.306 1372.66 102.359C1371.03 102.413 1370.31 101.187 1369.87 100.047C1367.95 95.2096 1365.72 90.5004 1363.2 85.9484C1361.01 82.0379 1359.36 77.8516 1358.28 73.5016C1357.35 69.4522 1355.79 65.3601 1357.07 60.9164C1358.01 61.0549 1358.74 61.2467 1359.48 61.2787C1363.2 61.4492 1365.19 60.2983 1366.15 57.5276C1366.55 56.4178 1366.55 55.2063 1366.17 54.0939C1365.78 52.9815 1365.02 52.0348 1364.02 51.4108C1361.77 50.0894 1357.46 50.6116 1355.49 52.4764C1353.51 54.3413 1352.97 56.739 1352.91 59.3072C1352.66 68.955 1354.87 78.5075 1359.31 87.078C1361.5 91.3405 1364.11 95.5285 1365.71 100.132C1369.78 112.185 1361.8 128.446 1349.19 133.444C1348.84 133.507 1348.48 133.507 1348.13 133.444C1347.17 132.815 1347.49 131.835 1347.23 131.036C1346.01 127.317 1342.14 126.049 1338.7 128.212C1334.59 130.759 1335.16 136.439 1339.87 138.677C1341.45 139.267 1343.08 139.696 1344.75 139.955C1345.48 140.126 1346.31 140.211 1346.62 140.936C1347.04 141.937 1346.38 142.641 1345.56 143.184C1344.74 143.728 1343.65 144.378 1342.67 144.921C1334.98 149.085 1326.83 152.349 1318.39 154.651C1306.94 157.975 1295.68 158.071 1285.25 151.454C1279.44 147.766 1275.98 142.928 1276.72 136.279C1277.45 129.629 1281.54 124.834 1288.14 122.052C1291.86 120.486 1293.47 121.711 1293.05 125.473C1293.05 125.825 1292.89 126.166 1292.86 126.539C1292.58 128.256 1292.89 130.015 1293.74 131.537C1294.58 133.058 1295.9 134.254 1297.51 134.936C1299.25 135.742 1301.2 136.011 1303.1 135.707C1305 135.404 1306.76 134.542 1308.17 133.231C1314.21 127.999 1312.28 119.644 1304.14 117.129C1294.68 114.22 1286.26 116.863 1278.98 122.564C1270.45 129.203 1268.24 142.268 1278.02 151.336C1284.15 157.038 1291.5 159.862 1300.09 160.448C1315.22 161.417 1328.95 157.251 1342.03 150.804C1347.26 148.23 1352.3 145.288 1357.12 142.001C1357.54 141.602 1358.08 141.348 1358.65 141.277C1359.23 141.206 1359.81 141.322 1360.32 141.607C1361.39 142.321 1361.28 143.504 1360.89 144.527C1359.93 147.078 1358.48 149.414 1356.62 151.4C1349.32 159.212 1340.69 165.254 1329.75 168.024C1323.83 169.527 1317.92 171.125 1311.92 172.287C1303.57 173.767 1295.04 173.918 1286.65 172.735C1277.62 171.605 1270.05 167.406 1263.18 162.078C1258.03 158.071 1252.75 154.246 1246.55 151.645C1243.35 150.313 1240.01 149.376 1236.49 149.972C1233.7 150.441 1231.44 151.859 1230.7 154.544C1230.33 155.763 1230.35 157.071 1230.78 158.274C1231.2 159.477 1232 160.512 1233.06 161.226C1233.8 161.834 1234.7 162.23 1235.65 162.373C1236.6 162.515 1237.57 162.399 1238.46 162.036C1239.23 161.743 1239.91 161.238 1240.4 160.577C1240.9 159.917 1241.2 159.129 1241.26 158.306C1241.48 157.016 1240.2 155.578 1241.61 154.405C1246.95 155.738 1265.16 167.193 1268.02 171.051C1269.37 172.841 1268.76 174.525 1266.24 174.94C1263.58 175.317 1260.89 175.481 1258.2 175.431C1231.08 175.431 1203.96 175.431 1176.83 175.431H599.697H524.372V180.429C714.431 180.429 904.49 180.429 1094.55 180.429C1149.76 180.429 1204.95 179.8 1260.16 181.281C1278.02 181.761 1295.91 180.919 1313.78 180.855C1342.06 180.759 1370.31 180.855 1398.62 180.791C1410.36 180.791 1422.09 180.723 1433.82 180.588C1438.99 180.588 1439.26 180.215 1439.41 175.377C1439.41 174.674 1439.41 173.971 1439.41 173.246C1439.41 127.942 1439.37 82.6378 1439.3 37.3336C1439.33 36.2661 1439.28 35.1981 1439.16 34.1367C1438.99 32.8899 1438.58 31.4939 1436.95 31.4512C1435.31 31.4086 1434.89 32.8366 1434.81 34.0834C1434.72 37.8025 1434.62 41.5429 1434.75 45.23C1434.81 48.4175 1434.45 51.5994 1433.68 54.693C1432.62 59.0088 1429.63 59.8507 1426.41 56.5259C1420.01 49.9295 1412.72 44.0898 1406.28 37.5254C1402 33.3799 1398.85 28.2067 1397.14 22.4998C1399.11 22.1375 1400.55 23.0646 1402.1 22.5744C1404.52 21.8071 1406.01 20.4431 1406.26 18.0241C1406.48 16.4655 1406.1 14.8807 1405.18 13.5974C1404.27 12.3141 1402.9 11.4306 1401.35 11.1294C1399.78 10.8709 1398.18 11.1478 1396.78 11.9154C1395.39 12.6829 1394.3 13.8964 1393.68 15.36ZM1326.02 175.814C1327.64 173.758 1329.22 173.63 1330.69 173.267C1341.37 170.615 1351.64 166.543 1361.24 161.162C1362.37 160.485 1363.54 159.887 1364.76 159.371C1366.31 158.775 1368.04 157.805 1369.56 159.265C1371.07 160.725 1370.75 162.611 1369.88 164.209C1368.7 166.42 1367.09 168.376 1365.15 169.962C1363.21 171.548 1360.97 172.733 1358.57 173.449C1354.37 174.771 1350.01 175.541 1345.61 175.74C1339.41 176.059 1333.07 175.814 1326.02 175.814ZM1429.48 159.382C1430.55 160.927 1429.16 162.067 1428.29 163.133C1421.7 171.136 1413.41 176.219 1402.04 176.102C1393.21 176.017 1384.39 176.102 1375.58 176.102C1373.45 176.102 1370.32 176.869 1369.6 174.344C1368.94 172.074 1371.67 170.784 1373.48 169.612C1378.45 166.415 1383.15 162.696 1389.23 161.087C1390.63 169.122 1393.66 172.085 1399.89 171.882C1407.36 171.637 1411.4 167.619 1412.38 158.934C1416.68 159.421 1421.02 159.245 1425.27 158.412C1426.88 158.071 1428.56 157.922 1429.52 159.382H1429.48ZM1405.03 156.654C1408.23 159.222 1409.3 163.186 1407.39 165.627C1405.35 168.301 1400.69 169.015 1396.72 167.268C1397.32 166.373 1398.4 166.714 1399.22 166.415C1402.16 165.35 1403.76 163.218 1403.42 160.842C1403.06 158.231 1400.61 156.281 1397.42 156.057C1394.23 155.833 1391.43 157.038 1388.54 157.997C1386.68 158.615 1384.46 160.512 1382.77 158.647C1381.3 157.016 1383.21 155.034 1383.84 153.319C1384.47 151.603 1385.6 150.654 1387.6 152.253C1388.12 152.694 1388.77 152.936 1389.44 152.936C1390.12 152.936 1390.77 152.694 1391.28 152.253C1391.9 151.859 1392.37 151.275 1392.62 150.59C1392.87 149.904 1392.89 149.156 1392.67 148.459C1392.14 146.861 1390.73 146.328 1389.04 146.488C1385.32 146.797 1383.27 149.131 1381.83 151.923C1380.6 154.299 1379.77 156.856 1378.71 159.318C1378.42 160.108 1377.93 160.808 1377.28 161.346C1376.64 161.884 1375.86 162.239 1375.03 162.377C1375.21 152.871 1379.91 146.392 1387.6 141.522C1388.58 140.953 1389.62 140.489 1390.7 140.136C1392.77 139.348 1394.13 139.881 1394.22 142.065C1394.47 148.321 1398.04 152.615 1403.59 155.78C1404.11 156.027 1404.61 156.319 1405.08 156.654H1405.03Z" fill="#D29A48"/>
<path d="M1431.62 19.0645C1431.75 20.1558 1432.3 21.1531 1433.15 21.8481C1434.01 22.5432 1435.1 22.8821 1436.19 22.7942C1436.74 22.7863 1437.27 22.6642 1437.76 22.4359C1438.26 22.2076 1438.7 21.8782 1439.05 21.4691C1439.41 21.06 1439.68 20.5804 1439.84 20.0615C1440 19.5425 1440.04 18.9959 1439.98 18.4571C1439.93 17.9118 1439.77 17.3815 1439.52 16.8967C1439.27 16.4119 1438.92 15.9823 1438.5 15.6325C1438.08 15.2828 1437.59 15.0199 1437.07 14.8591C1436.54 14.6982 1435.99 14.6426 1435.45 14.6953C1434.9 14.7206 1434.37 14.855 1433.88 15.0904C1433.39 15.3259 1432.96 15.6575 1432.6 16.0655C1432.24 16.4735 1431.97 16.9494 1431.8 17.4648C1431.63 17.9801 1431.57 18.5242 1431.62 19.0645Z" fill="#CE9747"/>
<path d="M1437.61 2.82392C1437.59 2.41025 1437.48 2.00633 1437.28 1.63823C1437.09 1.27014 1436.83 0.946065 1436.51 0.686954C1436.18 0.427844 1435.81 0.239459 1435.41 0.133972C1435 0.0284847 1434.59 0.00824212 1434.18 0.0745518C1433.76 0.0415958 1433.34 0.103943 1432.95 0.256877C1432.56 0.409812 1432.21 0.649329 1431.93 0.957312C1431.64 1.2653 1431.43 1.63368 1431.31 2.0346C1431.19 2.43552 1431.16 2.85848 1431.23 3.27149C1431.29 4.11937 1431.67 4.91119 1432.31 5.47276C1432.95 6.03434 1433.79 6.31966 1434.64 6.26596C1435.48 6.21226 1436.28 5.82394 1436.84 5.18642C1437.4 4.54891 1437.69 3.71443 1437.63 2.86654L1437.61 2.82392Z" fill="#C99447"/>
<path d="M265.928 180.322C482.319 180.322 698.702 180.322 915.078 180.322V175.313H707.544C532.482 175.313 357.42 175.313 182.358 175.313C179.67 175.313 176.972 175.196 174.294 175.036C172.929 174.962 171.5 174.663 170.988 173.321C170.348 171.701 171.553 170.678 172.79 169.772C178.369 165.712 183.894 161.588 189.568 157.645C192.16 155.65 195.285 154.467 198.549 154.246C198.432 155.492 198.325 156.377 198.283 157.197C198.133 159.574 199.04 161.46 201.664 162.11C202.876 162.428 204.158 162.339 205.314 161.858C206.47 161.376 207.436 160.529 208.064 159.446C210.869 155.311 207.989 150.377 202.389 149.77C198.603 149.365 195.158 150.505 191.851 152.008C185.771 154.778 180.577 158.721 175.393 162.664C166.616 169.454 155.86 173.196 144.759 173.321C132.387 173.651 120.792 170.848 109.134 167.779C100.601 165.531 93.4974 161.012 87.1296 155.546C83.7804 152.668 80.7298 149.429 79.0232 145.337C78.4792 144.005 77.7859 142.513 79.3325 141.469C80.6232 140.605 81.8498 141.469 82.9591 142.268C87.6301 145.444 92.5163 148.293 97.5825 150.793C110.67 157.261 124.408 161.375 139.544 160.384C148.802 159.787 156.674 156.579 162.721 150.004C166.305 146.093 168.407 141.639 167.82 136.364C166.753 126.272 159.287 118.781 148.333 116.628C142.712 115.563 137.229 115.392 132.248 118.546C130.359 119.649 128.949 121.414 128.293 123.498C127.636 125.583 127.78 127.837 128.696 129.821C130.829 134.179 136.045 136.662 140.429 135.458C144.813 134.254 146.957 130.791 146.349 125.335C145.943 121.626 147.586 120.465 151.383 122.01C163.031 126.763 167.777 141.298 156.375 149.823C152.908 152.527 148.938 154.517 144.696 155.678C140.454 156.84 136.024 157.15 131.661 156.59C118.659 154.981 106.969 150.196 95.6946 144.282C94.8497 143.888 94.075 143.359 93.4014 142.715C92.2601 141.511 92.3347 140.445 94.2653 140.009C95.5559 139.689 96.8999 139.54 98.1905 139.22C99.2869 138.992 100.31 138.497 101.17 137.779C102.029 137.062 102.698 136.144 103.118 135.107C103.459 134.357 103.626 133.54 103.608 132.717C103.59 131.893 103.387 131.085 103.014 130.35C102.642 129.616 102.109 128.975 101.455 128.473C100.801 127.972 100.042 127.624 99.2358 127.455C95.9079 126.581 92.2921 127.839 92.2174 131.611C92.2818 132.037 92.1868 132.471 91.9506 132.831C91.7144 133.191 91.3537 133.451 90.9375 133.561C88.3236 132.877 85.9361 131.517 84.015 129.619C72.3355 118.525 69.0609 107.56 76.3247 94.1325C77.6259 91.7561 79.0446 89.4437 80.2498 87.0246C84.6343 78.4336 86.7977 68.8832 86.5429 59.2432C86.6459 56.9018 85.8395 54.6111 84.2924 52.8494C83.1775 51.8157 81.7927 51.1181 80.2979 50.8371C78.8032 50.5562 77.2593 50.7033 75.8447 51.2616C74.7805 51.7807 73.9274 52.6496 73.4283 53.7225C72.9292 54.7955 72.8145 56.0072 73.1034 57.1546C73.8821 60.1597 76.1113 61.5024 80.0152 61.3213C80.7512 61.3213 81.4871 61.1188 82.3938 60.9909C82.5981 61.7092 82.7408 62.4436 82.8204 63.1861C82.8214 64.2547 82.7573 65.3223 82.6284 66.3831C81.3911 78.7872 73.7327 89.1666 69.2422 100.59C69.1763 100.758 69.0825 100.912 68.9649 101.049C67.4717 102.924 65.8397 102.839 64.5064 100.782C63.1731 98.7254 63.2265 96.7007 63.2265 94.6014C63.2265 88.0477 63.4505 81.5046 63.4505 74.9615C63.4855 69.3979 61.9913 63.9315 59.1306 59.158C55.9419 53.6283 50.8158 49.475 44.7418 47.4998C41.5006 46.3559 37.9822 46.2546 34.6804 47.2102C31.3786 48.1658 28.4592 50.1303 26.3318 52.8281C24.1026 55.8225 24.1986 59.0514 26.4918 61.6623C28.7851 64.2731 32.1236 65.1043 34.5769 63.6231C37.4034 61.9074 37.7767 58.9981 35.4728 55.7586C33.1689 52.519 34.2355 50.2598 38.4807 49.759C41.3495 49.5134 44.2205 50.2053 46.6618 51.7304C56.2614 57.0587 59.2906 65.5838 59.7599 75.1747C60.2506 85.5114 58.6933 95.8908 60.8266 106.824C58.9086 105.682 57.2166 104.197 55.8347 102.445C49.6057 95.9315 42.011 90.8767 33.5956 87.6427C29.4875 85.9812 25.0313 85.3624 20.6254 85.8418C14.7483 86.4279 10.6418 90.9782 11.2071 96.0294C11.3625 97.607 12.1077 99.0681 13.294 100.121C14.4803 101.174 16.0204 101.741 17.6068 101.709C20.6467 101.709 22.8333 99.4607 23.2066 96.0507C23.26 95.5178 23.1426 94.985 23.2066 94.4628C23.4626 91.6176 24.8172 90.3814 27.9851 90.4773C30.473 90.593 32.9131 91.2015 35.1635 92.2676C41.7333 94.9978 47.6029 99.172 52.3362 104.48C58.1772 111.155 62.6719 118.895 65.5731 127.274C67.4687 133.407 69.7305 139.421 72.3461 145.284C73.1781 147.01 76.09 149.109 73.4128 150.846C71.1622 152.327 69.2636 149.781 67.6636 148.48C63.0558 144.719 58.7146 140.701 54.0961 136.961C49.3493 132.863 43.6136 130.075 37.4568 128.873C30.417 127.679 23.8466 130.876 21.4574 136.545C20.0921 139.742 20.8814 142.374 23.5266 144.708C26.5345 147.351 30.417 148.299 33.5209 147.021C35.0448 146.404 36.3448 145.339 37.2479 143.966C38.1511 142.594 38.6145 140.979 38.5767 139.337C38.5767 138.442 37.3074 137.323 39.1207 136.748C41.4353 139.508 41.7659 140.296 41.3713 142.811C41.0676 144.809 40.2709 146.699 39.053 148.312C37.8352 149.925 36.2346 151.21 34.3955 152.05C31.5109 153.579 28.3422 154.497 25.0867 154.748C21.8312 155 18.5589 154.578 15.4736 153.51C13.6766 153.004 12.0122 152.111 10.5971 150.895C9.18196 149.678 8.05045 148.166 7.28188 146.466C5.81741 143.222 5.04322 139.71 5.00833 136.151C4.97345 132.592 5.67863 129.065 7.07922 125.793C10.1298 118.333 23.0786 112.867 30.673 117.513C33.659 119.146 36.7319 120.615 39.878 121.914C42.2937 123.159 45.0502 123.582 47.7284 123.118C49.4573 122.805 51.0236 121.901 52.1598 120.562C53.2959 119.223 53.9313 117.531 53.9575 115.776C53.8615 112.579 51.0883 109.808 47.5577 109.233C44.0272 108.657 42.7152 109.552 40.902 113.996C39.8353 116.596 38.95 116.969 36.1448 115.904C35.43 115.648 34.7466 115.312 34.1076 114.902C27.7825 110.767 20.9774 110.565 13.735 112.451C7.20721 114.156 5.92726 113.293 4.88197 107.261C4.64731 105.876 4.71131 104.437 4.60464 102.999C4.24199 98.0221 5.25529 93.1201 5.57527 88.1862C6.09792 80.343 9.72446 76.4641 18.0441 74.2156C25.0839 72.34 32.1343 73.1499 39.174 74.2902C40.6673 74.5459 42.3739 74.855 43.1739 76.1444C43.9739 77.4338 42.3312 78.2757 41.9899 79.4692C41.1046 82.4104 42.6086 85.0852 45.8298 86.2574C48.635 87.323 52.0376 86.3533 53.3815 84.0302C54.9281 81.3447 54.0108 78.7765 52.1975 76.5706C50.6468 74.6664 48.7249 73.0969 46.5484 71.9575C44.372 70.8181 41.9865 70.1325 39.5367 69.9423C36.4755 69.6546 33.4249 69.303 30.3744 68.9513C28.1057 68.703 25.9849 67.7055 24.3479 66.1167C19.1108 61.2573 19.0148 53.7658 24.6359 49.1303C29.4445 45.1346 33.9541 40.793 38.1287 36.14C41.7088 32.2867 44.3257 27.6419 45.7658 22.585C46.6084 19.452 46.9071 16.2551 44.5392 13.4524C43.6331 12.3503 42.3993 11.5651 41.0166 11.2107C39.6338 10.8562 38.174 10.9509 36.8488 11.481C35.4927 12.0339 34.3794 13.0534 33.7103 14.3552C33.0412 15.6569 32.8605 17.1549 33.2009 18.5782C33.8089 21.3382 35.8782 22.6276 39.654 22.5424C40.3793 22.5424 41.0726 22.0309 42.1393 22.6276C40.774 28.201 37.4568 32.9111 33.4036 37.1311C26.9505 43.8979 19.3561 49.6951 12.967 56.5685C12.4863 57.1363 11.9039 57.6097 11.2497 57.9645C10.5168 58.4218 9.6349 58.5774 8.78949 58.3986C7.94408 58.2197 7.20103 57.7203 6.71657 57.0054C6.0533 55.9476 5.62753 54.7588 5.46861 53.5207C4.19933 48.0859 4.89263 42.5872 4.59398 37.1311C4.47665 35.0957 5.89526 31.5151 2.38606 31.6004C-0.728491 31.675 0.156809 35.2023 0.146143 37.3549C0.0608129 82.4814 0.0181479 127.594 0.0181479 172.692C0.0181479 180.333 -0.803155 180.503 8.6045 180.514C56.1121 180.578 103.62 180.514 151.127 180.876C167.863 181.004 184.577 181.388 201.259 180.716C222.837 179.906 244.382 180.333 265.928 180.322ZM75.002 159.51C76.7274 160.267 78.4051 161.128 80.0258 162.089C88.5589 167.001 97.8492 170.273 107.428 172.937C109.315 173.47 111.438 173.63 113.497 175.74C101.838 176.251 91.0441 176.571 80.5272 173.31C75.8544 171.891 71.9347 168.68 69.6262 164.38C68.7303 162.781 68.3036 160.885 69.7222 159.393C71.3862 157.666 73.3274 158.807 75.0234 159.51H75.002ZM36.9554 154.938C41.7126 152.05 44.5178 148.097 45.0831 142.769C45.4138 139.572 46.3098 139.145 49.5096 140.339C58.0427 143.536 64.3358 152.977 63.9731 162.057C61.2745 161.79 60.8586 159.702 60.0586 157.997C58.992 155.727 58.3093 153.297 57.0934 151.123C55.7281 148.736 53.7548 146.765 50.5443 146.456C49.8977 146.3 49.2198 146.338 48.5942 146.563C47.9686 146.788 47.4229 147.192 47.0244 147.724C46.6255 148.326 46.4518 149.049 46.5337 149.766C46.6156 150.483 46.948 151.149 47.4724 151.645C47.8926 152.159 48.4623 152.529 49.1025 152.705C49.7427 152.881 50.4218 152.853 51.0456 152.626C52.1975 152.338 53.0295 150.303 54.4375 151.763C56.0597 153.468 56.9843 155.719 57.0294 158.071C57.0294 159.137 55.8347 159.478 54.8961 159.265C53.2372 158.851 51.6057 158.335 50.011 157.72C47.734 156.726 45.2935 156.159 42.8112 156.047C39.1847 156.047 36.5715 157.805 36.0275 160.618C35.4835 163.431 37.2434 165.435 41.062 166.543C41.5846 166.703 42.1286 166.842 43.4405 167.215C39.0567 169.559 35.8995 168.419 33.0089 166.533C30.8757 165.126 30.609 162.504 31.8143 159.776C32.7956 157.485 34.9289 156.217 36.9768 154.938H36.9554ZM32.5929 175.761C23.1106 175.1 16.1136 169.591 10.6738 162.558C9.92711 161.599 8.93515 160.522 10.0231 159.222C10.4886 158.739 11.0791 158.395 11.7287 158.228C12.3784 158.06 13.0618 158.076 13.703 158.274C18.1174 159.11 22.6292 159.307 27.0998 158.86C27.8038 167.481 32.0596 171.648 39.654 171.786C45.9044 171.903 49.147 168.674 49.8936 161.545C51.3016 160.746 52.4429 161.663 53.5522 162.174C58.7844 164.673 63.7154 167.759 68.2503 171.371C69.2316 172.138 70.4902 173.065 69.9036 174.472C69.3169 175.878 67.877 176.017 66.5117 176.017C55.1948 176.017 43.8459 176.55 32.5929 175.761Z" fill="#D29A48"/>
<path d="M8.37347 18.9578C8.40822 18.4158 8.33234 17.8725 8.15043 17.3607C7.96852 16.849 7.68438 16.3795 7.31528 15.9808C6.94617 15.5822 6.49981 15.2626 6.00329 15.0416C5.50677 14.8206 4.97047 14.7028 4.42695 14.6952C3.88236 14.6561 3.3354 14.7251 2.8176 14.8981C2.2998 15.0711 1.82138 15.3448 1.40993 15.7034C0.998466 16.062 0.662095 16.4984 0.420192 16.9874C0.178289 17.4764 0.0356356 18.0085 0.000451913 18.5528C-0.0605525 19.0967 -0.00439209 19.6473 0.165163 20.1676C0.334717 20.688 0.613742 21.1661 0.983503 21.5698C1.35326 21.9736 1.8052 22.2936 2.30898 22.5084C2.81275 22.7233 3.3567 22.8279 3.90431 22.8154C4.45173 22.8575 5.00209 22.7909 5.52363 22.6195C6.04517 22.448 6.52758 22.1751 6.94304 21.8165C7.35851 21.4579 7.6988 21.0207 7.94431 20.53C8.18982 20.0394 8.33567 19.505 8.37347 18.9578Z" fill="#CE9747"/>
<path d="M5.65401 0C3.70208 0.287724 2.34746 1.06565 2.45412 3.01578C2.42797 3.43216 2.49483 3.84914 2.64986 4.23652C2.8049 4.6239 3.04423 4.97198 3.35052 5.25555C3.65682 5.53912 4.0224 5.75108 4.4208 5.87608C4.8192 6.00108 5.24044 6.03598 5.65401 5.97827C6.06559 6.02992 6.48351 5.99111 6.87852 5.86456C7.27353 5.73801 7.6361 5.52678 7.94087 5.24563C8.24564 4.96448 8.48526 4.62021 8.64297 4.23689C8.80067 3.85356 8.87266 3.44045 8.85389 3.02643C8.82189 1.17221 7.5526 0.213129 5.65401 0Z" fill="#C99447"/>
</svg>
