<svg width="1440" height="181" viewBox="0 0 1440 181" fill="none" xmlns="http://www.w3.org/2000/svg">
<path d="M1393.68 165.64C1392.84 163.089 1392.89 160.327 1393.82 157.808C1395.42 152.811 1398.11 148.234 1401.7 144.412C1405.72 139.829 1410.14 135.62 1414.92 131.838C1419.19 128.566 1419.66 124.144 1418.28 119.732C1416.9 115.32 1413.63 112.464 1408.39 111.942C1405.34 111.644 1402.27 111.399 1399.23 110.951C1393.17 110.045 1388.37 107.317 1385.9 101.989C1384.41 98.792 1385.64 96.1812 1388.69 94.8598C1390.18 94.2298 1391.85 94.1532 1393.38 94.6439C1394.92 95.1345 1396.24 96.16 1397.09 97.5346C1397.58 98.286 1397.83 99.1754 1397.79 100.075C1397.75 100.975 1397.42 101.839 1396.86 102.543C1395.5 104.365 1396 105.559 1398.17 106.081C1407.26 108.266 1416.31 109.139 1425.27 105.452C1430.44 103.321 1433.28 99.5593 1433.8 94.3163C1434.14 90.6185 1434.67 86.9314 1434.79 83.223C1434.91 79.5145 1435.24 75.7634 1434.19 72.1402C1433 67.8776 1431.89 66.9825 1427.34 68.2506C1419.13 70.5418 1411.57 70.254 1404.23 65.6398C1400.71 63.4339 1399.97 64.0413 1398.36 68.176C1397.1 71.4582 1394.87 72.5665 1391.27 71.682C1385.6 70.286 1383.64 64.3823 1387.5 60.3435C1390.08 57.6261 1393.66 56.8589 1398.04 58.5426C1401.78 59.8921 1405.4 61.5681 1408.85 63.5511C1416.32 68.0588 1429.35 62.7519 1432.4 55.1325C1433.76 51.9294 1434.46 48.4869 1434.46 45.0089C1434.46 41.5309 1433.76 38.0883 1432.4 34.8852C1431.72 33.2525 1430.71 31.7809 1429.42 30.5656C1428.13 29.3504 1426.61 28.4186 1424.94 27.8307C1421.56 26.4415 1417.9 25.8717 1414.26 26.1681C1410.62 26.4645 1407.1 27.6185 1404 29.5357C1399.46 32.2318 1397.3 36.3132 1398.18 41.407C1398.41 42.7071 1398.92 44.0818 1400.93 44.2523C1401.64 42.8137 1400.56 41.6628 1400.78 40.4692C1400.97 38.9068 1401.62 37.4361 1402.65 36.2417C1403.67 35.0474 1405.03 34.1825 1406.55 33.7557C1410.17 32.69 1413.3 33.9155 1415.98 36.3132C1418.42 38.4978 1419.35 40.9381 1418.11 43.9965C1417.42 45.8126 1416.31 47.4379 1414.87 48.7359C1413.43 50.0339 1411.69 50.9667 1409.81 51.456C1403.56 53.3742 1398.08 51.5306 1392.75 48.8346C1387.65 46.2557 1383.45 42.5899 1379.26 38.924C1376.06 36.1178 1372.78 33.3827 1369.44 30.7186C1368.48 29.9406 1367.22 29.0135 1365.84 30.0152C1364.47 31.0169 1365.18 32.2531 1365.84 33.3614C1369.62 39.9897 1371.68 47.2148 1374.12 54.2587C1377.03 62.6563 1381.62 70.3753 1387.6 76.9463C1393.07 83.2006 1400.26 87.7046 1408.28 89.8939C1414.15 91.4604 1415.66 90.3948 1416.31 84.8214C1416.7 81.454 1418.95 79.2481 1422 79.2481C1423.58 79.2451 1425.11 79.8362 1426.28 80.9041C1427.44 81.9721 1428.16 83.4388 1428.3 85.0132C1428.8 90.0644 1424.66 94.604 1418.77 95.1156C1414.75 95.5801 1410.67 95.0871 1406.88 93.6769C1398.22 90.5296 1390.38 85.4574 1383.97 78.8431C1382.47 76.9442 1380.63 75.3368 1378.55 74.101C1380.59 83.6918 1379.55 92.6326 1379.61 101.595C1379.61 103.534 1379.55 105.495 1379.74 107.424C1380.66 116.45 1383.85 124.325 1392.86 129.27C1395.15 130.67 1397.81 131.347 1400.49 131.209C1405.11 130.857 1406.36 128.641 1403.91 125.124C1403.56 124.71 1403.24 124.268 1402.95 123.803C1402.43 122.751 1402.29 121.548 1402.57 120.407C1402.85 119.265 1403.53 118.26 1404.48 117.569C1406.61 115.981 1408.74 116.354 1410.88 117.569C1411.82 118.033 1412.64 118.707 1413.29 119.54C1413.93 120.373 1414.37 121.342 1414.57 122.372C1414.78 123.402 1414.75 124.465 1414.47 125.48C1414.2 126.495 1413.7 127.434 1413.01 128.225C1408.04 134.8 1398.28 136.324 1390.41 131.678C1380.65 125.923 1376.47 117.281 1376.02 106.998C1375.74 100.604 1376.17 94.2098 1376.22 87.9011C1376.41 85.5961 1376.11 83.2779 1375.36 81.0917C1374.86 79.9301 1374.29 78.694 1372.66 78.6407C1371.03 78.5874 1370.31 79.8129 1369.87 80.9531C1367.95 85.7904 1365.72 90.4996 1363.2 95.0516C1361.01 98.9621 1359.36 103.148 1358.28 107.498C1357.35 111.548 1355.79 115.64 1357.07 120.084C1358.01 119.945 1358.74 119.753 1359.48 119.721C1363.2 119.551 1365.19 120.702 1366.15 123.472C1366.55 124.582 1366.55 125.794 1366.17 126.906C1365.78 128.019 1365.02 128.965 1364.02 129.589C1361.77 130.911 1357.46 130.388 1355.49 128.524C1353.51 126.659 1352.97 124.261 1352.91 121.693C1352.66 112.045 1354.87 102.492 1359.31 93.922C1361.5 89.6595 1364.11 85.4715 1365.71 80.8679C1369.78 68.8154 1361.8 52.5537 1349.19 47.5558C1348.84 47.493 1348.48 47.493 1348.13 47.5558C1347.17 48.1845 1347.49 49.1649 1347.23 49.9641C1346.01 53.6832 1342.14 54.9514 1338.7 52.7881C1334.59 50.2412 1335.16 44.5613 1339.87 42.3235C1341.45 41.7328 1343.08 41.3043 1344.75 41.0447C1345.48 40.8742 1346.31 40.7889 1346.62 40.0643C1347.04 39.0626 1346.38 38.3593 1345.56 37.8158C1344.74 37.2723 1343.65 36.6222 1342.67 36.0788C1334.98 31.9152 1326.83 28.6506 1318.39 26.3494C1306.94 23.0246 1295.68 22.9287 1285.25 29.5464C1279.44 33.2335 1275.98 38.0715 1276.72 44.7212C1277.45 51.3708 1281.54 56.1662 1288.14 58.9475C1291.86 60.514 1293.47 59.2885 1293.05 55.5268C1293.05 55.1751 1292.89 54.8341 1292.86 54.4612C1292.58 52.7439 1292.89 50.9848 1293.74 49.4635C1294.58 47.9421 1295.9 46.7455 1297.51 46.0639C1299.25 45.2575 1301.2 44.9891 1303.1 45.2928C1305 45.5964 1306.76 46.4584 1308.17 47.7689C1314.21 53.0012 1312.28 61.3559 1304.14 63.8708C1294.68 66.78 1286.26 64.1372 1278.98 58.436C1270.45 51.797 1268.24 38.7322 1278.02 29.6636C1284.15 23.9624 1291.5 21.1384 1300.09 20.5523C1315.22 19.5826 1328.95 23.7493 1342.03 30.1964C1347.26 32.7704 1352.3 35.7119 1357.12 38.9986C1357.54 39.3982 1358.08 39.6521 1358.65 39.7231C1359.23 39.7941 1359.81 39.6783 1360.32 39.3929C1361.39 38.6789 1361.28 37.4961 1360.88 36.4731C1359.93 33.9221 1358.48 31.5857 1356.62 29.5996C1349.32 21.7885 1340.69 15.7462 1329.75 12.9756C1323.83 11.473 1317.92 9.87454 1311.92 8.71298C1303.57 7.23268 1295.04 7.08162 1286.65 8.26541C1277.62 9.395 1270.05 13.5936 1263.18 18.9219C1258.03 22.9287 1252.75 26.7544 1246.55 29.3545C1243.35 30.6866 1240.01 31.6244 1236.49 31.0276C1233.7 30.5587 1231.44 29.1414 1230.7 26.456C1230.33 25.237 1230.35 23.9293 1230.78 22.7262C1231.2 21.523 1232 20.4881 1233.06 19.7744C1233.8 19.1663 1234.7 18.77 1235.65 18.6274C1236.6 18.4849 1237.57 18.6013 1238.46 18.9645C1239.23 19.2567 1239.91 19.7625 1240.4 20.4228C1240.9 21.0831 1241.2 21.8709 1241.26 22.6943C1241.48 23.9837 1240.2 25.4223 1241.61 26.5945C1246.95 25.2625 1265.16 13.8068 1268.02 9.94914C1269.37 8.15885 1268.76 6.47512 1266.24 6.05952C1263.58 5.68276 1260.89 5.51885 1258.2 5.56933C1231.08 5.56933 1203.96 5.56933 1176.83 5.56933H599.697H524.372V0.571447C714.431 0.571447 904.49 0.571447 1094.55 0.571447C1149.76 0.571447 1204.95 1.20018 1260.16 -0.281073C1278.02 -0.760613 1295.91 0.0812405 1313.78 0.145179C1342.06 0.241087 1370.31 0.145177 1398.62 0.209115C1410.36 0.209115 1422.09 0.276609 1433.82 0.411591C1438.99 0.411591 1439.26 0.784566 1439.41 5.6226C1439.41 6.32593 1439.41 7.02925 1439.41 7.75389C1439.41 53.0581 1439.37 98.3622 1439.3 143.666C1439.33 144.734 1439.28 145.802 1439.16 146.863C1438.99 148.11 1438.58 149.506 1436.95 149.549C1435.31 149.591 1434.89 148.163 1434.81 146.917C1434.72 143.198 1434.62 139.457 1434.75 135.77C1434.81 132.582 1434.45 129.401 1433.68 126.307C1432.62 121.991 1429.63 121.149 1426.41 124.474C1420.01 131.07 1412.72 136.91 1406.28 143.475C1402 147.62 1398.85 152.793 1397.14 158.5C1399.11 158.863 1400.55 157.935 1402.1 158.426C1404.52 159.193 1406.01 160.557 1406.26 162.976C1406.48 164.535 1406.1 166.119 1405.18 167.403C1404.27 168.686 1402.9 169.569 1401.35 169.871C1399.78 170.129 1398.18 169.852 1396.78 169.085C1395.39 168.317 1394.3 167.104 1393.68 165.64V165.64ZM1326.02 5.1857C1327.64 7.24239 1329.22 7.37027 1330.69 7.73259C1341.37 10.385 1351.64 14.4566 1361.24 19.8383C1362.37 20.5151 1363.54 21.1133 1364.76 21.6286C1366.31 22.2254 1368.04 23.1951 1369.56 21.7352C1371.07 20.2752 1370.75 18.3891 1369.88 16.7906C1368.7 14.5796 1367.09 12.6245 1365.15 11.0385C1363.21 9.4525 1360.97 8.26725 1358.57 7.55143C1354.37 6.22874 1350.01 5.45854 1345.61 5.26028C1339.41 4.94059 1333.07 5.1857 1326.02 5.1857ZM1429.48 21.618C1430.55 20.0728 1429.16 18.9325 1428.29 17.8669C1421.7 9.86388 1413.41 4.78075 1402.04 4.89797C1393.21 4.98322 1384.39 4.89797 1375.58 4.89797C1373.45 4.89797 1370.32 4.1307 1369.6 6.65628C1368.94 8.9261 1371.67 10.2155 1373.48 11.3877C1378.45 14.5847 1383.15 18.3038 1389.23 19.9129C1390.63 11.8779 1393.66 8.91544 1399.89 9.11792C1407.36 9.36302 1411.4 13.3805 1412.38 22.0655C1416.68 21.5787 1421.02 21.7548 1425.27 22.5877C1426.88 22.9287 1428.56 23.0779 1429.52 21.618H1429.48ZM1405.03 24.346C1408.23 21.7778 1409.3 17.8136 1407.39 15.3733C1405.35 12.6985 1400.69 11.9845 1396.72 13.7322C1397.32 14.6273 1398.4 14.2863 1399.22 14.5847C1402.16 15.6503 1403.76 17.7816 1403.42 20.158C1403.06 22.7688 1400.61 24.719 1397.42 24.9428C1394.23 25.1666 1391.43 23.9624 1388.54 23.0033C1386.68 22.3852 1384.46 20.4884 1382.77 22.3533C1381.3 23.9837 1383.21 25.9658 1383.84 27.6815C1384.47 29.3972 1385.6 30.3456 1387.6 28.7471C1388.12 28.3061 1388.77 28.0635 1389.44 28.0635C1390.12 28.0635 1390.77 28.3061 1391.28 28.7471C1391.9 29.141 1392.37 29.7253 1392.62 30.4105C1392.87 31.0957 1392.89 31.844 1392.67 32.5408C1392.14 34.1393 1390.73 34.6721 1389.04 34.5123C1385.32 34.2032 1383.27 31.8695 1381.83 29.0775C1380.6 26.7011 1379.77 24.1435 1378.71 21.6819C1378.42 20.8915 1377.93 20.1915 1377.28 19.654C1376.64 19.1165 1375.86 18.7608 1375.03 18.6235C1375.21 28.1291 1379.91 34.6082 1387.6 39.4782C1388.58 40.0469 1389.62 40.5112 1390.7 40.8635C1392.77 41.6521 1394.13 41.1193 1394.22 38.9347C1394.47 32.6794 1398.04 28.3848 1403.59 25.2198C1404.11 24.9735 1404.61 24.6811 1405.08 24.346H1405.03Z" fill="#D29A48"/>
<path d="M1431.62 161.936C1431.75 160.844 1432.3 159.847 1433.15 159.152C1434.01 158.457 1435.1 158.118 1436.19 158.206C1436.74 158.214 1437.27 158.336 1437.76 158.564C1438.26 158.792 1438.7 159.122 1439.05 159.531C1439.41 159.94 1439.68 160.42 1439.84 160.939C1440 161.457 1440.04 162.004 1439.98 162.543C1439.93 163.088 1439.77 163.618 1439.52 164.103C1439.27 164.588 1438.92 165.018 1438.5 165.367C1438.08 165.717 1437.59 165.98 1437.07 166.141C1436.54 166.302 1435.99 166.357 1435.45 166.305C1434.9 166.279 1434.37 166.145 1433.88 165.91C1433.39 165.674 1432.96 165.342 1432.6 164.934C1432.24 164.526 1431.97 164.051 1431.8 163.535C1431.63 163.02 1431.57 162.476 1431.62 161.936V161.936Z" fill="#CE9747"/>
<path d="M1437.61 178.176C1437.59 178.59 1437.48 178.994 1437.28 179.362C1437.09 179.73 1436.83 180.054 1436.51 180.313C1436.18 180.572 1435.81 180.761 1435.41 180.866C1435 180.972 1434.59 180.992 1434.18 180.925C1433.76 180.958 1433.34 180.896 1432.95 180.743C1432.56 180.59 1432.21 180.351 1431.93 180.043C1431.64 179.735 1431.43 179.366 1431.31 178.965C1431.19 178.564 1431.16 178.142 1431.23 177.729C1431.29 176.881 1431.67 176.089 1432.31 175.527C1432.95 174.966 1433.79 174.68 1434.64 174.734C1435.48 174.788 1436.28 175.176 1436.84 175.814C1437.4 176.451 1437.69 177.286 1437.63 178.133L1437.61 178.176Z" fill="#C99447"/>
<path d="M265.928 0.678033C482.319 0.678033 698.702 0.678033 915.078 0.678033V5.68658H707.544C532.482 5.68658 357.42 5.68658 182.358 5.68658C179.67 5.68658 176.972 5.8038 174.294 5.96365C172.929 6.03824 171.5 6.33662 170.988 7.67934C170.348 9.29912 171.553 10.3221 172.79 11.2279C178.369 15.2881 183.894 19.4121 189.568 23.355C192.16 25.3504 195.285 26.5334 198.549 26.7544C198.432 25.5076 198.325 24.6231 198.283 23.8026C198.133 21.4262 199.04 19.54 201.664 18.8899C202.876 18.5723 204.158 18.6609 205.314 19.1422C206.47 19.6235 207.436 20.4709 208.064 21.5541C210.869 25.6888 207.989 30.6227 202.389 31.2301C198.603 31.6351 195.158 30.4948 191.851 28.9923C185.771 26.2216 180.577 22.2787 175.393 18.3358C166.616 11.5459 155.86 7.80418 144.759 7.67934C132.387 7.34899 120.792 10.1516 109.134 13.2207C100.601 15.4692 93.4974 19.9875 87.1296 25.4543C83.7804 28.3316 80.7298 31.5711 79.0232 35.6632C78.4792 36.9953 77.7859 38.4872 79.3325 39.5315C80.6232 40.3947 81.8498 39.5315 82.9591 38.7323C87.6301 35.5556 92.5163 32.707 97.5825 30.2071C110.67 23.7386 124.408 19.6252 139.544 20.6163C148.802 21.213 156.674 24.4206 162.721 30.9957C166.305 34.9066 168.407 39.361 167.82 44.6359C166.753 54.7276 159.287 62.2191 148.333 64.3717C142.712 65.4374 137.229 65.6079 132.248 62.4535C130.359 61.3514 128.949 59.586 128.293 57.5016C127.636 55.4172 127.78 53.1632 128.696 51.179C130.829 46.8205 136.045 44.3376 140.429 45.5417C144.813 46.7459 146.957 50.2093 146.349 55.6654C145.943 59.3738 147.586 60.5354 151.383 58.9902C163.031 54.2374 167.777 39.702 156.375 31.1768C152.908 28.4732 148.938 26.4831 144.696 25.3216C140.454 24.1601 136.024 23.8502 131.661 24.41C118.659 26.0191 106.969 30.8039 95.6946 36.7182C94.8497 37.1117 94.075 37.6409 93.4014 38.2847C92.2601 39.4889 92.3347 40.5545 94.2653 40.9914C95.5559 41.3111 96.8999 41.4603 98.1905 41.78C99.2869 42.0084 100.31 42.5031 101.17 43.2206C102.029 43.938 102.698 44.856 103.118 45.8934C103.459 46.6434 103.626 47.4601 103.608 48.2833C103.59 49.1066 103.387 49.9152 103.014 50.6496C102.642 51.3841 102.109 52.0255 101.455 52.5266C100.801 53.0277 100.042 53.3756 99.2358 53.5447C95.9079 54.4186 92.2921 53.1611 92.2174 49.3887C92.2818 48.9633 92.1868 48.529 91.9506 48.1692C91.7144 47.8093 91.3537 47.5492 90.9375 47.4386C88.3236 48.123 85.9361 49.4829 84.015 51.3815C72.3355 62.4749 69.0609 73.4404 76.3247 86.8675C77.6259 89.2439 79.0446 91.5563 80.2498 93.9754C84.6343 102.566 86.7977 112.117 86.5429 121.757C86.6458 124.098 85.8395 126.389 84.2924 128.151C83.1775 129.184 81.7927 129.882 80.2979 130.163C78.8032 130.444 77.2593 130.297 75.8447 129.738C74.7805 129.219 73.9274 128.35 73.4283 127.277C72.9292 126.205 72.8145 124.993 73.1034 123.845C73.8821 120.84 76.1113 119.498 80.0152 119.679C80.7512 119.679 81.4871 119.881 82.3938 120.009C82.5981 119.291 82.7408 118.556 82.8204 117.814C82.8214 116.745 82.7573 115.678 82.6284 114.617C81.3911 102.213 73.7328 91.8334 69.2423 80.4097C69.1763 80.2425 69.0825 80.0875 68.9649 79.9515C67.4717 78.0759 65.8397 78.1612 64.5064 80.2179C63.1731 82.2746 63.2265 84.2993 63.2265 86.3986C63.2265 92.9523 63.4505 99.4954 63.4505 106.038C63.4855 111.602 61.9913 117.068 59.1306 121.842C55.9419 127.372 50.8158 131.525 44.7418 133.5C41.5006 134.644 37.9822 134.745 34.6804 133.79C31.3786 132.834 28.4592 130.87 26.3318 128.172C24.1026 125.177 24.1986 121.949 26.4918 119.338C28.7851 116.727 32.1236 115.896 34.5769 117.377C37.4034 119.093 37.7767 122.002 35.4728 125.241C33.1689 128.481 34.2355 130.74 38.4807 131.241C41.3495 131.487 44.2205 130.795 46.6618 129.27C56.2614 123.941 59.2906 115.416 59.7599 105.825C60.2506 95.4886 58.6933 85.1092 60.8266 74.1757C58.9086 75.3184 57.2166 76.8029 55.8347 78.5555C49.6057 85.0685 42.011 90.1233 33.5956 93.3573C29.4875 95.0188 25.0313 95.6376 20.6254 95.1582C14.7483 94.5721 10.6418 90.0218 11.2071 84.9707C11.3625 83.393 12.1077 81.9319 13.294 80.879C14.4803 79.8261 16.0204 79.259 17.6068 79.2908C20.6467 79.2908 22.8333 81.5393 23.2066 84.9493C23.26 85.4822 23.1426 86.015 23.2066 86.5372C23.4626 89.3824 24.8172 90.6186 27.9851 90.5227C30.473 90.407 32.9131 89.7985 35.1635 88.7324C41.7333 86.0022 47.6029 81.8281 52.3362 76.5201C58.1772 69.845 62.6719 62.105 65.5731 53.7259C67.4687 47.593 69.7305 41.5791 72.3461 35.7165C73.1781 33.9901 76.09 31.8908 73.4128 30.1538C71.1622 28.6726 69.2636 31.2195 67.6636 32.5195C63.0558 36.2813 58.7146 40.2988 54.0961 44.0392C49.3493 48.1369 43.6136 50.925 37.4568 52.1274C30.417 53.321 23.8466 50.124 21.4574 44.4548C20.0921 41.2578 20.8814 38.6257 23.5266 36.2919C26.5345 33.6491 30.417 32.7007 33.5209 33.9795C35.0448 34.5958 36.3448 35.6611 37.2479 37.0336C38.1511 38.406 38.6145 40.0207 38.5767 41.6628C38.5767 42.5579 37.3074 43.6769 39.1207 44.2523C41.4353 41.4923 41.7659 40.7037 41.3713 38.1888C41.0676 36.1913 40.2709 34.3007 39.053 32.6877C37.8352 31.0748 36.2346 29.7901 34.3955 28.9496C31.5109 27.4212 28.3422 26.5028 25.0867 26.2516C21.8312 26.0004 18.5589 26.4219 15.4736 27.4897C13.6766 27.9958 12.0122 28.8886 10.5971 30.1055C9.18196 31.3223 8.05045 32.8337 7.28188 34.5336C5.81741 37.7778 5.04322 41.2905 5.00833 44.8491C4.97345 48.4078 5.67863 51.9349 7.07922 55.2072C10.1298 62.6667 23.0786 68.1334 30.673 63.4872C33.659 61.8541 36.7319 60.3848 39.878 59.0861C42.2937 57.8413 45.0502 57.4185 47.7284 57.8819C49.4573 58.1953 51.0236 59.0988 52.1598 60.4379C53.2959 61.7771 53.9313 63.4689 53.9575 65.2242C53.8615 68.4212 51.0883 71.1918 47.5577 71.7673C44.0272 72.3427 42.7152 71.4476 40.902 67.0039C39.8353 64.4037 38.95 64.0307 36.1448 65.0963C35.43 65.3523 34.7466 65.6883 34.1076 66.0981C27.7825 70.2328 20.9774 70.4352 13.735 68.549C7.20721 66.844 5.92726 67.7072 4.88197 73.7387C4.64731 75.1241 4.71131 76.5627 4.60464 78.0013C4.24199 82.9779 5.25529 87.8799 5.57528 92.8138C6.09792 100.657 9.72446 104.536 18.0441 106.784C25.0839 108.66 32.1343 107.85 39.174 106.71C40.6673 106.454 42.3739 106.145 43.1739 104.856C43.9739 103.566 42.3312 102.724 41.9899 101.531C41.1046 98.5896 42.6086 95.9148 45.8298 94.7426C48.635 93.677 52.0376 94.6467 53.3815 96.9698C54.9281 99.6553 54.0108 102.223 52.1975 104.429C50.6468 106.334 48.7249 107.903 46.5484 109.042C44.372 110.182 41.9865 110.868 39.5367 111.058C36.4755 111.345 33.4249 111.697 30.3744 112.049C28.1057 112.297 25.9849 113.295 24.3479 114.883C19.1108 119.743 19.0148 127.234 24.6359 131.87C29.4445 135.865 33.9541 140.207 38.1287 144.86C41.7088 148.713 44.3257 153.358 45.7658 158.415C46.6084 161.548 46.9071 164.745 44.5392 167.548C43.6331 168.65 42.3993 169.435 41.0166 169.789C39.6338 170.144 38.174 170.049 36.8488 169.519C35.4927 168.966 34.3794 167.947 33.7103 166.645C33.0412 165.343 32.8605 163.845 33.2009 162.422C33.8089 159.662 35.8782 158.372 39.654 158.458C40.3793 158.458 41.0726 158.969 42.1393 158.372C40.774 152.799 37.4568 148.089 33.4036 143.869C26.9505 137.102 19.3561 131.305 12.967 124.432C12.4863 123.864 11.9039 123.39 11.2497 123.036C10.5168 122.578 9.6349 122.423 8.78949 122.601C7.94408 122.78 7.20102 123.28 6.71657 123.995C6.0533 125.052 5.62753 126.241 5.46861 127.479C4.19933 132.914 4.89263 138.413 4.59398 143.869C4.47665 145.904 5.89526 149.485 2.38606 149.4C-0.728491 149.325 0.156809 145.798 0.146143 143.645C0.0608129 98.5186 0.0181479 53.4062 0.0181479 8.30806C0.0181479 0.667381 -0.803155 0.496881 8.6045 0.486225C56.1121 0.422286 103.62 0.486229 151.127 0.123909C167.863 -0.00396857 184.577 -0.387608 201.259 0.283749C222.837 1.09364 244.382 0.667377 265.928 0.678033ZM75.002 21.4901C76.7274 20.733 78.4051 19.8718 80.0259 18.9112C88.5589 13.9986 97.8492 10.7271 107.428 8.06297C109.315 7.53015 111.438 7.37029 113.497 5.26032C101.838 4.7488 91.0441 4.42911 80.5272 7.68999C75.8544 9.1091 71.9347 12.3201 69.6262 16.6201C68.7303 18.2186 68.3036 20.1154 69.7222 21.6073C71.3862 23.3337 73.3274 22.1934 75.0234 21.4901H75.002ZM36.9554 26.0617C41.7126 28.9496 44.5178 32.9032 45.0831 38.2314C45.4138 41.4283 46.3098 41.8546 49.5096 40.6611C58.0427 37.4641 64.3358 28.0225 63.9731 18.9432C61.2745 19.2096 60.8586 21.2983 60.0586 23.0033C58.992 25.2732 58.3093 27.7028 57.0934 29.8767C55.7281 32.2638 53.7548 34.2352 50.5443 34.5443C49.8977 34.6997 49.2198 34.6624 48.5942 34.437C47.9686 34.2116 47.4229 33.8081 47.0244 33.2762C46.6255 32.6742 46.4518 31.9511 46.5337 31.2339C46.6156 30.5166 46.948 29.8512 47.4724 29.3546C47.8926 28.841 48.4623 28.4707 49.1025 28.2951C49.7427 28.1194 50.4218 28.147 51.0456 28.3742C52.1975 28.6619 53.0295 30.6973 54.4375 29.2374C56.0597 27.5317 56.9843 25.2812 57.0294 22.9287C57.0294 21.8631 55.8347 21.5221 54.8961 21.7352C53.2372 22.1486 51.6057 22.6646 50.011 23.2804C47.734 24.2743 45.2935 24.8415 42.8112 24.9535C39.1847 24.9535 36.5715 23.1951 36.0275 20.3818C35.4835 17.5685 37.2434 15.5651 41.062 14.4568C41.5846 14.297 42.1286 14.1585 43.4405 13.7855C39.0567 11.4411 35.8995 12.5813 33.0089 14.4675C30.8757 15.8742 30.609 18.4956 31.8143 21.2237C32.7956 23.5148 34.9289 24.783 36.9768 26.0617H36.9554ZM32.5929 5.239C23.1106 5.8997 16.1136 11.4091 10.6738 18.4424C9.92711 19.4014 8.93515 20.4777 10.0231 21.7778C10.4886 22.2605 11.0791 22.6048 11.7287 22.7722C12.3784 22.9396 13.0618 22.9237 13.703 22.7263C18.1174 21.8902 22.6292 21.6928 27.0998 22.1401C27.8038 13.5191 32.0596 9.3524 39.654 9.21387C45.9044 9.09665 49.147 12.3256 49.8936 19.4547C51.3016 20.254 52.4429 19.3375 53.5522 18.826C58.7844 16.3266 63.7154 13.2413 68.2503 9.62947C69.2316 8.86221 70.4902 7.93509 69.9036 6.52844C69.3169 5.12178 67.877 4.98325 66.5117 4.98325C55.1948 4.98325 43.8459 4.45042 32.5929 5.239Z" fill="#D29A48"/>
<path d="M8.37347 162.042C8.40822 162.584 8.33234 163.128 8.15043 163.639C7.96852 164.151 7.68438 164.62 7.31528 165.019C6.94617 165.418 6.49981 165.737 6.00329 165.958C5.50677 166.179 4.97047 166.297 4.42695 166.305C3.88236 166.344 3.3354 166.275 2.8176 166.102C2.2998 165.929 1.82138 165.655 1.40993 165.297C0.998466 164.938 0.662095 164.502 0.420192 164.013C0.178289 163.524 0.0356356 162.992 0.000451913 162.447C-0.0605525 161.903 -0.00439209 161.353 0.165163 160.832C0.334717 160.312 0.613742 159.834 0.983503 159.43C1.35326 159.026 1.8052 158.706 2.30898 158.492C2.81275 158.277 3.3567 158.172 3.90431 158.185C4.45173 158.142 5.00209 158.209 5.52363 158.381C6.04517 158.552 6.52758 158.825 6.94304 159.183C7.35851 159.542 7.6988 159.979 7.94431 160.47C8.18982 160.961 8.33567 161.495 8.37347 162.042Z" fill="#CE9747"/>
<path d="M5.65401 181C3.70208 180.712 2.34746 179.934 2.45412 177.984C2.42797 177.568 2.49483 177.151 2.64986 176.763C2.8049 176.376 3.04423 176.028 3.35052 175.744C3.65682 175.461 4.0224 175.249 4.4208 175.124C4.8192 174.999 5.24044 174.964 5.65401 175.022C6.06559 174.97 6.48351 175.009 6.87852 175.135C7.27353 175.262 7.6361 175.473 7.94087 175.754C8.24564 176.036 8.48526 176.38 8.64297 176.763C8.80067 177.146 8.87266 177.56 8.85389 177.974C8.82189 179.828 7.5526 180.787 5.65401 181Z" fill="#C99447"/>
</svg>
