<svg width="1440" height="225" viewBox="0 0 1440 225" fill="none" xmlns="http://www.w3.org/2000/svg">
<g clip-path="url(#clip0_889_9)">
<path d="M1400.86 132.655C1400.84 133.066 1400.67 133.455 1400.38 133.751C1400.1 134.046 1399.71 134.226 1399.3 134.259C1398.85 134.259 1354.79 137.829 1333.19 157.215C1317.39 171.292 1309.37 184.013 1310.89 192.102C1311.61 195.883 1314.47 198.722 1319.46 200.62C1319.69 200.706 1319.89 200.839 1320.07 201.011C1320.24 201.182 1320.37 201.388 1320.46 201.614C1321.21 203.925 1321.19 206.419 1320.39 208.716C1319.6 211.012 1318.07 212.986 1316.05 214.335C1312.35 217.001 1305.15 216.301 1299.31 212.708C1295.06 210.087 1285.49 202.021 1288.31 183.335C1289.94 172.738 1298.81 160.989 1312.69 151.115C1332.24 137.196 1365.29 124.588 1399.48 130.892C1399.76 130.95 1400.02 131.075 1400.23 131.256C1400.45 131.438 1400.62 131.67 1400.72 131.932C1400.84 132.155 1400.88 132.406 1400.86 132.655ZM1301.09 209.816C1306.53 213.16 1312.13 212.98 1314.09 211.579C1315.41 210.729 1316.44 209.498 1317.04 208.05C1317.65 206.601 1317.8 205.003 1317.48 203.467C1311.81 201.208 1308.45 197.525 1307.59 192.735C1305.83 183.312 1314.11 169.801 1330.95 154.685C1345.78 141.354 1369.94 135.321 1385.13 132.7C1359.98 132.05 1335.29 139.468 1314.66 153.871C1301.52 163.226 1293.14 174.207 1291.68 183.855C1290.61 189.386 1291.11 195.104 1293.1 200.372C1294.69 204.291 1297.49 207.599 1301.09 209.816Z" fill="#CEAF7E"/>
<path d="M1403.79 140.902C1403.85 141.306 1403.77 141.719 1403.55 142.064C1403.33 142.408 1402.99 142.662 1402.6 142.777C1402.42 142.777 1386.17 147.635 1378.69 158.887C1376.27 163.31 1374.58 168.093 1373.68 173.054C1370.77 184.804 1367.48 198.135 1351.27 197.389C1349.38 197.305 1347.5 197.094 1345.65 196.756C1344.28 196.764 1342.94 196.43 1341.74 195.785C1333.66 193.186 1329.69 187.967 1328.67 183.132C1327.93 179.562 1328.92 176.353 1331.13 175.336C1335.4 173.235 1339.1 176.444 1340.46 178.409C1340.71 178.742 1340.83 179.157 1340.8 179.574C1340.76 179.991 1340.58 180.381 1340.27 180.669C1338.38 182.635 1338.88 187.854 1341.27 191.04C1341.78 191.725 1342.4 192.314 1343.12 192.78C1344 193.051 1344.95 193.277 1345.94 193.48C1346.98 193.391 1347.99 193.075 1348.9 192.554C1355.67 188.871 1358.72 179.178 1359.8 174.478C1358.19 174.466 1356.64 173.882 1355.42 172.828C1355.22 172.641 1355.07 172.407 1354.98 172.147C1354.89 171.887 1354.86 171.609 1354.9 171.337C1359.42 139.704 1401.72 139.569 1402.12 139.569C1402.46 139.569 1402.78 139.668 1403.06 139.853C1403.34 140.038 1403.55 140.301 1403.68 140.608C1403.73 140.701 1403.77 140.8 1403.79 140.902ZM1361.09 170.524C1361.36 170.351 1361.68 170.26 1362 170.26C1362.32 170.26 1362.64 170.351 1362.92 170.524C1363.18 170.7 1363.39 170.949 1363.53 171.241C1363.66 171.532 1363.7 171.856 1363.66 172.173C1363.66 172.828 1361.4 187.334 1352.69 194C1365.04 194 1367.63 183.358 1370.39 172.218C1371.35 166.863 1373.2 161.708 1375.87 156.967C1379.82 151.484 1385.02 147.028 1391.04 143.975C1379.19 146.234 1361.7 152.47 1358.42 170.659C1358.84 170.875 1359.31 170.977 1359.77 170.953C1360.24 170.929 1360.7 170.781 1361.09 170.524ZM1336.66 189.436C1336.01 187.846 1335.69 186.138 1335.73 184.418C1335.77 182.699 1336.16 181.007 1336.89 179.449C1336.38 178.842 1335.7 178.411 1334.93 178.22C1334.16 178.03 1333.35 178.088 1332.62 178.387C1332.17 178.59 1331.52 180.059 1332.01 182.431C1332.14 183.059 1332.33 183.672 1332.58 184.261C1333.45 186.321 1334.86 188.108 1336.66 189.436Z" fill="#CEAF7E"/>
<path d="M1248.79 117.493C1248.64 117.637 1248.46 117.744 1248.26 117.803C1248.07 117.862 1247.86 117.872 1247.66 117.832C1222.83 112.794 1203.69 95.2375 1194.21 80.4378C1187.46 70.0442 1184.61 59.5828 1186.42 51.9683C1189.56 38.4113 1198.27 35.6096 1201.86 34.9995C1206.82 34.1635 1211.9 35.6322 1213.69 38.4565C1214.69 39.9252 1215.19 41.6832 1215.11 43.462C1215.02 45.2409 1214.35 46.9428 1213.21 48.3079C1212.96 48.5633 1212.62 48.7095 1212.26 48.7146C1210.72 48.5091 1209.16 48.7216 1207.73 49.3298C1206.3 49.9379 1205.06 50.9194 1204.14 52.1716C1200.91 57.2329 1202.96 68.101 1209.78 81.9517C1219.17 101.022 1248.15 115.415 1248.45 115.573C1248.72 115.705 1248.93 115.932 1249.05 116.211C1249.17 116.489 1249.18 116.801 1249.08 117.087C1249.01 117.24 1248.91 117.378 1248.79 117.493ZM1194.3 41.665C1191.49 44.6958 1189.59 48.4532 1188.81 52.5105C1187.16 59.4924 1189.89 69.2082 1196.26 79.1499C1206.38 94.5801 1221.17 106.356 1238.47 112.749C1228.83 106.806 1214.07 96.1187 1207.64 83.0363C1200.3 68.1688 1198.34 56.7132 1202.11 50.8159C1203.18 49.2847 1204.63 48.0615 1206.32 47.2685C1208.01 46.4756 1209.88 46.1406 1211.74 46.297C1212.39 45.3478 1212.74 44.2258 1212.74 43.0772C1212.74 41.9285 1212.39 40.8065 1211.74 39.8574C1210.8 38.3661 1207.03 36.7393 1202.42 37.5979C1199.35 38.0513 1196.5 39.4764 1194.3 41.665Z" fill="#CEAF7E"/>
<path d="M1253.12 112.5C1252.95 112.676 1252.74 112.798 1252.5 112.851C1252.26 112.903 1252.01 112.883 1251.79 112.794C1251.49 112.681 1222.8 101.135 1228.33 78.3365C1228.39 78.1402 1228.48 77.9584 1228.62 77.8055C1228.75 77.6526 1228.92 77.5327 1229.1 77.4553C1230.21 77.0473 1231.43 77.0473 1232.53 77.4553C1233.08 73.9757 1233.68 66.5646 1230.05 62.2038C1229.58 61.6044 1228.97 61.1181 1228.29 60.7803C1227.6 60.6443 1226.9 60.5462 1226.19 60.4866C1225.56 60.5859 1224.96 60.8169 1224.43 61.1644C1221.95 62.6557 1220.19 66.0675 1220.95 67.9429C1221.06 68.2115 1221.07 68.5081 1220.98 68.7834C1220.9 69.0588 1220.72 69.2963 1220.48 69.4567C1219.43 70.2489 1218.13 70.6387 1216.82 70.5558C1215.51 70.473 1214.27 69.9228 1213.32 69.0048C1212.74 68.0975 1212.47 67.0234 1212.55 65.9463C1212.63 64.8693 1213.06 63.8485 1213.78 63.0398C1215.78 60.0347 1219.89 57.5718 1226.1 58.0011C1227.09 57.8862 1228.09 58.0262 1229.01 58.4078C1230.37 58.6782 1231.7 59.0483 1233.01 59.515C1244.29 63.4239 1242.83 73.3657 1241.61 82.1099C1240.87 85.7296 1240.71 89.4453 1241.16 93.1136C1243.17 102.784 1252.92 110.489 1253.01 110.579C1253.24 110.759 1253.41 111.019 1253.46 111.311C1253.52 111.602 1253.47 111.904 1253.32 112.161C1253.29 112.291 1253.22 112.409 1253.12 112.5ZM1230.55 79.647C1227.79 92.8877 1238 101.948 1245.45 106.761C1242.18 103.048 1239.85 98.5983 1238.67 93.7914C1238.15 89.8487 1238.3 85.8462 1239.1 81.9517C1240.25 73.6368 1241.36 65.7512 1233.01 62.3168C1237.16 69.2534 1234.63 79.6696 1234.52 80.1441C1234.46 80.3754 1234.34 80.5856 1234.17 80.7498C1234 80.914 1233.78 81.0253 1233.55 81.0705C1233.32 81.1121 1233.08 81.0876 1232.86 80.9997C1232.64 80.9119 1232.45 80.7642 1232.31 80.5734C1232.13 80.2829 1231.87 80.0446 1231.57 79.8821C1231.27 79.7197 1230.93 79.6386 1230.59 79.647H1230.55ZM1216.69 63.3787C1216.36 63.7137 1216.05 64.0765 1215.78 64.4633C1214.81 65.9319 1214.88 67.1069 1215.13 67.4006C1215.55 67.799 1216.08 68.0533 1216.65 68.1264C1217.23 68.1996 1217.81 68.0878 1218.31 67.8073C1218.24 66.56 1218.44 65.3118 1218.88 64.1439C1219.32 62.9761 1220.01 61.9147 1220.89 61.0288C1219.32 61.4252 1217.88 62.2368 1216.73 63.3787H1216.69Z" fill="#CEAF7E"/>
<path d="M1382.71 98.8979C1364.5 86.1092 1339.58 68.5755 1323.77 73.569C1321.08 74.492 1318.65 76.0494 1316.69 78.1101C1314.72 80.1707 1313.28 82.674 1312.49 85.4087C1312.35 85.7876 1312.34 86.2026 1312.46 86.5876C1312.58 86.9726 1312.83 87.3054 1313.17 87.5327C1313.5 87.7637 1313.91 87.8738 1314.32 87.8451C1314.73 87.8164 1315.12 87.6506 1315.42 87.3745C1317.21 85.8656 1319.36 84.8458 1321.66 84.4142C1323.95 83.9826 1326.32 84.154 1328.54 84.9116C1331.45 86.0467 1334.31 87.3287 1337.09 88.7528C1338.42 89.4306 1339.62 90.0181 1340.77 90.5152L1338.63 91.7579C1338.37 91.906 1338.15 92.1154 1337.99 92.3677C1337.84 92.6199 1337.74 92.9072 1337.72 93.204C1337.7 93.4963 1337.75 93.7898 1337.87 94.0581C1337.99 94.3264 1338.17 94.5609 1338.4 94.7404C1350.69 103.861 1364.7 110.408 1379.57 113.991C1389.8 116.296 1400.24 117.508 1410.72 117.606C1410.85 117.629 1410.98 117.629 1411.11 117.606C1417.83 117.73 1424.56 117.421 1431.24 116.68C1431.61 116.629 1431.96 116.464 1432.23 116.21C1432.51 115.955 1432.7 115.623 1432.78 115.257C1432.81 115.077 1432.81 114.894 1432.78 114.714C1432.74 114.247 1432.52 113.813 1432.16 113.506C1431.81 113.198 1431.35 113.04 1430.88 113.065C1430.61 113.065 1404.52 114.308 1382.92 99.1238L1382.71 98.8979ZM1380.95 102.084C1387.58 106.693 1394.88 110.238 1402.6 112.59C1377.52 106.942 1356.14 89.1595 1355.85 88.9561C1355.48 88.729 1355.03 88.6448 1354.6 88.7191C1354.17 88.7934 1353.79 89.0211 1353.51 89.3601C1353.24 89.6991 1353.09 90.1265 1353.11 90.5632C1353.12 90.9999 1353.29 91.4162 1353.59 91.7353C1364.14 100.219 1375.89 107.074 1388.47 112.071C1385.78 111.619 1383.07 111.099 1380.36 110.466C1366.92 107.146 1354.2 101.395 1342.83 93.4977L1346.23 91.5094C1346.57 91.3186 1346.83 91.0272 1346.98 90.6772C1347.14 90.3272 1347.18 89.9367 1347.1 89.5621C1347.02 89.1875 1346.82 88.8481 1346.54 88.593C1346.25 88.3379 1345.89 88.1802 1345.51 88.1427C1343.12 87.6544 1340.84 86.7684 1338.74 85.5217C1335.85 84.0302 1332.88 82.6952 1329.85 81.5224C1326.21 80.1443 1322.2 80.1443 1318.56 81.5224C1320.12 79.4335 1322.3 77.8915 1324.79 77.1164C1338.9 72.5974 1363.95 90.2892 1380.54 101.971L1380.95 102.084Z" fill="#CEAF7E"/>
<path d="M1396.34 84.6179C1387.07 77.4554 1380.36 68.6659 1373.91 60.1477C1360.03 41.891 1346.93 24.6511 1311.06 23.1146C1278.02 21.7137 1264.54 37.2364 1259.44 46.6133C1253.19 58.1593 1253.14 72.3263 1259.44 81.0931C1262.31 85.2177 1266.39 88.3429 1271.12 90.0322C1275.84 91.7215 1280.98 91.8903 1285.81 90.5152C1293.19 88.4365 1298.2 83.1719 1298.63 76.9583C1299.44 65.4123 1290.93 61.6615 1286.32 61.2774C1285.92 61.2462 1285.51 61.3515 1285.17 61.5766C1284.84 61.8017 1284.58 62.1338 1284.45 62.5201C1283.78 64.4581 1282.47 66.109 1280.73 67.2013C1278.99 68.2936 1276.94 68.7623 1274.9 68.5304C1270.93 68.1688 1266.3 65.2089 1265.22 57.9334C1264.83 54.6854 1265.17 51.3905 1266.23 48.2954C1267.29 45.2003 1269.04 42.3852 1271.34 40.0608C1275.63 35.5418 1285.72 27.9273 1305.2 29.396C1328.65 31.181 1343.23 49.7314 1347.16 55.2446L1344.56 56.4873C1344.13 56.7053 1343.81 57.0836 1343.66 57.5404C1343.5 57.9972 1343.54 58.4956 1343.75 58.9275C1359.82 90.7411 1414.97 105.541 1431.56 109.359C1433.16 109.903 1434.82 110.244 1436.5 110.376C1436.92 110.387 1437.34 110.251 1437.67 109.991C1438 109.732 1438.24 109.365 1438.33 108.953C1438.33 108.953 1438.33 108.817 1438.33 108.749C1438.37 108.298 1438.25 107.847 1437.97 107.484C1437.7 107.121 1437.31 106.871 1436.86 106.784C1436.86 106.784 1435.12 106.445 1432.35 105.789C1426.68 104.072 1414.97 98.9883 1396.34 84.6179ZM1261.54 58.566C1262.92 67.9429 1269.15 71.784 1274.5 72.2585C1277.08 72.5167 1279.68 71.9827 1281.95 70.7275C1284.22 69.4724 1286.05 67.5554 1287.21 65.2315C1289.85 65.8642 1295.53 68.2366 1294.93 76.8227C1294.61 81.3417 1290.61 85.3636 1284.74 87.013C1280.65 88.1924 1276.28 88.0622 1272.26 86.6405C1268.24 85.2189 1264.76 82.5767 1262.31 79.0822C1258.47 73.682 1257.41 65.8416 1259.08 58.0463C1259.71 55.1268 1260.69 52.2961 1262.01 49.6184C1261.27 52.5411 1261.11 55.5812 1261.54 58.566ZM1407.77 98.6946C1368.26 74.5632 1355.26 48.1046 1355.15 47.8334C1354.94 47.4019 1354.57 47.0702 1354.12 46.9096C1353.67 46.749 1353.17 46.7724 1352.73 46.9748C1352.52 47.0765 1352.33 47.2199 1352.17 47.3967C1352.01 47.5735 1351.88 47.7802 1351.8 48.0049C1351.72 48.2297 1351.69 48.468 1351.7 48.7061C1351.71 48.9442 1351.77 49.1775 1351.88 49.3925C1352.33 50.3867 1362.37 70.9706 1392.12 92.6617C1374.4 84.9794 1356.3 73.9531 1347.9 58.9501L1350.41 57.6622C1350.64 57.5439 1350.84 57.3778 1351 57.1751C1351.16 56.9724 1351.27 56.7379 1351.33 56.4873C1351.4 56.2499 1351.42 56.0018 1351.39 55.7573C1351.36 55.5129 1351.28 55.2771 1351.15 55.0638C1350.54 54.047 1337.07 31.8363 1311.76 26.7072C1345.29 28.4018 1357.79 44.7831 1371.02 62.2716C1377.63 70.9706 1384.56 79.9634 1394.13 87.4197C1400.06 92.0376 1406.23 96.3295 1412.62 100.276L1407.77 98.6946Z" fill="#CEAF7E"/>
<path d="M1354.43 5.49058C1353.09 6.5705 1352.09 8.00922 1351.54 9.63801C1351 11.2668 1350.92 13.0182 1351.34 14.6867C1351.58 15.9431 1352.12 17.1244 1352.9 18.1364C1353.69 19.1485 1354.7 19.9634 1355.85 20.5162C1357.17 20.9429 1358.57 21.0988 1359.95 20.9746C1361.34 20.8504 1362.68 20.4486 1363.91 19.7931C1364.12 19.6805 1364.31 19.5234 1364.46 19.3325C1364.6 19.1415 1364.71 18.9211 1364.77 18.686C1364.84 18.4577 1364.86 18.2175 1364.83 17.9804C1364.8 17.7433 1364.73 17.5143 1364.61 17.3077C1363.65 15.9437 1363.22 14.2832 1363.38 12.6259C1363.54 10.9686 1364.29 9.42365 1365.49 8.26975C1368.36 5.69393 1374.52 4.72235 1382.49 10.5292C1390.45 16.3361 1390.97 27.2495 1391.74 40.106C1392.33 49.528 1392.96 60.1928 1396.77 69.8634C1405.8 92.7295 1436.28 102.558 1437.56 102.965C1437.99 103.118 1438.46 103.103 1438.88 102.923C1439.3 102.743 1439.64 102.411 1439.82 101.993L1439.96 101.609C1440.03 101.248 1440 100.871 1439.85 100.531C1439.71 100.191 1439.46 99.9044 1439.14 99.7113C1413.7 83.5108 1413.79 73.2979 1414.02 48.6468C1414.34 16.1102 1391.7 5.12906 1381.94 1.92059C1369.87 -2.1465 1359.21 0.926411 1354.43 5.49058ZM1363.16 5.49058C1361.6 6.86917 1360.51 8.71439 1360.07 10.7552C1359.64 12.8835 1359.85 15.0911 1360.66 17.1044C1359.58 17.466 1358.42 17.466 1357.34 17.1044C1356.7 16.7482 1356.15 16.2525 1355.73 15.6541C1355.3 15.0556 1355.02 14.3698 1354.9 13.6473C1354.69 12.6166 1354.77 11.5473 1355.13 10.5582C1355.48 9.56904 1356.11 8.6987 1356.93 8.0438C1359.28 6.008 1362.14 4.64906 1365.19 4.11229C1364.46 4.51783 1363.77 5.01924 1363.16 5.60355V5.49058ZM1410.43 48.4209C1410.23 69.05 1410.77 80.4604 1423.68 92.4583C1422.3 91.6449 1420.86 90.7863 1419.44 89.8373C1409.1 78.5399 1406.75 69.3212 1406.03 56.2161C1405.39 47.1016 1404.12 38.0422 1402.24 29.1022C1402.18 28.8606 1402.08 28.6321 1401.94 28.4306C1401.8 28.2291 1401.61 28.0588 1401.4 27.93C1401.19 27.8011 1400.96 27.7165 1400.71 27.6811C1400.47 27.6457 1400.22 27.6602 1399.98 27.724C1399.74 27.7737 1399.51 27.873 1399.3 28.0158C1399.1 28.1585 1398.93 28.3416 1398.8 28.5536C1398.67 28.7656 1398.59 29.002 1398.55 29.248C1398.52 29.494 1398.54 29.7444 1398.6 29.9834C1400.48 38.7209 1401.75 47.576 1402.42 56.4873C1402.49 64.9148 1404.51 73.2115 1408.31 80.7316C1404.86 77.1793 1402.13 72.9993 1400.25 68.4174C1396.64 59.3794 1396.03 49.3699 1395.47 39.767C1394.67 26.5716 1393.93 14.0992 1384.7 7.47893C1383.71 6.76511 1382.69 6.10877 1381.63 5.51317C1391 8.85722 1410.7 19.2735 1410.43 48.5339V48.4209Z" fill="#CEAF7E"/>
<path d="M1193.53 128.994C1198.7 128.339 1203.21 127.661 1207.59 127.006C1222.24 124.746 1232.83 123.255 1248.22 125.65C1248.52 125.705 1248.83 125.699 1249.12 125.633C1249.42 125.566 1249.7 125.44 1249.95 125.263C1250.19 125.086 1250.4 124.861 1250.56 124.601C1250.72 124.342 1250.82 124.053 1250.86 123.752C1250.92 123.457 1250.91 123.153 1250.85 122.859C1250.79 122.566 1250.66 122.287 1250.49 122.041C1250.32 121.795 1250.1 121.586 1249.85 121.426C1249.59 121.265 1249.31 121.158 1249.01 121.109C1248.36 121.109 1193.03 110.828 1160.98 105.292C1160.98 104.501 1161.11 103.711 1161.23 102.897V102.671C1162.87 91.9613 1169.89 88.5042 1172.85 87.5101C1174.82 86.7117 1176.97 86.4665 1179.07 86.801C1181.17 87.1354 1183.14 88.0367 1184.77 89.408C1187.64 91.9161 1188.81 94.7404 1188.27 97.1581C1187.95 98.2248 1187.36 99.1953 1186.58 99.9836C1185.79 100.772 1184.82 101.353 1183.75 101.677C1183.32 101.864 1182.86 101.961 1182.39 101.961C1181.92 101.961 1181.45 101.864 1181.02 101.677C1179.78 100.836 1178.86 99.5912 1178.43 98.1523C1178.35 97.8552 1178.21 97.5775 1178.02 97.3363C1177.83 97.095 1177.59 96.8953 1177.32 96.7493C1177.05 96.6034 1176.75 96.5142 1176.44 96.4874C1176.14 96.4605 1175.83 96.4965 1175.54 96.5932C1175.24 96.6733 1174.97 96.8122 1174.73 97.0015C1174.49 97.1909 1174.29 97.4267 1174.15 97.6949C1174 97.963 1173.91 98.2579 1173.88 98.5618C1173.85 98.8656 1173.89 99.1721 1173.98 99.4628C1174.77 102.106 1176.52 104.361 1178.88 105.789C1179.86 106.274 1180.93 106.552 1182.03 106.606C1183.12 106.661 1184.22 106.49 1185.24 106.106C1187.09 105.537 1188.75 104.506 1190.09 103.11C1191.42 101.713 1192.37 99.9989 1192.85 98.1297C1193.8 94.0626 1192.13 89.7018 1188.22 85.8606C1185.99 83.8851 1183.25 82.5607 1180.31 82.031C1177.38 81.5012 1174.35 81.7864 1171.56 82.8555C1163.69 85.4991 1158.22 92.6843 1156.8 101.971L1156.6 103.643C1152.88 101.628 1149.43 99.1368 1146.35 96.2317C1142.15 92.8876 1136.49 88.1201 1127.64 81.5676C1120.74 76.1339 1112.52 72.641 1103.83 71.4494C1095.14 70.2578 1086.28 71.4107 1078.18 74.7891C1077.6 74.9779 1077.12 75.3898 1076.84 75.9343C1076.56 76.4788 1076.51 77.1113 1076.7 77.6926C1076.89 78.2738 1077.3 78.7563 1077.85 79.0339C1078.39 79.3114 1079.02 79.3613 1079.6 79.1725C1091.57 76.9131 1102.56 84.2338 1114.21 91.8935C1124.18 98.446 1134.52 105.247 1146.76 107.326L1156.51 109.02C1156.87 113.769 1158.87 118.243 1162.17 121.674C1168.49 128.158 1179.65 130.757 1193.53 128.994ZM1165.49 118.442C1163.22 116.106 1161.74 113.108 1161.27 109.879C1178.56 112.975 1202.22 117.222 1220.41 120.566C1216.1 121.041 1211.68 121.696 1206.87 122.419C1202.51 123.074 1198.02 123.73 1192.9 124.385C1180.53 125.967 1170.75 123.843 1165.49 118.442Z" fill="#CEAF7E"/>
<path d="M1252.74 156.153C1296.84 130.689 1373.91 132.203 1385.42 132.587C1385.61 132.593 1385.8 132.56 1385.98 132.49C1386.16 132.42 1386.33 132.314 1386.46 132.178C1386.6 132.043 1386.71 131.882 1386.78 131.703C1386.85 131.525 1386.89 131.333 1386.89 131.141V129.853C1386.89 129.511 1386.77 129.18 1386.55 128.918C1386.33 128.657 1386.03 128.484 1385.69 128.429C1382.69 127.932 1373.25 126.916 1349.57 127.593C1337.36 127.277 1324.74 127.074 1324.2 127.074C1323.14 127.074 1217.68 124.814 1165.29 146.37C1152.38 151.702 1141.3 157.035 1131.43 162.186C1115.18 156.583 1106.94 145.15 1096.08 138.823C1080.53 129.785 1065.5 141.919 1068.34 144.494C1071.18 147.07 1070.37 139.456 1081.52 145.308C1087.64 148.516 1094.37 163.158 1105.86 175.766C1088.59 184.804 1074.8 191.108 1058.95 191.379C1043.58 191.65 1030.19 185.527 1023.17 174.975C1020.56 171.126 1018.97 166.668 1018.58 162.03C1018.18 157.392 1018.99 152.73 1020.91 148.494C1022.38 145.039 1024.95 142.167 1028.21 140.324C1031.48 138.481 1035.26 137.77 1038.97 138.303C1045.74 139.388 1050.26 144.449 1050.89 151.86C1051.7 160.175 1046.96 162.344 1044.12 162.909C1039.6 163.768 1034.71 161.802 1033.85 158.842C1033.42 157.396 1033.17 155.453 1034.46 154.617C1035.75 153.781 1036.11 156.447 1038 157.102C1038.38 157.237 1038.78 157.292 1039.18 157.262C1039.58 157.232 1039.97 157.119 1040.32 156.929C1040.67 156.74 1040.98 156.478 1041.23 156.162C1041.48 155.845 1041.65 155.481 1041.75 155.091C1041.97 154.214 1041.98 153.295 1041.77 152.413C1041.56 151.532 1041.15 150.714 1040.55 150.03C1039.33 149.405 1037.95 149.123 1036.58 149.215C1035.2 149.306 1033.88 149.767 1032.74 150.55C1030.8 151.973 1029.24 155.069 1030.73 159.769C1032.43 165.259 1038.61 167.293 1044.73 166.118C1051.5 164.83 1054.95 159.339 1054.19 151.544C1053.33 142.687 1047.73 136.383 1039.54 135.095C1035.11 134.442 1030.58 135.273 1026.67 137.459C1022.76 139.645 1019.68 143.064 1017.91 147.183C1015.8 151.934 1014.93 157.149 1015.4 162.33C1015.86 167.511 1017.65 172.486 1020.58 176.782C1028.23 188.261 1042.63 194.858 1059.11 194.655C1075.95 194.361 1090.26 187.877 1108.32 178.206C1117.35 187.425 1129.4 194.971 1145.99 195.197C1185.92 195.717 1204.93 183.764 1252.74 156.153ZM1157.93 165.191C1150.53 165.761 1143.09 165.166 1135.88 163.429C1144.91 158.91 1155 154.052 1166.51 149.307C1202.35 134.553 1263.82 131.05 1298.42 130.418C1298.61 130.428 1298.78 130.505 1298.91 130.633C1299.05 130.761 1299.13 130.933 1299.14 131.116C1299.16 131.3 1299.11 131.483 1299 131.633C1298.9 131.782 1298.74 131.889 1298.56 131.932C1249.19 140.766 1188.36 163.429 1157.86 165.259L1157.93 165.191Z" fill="#CEAF7E"/>
<path d="M1108.45 117.493C1105.18 117.493 1103.94 121.741 1106.85 122.668C1109.76 123.594 1112.56 130.937 1117.98 133.513C1123.39 136.089 1132.56 131.593 1135.85 129.265C1139.15 126.938 1172.74 129.085 1171.97 126.599C1171.36 124.543 1143.26 125.289 1138.11 122.871C1132.97 120.453 1128.63 112.749 1123.33 111.574C1118.02 110.399 1111.72 117.29 1108.45 117.493ZM1128.43 122.306C1129.76 126.825 1122.83 128.633 1119.58 128.113C1116.33 127.593 1113.08 120.951 1111.66 120.227C1110.23 119.504 1124.84 109.698 1128.43 122.216V122.306Z" fill="#CEAF7E"/>
<path d="M1242.33 187.922C1243.89 184.371 1245.8 180.988 1248.04 177.822C1249.04 176.592 1250.18 175.491 1251.45 174.546L1251.63 174.41C1260.03 168.016 1275.2 163.836 1275.38 163.79C1275.53 163.751 1275.67 163.682 1275.79 163.588C1275.92 163.494 1276.02 163.376 1276.1 163.242C1276.17 163.107 1276.22 162.959 1276.24 162.805C1276.26 162.651 1276.25 162.494 1276.21 162.344C1276.17 162.194 1276.1 162.054 1276.01 161.931C1275.92 161.809 1275.8 161.706 1275.66 161.63C1275.53 161.554 1275.38 161.507 1275.23 161.489C1275.07 161.472 1274.92 161.486 1274.77 161.531C1274.02 161.734 1258.97 165.869 1250.16 172.557C1244.32 176.152 1239.08 180.661 1234.66 185.911C1230.46 190.43 1227.16 194.045 1224.09 193.638C1222.51 193.435 1221.45 193.006 1221.27 192.463C1221.09 191.921 1221.79 190.611 1222.38 190.001C1222.53 189.848 1222.64 189.654 1222.69 189.442C1222.74 189.229 1222.72 189.007 1222.65 188.803C1222.58 188.6 1222.46 188.42 1222.29 188.281C1222.13 188.142 1221.93 188.049 1221.72 188.012C1219.66 187.681 1217.55 188.012 1215.7 188.958C1213.84 189.904 1212.33 191.416 1211.38 193.277C1210.64 195.217 1210.47 197.334 1210.91 199.365C1211.36 201.397 1212.38 203.255 1213.87 204.71C1217.27 208.054 1222.29 208.506 1227.61 205.953C1235.54 202.134 1238.99 194.904 1242.33 187.922Z" fill="#CEAF7E"/>
<path d="M1263.03 203.354C1262.26 201.02 1261.3 198.753 1260.16 196.576C1256.94 190.001 1253.59 183.222 1259.78 175.856C1261.88 173.392 1264.52 171.45 1267.5 170.185C1270.56 168.871 1273.74 167.857 1277 167.157C1277.16 167.13 1277.3 167.073 1277.43 166.988C1277.56 166.904 1277.68 166.795 1277.76 166.666C1277.85 166.538 1277.91 166.394 1277.95 166.241C1277.98 166.089 1277.98 165.932 1277.95 165.779C1277.88 165.49 1277.69 165.241 1277.44 165.082C1277.19 164.923 1276.89 164.865 1276.6 164.92C1275.65 165.078 1253.75 169.168 1247.03 186.272C1242.65 197.366 1246.19 204.19 1248.79 209.184C1250.25 211.963 1251.38 214.154 1251.04 216.346C1250.75 217.95 1250.01 218.899 1248.79 219.148C1248.22 219.243 1247.64 219.176 1247.11 218.957C1246.58 218.737 1246.12 218.373 1245.78 217.905C1245.5 217.461 1245.37 216.939 1245.41 216.414C1245.44 215.89 1245.65 215.391 1245.99 214.99C1246.12 214.791 1246.2 214.555 1246.2 214.313C1246.2 214.071 1246.12 213.834 1245.99 213.635C1245.16 212.438 1243.95 211.561 1242.56 211.15C1241.17 210.739 1239.68 210.818 1238.34 211.375C1237.22 211.978 1236.35 212.933 1235.83 214.09C1235.32 215.248 1235.21 216.542 1235.51 217.77C1235.83 219.351 1237.55 224.548 1247 224.977C1249.54 225.189 1252.1 224.769 1254.43 223.756C1256.77 222.743 1258.83 221.168 1260.41 219.171C1262.06 216.925 1263.15 214.323 1263.61 211.575C1264.06 208.828 1263.86 206.011 1263.03 203.354Z" fill="#CEAF7E"/>
<path d="M1278.11 171.247C1278.41 171.167 1278.67 170.97 1278.83 170.7C1279 170.429 1279.04 170.106 1278.97 169.801C1278.89 169.496 1278.69 169.235 1278.42 169.075C1278.15 168.914 1277.83 168.866 1277.52 168.942C1273.94 170.052 1270.63 171.916 1267.82 174.41C1267.65 174.501 1267.51 174.633 1267.41 174.794C1265.74 176.357 1264.41 178.261 1263.53 180.377C1262.65 182.493 1262.24 184.772 1262.31 187.063C1262.3 190.397 1263.44 193.634 1265.53 196.223C1267.63 198.813 1270.56 200.598 1273.82 201.275C1276.12 201.854 1278.54 201.599 1280.66 200.556C1282.79 199.514 1284.47 197.751 1285.42 195.581C1286.62 193.2 1286.96 190.48 1286.39 187.877C1286.03 186.35 1285.25 184.956 1284.14 183.855C1283.16 182.858 1281.92 182.164 1280.55 181.855C1279.19 181.547 1277.77 181.637 1276.46 182.115C1276.29 182.198 1276.15 182.323 1276.04 182.477C1275.94 182.631 1275.87 182.81 1275.85 182.996C1275.82 183.18 1275.83 183.37 1275.89 183.547C1275.95 183.725 1276.05 183.885 1276.19 184.013C1276.6 184.391 1276.93 184.848 1277.17 185.356C1277.4 185.864 1277.53 186.414 1277.55 186.973C1277.47 187.42 1277.28 187.842 1277.01 188.207C1276.74 188.571 1276.39 188.868 1275.99 189.074C1275.14 189.621 1274.16 189.912 1273.15 189.912C1272.15 189.912 1271.17 189.621 1270.32 189.074C1269.43 188.565 1268.7 187.813 1268.22 186.905C1267.73 185.997 1267.52 184.971 1267.59 183.945V183.764C1267.92 180.919 1269.08 178.233 1270.92 176.041C1272.76 173.848 1275.21 172.244 1277.95 171.428L1278.11 171.247Z" fill="#CEAF7E"/>
<path d="M1277.46 155.317C1274.36 157.012 1276.44 161.034 1277.97 163.971L1278.79 165.575C1279.17 166.903 1279.26 168.298 1279.06 169.665C1279.06 171.428 1278.85 172.941 1279.73 173.845C1279.95 174.063 1280.21 174.231 1280.5 174.336C1280.79 174.441 1281.1 174.482 1281.41 174.455C1284.41 174.32 1284.72 170.863 1284.88 169.01C1284.88 168.648 1284.88 168.309 1284.88 168.016C1286.06 166.833 1287.38 165.801 1288.81 164.943C1291.07 163.406 1291.99 162.683 1291.72 161.689C1291.73 161.614 1291.73 161.538 1291.72 161.463C1291.29 160.446 1290.19 160.469 1288.15 160.537C1286.53 160.723 1284.89 160.592 1283.32 160.153C1282.6 159.543 1282.04 158.768 1281.68 157.893C1281.04 156.673 1280.43 155.634 1279.42 155.159C1279.1 155.035 1278.76 154.985 1278.42 155.012C1278.08 155.04 1277.75 155.144 1277.46 155.317Z" fill="#CEAF7E"/>
</g>
<g clip-path="url(#clip1_889_9)">
<path d="M39.1396 132.655C39.1603 133.066 39.3297 133.455 39.6163 133.751C39.9029 134.046 40.2871 134.226 40.6971 134.259C41.1486 134.259 85.2106 137.829 106.813 157.215C122.614 171.292 130.627 184.013 129.115 192.102C128.392 195.883 125.533 198.722 120.537 200.62C120.311 200.706 120.105 200.839 119.934 201.011C119.763 201.182 119.63 201.388 119.544 201.614C118.79 203.925 118.813 206.419 119.608 208.716C120.402 211.012 121.926 212.986 123.945 214.335C127.647 217.001 134.848 216.301 140.694 212.708C144.938 210.087 154.509 202.021 151.687 183.335C150.062 172.738 141.191 160.989 127.309 151.115C107.761 137.196 74.7143 124.588 40.5165 130.892C40.2401 130.95 39.9822 131.075 39.7656 131.256C39.5491 131.438 39.3805 131.67 39.275 131.932C39.163 132.155 39.1161 132.406 39.1396 132.655ZM138.911 209.816C133.471 213.16 127.873 212.98 125.909 211.579C124.591 210.729 123.561 209.498 122.956 208.05C122.352 206.601 122.201 205.003 122.523 203.467C128.189 201.208 131.553 197.525 132.41 192.735C134.171 183.312 125.887 169.801 109.047 154.685C94.2171 141.354 70.0643 135.321 54.8728 132.7C80.0186 132.05 104.713 139.468 125.345 153.871C138.482 163.226 146.857 174.207 148.324 183.855C149.386 189.386 148.894 195.104 146.902 200.372C145.31 204.291 142.511 207.599 138.911 209.816Z" fill="#CEAF7E"/>
<path d="M36.2053 140.902C36.1451 141.306 36.233 141.719 36.4529 142.064C36.6728 142.408 37.0097 142.662 37.4016 142.777C37.5822 142.777 53.8346 147.635 61.3062 158.887C63.7257 163.31 65.4178 168.093 66.3174 173.054C69.2293 184.804 72.5249 198.135 88.7321 197.389C90.6178 197.305 92.4956 197.094 94.3528 196.756C95.7151 196.764 97.0578 196.43 98.2578 195.785C106.339 193.186 110.312 187.967 111.327 183.132C112.072 179.562 111.079 176.353 108.867 175.336C104.601 173.235 100.899 176.444 99.5445 178.409C99.2906 178.742 99.1685 179.157 99.2018 179.574C99.2352 179.991 99.4215 180.381 99.7251 180.669C101.621 182.635 101.125 187.854 98.7319 191.04C98.2227 191.725 97.596 192.314 96.8809 192.78C96.0006 193.051 95.0525 193.277 94.0593 193.48C93.0179 193.391 92.0085 193.075 91.1023 192.554C84.3304 188.871 81.2831 179.178 80.1996 174.478C81.8088 174.466 83.3612 173.882 84.5788 172.828C84.7797 172.641 84.932 172.407 85.0225 172.147C85.1129 171.887 85.1388 171.609 85.0979 171.337C80.5834 139.704 38.282 139.569 37.8757 139.569C37.5427 139.569 37.2174 139.668 36.9404 139.853C36.6633 140.038 36.4469 140.301 36.3182 140.608C36.2695 140.701 36.2316 140.8 36.2053 140.902ZM78.913 170.524C78.6392 170.351 78.3223 170.26 77.9988 170.26C77.6753 170.26 77.3583 170.351 77.0846 170.524C76.8173 170.7 76.6055 170.949 76.4737 171.241C76.3418 171.532 76.2954 171.856 76.3397 172.173C76.3397 172.828 78.5969 187.334 87.31 194C74.9627 194 72.3669 183.358 69.613 172.218C68.6492 166.863 66.7951 161.708 64.1278 156.967C60.1827 151.484 54.9808 147.028 48.9589 143.975C60.8096 146.234 78.3035 152.47 81.5766 170.659C81.1605 170.875 80.6945 170.977 80.2264 170.953C79.7583 170.929 79.305 170.781 78.913 170.524ZM103.337 189.436C103.993 187.846 104.311 186.138 104.273 184.418C104.234 182.699 103.838 181.007 103.111 179.449C103.618 178.842 104.304 178.411 105.071 178.22C105.838 178.03 106.646 178.088 107.377 178.387C107.829 178.59 108.483 180.059 107.987 182.431C107.861 183.059 107.672 183.672 107.422 184.261C106.547 186.321 105.136 188.108 103.337 189.436Z" fill="#CEAF7E"/>
<path d="M191.213 117.493C191.36 117.637 191.539 117.744 191.736 117.803C191.932 117.862 192.14 117.872 192.342 117.832C217.172 112.794 236.314 95.2375 245.794 80.4378C252.543 70.0442 255.388 59.5828 253.582 51.9683C250.444 38.4113 241.731 35.6096 238.142 34.9995C233.176 34.1635 228.097 35.6322 226.314 38.4565C225.308 39.9252 224.809 41.6832 224.895 43.462C224.98 45.2409 225.645 46.9428 226.788 48.3079C227.038 48.5633 227.379 48.7095 227.736 48.7146C229.276 48.5091 230.842 48.7216 232.272 49.3298C233.701 49.9379 234.941 50.9194 235.862 52.1716C239.09 57.2329 237.036 68.101 230.219 81.9517C220.829 101.022 191.845 115.415 191.552 115.573C191.281 115.705 191.067 115.932 190.951 116.211C190.834 116.489 190.823 116.801 190.92 117.087C190.99 117.24 191.09 117.378 191.213 117.493ZM245.704 41.665C248.509 44.6958 250.41 48.4532 251.189 52.5105C252.837 59.4924 250.106 69.2082 243.74 79.1499C233.622 94.5801 218.827 106.356 201.529 112.749C211.168 106.806 225.93 96.1187 232.363 83.0363C239.699 68.1688 241.663 56.7132 237.894 50.8159C236.822 49.2847 235.368 48.0615 233.677 47.2685C231.986 46.4756 230.116 46.1406 228.255 46.297C227.609 45.3478 227.263 44.2258 227.263 43.0772C227.263 41.9285 227.609 40.8065 228.255 39.8574C229.203 38.3661 232.973 36.7393 237.578 37.5979C240.65 38.0513 243.498 39.4764 245.704 41.665Z" fill="#CEAF7E"/>
<path d="M186.88 112.5C187.048 112.676 187.264 112.798 187.501 112.851C187.738 112.903 187.986 112.883 188.212 112.794C188.505 112.681 217.195 101.135 211.665 78.3365C211.614 78.1402 211.518 77.9584 211.385 77.8055C211.252 77.6526 211.085 77.5327 210.898 77.4553C209.79 77.0473 208.574 77.0473 207.466 77.4553C206.925 73.9757 206.315 66.5646 209.95 62.2038C210.424 61.6044 211.025 61.1181 211.71 60.7803C212.404 60.6443 213.105 60.5462 213.809 60.4866C214.437 60.5859 215.037 60.8169 215.57 61.1644C218.053 62.6557 219.814 66.0675 219.046 67.9429C218.941 68.2115 218.931 68.5081 219.017 68.7834C219.103 69.0588 219.281 69.2963 219.52 69.4567C220.571 70.2489 221.869 70.6387 223.182 70.5558C224.494 70.473 225.733 69.9228 226.676 69.0048C227.261 68.0975 227.534 67.0234 227.453 65.9463C227.371 64.8693 226.94 63.8485 226.224 63.0398C224.215 60.0347 220.107 57.5718 213.9 58.0011C212.91 57.8862 211.908 58.0262 210.988 58.4078C209.631 58.6782 208.295 59.0483 206.992 59.515C195.706 63.4239 197.173 73.3657 198.392 82.1099C199.133 85.7296 199.286 89.4453 198.844 93.1136C196.835 102.784 187.083 110.489 186.993 110.579C186.757 110.759 186.595 111.019 186.537 111.311C186.478 111.602 186.528 111.904 186.677 112.161C186.711 112.291 186.781 112.409 186.88 112.5ZM209.453 79.647C212.207 92.8877 202.004 101.948 194.555 106.761C197.825 103.048 200.148 98.5983 201.327 93.7914C201.849 89.8487 201.704 85.8462 200.898 81.9517C199.747 73.6368 198.641 65.7512 206.992 62.3168C202.839 69.2534 205.367 79.6696 205.48 80.1441C205.536 80.3754 205.658 80.5856 205.83 80.7498C206.002 80.914 206.217 81.0253 206.451 81.0705C206.683 81.1121 206.923 81.0876 207.143 80.9997C207.362 80.9119 207.552 80.7642 207.692 80.5734C207.873 80.2829 208.126 80.0446 208.427 79.8821C208.728 79.7197 209.066 79.6386 209.408 79.647H209.453ZM223.313 63.3787C223.644 63.7137 223.946 64.0765 224.215 64.4633C225.186 65.9319 225.118 67.1069 224.87 67.4006C224.452 67.799 223.918 68.0533 223.345 68.1264C222.773 68.1996 222.192 68.0878 221.687 67.8073C221.758 66.56 221.565 65.3118 221.121 64.1439C220.678 62.9761 219.994 61.9147 219.114 61.0288C220.684 61.4252 222.118 62.2368 223.267 63.3787H223.313Z" fill="#CEAF7E"/>
<path d="M57.2882 98.8979C75.5044 86.1092 100.425 68.5755 116.226 73.569C118.918 74.492 121.348 76.0494 123.312 78.1101C125.277 80.1707 126.717 82.674 127.512 85.4087C127.653 85.7876 127.662 86.2026 127.54 86.5876C127.417 86.9726 127.169 87.3054 126.835 87.5327C126.495 87.7637 126.088 87.8738 125.679 87.8451C125.269 87.8164 124.881 87.6506 124.578 87.3745C122.79 85.8656 120.642 84.8458 118.344 84.4142C116.046 83.9826 113.675 84.154 111.463 84.9116C108.548 86.0467 105.693 87.3287 102.908 88.7528C101.576 89.4306 100.38 90.0181 99.2283 90.5152L101.373 91.7579C101.631 91.906 101.848 92.1154 102.005 92.3677C102.163 92.6199 102.256 92.9072 102.276 93.204C102.299 93.4963 102.25 93.7898 102.132 94.0581C102.013 94.3264 101.83 94.5609 101.598 94.7404C89.3057 103.861 75.3027 110.408 60.4258 113.991C50.1994 116.296 39.7574 117.508 29.2754 117.606C29.1485 117.629 29.0185 117.629 28.8916 117.606C22.1671 117.73 15.4416 117.421 8.75676 116.68C8.38613 116.629 8.04021 116.464 7.76572 116.21C7.49123 115.955 7.30138 115.623 7.22179 115.257C7.18816 115.077 7.18816 114.894 7.22179 114.714C7.26213 114.247 7.48251 113.813 7.83636 113.506C8.19021 113.198 8.64977 113.04 9.1179 113.065C9.38877 113.065 35.4829 114.308 57.085 99.1238L57.2882 98.8979ZM59.0489 102.084C52.4235 106.693 45.1197 110.238 37.4016 112.59C62.4799 106.942 83.8563 89.1595 84.1497 88.9561C84.5227 88.729 84.9651 88.6448 85.3953 88.7191C85.8254 88.7934 86.2141 89.0211 86.4895 89.3601C86.7649 89.6991 86.9082 90.1265 86.893 90.5632C86.8779 90.9999 86.7052 91.4162 86.407 91.7353C75.862 100.219 64.1065 107.074 51.5321 112.071C54.2183 111.619 56.927 111.099 59.6357 110.466C73.0766 107.146 85.7983 101.395 97.1742 93.4977L93.7657 91.5094C93.4337 91.3186 93.1709 91.0272 93.0151 90.6772C92.8594 90.3272 92.8187 89.9367 92.8991 89.5621C92.9795 89.1875 93.1767 88.8481 93.4623 88.593C93.7479 88.3379 94.1071 88.1802 94.4881 88.1427C96.8759 87.6544 99.165 86.7684 101.26 85.5217C104.151 84.0302 107.12 82.6952 110.154 81.5224C113.79 80.1443 117.804 80.1443 121.44 81.5224C119.879 79.4335 117.698 77.8915 115.21 77.1164C101.102 72.5974 76.0461 90.2892 59.4551 101.971L59.0489 102.084Z" fill="#CEAF7E"/>
<path d="M43.6554 84.6179C52.9328 77.4554 59.6369 68.6659 66.0927 60.1477C79.9749 41.891 93.0671 24.6511 128.935 23.1146C161.982 21.7137 175.458 37.2364 180.559 46.6133C186.812 58.1593 186.857 72.3263 180.559 81.0931C177.693 85.2177 173.612 88.3429 168.885 90.0322C164.158 91.7215 159.022 91.8903 154.194 90.5152C146.813 88.4365 141.802 83.1719 141.373 76.9583C140.56 65.4123 149.07 61.6615 153.675 61.2774C154.081 61.2462 154.486 61.3515 154.825 61.5766C155.164 61.8017 155.419 62.1338 155.549 62.5201C156.222 64.4581 157.534 66.109 159.27 67.2013C161.005 68.2936 163.06 68.7623 165.097 68.5304C169.07 68.1688 173.697 65.2089 174.781 57.9334C175.173 54.6854 174.827 51.3905 173.768 48.2954C172.709 45.2003 170.964 42.3852 168.663 40.0608C164.375 35.5418 154.284 27.9273 134.804 29.396C111.351 31.181 96.7691 49.7314 92.8414 55.2446L95.4373 56.4873C95.8662 56.7053 96.192 57.0836 96.3441 57.5404C96.4962 57.9972 96.4624 58.4956 96.2499 58.9275C80.1781 90.7411 25.0329 105.541 8.44186 109.359C6.84268 109.903 5.18205 110.244 3.49843 110.376C3.07634 110.387 2.6636 110.251 2.33032 109.991C1.99704 109.732 1.76373 109.365 1.67004 108.953C1.67004 108.953 1.67004 108.817 1.67004 108.749C1.62796 108.298 1.75471 107.847 2.02577 107.484C2.29683 107.121 2.6929 106.871 3.13725 106.784C3.13725 106.784 4.87537 106.445 7.65181 105.789C13.3176 104.072 25.0328 98.9883 43.6554 84.6179ZM178.46 58.566C177.083 67.9429 170.853 71.784 165.503 72.2585C162.923 72.5167 160.325 71.9827 158.055 70.7275C155.785 69.4724 153.95 67.5554 152.795 65.2315C150.154 65.8642 144.465 68.2366 145.075 76.8227C145.391 81.3417 149.386 85.3636 155.255 87.013C159.354 88.1924 163.719 88.0622 167.741 86.6405C171.763 85.2189 175.242 82.5767 177.692 79.0822C181.53 73.682 182.591 65.8416 180.92 58.0463C180.293 55.1268 179.307 52.2961 177.986 49.6184C178.728 52.5411 178.889 55.5812 178.46 58.566ZM32.2336 98.6946C71.7359 74.5632 84.7378 48.1046 84.8507 47.8334C85.0604 47.4019 85.4311 47.0702 85.8829 46.9096C86.3346 46.749 86.8313 46.7724 87.266 46.9748C87.4815 47.0765 87.6747 47.2199 87.8346 47.3967C87.9945 47.5735 88.1179 47.7802 88.1976 48.0049C88.2774 48.2297 88.3119 48.468 88.2992 48.7061C88.2865 48.9442 88.2269 49.1775 88.1237 49.3925C87.6722 50.3867 77.6274 70.9706 47.8765 92.6617C65.5961 84.9794 83.6995 73.9531 92.0965 58.9501L89.591 57.6622C89.3618 57.5439 89.1607 57.3778 89.001 57.1751C88.8414 56.9724 88.727 56.7379 88.6655 56.4873C88.5995 56.2499 88.5815 56.0018 88.6125 55.7573C88.6435 55.5129 88.7229 55.2771 88.846 55.0638C89.4555 54.047 102.931 31.8363 128.236 26.7072C94.715 28.4018 82.2096 44.7831 68.982 62.2716C62.3682 70.9706 55.4383 79.9634 45.8675 87.4197C39.9426 92.0376 33.7711 96.3295 27.3804 100.276L32.2336 98.6946Z" fill="#CEAF7E"/>
<path d="M85.5723 5.49058C86.9079 6.5705 87.9082 8.00922 88.4559 9.63801C89.0037 11.2668 89.0761 13.0182 88.6648 14.6867C88.4176 15.9431 87.8807 17.1244 87.0969 18.1364C86.3132 19.1485 85.3041 19.9634 84.1502 20.5162C82.8272 20.9429 81.432 21.0988 80.0476 20.9746C78.6631 20.8504 77.3178 20.4486 76.0917 19.7931C75.8781 19.6805 75.6911 19.5234 75.5432 19.3325C75.3953 19.1415 75.2898 18.9211 75.234 18.686C75.1645 18.4577 75.1426 18.2175 75.1698 17.9804C75.197 17.7433 75.2726 17.5143 75.392 17.3077C76.346 15.9437 76.7817 14.2832 76.6202 12.6259C76.4588 10.9686 75.711 9.42365 74.5116 8.26975C71.6449 5.69393 65.4825 4.72235 57.5143 10.5292C49.5462 16.3361 49.027 27.2495 48.2595 40.106C47.6726 49.528 47.0406 60.1928 43.2258 69.8634C34.1967 92.7295 3.72345 102.558 2.43681 102.965C2.00751 103.118 1.53627 103.103 1.11762 102.923C0.698982 102.743 0.363884 102.411 0.179527 101.993L0.0440979 101.609C-0.0336227 101.248 0.00281525 100.871 0.148392 100.531C0.293968 100.191 0.541489 99.9044 0.85672 99.7113C26.2962 83.5108 26.2059 73.2979 25.9802 48.6468C25.6642 16.1102 48.3047 5.12906 58.0561 1.92059C70.1325 -2.1465 80.7869 0.926411 85.5723 5.49058ZM76.8366 5.49058C78.4035 6.86917 79.4874 8.71439 79.9291 10.7552C80.3584 12.8835 80.1543 15.0911 79.3422 17.1044C80.4188 17.466 81.5838 17.466 82.6604 17.1044C83.2999 16.7482 83.8511 16.2525 84.2731 15.6541C84.6951 15.0556 84.9771 14.3698 85.0983 13.6473C85.31 12.6166 85.2322 11.5473 84.8736 10.5582C84.515 9.56904 83.8896 8.6987 83.0667 8.0438C80.7197 6.008 77.864 4.64906 74.8051 4.11229C75.5448 4.51783 76.2279 5.01924 76.8366 5.60355V5.49058ZM29.5693 48.4209C29.7724 69.05 29.2307 80.4604 16.319 92.4583C17.696 91.6449 19.1406 90.7863 20.5627 89.8373C30.9011 78.5399 33.2486 69.3212 33.971 56.2161C34.6107 47.1016 35.8778 38.0422 37.7632 29.1022C37.8159 28.8606 37.9169 28.6321 38.0603 28.4306C38.2037 28.2291 38.3864 28.0588 38.5974 27.93C38.8084 27.8011 39.0432 27.7165 39.2878 27.6811C39.5324 27.6457 39.7817 27.6602 40.0204 27.724C40.2635 27.7737 40.4937 27.873 40.6967 28.0158C40.8998 28.1585 41.0712 28.3416 41.2004 28.5536C41.3296 28.7656 41.4138 29.002 41.4477 29.248C41.4816 29.494 41.4644 29.7444 41.3974 29.9834C39.5247 38.7209 38.2501 47.576 37.5826 56.4873C37.5084 64.9148 35.4923 73.2115 31.6911 80.7316C35.1378 77.1793 37.8732 72.9993 39.7496 68.4174C43.3612 59.3794 43.9707 49.3699 44.535 39.767C45.325 26.5716 46.07 14.0992 55.3022 7.47893C56.2869 6.76511 57.3119 6.10877 58.3721 5.51317C49.0044 8.85722 29.2984 19.2735 29.5693 48.5339V48.4209Z" fill="#CEAF7E"/>
<path d="M246.472 128.994C241.303 128.339 236.789 127.661 232.409 127.006C217.76 124.746 207.173 123.255 191.778 125.65C191.48 125.705 191.173 125.699 190.877 125.633C190.581 125.566 190.301 125.44 190.055 125.263C189.808 125.086 189.6 124.861 189.442 124.601C189.285 124.342 189.181 124.053 189.137 123.752C189.082 123.457 189.087 123.153 189.15 122.859C189.214 122.566 189.336 122.287 189.508 122.041C189.68 121.795 189.9 121.586 190.154 121.426C190.408 121.265 190.692 121.158 190.988 121.109C191.643 121.109 246.969 110.828 279.022 105.292C279.022 104.501 278.887 103.711 278.774 102.897V102.671C277.126 91.9613 270.106 88.5042 267.149 87.5101C265.178 86.7117 263.026 86.4665 260.926 86.801C258.826 87.1354 256.857 88.0367 255.23 89.408C252.364 91.9161 251.19 94.7404 251.732 97.1581C252.055 98.2248 252.636 99.1953 253.424 99.9836C254.211 100.772 255.181 101.353 256.246 101.677C256.677 101.864 257.142 101.961 257.612 101.961C258.082 101.961 258.547 101.864 258.978 101.677C260.222 100.836 261.139 99.5912 261.573 98.1523C261.653 97.8552 261.793 97.5775 261.983 97.3363C262.174 97.095 262.412 96.8953 262.682 96.7493C262.953 96.6034 263.25 96.5142 263.556 96.4874C263.863 96.4605 264.171 96.4965 264.463 96.5932C264.757 96.6733 265.032 96.8122 265.271 97.0015C265.51 97.1909 265.708 97.4267 265.854 97.6949C266 97.963 266.089 98.2579 266.118 98.5618C266.146 98.8656 266.113 99.1721 266.02 99.4628C265.227 102.106 263.481 104.361 261.122 105.789C260.139 106.274 259.067 106.552 257.972 106.606C256.877 106.661 255.783 106.49 254.756 106.106C252.913 105.537 251.246 104.506 249.915 103.11C248.583 101.713 247.631 99.9989 247.149 98.1297C246.201 94.0626 247.872 89.7018 251.777 85.8606C254.015 83.8851 256.751 82.5607 259.687 82.031C262.624 81.5012 265.649 81.7864 268.436 82.8555C276.313 85.4991 281.776 92.6843 283.198 101.971L283.401 103.643C287.124 101.628 290.569 99.1368 293.649 96.2317C297.848 92.8876 303.514 88.1201 312.362 81.5676C319.257 76.1339 327.476 72.641 336.17 71.4494C344.864 70.2578 353.719 71.4107 361.819 74.7891C362.4 74.9779 362.882 75.3898 363.159 75.9343C363.436 76.4788 363.486 77.1113 363.298 77.6926C363.109 78.2738 362.697 78.7563 362.154 79.0339C361.61 79.3114 360.978 79.3613 360.397 79.1725C348.433 76.9131 337.44 84.2338 325.793 91.8935C315.816 98.446 305.477 105.247 293.243 107.326L283.492 109.02C283.129 113.769 281.126 118.243 277.826 121.674C271.505 128.158 260.355 130.757 246.472 128.994ZM274.508 118.442C276.784 116.106 278.262 113.108 278.729 109.879C261.438 112.975 237.782 117.222 219.588 120.566C223.899 121.041 228.324 121.696 233.132 122.419C237.488 123.074 241.98 123.73 247.104 124.385C259.474 125.967 269.248 123.843 274.508 118.442Z" fill="#CEAF7E"/>
<path d="M187.263 156.153C143.156 130.689 66.0924 132.203 54.5804 132.587C54.3879 132.593 54.1963 132.56 54.0169 132.49C53.8376 132.42 53.6745 132.314 53.5373 132.178C53.4001 132.043 53.2917 131.882 53.2188 131.703C53.1459 131.525 53.11 131.333 53.1131 131.141V129.853C53.1088 129.511 53.2273 129.18 53.4469 128.918C53.6665 128.657 53.9727 128.484 54.3095 128.429C57.3116 127.932 66.7471 126.916 90.4259 127.593C102.638 127.277 115.256 127.074 115.798 127.074C116.859 127.074 222.319 124.814 274.71 146.37C287.622 151.702 298.705 157.035 308.569 162.186C324.821 156.583 333.061 145.15 343.918 138.823C359.471 129.785 374.504 141.919 371.66 144.494C368.816 147.07 369.628 139.456 358.477 145.308C352.36 148.516 345.634 163.158 334.144 175.766C351.412 184.804 365.204 191.108 381.05 191.379C396.422 191.65 409.808 185.527 416.828 174.975C419.444 171.126 421.025 166.668 421.42 162.03C421.816 157.392 421.012 152.73 419.085 148.494C417.62 145.039 415.054 142.167 411.788 140.324C408.522 138.481 404.738 137.77 401.027 138.303C394.255 139.388 389.741 144.449 389.109 151.86C388.296 160.175 393.036 162.344 395.88 162.909C400.395 163.768 405.293 161.802 406.151 158.842C406.58 157.396 406.828 155.453 405.542 154.617C404.255 153.781 403.894 156.447 401.998 157.102C401.62 157.237 401.219 157.292 400.82 157.262C400.42 157.232 400.031 157.119 399.678 156.929C399.325 156.74 399.016 156.478 398.77 156.162C398.524 155.845 398.347 155.481 398.251 155.091C398.027 154.214 398.018 153.295 398.227 152.413C398.435 151.532 398.854 150.714 399.447 150.03C400.675 149.405 402.049 149.123 403.423 149.215C404.798 149.306 406.123 149.767 407.257 150.55C409.198 151.973 410.756 155.069 409.266 159.769C407.573 165.259 401.388 167.293 395.271 166.118C388.499 164.83 385.046 159.339 385.813 151.544C386.671 142.687 392.269 136.383 400.463 135.095C404.894 134.442 409.417 135.273 413.328 137.459C417.239 139.645 420.319 143.064 422.087 147.183C424.204 151.934 425.07 157.149 424.604 162.33C424.138 167.511 422.354 172.486 419.424 176.782C411.772 188.261 397.37 194.858 380.892 194.655C364.053 194.361 349.742 187.877 331.684 178.206C322.654 187.425 310.601 194.971 294.01 195.197C254.078 195.717 235.072 183.764 187.263 156.153ZM282.069 165.191C289.467 165.761 296.908 165.166 304.122 163.429C295.093 158.91 285.003 154.052 273.491 149.307C237.645 134.553 176.18 131.05 141.576 130.418C141.392 130.428 141.218 130.505 141.086 130.633C140.954 130.761 140.872 130.933 140.855 131.116C140.839 131.3 140.889 131.483 140.996 131.633C141.104 131.782 141.261 131.889 141.44 131.932C190.807 140.766 251.641 163.429 282.136 165.259L282.069 165.191Z" fill="#CEAF7E"/>
<path d="M331.549 117.493C334.822 117.493 336.063 121.741 333.151 122.668C330.24 123.594 327.441 130.937 322.023 133.513C316.606 136.089 307.441 131.593 304.145 129.265C300.85 126.938 267.262 129.085 268.029 126.599C268.639 124.543 296.742 125.289 301.888 122.871C307.035 120.453 311.369 112.749 316.673 111.574C321.978 110.399 328.276 117.29 331.549 117.493ZM311.572 122.306C310.24 126.825 317.17 128.633 320.42 128.113C323.671 127.593 326.921 120.951 328.343 120.227C329.766 119.504 315.161 109.698 311.572 122.216V122.306Z" fill="#CEAF7E"/>
<path d="M197.669 187.922C196.11 184.371 194.197 180.988 191.958 177.822C190.963 176.592 189.818 175.491 188.55 174.546L188.369 174.41C179.972 168.016 164.803 163.836 164.623 163.79C164.473 163.751 164.332 163.682 164.208 163.588C164.085 163.494 163.981 163.376 163.904 163.242C163.826 163.107 163.776 162.959 163.756 162.805C163.736 162.651 163.747 162.494 163.788 162.344C163.827 162.194 163.895 162.054 163.99 161.931C164.084 161.809 164.202 161.706 164.337 161.63C164.472 161.554 164.621 161.507 164.775 161.489C164.928 161.472 165.084 161.486 165.232 161.531C165.977 161.734 181.033 165.869 189.837 172.557C195.684 176.152 200.919 180.661 205.344 185.911C209.543 190.43 212.838 194.045 215.908 193.638C217.488 193.435 218.549 193.006 218.73 192.463C218.91 191.921 218.21 190.611 217.624 190.001C217.468 189.848 217.359 189.654 217.311 189.442C217.263 189.229 217.278 189.007 217.353 188.803C217.422 188.6 217.545 188.42 217.708 188.281C217.87 188.142 218.067 188.049 218.278 188.012C220.336 187.681 222.447 188.012 224.305 188.958C226.163 189.904 227.672 191.416 228.617 193.277C229.364 195.217 229.527 197.334 229.085 199.365C228.644 201.397 227.618 203.255 226.134 204.71C222.725 208.054 217.714 208.506 212.387 205.953C204.464 202.134 201.01 194.904 197.669 187.922Z" fill="#CEAF7E"/>
<path d="M176.97 203.354C177.74 201.02 178.698 198.753 179.837 196.576C183.064 190.001 186.405 183.222 180.22 175.856C178.121 173.392 175.478 171.45 172.5 170.185C169.438 168.871 166.255 167.857 162.997 167.157C162.844 167.13 162.698 167.073 162.567 166.988C162.436 166.904 162.323 166.795 162.235 166.666C162.147 166.538 162.085 166.394 162.053 166.241C162.021 166.089 162.02 165.932 162.049 165.779C162.124 165.49 162.306 165.241 162.557 165.082C162.809 164.923 163.111 164.865 163.404 164.92C164.352 165.078 186.247 169.168 192.974 186.272C197.353 197.366 193.809 204.19 191.213 209.184C189.746 211.963 188.617 214.154 188.956 216.346C189.249 217.95 189.994 218.899 191.213 219.148C191.78 219.243 192.361 219.176 192.892 218.957C193.423 218.737 193.881 218.373 194.215 217.905C194.497 217.461 194.629 216.939 194.592 216.414C194.556 215.89 194.352 215.391 194.012 214.99C193.875 214.791 193.802 214.555 193.802 214.313C193.802 214.071 193.875 213.834 194.012 213.635C194.837 212.438 196.046 211.561 197.439 211.15C198.832 210.739 200.323 210.818 201.664 211.375C202.775 211.978 203.655 212.933 204.165 214.09C204.676 215.248 204.789 216.542 204.486 217.77C204.17 219.351 202.454 224.548 192.997 224.977C190.457 225.189 187.904 224.769 185.565 223.756C183.226 222.743 181.173 221.168 179.588 219.171C177.942 216.925 176.847 214.323 176.392 211.575C175.937 208.828 176.135 206.011 176.97 203.354Z" fill="#CEAF7E"/>
<path d="M161.89 171.247C161.586 171.167 161.326 170.97 161.165 170.7C161.005 170.429 160.957 170.106 161.033 169.801C161.112 169.496 161.309 169.235 161.579 169.075C161.849 168.914 162.172 168.866 162.477 168.942C166.065 170.052 169.374 171.916 172.184 174.41C172.35 174.501 172.489 174.633 172.59 174.794C174.264 176.357 175.586 178.261 176.465 180.377C177.345 182.493 177.763 184.772 177.691 187.063C177.703 190.397 176.564 193.634 174.466 196.223C172.368 198.813 169.441 200.598 166.179 201.275C163.885 201.854 161.46 201.599 159.336 200.556C157.211 199.514 155.525 197.751 154.577 195.581C153.383 193.2 153.041 190.48 153.606 187.877C153.966 186.35 154.748 184.956 155.863 183.855C156.841 182.858 158.084 182.164 159.445 181.855C160.806 181.547 162.227 181.637 163.538 182.115C163.706 182.198 163.85 182.323 163.957 182.477C164.063 182.631 164.129 182.81 164.148 182.996C164.18 183.18 164.166 183.37 164.106 183.547C164.047 183.725 163.945 183.885 163.809 184.013C163.398 184.391 163.066 184.848 162.834 185.356C162.601 185.864 162.472 186.414 162.455 186.973C162.534 187.42 162.717 187.842 162.987 188.207C163.257 188.571 163.608 188.868 164.012 189.074C164.856 189.621 165.84 189.912 166.845 189.912C167.85 189.912 168.834 189.621 169.678 189.074C170.571 188.565 171.301 187.813 171.784 186.905C172.268 185.997 172.484 184.971 172.409 183.945V183.764C172.077 180.919 170.919 178.233 169.077 176.041C167.236 173.848 164.792 172.244 162.048 171.428L161.89 171.247Z" fill="#CEAF7E"/>
<path d="M162.545 155.317C165.637 157.012 163.561 161.034 162.026 163.971L161.213 165.575C160.829 166.903 160.737 168.298 160.942 169.665C160.942 171.428 161.145 172.941 160.265 173.845C160.048 174.063 159.786 174.231 159.498 174.336C159.209 174.441 158.901 174.482 158.595 174.455C155.593 174.32 155.277 170.863 155.119 169.01C155.119 168.648 155.119 168.309 155.119 168.016C153.941 166.833 152.622 165.801 151.191 164.943C148.934 163.406 148.008 162.683 148.279 161.689C148.272 161.614 148.272 161.538 148.279 161.463C148.708 160.446 149.814 160.469 151.846 160.537C153.465 160.723 155.106 160.592 156.676 160.153C157.399 159.543 157.964 158.768 158.324 157.893C158.956 156.673 159.565 155.634 160.581 155.159C160.899 155.035 161.241 154.985 161.581 155.012C161.921 155.04 162.251 155.144 162.545 155.317Z" fill="#CEAF7E"/>
</g>
<defs>
<clipPath id="clip0_889_9">
<rect width="425" height="225" fill="white" transform="translate(1015)"/>
</clipPath>
<clipPath id="clip1_889_9">
<rect width="425" height="225" fill="white" transform="matrix(-1 0 0 1 425 0)"/>
</clipPath>
</defs>
</svg>
