<svg width="1440" height="168" viewBox="0 0 1440 168" fill="none" xmlns="http://www.w3.org/2000/svg">
<g clip-path="url(#clip0_889_10)">
<path d="M12.7189 71.8687C12.8401 71.659 12.9039 71.4212 12.9039 71.1791C12.9039 70.937 12.8401 70.6992 12.7189 70.4895C12.5996 70.3533 4.33063 57.3281 7.16082 45.4096C9.99101 33.4911 24.6875 24.3989 24.841 24.3138C25.0962 24.1631 25.2945 23.9326 25.4051 23.6579C25.5157 23.3832 25.5325 23.0798 25.4529 22.7946C25.3732 22.5094 25.2016 22.2584 24.9646 22.0806C24.7275 21.9027 24.4384 21.8079 24.1419 21.8109H1.347C1.16868 21.8109 0.992135 21.8463 0.827601 21.9149C0.663066 21.9836 0.513822 22.0842 0.388526 22.2109C0.26323 22.3376 0.164376 22.4879 0.0976991 22.6531C0.0310226 22.8182 -0.00214931 22.995 0.00010792 23.173V71.2217C0.00010792 71.5784 0.142013 71.9205 0.394605 72.1728C0.647197 72.4251 0.989785 72.5668 1.347 72.5668H11.5766C11.8118 72.5617 12.0415 72.4944 12.2422 72.3718C12.4428 72.2492 12.6074 72.0756 12.7189 71.8687Z" fill="#CEAF7E"/>
<path d="M1.43219 19.5634C1.63678 19.5634 21.7379 18.2523 28.4042 19.4101C29.5727 19.4776 30.6975 19.8772 31.646 20.562C32.5946 21.2468 33.3272 22.1882 33.7577 23.2751C33.9473 23.861 34.2687 24.3957 34.6972 24.8384C35.1257 25.2811 35.65 25.62 36.2298 25.8291C36.5128 25.9069 36.806 25.9414 37.0994 25.9313C38.2412 25.8354 39.3457 25.4784 40.3272 24.8879C41.3088 24.2974 42.1411 23.4892 42.7597 22.526C43.5271 21.3491 43.8678 19.9454 43.7251 18.5482C43.5824 17.1511 42.9649 15.8449 41.9755 14.8471C37.4062 9.10914 7.22896 11.4418 1.2276 11.8674C0.879349 11.8978 0.556584 12.0623 0.327515 12.326C0.0984447 12.5897 -0.0189838 12.932 4.56448e-05 13.2806V18.1672C-0.000743598 18.3522 0.0367025 18.5354 0.110042 18.7054C0.183382 18.8753 0.291038 19.0283 0.426279 19.1547C0.554361 19.2915 0.71063 19.3988 0.884299 19.4694C1.05797 19.5399 1.2449 19.572 1.43219 19.5634Z" fill="#CEAF7E"/>
<path d="M-0.000141444 1.36209C-0.000141444 1.00535 0.141763 0.663231 0.394355 0.410976C0.646947 0.158724 0.989536 0.0169983 1.34675 0.0169983H84.5474C106.064 0.0169983 108.587 9.68803 108.672 13.8595C108.711 14.7592 108.561 15.657 108.232 16.4956C107.903 17.3341 107.403 18.0948 106.763 18.7291C103.353 22.1344 96.3797 22.2706 96.0898 22.2706C95.8907 22.2702 95.6941 22.2257 95.5143 22.1403C95.3345 22.0549 95.1758 21.9308 95.0498 21.7768C94.9244 21.6275 94.8334 21.4525 94.7833 21.2642C94.7333 21.0759 94.7253 20.8789 94.76 20.6871C94.76 20.2955 96.2262 11.1012 83.03 8.00241C75.1693 6.41945 67.1791 5.5645 59.161 5.44844C68.7939 8.03646 75.2044 11.4588 77.9152 15.6643C78.5785 16.6083 79.0288 17.6848 79.2348 18.8195C79.4409 19.9542 79.3978 21.1201 79.1087 22.2365C77.9664 26.5953 73.4824 27.6339 69.5099 27.6339C67.2122 27.6181 64.9239 27.3382 62.6902 26.7996C62.3559 26.7147 62.0669 26.5048 61.8829 26.2134C61.6989 25.9219 61.6339 25.5711 61.7013 25.2332C61.7013 25.2332 62.4004 20.3977 55.359 13.9106C49.4429 8.24078 14.3895 8.73455 1.41495 9.39858C1.05877 9.41261 0.711234 9.28683 0.446753 9.04816C0.182272 8.80949 0.0218606 8.4769 -0.000141444 8.1216C-0.00932727 7.9449 0.0164831 7.76814 0.0758114 7.60143C0.13514 7.43472 0.22682 7.28132 0.345601 7.15005C0.464382 7.01877 0.60793 6.91219 0.768022 6.8364C0.928114 6.76062 1.10161 6.71712 1.27856 6.7084C6.17171 6.453 49.2894 4.49496 57.2856 11.8163C63.321 17.384 64.3781 22.0322 64.4974 24.2967C67.3788 24.8416 75.3237 25.8972 76.432 21.4363C76.627 20.6842 76.6516 19.8981 76.5042 19.1353C76.3567 18.3724 76.0408 17.652 75.5795 17.0264C73.67 14.0979 67.2083 8.71753 45.5556 5.36332H1.34675C0.989536 5.36332 0.646947 5.22159 0.394355 4.96934C0.141763 4.71708 -0.000141444 4.37497 -0.000141444 4.01823V1.36209ZM77.9664 2.70718C77.3526 2.9796 75.8693 3.5585 83.6609 5.38033C95.8341 8.24078 97.4197 16.0559 97.5049 19.4953C99.4656 19.308 102.995 18.7291 104.853 16.8391C105.236 16.4573 105.534 15.9992 105.728 15.4946C105.922 14.99 106.007 14.4503 105.978 13.9106C105.825 6.79353 98.0164 2.70718 84.5474 2.70718C82.3562 2.56173 80.1577 2.56173 77.9664 2.70718Z" fill="#CEAF7E"/>
<path d="M28.9834 140.026C28.773 139.939 28.5437 139.91 28.3184 139.94C26.4672 140.167 24.5887 139.978 22.8193 139.389C21.0499 138.8 19.434 137.825 18.0889 136.535C11.0986 130.355 7.51828 117.091 7.60353 107.199C7.70582 93.5774 12.5478 90.785 12.5649 90.785C12.8155 90.6375 13.0116 90.4129 13.1238 90.1449C13.236 89.8768 13.2582 89.5796 13.1872 89.2979C13.1162 89.0161 12.9557 88.7649 12.7298 88.5818C12.504 88.3987 12.2248 88.2936 11.9341 88.2822H3.4094C3.23252 88.2822 3.05737 88.3169 2.89396 88.3845C2.73055 88.4521 2.58207 88.5512 2.457 88.6761C2.33193 88.801 2.23271 88.9493 2.16503 89.1125C2.09734 89.2757 2.0625 89.4506 2.0625 89.6272C2.0625 89.8039 2.09734 89.9788 2.16503 90.142C2.23271 90.3052 2.33193 90.4535 2.457 90.5784C2.58207 90.7033 2.73055 90.8023 2.89396 90.8699C3.05737 90.9375 3.23252 90.9723 3.4094 90.9723H8.52419C6.81926 93.4922 4.77334 98.3107 4.72219 107.25C4.72219 117.465 8.13206 131.597 16.1111 138.612C17.6915 140.105 19.5758 141.24 21.6355 141.94C23.6951 142.639 25.8816 142.886 28.0457 142.665C28.5731 142.957 28.9784 143.428 29.188 143.993C29.3235 144.603 29.3344 145.234 29.2202 145.848C29.1059 146.462 28.8688 147.047 28.523 147.568C28.0501 148.335 27.3879 148.968 26.5998 149.407C25.8117 149.845 24.9241 150.074 24.022 150.071C20.9872 150.173 16.4351 148.368 12.6842 143.107C9.63197 138.985 6.96668 134.591 4.72219 129.98C4.59893 129.694 4.38037 129.46 4.10372 129.317C3.82706 129.175 3.5094 129.132 3.2048 129.197C2.89814 129.263 2.62386 129.433 2.42819 129.678C2.23253 129.924 2.12746 130.228 2.1307 130.542V139.464C2.13782 140.041 2.2997 140.607 2.59952 141.101C2.89934 141.595 3.32616 141.999 3.83563 142.273C4.79039 142.818 6.68286 144.418 8.59239 148.981C10.5019 153.545 7.12615 157.188 4.97793 158.976C4.4446 159.418 4.01535 159.973 3.72069 160.6C3.42603 161.226 3.27318 161.91 3.273 162.603V166.655C3.273 167.012 3.41491 167.354 3.6675 167.606C3.92009 167.858 4.26268 168 4.6199 168C4.97712 168 5.3197 167.858 5.5723 167.606C5.82489 167.354 5.96679 167.012 5.96679 166.655V162.603C5.97013 162.303 6.03899 162.007 6.16856 161.737C6.29813 161.466 6.48529 161.227 6.71696 161.036C8.88223 159.231 13.639 154.379 11.0304 147.943C8.93337 142.92 6.66582 140.758 5.11433 139.94C5.03067 139.892 4.96133 139.823 4.9134 139.739C4.86547 139.655 4.84067 139.56 4.84154 139.464V135.939C6.12024 138.153 7.96156 141.047 10.4849 144.64C14.1505 149.748 19.3676 152.949 24.1243 152.744C25.4778 152.738 26.8069 152.385 27.9835 151.716C29.1601 151.048 30.1445 150.089 30.8417 148.93C31.4353 148.097 31.8378 147.143 32.0205 146.137C32.2032 145.13 32.1616 144.096 31.8988 143.107C31.6481 142.423 31.2602 141.796 30.759 141.267C30.2577 140.737 29.6535 140.314 28.9834 140.026Z" fill="#CEAF7E"/>
<path d="M319.674 154.004C313.195 159.112 305.949 157.546 302.147 153.289C301.288 152.412 300.611 151.373 300.157 150.232C299.702 149.092 299.479 147.872 299.5 146.645C299.52 145.418 299.785 144.207 300.277 143.082C300.77 141.958 301.481 140.942 302.369 140.094C302.509 139.959 302.675 139.856 302.857 139.788C303.039 139.721 303.232 139.691 303.426 139.702C303.621 139.72 303.811 139.78 303.981 139.877C304.152 139.973 304.3 140.105 304.415 140.264C305.592 141.724 307.245 142.725 309.086 143.09C310.083 143.192 311.089 143.094 312.046 142.802C313.004 142.51 313.893 142.029 314.662 141.388C315.839 140.542 316.793 139.423 317.441 138.126C318.089 136.83 318.41 135.395 318.378 133.947C318.378 129.129 314.969 123.816 309.496 119.713C300.05 112.749 247.573 117.483 212.57 134.441C171.584 154.26 118.27 160.321 117.742 160.372H117.64C117.43 160.374 117.223 160.325 117.036 160.23C116.849 160.135 116.688 159.997 116.566 159.827C110.741 160.282 104.897 160.441 99.0559 160.304C118.013 162.707 137.232 162.103 156.001 158.516C178.93 154.543 201.35 148.05 222.851 139.157C233.439 134.986 242.594 131.376 253.727 129.18C270.112 125.945 282.029 132.891 283.683 141.098C284.604 145.746 282.08 151.876 271.936 153.902C271.704 153.951 271.464 153.938 271.239 153.863C271.014 153.788 270.813 153.655 270.657 153.476C270.498 153.299 270.39 153.082 270.345 152.848C270.3 152.614 270.319 152.372 270.402 152.148C270.945 150.234 270.877 148.199 270.208 146.325C269.538 144.452 268.301 142.833 266.668 141.694C260.223 136.842 243.566 141.473 222.459 147.364C201.352 153.255 175.249 160.525 146.027 162.688C137.549 163.816 129.006 164.385 120.453 164.39C88.4853 164.51 70.8904 155.894 69.9016 155.417L69.714 155.298C64.3876 153.521 59.2978 151.103 54.5572 148.096L54.4379 147.994C41.2984 140.288 31.0649 128.477 25.3176 114.384C21.3517 104.861 19.0786 94.7199 18.6002 84.4171H3.08531C2.75203 84.3797 2.44422 84.221 2.2207 83.9713C1.99718 83.7216 1.87362 83.3985 1.87362 83.0635C1.87362 82.7286 1.99718 82.4054 2.2207 82.1557C2.44422 81.906 2.75203 81.7473 3.08531 81.7099H24.5674C25.0196 81.7099 25.4533 81.5305 25.773 81.2112C26.0928 80.8919 26.2724 80.4589 26.2724 80.0073C26.2724 79.5557 26.0928 79.1226 25.773 78.8033C25.4533 78.484 25.0196 78.3046 24.5674 78.3046H2.91482C2.58153 78.2673 2.27373 78.1085 2.05021 77.8588C1.82669 77.6091 1.70313 77.286 1.70312 76.951C1.70313 76.6161 1.82669 76.2929 2.05021 76.0432C2.27373 75.7935 2.58153 75.6348 2.91482 75.5974H18.3615C18.7536 69.6552 21.5838 45.069 39.2128 37.356L39.9971 37.0155C41.0208 36.4513 42.1083 36.0112 43.2365 35.7045C60.4051 29.3025 69.7993 33.3378 71.3508 35.7045C71.7738 36.3886 71.9835 37.1829 71.9531 37.9864C71.9227 38.7898 71.6537 39.5661 71.1803 40.2165C70.4642 41.2551 68.2137 43.6218 62.7579 42.3959C60.7212 41.9102 58.7303 41.2494 56.8077 40.4208C52.6477 38.8033 48.2831 37.1176 43.9525 38.2754C43.0546 38.616 42.1169 38.9906 41.1394 39.3992L40.3551 39.7397C24.5504 46.6695 21.6861 69.6722 21.2087 75.4953H24.7038C25.8209 75.5648 26.8694 76.057 27.6358 76.8716C28.4022 77.6862 28.8288 78.7619 28.8288 79.8796C28.8288 80.9973 28.4022 82.073 27.6358 82.8876C26.8694 83.7022 25.8209 84.1943 24.7038 84.2639H21.311C21.8098 94.2165 24.0246 104.008 27.858 113.209C33.2595 126.822 43.0981 138.219 55.7848 145.559C55.8997 145.648 56.0028 145.751 56.0916 145.866L56.3644 146.053C62.3914 149.389 68.8519 151.876 75.562 153.442C99.1923 159.112 123.164 153.442 143.06 137.318C153.7 128.761 162.233 117.88 168.003 105.513C169.019 99.2375 169.469 92.884 169.35 86.5284C169.221 76.0385 165.339 65.9407 158.405 58.0602C155.285 54.5698 151.858 51.9136 148.704 51.9136C145.737 51.9136 143.742 52.5436 142.941 53.7184C142.704 54.1656 142.565 54.6578 142.532 55.1626C142.5 55.6674 142.575 56.1734 142.753 56.647C142.827 56.8365 142.857 57.0401 142.842 57.2429C142.827 57.4457 142.766 57.6424 142.665 57.8188C142.564 57.9951 142.424 58.1466 142.256 58.262C142.089 58.3774 141.897 58.4539 141.696 58.4858C138.936 58.8462 136.143 58.1396 133.888 56.5108C133.065 55.7533 132.421 54.8227 132.002 53.7862C131.583 52.7497 131.4 51.6332 131.467 50.5175C131.467 46.9079 134.28 43.7069 138.627 42.3448C145.191 40.3016 155.148 42.4469 163.673 54.5187C171.857 66.2669 172.641 83.072 172.027 94.2925C173.075 90.1879 173.574 85.9625 173.51 81.727C172.658 49.3767 151.67 32.6056 132.012 30.4773C115.168 32.0267 108.143 40.5059 108.74 47.7592C108.747 48.274 108.876 48.7798 109.116 49.2354C109.356 49.6911 109.7 50.0837 110.121 50.3812C112.354 51.9477 116.941 51.1815 118.424 50.7558C118.591 50.6971 118.767 50.6721 118.944 50.6823C119.12 50.6926 119.293 50.7379 119.452 50.8156C119.611 50.8933 119.752 51.0018 119.868 51.1348C119.985 51.2677 120.073 51.4226 120.129 51.5901C120.265 51.9136 123.13 59.7118 118.833 63.2703C116.943 64.7933 114.534 65.5201 112.116 65.2964C112.789 66.9694 112.903 68.8149 112.44 70.5576C112 71.5974 111.349 72.5351 110.529 73.3119C109.709 74.0886 108.737 74.6877 107.673 75.0714C106.61 75.4551 105.479 75.6152 104.351 75.5417C103.223 75.4681 102.123 75.1625 101.119 74.644C100.306 74.1404 99.6182 73.4593 99.1071 72.6519C98.3223 74.091 97.1383 75.2735 95.6972 76.0571C94.8067 76.4869 93.8305 76.7101 92.8415 76.7101C91.8524 76.7101 90.8762 76.4869 89.9857 76.0571C89.0611 75.7417 88.2226 75.216 87.5362 74.5217C86.8498 73.8273 86.3342 72.9832 86.0302 72.0559C85.6012 70.2865 85.7444 68.4268 86.4394 66.7437C84.2976 67.2301 82.0559 67.0152 80.0459 66.1307C79.1831 65.6846 78.4298 65.0533 77.8402 64.282C77.2507 63.5107 76.8394 62.6186 76.6361 61.6698C75.6984 57.958 77.9659 55.353 80.5233 53.8036C79.3566 53.1408 78.3463 52.2353 77.5608 51.1483C76.7754 50.0613 76.2333 48.8184 75.9711 47.5038C74.2662 40.0121 86.8316 35.9769 87.3771 35.8066C87.6363 35.7204 87.9158 35.716 88.1775 35.794C88.4393 35.872 88.6706 36.0286 88.8401 36.2426C89.0096 36.4565 89.109 36.7173 89.1249 36.9896C89.1407 37.262 89.0722 37.5326 88.9286 37.7647C88.5841 38.3338 88.3622 38.9685 88.2771 39.6281C88.192 40.2877 88.2455 40.9578 88.4342 41.5956C88.9116 42.5831 90.1391 43.2982 92.168 43.5366C94.8618 43.9282 98.4421 41.3232 102.602 38.2754C109.251 33.4059 118.39 26.7315 130.751 27.668C150.34 29.1493 171.669 44.3028 175.471 74.1161C177.176 73.7926 180.449 72.4135 181.489 66.7777C182.615 60.5971 176.852 53.1566 169.555 43.7409C167.032 40.4718 164.44 37.1176 161.763 33.3718C154.841 23.5646 155.387 14.7619 158.251 9.65398C159.429 7.51997 161.205 5.7758 163.362 4.63554C165.518 3.49529 167.961 3.00853 170.39 3.23502C182.649 4.23958 182.325 15.1535 182.325 15.1535C182.314 15.3549 182.258 15.5513 182.161 15.7285C182.065 15.9057 181.93 16.0594 181.767 16.1783C181.604 16.2972 181.416 16.3785 181.218 16.4162C181.02 16.4539 180.815 16.4472 180.62 16.3965C178.642 15.9399 176.564 16.2503 174.806 17.2648C173.717 18.0654 172.809 19.0852 172.139 20.2583C171.469 21.4314 171.054 22.7318 170.919 24.0754C169.998 29.0641 174.158 35.2788 178.574 41.868C183.689 49.3937 188.804 57.1918 188.173 65.1091C187.729 70.4725 185.956 74.4567 182.922 76.9255C180.972 78.4761 178.59 79.3861 176.102 79.5305C176.102 80.2116 176.102 80.8756 176.204 81.5737C176.174 90.1809 174.223 98.6732 170.493 106.432C170.503 106.523 170.503 106.614 170.493 106.705C164.584 119.436 155.836 130.647 144.919 139.481C134.097 148.408 121.197 154.469 107.41 157.103C113.782 156.419 120.066 155.084 126.164 153.119L127.716 152.608C161.491 141.285 193.032 111.745 195.146 95.5865C195.606 92.079 194.634 89.5761 192.162 87.9416C191.957 87.813 191.792 87.6303 191.685 87.4138C191.118 86.1721 190.811 84.8283 190.782 83.4641C190.752 82.1 191.002 80.7442 191.514 79.4795C192.844 76.5339 195.828 74.3715 200.346 73.2137C202.186 72.6201 204.172 72.6523 205.992 73.3055C207.812 73.9586 209.364 75.1957 210.405 76.8233C214.821 83.055 214.463 96.4889 207.046 106.705C190.952 128.652 164.082 145.116 127.119 155.656C126.403 155.894 125.687 156.081 124.988 156.286C141.189 154.424 157.008 150.088 171.891 143.431C184.764 137.35 196.883 129.791 208.001 120.905C220.601 111.37 231.478 103.146 251.971 98.8726C252.324 98.8031 252.689 98.87 252.994 99.0599C253.145 99.1614 253.274 99.292 253.374 99.4441C253.473 99.5961 253.541 99.7665 253.574 99.9453C253.926 101.954 253.892 104.011 253.472 106.007C260.291 103.589 276.522 99.8431 298.328 107.216C313.247 112.323 323.425 122.624 325.607 134.952C326.971 142.716 324.704 150.02 319.674 154.004ZM154.875 142.886C176.852 133.13 193.611 120.496 204.881 105.121C211.513 96.0462 212.042 83.7191 208.291 78.3217C207.569 77.1568 206.472 76.2714 205.181 75.8105C203.889 75.3496 202.479 75.3405 201.181 75.7847C197.465 76.7723 195.095 78.3727 194.106 80.5521C193.401 82.2647 193.401 84.1858 194.106 85.8984C195.639 87.0241 196.816 88.5664 197.496 90.3415C198.177 92.1166 198.331 94.0496 197.942 95.91C196.339 108.595 178.54 128.567 154.875 142.886ZM175.829 76.7723V76.9255C177.78 76.8162 179.649 76.1086 181.182 74.8993C183.603 72.8902 185.036 69.553 185.411 64.9729C185.99 57.9751 181.046 50.5856 176.272 43.4515C171.498 36.3174 167.083 29.7282 168.208 23.6667C168.399 21.941 168.954 20.2751 169.835 18.7785C170.717 17.282 171.905 15.9886 173.323 14.9832C175.16 13.8867 177.293 13.3869 179.426 13.553C179.017 11.1012 177.295 6.5211 170.152 5.94221C168.225 5.74763 166.284 6.12932 164.575 7.0388C162.865 7.94827 161.466 9.3445 160.553 11.0501C158.115 15.3578 157.74 23.0879 163.963 31.8735C166.588 35.5512 169.18 38.9054 171.686 42.0894C179.392 52.0328 185.479 59.899 184.115 67.2715C182.751 74.644 178.267 76.3466 175.829 76.7723ZM106.762 42.2596C106.882 41.9381 106.894 41.5869 106.799 41.2576C106.703 40.9283 106.504 40.6384 106.231 40.4305C105.958 40.2227 105.625 40.1079 105.282 40.1031C104.939 40.0982 104.603 40.2036 104.324 40.4037C99.4992 43.9282 95.6972 46.7206 91.9123 46.1587C88.9627 45.716 87.0191 44.5582 86.1325 42.7534C85.6438 41.6889 85.495 40.5 85.7063 39.3481C82.6033 40.7443 77.9318 43.4345 78.7331 46.8397C78.9342 48.2677 79.6224 49.5827 80.6815 50.5629C81.7407 51.543 83.1059 52.1284 84.547 52.2201C84.8817 52.2095 85.2084 52.3238 85.4634 52.5407C85.7183 52.7577 85.8831 53.0617 85.9257 53.3935C85.9683 53.7252 85.8856 54.061 85.6937 54.3351C85.5018 54.6093 85.2146 54.8022 84.8879 54.8762C84.6152 54.8762 78.2387 56.6981 79.3299 61.0228C79.4356 61.5975 79.6699 62.141 80.0153 62.6127C80.3607 63.0844 80.8083 63.4722 81.3246 63.747C83.541 64.8708 86.8998 64.0535 88.5365 63.4065C88.6988 63.3399 88.8725 63.3052 89.048 63.3043C89.2473 63.3035 89.4443 63.3475 89.6243 63.433C89.8043 63.5184 89.9628 63.6432 90.088 63.7981C90.2817 64.0397 90.3872 64.3399 90.3872 64.6494C90.3872 64.9589 90.2817 65.2592 90.088 65.5007C89.4572 66.4202 87.9568 69.2976 88.6047 71.3749C88.792 71.9165 89.104 72.4067 89.5156 72.8059C89.9272 73.2051 90.4269 73.5023 90.9745 73.6734C91.5079 73.9239 92.0901 74.0538 92.6795 74.0538C93.2689 74.0538 93.851 73.9239 94.3844 73.6734C96.8054 72.4475 97.7943 68.5655 97.7943 68.5655C97.8146 68.1952 97.9814 67.8482 98.258 67.6007C98.5346 67.3532 98.8983 67.2256 99.269 67.246C99.6398 67.2663 99.9873 67.4329 100.235 67.7091C100.483 67.9853 100.611 68.3485 100.59 68.7187C100.73 70.1529 101.42 71.4773 102.517 72.4135C103.094 72.7379 103.738 72.9278 104.399 72.9691C105.06 73.0104 105.723 72.9019 106.336 72.6519C107.101 72.5177 107.819 72.1864 108.417 71.6907C109.015 71.195 109.473 70.5521 109.746 69.8255C109.923 68.8669 109.896 67.8819 109.667 66.9344C109.438 65.9869 109.012 65.0981 108.416 64.3259C108.222 64.0843 108.117 63.7841 108.117 63.4746C108.117 63.1651 108.222 62.8649 108.416 62.6233C108.587 62.3802 108.834 62.2012 109.118 62.1148C109.402 62.0284 109.707 62.0396 109.985 62.1465C111.155 62.5487 112.403 62.6704 113.63 62.5018C114.856 62.3332 116.025 61.8791 117.043 61.176C119.106 59.4734 118.39 55.5403 117.878 53.6163C115.73 54.0249 111.383 54.5016 108.604 52.5606C107.854 52.0372 107.236 51.349 106.795 50.549C106.355 49.7489 106.104 48.8585 106.063 47.9465C105.89 46.0228 106.128 44.0843 106.762 42.2596ZM164.321 61.1931C163.493 59.409 162.512 57.7 161.388 56.0851C153.801 45.2222 145.089 43.2301 139.446 45.0009C136.292 45.9884 134.16 48.2359 134.16 50.6026C134.103 51.3232 134.208 52.0475 134.467 52.7223C134.727 53.397 135.135 54.0051 135.661 54.5016C136.857 55.3903 138.313 55.8628 139.804 55.8467C139.672 54.582 139.972 53.3098 140.656 52.2371C141.986 50.245 144.68 49.2235 148.669 49.2064C154.466 49.2064 160.263 55.387 164.321 61.1931ZM195.964 151.689C205.188 149.424 213.798 147.04 221.675 144.878C244.35 138.544 260.735 133.981 268.236 139.634C269.998 140.898 271.397 142.6 272.294 144.572C273.191 146.543 273.556 148.715 273.351 150.871C278.909 149.169 281.876 145.849 280.989 141.728C280.017 136.859 273.436 131.07 261.928 131.07C259.329 131.08 256.736 131.343 254.188 131.853C243.31 133.998 234.257 137.574 223.789 141.694C215.929 144.759 207.115 148.232 195.964 151.689ZM309.291 115.61C305.648 113.127 301.677 111.161 297.493 109.77C269.873 100.439 251.289 109.77 251.102 109.906C250.809 110.046 250.476 110.077 250.163 109.991C249.85 109.906 249.579 109.711 249.398 109.442C249.218 109.173 249.141 108.847 249.181 108.526C249.222 108.205 249.377 107.909 249.618 107.692C251.085 106.449 251.323 103.691 251.119 101.818C232.143 106.041 221.641 113.941 209.706 123.05C198.421 132.066 186.111 139.724 173.033 145.866L170.578 146.972C184.601 143.18 198.265 138.166 211.411 131.989C242.935 116.716 293.111 109.991 309.291 115.61ZM322.931 135.411C322.393 132.422 321.355 129.544 319.862 126.898C320.642 129.144 321.045 131.502 321.055 133.879C321.073 135.743 320.646 137.585 319.81 139.252C318.974 140.918 317.753 142.363 316.247 143.465C314.448 145.058 312.107 145.904 309.704 145.828C307.301 145.752 305.018 144.76 303.324 143.056C302.425 144.34 302.012 145.9 302.159 147.46C302.306 149.019 303.003 150.476 304.125 151.569C306.989 154.77 312.547 156.269 317.969 151.961C322.232 148.522 324.158 142.205 322.965 135.411H322.931Z" fill="#CEAF7E"/>
<path d="M227.387 88.1289C219.237 104.27 201.421 118.061 201.25 118.198C201.109 118.305 200.99 118.439 200.9 118.592C200.811 118.745 200.753 118.914 200.729 119.09C200.705 119.265 200.716 119.444 200.762 119.615C200.808 119.786 200.887 119.947 200.994 120.088C201.216 120.366 201.538 120.548 201.892 120.592C202.246 120.637 202.603 120.541 202.887 120.326C203.637 119.747 221.368 106.024 229.808 89.3208C229.968 89.0002 229.995 88.629 229.881 88.2889C229.768 87.9489 229.524 87.6678 229.203 87.5074C228.881 87.3471 228.51 87.3208 228.169 87.4341C227.829 87.5475 227.547 87.7913 227.387 88.1119V88.1289Z" fill="#CEAF7E"/>
<path d="M228.564 84.3149C228.821 84.5633 229.167 84.6992 229.525 84.6929C229.884 84.6865 230.224 84.5383 230.473 84.2809C230.722 84.0235 230.858 83.678 230.852 83.3204C230.845 82.9627 230.697 82.6223 230.439 82.3739C227.621 79.437 225.869 75.643 225.461 71.5962C225.437 71.2784 225.513 70.9612 225.68 70.6896C225.847 70.4179 226.096 70.2058 226.39 70.0832C226.685 69.9606 227.01 69.9339 227.321 70.0069C227.632 70.0798 227.911 70.2487 228.12 70.4895C230.241 73.0992 231.797 76.1197 232.689 79.3602C232.751 79.5785 232.866 79.7782 233.024 79.9415C233.181 80.1049 233.377 80.2269 233.593 80.2967C233.808 80.3611 234.036 80.3715 234.256 80.327C234.476 80.2824 234.682 80.1843 234.855 80.0413C234.855 80.0413 238.401 77.2149 243.84 80.1775L244.948 80.7564C245.156 80.8602 245.328 81.0241 245.441 81.2267C245.555 81.4294 245.605 81.6614 245.585 81.8928C245.564 82.1241 245.475 82.344 245.328 82.5239C245.181 82.7039 244.983 82.8355 244.76 82.9017C241.469 83.8694 238.047 84.3232 234.616 84.2468C234.259 84.2468 233.916 84.3885 233.664 84.6408C233.411 84.8931 233.269 85.2352 233.269 85.5919C233.269 85.9487 233.411 86.2908 233.664 86.543C233.916 86.7953 234.259 86.937 234.616 86.937H235.145C245.92 86.937 251.324 83.0209 252.757 81.8291C252.958 81.6801 253.136 81.5023 253.285 81.3013C253.488 81.0237 253.576 80.6791 253.533 80.3383C253.489 79.9975 253.317 79.6863 253.051 79.4685C252.785 79.2508 252.445 79.1429 252.102 79.1671C251.759 79.1913 251.438 79.3457 251.205 79.5986C251.018 79.7008 249.5 80.1945 245.204 77.896C243.837 77.0608 242.312 76.5177 240.724 76.3008C239.137 76.0839 237.521 76.1981 235.98 76.636C235.677 76.7378 235.346 76.7206 235.054 76.5878C234.763 76.455 234.533 76.2166 234.411 75.9209C232.698 71.2577 229.569 67.2456 225.461 64.4451C225.283 64.3373 225.083 64.2719 224.876 64.2542C224.669 64.2365 224.46 64.2668 224.267 64.3429C224.075 64.425 223.904 64.5484 223.765 64.7045C223.627 64.8605 223.524 65.0452 223.466 65.2453C222.619 68.5944 222.643 72.104 223.535 75.4413C224.427 78.7786 226.158 81.8331 228.564 84.3149Z" fill="#CEAF7E"/>
<path d="M236.389 69.4169C237.14 70.762 236.236 72.72 237.736 73.6224C239.237 74.5248 239.441 73.0095 243.431 73.1627C247.42 73.316 248.239 73.9119 250.779 70.3193C253.319 66.7267 248.392 61.9423 248.392 59.3883C248.392 56.8344 250.779 55.0466 249.432 54.2804C248.085 53.5142 244.488 57.6857 242.237 57.6857C239.987 57.6857 231.752 57.6857 231.752 62.1636C231.752 66.6416 235.639 68.0718 236.389 69.4169Z" fill="#CEAF7E"/>
<path d="M102.876 46.0054C101.853 45.4435 99.0396 51.1134 96.6356 52.4755C94.2317 53.8376 91.0605 51.522 89.7136 52.9692C88.3667 54.4165 90.0034 60.9376 95.1694 63.3043C100.335 65.671 105.399 62.3508 105.399 60.6141C105.399 58.8774 103.694 59.3201 102.313 54.9443C100.932 50.5685 103.626 46.4311 102.876 46.0054Z" fill="#CEAF7E"/>
<path d="M72.6306 66.2159C73.9263 65.3305 72.8352 60.0013 71.8463 59.4053C70.8575 58.8094 63.083 60.3929 57.5078 57.3281C51.9327 54.2633 55.5472 48.8149 51.9327 48.2871C48.3183 47.7592 39.9982 55.4211 39.4015 60.8015C38.8047 66.1819 46.1019 71.0174 53.1773 71.1876C60.2528 71.3579 71.3348 67.1183 72.6306 66.2159Z" fill="#CEAF7E"/>
<path d="M75.546 69.7914C74.1991 69.7914 70.4312 77.7257 57.6442 80.0073C44.8572 82.2888 39.8788 75.9209 37.4066 76.1423C34.9345 76.3636 33.8774 81.5397 33.8092 85.5068C33.741 89.474 34.9345 99.128 47.8238 98.6002C60.713 98.0723 78.325 74.8142 78.4273 73.9118C78.5296 73.0094 78.6489 69.7914 75.546 69.7914Z" fill="#CEAF7E"/>
<path d="M81.5477 76.9935C79.2972 76.9425 78.2572 89.6783 64.7882 99.3663C51.3193 109.054 45.1474 100.405 41.1067 102.772C37.0661 105.138 40.0667 129.571 59.2472 122.982C78.4277 116.393 84.8212 81.6588 85.0258 79.9902C85.2304 78.3216 82.9117 77.0276 81.5477 76.9935Z" fill="#CEAF7E"/>
<path d="M62.2469 133.641C61.3944 135.445 74.3519 149.22 88.895 142.154C103.438 135.088 95.476 83.2083 94.8622 81.6929C94.5383 80.7735 93.1573 80.9437 92.1855 81.4035C91.2137 81.8632 88.895 92.9304 85.7408 104.747C82.5867 116.563 63.0823 131.853 62.2469 133.641Z" fill="#CEAF7E"/>
<path d="M101.784 79.5987C100.284 80.5011 106.285 95.4673 105.978 109.242C105.671 123.016 101.034 136.331 105.467 140.383C109.9 144.435 125.619 143.38 127.409 131.257C129.199 119.134 103.455 78.5941 101.784 79.5987Z" fill="#CEAF7E"/>
<path d="M113.02 76.9936C110.327 76.3125 110.48 78.2535 110.02 78.8495C109.116 80.0583 130.718 120.462 143.453 121.824C156.189 123.186 156.496 99.809 155.149 97.5615C153.802 95.314 149.898 99.9623 138.663 96.8124C127.427 93.6625 115.731 77.7598 113.02 76.9936Z" fill="#CEAF7E"/>
<path d="M161.441 83.6509C160.537 78.8495 155.746 67.3566 152.149 64.1216C148.551 60.8866 146.761 72.6348 134.605 73.1627C122.449 73.6905 118.868 67.5439 117.078 70.7619C115.476 73.6734 131.161 86.4944 144.8 88.7419C158.44 90.9893 162.344 88.4354 161.441 83.6509Z" fill="#CEAF7E"/>
<path d="M125.859 3.77989C124.273 1.87292 125.961 -0.93644 127.99 0.374596C130.019 1.68563 135.526 -0.527809 139.686 1.277C143.846 3.0818 145.858 10.4713 146.199 13.519C146.54 16.5667 164.51 34.3934 162.737 35.1937C161.27 35.8577 147.665 19.5804 143.727 17.8948C139.788 16.2092 133.275 17.5543 130.087 15.0854C126.899 12.6166 127.427 5.70387 125.859 3.77989ZM138.561 12.7017C141.817 11.1523 139.345 6.3679 137.435 4.80147C135.526 3.23504 130.121 4.68228 128.911 4.23959C127.7 3.79691 129.678 16.8902 138.561 12.7017Z" fill="#CEAF7E"/>
</g>
<g clip-path="url(#clip1_889_10)">
<path d="M1427.28 71.8687C1427.16 71.659 1427.1 71.4212 1427.1 71.1791C1427.1 70.937 1427.16 70.6992 1427.28 70.4895C1427.4 70.3533 1435.67 57.3281 1432.84 45.4096C1430.01 33.4911 1415.31 24.3989 1415.16 24.3138C1414.9 24.1631 1414.71 23.9326 1414.59 23.6579C1414.48 23.3832 1414.47 23.0798 1414.55 22.7946C1414.63 22.5094 1414.8 22.2584 1415.04 22.0806C1415.27 21.9027 1415.56 21.8079 1415.86 21.8109H1438.65C1438.83 21.8109 1439.01 21.8463 1439.17 21.9149C1439.34 21.9836 1439.49 22.0842 1439.61 22.2109C1439.74 22.3376 1439.84 22.4879 1439.9 22.6531C1439.97 22.8182 1440 22.995 1440 23.173V71.2217C1440 71.5784 1439.86 71.9205 1439.61 72.1728C1439.35 72.4251 1439.01 72.5668 1438.65 72.5668H1428.42C1428.19 72.5617 1427.96 72.4944 1427.76 72.3718C1427.56 72.2492 1427.39 72.0756 1427.28 71.8687Z" fill="#CEAF7E"/>
<path d="M1438.57 19.5634C1438.36 19.5634 1418.26 18.2523 1411.6 19.4101C1410.43 19.4776 1409.3 19.8772 1408.35 20.562C1407.41 21.2468 1406.67 22.1882 1406.24 23.2751C1406.05 23.861 1405.73 24.3957 1405.3 24.8384C1404.87 25.2811 1404.35 25.62 1403.77 25.8291C1403.49 25.9069 1403.19 25.9414 1402.9 25.9313C1401.76 25.8354 1400.65 25.4784 1399.67 24.8879C1398.69 24.2974 1397.86 23.4892 1397.24 22.526C1396.47 21.3491 1396.13 19.9454 1396.27 18.5482C1396.42 17.1511 1397.04 15.8449 1398.02 14.8471C1402.59 9.10914 1432.77 11.4418 1438.77 11.8674C1439.12 11.8978 1439.44 12.0623 1439.67 12.326C1439.9 12.5897 1440.02 12.932 1440 13.2806V18.1672C1440 18.3522 1439.96 18.5354 1439.89 18.7054C1439.82 18.8753 1439.71 19.0283 1439.57 19.1547C1439.45 19.2915 1439.29 19.3988 1439.12 19.4694C1438.94 19.5399 1438.76 19.572 1438.57 19.5634Z" fill="#CEAF7E"/>
<path d="M1440 1.36209C1440 1.00535 1439.86 0.663231 1439.61 0.410976C1439.35 0.158724 1439.01 0.0169983 1438.65 0.0169983H1355.45C1333.94 0.0169983 1331.41 9.68803 1331.33 13.8595C1331.29 14.7592 1331.44 15.657 1331.77 16.4956C1332.1 17.3341 1332.6 18.0948 1333.24 18.7291C1336.65 22.1344 1343.62 22.2706 1343.91 22.2706C1344.11 22.2702 1344.31 22.2257 1344.49 22.1403C1344.67 22.0549 1344.82 21.9308 1344.95 21.7768C1345.08 21.6275 1345.17 21.4525 1345.22 21.2642C1345.27 21.0759 1345.27 20.8789 1345.24 20.6871C1345.24 20.2955 1343.77 11.1012 1356.97 8.00241C1364.83 6.41945 1372.82 5.5645 1380.84 5.44844C1371.21 8.03646 1364.8 11.4588 1362.08 15.6643C1361.42 16.6083 1360.97 17.6848 1360.77 18.8195C1360.56 19.9542 1360.6 21.1201 1360.89 22.2365C1362.03 26.5953 1366.52 27.6339 1370.49 27.6339C1372.79 27.6181 1375.08 27.3382 1377.31 26.7996C1377.64 26.7147 1377.93 26.5048 1378.12 26.2134C1378.3 25.9219 1378.37 25.5711 1378.3 25.2332C1378.3 25.2332 1377.6 20.3977 1384.64 13.9106C1390.56 8.24078 1425.61 8.73455 1438.59 9.39858C1438.94 9.41261 1439.29 9.28683 1439.55 9.04816C1439.82 8.80949 1439.98 8.4769 1440 8.1216C1440.01 7.9449 1439.98 7.76814 1439.92 7.60143C1439.86 7.43472 1439.77 7.28132 1439.65 7.15005C1439.54 7.01877 1439.39 6.91219 1439.23 6.8364C1439.07 6.76062 1438.9 6.71712 1438.72 6.7084C1433.83 6.453 1390.71 4.49496 1382.71 11.8163C1376.68 17.384 1375.62 22.0322 1375.5 24.2967C1372.62 24.8416 1364.68 25.8972 1363.57 21.4363C1363.37 20.6842 1363.35 19.8981 1363.5 19.1353C1363.64 18.3724 1363.96 17.652 1364.42 17.0264C1366.33 14.0979 1372.79 8.71753 1394.44 5.36332H1438.65C1439.01 5.36332 1439.35 5.22159 1439.61 4.96934C1439.86 4.71708 1440 4.37497 1440 4.01823V1.36209ZM1362.03 2.70718C1362.65 2.9796 1364.13 3.5585 1356.34 5.38033C1344.17 8.24078 1342.58 16.0559 1342.5 19.4953C1340.53 19.308 1337.01 18.7291 1335.15 16.8391C1334.76 16.4573 1334.47 15.9992 1334.27 15.4946C1334.08 14.99 1333.99 14.4503 1334.02 13.9106C1334.18 6.79353 1341.98 2.70718 1355.45 2.70718C1357.64 2.56173 1359.84 2.56173 1362.03 2.70718Z" fill="#CEAF7E"/>
<path d="M1411.02 140.026C1411.23 139.939 1411.46 139.91 1411.68 139.94C1413.53 140.167 1415.41 139.978 1417.18 139.389C1418.95 138.8 1420.57 137.825 1421.91 136.535C1428.9 130.355 1432.48 117.091 1432.4 107.199C1432.29 93.5774 1427.45 90.785 1427.44 90.785C1427.18 90.6375 1426.99 90.4129 1426.88 90.1449C1426.76 89.8768 1426.74 89.5796 1426.81 89.2979C1426.88 89.0161 1427.04 88.7649 1427.27 88.5818C1427.5 88.3987 1427.78 88.2936 1428.07 88.2822H1436.59C1436.77 88.2822 1436.94 88.3169 1437.11 88.3845C1437.27 88.4521 1437.42 88.5512 1437.54 88.6761C1437.67 88.801 1437.77 88.9493 1437.83 89.1125C1437.9 89.2757 1437.94 89.4506 1437.94 89.6272C1437.94 89.8039 1437.9 89.9788 1437.83 90.142C1437.77 90.3052 1437.67 90.4535 1437.54 90.5784C1437.42 90.7033 1437.27 90.8023 1437.11 90.8699C1436.94 90.9375 1436.77 90.9723 1436.59 90.9723H1431.48C1433.18 93.4922 1435.23 98.3107 1435.28 107.25C1435.28 117.465 1431.87 131.597 1423.89 138.612C1422.31 140.105 1420.42 141.24 1418.36 141.94C1416.3 142.639 1414.12 142.886 1411.95 142.665C1411.43 142.957 1411.02 143.428 1410.81 143.993C1410.68 144.603 1410.67 145.234 1410.78 145.848C1410.89 146.462 1411.13 147.047 1411.48 147.568C1411.95 148.335 1412.61 148.968 1413.4 149.407C1414.19 149.845 1415.08 150.074 1415.98 150.071C1419.01 150.173 1423.56 148.368 1427.32 143.107C1430.37 138.985 1433.03 134.591 1435.28 129.98C1435.4 129.694 1435.62 129.46 1435.9 129.317C1436.17 129.175 1436.49 129.132 1436.8 129.197C1437.1 129.263 1437.38 129.433 1437.57 129.678C1437.77 129.924 1437.87 130.228 1437.87 130.542V139.464C1437.86 140.041 1437.7 140.607 1437.4 141.101C1437.1 141.595 1436.67 141.999 1436.16 142.273C1435.21 142.818 1433.32 144.418 1431.41 148.981C1429.5 153.545 1432.87 157.188 1435.02 158.976C1435.56 159.418 1435.98 159.973 1436.28 160.6C1436.57 161.226 1436.73 161.91 1436.73 162.603V166.655C1436.73 167.012 1436.59 167.354 1436.33 167.606C1436.08 167.858 1435.74 168 1435.38 168C1435.02 168 1434.68 167.858 1434.43 167.606C1434.18 167.354 1434.03 167.012 1434.03 166.655V162.603C1434.03 162.303 1433.96 162.007 1433.83 161.737C1433.7 161.466 1433.51 161.227 1433.28 161.036C1431.12 159.231 1426.36 154.379 1428.97 147.943C1431.07 142.92 1433.33 140.758 1434.89 139.94C1434.97 139.892 1435.04 139.823 1435.09 139.739C1435.13 139.655 1435.16 139.56 1435.16 139.464V135.939C1433.88 138.153 1432.04 141.047 1429.52 144.64C1425.85 149.748 1420.63 152.949 1415.88 152.744C1414.52 152.738 1413.19 152.385 1412.02 151.716C1410.84 151.048 1409.86 150.089 1409.16 148.93C1408.56 148.097 1408.16 147.143 1407.98 146.137C1407.8 145.13 1407.84 144.096 1408.1 143.107C1408.35 142.423 1408.74 141.796 1409.24 141.267C1409.74 140.737 1410.35 140.314 1411.02 140.026Z" fill="#CEAF7E"/>
<path d="M1120.33 154.004C1126.8 159.112 1134.05 157.546 1137.85 153.289C1138.71 152.412 1139.39 151.373 1139.84 150.232C1140.3 149.092 1140.52 147.872 1140.5 146.645C1140.48 145.418 1140.22 144.207 1139.72 143.082C1139.23 141.958 1138.52 140.942 1137.63 140.094C1137.49 139.959 1137.32 139.856 1137.14 139.788C1136.96 139.721 1136.77 139.691 1136.57 139.702C1136.38 139.72 1136.19 139.78 1136.02 139.877C1135.85 139.973 1135.7 140.105 1135.59 140.264C1134.41 141.724 1132.75 142.725 1130.91 143.09C1129.92 143.192 1128.91 143.094 1127.95 142.802C1127 142.51 1126.11 142.029 1125.34 141.388C1124.16 140.542 1123.21 139.423 1122.56 138.126C1121.91 136.83 1121.59 135.395 1121.62 133.947C1121.62 129.129 1125.03 123.816 1130.5 119.713C1139.95 112.749 1192.43 117.483 1227.43 134.441C1268.42 154.26 1321.73 160.321 1322.26 160.372H1322.36C1322.57 160.374 1322.78 160.325 1322.96 160.23C1323.15 160.135 1323.31 159.997 1323.43 159.827C1329.26 160.282 1335.1 160.441 1340.94 160.304C1321.99 162.707 1302.77 162.103 1284 158.516C1261.07 154.543 1238.65 148.05 1217.15 139.157C1206.56 134.986 1197.41 131.376 1186.27 129.18C1169.89 125.945 1157.97 132.891 1156.32 141.098C1155.4 145.746 1157.92 151.876 1168.06 153.902C1168.3 153.951 1168.54 153.938 1168.76 153.863C1168.99 153.788 1169.19 153.655 1169.34 153.476C1169.5 153.299 1169.61 153.082 1169.66 152.848C1169.7 152.614 1169.68 152.372 1169.6 152.148C1169.06 150.234 1169.12 148.199 1169.79 146.325C1170.46 144.452 1171.7 142.833 1173.33 141.694C1179.78 136.842 1196.43 141.473 1217.54 147.364C1238.65 153.255 1264.75 160.525 1293.97 162.688C1302.45 163.816 1310.99 164.385 1319.55 164.39C1351.51 164.51 1369.11 155.894 1370.1 155.417L1370.29 155.298C1375.61 153.521 1380.7 151.103 1385.44 148.096L1385.56 147.994C1398.7 140.288 1408.94 128.477 1414.68 114.384C1418.65 104.861 1420.92 94.7199 1421.4 84.4171H1436.91C1437.25 84.3797 1437.56 84.221 1437.78 83.9713C1438 83.7216 1438.13 83.3985 1438.13 83.0635C1438.13 82.7286 1438 82.4054 1437.78 82.1557C1437.56 81.906 1437.25 81.7473 1436.91 81.7099H1415.43C1414.98 81.7099 1414.55 81.5305 1414.23 81.2112C1413.91 80.8919 1413.73 80.4589 1413.73 80.0073C1413.73 79.5557 1413.91 79.1226 1414.23 78.8033C1414.55 78.484 1414.98 78.3046 1415.43 78.3046H1437.09C1437.42 78.2673 1437.73 78.1085 1437.95 77.8588C1438.17 77.6091 1438.3 77.286 1438.3 76.951C1438.3 76.6161 1438.17 76.2929 1437.95 76.0432C1437.73 75.7935 1437.42 75.6348 1437.09 75.5974H1421.64C1421.25 69.6552 1418.42 45.069 1400.79 37.356L1400 37.0155C1398.98 36.4513 1397.89 36.0112 1396.76 35.7045C1379.59 29.3025 1370.2 33.3378 1368.65 35.7045C1368.23 36.3886 1368.02 37.1829 1368.05 37.9864C1368.08 38.7898 1368.35 39.5661 1368.82 40.2165C1369.54 41.2551 1371.79 43.6218 1377.24 42.3959C1379.28 41.9102 1381.27 41.2494 1383.19 40.4208C1387.35 38.8033 1391.72 37.1176 1396.05 38.2754C1396.95 38.616 1397.88 38.9906 1398.86 39.3992L1399.64 39.7397C1415.45 46.6695 1418.31 69.6722 1418.79 75.4953H1415.3C1414.18 75.5648 1413.13 76.057 1412.36 76.8716C1411.6 77.6862 1411.17 78.7619 1411.17 79.8796C1411.17 80.9973 1411.6 82.073 1412.36 82.8876C1413.13 83.7022 1414.18 84.1943 1415.3 84.2639H1418.69C1418.19 94.2165 1415.98 104.008 1412.14 113.209C1406.74 126.822 1396.9 138.219 1384.22 145.559C1384.1 145.648 1384 145.751 1383.91 145.866L1383.64 146.053C1377.61 149.389 1371.15 151.876 1364.44 153.442C1340.81 159.112 1316.84 153.442 1296.94 137.318C1286.3 128.761 1277.77 117.88 1272 105.513C1270.98 99.2375 1270.53 92.884 1270.65 86.5284C1270.78 76.0385 1274.66 65.9407 1281.6 58.0602C1284.72 54.5698 1288.14 51.9136 1291.3 51.9136C1294.26 51.9136 1296.26 52.5436 1297.06 53.7184C1297.3 54.1656 1297.44 54.6578 1297.47 55.1626C1297.5 55.6674 1297.42 56.1734 1297.25 56.647C1297.17 56.8365 1297.14 57.0401 1297.16 57.2429C1297.17 57.4457 1297.23 57.6424 1297.34 57.8188C1297.44 57.9951 1297.58 58.1466 1297.74 58.262C1297.91 58.3774 1298.1 58.4539 1298.3 58.4858C1301.06 58.8462 1303.86 58.1396 1306.11 56.5108C1306.94 55.7533 1307.58 54.8227 1308 53.7862C1308.42 52.7497 1308.6 51.6332 1308.53 50.5175C1308.53 46.9079 1305.72 43.7069 1301.37 42.3448C1294.81 40.3016 1284.85 42.4469 1276.33 54.5187C1268.14 66.2669 1267.36 83.072 1267.97 94.2925C1266.92 90.1879 1266.43 85.9625 1266.49 81.727C1267.34 49.3767 1288.33 32.6056 1307.99 30.4773C1324.83 32.0267 1331.86 40.5059 1331.26 47.7592C1331.25 48.274 1331.12 48.7798 1330.88 49.2354C1330.64 49.6911 1330.3 50.0837 1329.88 50.3812C1327.65 51.9477 1323.06 51.1815 1321.58 50.7558C1321.41 50.6971 1321.23 50.6721 1321.06 50.6823C1320.88 50.6926 1320.71 50.7379 1320.55 50.8156C1320.39 50.8933 1320.25 51.0018 1320.13 51.1348C1320.02 51.2677 1319.93 51.4226 1319.87 51.5901C1319.73 51.9136 1316.87 59.7118 1321.17 63.2703C1323.06 64.7933 1325.47 65.5201 1327.88 65.2964C1327.21 66.9694 1327.1 68.8149 1327.56 70.5576C1328 71.5974 1328.65 72.5351 1329.47 73.3119C1330.29 74.0886 1331.26 74.6877 1332.33 75.0714C1333.39 75.4551 1334.52 75.6152 1335.65 75.5417C1336.78 75.4681 1337.88 75.1625 1338.88 74.644C1339.69 74.1404 1340.38 73.4593 1340.89 72.6519C1341.68 74.091 1342.86 75.2735 1344.3 76.0571C1345.19 76.4869 1346.17 76.7101 1347.16 76.7101C1348.15 76.7101 1349.12 76.4869 1350.01 76.0571C1350.94 75.7417 1351.78 75.216 1352.46 74.5217C1353.15 73.8273 1353.67 72.9832 1353.97 72.0559C1354.4 70.2865 1354.26 68.4268 1353.56 66.7437C1355.7 67.2301 1357.94 67.0152 1359.95 66.1307C1360.82 65.6846 1361.57 65.0533 1362.16 64.282C1362.75 63.5107 1363.16 62.6186 1363.36 61.6698C1364.3 57.958 1362.03 55.353 1359.48 53.8036C1360.64 53.1408 1361.65 52.2353 1362.44 51.1483C1363.22 50.0613 1363.77 48.8184 1364.03 47.5038C1365.73 40.0121 1353.17 35.9769 1352.62 35.8066C1352.36 35.7204 1352.08 35.716 1351.82 35.794C1351.56 35.872 1351.33 36.0286 1351.16 36.2426C1350.99 36.4565 1350.89 36.7173 1350.88 36.9896C1350.86 37.262 1350.93 37.5326 1351.07 37.7647C1351.42 38.3338 1351.64 38.9685 1351.72 39.6281C1351.81 40.2877 1351.75 40.9578 1351.57 41.5956C1351.09 42.5831 1349.86 43.2982 1347.83 43.5366C1345.14 43.9282 1341.56 41.3232 1337.4 38.2754C1330.75 33.4059 1321.61 26.7315 1309.25 27.668C1289.66 29.1493 1268.33 44.3028 1264.53 74.1161C1262.82 73.7926 1259.55 72.4135 1258.51 66.7777C1257.39 60.5971 1263.15 53.1566 1270.45 43.7409C1272.97 40.4718 1275.56 37.1176 1278.24 33.3718C1285.16 23.5646 1284.61 14.7619 1281.75 9.65398C1280.57 7.51997 1278.79 5.7758 1276.64 4.63554C1274.48 3.49529 1272.04 3.00853 1269.61 3.23502C1257.35 4.23958 1257.68 15.1535 1257.68 15.1535C1257.69 15.3549 1257.74 15.5513 1257.84 15.7285C1257.94 15.9057 1258.07 16.0594 1258.23 16.1783C1258.4 16.2972 1258.58 16.3785 1258.78 16.4162C1258.98 16.4539 1259.18 16.4472 1259.38 16.3965C1261.36 15.9399 1263.44 16.2503 1265.19 17.2648C1266.28 18.0654 1267.19 19.0852 1267.86 20.2583C1268.53 21.4314 1268.95 22.7318 1269.08 24.0754C1270 29.0641 1265.84 35.2788 1261.43 41.868C1256.31 49.3937 1251.2 57.1918 1251.83 65.1091C1252.27 70.4725 1254.04 74.4567 1257.08 76.9255C1259.03 78.4761 1261.41 79.3861 1263.9 79.5305C1263.9 80.2116 1263.9 80.8756 1263.8 81.5737C1263.83 90.1809 1265.78 98.6732 1269.51 106.432C1269.5 106.523 1269.5 106.614 1269.51 106.705C1275.42 119.436 1284.16 130.647 1295.08 139.481C1305.9 148.408 1318.8 154.469 1332.59 157.103C1326.22 156.419 1319.93 155.084 1313.84 153.119L1312.28 152.608C1278.51 141.285 1246.97 111.745 1244.85 95.5865C1244.39 92.079 1245.37 89.5761 1247.84 87.9416C1248.04 87.813 1248.21 87.6303 1248.32 87.4138C1248.88 86.1721 1249.19 84.8283 1249.22 83.4641C1249.25 82.1 1249 80.7442 1248.49 79.4795C1247.16 76.5339 1244.17 74.3715 1239.65 73.2137C1237.81 72.6201 1235.83 72.6523 1234.01 73.3055C1232.19 73.9586 1230.64 75.1957 1229.59 76.8233C1225.18 83.055 1225.54 96.4889 1232.95 106.705C1249.05 128.652 1275.92 145.116 1312.88 155.656C1313.6 155.894 1314.31 156.081 1315.01 156.286C1298.81 154.424 1282.99 150.088 1268.11 143.431C1255.24 137.35 1243.12 129.791 1232 120.905C1219.4 111.37 1208.52 103.146 1188.03 98.8726C1187.68 98.8031 1187.31 98.87 1187.01 99.0599C1186.85 99.1614 1186.73 99.292 1186.63 99.4441C1186.53 99.5961 1186.46 99.7665 1186.43 99.9453C1186.07 101.954 1186.11 104.011 1186.53 106.007C1179.71 103.589 1163.48 99.8431 1141.67 107.216C1126.75 112.323 1116.58 122.624 1114.39 134.952C1113.03 142.716 1115.3 150.02 1120.33 154.004ZM1285.12 142.886C1263.15 133.13 1246.39 120.496 1235.12 105.121C1228.49 96.0462 1227.96 83.7191 1231.71 78.3217C1232.43 77.1568 1233.53 76.2714 1234.82 75.8105C1236.11 75.3496 1237.52 75.3405 1238.82 75.7847C1242.54 76.7723 1244.91 78.3727 1245.89 80.5521C1246.6 82.2647 1246.6 84.1858 1245.89 85.8984C1244.36 87.0241 1243.18 88.5664 1242.5 90.3415C1241.82 92.1166 1241.67 94.0496 1242.06 95.91C1243.66 108.595 1261.46 128.567 1285.12 142.886ZM1264.17 76.7723V76.9255C1262.22 76.8162 1260.35 76.1086 1258.82 74.8993C1256.4 72.8902 1254.96 69.553 1254.59 64.9729C1254.01 57.9751 1258.95 50.5856 1263.73 43.4515C1268.5 36.3174 1272.92 29.7282 1271.79 23.6667C1271.6 21.941 1271.05 20.2751 1270.16 18.7785C1269.28 17.282 1268.09 15.9886 1266.68 14.9832C1264.84 13.8867 1262.71 13.3869 1260.57 13.553C1260.98 11.1012 1262.7 6.5211 1269.85 5.94221C1271.78 5.74763 1273.72 6.12932 1275.43 7.0388C1277.13 7.94827 1278.53 9.3445 1279.45 11.0501C1281.89 15.3578 1282.26 23.0879 1276.04 31.8735C1273.41 35.5512 1270.82 38.9054 1268.31 42.0894C1260.61 52.0328 1254.52 59.899 1255.89 67.2715C1257.25 74.644 1261.73 76.3466 1264.17 76.7723ZM1333.24 42.2596C1333.12 41.9381 1333.11 41.5869 1333.2 41.2576C1333.3 40.9283 1333.5 40.6384 1333.77 40.4305C1334.04 40.2227 1334.37 40.1079 1334.72 40.1031C1335.06 40.0982 1335.4 40.2036 1335.68 40.4037C1340.5 43.9282 1344.3 46.7206 1348.09 46.1587C1351.04 45.716 1352.98 44.5582 1353.87 42.7534C1354.36 41.6889 1354.51 40.5 1354.29 39.3481C1357.4 40.7443 1362.07 43.4345 1361.27 46.8397C1361.07 48.2677 1360.38 49.5827 1359.32 50.5629C1358.26 51.543 1356.89 52.1284 1355.45 52.2201C1355.12 52.2095 1354.79 52.3238 1354.54 52.5407C1354.28 52.7577 1354.12 53.0617 1354.07 53.3935C1354.03 53.7252 1354.11 54.061 1354.31 54.3351C1354.5 54.6093 1354.79 54.8022 1355.11 54.8762C1355.38 54.8762 1361.76 56.6981 1360.67 61.0228C1360.56 61.5975 1360.33 62.141 1359.98 62.6127C1359.64 63.0844 1359.19 63.4722 1358.68 63.747C1356.46 64.8708 1353.1 64.0535 1351.46 63.4065C1351.3 63.3399 1351.13 63.3052 1350.95 63.3043C1350.75 63.3035 1350.56 63.3475 1350.38 63.433C1350.2 63.5184 1350.04 63.6432 1349.91 63.7981C1349.72 64.0397 1349.61 64.3399 1349.61 64.6494C1349.61 64.9589 1349.72 65.2592 1349.91 65.5007C1350.54 66.4202 1352.04 69.2976 1351.4 71.3749C1351.21 71.9165 1350.9 72.4067 1350.48 72.8059C1350.07 73.2051 1349.57 73.5023 1349.03 73.6734C1348.49 73.9239 1347.91 74.0538 1347.32 74.0538C1346.73 74.0538 1346.15 73.9239 1345.62 73.6734C1343.19 72.4475 1342.21 68.5655 1342.21 68.5655C1342.19 68.1952 1342.02 67.8482 1341.74 67.6007C1341.47 67.3532 1341.1 67.2256 1340.73 67.246C1340.36 67.2663 1340.01 67.4329 1339.76 67.7091C1339.52 67.9853 1339.39 68.3485 1339.41 68.7187C1339.27 70.1529 1338.58 71.4773 1337.48 72.4135C1336.91 72.7379 1336.26 72.9278 1335.6 72.9691C1334.94 73.0104 1334.28 72.9019 1333.66 72.6519C1332.9 72.5177 1332.18 72.1864 1331.58 71.6907C1330.99 71.195 1330.53 70.5521 1330.25 69.8255C1330.08 68.8669 1330.1 67.8819 1330.33 66.9344C1330.56 65.9869 1330.99 65.0981 1331.58 64.3259C1331.78 64.0843 1331.88 63.7841 1331.88 63.4746C1331.88 63.1651 1331.78 62.8649 1331.58 62.6233C1331.41 62.3802 1331.17 62.2012 1330.88 62.1148C1330.6 62.0284 1330.29 62.0396 1330.02 62.1465C1328.85 62.5487 1327.6 62.6704 1326.37 62.5018C1325.14 62.3332 1323.98 61.8791 1322.96 61.176C1320.89 59.4734 1321.61 55.5403 1322.12 53.6163C1324.27 54.0249 1328.62 54.5016 1331.4 52.5606C1332.15 52.0372 1332.76 51.349 1333.2 50.549C1333.65 49.7489 1333.9 48.8585 1333.94 47.9465C1334.11 46.0228 1333.87 44.0843 1333.24 42.2596ZM1275.68 61.1931C1276.51 59.409 1277.49 57.7 1278.61 56.0851C1286.2 45.2222 1294.91 43.2301 1300.55 45.0009C1303.71 45.9884 1305.84 48.2359 1305.84 50.6026C1305.9 51.3232 1305.79 52.0475 1305.53 52.7223C1305.27 53.397 1304.87 54.0051 1304.34 54.5016C1303.14 55.3903 1301.69 55.8628 1300.2 55.8467C1300.33 54.582 1300.03 53.3098 1299.34 52.2371C1298.01 50.245 1295.32 49.2235 1291.33 49.2064C1285.53 49.2064 1279.74 55.387 1275.68 61.1931ZM1244.04 151.689C1234.81 149.424 1226.2 147.04 1218.33 144.878C1195.65 138.544 1179.27 133.981 1171.76 139.634C1170 140.898 1168.6 142.6 1167.71 144.572C1166.81 146.543 1166.44 148.715 1166.65 150.871C1161.09 149.169 1158.12 145.849 1159.01 141.728C1159.98 136.859 1166.56 131.07 1178.07 131.07C1180.67 131.08 1183.26 131.343 1185.81 131.853C1196.69 133.998 1205.74 137.574 1216.21 141.694C1224.07 144.759 1232.89 148.232 1244.04 151.689ZM1130.71 115.61C1134.35 113.127 1138.32 111.161 1142.51 109.77C1170.13 100.439 1188.71 109.77 1188.9 109.906C1189.19 110.046 1189.52 110.077 1189.84 109.991C1190.15 109.906 1190.42 109.711 1190.6 109.442C1190.78 109.173 1190.86 108.847 1190.82 108.526C1190.78 108.205 1190.62 107.909 1190.38 107.692C1188.92 106.449 1188.68 103.691 1188.88 101.818C1207.86 106.041 1218.36 113.941 1230.29 123.05C1241.58 132.066 1253.89 139.724 1266.97 145.866L1269.42 146.972C1255.4 143.18 1241.74 138.166 1228.59 131.989C1197.06 116.716 1146.89 109.991 1130.71 115.61ZM1117.07 135.411C1117.61 132.422 1118.64 129.544 1120.14 126.898C1119.36 129.144 1118.95 131.502 1118.94 133.879C1118.93 135.743 1119.35 137.585 1120.19 139.252C1121.03 140.918 1122.25 142.363 1123.75 143.465C1125.55 145.058 1127.89 145.904 1130.3 145.828C1132.7 145.752 1134.98 144.76 1136.68 143.056C1137.57 144.34 1137.99 145.9 1137.84 147.46C1137.69 149.019 1137 150.476 1135.87 151.569C1133.01 154.77 1127.45 156.269 1122.03 151.961C1117.77 148.522 1115.84 142.205 1117.04 135.411H1117.07Z" fill="#CEAF7E"/>
<path d="M1212.61 88.1289C1220.76 104.27 1238.58 118.061 1238.75 118.198C1238.89 118.305 1239.01 118.439 1239.1 118.592C1239.19 118.745 1239.25 118.914 1239.27 119.09C1239.29 119.265 1239.28 119.444 1239.24 119.615C1239.19 119.786 1239.11 119.947 1239.01 120.088C1238.78 120.366 1238.46 120.548 1238.11 120.592C1237.75 120.637 1237.4 120.541 1237.11 120.326C1236.36 119.747 1218.63 106.024 1210.19 89.3208C1210.03 89.0002 1210.01 88.629 1210.12 88.2889C1210.23 87.9489 1210.48 87.6678 1210.8 87.5074C1211.12 87.3471 1211.49 87.3208 1211.83 87.4341C1212.17 87.5475 1212.45 87.7913 1212.61 88.1119V88.1289Z" fill="#CEAF7E"/>
<path d="M1211.44 84.3149C1211.18 84.5633 1210.83 84.6992 1210.47 84.6929C1210.12 84.6865 1209.78 84.5383 1209.53 84.2809C1209.28 84.0235 1209.14 83.678 1209.15 83.3204C1209.15 82.9627 1209.3 82.6223 1209.56 82.3739C1212.38 79.437 1214.13 75.643 1214.54 71.5962C1214.56 71.2784 1214.49 70.9612 1214.32 70.6896C1214.15 70.4179 1213.9 70.2058 1213.61 70.0832C1213.32 69.9606 1212.99 69.9339 1212.68 70.0069C1212.37 70.0798 1212.09 70.2487 1211.88 70.4895C1209.76 73.0992 1208.2 76.1197 1207.31 79.3602C1207.25 79.5785 1207.13 79.7782 1206.98 79.9415C1206.82 80.1049 1206.62 80.2269 1206.41 80.2967C1206.19 80.3611 1205.96 80.3715 1205.74 80.327C1205.52 80.2824 1205.32 80.1843 1205.15 80.0413C1205.15 80.0413 1201.6 77.2149 1196.16 80.1775L1195.05 80.7564C1194.84 80.8602 1194.67 81.0241 1194.56 81.2267C1194.45 81.4294 1194.4 81.6614 1194.42 81.8928C1194.44 82.1241 1194.53 82.344 1194.67 82.5239C1194.82 82.7039 1195.02 82.8355 1195.24 82.9017C1198.53 83.8694 1201.95 84.3232 1205.38 84.2468C1205.74 84.2468 1206.08 84.3885 1206.34 84.6408C1206.59 84.8931 1206.73 85.2352 1206.73 85.5919C1206.73 85.9487 1206.59 86.2908 1206.34 86.543C1206.08 86.7953 1205.74 86.937 1205.38 86.937H1204.86C1194.08 86.937 1188.68 83.0209 1187.24 81.8291C1187.04 81.6801 1186.86 81.5023 1186.71 81.3013C1186.51 81.0237 1186.42 80.6791 1186.47 80.3383C1186.51 79.9975 1186.68 79.6863 1186.95 79.4685C1187.22 79.2508 1187.55 79.1429 1187.9 79.1671C1188.24 79.1913 1188.56 79.3457 1188.79 79.5986C1188.98 79.7008 1190.5 80.1945 1194.8 77.896C1196.16 77.0608 1197.69 76.5177 1199.28 76.3008C1200.86 76.0839 1202.48 76.1981 1204.02 76.636C1204.32 76.7378 1204.65 76.7206 1204.95 76.5878C1205.24 76.455 1205.47 76.2166 1205.59 75.9209C1207.3 71.2577 1210.43 67.2456 1214.54 64.4451C1214.72 64.3373 1214.92 64.2719 1215.12 64.2542C1215.33 64.2365 1215.54 64.2668 1215.73 64.3429C1215.92 64.425 1216.1 64.5484 1216.23 64.7045C1216.37 64.8605 1216.48 65.0452 1216.53 65.2453C1217.38 68.5944 1217.36 72.104 1216.47 75.4413C1215.57 78.7786 1213.84 81.8331 1211.44 84.3149Z" fill="#CEAF7E"/>
<path d="M1203.61 69.4169C1202.86 70.762 1203.76 72.72 1202.26 73.6224C1200.76 74.5248 1200.56 73.0095 1196.57 73.1627C1192.58 73.316 1191.76 73.9119 1189.22 70.3193C1186.68 66.7267 1191.61 61.9423 1191.61 59.3883C1191.61 56.8344 1189.22 55.0466 1190.57 54.2804C1191.91 53.5142 1195.51 57.6857 1197.76 57.6857C1200.01 57.6857 1208.25 57.6857 1208.25 62.1636C1208.25 66.6416 1204.36 68.0718 1203.61 69.4169Z" fill="#CEAF7E"/>
<path d="M1337.12 46.0054C1338.15 45.4435 1340.96 51.1134 1343.36 52.4755C1345.77 53.8376 1348.94 51.522 1350.29 52.9692C1351.63 54.4165 1350 60.9376 1344.83 63.3043C1339.66 65.671 1334.6 62.3508 1334.6 60.6141C1334.6 58.8774 1336.31 59.3201 1337.69 54.9443C1339.07 50.5685 1336.37 46.4311 1337.12 46.0054Z" fill="#CEAF7E"/>
<path d="M1367.37 66.2159C1366.07 65.3305 1367.16 60.0013 1368.15 59.4053C1369.14 58.8094 1376.92 60.3929 1382.49 57.3281C1388.07 54.2633 1384.45 48.8149 1388.07 48.2871C1391.68 47.7592 1400 55.4211 1400.6 60.8015C1401.2 66.1819 1393.9 71.0174 1386.82 71.1876C1379.75 71.3579 1368.67 67.1183 1367.37 66.2159Z" fill="#CEAF7E"/>
<path d="M1364.45 69.7914C1365.8 69.7914 1369.57 77.7257 1382.36 80.0073C1395.14 82.2888 1400.12 75.9209 1402.59 76.1423C1405.07 76.3636 1406.12 81.5397 1406.19 85.5068C1406.26 89.474 1405.07 99.128 1392.18 98.6002C1379.29 98.0723 1361.68 74.8142 1361.57 73.9118C1361.47 73.0094 1361.35 69.7914 1364.45 69.7914Z" fill="#CEAF7E"/>
<path d="M1358.45 76.9935C1360.7 76.9425 1361.74 89.6783 1375.21 99.3663C1388.68 109.054 1394.85 100.405 1398.89 102.772C1402.93 105.138 1399.93 129.571 1380.75 122.982C1361.57 116.393 1355.18 81.6588 1354.97 79.9902C1354.77 78.3216 1357.09 77.0276 1358.45 76.9935Z" fill="#CEAF7E"/>
<path d="M1377.75 133.641C1378.61 135.445 1365.65 149.22 1351.11 142.154C1336.56 135.088 1344.52 83.2083 1345.14 81.6929C1345.46 80.7735 1346.84 80.9437 1347.81 81.4035C1348.79 81.8632 1351.11 92.9304 1354.26 104.747C1357.41 116.563 1376.92 131.853 1377.75 133.641Z" fill="#CEAF7E"/>
<path d="M1338.22 79.5987C1339.72 80.5011 1333.71 95.4673 1334.02 109.242C1334.33 123.016 1338.97 136.331 1334.53 140.383C1330.1 144.435 1314.38 143.38 1312.59 131.257C1310.8 119.134 1336.54 78.5941 1338.22 79.5987Z" fill="#CEAF7E"/>
<path d="M1326.98 76.9936C1329.67 76.3125 1329.52 78.2535 1329.98 78.8495C1330.88 80.0583 1309.28 120.462 1296.55 121.824C1283.81 123.186 1283.5 99.809 1284.85 97.5615C1286.2 95.314 1290.1 99.9623 1301.34 96.8124C1312.57 93.6625 1324.27 77.7598 1326.98 76.9936Z" fill="#CEAF7E"/>
<path d="M1278.56 83.6509C1279.46 78.8495 1284.25 67.3566 1287.85 64.1216C1291.45 60.8866 1293.24 72.6348 1305.4 73.1627C1317.55 73.6905 1321.13 67.5439 1322.92 70.7619C1324.52 73.6734 1308.84 86.4944 1295.2 88.7419C1281.56 90.9893 1277.66 88.4354 1278.56 83.6509Z" fill="#CEAF7E"/>
<path d="M1314.14 3.77989C1315.73 1.87292 1314.04 -0.93644 1312.01 0.374596C1309.98 1.68563 1304.47 -0.527809 1300.31 1.277C1296.15 3.0818 1294.14 10.4713 1293.8 13.519C1293.46 16.5667 1275.49 34.3934 1277.26 35.1937C1278.73 35.8577 1292.34 19.5804 1296.27 17.8948C1300.21 16.2092 1306.72 17.5543 1309.91 15.0854C1313.1 12.6166 1312.57 5.70387 1314.14 3.77989ZM1301.44 12.7017C1298.18 11.1523 1300.66 6.3679 1302.56 4.80147C1304.47 3.23504 1309.88 4.68228 1311.09 4.23959C1312.3 3.79691 1310.32 16.8902 1301.44 12.7017Z" fill="#CEAF7E"/>
</g>
<defs>
<clipPath id="clip0_889_10">
<rect width="326" height="168" fill="white" transform="matrix(1 0 0 -1 0 168)"/>
</clipPath>
<clipPath id="clip1_889_10">
<rect width="326" height="168" fill="white" transform="translate(1440 168) rotate(-180)"/>
</clipPath>
</defs>
</svg>
