<svg width="1440" height="182" viewBox="0 0 1440 182" fill="none" xmlns="http://www.w3.org/2000/svg">
<path d="M46.0467 15.0873C46.8923 17.6522 46.8434 20.4299 45.908 22.9631C44.3132 27.9871 41.6199 32.5891 38.0256 36.4323C34.0112 41.0408 29.5878 45.2729 24.8101 49.0763C20.5436 52.366 20.0744 56.8128 21.4503 61.249C22.8263 65.6851 26.1007 68.5568 31.3379 69.0819C34.3884 69.3819 37.4604 69.6283 40.5003 70.0784C46.5587 70.9892 51.3585 73.7323 53.8331 79.09C55.3157 82.3046 54.0891 84.9298 51.0386 86.2585C49.5503 86.892 47.8854 86.9691 46.3455 86.4757C44.8056 85.9823 43.4926 84.9511 42.6442 83.569C42.1471 82.8134 41.901 81.9191 41.9412 81.0143C41.9815 80.1095 42.306 79.2408 42.8682 78.5328C44.2335 76.7005 43.7322 75.5004 41.5562 74.9753C32.4686 72.7787 23.4235 71.9 14.4639 75.6075C9.29078 77.7506 6.4535 81.5331 5.93085 86.805C5.58955 90.5233 5.05616 94.2307 4.93885 97.9597C4.82154 101.689 4.49091 105.46 5.5362 109.104C6.73084 113.39 7.8401 114.29 12.3945 113.015C20.5969 110.711 28.1594 111 35.4978 115.64C39.0176 117.858 39.7643 117.247 41.3749 113.09C42.6335 109.789 44.8627 108.675 48.4573 109.564C54.1317 110.968 56.0944 116.904 52.2332 120.965C49.652 123.698 46.0681 124.469 41.6949 122.776C37.9497 121.419 34.3306 119.734 30.8793 117.74C23.4129 113.208 10.3787 118.544 7.32807 126.205C5.97163 129.426 5.27272 132.888 5.27272 136.385C5.27272 139.882 5.97163 143.344 7.32808 146.564C8.00874 148.206 9.0251 149.686 10.3113 150.908C11.5975 152.13 13.1249 153.067 14.7945 153.658C18.171 155.055 21.8291 155.628 25.4687 155.33C29.1082 155.032 32.6256 153.871 35.7324 151.944C40.2655 149.233 42.4309 145.129 41.5455 140.007C41.3216 138.699 40.8095 137.317 38.8043 137.146C38.0896 138.592 39.1669 139.749 38.9536 140.95C38.7605 142.521 38.1098 143.999 37.0833 145.2C36.0567 146.401 34.7 147.271 33.1832 147.7C29.5567 148.772 26.4314 147.54 23.7542 145.129C21.3116 142.932 20.3836 140.478 21.6209 137.403C22.3058 135.577 23.4169 133.942 24.8609 132.637C26.3049 131.332 28.0396 130.394 29.9193 129.902C36.1697 127.973 41.6522 129.827 46.9854 132.538C52.0838 135.131 56.2757 138.817 60.4675 142.503C63.6745 145.325 66.949 148.075 70.2911 150.754C71.2511 151.536 72.5097 152.469 73.8856 151.461C75.2616 150.454 74.5469 149.211 73.8856 148.097C70.1098 141.432 68.0512 134.167 65.6086 127.084C62.7008 118.64 58.1137 110.878 52.1264 104.271C46.6616 97.9821 39.4709 93.4532 31.4552 91.2519C25.5781 89.6767 24.0742 90.7483 23.4236 96.3524C23.0289 99.7384 20.7783 101.956 17.7277 101.956C16.1461 101.96 14.6212 101.365 13.4555 100.291C12.2897 99.2175 11.5685 97.7427 11.4347 96.1595C10.9334 91.0804 15.0718 86.5157 20.9596 86.0014C24.982 85.5343 29.0573 86.0299 32.8525 87.4479C41.5154 90.6127 49.3495 95.7129 55.7637 102.364C57.2638 104.273 59.1005 105.889 61.1822 107.132C59.145 97.4882 60.1796 88.498 60.1156 79.4864C60.1156 77.5363 60.1794 75.5646 59.9874 73.6252C59.0701 64.5493 55.881 56.6307 46.868 51.6587C44.5801 50.2501 41.9215 49.5703 39.2416 49.7085C34.6231 50.0622 33.3752 52.2909 35.8178 55.827C36.1728 56.2432 36.4939 56.6876 36.7778 57.1557C37.3029 58.2129 37.4377 59.423 37.1585 60.5707C36.8792 61.7184 36.2038 62.7295 35.2524 63.4242C33.1192 65.0208 30.9859 64.6457 28.8527 63.4242C27.9096 62.9575 27.0859 62.2792 26.4452 61.4418C25.8046 60.6044 25.3641 59.6302 25.1579 58.5945C24.9517 57.5589 24.9853 56.4895 25.256 55.4689C25.5268 54.4484 26.0275 53.504 26.7194 52.7088C31.6899 46.0975 41.4495 44.5652 49.3212 49.2371C59.0808 55.0234 63.2622 63.7135 63.7101 74.0538C63.9874 80.483 63.5607 86.9122 63.5074 93.2556C63.3231 95.5734 63.6173 97.9045 64.3714 100.103C64.8727 101.271 65.4379 102.514 67.0699 102.567C68.7018 102.621 69.4165 101.389 69.8644 100.242C71.7821 95.378 74.0089 90.6428 76.5308 86.0657C78.7197 82.1335 80.3737 77.9242 81.4481 73.5502C82.3761 69.4783 83.9439 65.3636 82.6639 60.8954C81.7253 61.0347 80.9893 61.2275 80.2534 61.2597C76.5308 61.4311 74.5364 60.2739 73.5764 57.4879C73.181 56.3719 73.1769 55.1538 73.5648 54.0352C73.9528 52.9166 74.7096 51.9648 75.7097 51.3373C77.9603 50.0086 82.2694 50.5336 84.2427 52.4088C86.2159 54.284 86.7598 56.6949 86.8239 59.2773C87.0664 68.9784 84.8649 78.5837 80.4241 87.2015C78.2268 91.4876 75.6243 95.6987 74.0243 100.328C69.9498 112.447 77.9282 128.798 90.5357 133.824C90.8884 133.887 91.2495 133.887 91.6023 133.824C92.5623 133.192 92.2424 132.206 92.4984 131.402C93.725 127.663 97.5862 126.387 101.031 128.563C105.138 131.124 104.572 136.835 99.858 139.085C98.2809 139.679 96.6477 140.11 94.9835 140.371C94.2476 140.542 93.4156 140.628 93.1063 141.357C92.6903 142.364 93.3516 143.071 94.1729 143.618C94.9942 144.164 96.0821 144.818 97.0634 145.364C104.755 149.551 112.901 152.833 121.34 155.147C132.795 158.491 144.048 158.587 154.48 151.933C160.293 148.225 163.749 143.361 163.013 136.674C162.277 129.988 158.192 125.166 151.589 122.369C147.867 120.794 146.256 122.026 146.683 125.809C146.683 126.162 146.843 126.505 146.875 126.88C147.147 128.607 146.838 130.376 145.995 131.906C145.153 133.435 143.826 134.639 142.224 135.324C140.478 136.135 138.531 136.405 136.631 136.099C134.732 135.794 132.966 134.927 131.558 133.61C125.521 128.348 127.452 119.948 135.59 117.419C145.051 114.493 153.467 117.151 160.752 122.884C169.285 129.559 171.493 142.696 161.712 151.815C155.579 157.548 148.23 160.387 139.643 160.977C124.508 161.952 110.78 157.762 97.7035 151.279C92.4707 148.691 87.4271 145.733 82.6107 142.428C82.19 142.027 81.6519 141.771 81.0759 141.7C80.4998 141.628 79.9161 141.745 79.4108 142.032C78.3442 142.75 78.4508 143.939 78.8455 144.968C79.7978 147.533 81.2481 149.882 83.112 151.879C90.4077 159.734 99.0368 165.809 109.98 168.595C115.9 170.106 121.809 171.713 127.814 172.881C136.161 174.37 144.689 174.522 153.083 173.331C162.106 172.195 169.679 167.974 176.548 162.616C181.7 158.587 186.98 154.74 193.177 152.126C196.377 150.786 199.716 149.843 203.236 150.443C206.03 150.915 208.291 152.34 209.027 155.04C209.404 156.266 209.378 157.581 208.953 158.791C208.529 160 207.728 161.041 206.67 161.759C205.927 162.37 205.033 162.769 204.083 162.912C203.133 163.055 202.162 162.938 201.273 162.573C200.5 162.279 199.825 161.771 199.329 161.107C198.832 160.443 198.534 159.651 198.468 158.823C198.254 157.526 199.534 156.08 198.116 154.901C192.783 156.24 174.575 167.759 171.706 171.638C170.362 173.438 170.97 175.131 173.487 175.549C176.151 175.928 178.84 176.093 181.53 176.042C208.65 176.042 235.775 176.042 262.903 176.042L840.033 176.042L915.358 176.042L915.358 181.068C725.3 181.068 535.241 181.068 345.182 181.068C289.974 181.068 234.776 180.436 179.567 181.925C161.712 182.407 143.824 181.561 125.948 181.496C97.6715 181.4 69.4165 181.496 41.1082 181.432C29.3753 181.432 17.6424 181.364 5.90956 181.229C0.736404 181.229 0.469741 180.853 0.320388 175.989C0.320388 175.282 0.320388 174.574 0.320388 173.846C0.320384 128.291 0.355963 82.7368 0.427065 37.1823C0.403323 36.1089 0.449648 35.0351 0.565676 33.9677C0.736391 32.714 1.15241 31.3103 2.78436 31.2675C4.41632 31.2246 4.84296 32.6605 4.9176 33.9142C5.01361 37.6538 5.10956 41.4149 4.98157 45.1224C4.91797 48.3275 5.27661 51.527 6.04816 54.6376C7.11481 58.9773 10.1013 59.8238 13.3225 56.4806C19.7223 49.8478 27.0074 43.9759 33.4499 37.3752C37.7324 33.2068 40.8795 28.005 42.5908 22.2666C40.6176 21.9023 39.1776 22.8345 37.631 22.3416C35.2098 21.5701 33.7164 20.1985 33.4711 17.7662C33.2477 16.1989 33.6325 14.6054 34.5457 13.315C35.4589 12.0247 36.8308 11.1362 38.3777 10.8333C39.9459 10.5735 41.5554 10.8519 42.9468 11.6237C44.3382 12.3955 45.4302 13.6156 46.0467 15.0873ZM113.714 176.428C112.092 174.36 110.514 174.231 109.042 173.867C98.3631 171.2 88.0887 167.106 78.4935 161.694C77.3628 161.014 76.1867 160.412 74.9736 159.894C73.4163 159.294 71.6884 158.319 70.1738 159.787C68.6592 161.255 68.9791 163.152 69.8538 164.759C71.0325 166.982 72.6389 168.948 74.5798 170.543C76.5206 172.138 78.7573 173.329 81.1601 174.049C85.3621 175.379 89.7185 176.154 94.1195 176.353C100.317 176.674 106.663 176.428 113.714 176.428ZM10.2507 159.905C9.18416 161.459 10.5708 162.605 11.4454 163.677C18.0265 171.724 26.3248 176.835 37.6951 176.717C46.5161 176.632 55.337 176.717 64.1474 176.717C66.2806 176.717 69.4058 177.489 70.1311 174.949C70.7924 172.667 68.062 171.37 66.2487 170.192C61.2782 166.977 56.585 163.237 50.5053 161.619C49.0973 169.699 46.0681 172.678 39.839 172.474C32.3726 172.228 28.33 168.188 27.3487 159.455C23.0524 159.945 18.7067 159.767 14.4639 158.93C12.8533 158.587 11.168 158.437 10.2081 159.905L10.2507 159.905ZM34.6978 157.162C31.4979 159.744 30.4313 163.73 32.3406 166.184C34.3778 168.874 39.039 169.592 43.0068 167.834C42.4096 166.934 41.3323 167.277 40.511 166.977C37.5671 165.906 35.9671 163.763 36.3084 161.373C36.671 158.748 39.1243 156.787 42.3135 156.562C45.5028 156.337 48.2973 157.548 51.1878 158.512C53.0544 159.133 55.273 161.041 56.9583 159.166C58.4302 157.526 56.5209 155.533 55.8917 153.808C55.2623 152.083 54.1317 151.129 52.1264 152.736C51.6151 153.18 50.962 153.424 50.2865 153.424C49.611 153.424 48.958 153.18 48.4466 152.736C47.8321 152.34 47.3638 151.753 47.1134 151.064C46.8629 150.375 46.8441 149.622 47.0599 148.922C47.5933 147.314 49.0012 146.779 50.6865 146.939C54.409 147.25 56.457 149.597 57.8969 152.404C59.1342 154.794 59.9556 157.365 61.0222 159.841C61.3084 160.635 61.8001 161.339 62.4469 161.88C63.0936 162.42 63.872 162.778 64.702 162.916C64.5207 153.358 59.8168 146.843 52.1264 141.946C51.1467 141.374 50.1101 140.907 49.0333 140.553C46.9641 139.76 45.5987 140.296 45.5134 142.493C45.2574 148.782 41.6948 153.101 36.1377 156.283C35.6183 156.531 35.1221 156.825 34.6551 157.162L34.6978 157.162Z" fill="#514338"/>
<path d="M8.38457 19.1699C8.25053 20.2672 7.69957 21.2701 6.84687 21.9689C5.99417 22.6678 4.90566 23.0087 3.8087 22.9203C3.26542 22.9123 2.72995 22.7895 2.23701 22.5599C1.74407 22.3304 1.30475 21.9991 0.947603 21.5878C0.590458 21.1765 0.323472 20.6942 0.164037 20.1724C0.00460286 19.6506 -0.0438009 19.1009 0.022116 18.5591C0.0702661 18.0109 0.226059 17.4776 0.480432 16.9902C0.734806 16.5027 1.08277 16.0707 1.50422 15.719C1.92568 15.3673 2.41226 15.103 2.93594 14.9413C3.45962 14.7795 4.00997 14.7236 4.55528 14.7766C5.09748 14.802 5.62903 14.9371 6.11799 15.1739C6.60695 15.4106 7.04331 15.7441 7.40088 16.1544C7.75845 16.5646 8.02988 17.0432 8.1989 17.5613C8.36793 18.0795 8.43111 18.6266 8.38457 19.1699Z" fill="#514338"/>
<path d="M2.38982 2.83968C2.41432 2.42374 2.52549 2.01758 2.71599 1.64745C2.90649 1.27732 3.1721 0.951457 3.49579 0.690915C3.81948 0.430373 4.19401 0.240947 4.59512 0.134877C4.99623 0.0288077 5.41509 0.00845321 5.82452 0.0751292C6.24211 0.041991 6.66167 0.104683 7.05158 0.258462C7.4415 0.412241 7.79152 0.653081 8.07513 0.962766C8.35874 1.27245 8.56855 1.64287 8.68866 2.04601C8.80877 2.44914 8.83609 2.87444 8.76847 3.28973C8.71472 4.14229 8.32601 4.93849 7.6879 5.50316C7.04979 6.06784 6.21448 6.35473 5.36581 6.30074C4.51713 6.24674 3.72456 5.85628 3.16247 5.21524C2.60037 4.57421 2.31485 3.73511 2.3686 2.88255L2.38982 2.83968Z" fill="#514338"/>
<path d="M1173.8 180.96C957.412 180.96 741.029 180.961 524.653 180.961L524.653 175.924L732.187 175.924C907.249 175.924 1082.31 175.924 1257.37 175.924C1260.06 175.924 1262.76 175.806 1265.44 175.646C1266.8 175.571 1268.23 175.271 1268.74 173.92C1269.38 172.292 1268.18 171.263 1266.94 170.352C1261.36 166.27 1255.84 162.123 1250.16 158.158C1247.57 156.152 1244.45 154.962 1241.18 154.74C1241.3 155.994 1241.41 156.883 1241.45 157.708C1241.6 160.098 1240.69 161.994 1238.07 162.648C1236.85 162.967 1235.57 162.878 1234.42 162.394C1233.26 161.91 1232.29 161.058 1231.67 159.969C1228.86 155.812 1231.74 150.85 1237.34 150.24C1241.13 149.832 1244.57 150.979 1247.88 152.49C1253.96 155.276 1259.15 159.24 1264.34 163.205C1273.11 170.033 1283.87 173.795 1294.97 173.92C1307.34 174.253 1318.94 171.435 1330.6 168.349C1339.13 166.088 1346.23 161.544 1352.6 156.047C1355.95 153.154 1359 149.897 1360.71 145.782C1361.25 144.443 1361.94 142.942 1360.4 141.892C1359.11 141.024 1357.88 141.892 1356.77 142.696C1352.1 145.89 1347.21 148.755 1342.15 151.268C1329.06 157.772 1315.32 161.909 1300.19 160.912C1290.93 160.312 1283.06 157.087 1277.01 150.475C1273.43 146.543 1271.32 142.064 1271.91 136.76C1272.98 126.612 1280.44 119.079 1291.4 116.915C1297.02 115.843 1302.5 115.672 1307.48 118.844C1309.37 119.952 1310.78 121.727 1311.44 123.823C1312.09 125.919 1311.95 128.185 1311.03 130.181C1308.9 134.563 1303.69 137.06 1299.3 135.849C1294.92 134.638 1292.77 131.156 1293.38 125.669C1293.79 121.94 1292.14 120.772 1288.35 122.326C1276.7 127.105 1271.95 141.721 1283.36 150.293C1286.82 153.012 1290.79 155.013 1295.03 156.181C1299.28 157.349 1303.71 157.66 1308.07 157.097C1321.07 155.479 1332.76 150.668 1344.04 144.721C1344.88 144.326 1345.66 143.793 1346.33 143.146C1347.47 141.935 1347.4 140.864 1345.47 140.424C1344.17 140.103 1342.83 139.953 1341.54 139.631C1340.44 139.402 1339.42 138.904 1338.56 138.183C1337.7 137.461 1337.03 136.538 1336.61 135.495C1336.27 134.741 1336.1 133.92 1336.12 133.092C1336.14 132.264 1336.34 131.451 1336.72 130.713C1337.09 129.974 1337.62 129.329 1338.28 128.825C1338.93 128.322 1339.69 127.972 1340.49 127.802C1343.82 126.923 1347.44 128.187 1347.51 131.981C1347.45 132.409 1347.54 132.845 1347.78 133.207C1348.02 133.569 1348.38 133.83 1348.79 133.942C1351.41 133.253 1353.79 131.886 1355.72 129.977C1367.4 118.822 1370.67 107.796 1363.41 94.2949C1362.1 91.9053 1360.69 89.5801 1359.48 87.1477C1355.1 78.5093 1352.93 68.9061 1353.19 59.2129C1353.08 56.8585 1353.89 54.5551 1355.44 52.7837C1356.55 51.7443 1357.94 51.0428 1359.43 50.7603C1360.93 50.4778 1362.47 50.6258 1363.89 51.1871C1364.95 51.7091 1365.8 52.5828 1366.3 53.6617C1366.8 54.7405 1366.92 55.959 1366.63 57.1127C1365.85 60.1344 1363.62 61.4845 1359.72 61.3024C1358.98 61.3024 1358.24 61.0988 1357.34 60.9702C1357.13 61.6925 1356.99 62.4309 1356.91 63.1776C1356.91 64.252 1356.97 65.3255 1357.1 66.3922C1358.34 78.8648 1366 89.3015 1370.49 100.788C1370.55 100.957 1370.65 101.112 1370.77 101.249C1372.26 103.135 1373.89 103.049 1375.22 100.981C1376.56 98.9132 1376.5 96.8773 1376.5 94.7663C1376.5 88.1764 1376.28 81.5972 1376.28 75.018C1376.24 69.4237 1377.74 63.927 1380.6 59.1272C1383.79 53.567 1388.91 49.3907 1394.99 47.4046C1398.23 46.2543 1401.75 46.1525 1405.05 47.1133C1408.35 48.0742 1411.27 50.0496 1413.4 52.7623C1415.63 55.7733 1415.53 59.02 1413.24 61.6453C1410.95 64.2705 1407.61 65.1063 1405.15 63.6169C1402.33 61.8917 1401.95 58.9664 1404.26 55.709C1406.56 52.4515 1405.49 50.1799 1401.25 49.6762C1398.38 49.4293 1395.51 50.125 1393.07 51.6586C1383.47 57.0162 1380.44 65.5885 1379.97 75.2323C1379.48 85.6262 1381.04 96.0629 1378.9 107.057C1380.82 105.908 1382.51 104.415 1383.9 102.653C1390.12 96.1038 1397.72 91.0211 1406.13 87.7692C1410.24 86.0985 1414.7 85.4763 1419.11 85.9583C1424.98 86.5477 1429.09 91.1231 1428.52 96.2022C1428.37 97.7886 1427.62 99.2578 1426.44 100.316C1425.25 101.375 1423.71 101.945 1422.12 101.913C1419.08 101.913 1416.9 99.6525 1416.52 96.2236C1416.47 95.6879 1416.59 95.1521 1416.52 94.627C1416.27 91.766 1414.91 90.5231 1411.75 90.6195C1409.26 90.7358 1406.82 91.3477 1404.57 92.4197C1398 95.1649 1392.13 99.3622 1387.39 104.699C1381.55 111.411 1377.06 119.194 1374.16 127.62C1372.26 133.786 1370 139.833 1367.38 145.728C1366.55 147.464 1363.64 149.575 1366.32 151.322C1368.57 152.811 1370.47 150.25 1372.07 148.943C1376.67 145.161 1381.02 141.121 1385.63 137.36C1390.38 133.239 1396.12 130.436 1402.27 129.227C1409.31 128.027 1415.88 131.241 1418.27 136.942C1419.64 140.156 1418.85 142.803 1416.2 145.15C1413.2 147.807 1409.31 148.761 1406.21 147.475C1404.69 146.855 1403.39 145.784 1402.48 144.404C1401.58 143.024 1401.12 141.4 1401.15 139.749C1401.15 138.849 1402.42 137.724 1400.61 137.145C1398.3 139.921 1397.96 140.714 1398.36 143.242C1398.66 145.251 1399.46 147.152 1400.68 148.774C1401.9 150.396 1403.5 151.688 1405.33 152.533C1408.22 154.07 1411.39 154.993 1414.64 155.246C1417.9 155.498 1421.17 155.074 1424.26 154.001C1426.05 153.492 1427.72 152.594 1429.13 151.37C1430.55 150.147 1431.68 148.627 1432.45 146.918C1433.91 143.656 1434.69 140.124 1434.72 136.545C1434.76 132.967 1434.05 129.42 1432.65 126.13C1429.6 118.629 1416.65 113.132 1409.06 117.804C1406.07 119.446 1403 120.924 1399.85 122.23C1397.44 123.481 1394.68 123.907 1392 123.441C1390.27 123.125 1388.71 122.217 1387.57 120.87C1386.43 119.524 1385.8 117.823 1385.77 116.058C1385.87 112.843 1388.64 110.057 1392.17 109.478C1395.7 108.9 1397.02 109.8 1398.83 114.268C1399.9 116.883 1400.78 117.258 1403.59 116.186C1404.3 115.929 1404.98 115.591 1405.62 115.179C1411.95 111.021 1418.75 110.818 1426 112.715C1432.52 114.429 1433.8 113.561 1434.85 107.496C1435.08 106.103 1435.02 104.657 1435.13 103.21C1435.49 98.206 1434.48 93.2769 1434.16 88.3157C1433.63 80.4292 1430.01 76.5288 1421.69 74.2679C1414.65 72.382 1407.6 73.1964 1400.56 74.3429C1399.06 74.6001 1397.36 74.9108 1396.56 76.2074C1395.76 77.5039 1397.4 78.3505 1397.74 79.5506C1398.63 82.508 1397.12 85.1976 1393.9 86.3762C1391.1 87.4478 1387.69 86.4727 1386.35 84.1367C1384.8 81.4365 1385.72 78.8541 1387.53 76.636C1389.08 74.7212 1391.01 73.1431 1393.18 71.9974C1395.36 70.8517 1397.74 70.1623 1400.19 69.9711C1403.26 69.6818 1406.31 69.3282 1409.36 68.9745C1411.62 68.7249 1413.75 67.7218 1415.38 66.1243C1420.62 61.2381 1420.72 53.7052 1415.09 49.044C1410.29 45.0263 1405.78 40.6607 1401.6 35.982C1398.02 32.1074 1395.4 27.4369 1393.96 22.3521C1393.12 19.2018 1392.82 15.9872 1395.19 13.1691C1396.1 12.0609 1397.33 11.2714 1398.71 10.915C1400.1 10.5585 1401.56 10.6537 1402.88 11.1868C1404.24 11.7427 1405.35 12.7679 1406.02 14.0768C1406.69 15.3858 1406.87 16.892 1406.53 18.3232C1405.92 21.0984 1403.85 22.395 1400.08 22.3093C1399.35 22.3093 1398.66 21.7949 1397.59 22.395C1398.96 27.9991 1402.27 32.7353 1406.33 36.9786C1412.78 43.7828 1420.37 49.6119 1426.76 56.5233C1427.24 57.0943 1427.83 57.5703 1428.48 57.927C1429.21 58.3869 1430.1 58.5434 1430.94 58.3635C1431.79 58.1837 1432.53 57.6815 1433.01 56.9627C1433.68 55.8991 1434.1 54.7036 1434.26 53.4587C1435.53 47.9939 1434.84 42.4648 1435.14 36.9786C1435.25 34.9319 1433.84 31.3316 1437.34 31.4173C1440.46 31.4923 1439.57 35.0391 1439.58 37.2036C1439.67 82.5794 1439.71 127.941 1439.71 173.288C1439.71 180.971 1440.53 181.143 1431.13 181.153C1383.62 181.218 1336.11 181.153 1288.6 181.518C1271.87 181.646 1255.15 182.032 1238.47 181.357C1216.89 180.543 1195.35 180.971 1173.8 180.96ZM1364.73 160.033C1363 160.795 1361.33 161.661 1359.7 162.627C1351.17 167.566 1341.88 170.856 1332.3 173.535C1330.42 174.07 1328.29 174.231 1326.23 176.353C1337.89 176.867 1348.69 177.189 1359.2 173.91C1363.88 172.483 1367.8 169.254 1370.1 164.93C1371 163.323 1371.43 161.416 1370.01 159.916C1368.34 158.18 1366.4 159.326 1364.71 160.033L1364.73 160.033ZM1402.78 155.437C1398.02 152.533 1395.21 148.557 1394.65 143.2C1394.32 139.985 1393.42 139.556 1390.22 140.757C1381.69 143.971 1375.39 153.465 1375.76 162.594C1378.46 162.326 1378.87 160.226 1379.67 158.512C1380.74 156.229 1381.42 153.786 1382.64 151.6C1384 149.2 1385.98 147.218 1389.19 146.907C1389.83 146.751 1390.51 146.788 1391.14 147.015C1391.76 147.242 1392.31 147.647 1392.71 148.182C1393.1 148.787 1393.28 149.515 1393.2 150.236C1393.11 150.957 1392.78 151.626 1392.26 152.126C1391.84 152.642 1391.27 153.014 1390.63 153.191C1389.99 153.367 1389.31 153.34 1388.68 153.111C1387.53 152.822 1386.7 150.775 1385.29 152.243C1383.67 153.958 1382.75 156.221 1382.7 158.587C1382.7 159.658 1383.9 160.001 1384.83 159.787C1386.49 159.371 1388.12 158.852 1389.72 158.233C1392 157.234 1394.44 156.664 1396.92 156.551C1400.55 156.551 1403.16 158.319 1403.7 161.148C1404.25 163.977 1402.49 165.991 1398.67 167.106C1398.15 167.266 1397.6 167.406 1396.29 167.781C1400.67 170.138 1403.83 168.991 1406.72 167.095C1408.85 165.68 1409.12 163.044 1407.92 160.301C1406.93 157.998 1404.8 156.722 1402.75 155.437L1402.78 155.437ZM1407.14 176.374C1416.62 175.71 1423.62 170.17 1429.06 163.098C1429.8 162.134 1430.8 161.051 1429.71 159.744C1429.24 159.259 1428.65 158.913 1428 158.744C1427.35 158.576 1426.67 158.592 1426.03 158.79C1421.61 159.631 1417.1 159.83 1412.63 159.38C1411.93 168.048 1407.67 172.238 1400.08 172.377C1393.83 172.495 1390.58 169.249 1389.84 162.08C1388.43 161.276 1387.29 162.198 1386.18 162.712C1380.95 165.225 1376.02 168.328 1371.48 171.96C1370.5 172.731 1369.24 173.663 1369.83 175.078C1370.41 176.492 1371.85 176.631 1373.22 176.631C1384.54 176.631 1395.88 177.167 1407.14 176.374Z" fill="#514338"/>
<path d="M1431.63 19.0626C1431.59 18.5176 1431.67 17.9713 1431.85 17.4567C1432.03 16.9421 1432.32 16.47 1432.69 16.0692C1433.05 15.6683 1433.5 15.347 1434 15.1248C1434.49 14.9025 1435.03 14.784 1435.57 14.7764C1436.12 14.7371 1436.67 14.8065 1437.18 14.9805C1437.7 15.1544 1438.18 15.4297 1438.59 15.7902C1439 16.1508 1439.34 16.5896 1439.58 17.0813C1439.82 17.573 1439.97 18.108 1440 18.6554C1440.06 19.2022 1440.01 19.7559 1439.84 20.2791C1439.67 20.8023 1439.39 21.2831 1439.02 21.6891C1438.65 22.095 1438.2 22.4168 1437.69 22.6328C1437.19 22.8489 1436.64 22.9541 1436.1 22.9415C1435.55 22.9838 1435 22.9169 1434.48 22.7445C1433.96 22.5721 1433.47 22.2977 1433.06 21.9371C1432.64 21.5765 1432.3 21.1369 1432.06 20.6435C1431.81 20.1501 1431.67 19.6128 1431.63 19.0626Z" fill="#514338"/>
<path d="M1434.35 2.80257e-07C1436.3 0.289314 1437.65 1.07153 1437.55 3.03244C1437.57 3.45112 1437.51 3.8704 1437.35 4.25992C1437.2 4.64944 1436.96 4.99944 1436.65 5.28458C1436.34 5.56972 1435.98 5.78285 1435.58 5.90854C1435.18 6.03423 1434.76 6.06933 1434.35 6.0113C1433.94 6.06323 1433.52 6.02421 1433.12 5.89696C1432.73 5.76971 1432.36 5.55731 1432.06 5.27461C1431.76 4.99191 1431.52 4.64573 1431.36 4.26029C1431.2 3.87485 1431.13 3.45946 1431.15 3.04315C1431.18 1.17869 1432.45 0.214307 1434.35 2.80257e-07Z" fill="#514338"/>
</svg>
