<svg width="44" height="90" viewBox="0 0 44 90" fill="none" xmlns="http://www.w3.org/2000/svg">
<path d="M17.8119 80.1716C18.6405 70.5767 21.3814 61.2529 25.8682 52.7664C30.355 44.2798 36.494 36.8077 43.9124 30.8038C44.1639 30.6018 43.813 30.2455 43.5615 30.4415C36.0952 36.4921 29.9185 44.0205 25.4065 52.5694C20.8945 61.1183 18.1415 70.5092 17.3147 80.1716C17.2855 80.4983 17.7885 80.4983 17.8119 80.1716Z" fill="#FCF6DC"/>
<path d="M17.923 80.1714C18.0634 69.6244 18.3266 58.0738 23.3864 48.5779C27.7075 40.4694 34.7496 34.2029 43.2338 30.9164C43.5321 30.8036 43.4034 30.3226 43.0993 30.4295C34.6554 33.6966 27.6142 39.8779 23.2109 47.889C17.882 57.5631 17.5486 69.3691 17.4258 80.1714C17.4349 80.2317 17.465 80.2867 17.5106 80.3264C17.5562 80.3661 17.6143 80.388 17.6744 80.388C17.7345 80.388 17.7926 80.3661 17.8382 80.3264C17.8838 80.2867 17.9139 80.2317 17.923 80.1714Z" fill="#FCF6DC"/>
<path d="M17.9286 79.2272C20.4405 69.6911 24.7121 60.7255 30.5167 52.8062C35.6233 45.8521 41.7887 39.2899 43.9004 30.6314C43.9175 30.5668 43.9086 30.498 43.8756 30.4401C43.8427 30.3822 43.7885 30.3399 43.7249 30.3226C43.6613 30.3053 43.5935 30.3143 43.5365 30.3477C43.4794 30.3811 43.4378 30.4362 43.4207 30.5007C41.233 39.474 34.6465 46.155 29.458 53.4239C23.9406 61.1629 19.8701 69.8648 17.4489 79.0966C17.4318 79.1612 17.4407 79.23 17.4737 79.2879C17.5066 79.3458 17.5608 79.3881 17.6244 79.4054C17.688 79.4227 17.7558 79.4137 17.8128 79.3803C17.8699 79.3468 17.9115 79.2918 17.9286 79.2272Z" fill="#FCF6DC"/>
<path d="M17.6191 79.2927C18.0519 71.0915 15.4489 63.2584 12.1732 55.8767C8.56403 47.7289 4.49862 39.7889 0.62625 31.7421C0.485862 31.4511 0.0412991 31.7065 0.193386 31.9975C3.89028 39.6524 7.72755 47.2597 11.2373 55.0037C14.706 62.6467 17.5723 70.753 17.1219 79.2927C17.1219 79.6134 17.6015 79.6134 17.6191 79.2927Z" fill="#FCF6DC"/>
<path d="M0.187193 31.8191C4.62112 48.6017 9.14864 65.5268 17.2795 80.9257C17.4315 81.2108 17.8644 80.9257 17.7123 80.6703C9.59905 65.3249 5.08908 48.4236 0.666853 31.6885C0.649788 31.6239 0.608154 31.5689 0.55111 31.5354C0.494066 31.502 0.426285 31.493 0.362678 31.5103C0.299072 31.5276 0.244849 31.5699 0.211939 31.6278C0.179029 31.6857 0.170128 31.7546 0.187193 31.8191Z" fill="#FCF6DC"/>
<path d="M0.0410358 31.5223C4.23513 38.0073 8.54037 44.3854 12.6233 50.9238C14.5913 53.9191 15.9698 57.2728 16.6829 60.7997C17.379 64.6005 17.3322 68.52 17.2678 72.3445C17.2678 72.4122 17.2943 72.4771 17.3415 72.525C17.3887 72.5729 17.4527 72.5998 17.5194 72.5998C17.5861 72.5998 17.6501 72.5729 17.6972 72.525C17.7444 72.4771 17.7709 72.4122 17.7709 72.3445C17.8528 65.0102 17.4901 58.0917 13.6762 51.6839C9.52894 44.7357 4.90198 38.0251 0.473899 31.2669C0.298414 30.9937 -0.111051 31.2669 0.0410358 31.5223Z" fill="#FCF6DC"/>
<path d="M18.2211 69.1138C18.0627 56.8501 16.7602 44.6292 14.3312 32.6149C14.2669 32.2943 13.7814 32.4309 13.8457 32.7515C16.2713 44.7199 17.5679 56.8957 17.7181 69.1138C17.7181 69.1815 17.7446 69.2465 17.7917 69.2944C17.8389 69.3423 17.9029 69.3692 17.9696 69.3692C18.0363 69.3692 18.1003 69.3423 18.1475 69.2944C18.1946 69.2465 18.2211 69.1815 18.2211 69.1138Z" fill="#FCF6DC"/>
<path d="M9.7686 24.1523C9.73689 26.0635 9.85818 27.9741 10.1313 29.8653C10.1569 30.2884 10.2844 30.6987 10.5027 31.06C10.7209 31.4214 11.0232 31.7228 11.3831 31.9379C13.0502 32.7812 15.4777 32.4308 16.1914 30.5779C16.5998 29.2544 16.7973 27.8731 16.7763 26.4862C16.8231 25.4529 16.7763 24.4849 15.9398 23.802C14.4599 22.6142 11.5235 22.7271 10.0903 23.9148C9.84465 24.1226 10.1956 24.479 10.4413 24.2711C12.0148 22.9468 15.8228 23.1903 16.2908 25.6904C16.4313 27.1402 16.2862 28.6038 15.8638 29.996C14.9571 32.8465 10.9561 32.1576 10.5992 29.4021C10.3896 27.6624 10.288 25.911 10.2951 24.1583C10.2859 24.098 10.2558 24.043 10.2102 24.0033C10.1646 23.9636 10.1065 23.9417 10.0465 23.9417C9.98637 23.9417 9.92828 23.9636 9.88268 24.0033C9.83708 24.043 9.80699 24.098 9.79785 24.1583L9.7686 24.1523Z" fill="#FCF6DC"/>
<path d="M11.9042 31.3857C10.1494 30.7384 8.39453 29.9723 8.02601 27.876C7.93242 27.3415 7.72768 26.0469 7.99676 25.5777C8.52907 24.6454 8.96193 24.9839 9.68142 24.9185C10.0031 24.9185 10.0031 24.3959 9.68142 24.4138C8.90343 24.4613 8.37113 23.7546 7.78033 24.5444C7.18953 25.3343 7.38841 26.8545 7.48785 27.6859C7.76863 30.1327 9.69897 31.1185 11.7755 31.8786C12.0739 31.9855 12.2084 31.4985 11.9042 31.3857Z" fill="#FCF6DC"/>
<path d="M14.4955 32.0687C17.7947 32.0212 19.4501 29.3963 19.5027 26.2963C19.5027 25.2214 19.5554 23.6655 18.403 23.1191C18.0054 22.9473 17.5593 22.9305 17.1502 23.0718C16.7412 23.2132 16.3978 23.5028 16.186 23.8852C16.0106 24.1525 16.4376 24.4078 16.6189 24.1406C18.327 24.0812 19.1225 24.6256 19.0055 25.7737C19.0055 26.1241 19.0055 26.4745 19.0055 26.8189C18.995 27.6279 18.8218 28.4261 18.4966 29.1647C18.1083 29.8924 17.5313 30.4984 16.8281 30.9171C16.1249 31.3358 15.3224 31.5512 14.5072 31.5401C14.4478 31.5494 14.3937 31.58 14.3546 31.6262C14.3155 31.6725 14.2939 31.7315 14.2939 31.7925C14.2939 31.8535 14.3155 31.9125 14.3546 31.9588C14.3937 32.0051 14.4478 32.0356 14.5072 32.0449L14.4955 32.0687Z" fill="#FCF6DC"/>
<path d="M8.62258 24.2771C8.74883 23.7444 9.05262 23.2723 9.48246 22.9409C9.58209 22.8746 9.69529 22.8323 9.81347 22.817C9.93164 22.8018 10.0517 22.8141 10.1645 22.8531C10.2772 22.892 10.3798 22.9565 10.4643 23.0417C10.5489 23.1269 10.6132 23.2305 10.6524 23.3448C10.7167 23.6654 11.1964 23.5289 11.132 23.2082C11.0888 23.0509 11.0155 22.9039 10.9162 22.7754C10.8169 22.647 10.6936 22.5397 10.5534 22.4597C10.4132 22.3797 10.2589 22.3286 10.0992 22.3093C9.93951 22.2899 9.77764 22.3028 9.62285 22.3471C8.79222 22.5371 8.39445 23.4041 8.13708 24.1287C8.03178 24.4315 8.51144 24.5681 8.61673 24.2593L8.62258 24.2771Z" fill="#FCF6DC"/>
<path d="M11.4764 23.0299C12.1374 22.1926 13.0149 21.379 14.1497 21.4206C15.612 21.474 15.9806 22.7568 16.1268 23.9861C16.1619 24.3068 16.6649 24.3127 16.624 23.9861C16.4719 22.7152 16.1502 21.3909 14.7814 21.0168C13.3073 20.607 11.997 21.569 11.1255 22.6796C10.9266 22.929 11.2775 23.2734 11.4764 23.0359V23.0299Z" fill="#FCF6DC"/>
<path d="M18.666 64.0897C17.8997 46.2738 17.2387 27.4958 25.6854 11.2358C25.8375 10.9508 25.4046 10.6954 25.2584 10.9805C16.7649 27.3177 17.4025 46.1847 18.1688 64.0897C18.1688 64.4104 18.6835 64.4163 18.666 64.0897Z" fill="#FCF6DC"/>
<path d="M23.3984 8.39114C24.0184 9.38883 24.8549 10.8913 25.9429 11.4317C26.8437 11.8771 27.8089 11.4852 28.6512 11.0813C30.6986 10.1074 33.2724 8.16547 32.2136 5.65937C31.7456 4.56072 30.8799 2.83258 29.8153 2.17933C29.0783 1.72206 28.1833 2.06056 27.4229 2.405C26.311 2.92404 25.3579 3.73817 24.664 4.76147C23.97 5.78476 23.5611 6.97927 23.4803 8.21892C23.4803 8.53961 23.9541 8.53961 23.9775 8.21892C24.0358 7.3773 24.2576 6.55572 24.6301 5.8015C25.0025 5.04727 25.5183 4.37532 26.1477 3.82433C26.8079 3.20483 27.6134 2.76731 28.4875 2.55347C29.7861 2.37531 30.4178 3.5274 31.0028 4.50728C31.208 4.79555 31.3806 5.10631 31.5175 5.4337C31.7108 6.47932 31.5885 7.55985 31.1665 8.53367C30.6376 9.1901 29.9905 9.7383 29.2596 10.149C28.2067 10.82 26.7151 11.3367 25.592 10.5528C24.8374 10.0183 24.27 8.91374 23.7845 8.13578C23.6148 7.8626 23.1995 8.13578 23.3574 8.39114H23.3984Z" fill="#FCF6DC"/>
<path d="M29.4227 2.10225C28.9372 1.11644 28.6623 -0.24945 27.3227 0.0415435C25.796 0.374107 24.3161 1.66279 23.3977 2.89803C21.7013 5.20816 21.2568 9.27612 24.6144 10.2619C24.6745 10.2702 24.7355 10.2561 24.7862 10.2222C24.8369 10.1884 24.8738 10.1371 24.8902 10.0778C24.9066 10.0185 24.9013 9.95524 24.8753 9.89958C24.8494 9.84393 24.8045 9.79967 24.7489 9.77496C21.8534 8.90792 22.3038 5.34474 23.696 3.3553C24.293 2.49916 25.0577 1.77739 25.9422 1.23521C26.5272 0.872952 27.738 0.641346 28.3464 1.03923C28.6155 1.22333 28.8553 2.0785 28.9898 2.35761C29.1244 2.63673 29.5748 2.39324 29.4227 2.10225Z" fill="#FCF6DC"/>
<path d="M25.679 11.0577C26.4278 13.1837 28.7968 12.673 30.3996 11.9722C32.2071 11.1824 33.2775 9.54926 32.3709 7.58358C32.2363 7.28664 31.7859 7.54201 31.938 7.83894C32.716 9.52551 31.7099 10.8439 30.1831 11.509C28.9079 12.0672 26.7729 12.7561 26.1294 10.9151C26.0241 10.6123 25.5445 10.7429 25.6498 11.0517L25.679 11.0577Z" fill="#FCF6DC"/>
<path d="M18.3736 57.5572C20.2119 43.5787 25.8878 30.4076 34.7522 19.5499C34.957 19.3005 34.606 18.9561 34.4013 19.1936C25.4508 30.1504 19.7235 43.4467 17.8764 57.5572C17.8355 57.8779 18.3327 57.8779 18.3736 57.5572Z" fill="#FCF6DC"/>
<path d="M18.2387 55.0749C18.2981 55.0656 18.3522 55.035 18.3913 54.9887C18.4304 54.9424 18.452 54.8835 18.452 54.8225C18.452 54.7615 18.4304 54.7025 18.3913 54.6562C18.3522 54.6099 18.2981 54.5793 18.2387 54.5701C18.1793 54.5793 18.1251 54.6099 18.086 54.6562C18.0469 54.7025 18.0254 54.7615 18.0254 54.8225C18.0254 54.8835 18.0469 54.9424 18.086 54.9887C18.1251 55.035 18.1793 55.0656 18.2387 55.0749Z" fill="#FCF6DC"/>
<path d="M18.2685 54.8552C19.6665 41.7902 21.7782 26.124 34.3079 19.0155C34.3585 18.9784 34.3938 18.9236 34.4068 18.8616C34.4198 18.7996 34.4096 18.7349 34.3783 18.68C34.3469 18.6252 34.2966 18.5842 34.2371 18.565C34.1776 18.5458 34.1131 18.5497 34.0563 18.576C21.3688 25.7796 19.1927 41.5704 17.7713 54.8552C17.7362 55.1818 18.2334 55.1758 18.2685 54.8552Z" fill="#FCF6DC"/>
<path d="M34.1607 18.6829C32.7569 33.3098 20.3676 43.7736 18.1331 58.1629C18.0863 58.4777 18.566 58.6202 18.6186 58.2995C20.8648 43.8568 33.2775 33.3573 34.6697 18.6829C34.6697 18.3622 34.2017 18.3622 34.1724 18.6829H34.1607Z" fill="#FCF6DC"/>
<path d="M17.9349 77.523C17.4193 81.5822 17.1049 85.6653 16.9932 89.7566C16.9932 90.0832 17.4787 90.0773 17.4904 89.7566C17.6012 85.665 17.9175 81.5818 18.438 77.523C18.4789 77.2023 17.9759 77.2023 17.9349 77.523Z" fill="#FCF6DC"/>
</svg>
