<svg width="1437" height="164" viewBox="0 0 1437 164" fill="none" xmlns="http://www.w3.org/2000/svg">
<g clip-path="url(#clip0_886_5)">
<path d="M1414.02 80.8211C1408.47 89.1118 1401.7 96.5177 1393.94 102.789C1386.03 109.59 1379.21 115.621 1376.33 124.87C1373.55 133.19 1377.06 140.241 1379.8 145.863C1383.2 152.846 1384.47 156.088 1379.14 159.647C1378.78 159.893 1378.5 160.238 1378.33 160.64C1378.16 161.043 1378.12 161.485 1378.19 161.914C1378.3 162.35 1378.53 162.744 1378.86 163.046C1379.19 163.349 1379.61 163.547 1380.05 163.615C1385.08 164.385 1393.92 163.615 1395.17 156.179C1395.43 152.664 1394.88 149.137 1393.58 145.863C1392.13 141.329 1390.77 136.795 1393.28 132.964C1393.94 131.944 1394.87 130.697 1396.07 128.906C1403.64 118.024 1421.34 92.6325 1427.57 61.2562C1431.84 47.7838 1434.99 33.9839 1437 19.9955C1437.07 19.4441 1436.93 18.8879 1436.61 18.4324C1436.29 17.9769 1435.82 17.6538 1435.28 17.5244L1435.1 17.5244C1434.8 17.4726 1434.5 17.4804 1434.2 17.5473C1433.91 17.6142 1433.63 17.7388 1433.39 17.914C1433.14 18.0891 1432.94 18.3113 1432.78 18.5675C1432.62 18.8236 1432.51 19.1087 1432.47 19.4061C1432.47 19.8142 1426.92 60.4401 1414.02 80.8211Z" fill="#CEAF7E"/>
<path d="M1373.18 78.4859C1379.03 81.4785 1389.05 81.4105 1399.72 72.2515C1404.85 67.3659 1408.89 61.4472 1411.57 54.8857C1412.36 53.3645 1413.03 51.7885 1413.59 50.1702C1417.64 39.3883 1420.63 28.2334 1422.5 16.8669C1422.57 16.3087 1422.43 15.7444 1422.1 15.2835C1421.78 14.8226 1421.3 14.4981 1420.75 14.3731L1420.61 14.3731C1420.03 14.2946 1419.44 14.4472 1418.96 14.7986C1418.49 15.15 1418.17 15.6724 1418.08 16.2548C1416.03 28.748 1412.56 40.9646 1407.72 52.664C1400.22 62.7751 1393.92 65.2689 1390.7 65.8583C1389.65 66.1008 1388.57 66.1294 1387.51 65.9424C1386.45 65.7554 1385.44 65.3567 1384.54 64.7701C1383.34 63.8604 1382.4 62.655 1381.81 61.2719C1381.21 59.8889 1380.99 58.3757 1381.16 56.8807C1381.24 56.3058 1381.1 55.7219 1380.76 55.2495C1380.42 54.7771 1379.92 54.4521 1379.35 54.3416C1376.2 53.8791 1373 54.6419 1370.4 56.4727C1369.02 57.6074 1367.9 59.0244 1367.12 60.6279C1366.34 62.2314 1365.91 63.9841 1365.86 65.7676C1365.66 68.3791 1366.24 70.9921 1367.55 73.2623C1368.86 75.5326 1370.82 77.3537 1373.18 78.4859Z" fill="#CEAF7E"/>
<path d="M1339.1 89.0279C1338.97 90.2072 1339.17 91.3994 1339.68 92.4694C1340.2 93.5393 1341 94.444 1342 95.0809C1342.98 95.8823 1344.14 96.448 1345.38 96.7348C1346.61 97.0216 1347.9 97.022 1349.14 96.7359C1350.3 96.3907 1351.35 95.741 1352.17 94.8542C1359.22 98.7309 1384.88 110.61 1403.73 91.0002C1425.1 68.7829 1431.42 5.12355 1431.7 2.42574C1431.71 1.90478 1431.54 1.39492 1431.23 0.982002C1430.91 0.569092 1430.46 0.278335 1429.95 0.158661L1429.68 0.158661C1429.1 0.113655 1428.52 0.296196 1428.07 0.66806C1427.61 1.03992 1427.32 1.57227 1427.25 2.15368C1427.25 2.81113 1420.82 67.0826 1400.54 88.053C1383.74 105.419 1361.33 95.0356 1354.65 91.3176C1355.38 89.9262 1355.72 88.3561 1355.62 86.7835C1355.5 85.744 1355.16 84.7417 1354.63 83.8428C1354.09 82.9439 1353.37 82.169 1352.51 81.5692C1351.51 80.8379 1350.32 80.3963 1349.08 80.2924C1347.85 80.1884 1346.6 80.4262 1345.49 80.9798C1343.85 81.6957 1342.41 82.8039 1341.29 84.2071C1340.18 85.6103 1339.42 87.2656 1339.1 89.0279Z" fill="#CEAF7E"/>
<path d="M1330.31 82.0226C1331.97 82.8816 1333.82 83.3297 1335.69 83.3297C1337.56 83.3297 1339.41 82.8816 1341.07 82.0226C1342.25 81.5091 1343.31 80.7313 1344.14 79.7489C1344.98 78.7665 1345.58 77.6055 1345.9 76.355C1346.51 72.909 1343.9 69.9165 1341.16 66.7426C1339.43 64.8444 1337.91 62.7613 1336.63 60.5308C1333.05 53.7296 1331.69 49.0141 1332.57 46.5203C1332.74 46.078 1333 45.6776 1333.33 45.3482C1333.67 45.0188 1334.08 44.7687 1334.52 44.616C1336.79 43.6638 1337.06 44.1172 1337.51 44.8653C1337.73 45.3125 1338.04 45.7022 1338.44 46.0019C1338.83 46.3017 1339.29 46.5027 1339.78 46.5883C1340.22 46.5972 1340.65 46.5033 1341.04 46.3143C1341.44 46.1253 1341.78 45.8464 1342.05 45.5001C1342.96 44.2213 1343.54 42.7322 1343.72 41.1707C1343.91 39.6092 1343.7 38.026 1343.11 36.5679C1342.65 35.5959 1341.96 34.7479 1341.1 34.0936C1340.25 33.4394 1339.25 32.9976 1338.19 32.8045C1337.39 32.6531 1336.58 32.5772 1335.77 32.5778C1334.15 32.6291 1332.57 33.026 1331.12 33.7415C1329.67 34.4571 1328.38 35.4749 1327.36 36.7265C1322.4 42.3942 1320.13 52.9134 1321.42 65.0876C1322.6 75.9242 1326.91 80.277 1330.31 82.0226Z" fill="#CEAF7E"/>
<path d="M1332.32 87.9171L1331.14 87.6223C1325.41 86.3755 1317.73 87.509 1313.83 91.7484C1306.83 99.3658 1297.72 110.474 1299.28 118.795C1299.64 120.761 1300.71 122.528 1302.28 123.757C1303.86 124.986 1305.83 125.592 1307.83 125.46C1310.52 125.46 1315.8 124.394 1316.41 121.583C1316.48 121.24 1316.48 120.887 1316.41 120.544C1316.34 120.201 1316.21 119.876 1316.01 119.588C1315.26 118.5 1314.01 118.318 1312.56 118.092C1310.99 118.073 1309.48 117.512 1308.28 116.505C1307.77 115.646 1307.6 114.623 1307.83 113.648C1308.57 108.729 1311.97 108.026 1321.72 106.711C1323.98 106.394 1326.68 106.031 1329.51 105.532C1331.14 105.373 1332.72 104.863 1334.13 104.037C1335.54 103.211 1336.76 102.089 1337.69 100.749C1338.97 98.6403 1339.36 96.1153 1338.78 93.7208C1338.26 91.0003 1335.97 88.9826 1332.32 87.9171Z" fill="#CEAF7E"/>
<path d="M1306.72 83.8589C1306.72 85.7859 1307.19 87.0555 1308.42 87.5996C1308.97 87.83 1309.58 87.8795 1310.16 87.741C1310.74 87.6025 1311.27 87.2832 1311.66 86.8287C1312.79 85.7406 1319.91 85.5139 1326.89 86.33C1327.44 86.3808 1327.99 86.2265 1328.44 85.8963C1328.89 85.566 1329.2 85.083 1329.31 84.539C1329.41 83.9917 1329.3 83.4285 1329 82.9563C1328.71 82.484 1328.26 82.1356 1327.72 81.9772C1319.66 79.7328 1319.16 71.0499 1319.16 70.8005C1319.13 70.4524 1319.04 70.1135 1318.87 69.8079C1318.7 69.5023 1318.47 69.2375 1318.18 69.0322C1317.89 68.84 1317.56 68.7175 1317.22 68.6743C1316.87 68.631 1316.52 68.6682 1316.19 68.7829C1309.91 71.0499 1306.87 79.8462 1306.72 83.8589Z" fill="#CEAF7E"/>
<path d="M1304.09 89.3679C1304.61 89.2666 1305.08 88.9837 1305.42 88.569C1305.75 88.1543 1305.93 87.6344 1305.92 87.1009C1305.88 86.6272 1305.68 86.1797 1305.37 85.8216C1305.06 85.4636 1304.64 85.2131 1304.18 85.1058L1303.72 85.1058C1292.53 85.1058 1283.62 90.0027 1279.88 98.4362C1277.05 104.875 1281.24 107.981 1283.51 109.636C1284.06 110.005 1284.56 110.439 1285 110.928C1284.69 111.183 1284.35 111.403 1283.98 111.585C1283.08 112.129 1280.93 113.354 1281.58 115.666C1281.68 115.991 1281.85 116.29 1282.07 116.541C1282.3 116.792 1282.58 116.989 1282.9 117.117C1285.15 117.907 1287.59 117.967 1289.88 117.287C1292.16 116.607 1294.18 115.223 1295.63 113.331C1296.75 111.978 1297.43 110.327 1297.61 108.585C1297.79 106.842 1297.45 105.086 1296.63 103.537C1295.66 101.409 1295.39 99.0274 1295.86 96.7359C1297.22 90.6828 1303.81 89.4133 1304.09 89.3679Z" fill="#CEAF7E"/>
<path d="M1288.72 83.1788C1291.24 80.7531 1298.6 81.3425 1302.64 82.2947C1303.17 82.4119 1303.72 82.3345 1304.2 82.0765C1304.68 81.8185 1305.05 81.3971 1305.24 80.8891C1305.42 80.3799 1305.41 79.8239 1305.22 79.3211C1305.02 78.8184 1304.65 78.4017 1304.18 78.1459C1299.18 75.5353 1293.91 73.4753 1288.47 72.0022C1287.78 71.8411 1287.07 71.72 1286.36 71.6394C1283.1 71.4486 1279.82 71.911 1276.73 72.9997C1273.92 73.8158 1271.5 74.5186 1269.8 73.7705C1269.3 73.5438 1268.67 73.1584 1268.53 72.6823C1268.45 72.0776 1268.6 71.4661 1268.94 70.9593C1269.18 70.5574 1269.3 70.0887 1269.27 69.6185C1269.23 69.1484 1269.05 68.7 1268.76 68.3359C1268.46 67.9718 1268.05 67.7101 1267.6 67.587C1267.14 67.464 1266.66 67.4858 1266.22 67.6494C1264.84 68.2777 1263.59 69.1774 1262.57 70.2951C1261.54 71.4128 1260.75 72.7257 1260.24 74.1559C1259.76 76.1313 1259.72 78.1892 1260.14 80.1783C1260.56 82.1674 1261.42 84.0371 1262.66 85.6499C1263.56 87.2244 1264.82 88.5679 1266.33 89.5749C1267.84 90.5819 1269.56 91.225 1271.36 91.4536C1277.75 92.3378 1284.33 87.4183 1288.72 83.1788Z" fill="#CEAF7E"/>
<path d="M1255.7 49.5581C1259.32 52.9933 1262.37 56.9705 1264.77 61.3469C1267.53 66.6065 1268.46 67.2639 1273.13 67.2866C1276.26 67.2594 1279.38 67.5021 1282.47 68.0121C1290.17 69.1514 1297.58 71.7769 1304.29 75.7428C1304.53 75.9804 1304.82 76.1618 1305.13 76.2738C1305.45 76.3858 1305.79 76.4256 1306.13 76.3904C1306.46 76.3551 1306.78 76.2456 1307.07 76.0699C1307.36 75.8942 1307.6 75.6566 1307.79 75.3745C1307.97 75.0924 1308.09 74.7729 1308.13 74.439C1308.18 74.1052 1308.15 73.7656 1308.05 73.4448C1307.94 73.1239 1307.77 72.83 1307.54 72.5844C1307.31 72.3388 1307.03 72.1476 1306.71 72.0248C1306.13 71.6394 1293.57 63.3419 1288.27 55.4071C1284.14 49.2634 1280 46.6562 1276.35 45.8628C1274.31 45.4272 1272.2 45.5052 1270.21 46.0895C1267.03 46.9736 1260.08 46.0895 1257.67 45.7494C1257.22 45.6992 1256.75 45.7895 1256.35 46.0082C1255.94 46.2268 1255.62 46.5636 1255.41 46.9736C1255.19 47.3826 1255.09 47.85 1255.15 48.3123C1255.2 48.7747 1255.39 49.2096 1255.7 49.5581Z" fill="#CEAF7E"/>
<path d="M1279.52 43.8451C1279.81 44.1405 1280.17 44.3515 1280.57 44.4553C1280.97 44.5592 1281.39 44.552 1281.79 44.4346C1284.85 43.4597 1286.52 44.1398 1290.85 55.0898C1295.18 66.0398 1307.55 70.2792 1308.07 70.4606C1308.51 70.5898 1308.97 70.5855 1309.41 70.4482C1309.84 70.3108 1310.22 70.0467 1310.5 69.6902C1310.78 69.3336 1310.95 68.9009 1310.98 68.4481C1311.01 67.9954 1310.91 67.5434 1310.68 67.1506C1307.75 62.5928 1305.34 57.7179 1303.5 52.6187C1302.96 50.6269 1302.54 48.6059 1302.23 46.5656C1301.07 39.7644 1299.78 32.3057 1293.16 30.4921L1292.71 30.4921C1285.68 28.9731 1280.83 36.7265 1279.11 41.6461C1278.98 42.0166 1278.95 42.414 1279.03 42.7994C1279.1 43.1848 1279.27 43.5451 1279.52 43.8451Z" fill="#CEAF7E"/>
<path d="M1302.91 38.2908C1303.15 38.5447 1303.44 38.7401 1303.77 38.862C1304.09 38.9839 1304.44 39.0289 1304.79 38.9936C1306.24 38.8123 1307.3 38.9936 1307.67 39.3564C1308.62 40.4219 1307.67 44.7747 1306.78 47.9486L1306.24 50.2156C1304.2 59.1479 1313.29 67.5814 1313.67 67.9441C1314.05 68.2761 1314.52 68.4739 1315.02 68.5067C1315.52 68.5396 1316.02 68.4055 1316.44 68.1255C1316.85 67.8319 1317.15 67.4092 1317.29 66.9245C1317.44 66.4397 1317.41 65.9209 1317.23 65.4504C1316.54 63.611 1316.26 61.6408 1316.41 59.6811C1316.57 57.7214 1317.16 55.8206 1318.14 54.115C1321.2 49.5808 1324.07 42.3942 1322.17 36.7266C1321.64 35.2262 1320.77 33.8734 1319.61 32.781C1318.46 31.6886 1317.06 30.8883 1315.53 30.4468C1314.92 30.2427 1314.31 30.084 1313.72 29.948C1311.2 29.2584 1308.52 29.5756 1306.24 30.8322C1305.24 31.4477 1304.38 32.2626 1303.71 33.226C1303.04 34.1894 1302.57 35.2807 1302.34 36.4318C1302.29 36.7643 1302.32 37.1036 1302.41 37.4251C1302.51 37.7467 1302.68 38.0424 1302.91 38.2908Z" fill="#CEAF7E"/>
</g>
<g clip-path="url(#clip1_886_5)">
<path d="M22.9795 80.8211C28.5305 89.1118 35.2995 96.5177 43.0582 102.789C50.9673 109.59 57.7887 115.621 60.6668 124.87C63.4542 133.19 59.9416 140.241 57.1994 145.863C53.8001 152.846 52.531 156.088 57.8567 159.647C58.2165 159.893 58.4977 160.238 58.6665 160.64C58.8353 161.043 58.8846 161.485 58.8085 161.914C58.7015 162.35 58.4679 162.744 58.1371 163.046C57.8064 163.349 57.3933 163.547 56.9502 163.615C51.9192 164.385 43.0809 163.615 41.8345 156.179C41.5738 152.664 42.1163 149.137 43.4208 145.863C44.8712 141.329 46.231 136.795 43.7154 132.964C43.0582 131.944 42.1291 130.697 40.928 128.906C33.3588 118.024 15.6597 92.6325 9.42755 61.2562C5.162 47.7838 2.00892 33.9839 7.68791e-05 19.9955C-0.0651653 19.4441 0.07416 18.8879 0.391627 18.4324C0.709094 17.9769 1.18262 17.6538 1.7224 17.5244L1.9037 17.5244C2.2001 17.4726 2.50385 17.4804 2.79723 17.5473C3.0906 17.6142 3.36772 17.7388 3.61243 17.914C3.85713 18.0891 4.06452 18.3113 4.22249 18.5675C4.38046 18.8236 4.48585 19.1087 4.53251 19.4061C4.53251 19.8142 10.0848 60.4401 22.9795 80.8211Z" fill="#CEAF7E"/>
<path d="M63.817 78.4859C57.9702 81.4785 47.9535 81.4105 37.2796 72.2515C32.1464 67.3659 28.1069 61.4472 25.4273 54.8857C24.6424 53.3645 23.9683 51.7885 23.4103 50.1702C19.3566 39.3883 16.3735 28.2334 14.5041 16.8669C14.4338 16.3087 14.5735 15.7444 14.896 15.2835C15.2185 14.8226 15.7008 14.4981 16.2491 14.3731L16.3851 14.3731C16.9697 14.2946 17.562 14.4472 18.0359 14.7986C18.5099 15.15 18.8282 15.6724 18.9232 16.2548C20.9697 28.748 24.4447 40.9646 29.2798 52.664C36.781 62.7751 43.0811 65.2689 46.2992 65.8583C47.347 66.1008 48.4329 66.1294 49.492 65.9424C50.5511 65.7554 51.5617 65.3567 52.4633 64.7701C53.6611 63.8604 54.6021 62.655 55.1941 61.2719C55.786 59.8889 56.0086 58.3757 55.8399 56.8807C55.7597 56.3058 55.903 55.7219 56.2403 55.2495C56.5776 54.7771 57.0832 54.4521 57.6529 54.3416C60.7995 53.8791 64.0035 54.6419 66.6045 56.4727C67.9807 57.6074 69.0975 59.0244 69.8794 60.6279C70.6613 62.2314 71.0902 63.9841 71.1369 65.7676C71.3437 68.3791 70.7551 70.9921 69.4485 73.2623C68.1418 75.5326 66.1785 77.3537 63.817 78.4859Z" fill="#CEAF7E"/>
<path d="M97.9012 89.0279C98.0315 90.2072 97.8288 91.3994 97.3161 92.4694C96.8034 93.5393 96.0012 94.444 95.0005 95.0809C94.0151 95.8823 92.8598 96.448 91.6226 96.7348C90.3855 97.0216 89.0992 97.022 87.8619 96.7359C86.7001 96.3907 85.6516 95.741 84.8252 94.8542C77.7772 98.7309 52.1236 110.61 33.2687 91.0002C11.8982 68.7829 5.57548 5.12355 5.30354 2.42574C5.28961 1.90478 5.45553 1.39492 5.77335 0.982002C6.09118 0.569092 6.5415 0.278335 7.04852 0.158661L7.32047 0.158661C7.90395 0.113655 8.4822 0.296196 8.93419 0.66806C9.38617 1.03992 9.67683 1.57227 9.74532 2.15368C9.74533 2.81113 16.1814 67.0826 36.4641 88.053C53.2567 105.419 75.6696 95.0356 82.355 91.3176C81.6152 89.9262 81.2778 88.3561 81.3805 86.7835C81.4996 85.744 81.8379 84.7417 82.3731 83.8428C82.9084 82.9439 83.6283 82.169 84.4852 81.5692C85.4905 80.8379 86.6769 80.3963 87.9155 80.2924C89.1541 80.1884 90.3975 80.4262 91.5105 80.9798C93.1527 81.6957 94.5942 82.8039 95.7085 84.2071C96.8227 85.6103 97.5757 87.2656 97.9012 89.0279Z" fill="#CEAF7E"/>
<path d="M106.693 82.0226C105.029 82.8816 103.184 83.3297 101.311 83.3297C99.4385 83.3297 97.5931 82.8816 95.9289 82.0226C94.7453 81.5091 93.6949 80.7313 92.8582 79.7489C92.0215 78.7665 91.4207 77.6055 91.1018 76.355C90.4899 72.909 93.0961 69.9165 95.8382 66.7426C97.5721 64.8444 99.092 62.7613 100.371 60.5308C103.951 53.7296 105.311 49.0141 104.427 46.5203C104.264 46.078 104.005 45.6776 103.667 45.3482C103.33 45.0188 102.924 44.7687 102.478 44.616C100.212 43.6638 99.9401 44.1172 99.4868 44.8653C99.2738 45.3125 98.957 45.7022 98.5627 46.0019C98.1685 46.3017 97.7083 46.5027 97.2206 46.5883C96.7841 46.5972 96.3516 46.5033 95.9579 46.3143C95.5643 46.1253 95.2205 45.8464 94.9544 45.5001C94.0396 44.2213 93.4623 42.7322 93.2761 41.1707C93.0899 39.6092 93.3008 38.026 93.8893 36.5679C94.3526 35.5959 95.0401 34.7479 95.895 34.0936C96.75 33.4394 97.748 32.9976 98.807 32.8045C99.6064 32.6531 100.418 32.5772 101.232 32.5778C102.848 32.6291 104.434 33.026 105.885 33.7415C107.335 34.4571 108.615 35.4749 109.639 36.7265C114.603 42.3942 116.869 52.9134 115.577 65.0876C114.399 75.9242 110.093 80.277 106.693 82.0226Z" fill="#CEAF7E"/>
<path d="M104.677 87.9171L105.855 87.6223C111.589 86.3755 119.271 87.509 123.169 91.7484C130.172 99.3658 139.282 110.474 137.718 118.795C137.361 120.761 136.293 122.528 134.717 123.757C133.141 124.986 131.169 125.592 129.175 125.46C126.478 125.46 121.198 124.394 120.586 121.583C120.515 121.24 120.515 120.887 120.585 120.544C120.655 120.201 120.794 119.876 120.994 119.588C121.742 118.5 122.988 118.318 124.438 118.092C126.006 118.073 127.52 117.512 128.722 116.505C129.233 115.646 129.395 114.623 129.175 113.648C128.427 108.729 125.028 108.026 115.283 106.711C113.017 106.394 110.32 106.031 107.487 105.532C105.859 105.373 104.285 104.863 102.873 104.037C101.461 103.211 100.244 102.089 99.3061 100.749C98.0336 98.6403 97.6428 96.1153 98.2183 93.7208C98.7395 91.0003 101.028 88.9826 104.677 87.9171Z" fill="#CEAF7E"/>
<path d="M130.284 83.8589C130.284 85.7859 129.808 87.0555 128.584 87.5996C128.032 87.83 127.421 87.8795 126.839 87.741C126.257 87.6025 125.733 87.2832 125.344 86.8287C124.211 85.7406 117.095 85.5139 110.115 86.33C109.561 86.3808 109.009 86.2265 108.561 85.8963C108.114 85.566 107.804 85.083 107.69 84.539C107.595 83.9917 107.704 83.4285 107.996 82.9563C108.288 82.484 108.744 82.1356 109.276 81.9772C117.344 79.7328 117.842 71.0499 117.842 70.8005C117.865 70.4524 117.965 70.1135 118.133 69.8079C118.301 69.5023 118.535 69.2375 118.817 69.0322C119.108 68.84 119.439 68.7175 119.785 68.6743C120.131 68.631 120.482 68.6682 120.811 68.7829C127.089 71.0499 130.125 79.8462 130.284 83.8589Z" fill="#CEAF7E"/>
<path d="M132.914 89.3679C132.39 89.2666 131.919 88.9837 131.583 88.569C131.248 88.1543 131.069 87.6344 131.078 87.1009C131.123 86.6272 131.316 86.1797 131.629 85.8216C131.942 85.4636 132.36 85.2131 132.823 85.1058L133.277 85.1058C144.472 85.1058 153.378 90.0027 157.117 98.4362C159.95 104.875 155.758 107.981 153.491 109.636C152.943 110.005 152.441 110.439 151.996 110.928C152.311 111.183 152.653 111.403 153.016 111.585C153.922 112.129 156.075 113.354 155.418 115.666C155.321 115.991 155.153 116.29 154.925 116.541C154.698 116.792 154.417 116.989 154.103 117.117C151.852 117.907 149.409 117.967 147.122 117.287C144.835 116.607 142.821 115.223 141.367 113.331C140.255 111.978 139.567 110.327 139.389 108.585C139.212 106.842 139.553 105.086 140.37 103.537C141.341 101.409 141.61 99.0274 141.141 96.7359C139.781 90.6828 133.186 89.4133 132.914 89.3679Z" fill="#CEAF7E"/>
<path d="M148.278 83.1788C145.763 80.7531 138.397 81.3425 134.364 82.2947C133.833 82.4119 133.278 82.3345 132.799 82.0765C132.321 81.8185 131.951 81.3971 131.757 80.8891C131.58 80.3799 131.589 79.8239 131.785 79.3211C131.98 78.8184 132.348 78.4017 132.823 78.1459C137.82 75.5353 143.086 73.4753 148.527 72.0022C149.222 71.8411 149.926 71.72 150.635 71.6394C153.904 71.4486 157.178 71.911 160.266 72.9997C163.077 73.8158 165.501 74.5186 167.201 73.7705C167.7 73.5438 168.334 73.1584 168.47 72.6823C168.545 72.0776 168.401 71.4661 168.062 70.9593C167.816 70.5574 167.702 70.0887 167.734 69.6185C167.767 69.1484 167.945 68.7 168.244 68.3359C168.543 67.9718 168.949 67.7101 169.403 67.587C169.858 67.464 170.34 67.4858 170.782 67.6494C172.164 68.2777 173.406 69.1774 174.433 70.2951C175.461 71.4128 176.254 72.7257 176.765 74.1559C177.245 76.1313 177.276 78.1892 176.856 80.1783C176.437 82.1674 175.577 84.0371 174.34 85.6499C173.436 87.2244 172.18 88.5679 170.67 89.5749C169.16 90.5819 167.438 91.225 165.637 91.4536C159.247 92.3378 152.675 87.4183 148.278 83.1788Z" fill="#CEAF7E"/>
<path d="M181.298 49.5581C177.683 52.9933 174.625 56.9705 172.233 61.3469C169.468 66.6065 168.539 67.2639 163.871 67.2866C160.744 67.2594 157.62 67.5021 154.534 68.0121C146.828 69.1514 139.416 71.7769 132.71 75.7428C132.472 75.9804 132.183 76.1618 131.866 76.2738C131.548 76.3858 131.21 76.4256 130.875 76.3904C130.54 76.3551 130.217 76.2456 129.93 76.0699C129.642 75.8942 129.398 75.6566 129.214 75.3745C129.03 75.0924 128.911 74.7729 128.866 74.439C128.821 74.1052 128.851 73.7656 128.954 73.4448C129.056 73.1239 129.229 72.83 129.459 72.5844C129.69 72.3388 129.972 72.1476 130.286 72.0248C130.875 71.6394 143.43 63.3419 148.733 55.4071C152.857 49.2634 157.004 46.6562 160.653 45.8628C162.687 45.4272 164.798 45.5052 166.794 46.0895C169.967 46.9736 176.924 46.0895 179.327 45.7494C179.784 45.6992 180.246 45.7895 180.65 46.0082C181.055 46.2268 181.384 46.5636 181.593 46.9736C181.815 47.3826 181.906 47.85 181.853 48.3123C181.8 48.7747 181.606 49.2096 181.298 49.5581Z" fill="#CEAF7E"/>
<path d="M157.48 43.8451C157.191 44.1405 156.828 44.3515 156.429 44.4553C156.029 44.5592 155.609 44.552 155.213 44.4346C152.154 43.4597 150.477 44.1398 146.149 55.0898C141.82 66.0398 129.447 70.2792 128.925 70.4606C128.49 70.5898 128.027 70.5855 127.594 70.4482C127.162 70.3108 126.78 70.0467 126.5 69.6902C126.219 69.3336 126.052 68.9009 126.019 68.4481C125.987 67.9954 126.092 67.5434 126.319 67.1506C129.253 62.5928 131.663 57.7179 133.503 52.6187C134.041 50.6269 134.465 48.6059 134.772 46.5656C135.928 39.7644 137.22 32.3057 143.837 30.4921L144.29 30.4921C151.316 28.9731 156.165 36.7265 157.888 41.6461C158.015 42.0166 158.045 42.414 157.974 42.7994C157.902 43.1848 157.732 43.5451 157.48 43.8451Z" fill="#CEAF7E"/>
<path d="M134.093 38.2908C133.854 38.5447 133.561 38.7401 133.234 38.862C132.908 38.9839 132.558 39.0289 132.212 38.9936C130.761 38.8123 129.696 38.9936 129.334 39.3564C128.382 40.4219 129.334 44.7747 130.218 47.9486L130.761 50.2156C132.801 59.1479 123.713 67.5814 123.328 67.9441C122.952 68.2761 122.477 68.4739 121.977 68.5067C121.476 68.5396 120.979 68.4055 120.563 68.1255C120.152 67.8319 119.85 67.4092 119.707 66.9245C119.563 66.4397 119.585 65.9209 119.77 65.4504C120.464 63.611 120.743 61.6408 120.586 59.6811C120.429 57.7214 119.841 55.8206 118.864 54.115C115.804 49.5808 112.926 42.3942 114.83 36.7266C115.356 35.2262 116.234 33.8734 117.389 32.781C118.544 31.6886 119.943 30.8883 121.47 30.4468C122.082 30.2427 122.694 30.084 123.283 29.948C125.796 29.2584 128.478 29.5756 130.761 30.8322C131.761 31.4477 132.623 32.2626 133.293 33.226C133.964 34.1894 134.429 35.2807 134.659 36.4318C134.709 36.7643 134.683 37.1036 134.585 37.4251C134.487 37.7467 134.319 38.0424 134.093 38.2908Z" fill="#CEAF7E"/>
</g>
<defs>
<clipPath id="clip0_886_5">
<rect width="182" height="164" fill="white" transform="translate(1437 164) rotate(-180)"/>
</clipPath>
<clipPath id="clip1_886_5">
<rect width="182" height="164" fill="white" transform="matrix(1 -8.74228e-08 -8.74228e-08 -1 0 164)"/>
</clipPath>
</defs>
</svg>
