<svg width="279" height="34" viewBox="0 0 279 34" fill="none" xmlns="http://www.w3.org/2000/svg">
<g clip-path="url(#clip0_828_20)">
<path d="M34.4026 20.5654C33.5887 20.5654 32.7893 20.5654 31.9899 20.5654C29.9551 20.6816 27.9203 20.8268 25.9001 20.9575C25.8129 21.0737 25.6821 21.1608 25.6675 21.2625C25.3389 23.915 24.0078 26.3416 21.9468 28.0451C20.4933 29.3087 18.8946 30.3834 17.3539 31.5163C16.9443 31.796 16.4996 32.0206 16.0313 32.1844C15.6875 32.3736 15.3068 32.4861 14.9154 32.5143C14.5239 32.5425 14.131 32.4857 13.7636 32.3477C13.3963 32.2096 13.0632 31.9938 12.7872 31.7149C12.5113 31.436 12.2991 31.1007 12.1652 30.732C10.3629 26.9123 10.7118 23.5428 15.1883 20.5654C15.8207 20.1864 16.476 19.8468 17.1505 19.5487C17.1505 19.418 17.1505 19.2728 17.0196 19.2583C13.4885 18.0761 9.79858 17.4346 6.07533 17.3557H1.80225C1.19181 17.3557 0.537768 17.4428 0 16.7021C0 16.4261 0.130808 16.034 0.232548 15.5111C1.14898 15.3173 2.07588 15.1767 3.0086 15.0899C7.21947 14.8051 11.4496 15.0983 15.5807 15.9614C16.3647 16.129 17.1628 16.2214 17.9644 16.2373C14.129 12.9269 11.3328 8.5793 9.91238 3.7179C9.81311 3.30903 9.7643 2.88959 9.76704 2.46888C9.91775 2.23418 10.1427 2.05661 10.4061 1.96448C10.6695 1.87236 10.9562 1.87098 11.2205 1.96054C11.402 2.00163 11.5778 2.06506 11.7437 2.14935C15.3971 3.87753 18.7449 6.18789 21.6561 8.99001C23.7737 11.1813 25.0765 14.0311 25.3478 17.0652C29.4971 17.243 33.653 16.9359 37.731 16.1502C37.2899 15.8734 36.8338 15.6213 36.3648 15.395C32.6967 13.8076 29.5777 11.1758 27.3971 7.82809C26.7867 6.89857 26.1181 5.99812 25.4641 5.08313C25.197 4.81415 25.0343 4.45908 25.005 4.0813C24.9757 3.70352 25.0818 3.32761 25.3042 3.02074C25.7075 2.91532 26.1227 2.86165 26.5396 2.861C29.5632 3.16569 32.5339 3.86389 35.3764 4.93788C37.3242 5.67619 39.1016 6.80232 40.6007 8.24787C42.0998 9.69342 43.2893 11.4283 44.097 13.3471C44.2714 13.7393 44.4458 14.1314 44.6348 14.5235C44.6348 14.5235 44.722 14.5962 44.8382 14.6688L55.0849 13.1147C51.3343 11.446 47.9321 9.08585 45.0563 6.15787C44.1115 5.17026 43.254 4.11005 42.3965 3.04982C42.1797 2.71673 41.9994 2.36125 41.8587 1.98957C42.0477 1.641 42.2366 1.27793 42.4401 0.871261C42.8213 0.822329 43.2071 0.822329 43.5883 0.871261C46.5122 1.3472 49.3872 2.08606 52.1781 3.07885C55.8674 4.44488 59.038 6.92775 61.2474 10.181C61.8434 11.0524 62.3085 11.9964 62.9189 13.0857L71.8865 13.8119L70.4331 12.8824C67.6487 11.1065 65.2832 8.74775 63.5003 5.96905C62.6863 4.73454 61.8724 3.48553 61.073 2.23649C60.6806 1.64102 60.3899 1.03101 60.8841 0.362923C61.0964 0.173423 61.3597 0.0503596 61.6413 0.00904914C61.9229 -0.0322613 62.2105 0.00999467 62.4683 0.130538C65.4069 0.876246 68.2835 1.84737 71.0726 3.03528C72.2213 3.56822 73.3419 4.15963 74.43 4.80717C77.6056 6.70755 79.9895 9.68785 81.1449 13.2019C81.4152 14.2309 81.9932 15.1531 82.8018 15.8452C85.4391 16.4895 88.1208 16.9362 90.8247 17.1814C90.0689 16.4987 89.6038 16.0195 89.0951 15.5983C85.5013 12.5818 82.999 8.4688 81.9733 3.89217C81.9015 3.6536 81.8433 3.41115 81.7989 3.16599C81.7516 2.99147 81.7428 2.80877 81.7731 2.63052C81.8034 2.45228 81.8721 2.28276 81.9743 2.13362C82.0766 1.98448 82.21 1.85929 82.3654 1.76672C82.5209 1.67414 82.6945 1.61639 82.8745 1.59745C86.7465 2.6561 90.2836 4.68583 93.1502 7.49407C95.5142 9.83636 97.0195 12.9062 97.4233 16.2083C97.4959 16.7021 97.6122 17.1814 97.743 17.7914C101.154 18.0377 104.582 17.7783 107.917 17.0216C107.496 16.6585 107.248 16.4116 106.972 16.2228C104.414 14.4509 102.401 12.0016 101.159 9.14975C100.374 7.465 99.7052 5.75123 98.9058 4.05196C98.7575 3.77305 98.7042 3.45344 98.754 3.14157C98.8039 2.82969 98.9541 2.54253 99.1819 2.32363C100.981 2.34846 102.741 2.84962 104.283 3.776C105.943 4.60783 107.545 5.54912 109.08 6.59361C110.561 7.62333 111.833 8.92438 112.83 10.4278C113.919 11.9953 114.607 13.8054 114.835 15.7C118.411 15.5111 121.739 14.4364 125.242 14.1023L124.399 13.5504C122.963 12.7004 121.58 11.7644 120.257 10.7474C119.073 9.73716 118.107 8.49606 117.42 7.10004C116.733 5.70401 116.338 4.18246 116.26 2.62862C116.26 1.59743 116.26 1.59744 116.899 0.595307C117.142 0.463106 117.415 0.393816 117.691 0.393816C117.968 0.393816 118.24 0.463106 118.483 0.595307C121.482 1.8018 124.276 3.46241 126.768 5.51882C129.354 7.67532 131.316 10.4833 132.451 13.6521C132.543 13.9049 132.65 14.1522 132.771 14.3928L139.573 15.5838L146.389 14.3928C148.051 9.36736 151.621 5.1949 156.331 2.77386C157.992 1.586 159.9 0.786809 161.912 0.435523C162.319 0.675229 162.635 1.04408 162.809 1.48349C162.983 1.9229 163.005 2.40771 162.871 2.861C162.716 4.47016 162.241 6.0323 161.475 7.45617C160.709 8.88005 159.667 10.1371 158.409 11.154C157.428 11.9058 156.404 12.5993 155.342 13.2309C154.877 13.5214 154.383 13.7683 153.889 14.0733C154.049 14.2185 154.121 14.3638 154.223 14.3783L163.409 15.7C163.65 15.7282 163.894 15.7282 164.136 15.7C164.236 15.5314 164.314 15.3508 164.368 15.1626C164.926 12.2094 166.506 9.54639 168.83 7.63931C171.652 5.18746 174.998 3.4138 178.612 2.45434C179.295 2.25101 179.978 2.20743 180.399 3.07885C180.441 3.29476 180.441 3.51653 180.399 3.73243C179.6 5.60599 178.801 7.49407 177.943 9.3531C176.707 12.1483 174.72 14.5464 172.202 16.2809C171.955 16.4407 171.722 16.644 171.446 16.8618C174.658 17.9162 178.064 18.2388 181.417 17.8059C181.651 14.8592 182.653 12.0251 184.324 9.58549C185.551 7.9234 187.021 6.45469 188.684 5.22837C191.017 3.66213 193.569 2.44842 196.256 1.62648L197.143 2.09125C197.376 3.86314 196.082 7.90074 194.512 10.5441C192.844 13.0149 190.804 15.2144 188.466 17.0652C189.81 17.1718 191.163 17.0441 192.463 16.6876C193.756 16.5278 195.006 16.1938 196.227 15.9323C197.052 15.3386 197.643 14.4755 197.899 13.4924C198.553 11.4802 199.599 9.61689 200.976 8.00937C202.353 6.40184 204.033 5.08168 205.922 4.12456C208.168 2.93296 210.524 1.96022 212.956 1.21982C214.075 0.856723 215.209 0.522689 216.343 0.232215C216.822 0.139021 217.308 0.0807796 217.796 0.0579372C217.961 0.152978 218.102 0.283049 218.211 0.438936C218.319 0.594823 218.392 0.772682 218.424 0.959863C218.456 1.14704 218.446 1.33893 218.395 1.52192C218.345 1.70491 218.254 1.87449 218.13 2.0186C215.471 6.37571 212.666 10.6167 208.073 13.2454C207.911 13.3745 207.769 13.5261 207.651 13.6957C207.841 13.746 208.036 13.7752 208.233 13.7828L216.226 13.0857C216.677 12.2433 217.069 11.4154 217.578 10.6457C219.671 7.3891 222.716 4.85404 226.299 3.38383C229.247 2.23601 232.306 1.39408 235.426 0.871261C235.803 0.825642 236.183 0.825642 236.56 0.871261C236.706 0.956439 236.833 1.06993 236.934 1.20506C237.035 1.34018 237.108 1.49419 237.149 1.65799C237.19 1.8218 237.197 1.99209 237.171 2.1588C237.144 2.3255 237.085 2.48524 236.996 2.62862C236.754 3.05963 236.466 3.4637 236.138 3.83407C233.275 7.44661 229.64 10.3743 225.499 12.4031L224.046 13.1293L234.525 14.6833C234.729 14.1895 234.918 13.7392 235.121 13.2309C235.918 11.3407 237.09 9.63144 238.567 8.20616C240.043 6.78088 241.793 5.6691 243.711 4.93788C246.549 3.84203 249.521 3.12895 252.548 2.81743C252.804 2.74574 253.075 2.74572 253.331 2.81743C253.588 2.88914 253.819 3.02983 254.001 3.22409C254.169 3.42903 254.26 3.68558 254.26 3.95028C254.26 4.21498 254.169 4.47153 254.001 4.67647C252.489 7.09447 250.746 9.361 248.798 11.4445C247.229 12.9503 245.421 14.1869 243.449 15.1045C242.911 15.3514 242.388 15.6419 241.458 16.1066C245.476 16.9043 249.573 17.2357 253.667 17.0942C253.798 16.7847 253.9 16.4638 253.972 16.1356C254.531 12.928 256.185 10.013 258.652 7.88619C261.268 5.59446 264.164 3.64249 267.271 2.07671C267.69 1.90178 268.123 1.76091 268.564 1.65551L269.451 2.42526C268.579 7.02928 266.137 11.0669 261.195 16.1066C262.609 16.0705 264.014 15.8707 265.381 15.5111C269.052 14.8828 272.786 14.7023 276.5 14.9738C277.313 15.0676 278.119 15.2132 278.913 15.4095L279.16 16.6295C278.927 16.8183 278.797 17.0216 278.637 17.0362C277.841 17.1423 277.041 17.2053 276.238 17.2249C272.954 17.0886 269.665 17.347 266.442 17.9947C264.989 18.3432 263.463 18.7499 261.602 19.2002C262.358 19.5923 262.78 19.8247 263.201 20.028C264.952 20.8634 266.389 22.2378 267.3 23.9494C267.852 25.1651 268.066 26.5074 267.917 27.8343C267.769 29.1612 267.264 30.4233 266.457 31.4872C266.146 31.8792 265.727 32.171 265.251 32.326C264.776 32.481 264.265 32.4923 263.783 32.3586C263.42 32.2673 263.069 32.1358 262.736 31.9665C259.916 30.5289 257.438 28.5031 255.469 26.0263C254.577 24.9046 253.968 23.5843 253.696 22.1775C253.696 21.8144 253.492 21.4659 253.362 21.0302L244.568 20.4492C245.28 21.0447 245.891 21.553 246.487 22.0759C249.728 24.9806 249.946 28.6115 249.059 32.4894C249.027 32.7901 248.915 33.0767 248.735 33.3197C248.555 33.5627 248.313 33.7533 248.034 33.8717C247.756 33.9901 247.451 34.0321 247.151 33.9934C246.851 33.9546 246.566 33.8365 246.327 33.6512C242.141 31.1822 238.551 28.1322 236.618 23.4846C235.942 22.0317 235.542 20.4654 235.441 18.8661C231.631 17.7776 227.744 16.9814 223.813 16.4842C226.72 19.1276 229.089 21.7563 228.944 25.6487C229.095 27.8113 228.642 29.9733 227.636 31.8939C227.361 32.0561 227.047 32.1417 226.727 32.1417C226.408 32.1417 226.094 32.0561 225.819 31.8939L223.988 30.9934C221.655 29.938 219.654 28.2677 218.2 26.1619C216.745 24.056 215.892 21.5941 215.732 19.0404C215.631 18.2561 215.543 17.4573 215.427 16.5278C212.292 16.3981 209.153 16.6566 206.082 17.2976C206.605 17.6316 206.939 17.8349 207.244 18.0673C208.448 18.9359 209.594 19.8819 210.674 20.8994C211.824 22.1276 212.668 23.6093 213.138 25.2242C213.607 26.8392 213.69 28.542 213.378 30.1946C213.365 30.3819 213.331 30.567 213.276 30.7465C212.898 32.1117 212.07 32.6346 210.776 32.1117C208.206 31.1745 205.853 29.727 203.858 27.8563C202.387 26.3384 201.121 24.6343 200.093 22.7875L198.015 19.0985C195.413 19.418 192.884 20.1442 190.094 20.638C191.14 21.2916 191.998 21.7854 192.812 22.3373C194.087 23.1797 195.124 24.3353 195.824 25.6934C196.524 27.0514 196.863 28.5664 196.809 30.093C196.866 30.4931 196.831 30.9009 196.708 31.2858C196.585 31.6707 196.376 32.0226 196.096 32.3151C195.827 32.472 195.521 32.5547 195.21 32.5547C194.898 32.5547 194.592 32.472 194.323 32.3151C192.87 31.6325 191.504 31.0224 190.152 30.2527C186.616 28.3832 183.788 25.4098 182.1 21.7854C182.015 21.6553 181.918 21.5337 181.809 21.4223L172.58 20.5799L174.528 22.0323C175.555 22.7366 176.412 23.6617 177.036 24.7397C177.66 25.8178 178.034 27.0216 178.132 28.263C178.176 29.0014 178.132 29.7424 178.001 30.4706C177.969 30.7819 177.837 31.0746 177.625 31.3049C177.413 31.5352 177.132 31.6908 176.824 31.7486C173.937 31.0316 171.313 29.5119 169.255 27.3655C167.197 25.2192 165.79 22.5341 165.197 19.6214C164.61 19.265 163.98 18.9867 163.322 18.7935C160.211 18.2561 157.086 17.8059 153.962 17.3411C153.7 17.3202 153.438 17.3202 153.177 17.3411C153.671 17.8059 154.049 18.169 154.441 18.503C155.947 19.8061 157.166 21.4068 158.021 23.2041C158.877 25.0014 159.35 26.9563 159.412 28.9456C159.485 29.9477 159.412 30.9789 157.959 31.4436C151.636 29.0327 147.232 24.7918 145.953 17.6897C144.275 17.4626 142.566 17.6987 141.012 18.3723C140.557 18.586 140.061 18.6968 139.558 18.6968C139.056 18.6968 138.559 18.586 138.105 18.3723C136.583 17.7434 134.937 17.4749 133.294 17.588C133.11 17.9614 132.959 18.3502 132.843 18.7499C132.375 21.0038 131.429 23.131 130.067 24.9877C128.706 26.8444 126.961 28.3872 124.951 29.512C123.977 30.0784 123.004 30.6303 122.044 31.1096C120.794 31.676 119.966 31.2258 119.762 29.8896C119.704 29.4607 119.704 29.0259 119.762 28.597C119.867 26.7048 120.345 24.852 121.168 23.1447C121.991 21.4374 123.143 19.9094 124.559 18.6483L125.823 17.5444C125.823 17.5444 125.823 17.4283 125.823 17.2249C122.505 17.489 119.208 17.9742 115.954 18.6773C115.252 18.8838 114.571 19.1561 113.92 19.4906C112.466 25.8811 108.426 29.6572 102.554 31.676C101.289 31.4727 101.1 30.5577 101.1 29.5992C100.987 28.3912 101.143 27.173 101.557 26.0327C101.972 24.8924 102.635 23.8584 103.499 23.0054C104.141 22.4241 104.821 21.8856 105.533 21.3933L106.696 20.5073L106.9 20.4202L106.711 20.5218L97.3651 21.3933C95.44 25.6454 92.0072 29.0343 87.7289 30.9063C86.2755 31.5598 85.0255 32.7217 83.4413 32.4748C83.1223 32.2775 82.8623 31.9982 82.6885 31.666C82.5146 31.3339 82.4333 30.9611 82.453 30.5868C82.3107 29.033 82.5795 27.4691 83.2325 26.0519C83.8855 24.6346 84.8998 23.4138 86.1737 22.5116C87.0167 21.9016 87.9178 21.3642 88.819 20.7833C86.3495 19.9599 83.7945 19.4191 81.203 19.1711L80.3164 20.6235C79.3862 22.163 78.4851 23.717 77.5113 25.2275C75.3179 28.3445 72.202 30.6962 68.6018 31.952C67.1484 32.5329 66.2763 32.0972 65.9856 30.5868C65.5881 28.9755 65.5785 27.293 65.9574 25.6772C66.3364 24.0615 67.0932 22.5586 68.1658 21.2916C69.246 20.1888 70.4124 19.1738 71.654 18.2561C72.116 17.9212 72.6018 17.6203 73.1074 17.3557C70.003 16.6936 66.8341 16.3818 63.6601 16.4261C63.6601 17.0652 63.5293 17.5881 63.5003 18.1254C63.384 21.1155 62.4103 24.0092 60.6951 26.462C59.6423 28.0048 58.2503 29.2866 56.6255 30.2091C55.4919 30.8482 54.3291 31.4146 53.1373 31.9665C52.7015 32.0928 52.2531 32.1707 51.8002 32.1989C50.3467 30.6303 50.463 28.6406 50.2159 26.7961C49.957 24.8747 50.3185 22.9208 51.2479 21.2189C52.2835 19.4287 53.6613 17.8594 55.3029 16.6004C51.4846 17.022 47.7043 17.7358 43.9953 18.7354C43.9081 19.0259 43.8063 19.2437 43.7627 19.4761C43.071 23.6102 40.9524 27.3717 37.7746 30.1075C36.3212 31.3275 34.7805 32.3006 33.2835 33.4189C33.0206 33.6956 32.6806 33.8868 32.3076 33.968C31.9345 34.0491 31.5457 34.0163 31.1915 33.8738C30.8374 33.7313 30.5343 33.4857 30.3216 33.1689C30.1089 32.8521 29.9964 32.4787 29.9988 32.0972C29.2866 27.9725 29.7371 24.1528 33.4434 21.4223C33.7778 21.1536 34.0889 20.8572 34.3736 20.5363L34.4026 20.5654ZM41.4808 19.4471C41.0594 19.513 40.6488 19.6351 40.26 19.8101C38.4432 20.8559 36.6409 21.9306 34.8677 23.0635C34.1992 23.5088 33.5973 24.0467 33.08 24.6611C32.3337 25.5676 31.861 26.6676 31.7168 27.8326C31.5727 28.9976 31.7632 30.1795 32.2661 31.2403C32.445 31.2257 32.6211 31.1866 32.7893 31.1241C36.6855 28.7658 39.6516 25.1403 41.1901 20.8559C41.3157 20.3794 41.4032 19.8938 41.4518 19.4035L41.4808 19.4471ZM61.4655 16.4261C61.1518 16.2462 60.7897 16.1691 60.4299 16.2056C60.0701 16.2421 59.7308 16.3903 59.4597 16.6295C57.5302 17.8439 55.7707 19.309 54.2274 20.9866C53.1449 22.1952 52.491 23.7265 52.367 25.3437C52.382 26.8708 52.5426 28.393 52.8466 29.8896C55.5366 28.8636 57.8259 27.0016 59.3775 24.5779C60.9291 22.1542 61.661 19.2967 61.4655 16.4261ZM217.404 16.4261C217.549 23.0635 220.979 28.3937 226.124 29.8896C226.255 28.8439 226.371 27.8127 226.488 26.7816C226.653 25.6748 226.548 24.5444 226.181 23.4872C225.814 22.4299 225.196 21.4772 224.38 20.7107C222.927 19.2583 221.183 17.9947 219.54 16.7021C219.252 16.4494 218.895 16.2883 218.514 16.2391C218.134 16.19 217.747 16.2551 217.404 16.4261ZM64.1834 2.84646C66.4943 8.65595 74.2266 13.899 79.27 13.8409C78.4675 11.3705 76.8934 9.22233 74.7789 7.71192C71.5643 5.47407 67.9764 3.8265 64.1834 2.84646ZM199.468 14.2186C202.749 13.6497 205.855 12.3313 208.542 10.3664C211.23 8.40138 213.427 5.8428 214.962 2.89003C214.647 2.93303 214.336 3.00104 214.032 3.09339C211.779 3.96481 209.483 4.73457 207.317 5.78028C205.835 6.5498 204.445 7.48531 203.175 8.56881C201.439 10.0726 200.156 12.0286 199.468 14.2186ZM77.0898 18.0528C74.5534 18.7767 72.2199 20.0793 70.2732 21.858C69.3691 22.7115 68.6656 23.7546 68.2132 24.9123C67.7608 26.07 67.5709 27.3136 67.6571 28.5534C67.7176 28.9646 67.8198 29.3685 67.9623 29.7589C72.1046 28.4663 77.6712 22.4971 78.6159 18.4304L77.0898 18.0528ZM211.081 29.9187C211.433 28.512 211.408 27.0378 211.01 25.6436C210.612 24.2494 209.855 22.9841 208.814 21.9742C206.867 20.1227 204.505 18.7632 201.925 18.0092L200.166 18.5902C202.753 23.4701 205.776 27.7111 211.081 29.9187ZM28.0802 5.11216C30.5656 10.239 38.1089 15.5837 42.0186 15.0899C42.0395 14.9698 42.0395 14.847 42.0186 14.7268C41.9854 14.547 41.9318 14.3716 41.8587 14.204C41.1479 12.3379 39.9603 10.6905 38.4141 9.4257C35.384 7.14809 31.8313 5.66512 28.0802 5.11216ZM236.822 15.2788C237.191 15.2927 237.561 15.2684 237.926 15.2062C243.086 13.565 247.519 10.849 250.411 6.15787C250.594 5.81838 250.759 5.4693 250.905 5.11216C247.58 5.62301 244.397 6.82 241.56 8.62692C240.253 9.47022 239.139 10.5786 238.29 11.8802C237.509 12.8762 236.985 14.0481 236.763 15.2933L236.822 15.2788ZM194.672 4.28434C188.321 6.52099 183.989 11.8221 183.946 17.254C188.539 15.6564 193.844 9.32404 194.614 4.29883L194.672 4.28434ZM95.0251 17.3557C95.3158 12.1998 90.1561 5.91096 84.4151 4.42954C84.7639 8.77213 88.9789 14.0878 94.996 17.3121L95.0251 17.3557ZM255.658 20.7833C255.978 24.1818 260.149 28.6987 264.175 30.1075C264.576 29.7418 264.899 29.2991 265.125 28.8058C265.351 28.3126 265.475 27.7789 265.49 27.2367C265.505 26.6944 265.41 26.1548 265.212 25.6499C265.013 25.145 264.715 24.6852 264.335 24.298C263.678 23.5588 262.931 22.9049 262.111 22.3518C260.647 21.3739 259.017 20.6702 257.3 20.2749L255.658 20.7833ZM14.8831 30.2237C17.2553 28.9662 19.3899 27.305 21.191 25.3146C21.8475 24.5049 22.4174 23.6287 22.8915 22.7004C23.2556 22.0995 23.4043 21.3926 23.313 20.6961L21.5689 20.2459C19.0692 20.8528 16.7795 22.1222 14.9412 23.9204C13.1099 25.852 13.0372 27.7837 14.8831 30.2237ZM246.734 31.4582C247.361 30.1619 247.529 28.691 247.209 27.2869C246.89 25.8829 246.102 24.6291 244.975 23.7316C242.84 22.0296 240.502 20.6002 238.013 19.4761C237.868 19.4035 237.679 19.4761 237.374 19.4761C238.787 24.5491 242.152 28.8569 246.734 31.4582ZM112.306 16.1647C112.444 15.6909 112.479 15.1932 112.408 14.7048C112.338 14.2165 112.165 13.7486 111.899 13.3326C111.04 11.4596 109.702 9.8464 108.019 8.65595C106.289 7.465 104.429 6.46288 102.612 5.40265C102.243 5.24492 101.858 5.12804 101.464 5.0541C102.315 7.6077 103.609 9.99192 105.286 12.0981C106.62 13.6547 108.232 14.95 110.039 15.9178C110.357 16.1641 110.738 16.3176 111.138 16.3612C111.538 16.4047 111.942 16.3368 112.306 16.1647ZM166.694 16.1647C166.97 16.3227 167.283 16.4057 167.602 16.4057C167.921 16.4057 168.234 16.3227 168.51 16.1647C169.106 15.8452 169.702 15.5257 170.269 15.1626C173.448 12.9586 175.849 9.80693 177.129 6.15787C177.232 5.78105 177.31 5.39776 177.362 5.01053C175.003 5.9714 172.788 7.25178 170.778 8.81573C169.102 10.1092 167.778 11.802 166.926 13.7392C166.714 14.1026 166.583 14.5077 166.543 14.9264C166.503 15.3452 166.554 15.7677 166.694 16.1647ZM218.77 12.7662C223.857 12.1998 232.142 6.86954 233.522 3.3548C226.909 4.2117 220.921 7.55217 218.77 12.7662ZM60.2591 12.8533C58.2243 7.81359 51.2624 3.45645 45.4051 3.47097C47.8178 7.53761 54.7216 11.9093 60.2591 12.8533ZM118.265 2.97717C118.277 3.40584 118.321 3.83303 118.396 4.25527C118.725 5.64856 119.333 6.96109 120.182 8.1141C121.031 9.26712 122.105 10.2369 123.338 10.9652C125.225 12.0318 127.165 13.0013 129.152 13.87C129.49 13.985 129.842 14.0534 130.198 14.0733C128.788 9.81786 122.945 4.38597 118.265 2.97717ZM160.807 2.90457C155.735 4.5748 149.732 10.2536 148.933 13.9862C149.049 13.9862 149.18 14.1314 149.267 14.0878C151.966 13.1924 154.504 11.8683 156.781 10.1664C157.904 9.28602 158.838 8.18984 159.53 6.9426C160.221 5.69536 160.656 4.32234 160.807 2.90457ZM12.4413 4.6329C12.6012 5.25742 12.6303 5.48978 12.7175 5.70764C14.2826 9.70208 16.9236 13.1857 20.348 15.7726C20.7988 16.1238 21.2861 16.4257 21.8014 16.6731C22.237 16.8117 22.6847 16.9089 23.1386 16.9635C23.1467 16.4291 23.1127 15.8949 23.0368 15.3659C22.6043 13.2286 21.5472 11.2676 19.9992 9.73073C17.7781 7.627 15.2245 5.90451 12.4413 4.6329ZM266.573 4.82171C263.254 6.09261 260.313 8.18683 258.027 10.9071C257.191 11.9817 256.565 13.2034 256.181 14.509C255.9 15.2831 255.865 16.1249 256.079 16.9199C257.507 16.69 258.806 15.9587 259.742 14.8576C262.904 12.202 265.268 8.7233 266.573 4.80717V4.82171ZM131.186 17.7042C125.823 19.0404 121.783 23.9349 122.088 28.5244C124.333 27.539 126.322 26.0506 127.9 24.1743C129.477 22.2981 130.602 20.0843 131.186 17.7042ZM156.927 28.5534C156.835 26.0013 155.89 23.5534 154.244 21.6001C152.598 19.6469 150.344 18.3009 147.843 17.7768C148.432 20.1475 149.557 22.3517 151.132 24.2199C152.706 26.0881 154.689 27.5706 156.927 28.5534ZM94.6181 21.2916C94.2031 21.2405 93.7833 21.2405 93.3682 21.2916C91.2601 21.7633 89.2555 22.6147 87.4527 23.8042C86.7392 24.293 86.1024 24.8854 85.5633 25.5616C85.0769 26.1516 84.726 26.8411 84.5351 27.5813C84.3443 28.3216 84.3182 29.0946 84.4587 29.846C88.7172 28.1903 93.906 24.0511 94.6181 21.3206V21.2916ZM194.483 29.7444C194.64 28.7389 194.522 27.7098 194.14 26.7662C193.759 25.8226 193.129 24.9998 192.318 24.3851C190.248 22.8078 187.84 21.7337 185.283 21.248C184.984 21.2053 184.681 21.2053 184.382 21.248C184.934 23.9204 190.544 28.4518 194.483 29.7734V29.7444ZM175.807 29.0472C175.938 28.0206 175.776 26.9777 175.339 26.0395C174.901 25.1012 174.207 24.306 173.336 23.7461C171.812 22.8116 170.24 21.9584 168.627 21.1899C168.329 21.104 168.021 21.06 167.711 21.0592C168.423 22.8878 169.512 24.5464 170.906 25.9275C172.301 27.3086 173.97 28.3814 175.807 29.0763V29.0472ZM103.019 29.0472C104.901 28.3647 106.614 27.2867 108.043 25.8862C109.472 24.4856 110.584 22.795 111.304 20.9285C108.841 21.5998 106.567 22.8327 104.661 24.5303C103.556 25.8033 102.979 27.4503 103.048 29.1344L103.019 29.0472Z" fill="#514338"/>
</g>
<defs>
<clipPath id="clip0_828_20">
<rect width="279" height="34" fill="white"/>
</clipPath>
</defs>
</svg>
