<svg width="1440" height="304" viewBox="0 0 1440 304" fill="none" xmlns="http://www.w3.org/2000/svg">
<g clip-path="url(#clip0_889_8)">
<path d="M2.42776 161.633C3.56812 163.336 4.98059 164.843 6.6096 166.095L8.25835 302.959C8.25636 303.095 8.28165 303.23 8.33273 303.356C8.38381 303.482 8.45968 303.597 8.55591 303.694C8.65215 303.791 8.76683 303.868 8.8933 303.92C9.01976 303.973 9.15548 304 9.29257 304C9.42768 304 9.56146 303.973 9.6861 303.922C9.81075 303.87 9.92378 303.794 10.0186 303.698C10.1135 303.603 10.1882 303.49 10.2386 303.365C10.2889 303.241 10.3138 303.108 10.3118 302.974L8.67804 167.598C12.041 169.556 15.887 170.545 19.7847 170.454C19.5898 172.596 18.6755 178.22 14.4037 187.16C8.82793 198.779 10.7015 213.105 15.1981 219.889C17.7462 223.742 24.0115 222.552 22.4527 215.693C21.8981 213.269 19.7997 218.565 16.5621 213.492C13.3245 208.419 23.1571 188.395 23.7117 170.082C25.2776 169.799 26.8169 169.386 28.3132 168.848C30.7864 182.876 31.5658 198.199 27.6238 211.826C27.0242 213.908 26.4396 215.902 25.8851 217.776C19.8896 238.454 16.3523 250.504 20.4442 261.334C18.4465 266.279 17.0282 271.435 16.2173 276.702C14.8534 291.816 24.0714 305.577 31.7906 302.081C39.5098 298.585 35.208 289.778 33.0497 289.778C30.8913 289.778 21.3435 297.797 20.0245 279.856C19.8828 275.297 20.997 270.786 23.247 266.809C24.1558 268.221 25.1572 269.573 26.2448 270.855C32.645 278.532 40.7688 278.204 45.7301 275.586C50.6914 272.968 53.1195 268.46 51.8755 264.116C51.5029 262.373 50.5544 260.802 49.1805 259.654C47.8066 258.506 46.0859 257.846 44.2912 257.779C42.9336 257.75 41.6032 258.159 40.5002 258.945C39.3973 259.731 38.5815 260.852 38.1758 262.138C37.1865 265.544 38.8203 267.523 39.9594 268.192C40.8727 268.706 41.9182 268.942 42.9656 268.871C44.013 268.8 45.0161 268.424 45.85 267.791C47.139 266.616 47.6636 265.351 46.8842 264.042C46.6368 263.536 46.205 263.143 45.6762 262.941C45.1475 262.739 44.5613 262.745 44.0364 262.956C42.8223 263.64 43.0921 266.839 41.0386 265.842C39.9744 265.351 39.7346 264.191 40.1693 262.703C40.4367 261.839 40.9846 261.088 41.7275 260.566C42.4705 260.044 43.3666 259.78 44.2762 259.817C45.6268 259.878 46.917 260.39 47.9373 261.271C48.9576 262.151 49.6482 263.348 49.897 264.667C50.8562 268.059 48.8178 271.748 44.8158 273.831C40.4691 276.092 33.4094 276.345 27.7886 269.606C26.5008 268.08 25.3475 266.448 24.3412 264.726C32.4051 250.192 48.8777 233.277 52.3701 211.469C55.0081 195.104 48.9527 177.773 41.3384 160.666C47.2436 155.046 51.0669 147.614 52.1902 139.571C54.7233 123.103 47.6187 103.867 32.7049 86.8933C7.95859 58.7173 6.90939 17.7922 6.87941 16.498L6.69955 0.996731C6.69958 0.734951 6.59584 0.483639 6.41073 0.297146C6.22563 0.110653 5.97403 0.00390214 5.7103 -4.13403e-06C5.45248 -0.000706061 5.20397 0.0956074 5.01485 0.269527C4.82572 0.443447 4.71003 0.682033 4.69107 0.937221C4.11317 10.1561 4.22339 19.4047 5.02082 28.6074L6.44473 147.039C5.11704 147.526 3.86555 148.197 2.72753 149.032C-0.794809 151.457 -0.959689 156.649 2.42776 161.633ZM7.79372 93.9447C7.76987 93.6606 7.86069 93.3788 8.04621 93.1612C8.23173 92.9436 8.49675 92.808 8.78297 92.7843C9.06919 92.7607 9.35316 92.8508 9.57241 93.035C9.79166 93.2191 9.92824 93.4821 9.95209 93.7662C11.8407 105.221 14.5836 120.291 17.1766 128.384C17.5813 129.618 18.046 131.047 18.5856 132.653C22.2012 143.048 25.1844 153.649 27.5188 164.4C26.2345 164.919 24.8903 165.279 23.5169 165.471C23.1463 156.485 21.3297 147.615 18.1359 139.199C12.8599 126.152 12.0655 111.603 11.0313 111.603C9.99705 111.603 11.9306 126.479 15.7527 138.381C19.6348 150.535 20.3243 154.745 20.2493 165.426C19.3152 165.318 18.4015 165.078 17.5364 164.712C16.0205 164.095 14.6941 163.095 13.6894 161.811C12.6847 160.526 12.0369 159.003 11.8107 157.393C11.658 156.384 11.7836 155.354 12.1742 154.411C12.5649 153.468 13.2059 152.647 14.029 152.037C14.1989 151.915 14.3272 151.744 14.3968 151.547C14.4664 151.35 14.4741 151.137 14.4187 150.936C14.1367 150.032 13.6574 149.201 13.0149 148.502C12.3724 147.802 11.5826 147.252 10.7015 146.89C9.94988 146.638 9.15397 146.541 8.36328 146.607L7.79372 93.9447ZM19.4249 168.327C15.5807 168.366 11.8177 167.228 8.64806 165.069L8.45321 148.63C8.99839 148.57 9.55039 148.625 10.072 148.794C11.0484 149.177 11.8343 149.925 12.2603 150.877C11.3165 151.715 10.5947 152.771 10.1582 153.951C9.72177 155.132 9.58407 156.4 9.75723 157.646C10.0332 159.606 10.82 161.46 12.0398 163.026C13.2596 164.591 14.8701 165.813 16.712 166.571C20.3166 167.964 24.3292 167.889 27.8786 166.363C27.8714 166.467 27.8714 166.572 27.8786 166.676C25.1833 167.727 22.3204 168.291 19.4249 168.342L19.4249 168.327ZM20.5191 131.999L19.1252 127.759C18.1059 124.575 17.2066 121.005 16.4272 117.345C16.3934 117.223 16.41 117.092 16.4732 116.982C16.5365 116.872 16.6412 116.791 16.7645 116.758C16.8877 116.724 17.0193 116.741 17.1303 116.803C17.2414 116.866 17.3227 116.97 17.3565 117.092C21.3435 129.589 27.5788 145.923 32.3452 161.647C31.3824 162.31 30.3814 162.916 29.3475 163.462C27.0297 152.816 24.0818 142.315 20.5191 132.014L20.5191 131.999ZM29.7971 165.649C30.9177 165.1 32.0039 164.484 33.0497 163.804L33.1846 164.161C32.1102 164.791 31.0046 165.367 29.8721 165.887C29.8421 165.828 29.8271 165.649 29.7971 165.649ZM39.5098 199.166C38.7154 217.017 28.2683 240.478 21.6133 258.121C19.0952 248.317 22.4077 236.922 27.8336 218.327C28.4032 216.393 28.9727 214.399 29.5873 212.376C33.6642 198.258 32.8098 182.445 30.2318 168.059C31.4431 167.535 32.6241 166.944 33.7691 166.289C37.3964 178.621 39.9145 190.344 39.5098 199.166ZM31.1461 88.2917C45.6702 104.775 52.6099 123.385 50.1668 139.258C49.119 146.577 45.7115 153.362 40.4541 158.598L39.8395 157.274C53.4493 137.652 32.0155 97.7084 21.5234 80.3774C16.9014 72.4825 13.4581 63.9638 11.3011 55.0874C11.2744 54.9667 11.2947 54.8404 11.3578 54.7338C11.4209 54.6272 11.5222 54.5481 11.6414 54.5124C11.7607 54.4767 11.8891 54.487 12.0011 54.5412C12.1131 54.5954 12.2003 54.6895 12.2454 54.8048C16.3292 67.0644 22.7455 78.4322 31.1461 88.2917ZM19.7847 81.4931C26.9193 93.2306 36.2722 110.666 40.2742 127.134C43.272 139.243 42.7174 148.63 38.7754 155.191C33.1996 143.082 27.2041 131.151 23.337 119.785C17.605 102.104 12.7824 84.1445 8.88789 65.977C7.87458 61.4375 7.33712 56.8061 7.28411 52.1568C7.28369 52.0104 7.3377 51.8689 7.43579 51.7595C7.53389 51.6501 7.66918 51.5805 7.81578 51.5639C7.96239 51.5473 8.11 51.585 8.23037 51.6697C8.35075 51.7544 8.43543 51.8801 8.46821 52.0229C10.6492 62.3589 14.4688 72.2859 19.7847 81.4336L19.7847 81.4931ZM3.85169 150.743C4.64895 150.156 5.5084 149.657 6.41475 149.255L6.53466 163.418C5.61087 162.52 4.79138 161.522 4.0915 160.442C1.49846 156.56 1.37855 152.424 3.85169 150.683L3.85169 150.743Z" fill="#CEAF7E"/>
</g>
<g clip-path="url(#clip1_889_8)">
<path d="M42.0519 13.6946C55.4067 23.0446 73.7157 35.8636 85.3141 32.2128C87.29 31.538 89.0742 30.3994 90.5161 28.8928C91.9579 27.3863 93.0152 25.5561 93.5987 23.5567C93.7019 23.2797 93.709 22.9762 93.6189 22.6948C93.5288 22.4133 93.3467 22.17 93.1016 22.0038C92.8525 21.8349 92.5536 21.7544 92.2531 21.7754C91.9525 21.7964 91.6678 21.9176 91.4447 22.1195C90.1325 23.2226 88.5562 23.9682 86.8692 24.2838C85.1822 24.5993 83.442 24.474 81.818 23.9201C79.6772 23.0934 77.5812 22.156 75.5383 21.1118C74.5607 20.6162 73.6825 20.1867 72.8375 19.8233L74.4944 18.9147C74.6836 18.8065 74.8431 18.6533 74.9587 18.4689C75.0743 18.2845 75.1425 18.0745 75.1572 17.8575C75.1746 17.6438 75.1383 17.4291 75.0515 17.233C74.9647 17.0368 74.8302 16.8654 74.6601 16.7342C65.617 10.058 55.315 5.27083 44.3716 2.65962C36.8649 0.975272 29.2002 0.089285 21.5061 0.0165151C21.413 -0.000193238 21.3176 -0.000193246 21.2245 0.0165151C16.2884 -0.0739051 11.3516 0.152325 6.44472 0.69381C6.17054 0.730606 5.91416 0.849968 5.70986 1.03595C5.50556 1.22192 5.36308 1.46565 5.30145 1.73453C5.28549 1.86621 5.28549 1.99932 5.30145 2.13099C5.33106 2.4728 5.49283 2.78973 5.75257 3.01478C6.0123 3.23982 6.34964 3.35534 6.69326 3.33691C6.89208 3.33691 26.0461 2.42835 41.9028 13.5294L42.0519 13.6946ZM43.3443 11.3653C38.4811 7.99574 33.1199 5.40401 27.4545 3.68382C45.8463 7.81367 61.5373 20.8144 61.7196 20.9631C61.9933 21.1292 62.3181 21.1907 62.6338 21.1364C62.9496 21.0821 63.2349 20.9156 63.437 20.6678C63.6392 20.4199 63.7444 20.1074 63.7333 19.7882C63.7221 19.4689 63.5954 19.1645 63.3765 18.9312C55.6325 12.7336 47.0044 7.72261 37.7771 4.06377C39.7488 4.39416 41.7206 4.7741 43.7254 5.23665C53.6262 7.65296 62.999 11.8578 71.3794 17.6427L68.8775 19.0964C68.6307 19.2323 68.4345 19.4439 68.318 19.6999C68.2016 19.9559 68.1712 20.2425 68.2313 20.5171C68.2926 20.7919 68.4393 21.0404 68.6505 21.2273C68.8618 21.4141 69.1267 21.5298 69.4077 21.5578C71.1605 21.9148 72.8407 22.5626 74.3784 23.4741C76.5005 24.5645 78.6797 25.5406 80.9067 26.398C83.551 27.3849 86.4641 27.3849 89.1085 26.398C87.9625 27.9253 86.362 29.0526 84.5354 29.6193C74.1796 32.9232 55.7712 19.9885 43.5929 11.4479L43.3443 11.3653Z" fill="#CEAF7E"/>
<path d="M32.0448 24.1348C38.8548 29.3715 43.7593 35.7975 48.5146 42.0253C58.7047 55.373 68.3148 67.9773 94.577 69.1006C118.901 70.1248 128.792 58.776 132.52 51.9205C137.127 43.4791 137.16 33.1379 132.603 26.7119C130.498 23.6983 127.502 21.4148 124.033 20.18C120.563 18.9451 116.794 18.8204 113.25 19.8233C107.832 21.3431 104.137 25.1921 103.839 29.7349C103.243 38.0937 109.489 40.836 112.803 41.1168C113.101 41.1396 113.398 41.0626 113.647 40.8981C113.896 40.7335 114.083 40.4907 114.178 40.2082C114.675 38.7791 115.649 37.5632 116.936 36.7634C118.224 35.9637 119.748 35.6286 121.253 35.8141C124.17 36.0784 127.566 38.2424 128.362 43.5617C128.65 45.9363 128.396 48.3452 127.618 50.6081C126.841 52.8709 125.56 54.9291 123.871 56.6285C120.723 59.9324 113.317 65.4994 99.0175 64.4257C81.8021 63.1206 71.0984 49.5582 68.2154 45.5275L69.8723 44.6519C70.0283 44.5732 70.1672 44.4645 70.2808 44.3321C70.3945 44.1996 70.4808 44.046 70.5347 43.8802C70.5886 43.7144 70.6091 43.5396 70.5949 43.3658C70.5808 43.1921 70.5323 43.0228 70.4522 42.8678C58.8207 19.6085 18.3587 8.78831 6.16375 5.99653C4.98989 5.59934 3.77093 5.34962 2.53509 5.25316C2.22526 5.24545 1.92229 5.3449 1.67765 5.53461C1.433 5.72432 1.26177 5.99259 1.19298 6.29388C1.19298 6.29388 1.19298 6.393 1.19298 6.44256C1.1621 6.77256 1.25515 7.10224 1.45412 7.36775C1.65308 7.63327 1.94382 7.81571 2.26999 7.87974C2.26999 7.87974 3.54581 8.12754 5.58382 8.6066C9.77583 9.91163 18.3587 13.6285 32.0448 24.1348ZM131.029 43.1817C130.002 36.3262 125.445 33.5179 121.519 33.171C119.624 32.9822 117.717 33.3726 116.051 34.2903C114.385 35.208 113.038 36.6094 112.19 38.3085C110.251 37.8459 106.076 36.1114 106.523 29.834C106.755 26.5302 109.688 23.5897 113.996 22.3838C117.001 21.5291 120.197 21.6281 123.143 22.6671C126.088 23.7062 128.636 25.6337 130.433 28.1821C133.249 32.1302 134.028 37.8625 132.802 43.5617C132.341 45.6962 131.618 47.7657 130.648 49.7234C131.204 47.5888 131.333 45.3661 131.029 43.1817ZM23.7271 13.8432C52.6569 31.486 62.2008 50.8302 62.2836 51.0284C62.4352 51.3461 62.7072 51.5906 63.0397 51.7084C63.3722 51.8261 63.7379 51.8073 64.0565 51.6562C64.3751 51.505 64.6204 51.2339 64.7385 50.9024C64.8566 50.5709 64.8378 50.2062 64.6862 49.8886C64.3548 49.1617 56.9815 34.1126 35.1433 18.2539C48.1832 23.8705 61.4386 31.932 67.6023 42.9009L65.7632 43.8425C65.595 43.929 65.4473 44.0504 65.3301 44.1986C65.213 44.3468 65.129 44.5183 65.0838 44.7015C65.0354 44.875 65.0222 45.0565 65.0449 45.2352C65.0677 45.4139 65.126 45.5862 65.2164 45.7422C65.6637 46.4856 75.5555 62.7242 94.1296 66.4741C69.5244 65.2351 60.345 53.2585 50.6355 40.4725C45.7807 34.1126 40.694 27.5378 33.6686 22.0864C29.2939 18.6908 24.7361 15.5364 20.0156 12.6373L23.7271 13.8432Z" fill="#CEAF7E"/>
<path d="M62.8147 81.9858C63.7833 81.1885 64.5047 80.1332 64.8948 78.9428C65.285 77.7525 65.3278 76.4761 65.0184 75.2624C64.8406 74.3424 64.448 73.4771 63.8722 72.7366C63.2965 71.9961 62.5539 71.4013 61.7045 71.0004C60.7334 70.6884 59.7092 70.5744 58.693 70.6652C57.6768 70.756 56.6893 71.0498 55.7893 71.529C55.6326 71.6114 55.4953 71.7262 55.3867 71.8658C55.2781 72.0054 55.2007 72.1666 55.1597 72.3384C55.1087 72.5054 55.0926 72.681 55.1126 72.8543C55.1325 73.0277 55.1881 73.1951 55.2757 73.3461C55.976 74.3434 56.2958 75.5574 56.1773 76.7691C56.0588 77.9807 55.5098 79.1103 54.6295 79.9539C52.5252 81.8371 48.0018 82.5474 42.1529 78.3019C36.3039 74.0565 35.9228 66.1767 35.3429 56.7276C34.9287 49.8555 34.4648 42.0419 31.6646 34.9716C24.9872 18.2705 2.66847 11.068 1.7903 10.7706C1.47518 10.6588 1.12928 10.6698 0.821975 10.8015C0.514678 10.9333 0.268699 11.176 0.133376 11.481C0.0903462 11.5708 0.0570286 11.665 0.0339649 11.7618C-0.0230801 12.0262 0.00366855 12.3018 0.110526 12.5503C0.217383 12.7989 0.399069 13.0083 0.630461 13.1494C19.2874 24.9939 19.2211 32.4606 19.0388 50.4833C18.8234 74.2712 35.4423 82.2996 42.6002 84.6454C51.4979 87.5693 59.302 85.3227 62.8147 81.9858ZM56.4024 81.9858C57.5525 80.9779 58.3481 79.6288 58.6724 78.1368C58.9875 76.5807 58.8377 74.9668 58.2416 73.4948C59.0261 73.2304 59.8761 73.2304 60.6607 73.4948C61.1347 73.7514 61.5438 74.1124 61.8567 74.5504C62.1697 74.9884 62.3783 75.4918 62.4667 76.0223C62.6221 76.7758 62.565 77.5576 62.3018 78.2808C62.0386 79.004 61.5795 79.6403 60.9755 80.1191C59.2527 81.6075 57.1565 82.601 54.9112 82.9935C55.4774 82.702 56.0014 82.3352 56.4687 81.9032L56.4024 81.9858ZM21.6733 50.5163C21.8225 35.4341 21.4248 27.0918 11.9472 18.32C12.9579 18.9147 14.0018 19.5424 15.0622 20.2363C22.6344 28.496 24.3741 35.2359 24.9043 44.8171C25.374 51.4808 26.304 58.1043 27.688 64.6404C27.726 64.8107 27.7974 64.9718 27.8979 65.1146C27.9985 65.2575 28.1262 65.3791 28.274 65.4727C28.4217 65.5663 28.5864 65.6299 28.7588 65.66C28.9312 65.6901 29.1078 65.686 29.2786 65.6481C29.4494 65.6101 29.611 65.539 29.7543 65.4387C29.8975 65.3385 30.0195 65.2111 30.1134 65.0639C30.2072 64.9166 30.2711 64.7523 30.3013 64.5805C30.3315 64.4086 30.3274 64.2325 30.2893 64.0622C28.9488 57.6773 28.0465 51.2088 27.5885 44.7015C27.5514 38.5351 26.0946 32.4595 23.3303 26.9431C25.8602 29.5403 27.8681 32.5963 29.2455 35.9462C31.8965 42.554 32.3439 49.8721 32.7581 56.8928C33.2718 66.5401 33.8186 75.6588 40.5954 80.499C41.3181 81.0209 42.0705 81.5008 42.8488 81.9362C35.9726 79.5244 21.5076 71.9089 21.6733 50.5163Z" fill="#CEAF7E"/>
</g>
<g clip-path="url(#clip2_889_8)">
<path d="M1437.57 161.633C1436.43 163.336 1435.02 164.843 1433.39 166.095L1431.74 302.959C1431.74 303.095 1431.72 303.23 1431.67 303.356C1431.62 303.482 1431.54 303.597 1431.44 303.694C1431.35 303.791 1431.23 303.868 1431.11 303.92C1430.98 303.973 1430.84 304 1430.71 304C1430.57 304 1430.44 303.973 1430.31 303.922C1430.19 303.87 1430.08 303.794 1429.98 303.698C1429.89 303.603 1429.81 303.49 1429.76 303.365C1429.71 303.241 1429.69 303.108 1429.69 302.974L1431.32 167.598C1427.96 169.556 1424.11 170.545 1420.22 170.454C1420.41 172.596 1421.32 178.22 1425.6 187.16C1431.17 198.779 1429.3 213.105 1424.8 219.889C1422.25 223.742 1415.99 222.552 1417.55 215.693C1418.1 213.269 1420.2 218.565 1423.44 213.492C1426.68 208.419 1416.84 188.395 1416.29 170.082C1414.72 169.799 1413.18 169.386 1411.69 168.848C1409.21 182.876 1408.43 198.199 1412.38 211.826C1412.98 213.908 1413.56 215.902 1414.11 217.776C1420.11 238.454 1423.65 250.504 1419.56 261.334C1421.55 266.279 1422.97 271.435 1423.78 276.702C1425.15 291.816 1415.93 305.577 1408.21 302.081C1400.49 298.585 1404.79 289.778 1406.95 289.778C1409.11 289.778 1418.66 297.797 1419.98 279.856C1420.12 275.297 1419 270.786 1416.75 266.809C1415.84 268.221 1414.84 269.573 1413.76 270.855C1407.36 278.532 1399.23 278.204 1394.27 275.586C1389.31 272.968 1386.88 268.46 1388.12 264.116C1388.5 262.373 1389.45 260.802 1390.82 259.654C1392.19 258.506 1393.91 257.846 1395.71 257.779C1397.07 257.75 1398.4 258.159 1399.5 258.945C1400.6 259.731 1401.42 260.852 1401.82 262.138C1402.81 265.544 1401.18 267.523 1400.04 268.192C1399.13 268.706 1398.08 268.942 1397.03 268.871C1395.99 268.8 1394.98 268.424 1394.15 267.791C1392.86 266.616 1392.34 265.351 1393.12 264.042C1393.36 263.536 1393.8 263.143 1394.32 262.941C1394.85 262.739 1395.44 262.745 1395.96 262.956C1397.18 263.64 1396.91 266.839 1398.96 265.842C1400.03 265.351 1400.27 264.191 1399.83 262.703C1399.56 261.839 1399.02 261.088 1398.27 260.566C1397.53 260.044 1396.63 259.78 1395.72 259.817C1394.37 259.878 1393.08 260.39 1392.06 261.271C1391.04 262.151 1390.35 263.348 1390.1 264.667C1389.14 268.059 1391.18 271.748 1395.18 273.831C1399.53 276.092 1406.59 276.345 1412.21 269.606C1413.5 268.08 1414.65 266.448 1415.66 264.726C1407.59 250.192 1391.12 233.277 1387.63 211.469C1384.99 195.104 1391.05 177.773 1398.66 160.666C1392.76 155.046 1388.93 147.614 1387.81 139.571C1385.28 123.103 1392.38 103.867 1407.3 86.8933C1432.04 58.7173 1433.09 17.7922 1433.12 16.498L1433.3 0.996731C1433.3 0.734951 1433.4 0.483639 1433.59 0.297146C1433.77 0.110653 1434.03 0.00390214 1434.29 -4.13403e-06C1434.55 -0.000706061 1434.8 0.0956074 1434.99 0.269527C1435.17 0.443447 1435.29 0.682033 1435.31 0.937221C1435.89 10.1561 1435.78 19.4047 1434.98 28.6074L1433.56 147.039C1434.88 147.526 1436.13 148.197 1437.27 149.032C1440.79 151.457 1440.96 156.649 1437.57 161.633ZM1432.21 93.9447C1432.23 93.6606 1432.14 93.3788 1431.95 93.1612C1431.77 92.9436 1431.5 92.808 1431.22 92.7843C1430.93 92.7607 1430.65 92.8508 1430.43 93.035C1430.21 93.2191 1430.07 93.4821 1430.05 93.7662C1428.16 105.221 1425.42 120.291 1422.82 128.384C1422.42 129.618 1421.95 131.047 1421.41 132.653C1417.8 143.048 1414.82 153.649 1412.48 164.4C1413.77 164.919 1415.11 165.279 1416.48 165.471C1416.85 156.485 1418.67 147.615 1421.86 139.199C1427.14 126.152 1427.93 111.603 1428.97 111.603C1430 111.603 1428.07 126.479 1424.25 138.381C1420.37 150.535 1419.68 154.745 1419.75 165.426C1420.68 165.318 1421.6 165.078 1422.46 164.712C1423.98 164.095 1425.31 163.095 1426.31 161.811C1427.32 160.526 1427.96 159.003 1428.19 157.393C1428.34 156.384 1428.22 155.354 1427.83 154.411C1427.44 153.468 1426.79 152.647 1425.97 152.037C1425.8 151.915 1425.67 151.744 1425.6 151.547C1425.53 151.35 1425.53 151.137 1425.58 150.936C1425.86 150.032 1426.34 149.201 1426.99 148.502C1427.63 147.802 1428.42 147.252 1429.3 146.89C1430.05 146.638 1430.85 146.541 1431.64 146.607L1432.21 93.9447ZM1420.58 168.327C1424.42 168.366 1428.18 167.228 1431.35 165.069L1431.55 148.63C1431 148.57 1430.45 148.625 1429.93 148.794C1428.95 149.177 1428.17 149.925 1427.74 150.877C1428.68 151.715 1429.41 152.771 1429.84 153.951C1430.28 155.132 1430.42 156.4 1430.24 157.646C1429.97 159.606 1429.18 161.46 1427.96 163.026C1426.74 164.591 1425.13 165.813 1423.29 166.571C1419.68 167.964 1415.67 167.889 1412.12 166.363C1412.13 166.467 1412.13 166.572 1412.12 166.676C1414.82 167.727 1417.68 168.291 1420.58 168.342L1420.58 168.327ZM1419.48 131.999L1420.87 127.759C1421.89 124.575 1422.79 121.005 1423.57 117.345C1423.61 117.223 1423.59 117.092 1423.53 116.982C1423.46 116.872 1423.36 116.791 1423.24 116.758C1423.11 116.724 1422.98 116.741 1422.87 116.803C1422.76 116.866 1422.68 116.97 1422.64 117.092C1418.66 129.589 1412.42 145.923 1407.65 161.647C1408.62 162.31 1409.62 162.916 1410.65 163.462C1412.97 152.816 1415.92 142.315 1419.48 132.014L1419.48 131.999ZM1410.2 165.649C1409.08 165.1 1408 164.484 1406.95 163.804L1406.82 164.161C1407.89 164.791 1409 165.367 1410.13 165.887C1410.16 165.828 1410.17 165.649 1410.2 165.649ZM1400.49 199.166C1401.28 217.017 1411.73 240.478 1418.39 258.121C1420.9 248.317 1417.59 236.922 1412.17 218.327C1411.6 216.393 1411.03 214.399 1410.41 212.376C1406.34 198.258 1407.19 182.445 1409.77 168.059C1408.56 167.535 1407.38 166.944 1406.23 166.289C1402.6 178.621 1400.09 190.344 1400.49 199.166ZM1408.85 88.2917C1394.33 104.775 1387.39 123.385 1389.83 139.258C1390.88 146.577 1394.29 153.362 1399.55 158.598L1400.16 157.274C1386.55 137.652 1407.98 97.7084 1418.48 80.3774C1423.1 72.4825 1426.54 63.9638 1428.7 55.0874C1428.73 54.9667 1428.71 54.8404 1428.64 54.7338C1428.58 54.6272 1428.48 54.5481 1428.36 54.5124C1428.24 54.4767 1428.11 54.487 1428 54.5412C1427.89 54.5954 1427.8 54.6895 1427.75 54.8048C1423.67 67.0644 1417.25 78.4322 1408.85 88.2917ZM1420.22 81.4931C1413.08 93.2306 1403.73 110.666 1399.73 127.134C1396.73 139.243 1397.28 148.63 1401.22 155.191C1406.8 143.082 1412.8 131.151 1416.66 119.785C1422.4 102.104 1427.22 84.1445 1431.11 65.977C1432.13 61.4375 1432.66 56.8061 1432.72 52.1568C1432.72 52.0104 1432.66 51.8689 1432.56 51.7595C1432.47 51.6501 1432.33 51.5805 1432.18 51.5639C1432.04 51.5473 1431.89 51.585 1431.77 51.6697C1431.65 51.7544 1431.56 51.8801 1431.53 52.0229C1429.35 62.3589 1425.53 72.2859 1420.22 81.4336L1420.22 81.4931ZM1436.15 150.743C1435.35 150.156 1434.49 149.657 1433.59 149.255L1433.47 163.418C1434.39 162.52 1435.21 161.522 1435.91 160.442C1438.5 156.56 1438.62 152.424 1436.15 150.683L1436.15 150.743Z" fill="#CEAF7E"/>
</g>
<g clip-path="url(#clip3_889_8)">
<path d="M1397.95 13.6946C1384.59 23.0446 1366.28 35.8636 1354.69 32.2128C1352.71 31.538 1350.93 30.3994 1349.48 28.8928C1348.04 27.3863 1346.98 25.5561 1346.4 23.5567C1346.3 23.2797 1346.29 22.9762 1346.38 22.6948C1346.47 22.4133 1346.65 22.17 1346.9 22.0038C1347.15 21.8349 1347.45 21.7544 1347.75 21.7754C1348.05 21.7964 1348.33 21.9176 1348.56 22.1195C1349.87 23.2226 1351.44 23.9682 1353.13 24.2838C1354.82 24.5993 1356.56 24.474 1358.18 23.9201C1360.32 23.0934 1362.42 22.156 1364.46 21.1118C1365.44 20.6162 1366.32 20.1867 1367.16 19.8233L1365.51 18.9147C1365.32 18.8065 1365.16 18.6533 1365.04 18.4689C1364.93 18.2845 1364.86 18.0745 1364.84 17.8575C1364.83 17.6438 1364.86 17.4291 1364.95 17.233C1365.04 17.0368 1365.17 16.8654 1365.34 16.7342C1374.38 10.058 1384.68 5.27083 1395.63 2.65962C1403.14 0.975272 1410.8 0.089285 1418.49 0.0165151C1418.59 -0.000193238 1418.68 -0.000193246 1418.78 0.0165151C1423.71 -0.0739051 1428.65 0.152325 1433.56 0.69381C1433.83 0.730606 1434.09 0.849968 1434.29 1.03595C1434.49 1.22192 1434.64 1.46565 1434.7 1.73453C1434.71 1.86621 1434.71 1.99932 1434.7 2.13099C1434.67 2.4728 1434.51 2.78973 1434.25 3.01478C1433.99 3.23982 1433.65 3.35534 1433.31 3.33691C1433.11 3.33691 1413.95 2.42835 1398.1 13.5294L1397.95 13.6946ZM1396.66 11.3653C1401.52 7.99574 1406.88 5.40401 1412.55 3.68382C1394.15 7.81367 1378.46 20.8144 1378.28 20.9631C1378.01 21.1292 1377.68 21.1907 1377.37 21.1364C1377.05 21.0821 1376.77 20.9156 1376.56 20.6678C1376.36 20.4199 1376.26 20.1074 1376.27 19.7882C1376.28 19.4689 1376.4 19.1645 1376.62 18.9312C1384.37 12.7336 1393 7.72261 1402.22 4.06377C1400.25 4.39416 1398.28 4.7741 1396.27 5.23665C1386.37 7.65296 1377 11.8578 1368.62 17.6427L1371.12 19.0964C1371.37 19.2323 1371.57 19.4439 1371.68 19.6999C1371.8 19.9559 1371.83 20.2425 1371.77 20.5171C1371.71 20.7919 1371.56 21.0404 1371.35 21.2273C1371.14 21.4141 1370.87 21.5298 1370.59 21.5578C1368.84 21.9148 1367.16 22.5626 1365.62 23.4741C1363.5 24.5645 1361.32 25.5406 1359.09 26.398C1356.45 27.3849 1353.54 27.3849 1350.89 26.398C1352.04 27.9253 1353.64 29.0526 1355.46 29.6193C1365.82 32.9232 1384.23 19.9885 1396.41 11.4479L1396.66 11.3653Z" fill="#CEAF7E"/>
<path d="M1407.96 24.1348C1401.15 29.3715 1396.24 35.7975 1391.49 42.0253C1381.3 55.373 1371.69 67.9773 1345.42 69.1006C1321.1 70.1248 1311.21 58.776 1307.48 51.9205C1302.87 43.4791 1302.84 33.1379 1307.4 26.7119C1309.5 23.6983 1312.5 21.4148 1315.97 20.18C1319.44 18.9451 1323.21 18.8204 1326.75 19.8233C1332.17 21.3431 1335.86 25.1921 1336.16 29.7349C1336.76 38.0937 1330.51 40.836 1327.2 41.1168C1326.9 41.1396 1326.6 41.0626 1326.35 40.8981C1326.1 40.7335 1325.92 40.4907 1325.82 40.2082C1325.32 38.7791 1324.35 37.5632 1323.06 36.7634C1321.78 35.9637 1320.25 35.6286 1318.75 35.8141C1315.83 36.0784 1312.43 38.2424 1311.64 43.5617C1311.35 45.9363 1311.6 48.3452 1312.38 50.6081C1313.16 52.8709 1314.44 54.9291 1316.13 56.6285C1319.28 59.9324 1326.68 65.4994 1340.98 64.4257C1358.2 63.1206 1368.9 49.5582 1371.78 45.5275L1370.13 44.6519C1369.97 44.5732 1369.83 44.4645 1369.72 44.3321C1369.61 44.1996 1369.52 44.046 1369.47 43.8802C1369.41 43.7144 1369.39 43.5396 1369.41 43.3658C1369.42 43.1921 1369.47 43.0228 1369.55 42.8678C1381.18 19.6085 1421.64 8.78831 1433.84 5.99653C1435.01 5.59934 1436.23 5.34962 1437.46 5.25316C1437.77 5.24545 1438.08 5.3449 1438.32 5.53461C1438.57 5.72432 1438.74 5.99259 1438.81 6.29388C1438.81 6.29388 1438.81 6.393 1438.81 6.44256C1438.84 6.77256 1438.74 7.10224 1438.55 7.36775C1438.35 7.63327 1438.06 7.81571 1437.73 7.87974C1437.73 7.87974 1436.45 8.12754 1434.42 8.6066C1430.22 9.91163 1421.64 13.6285 1407.96 24.1348ZM1308.97 43.1817C1310 36.3262 1314.55 33.5179 1318.48 33.171C1320.38 32.9822 1322.28 33.3726 1323.95 34.2903C1325.62 35.208 1326.96 36.6094 1327.81 38.3085C1329.75 37.8459 1333.92 36.1114 1333.48 29.834C1333.24 26.5302 1330.31 23.5897 1326 22.3838C1323 21.5291 1319.8 21.6281 1316.86 22.6671C1313.91 23.7062 1311.36 25.6337 1309.57 28.1821C1306.75 32.1302 1305.97 37.8625 1307.2 43.5617C1307.66 45.6962 1308.38 47.7657 1309.35 49.7234C1308.8 47.5888 1308.67 45.3661 1308.97 43.1817ZM1416.27 13.8432C1387.34 31.486 1377.8 50.8302 1377.72 51.0284C1377.56 51.3461 1377.29 51.5906 1376.96 51.7084C1376.63 51.8261 1376.26 51.8073 1375.94 51.6562C1375.62 51.505 1375.38 51.2339 1375.26 50.9024C1375.14 50.5709 1375.16 50.2062 1375.31 49.8886C1375.65 49.1617 1383.02 34.1126 1404.86 18.2539C1391.82 23.8705 1378.56 31.932 1372.4 42.9009L1374.24 43.8425C1374.41 43.929 1374.55 44.0504 1374.67 44.1986C1374.79 44.3468 1374.87 44.5183 1374.92 44.7015C1374.96 44.875 1374.98 45.0565 1374.96 45.2352C1374.93 45.4139 1374.87 45.5862 1374.78 45.7422C1374.34 46.4856 1364.44 62.7242 1345.87 66.4741C1370.48 65.2351 1379.65 53.2585 1389.36 40.4725C1394.22 34.1126 1399.31 27.5378 1406.33 22.0864C1410.71 18.6908 1415.26 15.5364 1419.98 12.6373L1416.27 13.8432Z" fill="#CEAF7E"/>
<path d="M1377.19 81.9858C1376.22 81.1885 1375.5 80.1332 1375.11 78.9428C1374.72 77.7525 1374.67 76.4761 1374.98 75.2624C1375.16 74.3424 1375.55 73.4771 1376.13 72.7366C1376.7 71.9961 1377.45 71.4013 1378.3 71.0004C1379.27 70.6884 1380.29 70.5744 1381.31 70.6652C1382.32 70.756 1383.31 71.0498 1384.21 71.529C1384.37 71.6114 1384.5 71.7262 1384.61 71.8658C1384.72 72.0054 1384.8 72.1666 1384.84 72.3384C1384.89 72.5054 1384.91 72.681 1384.89 72.8543C1384.87 73.0277 1384.81 73.1951 1384.72 73.3461C1384.02 74.3434 1383.7 75.5574 1383.82 76.7691C1383.94 77.9807 1384.49 79.1103 1385.37 79.9539C1387.47 81.8371 1392 82.5474 1397.85 78.3019C1403.7 74.0565 1404.08 66.1767 1404.66 56.7276C1405.07 49.8555 1405.54 42.0419 1408.34 34.9716C1415.01 18.2705 1437.33 11.068 1438.21 10.7706C1438.52 10.6588 1438.87 10.6698 1439.18 10.8015C1439.49 10.9333 1439.73 11.176 1439.87 11.481C1439.91 11.5708 1439.94 11.665 1439.97 11.7618C1440.02 12.0262 1440 12.3018 1439.89 12.5503C1439.78 12.7989 1439.6 13.0083 1439.37 13.1494C1420.71 24.9939 1420.78 32.4606 1420.96 50.4833C1421.18 74.2712 1404.56 82.2996 1397.4 84.6454C1388.5 87.5693 1380.7 85.3227 1377.19 81.9858ZM1383.6 81.9858C1382.45 80.9779 1381.65 79.6288 1381.33 78.1368C1381.01 76.5807 1381.16 74.9668 1381.76 73.4948C1380.97 73.2304 1380.12 73.2304 1379.34 73.4948C1378.87 73.7514 1378.46 74.1124 1378.14 74.5504C1377.83 74.9884 1377.62 75.4918 1377.53 76.0223C1377.38 76.7758 1377.43 77.5576 1377.7 78.2808C1377.96 79.004 1378.42 79.6403 1379.02 80.1191C1380.75 81.6075 1382.84 82.601 1385.09 82.9935C1384.52 82.702 1384 82.3352 1383.53 81.9032L1383.6 81.9858ZM1418.33 50.5163C1418.18 35.4341 1418.58 27.0918 1428.05 18.32C1427.04 18.9147 1426 19.5424 1424.94 20.2363C1417.37 28.496 1415.63 35.2359 1415.1 44.8171C1414.63 51.4808 1413.7 58.1043 1412.31 64.6404C1412.27 64.8107 1412.2 64.9718 1412.1 65.1146C1412 65.2575 1411.87 65.3791 1411.73 65.4727C1411.58 65.5663 1411.41 65.6299 1411.24 65.66C1411.07 65.6901 1410.89 65.686 1410.72 65.6481C1410.55 65.6101 1410.39 65.539 1410.25 65.4387C1410.1 65.3385 1409.98 65.2111 1409.89 65.0639C1409.79 64.9166 1409.73 64.7523 1409.7 64.5805C1409.67 64.4086 1409.67 64.2325 1409.71 64.0622C1411.05 57.6773 1411.95 51.2088 1412.41 44.7015C1412.45 38.5351 1413.91 32.4595 1416.67 26.9431C1414.14 29.5403 1412.13 32.5963 1410.75 35.9462C1408.1 42.554 1407.66 49.8721 1407.24 56.8928C1406.73 66.5401 1406.18 75.6588 1399.4 80.499C1398.68 81.0209 1397.93 81.5008 1397.15 81.9362C1404.03 79.5244 1418.49 71.9089 1418.33 50.5163Z" fill="#CEAF7E"/>
</g>
<defs>
<clipPath id="clip0_889_8">
<rect width="53" height="304" fill="white" transform="translate(53 304) rotate(-180)"/>
</clipPath>
<clipPath id="clip1_889_8">
<rect width="136" height="86" fill="white" transform="translate(136 86) rotate(-180)"/>
</clipPath>
<clipPath id="clip2_889_8">
<rect width="53" height="304" fill="white" transform="matrix(1 -8.74228e-08 -8.74228e-08 -1 1387 304)"/>
</clipPath>
<clipPath id="clip3_889_8">
<rect width="136" height="86" fill="white" transform="matrix(1 -8.74228e-08 -8.74228e-08 -1 1304 86)"/>
</clipPath>
</defs>
</svg>
