<svg width="1440" height="182" viewBox="0 0 1440 182" fill="none" xmlns="http://www.w3.org/2000/svg">
<path d="M46.0467 166.913C46.8923 164.348 46.8434 161.57 45.908 159.037C44.3132 154.013 41.6199 149.411 38.0256 145.568C34.0112 140.959 29.5878 136.727 24.8101 132.924C20.5436 129.634 20.0744 125.187 21.4503 120.751C22.8263 116.315 26.1007 113.443 31.3379 112.918C34.3884 112.618 37.4604 112.372 40.5003 111.922C46.5587 111.011 51.3585 108.268 53.8331 102.91C55.3157 99.6954 54.0891 97.0702 51.0386 95.7415C49.5503 95.108 47.8854 95.0309 46.3455 95.5243C44.8056 96.0177 43.4926 97.0489 42.6442 98.431C42.1471 99.1866 41.901 100.081 41.9412 100.986C41.9815 101.89 42.306 102.759 42.8682 103.467C44.2335 105.3 43.7322 106.5 41.5562 107.025C32.4686 109.221 23.4235 110.1 14.4639 106.392C9.29078 104.249 6.4535 100.467 5.93085 95.195C5.58955 91.4767 5.05616 87.7693 4.93885 84.0403C4.82154 80.3114 4.49091 76.5396 5.5362 72.8964C6.73084 68.6102 7.8401 67.7102 12.3945 68.9853C20.5969 71.2891 28.1594 70.9998 35.4978 66.36C39.0176 64.142 39.7643 64.7527 41.3749 68.9103C42.6335 72.2106 44.8627 73.325 48.4573 72.4356C54.1317 71.0319 56.0944 65.0956 52.2332 61.0345C49.652 58.3021 46.0681 57.5306 41.6949 59.2236C37.9497 60.5806 34.3306 62.2658 30.8793 64.2598C23.4129 68.7924 10.3787 63.4562 7.32807 55.7947C5.97163 52.5739 5.27272 49.1123 5.27272 45.6151C5.27272 42.1179 5.97163 38.6564 7.32808 35.4356C8.00874 33.7939 9.0251 32.3141 10.3113 31.0921C11.5975 29.8701 13.1249 28.9332 14.7945 28.342C18.171 26.9452 21.8291 26.3722 25.4687 26.6703C29.1082 26.9683 32.6256 28.1287 35.7324 30.0565C40.2655 32.7675 42.4309 36.8714 41.5455 41.9934C41.3216 43.3006 40.8095 44.6829 38.8043 44.8544C38.0896 43.4078 39.1669 42.2505 38.9536 41.0504C38.7605 39.4793 38.1098 38.0005 37.0833 36.7996C36.0567 35.5986 34.7 34.729 33.1832 34.2998C29.5567 33.2282 26.4314 34.4605 23.7542 36.8714C21.3116 39.0681 20.3836 41.5219 21.6209 44.5972C22.3058 46.4233 23.4169 48.0575 24.8609 49.3627C26.3049 50.6679 28.0396 51.6059 29.9193 52.0979C36.1697 54.0267 41.6522 52.1729 46.9854 49.462C52.0838 46.8688 56.2757 43.1828 60.4675 39.4967C63.6745 36.675 66.949 33.9247 70.2911 31.2459C71.2511 30.4637 72.5097 29.5314 73.8856 30.5387C75.2616 31.5459 74.5469 32.7889 73.8856 33.9033C70.1098 40.5682 68.0512 47.8332 65.6086 54.9161C62.7008 63.3601 58.1137 71.1217 52.1264 77.729C46.6616 84.0179 39.4709 88.5468 31.4552 90.7481C25.5781 92.3233 24.0742 91.2517 23.4236 85.6476C23.0289 82.2616 20.7783 80.0435 17.7277 80.0435C16.1461 80.0405 14.6212 80.6349 13.4555 81.7087C12.2897 82.7825 11.5685 84.2573 11.4347 85.8405C10.9334 90.9196 15.0718 95.4843 20.9596 95.9986C24.982 96.4657 29.0573 95.9701 32.8525 94.5521C41.5154 91.3873 49.3495 86.2871 55.7637 79.6363C57.2638 77.7269 59.1005 76.1106 61.1822 74.868C59.145 84.5118 60.1796 93.502 60.1156 102.514C60.1156 104.464 60.1794 106.435 59.9874 108.375C59.0701 117.451 55.881 125.369 46.868 130.341C44.5801 131.75 41.9215 132.43 39.2416 132.291C34.6231 131.938 33.3752 129.709 35.8178 126.173C36.1728 125.757 36.4939 125.312 36.7778 124.844C37.3029 123.787 37.4377 122.577 37.1585 121.429C36.8792 120.282 36.2038 119.27 35.2524 118.576C33.1192 116.979 30.9859 117.354 28.8527 118.576C27.9096 119.043 27.0859 119.721 26.4452 120.558C25.8046 121.396 25.3641 122.37 25.1579 123.405C24.9517 124.441 24.9853 125.511 25.256 126.531C25.5268 127.552 26.0275 128.496 26.7194 129.291C31.6899 135.903 41.4495 137.435 49.3212 132.763C59.0808 126.977 63.2622 118.287 63.7101 107.946C63.9874 101.517 63.5607 95.0878 63.5074 88.7444C63.3231 86.4266 63.6173 84.0955 64.3714 81.8973C64.8727 80.7293 65.4379 79.4863 67.0699 79.4327C68.7018 79.3792 69.4165 80.6114 69.8644 81.758C71.7821 86.622 74.0089 91.3572 76.5308 95.9343C78.7197 99.8665 80.3737 104.076 81.4481 108.45C82.3761 112.522 83.9439 116.636 82.6639 121.105C81.7253 120.965 80.9893 120.772 80.2534 120.74C76.5308 120.569 74.5364 121.726 73.5764 124.512C73.181 125.628 73.1769 126.846 73.5648 127.965C73.9528 129.083 74.7096 130.035 75.7097 130.663C77.9603 131.991 82.2694 131.466 84.2427 129.591C86.2159 127.716 86.7598 125.305 86.8239 122.723C87.0664 113.022 84.8649 103.416 80.4241 94.7985C78.2268 90.5124 75.6243 86.3013 74.0243 81.6722C69.9498 69.5532 77.9282 53.2016 90.5357 48.1761C90.8884 48.113 91.2495 48.113 91.6023 48.1761C92.5623 48.8083 92.2424 49.7941 92.4984 50.5978C93.725 54.3374 97.5862 55.6126 101.031 53.4373C105.138 50.8764 104.572 45.1651 99.858 42.9149C98.2809 42.321 96.6477 41.8901 94.9835 41.629C94.2476 41.4576 93.4156 41.3719 93.1063 40.6432C92.6903 39.636 93.3516 38.9288 94.1729 38.3823C94.9942 37.8358 96.0821 37.1822 97.0634 36.6357C104.755 32.4492 112.901 29.1665 121.34 26.8526C132.795 23.5094 144.048 23.413 154.48 30.0672C160.293 33.7747 163.749 38.6395 163.013 45.3258C162.277 52.0122 158.192 56.8341 151.589 59.6308C147.867 61.206 146.256 59.9737 146.683 56.1912C146.683 55.8376 146.843 55.4947 146.875 55.1197C147.147 53.3929 146.838 51.6241 145.995 50.0943C145.153 48.5645 143.826 47.3614 142.224 46.676C140.478 45.8652 138.531 45.5952 136.631 45.9006C134.732 46.2059 132.966 47.0727 131.558 48.3904C125.521 53.6516 127.452 62.0525 135.59 64.5813C145.051 67.5066 153.467 64.8492 160.752 59.1165C169.285 52.4408 171.493 39.3038 161.712 30.1851C155.579 24.4524 148.23 21.6128 139.643 21.0235C124.508 20.0484 110.78 24.2381 97.7035 30.7208C92.4707 33.3091 87.4271 36.2668 82.6107 39.5717C82.19 39.9734 81.6519 40.2288 81.0759 40.3002C80.4998 40.3716 79.9161 40.2552 79.4108 39.9682C78.3442 39.2502 78.4508 38.0609 78.8455 37.0322C79.7978 34.4672 81.2481 32.1178 83.112 30.1208C90.4077 22.2664 99.0368 16.1909 109.98 13.4049C115.9 11.894 121.809 10.2867 127.814 9.11875C136.161 7.63027 144.689 7.47837 153.083 8.66871C162.106 9.80453 169.679 14.0264 176.548 19.384C181.7 23.413 186.98 27.2598 193.177 29.8743C196.377 31.2138 199.716 32.1567 203.236 31.5567C206.03 31.0852 208.291 29.66 209.027 26.9598C209.404 25.734 209.378 24.4192 208.953 23.2093C208.529 21.9996 207.728 20.959 206.67 20.2413C205.927 19.6298 205.033 19.2313 204.083 19.088C203.133 18.9446 202.162 19.0617 201.273 19.4269C200.5 19.7207 199.825 20.2293 199.329 20.8933C198.832 21.5572 198.534 22.3493 198.468 23.1773C198.254 24.4738 199.534 25.9204 198.116 27.0991C192.783 25.7597 174.575 14.2407 171.706 10.3617C170.362 8.56155 170.97 6.86853 173.487 6.45063C176.151 6.07179 178.84 5.90696 181.53 5.95773C208.65 5.95773 235.775 5.95773 262.903 5.95774L840.033 5.95779L915.358 5.95779L915.358 0.932297C725.3 0.93228 535.241 0.932264 345.182 0.932247C289.974 0.932242 234.776 1.56444 179.567 0.0750089C161.712 -0.407186 143.824 0.439325 125.948 0.503608C97.6715 0.600041 69.4165 0.503603 41.1082 0.567901C29.3753 0.5679 17.6424 0.635755 5.90956 0.771481C0.736404 0.771481 0.469741 1.14653 0.320388 6.01127C0.320388 6.71849 0.320388 7.4257 0.320388 8.15434C0.320384 53.7088 0.355963 99.2632 0.427065 144.818C0.403323 145.891 0.449648 146.965 0.565676 148.032C0.736391 149.286 1.15241 150.69 2.78436 150.733C4.41632 150.775 4.84296 149.34 4.9176 148.086C5.01361 144.346 5.10956 140.585 4.98157 136.878C4.91797 133.672 5.27661 130.473 6.04816 127.362C7.11481 123.023 10.1013 122.176 13.3225 125.519C19.7223 132.152 27.0074 138.024 33.4499 144.625C37.7324 148.793 40.8795 153.995 42.5908 159.733C40.6176 160.098 39.1776 159.165 37.631 159.658C35.2098 160.43 33.7164 161.801 33.4711 164.234C33.2477 165.801 33.6325 167.395 34.5457 168.685C35.4589 169.975 36.8308 170.864 38.3777 171.167C39.9459 171.427 41.5554 171.148 42.9468 170.376C44.3382 169.605 45.4302 168.384 46.0467 166.913ZM113.714 5.57197C112.092 7.64004 110.514 7.76862 109.042 8.13294C98.3631 10.8 88.0887 14.894 78.4935 20.3055C77.3628 20.9861 76.1867 21.5875 74.9736 22.1057C73.4163 22.7058 71.6884 23.6809 70.1738 22.2129C68.6592 20.7449 68.9791 18.8483 69.8538 17.241C71.0325 15.0178 72.6389 13.0518 74.5798 11.4571C76.5206 9.86235 78.7573 8.67055 81.1601 7.95078C85.3621 6.62078 89.7185 5.84632 94.1195 5.64698C100.317 5.32551 106.663 5.57197 113.714 5.57197ZM10.2507 22.095C9.18416 20.5413 10.5708 19.3947 11.4454 18.3232C18.0265 10.276 26.3248 5.16478 37.6951 5.28265C46.5161 5.36838 55.337 5.28265 64.1474 5.28266C66.2806 5.28266 69.4058 4.51114 70.1311 7.05068C70.7924 9.33304 68.062 10.6296 66.2487 11.8083C61.2782 15.0229 56.585 18.7625 50.5053 20.3805C49.0973 12.3012 46.0681 9.32233 39.839 9.52591C32.3726 9.77237 28.33 13.8121 27.3487 22.545C23.0524 22.0555 18.7067 22.2326 14.4639 23.0701C12.8533 23.413 11.168 23.563 10.2081 22.095L10.2507 22.095ZM34.6978 24.8381C31.4979 22.2557 30.4313 18.2696 32.3406 15.8158C34.3778 13.1263 39.039 12.4083 43.0068 14.1656C42.4096 15.0657 41.3323 14.7229 40.511 15.0229C37.5671 16.0944 35.9671 18.2375 36.3084 20.627C36.671 23.2522 39.1243 25.2132 42.3135 25.4382C45.5028 25.6632 48.2973 24.4524 51.1878 23.488C53.0544 22.8665 55.273 20.9592 56.9583 22.8344C58.4302 24.4738 56.5209 26.4669 55.8917 28.192C55.2623 29.9172 54.1317 30.8709 52.1264 29.2636C51.6151 28.8201 50.962 28.5762 50.2865 28.5762C49.611 28.5762 48.958 28.8201 48.4466 29.2636C47.8321 29.6596 47.3638 30.2471 47.1134 30.9361C46.8629 31.6251 46.8441 32.3775 47.0599 33.0782C47.5933 34.6855 49.0012 35.2213 50.6865 35.0605C54.409 34.7498 56.457 32.4032 57.8969 29.5957C59.1342 27.2062 59.9556 24.6345 61.0222 22.1593C61.3084 21.3645 61.8001 20.6607 62.4469 20.1202C63.0936 19.5797 63.872 19.222 64.702 19.084C64.5207 28.6421 59.8168 35.157 52.1264 40.0539C51.1467 40.6257 50.1101 41.0926 49.0333 41.4469C46.9641 42.2398 45.5987 41.7041 45.5134 39.5074C45.2574 33.2175 41.6948 28.8992 36.1377 25.7168C35.6183 25.4691 35.1221 25.175 34.6551 24.8381L34.6978 24.8381Z" fill="#514338"/>
<path d="M8.38457 162.83C8.25053 161.733 7.69957 160.73 6.84687 160.031C5.99417 159.332 4.90566 158.991 3.8087 159.08C3.26542 159.088 2.72995 159.211 2.23701 159.44C1.74407 159.67 1.30475 160.001 0.947603 160.412C0.590458 160.824 0.323472 161.306 0.164037 161.828C0.00460286 162.349 -0.0438009 162.899 0.022116 163.441C0.0702661 163.989 0.226059 164.522 0.480432 165.01C0.734806 165.497 1.08277 165.929 1.50422 166.281C1.92568 166.633 2.41226 166.897 2.93594 167.059C3.45962 167.22 4.00997 167.276 4.55528 167.223C5.09748 167.198 5.62903 167.063 6.11799 166.826C6.60695 166.589 7.04331 166.256 7.40088 165.846C7.75845 165.435 8.02988 164.957 8.1989 164.439C8.36793 163.92 8.43111 163.373 8.38457 162.83Z" fill="#514338"/>
<path d="M2.38982 179.16C2.41432 179.576 2.52549 179.982 2.71599 180.353C2.90649 180.723 3.1721 181.049 3.49579 181.309C3.81948 181.57 4.19401 181.759 4.59512 181.865C4.99623 181.971 5.41509 181.992 5.82452 181.925C6.24211 181.958 6.66167 181.895 7.05158 181.742C7.4415 181.588 7.79152 181.347 8.07513 181.037C8.35874 180.728 8.56855 180.357 8.68866 179.954C8.80877 179.551 8.83609 179.126 8.76847 178.71C8.71472 177.858 8.32601 177.062 7.6879 176.497C7.04979 175.932 6.21448 175.645 5.36581 175.699C4.51713 175.753 3.72456 176.144 3.16247 176.785C2.60037 177.426 2.31485 178.265 2.3686 179.117L2.38982 179.16Z" fill="#514338"/>
<path d="M1173.8 1.03953C957.412 1.03951 741.029 1.03949 524.653 1.03947L524.653 6.07568L732.187 6.0757C907.249 6.07571 1082.31 6.07573 1257.37 6.07574C1260.06 6.07574 1262.76 6.19362 1265.44 6.35434C1266.8 6.42935 1268.23 6.72939 1268.74 8.07951C1269.38 9.70824 1268.18 10.7369 1266.94 11.6477C1261.36 15.7303 1255.84 19.8771 1250.16 23.8417C1247.57 25.8482 1244.45 27.0378 1241.18 27.2599C1241.3 26.0063 1241.41 25.1169 1241.45 24.2918C1241.6 21.9023 1240.69 20.0057 1238.07 19.352C1236.85 19.0326 1235.57 19.1217 1234.42 19.6057C1233.26 20.0897 1232.29 20.9417 1231.67 22.0309C1228.86 26.1884 1231.74 31.1496 1237.34 31.7604C1241.13 32.1676 1244.57 31.021 1247.88 29.5102C1253.96 26.7242 1259.15 22.7595 1264.34 18.7948C1273.11 11.9674 1283.87 8.20505 1294.97 8.07952C1307.34 7.74733 1318.94 10.5655 1330.6 13.6515C1339.13 15.9124 1346.23 20.4557 1352.6 25.9527C1355.95 28.8458 1359 32.1033 1360.71 36.218C1361.25 37.5574 1361.94 39.0575 1360.4 40.1076C1359.11 40.9756 1357.88 40.1076 1356.77 39.304C1352.1 36.1098 1347.21 33.2455 1342.15 30.7317C1329.06 24.2275 1315.32 20.0914 1300.19 21.0879C1290.93 21.688 1283.06 24.9133 1277.01 31.5247C1273.43 35.4572 1271.32 39.9362 1271.91 45.2403C1272.98 55.3877 1280.44 62.9206 1291.4 65.0851C1297.02 66.1566 1302.5 66.328 1307.48 63.1563C1309.37 62.048 1310.78 60.2729 1311.44 58.177C1312.09 56.0811 1311.95 53.8146 1311.03 51.8195C1308.9 47.4369 1303.69 44.9402 1299.3 46.1511C1294.92 47.3619 1292.77 50.8444 1293.38 56.3306C1293.79 60.0596 1292.14 61.2275 1288.35 59.6738C1276.7 54.8948 1271.95 40.2791 1283.36 31.7068C1286.82 28.9882 1290.79 26.9871 1295.03 25.8192C1299.28 24.6513 1303.71 24.3398 1308.07 24.9026C1321.07 26.5206 1332.76 31.3318 1344.04 37.2788C1344.88 37.6745 1345.66 38.2066 1346.33 38.8539C1347.47 40.0648 1347.4 41.1363 1345.47 41.5756C1344.17 41.8971 1342.83 42.0471 1341.54 42.3686C1340.44 42.5982 1339.42 43.0957 1338.56 43.8171C1337.7 44.5385 1337.03 45.4616 1336.61 46.5047C1336.27 47.2588 1336.1 48.0801 1336.12 48.9078C1336.14 49.7356 1336.34 50.5487 1336.72 51.2872C1337.09 52.0257 1337.62 52.6707 1338.28 53.1745C1338.93 53.6784 1339.69 54.0282 1340.49 54.1983C1343.82 55.077 1347.44 53.8125 1347.51 50.0193C1347.45 49.5915 1347.54 49.1549 1347.78 48.793C1348.02 48.4312 1348.38 48.1696 1348.79 48.0584C1351.41 48.7466 1353.79 50.114 1355.72 52.0231C1367.4 63.1777 1370.67 74.2038 1363.41 87.7051C1362.1 90.0947 1360.69 92.4199 1359.48 94.8523C1355.1 103.491 1352.93 113.094 1353.19 122.787C1353.08 125.142 1353.89 127.445 1355.44 129.216C1356.55 130.256 1357.94 130.957 1359.43 131.24C1360.93 131.522 1362.47 131.374 1363.89 130.813C1364.95 130.291 1365.8 129.417 1366.3 128.338C1366.8 127.259 1366.92 126.041 1366.63 124.887C1365.85 121.866 1363.62 120.515 1359.72 120.698C1358.98 120.698 1358.24 120.901 1357.34 121.03C1357.13 120.308 1356.99 119.569 1356.91 118.822C1356.91 117.748 1356.97 116.674 1357.1 115.608C1358.34 103.135 1366 92.6985 1370.49 81.2116C1370.55 81.0435 1370.65 80.8877 1370.77 80.7509C1372.26 78.865 1373.89 78.9507 1375.22 81.0188C1376.56 83.0868 1376.5 85.1227 1376.5 87.2337C1376.5 93.8236 1376.28 100.403 1376.28 106.982C1376.24 112.576 1377.74 118.073 1380.6 122.873C1383.79 128.433 1388.91 132.609 1394.99 134.595C1398.23 135.746 1401.75 135.848 1405.05 134.887C1408.35 133.926 1411.27 131.95 1413.4 129.238C1415.63 126.227 1415.53 122.98 1413.24 120.355C1410.95 117.729 1407.61 116.894 1405.15 118.383C1402.33 120.108 1401.95 123.034 1404.26 126.291C1406.56 129.548 1405.49 131.82 1401.25 132.324C1398.38 132.571 1395.51 131.875 1393.07 130.341C1383.47 124.984 1380.44 116.411 1379.97 106.768C1379.48 96.3738 1381.04 85.9371 1378.9 74.9432C1380.82 76.0922 1382.51 77.5849 1383.9 79.3472C1390.12 85.8962 1397.72 90.9789 1406.13 94.2308C1410.24 95.9015 1414.7 96.5237 1419.11 96.0417C1424.98 95.4523 1429.09 90.8769 1428.52 85.7978C1428.37 84.2114 1427.62 82.7422 1426.44 81.6836C1425.25 80.6249 1423.71 80.0546 1422.12 80.0865C1419.08 80.0865 1416.9 82.3475 1416.52 85.7764C1416.47 86.3121 1416.59 86.8479 1416.52 87.373C1416.27 90.234 1414.91 91.4769 1411.75 91.3805C1409.26 91.2642 1406.82 90.6523 1404.57 89.5803C1398 86.8351 1392.13 82.6378 1387.39 77.3005C1381.55 70.5886 1377.06 62.8059 1374.16 54.3805C1372.26 48.2137 1370 42.1666 1367.38 36.2716C1366.55 34.5357 1363.64 32.4248 1366.32 30.6781C1368.57 29.1887 1370.47 31.7497 1372.07 33.057C1376.67 36.8395 1381.02 40.8791 1385.63 44.6402C1390.38 48.7606 1396.12 51.5641 1402.27 52.7732C1409.31 53.9733 1415.88 50.7587 1418.27 45.0581C1419.64 41.8435 1418.85 39.1968 1416.2 36.8502C1413.2 34.1928 1409.31 33.2391 1406.21 34.5249C1404.69 35.1447 1403.39 36.2158 1402.48 37.5959C1401.58 38.976 1401.12 40.5995 1401.15 42.2507C1401.15 43.1508 1402.42 44.2759 1400.61 44.8545C1398.3 42.0793 1397.96 41.2863 1398.36 38.7575C1398.66 36.749 1399.46 34.848 1400.68 33.2261C1401.9 31.6042 1403.5 30.3124 1405.33 29.4673C1408.22 27.9304 1411.39 27.0069 1414.64 26.7544C1417.9 26.5018 1421.17 26.9256 1424.26 27.9993C1426.05 28.5083 1427.72 29.406 1429.13 30.6295C1430.55 31.8531 1431.68 33.3728 1432.45 35.0822C1433.91 38.3443 1434.69 41.8763 1434.72 45.4547C1434.76 49.033 1434.05 52.5796 1432.65 55.8699C1429.6 63.3706 1416.65 68.8676 1409.06 64.1957C1406.07 62.5535 1403 61.0762 1399.85 59.7703C1397.44 58.5186 1394.68 58.0934 1392 58.5594C1390.27 58.8746 1388.71 59.783 1387.57 61.1296C1386.43 62.4762 1385.8 64.1773 1385.77 65.9423C1385.87 69.1569 1388.64 71.9429 1392.17 72.5215C1395.7 73.1001 1397.02 72.2001 1398.83 67.7318C1399.9 65.1172 1400.78 64.7422 1403.59 65.8137C1404.3 66.0711 1404.98 66.409 1405.62 66.821C1411.95 70.9785 1418.75 71.1821 1426 69.2855C1432.52 67.571 1433.8 68.439 1434.85 74.5039C1435.08 75.8968 1435.02 77.3434 1435.13 78.79C1435.49 83.794 1434.48 88.7231 1434.16 93.6843C1433.63 101.571 1430.01 105.471 1421.69 107.732C1414.65 109.618 1407.6 108.804 1400.56 107.657C1399.06 107.4 1397.36 107.089 1396.56 105.793C1395.76 104.496 1397.4 103.65 1397.74 102.449C1398.63 99.492 1397.12 96.8024 1393.9 95.6238C1391.1 94.5522 1387.69 95.5273 1386.35 97.8633C1384.8 100.564 1385.72 103.146 1387.53 105.364C1389.08 107.279 1391.01 108.857 1393.18 110.003C1395.36 111.148 1397.74 111.838 1400.19 112.029C1403.26 112.318 1406.31 112.672 1409.36 113.025C1411.62 113.275 1413.75 114.278 1415.38 115.876C1420.62 120.762 1420.72 128.295 1415.09 132.956C1410.29 136.974 1405.78 141.339 1401.6 146.018C1398.02 149.893 1395.4 154.563 1393.96 159.648C1393.12 162.798 1392.82 166.013 1395.19 168.831C1396.1 169.939 1397.33 170.729 1398.71 171.085C1400.1 171.441 1401.56 171.346 1402.88 170.813C1404.24 170.257 1405.35 169.232 1406.02 167.923C1406.69 166.614 1406.87 165.108 1406.53 163.677C1405.92 160.902 1403.85 159.605 1400.08 159.691C1399.35 159.691 1398.66 160.205 1397.59 159.605C1398.96 154.001 1402.27 149.265 1406.33 145.021C1412.78 138.217 1420.37 132.388 1426.76 125.477C1427.24 124.906 1427.83 124.43 1428.48 124.073C1429.21 123.613 1430.1 123.457 1430.94 123.636C1431.79 123.816 1432.53 124.318 1433.01 125.037C1433.68 126.101 1434.1 127.296 1434.26 128.541C1435.53 134.006 1434.84 139.535 1435.14 145.021C1435.25 147.068 1433.84 150.668 1437.34 150.583C1440.46 150.508 1439.57 146.961 1439.58 144.796C1439.67 99.4206 1439.71 54.059 1439.71 8.71173C1439.71 1.02884 1440.53 0.857391 1431.13 0.846679C1383.62 0.78239 1336.11 0.846671 1288.6 0.482348C1271.87 0.35376 1255.15 -0.0319986 1238.47 0.643064C1216.89 1.45742 1195.35 1.02882 1173.8 1.03953ZM1364.73 21.9666C1363 21.2053 1361.33 20.3394 1359.7 19.3735C1351.17 14.4337 1341.88 11.1441 1332.3 8.46528C1330.42 7.92951 1328.29 7.76877 1326.23 5.64713C1337.89 5.1328 1348.69 4.81133 1359.2 8.09023C1363.88 9.51717 1367.8 12.746 1370.1 17.0697C1371 18.677 1371.43 20.5843 1370.01 22.0845C1368.34 23.8203 1366.4 22.6738 1364.71 21.9666L1364.73 21.9666ZM1402.78 26.5635C1398.02 29.4673 1395.21 33.4427 1394.65 38.8004C1394.32 42.015 1393.42 42.4436 1390.22 41.2435C1381.69 38.0289 1375.39 28.5351 1375.76 19.4056C1378.46 19.6735 1378.87 21.7737 1379.67 23.4882C1380.74 25.7705 1381.42 28.2136 1382.64 30.3996C1384 32.7998 1385.98 34.7821 1389.19 35.0929C1389.83 35.2491 1390.51 35.2116 1391.14 34.985C1391.76 34.7584 1392.31 34.3526 1392.71 33.8177C1393.1 33.2125 1393.28 32.4854 1393.2 31.7642C1393.11 31.043 1392.78 30.3739 1392.26 29.8745C1391.84 29.3581 1391.27 28.9858 1390.63 28.8091C1389.99 28.6325 1389.31 28.6603 1388.68 28.8887C1387.53 29.178 1386.7 31.2246 1385.29 29.7566C1383.67 28.0415 1382.75 25.7786 1382.7 23.4132C1382.7 22.3416 1383.9 21.9987 1384.83 22.213C1386.49 22.6287 1388.12 23.1476 1389.72 23.7668C1392 24.7662 1394.44 25.3365 1396.92 25.4491C1400.55 25.4491 1403.16 23.681 1403.7 20.8522C1404.25 18.0233 1402.49 16.0089 1398.67 14.8945C1398.15 14.7337 1397.6 14.5944 1396.29 14.2194C1400.67 11.862 1403.83 13.0086 1406.72 14.9052C1408.85 16.3196 1409.12 18.9556 1407.92 21.6987C1406.93 24.0025 1404.8 25.2776 1402.75 26.5635L1402.78 26.5635ZM1407.14 5.6257C1416.62 6.29005 1423.62 11.8299 1429.06 18.902C1429.8 19.8664 1430.8 20.9486 1429.71 22.2559C1429.24 22.7413 1428.65 23.0874 1428 23.2558C1427.35 23.4241 1426.67 23.4081 1426.03 23.2096C1421.61 22.3689 1417.1 22.1704 1412.63 22.6202C1411.93 13.9515 1407.67 9.76184 1400.08 9.62254C1393.83 9.50467 1390.58 12.7514 1389.84 19.92C1388.43 20.7236 1387.29 19.8021 1386.18 19.2877C1380.95 16.7746 1376.02 13.6723 1371.48 10.0404C1370.5 9.26893 1369.24 8.33669 1369.83 6.92227C1370.41 5.50784 1371.85 5.36854 1373.22 5.36854C1384.54 5.36854 1395.88 4.83278 1407.14 5.6257Z" fill="#514338"/>
<path d="M1431.63 162.937C1431.59 163.482 1431.67 164.029 1431.85 164.543C1432.03 165.058 1432.32 165.53 1432.69 165.931C1433.05 166.332 1433.5 166.653 1434 166.875C1434.49 167.097 1435.03 167.216 1435.57 167.224C1436.12 167.263 1436.67 167.194 1437.18 167.02C1437.7 166.846 1438.18 166.57 1438.59 166.21C1439 165.849 1439.34 165.41 1439.58 164.919C1439.82 164.427 1439.97 163.892 1440 163.345C1440.06 162.798 1440.01 162.244 1439.84 161.721C1439.67 161.198 1439.39 160.717 1439.02 160.311C1438.65 159.905 1438.2 159.583 1437.69 159.367C1437.19 159.151 1436.64 159.046 1436.1 159.058C1435.55 159.016 1435 159.083 1434.48 159.256C1433.96 159.428 1433.47 159.702 1433.06 160.063C1432.64 160.423 1432.3 160.863 1432.06 161.357C1431.81 161.85 1431.67 162.387 1431.63 162.937Z" fill="#514338"/>
<path d="M1434.35 182C1436.3 181.711 1437.65 180.928 1437.55 178.968C1437.57 178.549 1437.51 178.13 1437.35 177.74C1437.2 177.351 1436.96 177.001 1436.65 176.715C1436.34 176.43 1435.98 176.217 1435.58 176.091C1435.18 175.966 1434.76 175.931 1434.35 175.989C1433.94 175.937 1433.52 175.976 1433.12 176.103C1432.73 176.23 1432.36 176.443 1432.06 176.725C1431.76 177.008 1431.52 177.354 1431.36 177.74C1431.2 178.125 1431.13 178.541 1431.15 178.957C1431.18 180.821 1432.45 181.786 1434.35 182Z" fill="#514338"/>
</svg>
