<svg width="1440" height="326" viewBox="0 0 1440 326" fill="none" xmlns="http://www.w3.org/2000/svg">
<g clip-path="url(#clip0_889_12)">
<path d="M71.8683 12.7188C71.6587 12.84 71.4208 12.9038 71.1787 12.9038C70.9367 12.9038 70.6988 12.84 70.4892 12.7188C70.353 12.5994 57.3277 4.33051 45.4092 7.1607C33.4907 9.99089 24.3986 24.6874 24.3134 24.8408C24.1628 25.096 23.9322 25.2943 23.6575 25.405C23.3828 25.5156 23.0794 25.5324 22.7942 25.4528C22.509 25.3731 22.258 25.2015 22.0802 24.9644C21.9024 24.7274 21.8076 24.4383 21.8105 24.1418L21.8105 1.34688C21.8105 1.16856 21.8459 0.992015 21.9145 0.827481C21.9832 0.662947 22.0838 0.513702 22.2105 0.388406C22.3372 0.26311 22.4875 0.164256 22.6527 0.0975792C22.8179 0.0309027 22.9946 -0.00226921 23.1727 -1.19913e-05L71.2213 -1.40916e-05C71.5781 -1.41072e-05 71.9202 0.141891 72.1724 0.394483C72.4247 0.647075 72.5664 0.989663 72.5664 1.34688L72.5664 11.5765C72.5614 11.8117 72.4941 12.0414 72.3714 12.242C72.2488 12.4427 72.0752 12.6072 71.8683 12.7188Z" fill="#CEAF7E"/>
<path d="M19.564 1.43219C19.564 1.63678 18.253 21.7379 19.4108 28.4042C19.4782 29.5727 19.8779 30.6975 20.5627 31.646C21.2475 32.5946 22.1888 33.3272 23.2758 33.7577C23.8616 33.9473 24.3963 34.2687 24.839 34.6972C25.2817 35.1257 25.6206 35.65 25.8297 36.2298C25.9075 36.5128 25.942 36.806 25.9319 37.0994C25.836 38.2412 25.479 39.3457 24.8885 40.3272C24.298 41.3088 23.4898 42.1411 22.5266 42.7597C21.3497 43.5271 19.946 43.8678 18.5489 43.7251C17.1517 43.5824 15.8456 42.9649 14.8477 41.9755C9.10975 37.4062 11.4424 7.22896 11.868 1.2276C11.8984 0.879349 12.0629 0.556585 12.3266 0.327515C12.5903 0.0984453 12.9326 -0.0189832 13.2812 4.61979e-05L18.1678 4.59843e-05C18.3528 -0.000743266 18.5361 0.0367029 18.706 0.110043C18.8759 0.183383 19.0289 0.291039 19.1554 0.426279C19.2921 0.554361 19.3994 0.710631 19.47 0.8843C19.5405 1.05797 19.5726 1.2449 19.564 1.43219Z" fill="#CEAF7E"/>
<path d="M1.36294 -1.82249e-05C1.0062 -1.82093e-05 0.664085 0.141887 0.411831 0.394479C0.159578 0.647071 0.0178528 0.989659 0.0178528 1.34688L0.0178565 84.5475C0.0178574 106.064 9.68889 108.587 13.8604 108.672C14.7601 108.711 15.6579 108.561 16.4964 108.232C17.3349 107.903 18.0957 107.403 18.7299 106.763C22.1352 103.353 22.2714 96.3798 22.2714 96.0899C22.271 95.8908 22.2265 95.6943 22.1412 95.5144C22.0558 95.3346 21.9316 95.176 21.7777 95.0499C21.6284 94.9245 21.4534 94.8336 21.2651 94.7835C21.0768 94.7334 20.8797 94.7254 20.688 94.7601C20.2964 94.7601 11.1021 96.2263 8.00327 83.0302C6.42031 75.1694 5.56536 67.1792 5.4493 59.1611C8.03732 68.794 11.4596 75.2045 15.6652 77.9154C16.6092 78.5787 17.6857 79.0289 18.8204 79.2349C19.9551 79.441 21.1209 79.3979 22.2374 79.1088C26.5962 77.9665 27.6348 73.4825 27.6348 69.51C27.619 67.2123 27.339 64.924 26.8005 62.6903C26.7155 62.356 26.5057 62.067 26.2142 61.883C25.9228 61.699 25.5719 61.634 25.234 61.7015C25.234 61.7015 20.3985 62.4005 13.9114 55.3591C8.24164 49.443 8.7354 14.3896 9.39943 1.41507C9.41346 1.05889 9.28768 0.711357 9.04901 0.446876C8.81034 0.182395 8.47776 0.0219835 8.12245 -1.85203e-05C7.94576 -0.00920434 7.769 0.0166061 7.60229 0.0759344C7.43557 0.135263 7.28218 0.226943 7.1509 0.345724C7.01963 0.464505 6.91304 0.608053 6.83726 0.768145C6.76147 0.928237 6.71797 1.10173 6.70925 1.27868C6.45385 6.17183 4.49581 49.2896 11.8172 57.2857C17.3848 63.3211 22.0331 64.3782 24.2976 64.4976C24.8424 67.3789 25.8981 75.3239 21.4371 76.4321C20.685 76.6271 19.899 76.6517 19.1361 76.5043C18.3733 76.3568 17.6529 76.0409 17.0273 75.5796C14.0987 73.6701 8.71839 67.2084 5.36417 45.5558L5.36417 1.34688C5.36417 0.989659 5.22245 0.64707 4.97019 0.394478C4.71794 0.141886 4.37582 -1.83566e-05 4.01908 -1.8341e-05L1.36294 -1.82249e-05ZM2.70804 77.9665C2.98046 77.3527 3.55936 75.8694 5.38119 83.661C8.24164 95.8342 16.0568 97.4198 19.4961 97.505C19.3088 99.4657 18.7299 102.995 16.84 104.853C16.4582 105.236 16 105.534 15.4954 105.728C14.9908 105.922 14.4511 106.007 13.9115 105.979C6.79439 105.825 2.70804 98.0165 2.70804 84.5475C2.56258 82.3563 2.56258 80.1578 2.70804 77.9665Z" fill="#CEAF7E"/>
<path d="M140.026 28.9839C139.939 28.7735 139.91 28.5442 139.94 28.3189C140.167 26.4676 139.978 24.5892 139.389 22.8198C138.8 21.0504 137.825 19.4345 136.535 18.0893C130.355 11.0991 117.091 7.51877 107.199 7.60402C93.5774 7.70632 90.785 12.5483 90.785 12.5654C90.6375 12.816 90.4129 13.0121 90.1449 13.1243C89.8768 13.2365 89.5796 13.2587 89.2979 13.1877C89.0161 13.1167 88.7649 12.9562 88.5818 12.7303C88.3987 12.5044 88.2936 12.2253 88.2822 11.9345L88.2822 3.40989C88.2822 3.23301 88.3169 3.05787 88.3845 2.89445C88.4521 2.73104 88.5512 2.58256 88.6761 2.45749C88.801 2.33242 88.9493 2.23321 89.1125 2.16552C89.2757 2.09783 89.4506 2.06299 89.6272 2.06299C89.8039 2.06299 89.9788 2.09783 90.142 2.16552C90.3052 2.23321 90.4535 2.33242 90.5784 2.45749C90.7033 2.58256 90.8023 2.73104 90.8699 2.89445C90.9375 3.05787 90.9723 3.23301 90.9723 3.40989L90.9723 8.52468C93.4922 6.81975 98.3107 4.77383 107.25 4.72268C117.465 4.72268 131.597 8.13255 138.612 16.1116C140.105 17.692 141.24 19.5763 141.94 21.6359C142.639 23.6956 142.886 25.8821 142.665 28.0461C142.957 28.5736 143.428 28.9789 143.993 29.1885C144.603 29.324 145.234 29.3349 145.848 29.2207C146.462 29.1064 147.047 28.8693 147.568 28.5235C148.335 28.0506 148.968 27.3884 149.407 26.6003C149.845 25.8122 150.074 24.9246 150.071 24.0225C150.173 20.9877 148.369 16.4356 143.107 12.6847C138.985 9.63246 134.591 6.96717 129.98 4.72268C129.694 4.59942 129.46 4.38086 129.317 4.10421C129.175 3.82755 129.132 3.50989 129.197 3.20529C129.263 2.89863 129.433 2.62435 129.678 2.42868C129.924 2.23302 130.228 2.12795 130.542 2.13119L139.464 2.13119C140.041 2.13831 140.607 2.30019 141.101 2.60001C141.595 2.89983 141.999 3.32665 142.273 3.83612C142.818 4.79088 144.418 6.68335 148.981 8.59288C153.545 10.5024 157.188 7.12664 158.976 4.97842C159.418 4.44508 159.973 4.01584 160.6 3.72118C161.226 3.42652 161.91 3.27367 162.603 3.27349L166.655 3.27349C167.012 3.27349 167.354 3.41539 167.606 3.66799C167.858 3.92058 168 4.26317 168 4.62039C168 4.97761 167.858 5.32019 167.606 5.57279C167.354 5.82538 167.012 5.96728 166.655 5.96728L162.603 5.96728C162.303 5.97062 162.007 6.03948 161.737 6.16905C161.466 6.29862 161.227 6.48578 161.036 6.71745C159.231 8.88272 154.379 13.6395 147.943 11.0309C142.92 8.93386 140.758 6.66631 139.94 5.11482C139.892 5.03116 139.823 4.96182 139.739 4.91389C139.655 4.86596 139.56 4.84116 139.464 4.84203L135.939 4.84203C138.153 6.12073 141.047 7.96205 144.64 10.4854C149.748 14.151 152.949 19.368 152.744 24.1248C152.738 25.4783 152.385 26.8074 151.716 27.984C151.048 29.1606 150.089 30.145 148.93 30.8422C148.097 31.4358 147.143 31.8383 146.137 32.021C145.13 32.2037 144.096 32.1621 143.107 31.8993C142.423 31.6486 141.796 31.2607 141.267 30.7594C140.737 30.2582 140.314 29.654 140.026 28.9839Z" fill="#CEAF7E"/>
<path d="M154.005 319.675C159.113 313.196 157.547 305.95 153.29 302.148C152.413 301.289 151.374 300.612 150.233 300.158C149.093 299.703 147.873 299.48 146.646 299.5C145.419 299.521 144.208 299.785 143.083 300.278C141.959 300.77 140.943 301.481 140.095 302.37C139.96 302.51 139.857 302.676 139.789 302.857C139.722 303.039 139.692 303.233 139.703 303.427C139.721 303.622 139.781 303.811 139.878 303.982C139.974 304.152 140.106 304.3 140.265 304.416C141.725 305.592 142.726 307.246 143.091 309.087C143.193 310.083 143.095 311.09 142.803 312.047C142.511 313.005 142.03 313.894 141.389 314.662C140.543 315.84 139.424 316.794 138.127 317.442C136.831 318.089 135.396 318.411 133.948 318.379C129.13 318.379 123.817 314.969 119.714 309.496C112.75 300.051 117.483 247.573 134.442 212.571C154.261 171.584 160.322 118.271 160.373 117.743L160.373 117.64C160.375 117.431 160.326 117.224 160.231 117.037C160.136 116.85 159.998 116.689 159.828 116.566C160.283 110.741 160.442 104.897 160.305 99.0565C162.708 118.014 162.104 137.232 158.517 156.001C154.544 178.931 148.051 201.35 139.158 222.852C134.987 233.439 131.377 242.595 129.181 253.728C125.946 270.112 132.892 282.03 141.099 283.684C145.747 284.604 151.877 282.081 153.903 271.937C153.952 271.705 153.939 271.464 153.864 271.239C153.789 271.014 153.656 270.814 153.477 270.658C153.3 270.498 153.083 270.39 152.849 270.345C152.615 270.3 152.373 270.32 152.149 270.402C150.235 270.945 148.2 270.877 146.326 270.208C144.453 269.539 142.834 268.302 141.695 266.668C136.843 260.224 141.474 243.567 147.365 222.46C153.256 201.352 160.526 175.25 162.689 146.027C163.817 137.549 164.386 129.006 164.391 120.453C164.511 88.486 155.895 70.8911 155.418 69.9022L155.299 69.7147C153.522 64.3882 151.104 59.2984 148.097 54.5578L147.995 54.4385C140.289 41.299 128.478 31.0655 114.385 25.3182C104.862 21.3524 94.7209 19.0792 84.4181 18.6008L84.4181 3.08592C84.3807 2.75264 84.222 2.44484 83.9723 2.22132C83.7226 1.9978 83.3994 1.87423 83.0645 1.87423C82.7296 1.87423 82.4064 1.9978 82.1567 2.22132C81.907 2.44484 81.7483 2.75264 81.7109 3.08592L81.7109 24.5681C81.7109 25.0202 81.5315 25.4539 81.2122 25.7736C80.8929 26.0934 80.4598 26.273 80.0083 26.273C79.5567 26.273 79.1236 26.0934 78.8043 25.7736C78.485 25.4539 78.3056 25.0202 78.3056 24.5681L78.3056 2.91543C78.2682 2.58215 78.1095 2.27434 77.8598 2.05082C77.6101 1.8273 77.2869 1.70374 76.952 1.70374C76.6171 1.70374 76.2939 1.8273 76.0442 2.05082C75.7945 2.27434 75.6358 2.58215 75.5984 2.91543L75.5984 18.3621C69.6562 18.7542 45.07 21.5844 37.357 39.2134L37.0165 39.9977C36.4523 41.0214 36.0122 42.1089 35.7054 43.2371C29.3035 60.4057 33.3388 69.7999 35.7054 71.3514C36.3896 71.7744 37.1839 71.9841 37.9873 71.9537C38.7908 71.9234 39.5671 71.6543 40.2174 71.1809C41.256 70.4648 43.6227 68.2143 42.3968 62.7585C41.9112 60.7218 41.2504 58.7309 40.4218 56.8083C38.8042 52.6483 37.1186 48.2837 38.2764 43.9531C38.6169 43.0552 38.9915 42.1175 39.4002 41.14L39.7407 40.3557C46.6705 24.551 69.6732 21.6867 75.4962 21.2093L75.4962 24.7045C75.5658 25.8215 76.058 26.87 76.8726 27.6364C77.6871 28.4028 78.7628 28.8295 79.8806 28.8295C80.9983 28.8295 82.074 28.4028 82.8886 27.6364C83.7031 26.87 84.1953 25.8215 84.2649 24.7045L84.2649 21.3116C94.2175 21.8104 104.009 24.0252 113.21 27.8586C126.823 33.2601 138.22 43.0987 145.56 55.7854C145.649 55.9003 145.752 56.0034 145.867 56.0923L146.054 56.365C149.39 62.392 151.877 68.8525 153.443 75.5626C159.113 99.1929 153.443 123.164 137.319 143.061C128.762 153.701 117.881 162.234 105.514 168.004C99.2385 169.019 92.885 169.47 86.5294 169.351C76.0394 169.222 65.9416 165.339 58.0612 158.405C54.5707 155.285 51.9146 151.858 51.9146 148.704C51.9146 145.738 52.5446 143.743 53.7194 142.941C54.1665 142.705 54.6588 142.565 55.1636 142.533C55.6684 142.501 56.1744 142.576 56.648 142.754C56.8375 142.828 57.0411 142.858 57.2439 142.843C57.4466 142.828 57.6434 142.767 57.8198 142.666C57.9961 142.564 58.1476 142.425 58.263 142.257C58.3784 142.089 58.4549 141.898 58.4868 141.697C58.8471 138.937 58.1406 136.144 56.5118 133.888C55.7543 133.065 54.8237 132.421 53.7872 132.002C52.7506 131.584 51.6342 131.401 50.5184 131.467C46.9088 131.467 43.7079 134.28 42.3457 138.628C40.3026 145.192 42.4479 155.149 54.5197 163.673C66.2679 171.857 83.073 172.641 94.2935 172.028C90.1889 173.076 85.9635 173.575 81.7279 173.511C49.3777 172.658 32.6066 151.671 30.4783 132.013C32.0277 115.168 40.5069 108.144 47.7602 108.741C48.2749 108.748 48.7807 108.877 49.2364 109.117C49.692 109.357 50.0846 109.701 50.3822 110.122C51.9487 112.355 51.1825 116.941 50.7568 118.425C50.698 118.591 50.6731 118.768 50.6833 118.944C50.6936 119.121 50.7389 119.294 50.8166 119.452C50.8942 119.611 51.0027 119.753 51.1357 119.869C51.2687 119.985 51.4235 120.074 51.5911 120.129C51.9146 120.266 59.7127 123.13 63.2713 118.834C64.7942 116.944 65.5211 114.534 65.2974 112.116C66.9704 112.79 68.8159 112.903 70.5586 112.44C71.5984 112 72.5361 111.35 73.3129 110.529C74.0896 109.709 74.6887 108.737 75.0724 107.674C75.4561 106.611 75.6162 105.48 75.5427 104.352C75.4691 103.224 75.1635 102.124 74.6449 101.12C74.1413 100.307 73.4602 99.6188 72.6528 99.1077C74.092 98.3229 75.2744 97.1389 76.0581 95.6978C76.4878 94.8073 76.711 93.8311 76.711 92.8421C76.711 91.853 76.4878 90.8768 76.0581 89.9863C75.7426 89.0617 75.217 88.2232 74.5226 87.5368C73.8283 86.8504 72.9842 86.3349 72.0569 86.0309C70.2875 85.6018 68.4278 85.745 66.7447 86.44C67.2311 84.2983 67.0162 82.0566 66.1317 80.0466C65.6856 79.1837 65.0543 78.4304 64.283 77.8409C63.5117 77.2513 62.6196 76.8401 61.6708 76.6367C57.959 75.699 55.354 77.9665 53.8045 80.5239C53.1418 79.3572 52.2363 78.3469 51.1493 77.5615C50.0623 76.776 48.8194 76.2339 47.5048 75.9718C40.0131 74.2668 35.9778 86.8322 35.8076 87.3778C35.7214 87.6369 35.717 87.9164 35.795 88.1781C35.873 88.4399 36.0296 88.6712 36.2435 88.8407C36.4575 89.0102 36.7183 89.1097 36.9906 89.1255C37.263 89.1413 37.5336 89.0728 37.7656 88.9292C38.3348 88.5847 38.9694 88.3628 39.6291 88.2777C40.2887 88.1926 40.9588 88.2461 41.5966 88.4348C42.5841 88.9122 43.2992 90.1397 43.5376 92.1686C43.9292 94.8624 41.3242 98.4428 38.2764 102.603C33.4068 109.252 26.7325 118.39 27.669 130.751C29.1502 150.341 44.3038 171.67 74.1171 175.472C73.7936 177.177 72.4145 180.45 66.7787 181.49C60.5981 182.615 53.1575 176.853 43.7419 169.555C40.4728 167.032 37.1186 164.441 33.3728 161.764C23.5656 154.842 14.7629 155.387 9.65496 158.252C7.52096 159.43 5.77679 161.206 4.63653 163.362C3.49627 165.519 3.00951 167.961 3.236 170.391C4.24056 182.649 15.1545 182.325 15.1545 182.325C15.3559 182.314 15.5523 182.258 15.7295 182.162C15.9067 182.066 16.0604 181.931 16.1793 181.768C16.2982 181.605 16.3795 181.417 16.4172 181.219C16.4549 181.02 16.4482 180.816 16.3974 180.62C15.9409 178.642 16.2513 176.564 17.2658 174.807C18.0664 173.718 19.0862 172.809 20.2593 172.14C21.4324 171.47 22.7328 171.054 24.0764 170.919C29.0651 169.999 35.2798 174.159 41.869 178.575C49.3947 183.689 57.1928 188.804 65.1101 188.173C70.4735 187.73 74.4576 185.957 76.9265 182.922C78.4771 180.973 79.3871 178.59 79.5315 176.102C80.2126 176.102 80.8766 176.102 81.5747 176.205C90.1819 176.175 98.6742 174.224 106.433 170.493C106.524 170.504 106.615 170.504 106.706 170.493C119.437 164.585 130.648 155.837 139.482 144.919C148.409 134.097 154.47 121.197 157.104 107.411C156.42 113.782 155.085 120.066 153.12 126.165L152.609 127.716C141.286 161.491 111.746 193.032 95.5875 195.146C92.08 195.607 89.5771 194.635 87.9426 192.163C87.8139 191.958 87.6313 191.793 87.4148 191.685C86.1731 191.119 84.8293 190.812 83.4651 190.782C82.101 190.753 80.7452 191.002 79.4804 191.515C76.5349 192.845 74.3725 195.828 73.2147 200.347C72.6211 202.187 72.6533 204.172 73.3064 205.992C73.9595 207.813 75.1967 209.365 76.8243 210.406C83.056 214.821 96.4899 214.463 106.706 207.047C128.653 190.952 145.117 164.083 155.657 127.12C155.895 126.404 156.082 125.688 156.287 124.989C154.425 141.19 150.089 157.008 143.432 171.891C137.351 184.764 129.792 196.883 120.906 208.002C111.371 220.601 103.147 231.479 98.8736 251.972C98.8041 252.324 98.871 252.69 99.0609 252.995C99.1624 253.146 99.293 253.275 99.4451 253.374C99.5971 253.474 99.7675 253.542 99.9462 253.575C101.955 253.927 104.012 253.892 106.008 253.472C103.59 260.292 99.8441 276.523 107.217 298.329C112.324 313.247 122.625 323.426 134.953 325.608C142.717 326.972 150.021 324.704 154.005 319.675ZM142.887 154.876C133.131 176.853 120.497 193.612 105.122 204.882C96.0472 211.514 83.72 212.042 78.3227 208.292C77.1578 207.57 76.2724 206.473 75.8115 205.181C75.3505 203.89 75.3415 202.479 75.7857 201.182C76.7732 197.465 78.3737 195.095 80.5531 194.106C82.2657 193.402 84.1868 193.402 85.8994 194.106C87.0251 195.64 88.5674 196.817 90.3425 197.497C92.1176 198.177 94.0506 198.332 95.911 197.943C108.596 196.34 128.568 178.54 142.887 154.876ZM76.7732 175.83L76.9265 175.83C76.8171 177.78 76.1096 179.65 74.9003 181.183C72.8912 183.604 69.554 185.036 64.9739 185.411C57.976 185.991 50.5865 181.047 43.4525 176.273C36.3184 171.499 29.7291 167.083 23.6677 168.209C21.942 168.4 20.2761 168.954 18.7795 169.836C17.283 170.717 15.9896 171.906 14.9842 173.323C13.8877 175.16 13.3879 177.293 13.554 179.427C11.1022 179.018 6.52209 177.296 5.9432 170.152C5.74862 168.225 6.1303 166.284 7.03979 164.575C7.94926 162.866 9.34548 161.466 11.0511 160.553C15.3588 158.115 23.0888 157.74 31.8745 163.963C35.5522 166.589 38.9064 169.18 42.0904 171.687C52.0338 179.393 59.9 185.48 67.2725 184.116C74.6449 182.752 76.3476 178.268 76.7732 175.83ZM42.2606 106.763C41.9391 106.882 41.5879 106.895 41.2586 106.799C40.9293 106.704 40.6393 106.505 40.4315 106.232C40.2237 105.959 40.1089 105.626 40.104 105.283C40.0992 104.939 40.2046 104.604 40.4047 104.325C43.9292 99.4998 46.7215 95.6978 46.1597 91.9129C45.717 88.9633 44.5592 87.0197 42.7544 86.1332C41.6899 85.6444 40.501 85.4956 39.3491 85.7069C40.7453 82.6039 43.4354 77.9324 46.8407 78.7338C48.2687 78.9349 49.5837 79.623 50.5639 80.6822C51.544 81.7413 52.1293 83.1065 52.2211 84.5476C52.2105 84.8823 52.3248 85.2091 52.5417 85.464C52.7587 85.7189 53.0627 85.8838 53.3945 85.9264C53.7262 85.9689 54.0619 85.8862 54.3361 85.6943C54.6102 85.5025 54.8032 85.2152 54.8772 84.8886C54.8772 84.6158 56.699 78.2393 61.0238 79.3305C61.5985 79.4362 62.142 79.6705 62.6137 80.0159C63.0854 80.3613 63.4731 80.8089 63.748 81.3252C64.8717 83.5417 64.0545 86.9004 63.4075 88.5371C63.3409 88.6994 63.3062 88.8731 63.3053 89.0486C63.3045 89.2479 63.3485 89.4449 63.4339 89.6249C63.5194 89.8049 63.6442 89.9634 63.7991 90.0886C64.0407 90.2823 64.3409 90.3878 64.6504 90.3878C64.9599 90.3878 65.2601 90.2823 65.5017 90.0886C66.4212 89.4578 69.2986 87.9574 71.3759 88.6053C71.9175 88.7926 72.4076 89.1046 72.8069 89.5162C73.2061 89.9279 73.5033 90.4276 73.6744 90.9752C73.9249 91.5085 74.0548 92.0907 74.0548 92.6801C74.0548 93.2695 73.9249 93.8517 73.6744 94.385C72.4485 96.806 68.5665 97.7949 68.5665 97.7949C68.1962 97.8152 67.8491 97.982 67.6017 98.2586C67.3542 98.5352 67.2266 98.8989 67.2469 99.2696C67.2673 99.6404 67.4338 99.988 67.71 100.236C67.9862 100.484 68.3494 100.611 68.7197 100.591C70.1539 100.73 71.4782 101.421 72.4145 102.518C72.7389 103.095 72.9288 103.738 72.9701 104.4C73.0114 105.061 72.9029 105.723 72.6528 106.337C72.5187 107.102 72.1874 107.819 71.6917 108.417C71.196 109.015 70.5531 109.473 69.8264 109.746C68.8679 109.924 67.8828 109.897 66.9354 109.668C65.9879 109.438 65.0991 109.012 64.3269 108.417C64.0853 108.223 63.7851 108.117 63.4756 108.117C63.1661 108.117 62.8658 108.223 62.6243 108.417C62.3812 108.587 62.2022 108.834 62.1158 109.119C62.0294 109.403 62.0405 109.708 62.1475 109.985C62.5497 111.155 62.6714 112.404 62.5028 113.63C62.3342 114.856 61.8801 116.026 61.177 117.044C59.4744 119.107 55.5412 118.39 53.6173 117.879C54.0259 115.731 54.5026 111.383 52.5616 108.604C52.0382 107.855 51.35 107.236 50.5499 106.796C49.7499 106.356 48.8595 106.105 47.9474 106.064C46.0238 105.89 44.0853 106.129 42.2606 106.763ZM61.194 164.321C59.41 163.493 57.701 162.512 56.0861 161.389C45.2232 153.802 43.2311 145.09 45.0019 139.446C45.9894 136.292 48.2369 134.161 50.6036 134.161C51.3242 134.103 52.0485 134.208 52.7232 134.468C53.398 134.728 54.006 135.135 54.5026 135.661C55.3913 136.858 55.8638 138.313 55.8477 139.804C54.5829 139.673 53.3108 139.973 52.2381 140.657C50.246 141.987 49.2244 144.681 49.2074 148.67C49.2074 154.467 55.388 160.264 61.194 164.321ZM151.69 195.965C149.425 205.189 147.041 213.798 144.879 221.675C138.545 244.351 133.982 260.735 139.635 268.237C140.899 269.998 142.601 271.397 144.573 272.295C146.544 273.192 148.716 273.557 150.872 273.352C149.17 278.91 145.85 281.876 141.729 280.99C136.86 280.018 131.071 273.437 131.071 261.929C131.081 259.329 131.344 256.737 131.854 254.188C133.999 243.311 137.575 234.258 141.695 223.789C144.76 215.93 148.233 207.115 151.69 195.965ZM115.611 309.292C113.128 305.649 111.162 301.678 109.771 297.494C100.44 269.874 109.771 251.29 109.907 251.102C110.047 250.81 110.078 250.477 109.992 250.164C109.907 249.851 109.712 249.579 109.443 249.399C109.174 249.219 108.848 249.142 108.527 249.182C108.206 249.222 107.91 249.378 107.693 249.619C106.45 251.085 103.692 251.324 101.819 251.119C106.042 232.144 113.942 221.641 123.051 209.707C132.067 198.421 139.725 186.112 145.867 173.034L146.973 170.578C143.181 184.602 138.167 198.265 131.99 211.412C116.717 242.936 109.992 293.112 115.611 309.292ZM135.412 322.931C132.423 322.393 129.545 321.356 126.899 319.862C129.145 320.642 131.503 321.046 133.88 321.056C135.744 321.073 137.586 320.647 139.253 319.811C140.919 318.975 142.364 317.753 143.466 316.248C145.059 314.449 145.905 312.108 145.829 309.705C145.753 307.302 144.761 305.019 143.057 303.324C144.341 302.426 145.901 302.013 147.461 302.16C149.02 302.307 150.477 303.003 151.57 304.126C154.771 306.99 156.27 312.548 151.962 317.97C148.523 322.232 142.206 324.159 135.412 322.965L135.412 322.931Z" fill="#CEAF7E"/>
<path d="M88.1296 227.387C104.271 219.237 118.062 201.421 118.198 201.25C118.305 201.109 118.439 200.99 118.592 200.9C118.745 200.811 118.915 200.753 119.09 200.729C119.266 200.705 119.444 200.716 119.616 200.762C119.787 200.808 119.948 200.887 120.088 200.994C120.367 201.216 120.548 201.538 120.593 201.892C120.637 202.246 120.542 202.603 120.327 202.887C119.748 203.637 106.024 221.368 89.3215 229.808C89.0009 229.968 88.6297 229.995 88.2897 229.881C87.9496 229.768 87.6685 229.524 87.5082 229.203C87.3479 228.881 87.3215 228.51 87.4348 228.169C87.5482 227.829 87.792 227.547 88.1126 227.387L88.1296 227.387Z" fill="#CEAF7E"/>
<path d="M84.3154 228.563C84.5638 228.821 84.6997 229.167 84.6933 229.525C84.687 229.883 84.5388 230.224 84.2814 230.473C84.024 230.721 83.6785 230.857 83.3208 230.851C82.9632 230.845 82.6228 230.696 82.3744 230.439C79.4375 227.621 75.6435 225.868 71.5967 225.46C71.2789 225.436 70.9617 225.513 70.69 225.68C70.4184 225.847 70.2062 226.095 70.0837 226.39C69.9611 226.684 69.9344 227.01 70.0073 227.32C70.0803 227.631 70.2491 227.911 70.49 228.12C73.0997 230.24 76.1202 231.796 79.3607 232.689C79.579 232.751 79.7787 232.866 79.942 233.023C80.1054 233.181 80.2274 233.377 80.2972 233.593C80.3616 233.808 80.372 234.035 80.3275 234.256C80.2829 234.476 80.1848 234.681 80.0418 234.854C80.0418 234.854 77.2154 238.401 80.178 243.839L80.7569 244.947C80.8607 245.155 81.0246 245.327 81.2272 245.441C81.4299 245.554 81.6619 245.604 81.8933 245.584C82.1246 245.564 82.3445 245.475 82.5244 245.328C82.7043 245.181 82.836 244.983 82.9022 244.76C83.8699 241.468 84.3237 238.046 84.2473 234.616C84.2473 234.258 84.389 233.916 84.6413 233.663C84.8935 233.411 85.2357 233.269 85.5924 233.269C85.9491 233.269 86.2913 233.411 86.5435 233.663C86.7958 233.916 86.9375 234.258 86.9375 234.616L86.9375 235.144C86.9375 245.919 83.0214 251.324 81.8296 252.756C81.6806 252.957 81.5028 253.135 81.3018 253.285C81.0241 253.487 80.6796 253.576 80.3388 253.532C79.998 253.489 79.6868 253.316 79.469 253.05C79.2512 252.784 79.1434 252.445 79.1676 252.101C79.1917 251.758 79.3462 251.437 79.5991 251.205C79.7013 251.017 80.195 249.5 77.8965 245.203C77.0613 243.836 76.5182 242.311 76.3013 240.724C76.0844 239.136 76.1986 237.521 76.6365 235.98C76.7383 235.676 76.7211 235.345 76.5883 235.054C76.4555 234.763 76.2171 234.533 75.9214 234.411C71.2582 232.698 67.246 229.568 64.4456 225.46C64.3377 225.283 64.2724 225.082 64.2547 224.875C64.237 224.668 64.2673 224.46 64.3434 224.267C64.4255 224.075 64.5489 223.903 64.7049 223.765C64.861 223.626 65.0457 223.524 65.2458 223.465C68.5949 222.618 72.1045 222.642 75.4418 223.534C78.7791 224.426 81.8336 226.157 84.3154 228.563Z" fill="#CEAF7E"/>
<path d="M69.4159 236.389C70.761 237.139 72.7191 236.235 73.6215 237.736C74.5239 239.236 73.0085 239.441 73.1617 243.43C73.315 247.42 73.9109 248.238 70.3183 250.779C66.7257 253.319 61.9413 248.392 59.3873 248.392C56.8334 248.392 55.0456 250.779 54.2794 249.432C53.5132 248.085 57.6847 244.487 57.6847 242.237C57.6847 239.986 57.6847 231.751 62.1627 231.751C66.6406 231.751 68.0708 235.639 69.4159 236.389Z" fill="#CEAF7E"/>
<path d="M46.0057 102.876C45.4438 101.853 51.1136 99.0395 52.4757 96.6355C53.8378 94.2316 51.5222 91.0604 52.9695 89.7135C54.4167 88.3666 60.9379 90.0033 63.3045 95.1693C65.6712 100.335 62.3511 105.399 60.6144 105.399C58.8777 105.399 59.3203 103.694 54.9445 102.313C50.5687 100.932 46.4313 103.626 46.0057 102.876Z" fill="#CEAF7E"/>
<path d="M66.2166 72.6301C65.3313 73.9259 60.002 72.8347 59.4061 71.8458C58.8101 70.857 60.3936 63.0825 57.3288 57.5074C54.2641 51.9322 48.8156 55.5467 48.2878 51.9322C47.76 48.3178 55.4219 39.9977 60.8022 39.401C66.1826 38.8043 71.0181 46.1014 71.1884 53.1768C71.3586 60.2523 67.1191 71.3344 66.2166 72.6301Z" fill="#CEAF7E"/>
<path d="M69.7915 75.5456C69.7915 74.1987 77.7259 70.4308 80.0074 57.6438C82.2889 44.8568 75.921 39.8784 76.1424 37.4063C76.3637 34.9341 81.5398 33.8771 85.5069 33.8089C89.4741 33.7407 99.1281 34.9341 98.6003 47.8234C98.0725 60.7127 74.8143 78.3246 73.9119 78.4269C73.0095 78.5292 69.7915 78.6486 69.7915 75.5456Z" fill="#CEAF7E"/>
<path d="M76.9931 81.5469C76.942 79.2964 89.6778 78.2564 99.3658 64.7874C109.054 51.3184 100.404 45.1466 102.771 41.1059C105.138 37.0652 129.571 40.0659 122.982 59.2464C116.392 78.4268 81.6583 84.8203 79.9897 85.0249C78.3211 85.2295 77.0271 82.9108 76.9931 81.5469Z" fill="#CEAF7E"/>
<path d="M133.64 62.2471C135.445 61.3946 149.219 74.3521 142.153 88.8952C135.087 103.438 83.2074 95.4762 81.6921 94.8625C80.7726 94.5385 80.9429 93.1575 81.4026 92.1857C81.8623 91.2139 92.9295 88.8952 104.746 85.7411C116.562 82.587 131.852 63.0825 133.64 62.2471Z" fill="#CEAF7E"/>
<path d="M79.5983 101.784C80.5007 100.284 95.467 106.285 109.241 105.979C123.016 105.672 136.33 101.034 140.383 105.467C144.435 109.9 143.379 125.619 131.257 127.41C119.134 129.2 78.5938 103.455 79.5983 101.784Z" fill="#CEAF7E"/>
<path d="M76.993 113.02C76.3119 110.326 78.2529 110.48 78.8488 110.019C80.0577 109.116 120.462 130.717 121.824 143.453C123.186 156.189 99.8084 156.496 97.5609 155.149C95.3134 153.802 99.9617 149.898 96.8118 138.662C93.6619 127.427 77.7592 115.731 76.993 113.02Z" fill="#CEAF7E"/>
<path d="M83.6519 161.44C78.8505 160.536 67.3576 155.746 64.1226 152.148C60.8876 148.551 72.6358 146.761 73.1636 134.604C73.6915 122.448 67.5449 118.868 70.7629 117.078C73.6744 115.475 86.4953 131.16 88.7428 144.8C90.9903 158.439 88.4364 162.344 83.6519 161.44Z" fill="#CEAF7E"/>
<path d="M3.77934 125.858C1.87238 124.273 -0.936989 125.96 0.374046 127.989C1.68509 130.018 -0.528358 135.525 1.27645 139.685C3.08125 143.845 10.4707 145.857 13.5185 146.198C16.5662 146.539 34.3929 164.509 35.1931 162.736C35.8572 161.27 19.5799 147.664 17.8942 143.726C16.2086 139.787 17.5537 133.275 15.0849 130.086C12.6161 126.898 5.70333 127.427 3.77934 125.858ZM12.7012 138.56C11.1518 141.816 6.36735 139.344 4.80092 137.435C3.23449 135.525 4.68173 130.12 4.23904 128.91C3.79636 127.699 16.8897 129.677 12.7012 138.56Z" fill="#CEAF7E"/>
</g>
<g clip-path="url(#clip1_889_12)">
<path d="M1368.13 12.7188C1368.34 12.84 1368.58 12.9038 1368.82 12.9038C1369.06 12.9038 1369.3 12.84 1369.51 12.7188C1369.65 12.5994 1382.67 4.33051 1394.59 7.1607C1406.51 9.99089 1415.6 24.6874 1415.69 24.8408C1415.84 25.096 1416.07 25.2943 1416.34 25.405C1416.62 25.5156 1416.92 25.5324 1417.21 25.4528C1417.49 25.3731 1417.74 25.2015 1417.92 24.9644C1418.1 24.7274 1418.19 24.4383 1418.19 24.1418L1418.19 1.34688C1418.19 1.16856 1418.15 0.992015 1418.09 0.827481C1418.02 0.662947 1417.92 0.513702 1417.79 0.388406C1417.66 0.26311 1417.51 0.164256 1417.35 0.0975792C1417.18 0.0309027 1417.01 -0.00226921 1416.83 -1.19913e-05L1368.78 -1.40916e-05C1368.42 -1.41072e-05 1368.08 0.141891 1367.83 0.394483C1367.58 0.647075 1367.43 0.989663 1367.43 1.34688L1367.43 11.5765C1367.44 11.8117 1367.51 12.0414 1367.63 12.242C1367.75 12.4427 1367.92 12.6072 1368.13 12.7188Z" fill="#CEAF7E"/>
<path d="M1420.44 1.43219C1420.44 1.63678 1421.75 21.7379 1420.59 28.4042C1420.52 29.5727 1420.12 30.6975 1419.44 31.646C1418.75 32.5946 1417.81 33.3272 1416.72 33.7577C1416.14 33.9473 1415.6 34.2687 1415.16 34.6972C1414.72 35.1257 1414.38 35.65 1414.17 36.2298C1414.09 36.5128 1414.06 36.806 1414.07 37.0994C1414.16 38.2412 1414.52 39.3457 1415.11 40.3272C1415.7 41.3088 1416.51 42.1411 1417.47 42.7597C1418.65 43.5271 1420.05 43.8678 1421.45 43.7251C1422.85 43.5824 1424.15 42.9649 1425.15 41.9755C1430.89 37.4062 1428.56 7.22896 1428.13 1.2276C1428.1 0.879349 1427.94 0.556585 1427.67 0.327515C1427.41 0.0984453 1427.07 -0.0189832 1426.72 4.61979e-05L1421.83 4.59843e-05C1421.65 -0.000743266 1421.46 0.0367029 1421.29 0.110043C1421.12 0.183383 1420.97 0.291039 1420.84 0.426279C1420.71 0.554361 1420.6 0.710631 1420.53 0.8843C1420.46 1.05797 1420.43 1.2449 1420.44 1.43219Z" fill="#CEAF7E"/>
<path d="M1438.64 -1.82249e-05C1438.99 -1.82093e-05 1439.34 0.141887 1439.59 0.394479C1439.84 0.647071 1439.98 0.989659 1439.98 1.34688L1439.98 84.5475C1439.98 106.064 1430.31 108.587 1426.14 108.672C1425.24 108.711 1424.34 108.561 1423.5 108.232C1422.67 107.903 1421.9 107.403 1421.27 106.763C1417.86 103.353 1417.73 96.3798 1417.73 96.0899C1417.73 95.8908 1417.77 95.6943 1417.86 95.5144C1417.94 95.3346 1418.07 95.176 1418.22 95.0499C1418.37 94.9245 1418.55 94.8336 1418.73 94.7835C1418.92 94.7334 1419.12 94.7254 1419.31 94.7601C1419.7 94.7601 1428.9 96.2263 1432 83.0302C1433.58 75.1694 1434.43 67.1792 1434.55 59.1611C1431.96 68.794 1428.54 75.2045 1424.33 77.9154C1423.39 78.5787 1422.31 79.0289 1421.18 79.2349C1420.04 79.441 1418.88 79.3979 1417.76 79.1088C1413.4 77.9665 1412.37 73.4825 1412.37 69.51C1412.38 67.2123 1412.66 64.924 1413.2 62.6903C1413.28 62.356 1413.49 62.067 1413.79 61.883C1414.08 61.699 1414.43 61.634 1414.77 61.7015C1414.77 61.7015 1419.6 62.4005 1426.09 55.3591C1431.76 49.443 1431.26 14.3896 1430.6 1.41507C1430.59 1.05889 1430.71 0.711357 1430.95 0.446876C1431.19 0.182395 1431.52 0.0219835 1431.88 -1.85203e-05C1432.05 -0.00920434 1432.23 0.0166061 1432.4 0.0759344C1432.56 0.135263 1432.72 0.226943 1432.85 0.345724C1432.98 0.464505 1433.09 0.608053 1433.16 0.768145C1433.24 0.928237 1433.28 1.10173 1433.29 1.27868C1433.55 6.17183 1435.5 49.2896 1428.18 57.2857C1422.62 63.3211 1417.97 64.3782 1415.7 64.4976C1415.16 67.3789 1414.1 75.3239 1418.56 76.4321C1419.31 76.6271 1420.1 76.6517 1420.86 76.5043C1421.63 76.3568 1422.35 76.0409 1422.97 75.5796C1425.9 73.6701 1431.28 67.2084 1434.64 45.5558L1434.64 1.34688C1434.64 0.989659 1434.78 0.64707 1435.03 0.394478C1435.28 0.141886 1435.62 -1.83566e-05 1435.98 -1.8341e-05L1438.64 -1.82249e-05ZM1437.29 77.9665C1437.02 77.3527 1436.44 75.8694 1434.62 83.661C1431.76 95.8342 1423.94 97.4198 1420.5 97.505C1420.69 99.4657 1421.27 102.995 1423.16 104.853C1423.54 105.236 1424 105.534 1424.5 105.728C1425.01 105.922 1425.55 106.007 1426.09 105.979C1433.21 105.825 1437.29 98.0165 1437.29 84.5475C1437.44 82.3563 1437.44 80.1578 1437.29 77.9665Z" fill="#CEAF7E"/>
<path d="M1299.97 28.9839C1300.06 28.7735 1300.09 28.5442 1300.06 28.3189C1299.83 26.4676 1300.02 24.5892 1300.61 22.8198C1301.2 21.0504 1302.17 19.4345 1303.46 18.0893C1309.65 11.0991 1322.91 7.51877 1332.8 7.60402C1346.42 7.70632 1349.21 12.5483 1349.21 12.5654C1349.36 12.816 1349.59 13.0121 1349.86 13.1243C1350.12 13.2365 1350.42 13.2587 1350.7 13.1877C1350.98 13.1167 1351.24 12.9562 1351.42 12.7303C1351.6 12.5044 1351.71 12.2253 1351.72 11.9345L1351.72 3.40989C1351.72 3.23301 1351.68 3.05787 1351.62 2.89445C1351.55 2.73104 1351.45 2.58256 1351.32 2.45749C1351.2 2.33242 1351.05 2.23321 1350.89 2.16552C1350.72 2.09783 1350.55 2.06299 1350.37 2.06299C1350.2 2.06299 1350.02 2.09783 1349.86 2.16552C1349.69 2.23321 1349.55 2.33242 1349.42 2.45749C1349.3 2.58256 1349.2 2.73104 1349.13 2.89445C1349.06 3.05787 1349.03 3.23301 1349.03 3.40989L1349.03 8.52468C1346.51 6.81975 1341.69 4.77383 1332.75 4.72268C1322.53 4.72268 1308.4 8.13255 1301.39 16.1116C1299.89 17.692 1298.76 19.5763 1298.06 21.6359C1297.36 23.6956 1297.11 25.8821 1297.34 28.0461C1297.04 28.5736 1296.57 28.9789 1296.01 29.1885C1295.4 29.324 1294.77 29.3349 1294.15 29.2207C1293.54 29.1064 1292.95 28.8693 1292.43 28.5235C1291.66 28.0506 1291.03 27.3884 1290.59 26.6003C1290.16 25.8122 1289.93 24.9246 1289.93 24.0225C1289.83 20.9877 1291.63 16.4356 1296.89 12.6847C1301.01 9.63246 1305.41 6.96717 1310.02 4.72268C1310.31 4.59942 1310.54 4.38086 1310.68 4.10421C1310.83 3.82755 1310.87 3.50989 1310.8 3.20529C1310.74 2.89863 1310.57 2.62435 1310.32 2.42868C1310.08 2.23302 1309.77 2.12795 1309.46 2.13119L1300.54 2.13119C1299.96 2.13831 1299.39 2.30019 1298.9 2.60001C1298.41 2.89983 1298 3.32665 1297.73 3.83612C1297.18 4.79088 1295.58 6.68335 1291.02 8.59288C1286.46 10.5024 1282.81 7.12664 1281.02 4.97842C1280.58 4.44508 1280.03 4.01584 1279.4 3.72118C1278.77 3.42652 1278.09 3.27367 1277.4 3.27349L1273.35 3.27349C1272.99 3.27349 1272.65 3.41539 1272.39 3.66799C1272.14 3.92058 1272 4.26317 1272 4.62039C1272 4.97761 1272.14 5.32019 1272.39 5.57279C1272.65 5.82538 1272.99 5.96728 1273.35 5.96728L1277.4 5.96728C1277.7 5.97062 1277.99 6.03948 1278.26 6.16905C1278.53 6.29862 1278.77 6.48578 1278.96 6.71745C1280.77 8.88272 1285.62 13.6395 1292.06 11.0309C1297.08 8.93386 1299.24 6.66631 1300.06 5.11482C1300.11 5.03116 1300.18 4.96182 1300.26 4.91389C1300.34 4.86596 1300.44 4.84116 1300.54 4.84203L1304.06 4.84203C1301.85 6.12073 1298.95 7.96205 1295.36 10.4854C1290.25 14.151 1287.05 19.368 1287.26 24.1248C1287.26 25.4783 1287.62 26.8074 1288.28 27.984C1288.95 29.1606 1289.91 30.145 1291.07 30.8422C1291.9 31.4358 1292.86 31.8383 1293.86 32.021C1294.87 32.2037 1295.9 32.1621 1296.89 31.8993C1297.58 31.6486 1298.2 31.2607 1298.73 30.7594C1299.26 30.2582 1299.69 29.654 1299.97 28.9839Z" fill="#CEAF7E"/>
<path d="M1285.99 319.675C1280.89 313.196 1282.45 305.95 1286.71 302.148C1287.59 301.289 1288.63 300.612 1289.77 300.158C1290.91 299.703 1292.13 299.48 1293.35 299.5C1294.58 299.521 1295.79 299.785 1296.92 300.278C1298.04 300.77 1299.06 301.481 1299.91 302.37C1300.04 302.51 1300.14 302.676 1300.21 302.857C1300.28 303.039 1300.31 303.233 1300.3 303.427C1300.28 303.622 1300.22 303.811 1300.12 303.982C1300.03 304.152 1299.89 304.3 1299.74 304.416C1298.27 305.592 1297.27 307.246 1296.91 309.087C1296.81 310.083 1296.9 311.09 1297.2 312.047C1297.49 313.005 1297.97 313.894 1298.61 314.662C1299.46 315.84 1300.58 316.794 1301.87 317.442C1303.17 318.089 1304.6 318.411 1306.05 318.379C1310.87 318.379 1316.18 314.969 1320.29 309.496C1327.25 300.051 1322.52 247.573 1305.56 212.571C1285.74 171.584 1279.68 118.271 1279.63 117.743L1279.63 117.64C1279.63 117.431 1279.67 117.224 1279.77 117.037C1279.86 116.85 1280 116.689 1280.17 116.566C1279.72 110.741 1279.56 104.897 1279.69 99.0565C1277.29 118.014 1277.9 137.232 1281.48 156.001C1285.46 178.931 1291.95 201.35 1300.84 222.852C1305.01 233.439 1308.62 242.595 1310.82 253.728C1314.05 270.112 1307.11 282.03 1298.9 283.684C1294.25 284.604 1288.12 282.081 1286.1 271.937C1286.05 271.705 1286.06 271.464 1286.14 271.239C1286.21 271.014 1286.34 270.814 1286.52 270.658C1286.7 270.498 1286.92 270.39 1287.15 270.345C1287.39 270.3 1287.63 270.32 1287.85 270.402C1289.76 270.945 1291.8 270.877 1293.67 270.208C1295.55 269.539 1297.17 268.302 1298.3 266.668C1303.16 260.224 1298.53 243.567 1292.64 222.46C1286.74 201.352 1279.47 175.25 1277.31 146.027C1276.18 137.549 1275.61 129.006 1275.61 120.453C1275.49 88.486 1284.1 70.8911 1284.58 69.9022L1284.7 69.7147C1286.48 64.3882 1288.9 59.2984 1291.9 54.5578L1292.01 54.4385C1299.71 41.299 1311.52 31.0655 1325.62 25.3182C1335.14 21.3524 1345.28 19.0792 1355.58 18.6008L1355.58 3.08592C1355.62 2.75264 1355.78 2.44484 1356.03 2.22132C1356.28 1.9978 1356.6 1.87423 1356.94 1.87423C1357.27 1.87423 1357.59 1.9978 1357.84 2.22132C1358.09 2.44484 1358.25 2.75264 1358.29 3.08592L1358.29 24.5681C1358.29 25.0202 1358.47 25.4539 1358.79 25.7736C1359.11 26.0934 1359.54 26.273 1359.99 26.273C1360.44 26.273 1360.88 26.0934 1361.2 25.7736C1361.51 25.4539 1361.69 25.0202 1361.69 24.5681L1361.69 2.91543C1361.73 2.58215 1361.89 2.27434 1362.14 2.05082C1362.39 1.8273 1362.71 1.70374 1363.05 1.70374C1363.38 1.70374 1363.71 1.8273 1363.96 2.05082C1364.21 2.27434 1364.36 2.58215 1364.4 2.91543L1364.4 18.3621C1370.34 18.7542 1394.93 21.5844 1402.64 39.2134L1402.98 39.9977C1403.55 41.0214 1403.99 42.1089 1404.29 43.2371C1410.7 60.4057 1406.66 69.7999 1404.29 71.3514C1403.61 71.7744 1402.82 71.9841 1402.01 71.9537C1401.21 71.9234 1400.43 71.6543 1399.78 71.1809C1398.74 70.4648 1396.38 68.2143 1397.6 62.7585C1398.09 60.7218 1398.75 58.7309 1399.58 56.8083C1401.2 52.6483 1402.88 48.2837 1401.72 43.9531C1401.38 43.0552 1401.01 42.1175 1400.6 41.14L1400.26 40.3557C1393.33 24.551 1370.33 21.6867 1364.5 21.2093L1364.5 24.7045C1364.43 25.8215 1363.94 26.87 1363.13 27.6364C1362.31 28.4028 1361.24 28.8295 1360.12 28.8295C1359 28.8295 1357.93 28.4028 1357.11 27.6364C1356.3 26.87 1355.8 25.8215 1355.74 24.7045L1355.74 21.3116C1345.78 21.8104 1335.99 24.0252 1326.79 27.8586C1313.18 33.2601 1301.78 43.0987 1294.44 55.7854C1294.35 55.9003 1294.25 56.0034 1294.13 56.0923L1293.95 56.365C1290.61 62.392 1288.12 68.8525 1286.56 75.5626C1280.89 99.1929 1286.56 123.164 1302.68 143.061C1311.24 153.701 1322.12 162.234 1334.49 168.004C1340.76 169.019 1347.11 169.47 1353.47 169.351C1363.96 169.222 1374.06 165.339 1381.94 158.405C1385.43 155.285 1388.09 151.858 1388.09 148.704C1388.09 145.738 1387.46 143.743 1386.28 142.941C1385.83 142.705 1385.34 142.565 1384.84 142.533C1384.33 142.501 1383.83 142.576 1383.35 142.754C1383.16 142.828 1382.96 142.858 1382.76 142.843C1382.55 142.828 1382.36 142.767 1382.18 142.666C1382 142.564 1381.85 142.425 1381.74 142.257C1381.62 142.089 1381.55 141.898 1381.51 141.697C1381.15 138.937 1381.86 136.144 1383.49 133.888C1384.25 133.065 1385.18 132.421 1386.21 132.002C1387.25 131.584 1388.37 131.401 1389.48 131.467C1393.09 131.467 1396.29 134.28 1397.65 138.628C1399.7 145.192 1397.55 155.149 1385.48 163.673C1373.73 171.857 1356.93 172.641 1345.71 172.028C1349.81 173.076 1354.04 173.575 1358.27 173.511C1390.62 172.658 1407.39 151.671 1409.52 132.013C1407.97 115.168 1399.49 108.144 1392.24 108.741C1391.73 108.748 1391.22 108.877 1390.76 109.117C1390.31 109.357 1389.92 109.701 1389.62 110.122C1388.05 112.355 1388.82 116.941 1389.24 118.425C1389.3 118.591 1389.33 118.768 1389.32 118.944C1389.31 119.121 1389.26 119.294 1389.18 119.452C1389.11 119.611 1389 119.753 1388.86 119.869C1388.73 119.985 1388.58 120.074 1388.41 120.129C1388.09 120.266 1380.29 123.13 1376.73 118.834C1375.21 116.944 1374.48 114.534 1374.7 112.116C1373.03 112.79 1371.18 112.903 1369.44 112.44C1368.4 112 1367.46 111.35 1366.69 110.529C1365.91 109.709 1365.31 108.737 1364.93 107.674C1364.54 106.611 1364.38 105.48 1364.46 104.352C1364.53 103.224 1364.84 102.124 1365.36 101.12C1365.86 100.307 1366.54 99.6188 1367.35 99.1077C1365.91 98.3229 1364.73 97.1389 1363.94 95.6978C1363.51 94.8073 1363.29 93.8311 1363.29 92.8421C1363.29 91.853 1363.51 90.8768 1363.94 89.9863C1364.26 89.0617 1364.78 88.2232 1365.48 87.5368C1366.17 86.8504 1367.02 86.3349 1367.94 86.0309C1369.71 85.6018 1371.57 85.745 1373.26 86.44C1372.77 84.2983 1372.98 82.0566 1373.87 80.0466C1374.31 79.1837 1374.95 78.4304 1375.72 77.8409C1376.49 77.2513 1377.38 76.8401 1378.33 76.6367C1382.04 75.699 1384.65 77.9665 1386.2 80.5239C1386.86 79.3572 1387.76 78.3469 1388.85 77.5615C1389.94 76.776 1391.18 76.2339 1392.5 75.9718C1399.99 74.2668 1404.02 86.8322 1404.19 87.3778C1404.28 87.6369 1404.28 87.9164 1404.2 88.1781C1404.13 88.4399 1403.97 88.6712 1403.76 88.8407C1403.54 89.0102 1403.28 89.1097 1403.01 89.1255C1402.74 89.1413 1402.47 89.0728 1402.23 88.9292C1401.67 88.5847 1401.03 88.3628 1400.37 88.2777C1399.71 88.1926 1399.04 88.2461 1398.4 88.4348C1397.42 88.9122 1396.7 90.1397 1396.46 92.1686C1396.07 94.8624 1398.68 98.4428 1401.72 102.603C1406.59 109.252 1413.27 118.39 1412.33 130.751C1410.85 150.341 1395.7 171.67 1365.88 175.472C1366.21 177.177 1367.59 180.45 1373.22 181.49C1379.4 182.615 1386.84 176.853 1396.26 169.555C1399.53 167.032 1402.88 164.441 1406.63 161.764C1416.43 154.842 1425.24 155.387 1430.35 158.252C1432.48 159.43 1434.22 161.206 1435.36 163.362C1436.5 165.519 1436.99 167.961 1436.76 170.391C1435.76 182.649 1424.85 182.325 1424.85 182.325C1424.64 182.314 1424.45 182.258 1424.27 182.162C1424.09 182.066 1423.94 181.931 1423.82 181.768C1423.7 181.605 1423.62 181.417 1423.58 181.219C1423.55 181.02 1423.55 180.816 1423.6 180.62C1424.06 178.642 1423.75 176.564 1422.73 174.807C1421.93 173.718 1420.91 172.809 1419.74 172.14C1418.57 171.47 1417.27 171.054 1415.92 170.919C1410.93 169.999 1404.72 174.159 1398.13 178.575C1390.61 183.689 1382.81 188.804 1374.89 188.173C1369.53 187.73 1365.54 185.957 1363.07 182.922C1361.52 180.973 1360.61 178.59 1360.47 176.102C1359.79 176.102 1359.12 176.102 1358.43 176.205C1349.82 176.175 1341.33 174.224 1333.57 170.493C1333.48 170.504 1333.38 170.504 1333.29 170.493C1320.56 164.585 1309.35 155.837 1300.52 144.919C1291.59 134.097 1285.53 121.197 1282.9 107.411C1283.58 113.782 1284.91 120.066 1286.88 126.165L1287.39 127.716C1298.71 161.491 1328.25 193.032 1344.41 195.146C1347.92 195.607 1350.42 194.635 1352.06 192.163C1352.19 191.958 1352.37 191.793 1352.59 191.685C1353.83 191.119 1355.17 190.812 1356.53 190.782C1357.9 190.753 1359.25 191.002 1360.52 191.515C1363.47 192.845 1365.63 195.828 1366.79 200.347C1367.38 202.187 1367.35 204.172 1366.69 205.992C1366.04 207.813 1364.8 209.365 1363.18 210.406C1356.94 214.821 1343.51 214.463 1333.29 207.047C1311.35 190.952 1294.88 164.083 1284.34 127.12C1284.1 126.404 1283.92 125.688 1283.71 124.989C1285.58 141.19 1289.91 157.008 1296.57 171.891C1302.65 184.764 1310.21 196.883 1319.09 208.002C1328.63 220.601 1336.85 231.479 1341.13 251.972C1341.2 252.324 1341.13 252.69 1340.94 252.995C1340.84 253.146 1340.71 253.275 1340.55 253.374C1340.4 253.474 1340.23 253.542 1340.05 253.575C1338.05 253.927 1335.99 253.892 1333.99 253.472C1336.41 260.292 1340.16 276.523 1332.78 298.329C1327.68 313.247 1317.37 323.426 1305.05 325.608C1297.28 326.972 1289.98 324.704 1285.99 319.675ZM1297.11 154.876C1306.87 176.853 1319.5 193.612 1334.88 204.882C1343.95 211.514 1356.28 212.042 1361.68 208.292C1362.84 207.57 1363.73 206.473 1364.19 205.181C1364.65 203.89 1364.66 202.479 1364.21 201.182C1363.23 197.465 1361.63 195.095 1359.45 194.106C1357.73 193.402 1355.81 193.402 1354.1 194.106C1352.97 195.64 1351.43 196.817 1349.66 197.497C1347.88 198.177 1345.95 198.332 1344.09 197.943C1331.4 196.34 1311.43 178.54 1297.11 154.876ZM1363.23 175.83L1363.07 175.83C1363.18 177.78 1363.89 179.65 1365.1 181.183C1367.11 183.604 1370.45 185.036 1375.03 185.411C1382.02 185.991 1389.41 181.047 1396.55 176.273C1403.68 171.499 1410.27 167.083 1416.33 168.209C1418.06 168.4 1419.72 168.954 1421.22 169.836C1422.72 170.717 1424.01 171.906 1425.02 173.323C1426.11 175.16 1426.61 177.293 1426.45 179.427C1428.9 179.018 1433.48 177.296 1434.06 170.152C1434.25 168.225 1433.87 166.284 1432.96 164.575C1432.05 162.866 1430.65 161.466 1428.95 160.553C1424.64 158.115 1416.91 157.74 1408.13 163.963C1404.45 166.589 1401.09 169.18 1397.91 171.687C1387.97 179.393 1380.1 185.48 1372.73 184.116C1365.36 182.752 1363.65 178.268 1363.23 175.83ZM1397.74 106.763C1398.06 106.882 1398.41 106.895 1398.74 106.799C1399.07 106.704 1399.36 106.505 1399.57 106.232C1399.78 105.959 1399.89 105.626 1399.9 105.283C1399.9 104.939 1399.8 104.604 1399.6 104.325C1396.07 99.4998 1393.28 95.6978 1393.84 91.9129C1394.28 88.9633 1395.44 87.0197 1397.25 86.1332C1398.31 85.6444 1399.5 85.4956 1400.65 85.7069C1399.25 82.6039 1396.56 77.9324 1393.16 78.7338C1391.73 78.9349 1390.42 79.623 1389.44 80.6822C1388.46 81.7413 1387.87 83.1065 1387.78 84.5476C1387.79 84.8823 1387.68 85.2091 1387.46 85.464C1387.24 85.7189 1386.94 85.8838 1386.61 85.9264C1386.27 85.9689 1385.94 85.8862 1385.66 85.6943C1385.39 85.5025 1385.2 85.2152 1385.12 84.8886C1385.12 84.6158 1383.3 78.2393 1378.98 79.3305C1378.4 79.4362 1377.86 79.6705 1377.39 80.0159C1376.91 80.3613 1376.53 80.8089 1376.25 81.3252C1375.13 83.5417 1375.95 86.9004 1376.59 88.5371C1376.66 88.6994 1376.69 88.8731 1376.69 89.0486C1376.7 89.2479 1376.65 89.4449 1376.57 89.6249C1376.48 89.8049 1376.36 89.9634 1376.2 90.0886C1375.96 90.2823 1375.66 90.3878 1375.35 90.3878C1375.04 90.3878 1374.74 90.2823 1374.5 90.0886C1373.58 89.4578 1370.7 87.9574 1368.62 88.6053C1368.08 88.7926 1367.59 89.1046 1367.19 89.5162C1366.79 89.9279 1366.5 90.4276 1366.33 90.9752C1366.08 91.5085 1365.95 92.0907 1365.95 92.6801C1365.95 93.2695 1366.08 93.8517 1366.33 94.385C1367.55 96.806 1371.43 97.7949 1371.43 97.7949C1371.8 97.8152 1372.15 97.982 1372.4 98.2586C1372.65 98.5352 1372.77 98.8989 1372.75 99.2696C1372.73 99.6404 1372.57 99.988 1372.29 100.236C1372.01 100.484 1371.65 100.611 1371.28 100.591C1369.85 100.73 1368.52 101.421 1367.59 102.518C1367.26 103.095 1367.07 103.738 1367.03 104.4C1366.99 105.061 1367.1 105.723 1367.35 106.337C1367.48 107.102 1367.81 107.819 1368.31 108.417C1368.8 109.015 1369.45 109.473 1370.17 109.746C1371.13 109.924 1372.12 109.897 1373.06 109.668C1374.01 109.438 1374.9 109.012 1375.67 108.417C1375.91 108.223 1376.21 108.117 1376.52 108.117C1376.83 108.117 1377.13 108.223 1377.38 108.417C1377.62 108.587 1377.8 108.834 1377.88 109.119C1377.97 109.403 1377.96 109.708 1377.85 109.985C1377.45 111.155 1377.33 112.404 1377.5 113.63C1377.67 114.856 1378.12 116.026 1378.82 117.044C1380.53 119.107 1384.46 118.39 1386.38 117.879C1385.97 115.731 1385.5 111.383 1387.44 108.604C1387.96 107.855 1388.65 107.236 1389.45 106.796C1390.25 106.356 1391.14 106.105 1392.05 106.064C1393.98 105.89 1395.91 106.129 1397.74 106.763ZM1378.81 164.321C1380.59 163.493 1382.3 162.512 1383.91 161.389C1394.78 153.802 1396.77 145.09 1395 139.446C1394.01 136.292 1391.76 134.161 1389.4 134.161C1388.68 134.103 1387.95 134.208 1387.28 134.468C1386.6 134.728 1385.99 135.135 1385.5 135.661C1384.61 136.858 1384.14 138.313 1384.15 139.804C1385.42 139.673 1386.69 139.973 1387.76 140.657C1389.75 141.987 1390.78 144.681 1390.79 148.67C1390.79 154.467 1384.61 160.264 1378.81 164.321ZM1288.31 195.965C1290.57 205.189 1292.96 213.798 1295.12 221.675C1301.45 244.351 1306.02 260.735 1300.37 268.237C1299.1 269.998 1297.4 271.397 1295.43 272.295C1293.46 273.192 1291.28 273.557 1289.13 273.352C1290.83 278.91 1294.15 281.876 1298.27 280.99C1303.14 280.018 1308.93 273.437 1308.93 261.929C1308.92 259.329 1308.66 256.737 1308.15 254.188C1306 243.311 1302.43 234.258 1298.3 223.789C1295.24 215.93 1291.77 207.115 1288.31 195.965ZM1324.39 309.292C1326.87 305.649 1328.84 301.678 1330.23 297.494C1339.56 269.874 1330.23 251.29 1330.09 251.102C1329.95 250.81 1329.92 250.477 1330.01 250.164C1330.09 249.851 1330.29 249.579 1330.56 249.399C1330.83 249.219 1331.15 249.142 1331.47 249.182C1331.79 249.222 1332.09 249.378 1332.31 249.619C1333.55 251.085 1336.31 251.324 1338.18 251.119C1333.96 232.144 1326.06 221.641 1316.95 209.707C1307.93 198.421 1300.27 186.112 1294.13 173.034L1293.03 170.578C1296.82 184.602 1301.83 198.265 1308.01 211.412C1323.28 242.936 1330.01 293.112 1324.39 309.292ZM1304.59 322.931C1307.58 322.393 1310.46 321.356 1313.1 319.862C1310.86 320.642 1308.5 321.046 1306.12 321.056C1304.26 321.073 1302.41 320.647 1300.75 319.811C1299.08 318.975 1297.64 317.753 1296.53 316.248C1294.94 314.449 1294.1 312.108 1294.17 309.705C1294.25 307.302 1295.24 305.019 1296.94 303.324C1295.66 302.426 1294.1 302.013 1292.54 302.16C1290.98 302.307 1289.52 303.003 1288.43 304.126C1285.23 306.99 1283.73 312.548 1288.04 317.97C1291.48 322.232 1297.79 324.159 1304.59 322.965L1304.59 322.931Z" fill="#CEAF7E"/>
<path d="M1351.87 227.387C1335.73 219.237 1321.94 201.421 1321.8 201.25C1321.69 201.109 1321.56 200.99 1321.41 200.9C1321.25 200.811 1321.09 200.753 1320.91 200.729C1320.73 200.705 1320.56 200.716 1320.38 200.762C1320.21 200.808 1320.05 200.887 1319.91 200.994C1319.63 201.216 1319.45 201.538 1319.41 201.892C1319.36 202.246 1319.46 202.603 1319.67 202.887C1320.25 203.637 1333.98 221.368 1350.68 229.808C1351 229.968 1351.37 229.995 1351.71 229.881C1352.05 229.768 1352.33 229.524 1352.49 229.203C1352.65 228.881 1352.68 228.51 1352.57 228.169C1352.45 227.829 1352.21 227.547 1351.89 227.387L1351.87 227.387Z" fill="#CEAF7E"/>
<path d="M1355.68 228.563C1355.44 228.821 1355.3 229.167 1355.31 229.525C1355.31 229.883 1355.46 230.224 1355.72 230.473C1355.98 230.721 1356.32 230.857 1356.68 230.851C1357.04 230.845 1357.38 230.696 1357.63 230.439C1360.56 227.621 1364.36 225.868 1368.4 225.46C1368.72 225.436 1369.04 225.513 1369.31 225.68C1369.58 225.847 1369.79 226.095 1369.92 226.39C1370.04 226.684 1370.07 227.01 1369.99 227.32C1369.92 227.631 1369.75 227.911 1369.51 228.12C1366.9 230.24 1363.88 231.796 1360.64 232.689C1360.42 232.751 1360.22 232.866 1360.06 233.023C1359.89 233.181 1359.77 233.377 1359.7 233.593C1359.64 233.808 1359.63 234.035 1359.67 234.256C1359.72 234.476 1359.82 234.681 1359.96 234.854C1359.96 234.854 1362.78 238.401 1359.82 243.839L1359.24 244.947C1359.14 245.155 1358.98 245.327 1358.77 245.441C1358.57 245.554 1358.34 245.604 1358.11 245.584C1357.88 245.564 1357.66 245.475 1357.48 245.328C1357.3 245.181 1357.16 244.983 1357.1 244.76C1356.13 241.468 1355.68 238.046 1355.75 234.616C1355.75 234.258 1355.61 233.916 1355.36 233.663C1355.11 233.411 1354.76 233.269 1354.41 233.269C1354.05 233.269 1353.71 233.411 1353.46 233.663C1353.2 233.916 1353.06 234.258 1353.06 234.616L1353.06 235.144C1353.06 245.919 1356.98 251.324 1358.17 252.756C1358.32 252.957 1358.5 253.135 1358.7 253.285C1358.98 253.487 1359.32 253.576 1359.66 253.532C1360 253.489 1360.31 253.316 1360.53 253.05C1360.75 252.784 1360.86 252.445 1360.83 252.101C1360.81 251.758 1360.65 251.437 1360.4 251.205C1360.3 251.017 1359.8 249.5 1362.1 245.203C1362.94 243.836 1363.48 242.311 1363.7 240.724C1363.92 239.136 1363.8 237.521 1363.36 235.98C1363.26 235.676 1363.28 235.345 1363.41 235.054C1363.54 234.763 1363.78 234.533 1364.08 234.411C1368.74 232.698 1372.75 229.568 1375.55 225.46C1375.66 225.283 1375.73 225.082 1375.75 224.875C1375.76 224.668 1375.73 224.46 1375.66 224.267C1375.57 224.075 1375.45 223.903 1375.3 223.765C1375.14 223.626 1374.95 223.524 1374.75 223.465C1371.41 222.618 1367.9 222.642 1364.56 223.534C1361.22 224.426 1358.17 226.157 1355.68 228.563Z" fill="#CEAF7E"/>
<path d="M1370.58 236.389C1369.24 237.139 1367.28 236.235 1366.38 237.736C1365.48 239.236 1366.99 239.441 1366.84 243.43C1366.69 247.42 1366.09 248.238 1369.68 250.779C1373.27 253.319 1378.06 248.392 1380.61 248.392C1383.17 248.392 1384.95 250.779 1385.72 249.432C1386.49 248.085 1382.32 244.487 1382.32 242.237C1382.32 239.986 1382.32 231.751 1377.84 231.751C1373.36 231.751 1371.93 235.639 1370.58 236.389Z" fill="#CEAF7E"/>
<path d="M1393.99 102.876C1394.56 101.853 1388.89 99.0395 1387.52 96.6355C1386.16 94.2316 1388.48 91.0604 1387.03 89.7135C1385.58 88.3666 1379.06 90.0033 1376.7 95.1693C1374.33 100.335 1377.65 105.399 1379.39 105.399C1381.12 105.399 1380.68 103.694 1385.06 102.313C1389.43 100.932 1393.57 103.626 1393.99 102.876Z" fill="#CEAF7E"/>
<path d="M1373.78 72.6301C1374.67 73.9259 1380 72.8347 1380.59 71.8458C1381.19 70.857 1379.61 63.0825 1382.67 57.5074C1385.74 51.9322 1391.18 55.5467 1391.71 51.9322C1392.24 48.3178 1384.58 39.9977 1379.2 39.401C1373.82 38.8043 1368.98 46.1014 1368.81 53.1768C1368.64 60.2523 1372.88 71.3344 1373.78 72.6301Z" fill="#CEAF7E"/>
<path d="M1370.21 75.5456C1370.21 74.1987 1362.27 70.4308 1359.99 57.6438C1357.71 44.8568 1364.08 39.8784 1363.86 37.4063C1363.64 34.9341 1358.46 33.8771 1354.49 33.8089C1350.53 33.7407 1340.87 34.9341 1341.4 47.8234C1341.93 60.7127 1365.19 78.3246 1366.09 78.4269C1366.99 78.5292 1370.21 78.6486 1370.21 75.5456Z" fill="#CEAF7E"/>
<path d="M1363.01 81.5469C1363.06 79.2964 1350.32 78.2564 1340.63 64.7874C1330.95 51.3184 1339.6 45.1466 1337.23 41.1059C1334.86 37.0652 1310.43 40.0659 1317.02 59.2464C1323.61 78.4268 1358.34 84.8203 1360.01 85.0249C1361.68 85.2295 1362.97 82.9108 1363.01 81.5469Z" fill="#CEAF7E"/>
<path d="M1306.36 62.2471C1304.56 61.3946 1290.78 74.3521 1297.85 88.8952C1304.91 103.438 1356.79 95.4762 1358.31 94.8625C1359.23 94.5385 1359.06 93.1575 1358.6 92.1857C1358.14 91.2139 1347.07 88.8952 1335.25 85.7411C1323.44 82.587 1308.15 63.0825 1306.36 62.2471Z" fill="#CEAF7E"/>
<path d="M1360.4 101.784C1359.5 100.284 1344.53 106.285 1330.76 105.979C1316.98 105.672 1303.67 101.034 1299.62 105.467C1295.56 109.9 1296.62 125.619 1308.74 127.41C1320.87 129.2 1361.41 103.455 1360.4 101.784Z" fill="#CEAF7E"/>
<path d="M1363.01 113.02C1363.69 110.326 1361.75 110.48 1361.15 110.019C1359.94 109.116 1319.54 130.717 1318.18 143.453C1316.81 156.189 1340.19 156.496 1342.44 155.149C1344.69 153.802 1340.04 149.898 1343.19 138.662C1346.34 127.427 1362.24 115.731 1363.01 113.02Z" fill="#CEAF7E"/>
<path d="M1356.35 161.44C1361.15 160.536 1372.64 155.746 1375.88 152.148C1379.11 148.551 1367.36 146.761 1366.84 134.604C1366.31 122.448 1372.46 118.868 1369.24 117.078C1366.33 115.475 1353.5 131.16 1351.26 144.8C1349.01 158.439 1351.56 162.344 1356.35 161.44Z" fill="#CEAF7E"/>
<path d="M1436.22 125.858C1438.13 124.273 1440.94 125.96 1439.63 127.989C1438.31 130.018 1440.53 135.525 1438.72 139.685C1436.92 143.845 1429.53 145.857 1426.48 146.198C1423.43 146.539 1405.61 164.509 1404.81 162.736C1404.14 161.27 1420.42 147.664 1422.11 143.726C1423.79 139.787 1422.45 133.275 1424.92 130.086C1427.38 126.898 1434.3 127.427 1436.22 125.858ZM1427.3 138.56C1428.85 141.816 1433.63 139.344 1435.2 137.435C1436.77 135.525 1435.32 130.12 1435.76 128.91C1436.2 127.699 1423.11 129.677 1427.3 138.56Z" fill="#CEAF7E"/>
</g>
<defs>
<clipPath id="clip0_889_12">
<rect width="326" height="168" fill="white" transform="translate(168) rotate(90)"/>
</clipPath>
<clipPath id="clip1_889_12">
<rect width="326" height="168" fill="white" transform="matrix(-4.37114e-08 1 1 4.37114e-08 1272 0)"/>
</clipPath>
</defs>
</svg>
