<svg width="1440" height="620" viewBox="0 0 1440 620" fill="none" xmlns="http://www.w3.org/2000/svg">
<g clip-path="url(#clip0_891_15)">
<path d="M24.9927 461.724C31.4864 451.58 36.619 443.572 36.1503 430.247C35.8825 421.171 30.2591 417.812 26.9341 416.633C20.8197 414.408 13.0763 416.121 9.28265 420.437C2.69963 427.911 9.70665 437.722 10.0191 438.233C10.1715 438.433 10.3667 438.597 10.5906 438.713C10.8145 438.828 11.0614 438.892 11.3134 438.901C11.5649 438.912 11.8155 438.863 12.0445 438.759C12.2735 438.655 12.4742 438.497 12.63 438.3C13.6118 437.099 15.6425 435.408 16.8699 435.631C17.6955 435.764 18.2757 436.899 18.6105 437.855C20.6412 443.327 19.1014 447.376 11.715 466.774C9.99675 471.223 7.98836 476.517 5.66756 482.768C-7.40923 517.938 4.73032 561.139 13.8127 575.398C13.9626 575.635 14.1699 575.831 14.4156 575.967C14.6614 576.103 14.9375 576.175 15.2185 576.177C15.5286 576.174 15.8312 576.082 16.0888 575.91C16.4508 575.681 16.7076 575.319 16.8037 574.902C16.8998 574.486 16.8273 574.049 16.6021 573.685C12.6076 567.39 8.36773 555.889 5.80147 542.542C5.09166 526.908 7.66841 511.299 13.3664 496.716C26.7556 476.851 36.6859 472.113 42.7557 471.646C44.3194 471.468 45.9033 471.621 47.4032 472.097C48.9032 472.572 50.2852 473.358 51.4587 474.404C51.7632 474.682 52.1613 474.837 52.5744 474.837C52.9875 474.837 53.3856 474.682 53.6902 474.404C55.1494 473.14 56.2316 471.5 56.8181 469.664C57.4045 467.828 57.4727 465.866 57.0152 463.993C56.569 462.327 55.6636 460.819 54.4015 459.639C53.1393 458.46 51.571 457.656 49.8743 457.32C45.5451 456.408 36.3289 457.32 23.0959 473.181C17.7351 479.753 13.4016 487.095 10.2422 494.959C10.1094 495.151 10.0251 495.372 9.99675 495.604C6.67649 504.041 4.42752 512.86 3.30214 521.853C3.30214 519.629 3.19057 517.271 3.30214 514.957C6.59932 495.862 13.9985 477.703 24.9927 461.724ZM22.5157 479.743C23.5868 478.23 24.7472 476.74 25.9299 475.294C38.3819 460.145 46.4377 459.945 49.3164 460.568C50.4162 460.766 51.4374 461.27 52.2625 462.022C53.0876 462.774 53.683 463.742 53.9803 464.816C54.2548 465.876 54.2726 466.985 54.032 468.053C53.7914 469.12 53.2994 470.116 52.5967 470.956C50.0554 469.159 47.0093 468.209 43.8938 468.242H42.5771C36.2173 468.732 29.5004 472.558 22.5157 479.743ZM22.2032 459.833C16.2065 468.688 11.2286 478.187 7.36353 488.152C7.80984 486.661 8.30079 485.215 8.83635 483.703C11.0679 477.452 13.1655 472.18 14.8615 467.731C22.6272 447.287 24.2562 443.038 21.7792 436.409C21.5288 435.367 20.9938 434.414 20.2337 433.657C19.4735 432.899 18.5178 432.365 17.4724 432.116C16.4088 432.053 15.3443 432.22 14.351 432.604C13.3576 432.988 12.4586 433.58 11.715 434.34C10.3092 431.671 8.30079 426.443 11.715 422.417C12.9549 421.206 14.4295 420.26 16.0487 419.636C17.6679 419.013 19.3976 418.725 21.1321 418.791C22.7628 418.847 24.3712 419.186 25.8853 419.792C28.9871 420.904 32.7138 423.64 32.9146 430.425C33.2717 442.638 28.6301 449.912 22.2032 459.833Z" fill="#CEAF7E"/>
<path d="M10.8011 583.473C10.5171 583.774 10.359 584.172 10.359 584.585C10.359 584.999 10.5171 585.396 10.8011 585.698C11.1056 585.976 11.5037 586.13 11.9168 586.13C12.33 586.13 12.7281 585.976 13.0326 585.698L37.5795 561.472C37.9865 561.046 38.4943 560.729 39.0563 560.549C39.6182 560.37 40.2165 560.334 40.7961 560.444C41.3757 560.555 41.9182 560.809 42.3738 561.183C42.8294 561.557 43.1836 562.039 43.4038 562.585C43.7058 563.297 43.7757 564.087 43.6035 564.841C43.4314 565.595 43.0258 566.277 42.4442 566.789L17.0271 589.724C16.7323 590.013 16.5572 590.403 16.5366 590.815C16.5159 591.227 16.6511 591.631 16.9155 591.949C17.2135 592.27 17.626 592.461 18.0642 592.482C18.5025 592.503 18.9314 592.351 19.2586 592.06L32.9379 579.669C36.2278 585.244 40.7168 590.023 46.0816 593.661C46.2913 593.909 46.5715 594.087 46.885 594.173C53.6154 598.466 61.4561 600.708 69.4458 600.624C72.6872 600.603 75.9205 600.298 79.1084 599.712C97.697 596.331 104.436 582.316 102.874 569.903C101.625 560.004 94.8853 550.394 84.464 551.128C78.1042 551.596 73.3064 553.798 70.45 557.691C67.5812 562.005 66.5385 567.274 67.549 572.35C67.6051 572.581 67.7105 572.796 67.858 572.983C68.0055 573.169 68.1916 573.321 68.4035 573.428C68.6154 573.536 68.8481 573.597 69.0858 573.607C69.3235 573.616 69.5605 573.575 69.7805 573.485C69.7805 573.485 75.4486 570.771 79.2869 572.551C80.141 572.992 80.8826 573.623 81.455 574.394C82.0274 575.165 82.4155 576.056 82.5896 577C82.8888 578.297 82.8401 579.651 82.4484 580.924C82.0567 582.197 81.3357 583.344 80.358 584.252C77.1446 587.677 70.7401 590.569 62.6843 591.526C57.2965 592.173 51.8372 591.217 46.9931 588.779C42.1489 586.34 38.1361 582.529 35.4595 577.823C35.3948 577.684 35.3202 577.55 35.2364 577.422L44.341 569.192C45.4604 568.214 46.2372 566.906 46.5583 565.457C46.8795 564.008 46.7281 562.496 46.1263 561.139C45.5192 559.83 44.5122 558.746 43.2495 558.043C41.9868 557.34 40.5332 557.053 39.0969 557.224C37.5393 557.451 36.0981 558.177 34.9909 559.292L28.6757 565.543C24.3136 558.634 21.4551 550.889 20.2851 542.809C23.4316 523.077 39.2085 522.788 39.878 522.788C40.1153 522.784 40.3491 522.73 40.5644 522.631C40.7796 522.531 40.9715 522.388 41.1276 522.209C41.2796 522.025 41.3917 521.811 41.4569 521.582C41.5222 521.352 41.5393 521.111 41.507 520.875C40.4136 513.934 36.6423 510.064 31.4428 510.531C23.9225 511.176 16.0452 521.008 16.2906 534.622C16.3374 546.468 19.8 558.051 26.2656 567.99L10.8011 583.473ZM19.7272 533.599C19.8834 521.542 26.8904 514.312 31.8668 513.867C34.7901 513.623 36.9993 515.736 38.0258 519.74C34.0575 520.32 30.3022 521.896 27.113 524.32C23.9237 526.745 21.4052 529.938 19.7942 533.599H19.7272ZM56.4137 595.241C67.5713 595.374 77.7248 592.193 82.9689 586.587C84.3402 585.284 85.3443 583.645 85.8808 581.834C86.4173 580.022 86.4674 578.102 86.0261 576.266C85.7387 574.836 85.1267 573.492 84.237 572.335C83.3473 571.178 82.2036 570.24 80.8936 569.592C77.576 568.397 73.936 568.445 70.6508 569.725C70.3204 566.186 71.227 562.642 73.2171 559.693C75.4486 556.601 79.4654 554.843 84.8211 554.465H85.6468C93.4794 554.465 98.7012 562.518 99.7054 570.393C100.977 580.381 96.2242 593.305 78.6174 596.464C71.2347 597.979 63.5839 597.558 56.4137 595.241Z" fill="#CEAF7E"/>
<path d="M26.244 589.034C26.8911 590.124 42.4003 615.929 91.2263 618.131L94.038 618.22C119.098 620 139.137 612.703 155.249 606.875C169.241 601.825 179.327 598.155 185.598 603.227C187.205 604.517 187.829 605.785 187.829 606.942C187.45 609.5 183.121 611.88 181.626 612.503C181.354 612.622 181.118 612.81 180.942 613.048C180.766 613.286 180.655 613.566 180.622 613.86C180.589 614.151 180.637 614.445 180.759 614.711C180.88 614.978 181.072 615.206 181.313 615.373C184.946 618.174 189.356 619.79 193.944 620C196.691 620.05 199.389 619.275 201.687 617.775C207.735 613.727 210.613 604.962 208.717 596.464C207.823 592.139 205.573 588.209 202.292 585.242C199.011 582.275 194.868 580.424 190.463 579.958C176.716 577.867 164.956 585.431 151.322 594.195C141.056 600.869 129.899 607.965 116.309 611.992C120.287 610.372 124.008 608.184 127.355 605.496C130.312 603.094 133.08 600.469 135.634 597.643C136.709 598.152 137.881 598.425 139.07 598.444C140.134 598.475 141.185 598.208 142.104 597.673C143.023 597.138 143.774 596.357 144.27 595.419C144.9 594.23 145.073 592.854 144.757 591.547C144.44 590.24 143.656 589.094 142.552 588.323C143.109 587.344 143.645 586.387 144.136 585.408C146.1 585.943 148.125 586.22 150.161 586.231C152.888 586.237 155.586 585.676 158.083 584.585C158.32 584.486 158.53 584.332 158.696 584.137C158.862 583.941 158.979 583.709 159.038 583.459C159.097 583.21 159.096 582.95 159.034 582.701C158.973 582.452 158.854 582.221 158.686 582.027C155.769 578.85 152.114 576.436 148.041 574.998C149.062 570.792 149.616 566.488 149.693 562.162C152.08 561.482 154.126 559.934 155.426 557.824C156.725 555.715 157.185 553.196 156.714 550.765C156.242 548.334 154.874 546.168 152.879 544.693C150.885 543.218 148.408 542.542 145.937 542.798C143.467 543.054 141.183 544.223 139.535 546.075C137.887 547.927 136.995 550.328 137.035 552.803C137.075 555.279 138.044 557.649 139.751 559.448C141.458 561.246 143.779 562.342 146.256 562.518H146.368C146.25 566.349 145.741 570.157 144.85 573.885C139.96 572.787 134.876 572.886 130.033 574.175C129.741 574.247 129.475 574.397 129.263 574.608C129.05 574.82 128.9 575.085 128.828 575.376C128.751 575.66 128.754 575.96 128.836 576.242C128.919 576.525 129.078 576.779 129.296 576.977C132.734 580.03 136.675 582.469 140.945 584.185C140.543 584.941 140.119 585.72 139.651 586.409C138.252 585.683 136.641 585.473 135.102 585.815C133.563 586.156 132.195 587.029 131.238 588.278C130.746 589.07 130.485 589.983 130.485 590.914C130.485 591.846 130.746 592.758 131.238 593.55C131.662 594.293 132.196 594.968 132.822 595.552C130.465 598.115 127.93 600.508 125.235 602.715C107.026 617.775 74.8691 612.859 71.1202 612.236C39.8787 605.296 29.2343 587.588 29.1004 587.388C28.9975 587.191 28.8555 587.016 28.6832 586.875C28.5107 586.734 28.3114 586.629 28.0973 586.567C27.8831 586.505 27.6585 586.486 27.437 586.513C27.2155 586.54 27.0018 586.611 26.8086 586.722C26.6155 586.834 26.447 586.983 26.3133 587.161C26.1796 587.339 26.0835 587.542 26.0307 587.758C25.9779 587.974 25.9696 588.199 26.0063 588.418C26.0429 588.637 26.1238 588.847 26.244 589.034ZM153.575 552.752C153.597 553.019 153.597 553.287 153.575 553.553C153.121 552.179 152.244 550.982 151.068 550.134C149.892 549.286 148.477 548.829 147.026 548.829C145.574 548.829 144.16 549.286 142.984 550.134C141.808 550.982 140.93 552.179 140.476 553.553C140.454 553.287 140.454 553.019 140.476 552.752C140.329 551.801 140.39 550.83 140.655 549.904C140.92 548.979 141.383 548.122 142.011 547.391C142.64 546.661 143.419 546.074 144.296 545.672C145.173 545.27 146.127 545.062 147.093 545.062C148.058 545.062 149.012 545.27 149.889 545.672C150.766 546.074 151.546 546.661 152.174 547.391C152.803 548.122 153.265 548.979 153.53 549.904C153.795 550.83 153.856 551.801 153.709 552.752H153.575ZM143.935 577.222C143.489 578.557 142.976 579.936 142.373 581.315C139.48 580.183 136.742 578.688 134.228 576.866C137.417 576.379 140.669 576.477 143.824 577.155L143.935 577.222ZM145.564 582.183C146.167 580.781 146.68 579.402 147.126 578.023C149.764 579.004 152.21 580.434 154.356 582.25C151.463 582.929 148.447 582.907 145.564 582.183ZM137.821 589.368C136.973 590.614 136.036 591.882 135.009 593.128C134.664 592.817 134.376 592.448 134.161 592.038C133.953 591.762 133.83 591.433 133.806 591.09C133.783 590.746 133.859 590.403 134.027 590.102C134.674 589.146 136.259 589.012 137.821 589.435V589.368ZM137.821 594.818C138.847 593.528 139.785 592.26 140.655 590.992C141.047 591.301 141.324 591.731 141.441 592.215C141.558 592.699 141.509 593.208 141.302 593.661C141.089 594.067 140.768 594.406 140.374 594.641C139.981 594.877 139.529 594.999 139.07 594.996C138.68 595.01 138.29 594.972 137.91 594.885L137.821 594.818ZM123.74 612.926C134.089 608.657 143.949 603.295 153.151 596.931C164.778 589.457 174.998 582.895 185.933 582.895C187.284 582.892 188.634 582.989 189.972 583.184C193.716 583.567 197.242 585.121 200.047 587.621C202.853 590.122 204.794 593.443 205.592 597.109C207.177 604.183 204.789 611.702 199.924 614.906C196.086 617.486 190.998 617.13 185.62 614.105C186.957 613.439 188.138 612.501 189.087 611.352C190.037 610.202 190.733 608.866 191.132 607.431C191.219 606.12 190.952 604.81 190.359 603.637C189.767 602.463 188.87 601.469 187.762 600.758C180.064 594.551 169.218 598.533 154.289 603.894C144.355 607.684 134.141 610.704 123.74 612.926Z" fill="#CEAF7E"/>
<path d="M134.317 555.8C134.021 556.039 133.649 556.165 133.268 556.156C133.061 556.162 132.856 556.124 132.665 556.045C132.286 555.911 123.36 552.352 120.526 544.722C119.806 542.622 119.556 540.39 119.795 538.184C120.034 535.978 120.756 533.851 121.909 531.953C125.368 525.435 132.554 521.52 142.149 520.83C152.236 520.296 162.568 523.7 166.138 528.794C167.799 531.143 168.891 533.844 169.329 536.685C169.766 539.526 169.537 542.429 168.66 545.167C168.061 547.143 166.991 548.947 165.541 550.422C164.092 551.898 162.306 553.003 160.336 553.642C160.076 553.747 159.793 553.783 159.515 553.747C159.237 553.711 158.973 553.604 158.748 553.436C158.524 553.268 158.347 553.045 158.234 552.789C158.121 552.533 158.077 552.252 158.105 551.974C158.105 551.974 158.707 544.366 154.468 539.917C153.303 538.77 151.9 537.892 150.357 537.346C148.815 536.8 147.171 536.6 145.541 536.758C144.037 536.702 142.539 536.978 141.154 537.567C139.769 538.155 138.532 539.041 137.53 540.161C133.446 545.189 134.897 554.154 134.897 554.243C134.952 554.53 134.928 554.828 134.825 555.102C134.723 555.377 134.547 555.618 134.317 555.8Z" fill="#CEAF7E"/>
<path d="M212.532 471.112C214.228 459.077 211.26 449.311 205.168 446.82C199.589 444.595 194.769 444.217 190.841 445.863C188.114 446.986 185.903 449.079 184.637 451.736C184.536 451.981 184.496 452.246 184.519 452.509C184.542 452.772 184.629 453.026 184.771 453.249C187.137 456.919 193.407 466.596 186.445 486.239C179.75 505.014 160.425 515.625 160.224 515.714C159.891 515.904 159.633 516.201 159.491 516.556C159.349 516.912 159.332 517.305 159.443 517.671C159.552 518.006 159.763 518.298 160.048 518.506C160.332 518.713 160.675 518.826 161.028 518.828H161.206C194.679 515.069 209.787 490.777 212.532 471.112ZM183.276 497.428C183.048 497.712 182.924 498.065 182.924 498.429C182.924 498.793 183.048 499.146 183.276 499.43C183.044 499.148 182.917 498.794 182.917 498.429C182.917 498.064 183.044 497.71 183.276 497.428Z" fill="#CEAF7E"/>
<path d="M180.375 443.773C176.604 430.937 168.749 421.883 160.291 420.704C157.539 420.17 154.707 420.196 151.965 420.781C149.223 421.366 146.628 422.497 144.336 424.108C140.147 427.499 137.333 432.288 136.414 437.588C136.373 437.86 136.402 438.138 136.5 438.395C136.598 438.652 136.76 438.88 136.972 439.057C137.181 439.234 137.431 439.357 137.7 439.415C137.968 439.473 138.247 439.465 138.512 439.39C141.77 438.434 151.722 435.519 162.255 459.878C171.538 481.367 151.097 515.158 150.807 515.491C150.606 515.827 150.529 516.222 150.59 516.609C150.651 516.995 150.847 517.347 151.142 517.605C151.447 517.883 151.845 518.037 152.258 518.037C152.671 518.037 153.069 517.883 153.374 517.605C182.026 493.202 186.11 463.415 180.375 443.773ZM163.906 496.627C163.75 496.627 163.661 496.249 163.616 495.893C163.724 496.268 163.971 496.586 164.308 496.783C164.167 496.753 164.031 496.701 163.906 496.627Z" fill="#CEAF7E"/>
<path d="M136.704 413.897C135.028 413.66 133.321 413.756 131.681 414.18C130.042 414.604 128.503 415.347 127.153 416.366C124.922 418.435 123.828 421.772 124.096 426.265C124.476 433.228 129.72 438.612 135.789 444.818C143.109 452.315 152.191 461.613 155.472 476.918C161.497 505.103 146.992 516.025 146.367 516.492C146.157 516.647 145.911 516.746 145.653 516.782H145.318L144.403 513.578C140.141 499.03 125.792 450.268 123.918 449.067C122.043 447.866 132.955 496.694 136.771 513.578L137.753 518.027H137.307C136.91 518.021 136.529 517.871 136.236 517.605C104.459 489.976 106.422 458.521 107.494 441.615V439.813C108.431 424.041 116.219 406.712 126.283 406.044C135.856 405.444 138.289 411.406 138.4 411.672C138.505 411.941 138.537 412.233 138.494 412.518C138.45 412.804 138.332 413.072 138.151 413.298C137.97 413.523 137.733 413.697 137.463 413.802C137.194 413.907 136.901 413.94 136.615 413.897H136.704Z" fill="#CEAF7E"/>
<path d="M102.829 439.813C103.05 439.525 103.17 439.174 103.17 438.812C103.17 438.45 103.05 438.098 102.829 437.811C98.5226 431.916 87.4319 431.137 79.1305 436.031C74.8906 438.567 61.9477 448.689 73.5294 472.647C89.6411 506.015 123.27 522.877 128.537 522.877H128.715C129.138 522.867 129.547 522.723 129.884 522.468C130.221 522.212 130.468 521.857 130.59 521.453C131.014 520.007 129.764 519.228 129.162 518.917C119.744 513.289 107.516 491.355 98.9019 473.937C90.0874 456.052 102.718 440.013 102.829 439.813ZM112.76 505.169C112.891 505.029 113.004 504.872 113.095 504.702C113.019 504.881 112.905 505.04 112.76 505.169Z" fill="#CEAF7E"/>
<path d="M104.458 529.35C110.554 529.391 116.63 528.643 122.533 527.126C122.892 527.02 123.204 526.796 123.418 526.491C123.633 526.185 123.737 525.816 123.714 525.444C123.69 525.072 123.541 524.719 123.29 524.442C123.039 524.166 122.701 523.983 122.332 523.922C98.6556 520.252 88.4575 511.331 78.4602 500.898C69.668 491.756 73.3054 477.051 73.35 476.896C73.4141 476.652 73.4213 476.397 73.371 476.15C73.3207 475.903 73.2143 475.671 73.0599 475.472C72.904 475.272 72.7044 475.11 72.4763 474.998C72.2482 474.886 71.9975 474.828 71.7433 474.827C67.5026 475.032 63.4308 476.546 60.0921 479.161C56.7535 481.776 54.3134 485.361 53.11 489.42C51.6148 494.247 49.8966 506.727 66.4992 518.116C77.7105 525.624 90.9529 529.543 104.458 529.35ZM95.7323 520.452C95.6938 520.555 95.6412 520.652 95.5761 520.741C95.5761 520.741 95.6877 520.541 95.7323 520.43V520.452Z" fill="#CEAF7E"/>
<path d="M72.7257 433.985C74.4751 432.099 75.4264 429.612 75.3813 427.044C75.3813 423.351 73.3059 419.681 69.3784 416.099C58.5109 406.178 47.6433 415.321 47.5317 415.41C47.2137 415.678 47.0093 416.057 46.9596 416.47C46.91 416.882 47.0187 417.298 47.264 417.634C53.8023 426.777 45.3448 440.458 38.561 448.956C36.2997 451.269 33.9566 453.894 31.5316 456.831C31.2679 457.151 31.1371 457.56 31.1661 457.974C31.1952 458.387 31.3818 458.774 31.6878 459.055C31.9961 459.343 32.4034 459.502 32.8259 459.5C33.252 459.499 33.6605 459.331 33.964 459.033C36.5374 456.49 38.945 453.785 41.1719 450.936C59.8721 431.805 70.9182 434.407 71.0298 434.452C71.3285 434.533 71.6438 434.533 71.9423 434.451C72.2408 434.369 72.5115 434.208 72.7257 433.985ZM72.0786 427.089C72.0673 428.452 71.6562 429.782 70.8959 430.915C70.4053 430.888 69.9137 430.888 69.4231 430.915C65.8303 430.915 58.6671 432.16 48.6252 439.813C52.5973 432.338 54.8065 423.952 50.8567 417.011C53.3121 415.297 56.2967 414.504 59.2822 414.773C62.2677 415.042 65.0615 416.355 67.1692 418.48C70.3603 421.483 72.034 424.241 72.0786 427.089Z" fill="#CEAF7E"/>
</g>
<g clip-path="url(#clip1_891_15)">
<path d="M3.84893 225.727C5.6563 223.027 7.89492 220.637 10.4768 218.651L13.0899 1.65109C13.0867 1.43539 13.1268 1.22121 13.2078 1.02102C13.2887 0.820837 13.409 0.638628 13.5615 0.484993C13.714 0.331358 13.8958 0.209364 14.0962 0.126103C14.2966 0.0428426 14.5117 -2.26473e-05 14.729 9.37874e-09C14.9432 -2.29837e-05 15.1552 0.042232 15.3527 0.124307C15.5503 0.206382 15.7294 0.32664 15.8798 0.478084C16.0301 0.629529 16.1486 0.809138 16.2283 1.00646C16.3081 1.20379 16.3476 1.4149 16.3444 1.6275L13.755 216.269C19.085 213.165 25.1806 211.597 31.358 211.74C31.0492 208.344 29.6001 199.428 22.8297 185.252C13.9926 166.831 16.9621 144.116 24.0888 133.361C28.1272 127.252 38.0571 129.139 35.5865 140.012C34.7075 143.857 31.3817 135.46 26.2505 143.503C21.1193 151.546 36.703 183.294 37.582 212.33C40.0638 212.779 42.5033 213.434 44.875 214.288C48.7946 192.045 50.0299 167.751 43.7822 146.145C42.832 142.843 41.9055 139.682 41.0265 136.71C31.5243 103.924 25.9179 84.8188 32.4032 67.6475C29.2371 59.8074 26.9893 51.632 25.7041 43.2821C23.5424 19.3177 38.1521 -2.50022 50.3863 3.04272C62.6204 8.58566 55.8026 22.5492 52.3817 22.5492C48.9609 22.5492 33.8286 9.83577 31.7381 38.2817C31.5135 45.5099 33.2794 52.662 36.8455 58.9675C38.2859 56.7278 39.873 54.5846 41.5967 52.5518C51.7403 40.3809 64.6159 40.8998 72.479 45.0511C80.3422 49.2024 84.1906 56.3493 82.2189 63.2367C81.6283 66.0014 80.1251 68.4913 77.9476 70.3115C75.7701 72.1318 73.0429 73.1781 70.1985 73.2848C68.0469 73.3313 65.9383 72.6824 64.1902 71.436C62.4422 70.1896 61.1492 68.413 60.5062 66.3738C58.9383 60.9723 61.5277 57.8353 63.3331 56.7739C64.7806 55.9589 66.4375 55.5848 68.0976 55.698C69.7576 55.8113 71.3475 56.4069 72.6691 57.4107C74.7121 59.2741 75.5435 61.279 74.3082 63.3546C73.9161 64.1564 73.2317 64.7803 72.3937 65.1C71.5557 65.4197 70.6266 65.4113 69.7946 65.0765C67.8704 63.9915 68.298 58.9203 65.0435 60.5006C63.3569 61.279 62.9768 63.1188 63.6657 65.4775C64.0895 66.8468 64.9578 68.0383 66.1353 68.8661C67.3128 69.6938 68.7332 70.1113 70.1747 70.0533C72.3153 69.9567 74.3601 69.1445 75.9773 67.7486C77.5944 66.3528 78.6889 64.4552 79.0831 62.364C80.6035 56.9861 77.3727 51.1366 71.0299 47.8344C64.1408 44.2492 52.9519 43.8482 44.0435 54.5331C42.0025 56.9518 40.1745 59.5402 38.5797 62.2696C51.3602 85.3141 77.4677 112.133 83.0028 146.711C87.1838 172.657 77.5865 200.136 65.5186 227.261C74.8779 236.171 80.9374 247.954 82.7177 260.707C86.7324 286.818 75.4722 317.316 51.8354 344.228C12.6148 388.902 10.9519 453.79 10.9044 455.842L10.6193 480.42C10.6193 480.835 10.4549 481.233 10.1615 481.529C9.86818 481.825 9.46941 481.994 9.05142 482C8.6428 482.001 8.24895 481.848 7.9492 481.573C7.64944 481.297 7.46608 480.919 7.43604 480.514C6.52013 465.897 6.69482 451.233 7.95866 436.642L10.2154 248.866C8.11119 248.094 6.12769 247.03 4.32404 245.706C-1.25854 241.861 -1.51985 233.629 3.84893 225.727ZM12.3535 333.048C12.3157 333.499 12.4596 333.945 12.7536 334.29C13.0477 334.635 13.4677 334.85 13.9213 334.888C14.375 334.925 14.825 334.783 15.1725 334.491C15.52 334.199 15.7365 333.782 15.7743 333.331C18.7675 315.169 23.1148 291.276 27.2245 278.444C27.8659 276.487 28.6023 274.222 29.4575 271.675C35.188 255.193 39.916 238.385 43.6159 221.34C41.5804 220.516 39.4499 219.946 37.2731 219.642C36.6859 233.89 33.8068 247.952 28.7449 261.297C20.3829 281.982 19.1238 305.05 17.4847 305.05C15.8455 305.05 18.91 281.463 24.9677 262.594C31.1204 243.323 32.2132 236.648 32.0944 219.713C30.6139 219.883 29.1658 220.265 27.7946 220.845C25.3921 221.823 23.2899 223.409 21.6975 225.445C20.1052 227.481 19.0786 229.896 18.72 232.45C18.4779 234.048 18.677 235.682 19.2962 237.178C19.9153 238.673 20.9312 239.974 22.2358 240.941C22.5051 241.135 22.7084 241.406 22.8187 241.718C22.929 242.03 22.9412 242.368 22.8535 242.686C22.4064 244.12 21.6468 245.438 20.6285 246.547C19.6103 247.656 18.3584 248.528 16.9621 249.102C15.7708 249.502 14.5093 249.655 13.2562 249.55L12.3535 333.048ZM30.7878 215.113C24.6951 215.051 18.7311 216.855 13.7075 220.279L13.3987 246.342C14.2628 246.439 15.1376 246.351 15.9643 246.083C17.5119 245.477 18.7575 244.291 19.4326 242.781C17.9368 241.451 16.7927 239.777 16.101 237.906C15.4092 236.035 15.191 234.023 15.4654 232.049C15.9028 228.941 17.1498 226.001 19.0831 223.519C21.0163 221.036 23.5689 219.098 26.4881 217.897C32.2011 215.689 38.5606 215.807 44.186 218.227C44.1748 218.062 44.1748 217.896 44.186 217.731C39.9144 216.065 35.3768 215.17 30.7878 215.09V215.113ZM32.522 272.713L30.3127 279.435C28.6973 284.483 27.272 290.143 26.0367 295.946C25.9832 296.14 26.0094 296.347 26.1096 296.522C26.2099 296.696 26.3759 296.824 26.5712 296.878C26.7665 296.931 26.9751 296.905 27.1511 296.805C27.3271 296.706 27.456 296.541 27.5096 296.347C33.8286 276.534 43.7109 250.635 51.2652 225.704C49.7392 224.654 48.1528 223.693 46.5141 222.826C42.8406 239.706 38.1685 256.355 32.522 272.689V272.713ZM47.2268 219.359C49.0028 220.23 50.7243 221.207 52.3817 222.284L52.5955 221.718C50.8927 220.719 49.1405 219.806 47.3455 218.982C47.298 219.076 47.2743 219.359 47.2268 219.359ZM62.6204 166.217C61.3614 137.913 44.8037 100.716 34.2562 72.7422C30.2652 88.2861 35.5152 106.354 44.1148 135.837C45.0175 138.904 45.9202 142.064 46.8942 145.272C53.3557 167.656 52.0017 192.729 47.9157 215.538C49.8355 216.369 51.7072 217.306 53.522 218.345C59.2709 198.791 63.2618 180.205 62.6204 166.217ZM49.3648 342.011C72.384 315.877 83.3829 286.37 79.5107 261.202C77.8501 249.599 72.4495 238.841 64.117 230.539L63.1431 232.638C84.7132 263.75 50.7426 327.081 34.1136 354.56C26.7883 367.077 21.331 380.584 17.9123 394.657C17.87 394.849 17.9021 395.049 18.0021 395.218C18.1021 395.387 18.2627 395.512 18.4517 395.569C18.6407 395.626 18.8443 395.609 19.0218 395.523C19.1992 395.438 19.3374 395.288 19.4089 395.105C25.8814 375.668 36.0506 357.644 49.3648 342.011ZM31.358 352.79C42.6657 334.18 57.4892 306.536 63.832 280.426C68.5831 261.226 67.7041 246.342 61.4564 235.941C52.6193 255.14 43.117 274.057 36.9881 292.078C27.9034 320.112 20.26 348.587 14.0876 377.392C12.4816 384.589 11.6298 391.932 11.5458 399.304C11.5451 399.536 11.6307 399.76 11.7862 399.934C11.9417 400.107 12.1561 400.218 12.3884 400.244C12.6208 400.27 12.8547 400.211 13.0455 400.076C13.2363 399.942 13.3705 399.743 13.4225 399.516C16.8791 383.128 22.9329 367.389 31.358 352.885V352.79ZM6.10572 242.993C7.36932 243.924 8.73145 244.715 10.1679 245.352L10.358 222.897C8.89386 224.321 7.59504 225.903 6.48581 227.614C2.37608 233.771 2.18604 240.328 6.10572 243.087V242.993Z" fill="#CEAF7E"/>
</g>
<g clip-path="url(#clip2_891_15)">
<path d="M1415.01 461.724C1408.51 451.58 1403.38 443.572 1403.85 430.247C1404.12 421.171 1409.74 417.812 1413.07 416.633C1419.18 414.408 1426.92 416.121 1430.72 420.437C1437.3 427.911 1430.29 437.722 1429.98 438.233C1429.83 438.433 1429.63 438.597 1429.41 438.713C1429.19 438.828 1428.94 438.892 1428.69 438.901C1428.44 438.912 1428.18 438.863 1427.96 438.759C1427.73 438.655 1427.53 438.497 1427.37 438.3C1426.39 437.099 1424.36 435.408 1423.13 435.631C1422.3 435.764 1421.72 436.899 1421.39 437.855C1419.36 443.327 1420.9 447.376 1428.28 466.774C1430 471.223 1432.01 476.517 1434.33 482.768C1447.41 517.938 1435.27 561.139 1426.19 575.398C1426.04 575.635 1425.83 575.831 1425.58 575.967C1425.34 576.103 1425.06 576.175 1424.78 576.177C1424.47 576.174 1424.17 576.082 1423.91 575.91C1423.55 575.681 1423.29 575.319 1423.2 574.902C1423.1 574.486 1423.17 574.049 1423.4 573.685C1427.39 567.39 1431.63 555.889 1434.2 542.542C1434.91 526.908 1432.33 511.299 1426.63 496.716C1413.24 476.851 1403.31 472.113 1397.24 471.646C1395.68 471.468 1394.1 471.621 1392.6 472.097C1391.1 472.572 1389.71 473.358 1388.54 474.404C1388.24 474.682 1387.84 474.837 1387.43 474.837C1387.01 474.837 1386.61 474.682 1386.31 474.404C1384.85 473.14 1383.77 471.5 1383.18 469.664C1382.6 467.828 1382.53 465.866 1382.98 463.993C1383.43 462.327 1384.34 460.819 1385.6 459.639C1386.86 458.46 1388.43 457.656 1390.13 457.32C1394.45 456.408 1403.67 457.32 1416.9 473.181C1422.26 479.753 1426.6 487.095 1429.76 494.959C1429.89 495.151 1429.97 495.372 1430 495.604C1433.32 504.041 1435.57 512.86 1436.7 521.853C1436.7 519.629 1436.81 517.271 1436.7 514.957C1433.4 495.862 1426 477.703 1415.01 461.724V461.724ZM1417.48 479.743C1416.41 478.23 1415.25 476.74 1414.07 475.294C1401.62 460.145 1393.56 459.945 1390.68 460.568C1389.58 460.766 1388.56 461.27 1387.74 462.022C1386.91 462.774 1386.32 463.742 1386.02 464.816C1385.75 465.876 1385.73 466.985 1385.97 468.053C1386.21 469.12 1386.7 470.116 1387.4 470.956C1389.94 469.159 1392.99 468.209 1396.11 468.242H1397.42C1403.78 468.732 1410.5 472.558 1417.48 479.743V479.743ZM1417.8 459.833C1423.79 468.688 1428.77 478.187 1432.64 488.152C1432.19 486.661 1431.7 485.215 1431.16 483.703C1428.93 477.452 1426.83 472.18 1425.14 467.731C1417.37 447.287 1415.74 443.038 1418.22 436.409C1418.47 435.367 1419.01 434.414 1419.77 433.657C1420.53 432.899 1421.48 432.365 1422.53 432.116C1423.59 432.054 1424.66 432.22 1425.65 432.604C1426.64 432.988 1427.54 433.58 1428.28 434.34C1429.69 431.671 1431.7 426.443 1428.28 422.417C1427.05 421.206 1425.57 420.26 1423.95 419.636C1422.33 419.013 1420.6 418.725 1418.87 418.791C1417.24 418.847 1415.63 419.186 1414.11 419.792C1411.01 420.904 1407.29 423.64 1407.09 430.425C1406.73 442.638 1411.37 449.912 1417.8 459.833Z" fill="#CEAF7E"/>
<path d="M1429.2 583.473C1429.48 583.774 1429.64 584.172 1429.64 584.585C1429.64 584.999 1429.48 585.396 1429.2 585.698C1428.89 585.976 1428.5 586.13 1428.08 586.13C1427.67 586.13 1427.27 585.976 1426.97 585.698L1402.42 561.472C1402.01 561.046 1401.51 560.729 1400.94 560.549C1400.38 560.37 1399.78 560.334 1399.2 560.444C1398.62 560.555 1398.08 560.809 1397.63 561.183C1397.17 561.557 1396.82 562.039 1396.6 562.585C1396.29 563.297 1396.22 564.087 1396.4 564.841C1396.57 565.595 1396.97 566.277 1397.56 566.789L1422.97 589.724C1423.27 590.013 1423.44 590.403 1423.46 590.815C1423.48 591.227 1423.35 591.631 1423.08 591.949C1422.79 592.27 1422.37 592.461 1421.94 592.482C1421.5 592.503 1421.07 592.351 1420.74 592.06L1407.06 579.669C1403.77 585.244 1399.28 590.023 1393.92 593.661C1393.71 593.909 1393.43 594.087 1393.12 594.173C1386.38 598.466 1378.54 600.708 1370.55 600.624C1367.31 600.603 1364.08 600.298 1360.89 599.712C1342.3 596.331 1335.56 582.316 1337.13 569.903C1338.38 560.004 1345.11 550.394 1355.54 551.128C1361.9 551.596 1366.69 553.798 1369.55 557.691C1372.42 562.005 1373.46 567.274 1372.45 572.35C1372.39 572.581 1372.29 572.796 1372.14 572.983C1371.99 573.169 1371.81 573.321 1371.6 573.428C1371.38 573.536 1371.15 573.597 1370.91 573.607C1370.68 573.616 1370.44 573.575 1370.22 573.485C1370.22 573.485 1364.55 570.771 1360.71 572.551C1359.86 572.992 1359.12 573.623 1358.55 574.394C1357.97 575.165 1357.58 576.056 1357.41 577C1357.11 578.297 1357.16 579.651 1357.55 580.924C1357.94 582.197 1358.66 583.344 1359.64 584.252C1362.86 587.677 1369.26 590.569 1377.32 591.526C1382.7 592.173 1388.16 591.217 1393.01 588.779C1397.85 586.34 1401.86 582.529 1404.54 577.823C1404.61 577.684 1404.68 577.55 1404.76 577.422L1395.66 569.192C1394.54 568.214 1393.76 566.906 1393.44 565.457C1393.12 564.008 1393.27 562.496 1393.87 561.139C1394.48 559.83 1395.49 558.746 1396.75 558.043C1398.01 557.34 1399.47 557.053 1400.9 557.224C1402.46 557.451 1403.9 558.177 1405.01 559.292L1411.32 565.543C1415.69 558.634 1418.54 550.889 1419.71 542.809C1416.57 523.077 1400.79 522.788 1400.12 522.788C1399.88 522.784 1399.65 522.73 1399.44 522.631C1399.22 522.531 1399.03 522.388 1398.87 522.209C1398.72 522.025 1398.61 521.811 1398.54 521.582C1398.48 521.352 1398.46 521.111 1398.49 520.875C1399.59 513.934 1403.36 510.064 1408.56 510.531C1416.08 511.176 1423.95 521.008 1423.71 534.622C1423.66 546.468 1420.2 558.051 1413.73 567.99L1429.2 583.473ZM1420.27 533.599C1420.12 521.542 1413.11 514.312 1408.13 513.867C1405.21 513.623 1403 515.736 1401.97 519.74C1405.94 520.32 1409.7 521.896 1412.89 524.32C1416.08 526.745 1418.59 529.938 1420.21 533.599H1420.27ZM1383.59 595.241C1372.43 595.374 1362.28 592.193 1357.03 586.587C1355.66 585.284 1354.66 583.645 1354.12 581.834C1353.58 580.022 1353.53 578.102 1353.97 576.266C1354.26 574.836 1354.87 573.492 1355.76 572.335C1356.65 571.178 1357.8 570.24 1359.11 569.592C1362.42 568.397 1366.06 568.445 1369.35 569.725C1369.68 566.186 1368.77 562.642 1366.78 559.693C1364.55 556.601 1360.53 554.843 1355.18 554.465H1354.35C1346.52 554.465 1341.3 562.518 1340.29 570.393C1339.02 580.381 1343.78 593.305 1361.38 596.464C1368.77 597.979 1376.42 597.558 1383.59 595.241Z" fill="#CEAF7E"/>
<path d="M1413.76 589.034C1413.11 590.124 1397.6 615.929 1348.77 618.131L1345.96 618.22C1320.9 620 1300.86 612.703 1284.75 606.875C1270.76 601.825 1260.67 598.155 1254.4 603.227C1252.8 604.517 1252.17 605.785 1252.17 606.942C1252.55 609.5 1256.88 611.88 1258.37 612.503C1258.65 612.622 1258.88 612.81 1259.06 613.048C1259.23 613.286 1259.34 613.566 1259.38 613.86C1259.41 614.151 1259.36 614.445 1259.24 614.711C1259.12 614.978 1258.93 615.206 1258.69 615.373C1255.05 618.174 1250.64 619.79 1246.06 620C1243.31 620.05 1240.61 619.275 1238.31 617.775C1232.27 613.727 1229.39 604.962 1231.28 596.464C1232.18 592.139 1234.43 588.209 1237.71 585.242C1240.99 582.275 1245.13 580.424 1249.54 579.958C1263.28 577.867 1275.04 585.431 1288.68 594.195C1298.94 600.869 1310.1 607.965 1323.69 611.992C1319.71 610.372 1315.99 608.184 1312.65 605.496C1309.69 603.094 1306.92 600.469 1304.37 597.643C1303.29 598.152 1302.12 598.425 1300.93 598.444V598.444C1299.87 598.475 1298.81 598.208 1297.9 597.673C1296.98 597.138 1296.23 596.357 1295.73 595.419C1295.1 594.23 1294.93 592.854 1295.24 591.547C1295.56 590.24 1296.34 589.094 1297.45 588.323C1296.89 587.344 1296.35 586.387 1295.86 585.408C1293.9 585.943 1291.87 586.22 1289.84 586.231C1287.11 586.237 1284.41 585.676 1281.92 584.585C1281.68 584.486 1281.47 584.332 1281.3 584.137C1281.14 583.941 1281.02 583.709 1280.96 583.459C1280.9 583.21 1280.9 582.95 1280.97 582.701C1281.03 582.452 1281.15 582.221 1281.31 582.027C1284.23 578.85 1287.89 576.436 1291.96 574.998C1290.94 570.792 1290.38 566.488 1290.31 562.162C1287.92 561.482 1285.87 559.934 1284.57 557.824C1283.27 555.715 1282.82 553.196 1283.29 550.765C1283.76 548.334 1285.13 546.168 1287.12 544.693C1289.12 543.218 1291.59 542.542 1294.06 542.798C1296.53 543.054 1298.82 544.223 1300.47 546.075C1302.11 547.927 1303.01 550.328 1302.97 552.803C1302.93 555.279 1301.96 557.649 1300.25 559.448C1298.54 561.246 1296.22 562.342 1293.74 562.518H1293.63C1293.75 566.349 1294.26 570.157 1295.15 573.885C1300.04 572.787 1305.12 572.886 1309.97 574.175C1310.26 574.247 1310.52 574.397 1310.74 574.608C1310.95 574.82 1311.1 575.085 1311.17 575.376C1311.25 575.66 1311.25 575.96 1311.16 576.242C1311.08 576.525 1310.92 576.779 1310.7 576.977C1307.27 580.03 1303.33 582.469 1299.06 584.185C1299.46 584.941 1299.88 585.72 1300.35 586.409C1301.75 585.683 1303.36 585.473 1304.9 585.815C1306.44 586.156 1307.81 587.029 1308.76 588.278C1309.25 589.07 1309.52 589.983 1309.52 590.914C1309.52 591.846 1309.25 592.758 1308.76 593.55C1308.34 594.293 1307.8 594.968 1307.18 595.552C1309.54 598.115 1312.07 600.508 1314.77 602.715C1332.97 617.775 1365.13 612.859 1368.88 612.236C1400.12 605.296 1410.77 587.588 1410.9 587.388C1411 587.191 1411.14 587.016 1411.32 586.875C1411.49 586.734 1411.69 586.629 1411.9 586.567C1412.12 586.505 1412.34 586.487 1412.56 586.513C1412.78 586.54 1413 586.611 1413.19 586.722C1413.38 586.834 1413.55 586.983 1413.69 587.161C1413.82 587.339 1413.92 587.542 1413.97 587.758C1414.02 587.974 1414.03 588.199 1413.99 588.418C1413.96 588.637 1413.88 588.847 1413.76 589.034V589.034ZM1286.42 552.752C1286.4 553.019 1286.4 553.287 1286.42 553.553C1286.88 552.179 1287.76 550.982 1288.93 550.134C1290.11 549.286 1291.52 548.829 1292.97 548.829C1294.43 548.829 1295.84 549.286 1297.02 550.134C1298.19 550.982 1299.07 552.179 1299.52 553.553C1299.55 553.287 1299.55 553.019 1299.52 552.752C1299.67 551.801 1299.61 550.83 1299.34 549.904C1299.08 548.979 1298.62 548.122 1297.99 547.391C1297.36 546.661 1296.58 546.074 1295.7 545.672C1294.83 545.27 1293.87 545.062 1292.91 545.062C1291.94 545.062 1290.99 545.27 1290.11 545.672C1289.23 546.074 1288.45 546.661 1287.83 547.391C1287.2 548.122 1286.73 548.979 1286.47 549.904C1286.2 550.83 1286.14 551.801 1286.29 552.752H1286.42ZM1296.06 577.222C1296.51 578.557 1297.02 579.936 1297.63 581.315C1300.52 580.183 1303.26 578.688 1305.77 576.866C1302.58 576.379 1299.33 576.477 1296.18 577.155L1296.06 577.222ZM1294.44 582.183C1293.83 580.781 1293.32 579.402 1292.87 578.023C1290.24 579.004 1287.79 580.434 1285.64 582.25C1288.54 582.929 1291.55 582.907 1294.44 582.183V582.183ZM1302.18 589.368C1303.03 590.614 1303.96 591.882 1304.99 593.128C1305.34 592.817 1305.62 592.448 1305.84 592.038C1306.05 591.762 1306.17 591.433 1306.19 591.09C1306.22 590.746 1306.14 590.403 1305.97 590.102C1305.33 589.146 1303.74 589.012 1302.18 589.435V589.368ZM1302.18 594.818C1301.15 593.528 1300.22 592.26 1299.35 590.992C1298.95 591.301 1298.68 591.731 1298.56 592.215C1298.44 592.699 1298.49 593.208 1298.7 593.661C1298.91 594.067 1299.23 594.406 1299.63 594.641C1300.02 594.877 1300.47 594.999 1300.93 594.996C1301.32 595.01 1301.71 594.972 1302.09 594.885L1302.18 594.818ZM1316.26 612.926C1305.91 608.657 1296.05 603.295 1286.85 596.931C1275.22 589.457 1265 582.895 1254.07 582.895C1252.72 582.892 1251.37 582.989 1250.03 583.184C1246.28 583.567 1242.76 585.121 1239.95 587.621C1237.15 590.122 1235.21 593.443 1234.41 597.109C1232.82 604.183 1235.21 611.702 1240.08 614.906C1243.91 617.486 1249 617.13 1254.38 614.105C1253.04 613.439 1251.86 612.501 1250.91 611.352C1249.96 610.202 1249.27 608.866 1248.87 607.431C1248.78 606.12 1249.05 604.81 1249.64 603.637C1250.23 602.463 1251.13 601.469 1252.24 600.758C1259.94 594.551 1270.78 598.533 1285.71 603.894C1295.65 607.684 1305.86 610.704 1316.26 612.926V612.926Z" fill="#CEAF7E"/>
<path d="M1305.68 555.8C1305.98 556.039 1306.35 556.165 1306.73 556.156C1306.94 556.162 1307.14 556.124 1307.33 556.045C1307.71 555.911 1316.64 552.352 1319.47 544.722C1320.19 542.622 1320.44 540.39 1320.2 538.184C1319.97 535.978 1319.24 533.851 1318.09 531.953C1314.63 525.435 1307.45 521.52 1297.85 520.83C1287.76 520.296 1277.43 523.7 1273.86 528.794C1272.2 531.143 1271.11 533.844 1270.67 536.685C1270.23 539.526 1270.46 542.429 1271.34 545.167C1271.94 547.143 1273.01 548.947 1274.46 550.422C1275.91 551.898 1277.69 553.003 1279.66 553.642C1279.92 553.747 1280.21 553.783 1280.48 553.747C1280.76 553.711 1281.03 553.604 1281.25 553.436C1281.48 553.268 1281.65 553.045 1281.77 552.789C1281.88 552.533 1281.92 552.252 1281.9 551.974C1281.9 551.974 1281.29 544.366 1285.53 539.917C1286.7 538.77 1288.1 537.892 1289.64 537.346C1291.19 536.8 1292.83 536.6 1294.46 536.758C1295.96 536.702 1297.46 536.978 1298.85 537.567C1300.23 538.155 1301.47 539.041 1302.47 540.161C1306.55 545.189 1305.1 554.154 1305.1 554.243C1305.05 554.53 1305.07 554.828 1305.17 555.102C1305.28 555.377 1305.45 555.618 1305.68 555.8V555.8Z" fill="#CEAF7E"/>
<path d="M1227.47 471.112C1225.77 459.077 1228.74 449.311 1234.83 446.82C1240.41 444.595 1245.23 444.217 1249.16 445.863C1251.89 446.986 1254.1 449.079 1255.36 451.736C1255.46 451.981 1255.5 452.246 1255.48 452.509C1255.46 452.772 1255.37 453.026 1255.23 453.249C1252.86 456.919 1246.59 466.596 1253.55 486.239C1260.25 505.014 1279.57 515.625 1279.78 515.714C1280.11 515.904 1280.37 516.201 1280.51 516.556C1280.65 516.912 1280.67 517.305 1280.56 517.671C1280.45 518.006 1280.24 518.298 1279.95 518.506C1279.67 518.713 1279.32 518.826 1278.97 518.828H1278.79C1245.32 515.069 1230.21 490.777 1227.47 471.112ZM1256.72 497.428C1256.95 497.712 1257.08 498.065 1257.08 498.429C1257.08 498.793 1256.95 499.146 1256.72 499.43C1256.96 499.148 1257.08 498.794 1257.08 498.429C1257.08 498.064 1256.96 497.71 1256.72 497.428V497.428Z" fill="#CEAF7E"/>
<path d="M1259.62 443.773C1263.4 430.937 1271.25 421.883 1279.71 420.704C1282.46 420.17 1285.29 420.196 1288.04 420.781C1290.78 421.366 1293.37 422.497 1295.66 424.108C1299.85 427.499 1302.67 432.288 1303.59 437.588C1303.63 437.86 1303.6 438.138 1303.5 438.395C1303.4 438.652 1303.24 438.88 1303.03 439.057C1302.82 439.234 1302.57 439.357 1302.3 439.415C1302.03 439.473 1301.75 439.465 1301.49 439.39C1298.23 438.434 1288.28 435.519 1277.74 459.878C1268.46 481.367 1288.9 515.158 1289.19 515.491C1289.39 515.827 1289.47 516.222 1289.41 516.609C1289.35 516.995 1289.15 517.347 1288.86 517.605C1288.55 517.883 1288.16 518.037 1287.74 518.037C1287.33 518.037 1286.93 517.883 1286.63 517.605C1257.97 493.202 1253.89 463.415 1259.62 443.773ZM1276.09 496.627C1276.25 496.627 1276.34 496.249 1276.38 495.893C1276.28 496.268 1276.03 496.586 1275.69 496.783V496.783C1275.83 496.753 1275.97 496.701 1276.09 496.627V496.627Z" fill="#CEAF7E"/>
<path d="M1303.3 413.897C1304.97 413.66 1306.68 413.756 1308.32 414.18C1309.96 414.604 1311.5 415.347 1312.85 416.366C1315.08 418.435 1316.17 421.772 1315.9 426.265C1315.52 433.228 1310.28 438.612 1304.21 444.818C1296.89 452.315 1287.81 461.613 1284.53 476.918C1278.5 505.103 1293.01 516.025 1293.63 516.492C1293.84 516.647 1294.09 516.746 1294.35 516.782H1294.68L1295.6 513.578C1299.86 499.03 1314.21 450.268 1316.08 449.067C1317.96 447.866 1307.04 496.694 1303.23 513.578L1302.25 518.027H1302.69C1303.09 518.021 1303.47 517.871 1303.76 517.605C1335.54 489.976 1333.58 458.521 1332.51 441.615V439.813C1331.57 424.041 1323.78 406.712 1313.72 406.044C1304.14 405.444 1301.71 411.406 1301.6 411.672C1301.49 411.941 1301.46 412.233 1301.51 412.518C1301.55 412.804 1301.67 413.072 1301.85 413.298C1302.03 413.523 1302.27 413.697 1302.54 413.802C1302.81 413.907 1303.1 413.94 1303.38 413.897H1303.3Z" fill="#CEAF7E"/>
<path d="M1337.17 439.813C1336.95 439.525 1336.83 439.174 1336.83 438.812C1336.83 438.45 1336.95 438.098 1337.17 437.811C1341.48 431.916 1352.57 431.137 1360.87 436.031C1365.11 438.567 1378.05 448.689 1366.47 472.647C1350.36 506.015 1316.73 522.877 1311.46 522.877H1311.28C1310.86 522.867 1310.45 522.723 1310.12 522.468C1309.78 522.212 1309.53 521.857 1309.41 521.453C1308.99 520.007 1310.24 519.228 1310.84 518.917C1320.26 513.289 1332.48 491.355 1341.1 473.937C1349.91 456.052 1337.28 440.013 1337.17 439.813ZM1327.24 505.169C1327.11 505.029 1327 504.872 1326.91 504.702C1326.98 504.881 1327.1 505.04 1327.24 505.169V505.169Z" fill="#CEAF7E"/>
<path d="M1335.54 529.35C1329.45 529.391 1323.37 528.643 1317.47 527.126C1317.11 527.02 1316.8 526.796 1316.58 526.491C1316.37 526.185 1316.26 525.816 1316.29 525.444C1316.31 525.072 1316.46 524.719 1316.71 524.442C1316.96 524.166 1317.3 523.983 1317.67 523.922C1341.34 520.252 1351.54 511.331 1361.54 500.898C1370.33 491.756 1366.69 477.051 1366.65 476.896C1366.59 476.652 1366.58 476.397 1366.63 476.15C1366.68 475.903 1366.79 475.671 1366.94 475.472C1367.1 475.272 1367.3 475.11 1367.52 474.998C1367.75 474.886 1368 474.828 1368.26 474.827C1372.5 475.032 1376.57 476.546 1379.91 479.161C1383.25 481.776 1385.69 485.361 1386.89 489.42C1388.39 494.247 1390.1 506.727 1373.5 518.116C1362.29 525.624 1349.05 529.543 1335.54 529.35V529.35ZM1344.27 520.452C1344.31 520.555 1344.36 520.652 1344.42 520.741C1344.42 520.741 1344.31 520.541 1344.27 520.43V520.452Z" fill="#CEAF7E"/>
<path d="M1367.27 433.985C1365.52 432.099 1364.57 429.612 1364.62 427.044C1364.62 423.351 1366.69 419.681 1370.62 416.099C1381.49 406.178 1392.36 415.321 1392.47 415.41C1392.79 415.678 1392.99 416.057 1393.04 416.47C1393.09 416.882 1392.98 417.298 1392.74 417.634C1386.2 426.777 1394.66 440.458 1401.44 448.956C1403.7 451.269 1406.04 453.894 1408.47 456.831C1408.73 457.151 1408.86 457.56 1408.83 457.974C1408.8 458.387 1408.62 458.774 1408.31 459.055C1408 459.343 1407.6 459.502 1407.17 459.5C1406.75 459.499 1406.34 459.331 1406.04 459.033C1403.46 456.49 1401.06 453.785 1398.83 450.936C1380.13 431.805 1369.08 434.407 1368.97 434.452C1368.67 434.533 1368.36 434.533 1368.06 434.451C1367.76 434.369 1367.49 434.208 1367.27 433.985V433.985ZM1367.92 427.089C1367.93 428.452 1368.34 429.782 1369.1 430.915C1369.59 430.888 1370.09 430.888 1370.58 430.915C1374.17 430.915 1381.33 432.16 1391.37 439.813C1387.4 432.338 1385.19 423.952 1389.14 417.011C1386.69 415.297 1383.7 414.504 1380.72 414.773C1377.73 415.042 1374.94 416.355 1372.83 418.48C1369.64 421.483 1367.97 424.241 1367.92 427.089Z" fill="#CEAF7E"/>
</g>
<g clip-path="url(#clip3_891_15)">
<path d="M1436.15 225.727C1434.34 223.027 1432.11 220.637 1429.52 218.651L1426.91 1.65109C1426.91 1.43539 1426.87 1.22121 1426.79 1.02102C1426.71 0.820837 1426.59 0.638628 1426.44 0.484993C1426.29 0.331358 1426.1 0.209364 1425.9 0.126103C1425.7 0.0428426 1425.49 -2.26473e-05 1425.27 9.37874e-09C1425.06 -2.29837e-05 1424.84 0.042232 1424.65 0.124307C1424.45 0.206382 1424.27 0.32664 1424.12 0.478084C1423.97 0.629529 1423.85 0.809138 1423.77 1.00646C1423.69 1.20379 1423.65 1.4149 1423.66 1.6275L1426.24 216.269C1420.91 213.165 1414.82 211.597 1408.64 211.74C1408.95 208.344 1410.4 199.428 1417.17 185.252C1426.01 166.831 1423.04 144.116 1415.91 133.361C1411.87 127.252 1401.94 129.139 1404.41 140.012C1405.29 143.857 1408.62 135.46 1413.75 143.503C1418.88 151.546 1403.3 183.294 1402.42 212.33C1399.94 212.779 1397.5 213.434 1395.13 214.288C1391.21 192.045 1389.97 167.751 1396.22 146.145C1397.17 142.843 1398.09 139.682 1398.97 136.71C1408.48 103.924 1414.08 84.8188 1407.6 67.6475C1410.76 59.8074 1413.01 51.632 1414.3 43.2821C1416.46 19.3177 1401.85 -2.50022 1389.61 3.04272C1377.38 8.58566 1384.2 22.5492 1387.62 22.5492C1391.04 22.5492 1406.17 9.83577 1408.26 38.2817C1408.49 45.5099 1406.72 52.662 1403.15 58.9675C1401.71 56.7278 1400.13 54.5846 1398.4 52.5518C1388.26 40.3809 1375.38 40.8998 1367.52 45.0511C1359.66 49.2024 1355.81 56.3493 1357.78 63.2367C1358.37 66.0014 1359.87 68.4913 1362.05 70.3115C1364.23 72.1318 1366.96 73.1781 1369.8 73.2848C1371.95 73.3313 1374.06 72.6824 1375.81 71.436C1377.56 70.1896 1378.85 68.413 1379.49 66.3738C1381.06 60.9723 1378.47 57.8353 1376.67 56.7739C1375.22 55.9589 1373.56 55.5848 1371.9 55.698C1370.24 55.8113 1368.65 56.4069 1367.33 57.4107C1365.29 59.2741 1364.46 61.279 1365.69 63.3546C1366.08 64.1564 1366.77 64.7803 1367.61 65.1C1368.44 65.4197 1369.37 65.4113 1370.21 65.0765C1372.13 63.9915 1371.7 58.9203 1374.96 60.5006C1376.64 61.279 1377.02 63.1188 1376.33 65.4775C1375.91 66.8468 1375.04 68.0383 1373.86 68.8661C1372.69 69.6938 1371.27 70.1113 1369.83 70.0533C1367.68 69.9567 1365.64 69.1445 1364.02 67.7486C1362.41 66.3528 1361.31 64.4552 1360.92 62.364C1359.4 56.9861 1362.63 51.1366 1368.97 47.8344C1375.86 44.2492 1387.05 43.8482 1395.96 54.5331C1398 56.9518 1399.83 59.5402 1401.42 62.2696C1388.64 85.3141 1362.53 112.133 1357 146.711C1352.82 172.657 1362.41 200.136 1374.48 227.261C1365.12 236.171 1359.06 247.955 1357.28 260.707C1353.27 286.818 1364.53 317.316 1388.16 344.228C1427.39 388.902 1429.05 453.79 1429.1 455.842L1429.38 480.42C1429.38 480.835 1429.55 481.233 1429.84 481.529C1430.13 481.825 1430.53 481.994 1430.95 482C1431.36 482.001 1431.75 481.848 1432.05 481.573C1432.35 481.297 1432.53 480.919 1432.56 480.514C1433.48 465.897 1433.31 451.233 1432.04 436.642L1429.78 248.866C1431.89 248.094 1433.87 247.03 1435.68 245.706C1441.26 241.861 1441.52 233.629 1436.15 225.727ZM1427.65 333.048C1427.68 333.499 1427.54 333.945 1427.25 334.29C1426.95 334.635 1426.53 334.85 1426.08 334.888C1425.63 334.925 1425.17 334.783 1424.83 334.491C1424.48 334.199 1424.26 333.782 1424.23 333.331C1421.23 315.169 1416.89 291.276 1412.78 278.444C1412.13 276.487 1411.4 274.222 1410.54 271.675C1404.81 255.193 1400.08 238.385 1396.38 221.34C1398.42 220.516 1400.55 219.946 1402.73 219.642C1403.31 233.89 1406.19 247.952 1411.26 261.297C1419.62 281.982 1420.88 305.05 1422.52 305.05C1424.15 305.05 1421.09 281.463 1415.03 262.594C1408.88 243.323 1407.79 236.648 1407.91 219.713C1409.39 219.883 1410.83 220.265 1412.21 220.845C1414.61 221.823 1416.71 223.409 1418.3 225.445C1419.89 227.481 1420.92 229.896 1421.28 232.45C1421.52 234.048 1421.32 235.682 1420.7 237.178C1420.08 238.673 1419.07 239.974 1417.76 240.941C1417.49 241.135 1417.29 241.406 1417.18 241.718C1417.07 242.03 1417.06 242.368 1417.15 242.686C1417.59 244.12 1418.35 245.438 1419.37 246.547C1420.39 247.656 1421.64 248.528 1423.04 249.102C1424.23 249.502 1425.49 249.655 1426.74 249.55L1427.65 333.048ZM1409.21 215.113C1415.3 215.051 1421.27 216.855 1426.29 220.279L1426.6 246.342C1425.74 246.439 1424.86 246.351 1424.04 246.083C1422.49 245.477 1421.24 244.291 1420.57 242.781C1422.06 241.451 1423.21 239.777 1423.9 237.906C1424.59 236.035 1424.81 234.023 1424.53 232.049C1424.1 228.941 1422.85 226.001 1420.92 223.519C1418.98 221.036 1416.43 219.098 1413.51 217.897C1407.8 215.689 1401.44 215.807 1395.81 218.227C1395.83 218.062 1395.83 217.896 1395.81 217.731C1400.09 216.065 1404.62 215.17 1409.21 215.09V215.113ZM1407.48 272.713L1409.69 279.435C1411.3 284.483 1412.73 290.143 1413.96 295.946C1414.02 296.14 1413.99 296.347 1413.89 296.522C1413.79 296.696 1413.62 296.824 1413.43 296.878C1413.23 296.931 1413.02 296.905 1412.85 296.805C1412.67 296.706 1412.54 296.541 1412.49 296.347C1406.17 276.534 1396.29 250.635 1388.73 225.704C1390.26 224.654 1391.85 223.693 1393.49 222.826C1397.16 239.706 1401.83 256.355 1407.48 272.689V272.713ZM1392.77 219.359C1391 220.23 1389.28 221.207 1387.62 222.284L1387.4 221.718C1389.11 220.719 1390.86 219.806 1392.65 218.982C1392.7 219.076 1392.73 219.359 1392.77 219.359ZM1377.38 166.217C1378.64 137.913 1395.2 100.716 1405.74 72.7423C1409.73 88.2861 1404.48 106.354 1395.89 135.837C1394.98 138.904 1394.08 142.064 1393.11 145.272C1386.64 167.656 1388 192.729 1392.08 215.538C1390.16 216.369 1388.29 217.306 1386.48 218.345C1380.73 198.791 1376.74 180.205 1377.38 166.217ZM1390.64 342.011C1367.62 315.877 1356.62 286.37 1360.49 261.202C1362.15 249.599 1367.55 238.841 1375.88 230.539L1376.86 232.638C1355.29 263.75 1389.26 327.081 1405.89 354.56C1413.21 367.077 1418.67 380.584 1422.09 394.657C1422.13 394.849 1422.1 395.049 1422 395.218C1421.9 395.387 1421.74 395.512 1421.55 395.569C1421.36 395.626 1421.16 395.609 1420.98 395.523C1420.8 395.438 1420.66 395.288 1420.59 395.106C1414.12 375.668 1403.95 357.644 1390.64 342.011V342.011ZM1408.64 352.79C1397.33 334.18 1382.51 306.536 1376.17 280.426C1371.42 261.226 1372.3 246.342 1378.54 235.941C1387.38 255.14 1396.88 274.057 1403.01 292.078C1412.1 320.112 1419.74 348.587 1425.91 377.392C1427.52 384.589 1428.37 391.932 1428.45 399.304V399.304C1428.45 399.536 1428.37 399.76 1428.21 399.934C1428.06 400.107 1427.84 400.218 1427.61 400.244C1427.38 400.27 1427.15 400.211 1426.95 400.076C1426.76 399.942 1426.63 399.743 1426.58 399.516C1423.12 383.128 1417.07 367.389 1408.64 352.885V352.79ZM1433.89 242.993C1432.63 243.924 1431.27 244.715 1429.83 245.352L1429.64 222.897C1431.11 224.321 1432.4 225.903 1433.51 227.614C1437.62 233.771 1437.81 240.328 1433.89 243.087V242.993Z" fill="#CEAF7E"/>
</g>
<defs>
<clipPath id="clip0_891_15">
<rect width="213" height="214" fill="white" transform="translate(213 620) rotate(-180)"/>
</clipPath>
<clipPath id="clip1_891_15">
<rect width="84" height="482" fill="white" transform="matrix(-1 0 0 1 84 0)"/>
</clipPath>
<clipPath id="clip2_891_15">
<rect width="213" height="214" fill="white" transform="matrix(1 0 0 -1 1227 620)"/>
</clipPath>
<clipPath id="clip3_891_15">
<rect width="84" height="482" fill="white" transform="translate(1356)"/>
</clipPath>
</defs>
</svg>
