<svg width="133" height="132" viewBox="0 0 133 132" fill="none" xmlns="http://www.w3.org/2000/svg">
<path d="M66 124C98.0325 124 124 98.0325 124 66C124 33.9675 98.0325 8 66 8C33.9675 8 8 33.9675 8 66C8 98.0325 33.9675 124 66 124Z" fill="#F4E7D7"/>
<path d="M39.4302 72.6782C44.6627 67.4458 44.6626 58.9624 39.4302 53.73C34.1978 48.4975 25.7144 48.4975 20.482 53.73C15.2495 58.9624 15.2495 67.4458 20.4819 72.6782C25.7144 77.9107 34.1978 77.9107 39.4302 72.6782Z" stroke="#514338" stroke-width="1.6" stroke-miterlimit="10"/>
<path d="M111.278 72.6523C116.557 67.3738 116.557 58.8157 111.278 53.5372C106 48.2587 97.4415 48.2586 92.163 53.5371C86.8845 58.8157 86.8845 67.3738 92.163 72.6523C97.4415 77.9308 106 77.9308 111.278 72.6523Z" stroke="#514338" stroke-width="1.6" stroke-miterlimit="10"/>
<path d="M84.9762 47.154C78.7228 45.24 76.6907 38.7505 65.8749 38.7505C55.0591 38.7505 54.1808 44.7549 46.9702 47.154C42.1982 48.8564 37.193 49.8159 32.1297 49.9989L31.9199 76.7172C31.9199 76.7172 45.8166 91.6233 66.006 91.6233C86.1955 91.6233 100.092 76.7172 100.092 76.7172V49.8023C94.953 49.6445 89.8629 48.7527 84.9762 47.154Z" fill="#EAD3B5" stroke="#514338" stroke-width="2" stroke-miterlimit="10"/>
<path d="M75.1967 60.2642H56.8164V78.6575H75.1967V60.2642Z" stroke="#514338" stroke-width="1.6" stroke-miterlimit="10"/>
<path d="M31.7891 58.521H37.3477" stroke="#514338" stroke-width="1.6" stroke-miterlimit="10"/>
<path d="M31.7891 68.3013H37.3477" stroke="#514338" stroke-width="1.6" stroke-miterlimit="10"/>
<path d="M100.225 58.521H94.666" stroke="#514338" stroke-width="1.6" stroke-miterlimit="10"/>
<path d="M68.7858 69.4546H63.2402" stroke="#514338" stroke-width="1.6" stroke-miterlimit="10"/>
<path d="M100.225 68.3013H94.666" stroke="#514338" stroke-width="1.6" stroke-miterlimit="10"/>
</svg>
