<svg width="280" height="64" viewBox="0 0 280 64" fill="none" xmlns="http://www.w3.org/2000/svg">
<g clip-path="url(#clip0_373_88)">
<path d="M276.04 37.7898C274.56 35.7298 272.61 34.3498 269.87 34.7098C269.334 34.7799 268.82 34.9667 268.364 35.257C267.908 35.5472 267.521 35.9339 267.23 36.3898C266.982 36.7236 266.813 37.1098 266.737 37.5188C266.66 37.9278 266.679 38.3489 266.79 38.7498C267.06 38.2698 267.23 37.9698 267.41 37.6698C267.784 37.0518 268.338 36.5633 268.997 36.2701C269.657 35.9768 270.391 35.8929 271.1 36.0298C272.307 36.3021 273.39 36.9667 274.18 37.9198C274.522 38.2566 274.79 38.6602 274.969 39.1054C275.148 39.5507 275.232 40.0279 275.218 40.5075C275.204 40.987 275.092 41.4585 274.887 41.8924C274.683 42.3264 274.391 42.7136 274.03 43.0298C272.731 44.0716 271.249 44.8618 269.66 45.3598C267.517 45.9189 265.322 46.254 263.11 46.3598C256.374 46.7245 249.627 45.8777 243.19 43.8598L242.57 43.6698C233.44 40.9098 224.57 37.3798 215.7 33.9198C215.44 33.8198 215.21 33.6698 214.75 33.4398H215.66C218.76 33.4998 221.87 33.6998 224.98 33.5798C227.71 33.4698 230.44 33.0098 233.17 32.6898C234.63 32.5098 234.7 32.5398 235.23 33.8698C235.51 34.5598 235.81 35.2498 236.04 35.9498C236.707 37.7345 237.972 39.2329 239.62 40.1898C240.699 40.9288 241.878 41.5113 243.12 41.9198C246.52 43.0398 250.12 42.8598 253.8 42.5698C253.829 42.5805 253.861 42.5805 253.89 42.5698C254.1 42.3798 254.44 42.2198 254.49 41.9898C254.492 41.8493 254.465 41.7099 254.41 41.5807C254.355 41.4515 254.273 41.3353 254.17 41.2398C253.915 41.0368 253.64 40.8593 253.35 40.7098C251.29 39.2698 249.2 37.8798 247.2 36.3798C245.2 34.8798 243.28 33.1298 240.84 32.2398L239.25 31.6698C239.316 31.6018 239.39 31.5414 239.47 31.4898C239.7 31.4198 239.93 31.3598 240.15 31.2798C243.67 30.0098 247.23 28.8498 250.23 26.4998C252.03 25.0798 253.35 23.4398 253.32 21.0198C253.347 20.5192 253.203 20.0243 252.912 19.6158C252.622 19.2073 252.202 18.9091 251.72 18.7698C250.471 18.3782 249.128 18.397 247.89 18.8235C246.652 19.25 245.583 20.0617 244.84 21.1398C244.691 21.4618 244.57 21.7965 244.48 22.1398C244.72 22.1398 244.79 22.1398 244.83 22.0798C244.87 22.0198 245.16 21.7498 245.34 21.5998C246.86 20.2098 248.52 19.2598 250.7 19.8098C251.7 20.0598 251.94 20.3898 251.87 21.3898C251.835 22.0374 251.659 22.6696 251.353 23.2415C251.047 23.8135 250.619 24.3113 250.1 24.6998C248.534 25.8986 246.86 26.9497 245.1 27.8398C240.23 30.2298 234.96 31.1698 229.64 31.8398C227.95 32.0498 226.26 32.1998 224.57 32.3798C226.29 31.3798 228.02 30.5098 229.76 29.6398C232.844 28.1706 235.342 25.7043 236.85 22.6398C238.415 19.6551 238.905 16.2233 238.24 12.9198C238.077 12.5076 237.851 12.1231 237.57 11.7798C237.23 12.0698 236.73 12.2798 236.57 12.6498C235.855 14.3735 234.753 15.9098 233.35 17.1398C231.15 19.1398 228.85 20.9698 226.58 22.8398C224.06 24.9198 221.46 26.9198 220.22 30.1098C219.94 30.8498 219.72 31.6198 219.45 32.4298C214.94 32.2902 210.463 31.6189 206.11 30.4298C201.46 29.2198 196.8 28.0298 192.11 26.9598C189.83 26.4298 187.48 26.1998 185.11 25.8398V25.6998C185.386 25.608 185.671 25.5444 185.96 25.5098C188.71 25.3398 191.45 25.0298 194.2 25.0798C198.758 25.2211 203.289 24.3252 207.45 22.4598C208.629 21.9502 209.713 21.2471 210.66 20.3798C212.403 18.8045 213.633 16.7421 214.19 14.4598C214.361 13.9556 214.607 13.4801 214.92 13.0498C215.26 12.4598 215.05 12.0498 214.36 12.0498C213.886 12.0836 213.417 12.1674 212.96 12.2998C207.963 13.7453 202.87 14.838 197.72 15.5698C194.81 15.8117 191.998 16.733 189.509 18.2596C187.02 19.7863 184.924 21.8757 183.39 24.3598C183.148 24.6506 182.84 24.8807 182.493 25.0318C182.146 25.1828 181.768 25.2506 181.39 25.2298C176.021 24.575 170.597 24.4946 165.21 24.9898C164.21 25.0798 163.21 25.1898 162.21 25.3298C161.446 25.9871 160.586 26.5233 159.66 26.9198L158.83 27.2598C161.346 26.7044 163.906 26.3698 166.48 26.2598C166.82 26.2565 167.148 26.3815 167.4 26.6098C168.681 27.9888 169.725 29.5701 170.49 31.2898C172.92 36.7098 176.15 41.4698 181.37 44.6298C184.686 46.541 188.249 47.9847 191.96 48.9198C192.69 49.1198 192.96 48.7698 192.69 48.0398C192.54 47.5544 192.291 47.1052 191.96 46.7198C190.88 45.4009 190.016 43.9192 189.4 42.3298C188.2 39.7698 187.27 37.0698 185.4 34.8498C182.448 31.2489 178.598 28.4896 174.24 26.8498C173.79 26.6898 173.37 26.4498 172.94 26.2498C173.253 26.107 173.598 26.0517 173.94 26.0898C178.01 26.5498 182.1 26.8998 186.13 27.5198C190.33 28.1698 194.48 29.0498 198.64 29.8898C199.299 30.0647 199.917 30.3671 200.46 30.7798C201.175 31.3001 201.776 31.9602 202.229 32.7199C202.681 33.4797 202.974 34.3234 203.09 35.1998C204.189 40.1768 206.839 44.6764 210.66 48.0498C212.795 50.2776 215.252 52.1721 217.95 53.6698C218.47 53.9198 218.88 54.8098 219.55 54.2098C220.22 53.6098 219.6 52.9298 219.27 52.4398C218.007 50.3927 217.317 48.0445 217.27 45.6398C217.088 42.381 215.655 39.3182 213.27 37.0898C211.799 35.8481 210.26 34.6896 208.66 33.6198C208.21 33.2898 207.74 32.9798 207.27 32.6198C207.447 32.5521 207.643 32.5521 207.82 32.6198C209.15 33.0598 210.5 33.4698 211.82 33.9698C217.1 35.9698 222.373 37.9998 227.64 40.0598C227.861 40.1395 228.062 40.2656 228.23 40.4298C230.441 42.5504 232.1 45.1803 233.06 48.0898C235.06 54.8198 239.87 59.0198 245.91 62.0898C246.367 62.3104 246.851 62.4685 247.35 62.5598C247.512 62.6005 247.681 62.6056 247.845 62.5745C248.009 62.5434 248.164 62.477 248.3 62.3798C248.46 62.1898 248.39 61.7298 248.3 61.3798C247.881 60.2025 247.524 59.0043 247.23 57.7898C246.734 55.1894 245.546 52.7711 243.79 50.7898C241.601 48.2472 239.063 46.0284 236.25 44.1998C235.55 43.7498 234.89 43.1998 234.25 42.7398C234.43 42.6198 234.52 42.6098 234.6 42.6398C239.93 44.3998 245.19 46.4198 250.82 47.1498C250.932 47.1928 251.033 47.2612 251.115 47.3497C251.196 47.4381 251.256 47.5443 251.29 47.6598C252.089 51.1368 254.117 54.2083 257 56.3098C260.914 59.3258 265.332 61.6215 270.05 63.0898C270.288 63.1777 270.542 63.2116 270.795 63.1891C271.047 63.1667 271.292 63.0883 271.51 62.9598C271.627 62.7359 271.688 62.4872 271.688 62.2348C271.688 61.9824 271.627 61.7337 271.51 61.5098C270.72 60.0075 269.793 58.5814 268.74 57.2498C265.867 53.8268 262.415 50.9361 258.54 48.7098C258.27 48.5598 258.03 48.3598 257.54 48.0398L258.22 47.9898C261.05 47.8498 263.88 47.7698 266.71 47.5498C269.483 47.423 272.153 46.4609 274.37 44.7898C275.039 44.3004 275.606 43.6857 276.04 42.9798C276.562 42.2152 276.842 41.3108 276.842 40.3848C276.842 39.4588 276.562 38.5544 276.04 37.7898ZM237.48 32.7898C238.253 32.8673 239.016 33.018 239.76 33.2398C240.995 33.6803 242.17 34.2714 243.26 34.9998C245.71 36.7998 248.04 38.7498 250.63 40.8298C248.042 40.1912 245.643 38.947 243.63 37.1998C241.81 35.5898 240.04 33.9598 237.68 33.1998C237.576 33.166 237.478 33.1153 237.39 33.0498C237.414 32.9578 237.444 32.8675 237.48 32.7798V32.7898ZM239.66 35.3298C240.73 36.0798 241.66 37.0598 242.66 37.8498C243.92 38.7898 245.24 39.6398 246.55 40.5198C246.92 40.7598 247.33 40.9498 247.9 41.2598C244 41.5598 237.5 38.7098 236.75 33.8498C237.752 34.2776 238.724 34.772 239.66 35.3298V35.3298ZM225.02 25.9198C226.8 24.3798 228.79 23.0698 230.55 21.5098C232.31 19.9498 234.13 18.0898 235.9 16.3698C236.06 16.2098 236.21 16.0398 236.37 15.8698C236.018 17.1902 235.383 18.4184 234.51 19.4698C232.05 22.7898 228.67 24.9698 225.27 27.1498C224.18 27.8498 223.15 28.6598 222.1 29.4198L221.91 29.2598C222.889 28.0944 223.927 26.9796 225.02 25.9198V25.9198ZM222.75 30.6198C224.9 29.0998 226.97 27.4698 229.2 26.0898C232.074 24.1939 234.553 21.759 236.5 18.9198C236.56 18.8298 236.65 18.7498 236.78 18.5998C236.492 21.0199 235.4 23.2735 233.68 24.9998C232.246 26.6129 230.478 27.8957 228.5 28.7598C226.57 29.5598 224.69 30.4898 222.8 31.3498C222.54 31.4698 222.26 31.5398 221.99 31.6398L221.74 31.3198L222.75 30.6198ZM212.41 16.5798C211.1 18.3298 209.84 20.1398 207.73 21.0098C203.968 22.6546 199.915 23.5285 195.81 23.5798C193.28 23.5798 190.74 23.6998 188.21 23.7598C188.04 23.7598 187.88 23.7598 187.71 23.7598V23.5798C188.33 23.3398 188.95 23.0798 189.58 22.8698C193.812 21.3986 198.191 20.3927 202.64 19.8698C206.273 19.4702 209.732 18.1064 212.66 15.9198C212.604 16.1491 212.52 16.3707 212.41 16.5798V16.5798ZM188.66 20.6298C191.422 18.523 194.721 17.2372 198.18 16.9198C202.702 16.4452 207.162 15.5035 211.49 14.1098C211.76 14.0198 212.06 13.9698 212.33 13.8998C212.39 13.9798 212.44 14.0598 212.5 14.1298C211.889 14.7076 211.245 15.2485 210.57 15.7498C207.953 17.3318 205.014 18.3057 201.97 18.5998C196.765 19.2073 191.674 20.5542 186.85 22.5998C186.85 22.5998 186.75 22.5998 186.46 22.5998C187.26 21.8098 187.9 21.1698 188.66 20.6298ZM176.97 29.7498C180.97 32.2498 184.55 35.1798 186.53 39.6498C187.18 41.1198 187.85 42.5898 188.53 44.0298C189.04 45.0298 189.63 46.0298 190.17 47.0298C190.17 47.0298 190.1 47.0298 190.05 47.0298C187.064 45.2479 184.464 42.8885 182.4 40.0898C180.79 37.8098 179.34 35.3998 177.75 33.0898C176.69 31.5598 175.49 30.0898 174.34 28.6098C175.228 28.9323 176.093 29.3131 176.93 29.7498H176.97ZM178.13 36.1998C179.516 38.6427 181.166 40.9264 183.05 43.0098C183.488 43.4621 183.864 43.9698 184.17 44.5198C184.013 44.4702 183.859 44.4101 183.71 44.3398C179.473 42.1121 175.993 38.6771 173.71 34.4698C172.84 32.7598 171.98 31.0598 171.04 29.3898C170.49 28.3898 169.8 27.4698 169.04 26.3898C170.2 27.2198 171.3 27.9198 172.29 28.7498C174.67 30.8503 176.638 33.3769 178.09 36.1998H178.13ZM204.23 33.4098C208.23 37.5898 209.8 42.9498 212.57 47.5898C208.102 44.077 205.112 39.0179 204.19 33.4098H204.23ZM214.23 40.6098C215.112 42.1017 215.69 43.7535 215.93 45.4698C216.27 47.4698 216.69 49.3798 217.07 51.3198C216.896 51.2047 216.741 51.063 216.61 50.8998C215.681 49.7312 214.816 48.5127 214.02 47.2498C212.64 44.8298 211.44 42.3298 210.1 39.8898C209.02 37.8898 207.86 36.0298 206.72 34.0598C209.38 35.9198 212.3 37.6098 214.16 40.6098H214.23ZM246.23 59.7398C244.83 59.2498 238.42 50.6098 235.51 45.3198C240.49 49.0398 245.59 52.7198 246.18 59.7398H246.23ZM242.63 58.4498C240.787 57.541 239.196 56.191 238 54.5198C236.977 53.1237 236.084 51.6376 235.33 50.0798C234.33 47.9598 233.44 45.7398 232.49 43.5098L242.63 58.4498ZM262.63 58.4498C258.58 56.1298 254.7 53.6398 252.79 48.6998C254.54 50.5098 256.06 52.1898 257.7 53.7498C259.34 55.3098 261.09 56.7498 262.79 58.2598L262.63 58.4498ZM269.52 61.0298C263.653 57.5912 258.401 53.1975 253.98 48.0298C260.29 50.9198 265.66 54.9698 269.48 60.9898L269.52 61.0298Z" fill="white"/>
<path d="M113.98 24.9202C108.594 24.4233 103.169 24.5071 97.8002 25.1702C97.4225 25.1879 97.0458 25.1187 96.699 24.9679C96.3523 24.817 96.0448 24.5886 95.8002 24.3002C94.2688 21.8126 92.1739 19.72 89.6846 18.1913C87.1953 16.6627 84.3815 15.7408 81.4702 15.5002C76.3224 14.7731 71.2328 13.6804 66.2402 12.2302C65.7803 12.0977 65.3077 12.0139 64.8302 11.9802C64.1502 11.9802 63.9402 12.3702 64.2802 12.9802C64.5887 13.4156 64.8313 13.894 65.0002 14.4002C65.4504 16.15 66.2868 17.7768 67.4479 19.1612C68.609 20.5456 70.0654 21.6523 71.7102 22.4002C75.8721 24.2749 80.4081 25.1711 84.9702 25.0202C87.7102 25.0202 90.4602 25.2802 93.2102 25.4502C93.4982 25.4906 93.7824 25.5542 94.0602 25.6402C94.0602 25.6402 94.0602 25.7402 94.0602 25.7802C91.7402 26.1502 89.3902 26.3802 87.0602 26.9002C82.3702 27.9702 77.7102 29.1602 73.0602 30.3802C68.7032 31.5642 64.2229 32.2354 59.7102 32.3802C59.4402 31.5602 59.2302 30.8002 58.9402 30.0602C57.7102 26.8602 55.1102 24.8702 52.5902 22.7902C50.3102 20.9102 48.0202 19.0502 45.8102 17.0802C44.431 15.828 43.3539 14.2791 42.6602 12.5502C42.5102 12.1902 42.0202 11.9702 41.6602 11.6802C41.3802 12.0257 41.1512 12.4096 40.9802 12.8202C40.3215 16.113 40.8084 19.5321 42.3602 22.5102C43.8732 25.575 46.3743 28.0409 49.4602 29.5102C51.1902 30.3702 52.9302 31.2302 54.6502 32.2402C52.9602 32.0602 51.2702 31.9202 49.5802 31.7102C44.2502 31.0302 38.9802 30.0902 34.1102 27.7102C32.3504 26.8236 30.6766 25.7758 29.1102 24.5802C28.5924 24.1902 28.1658 23.6921 27.8601 23.1204C27.5544 22.5488 27.377 21.9174 27.3402 21.2702C27.2702 20.2702 27.5402 19.9402 28.5102 19.6902C30.6902 19.1302 32.3502 20.0802 33.8802 21.4702C34.0502 21.6302 34.2102 21.8102 34.3902 21.9602C34.5702 22.1102 34.5002 21.9602 34.7302 22.0202C34.6446 21.6754 34.524 21.3404 34.3702 21.0202C33.627 19.9421 32.558 19.1304 31.3199 18.7039C30.0819 18.2774 28.7398 18.2586 27.4902 18.6502C27.0069 18.7907 26.5865 19.0927 26.2989 19.5058C26.0114 19.9189 25.8742 20.4182 25.9102 20.9202C25.9102 23.3302 27.1902 24.9802 28.9902 26.3902C31.9902 28.7502 35.5502 29.9102 39.0802 31.1702L39.7602 31.3902C39.8102 31.3902 39.8502 31.4602 39.9702 31.5702L38.3802 32.1302C35.9402 33.0202 34.0502 34.7402 32.0202 36.2702C29.9902 37.8002 27.9302 39.1602 25.8802 40.6002C25.589 40.7567 25.3113 40.9373 25.0502 41.1402C24.95 41.2379 24.8702 41.3544 24.8152 41.4832C24.7603 41.6119 24.7314 41.7502 24.7302 41.8902C24.7802 42.1102 25.1202 42.2802 25.3402 42.4602C25.3402 42.4602 25.3402 42.4602 25.4202 42.4602C29.0702 42.7602 32.7002 42.9402 36.1102 41.8102C37.3692 41.4128 38.5647 40.8369 39.6602 40.1002C41.3004 39.1371 42.5605 37.6404 43.2302 35.8602C43.4702 35.1502 43.7702 34.4702 44.0402 33.7702C44.5702 32.4502 44.6402 32.4202 46.1102 32.5902C48.8402 32.9102 51.5602 33.3702 54.3002 33.4802C57.4002 33.6102 60.5102 33.4002 63.6102 33.3502H64.4902C64.0402 33.5902 63.8002 33.7302 63.5502 33.8302C54.6702 37.2902 45.8002 40.8302 36.6802 43.5802L36.0602 43.7702C29.6205 45.792 22.8702 46.6422 16.1302 46.2802C13.9215 46.1742 11.7297 45.8391 9.59023 45.2802C7.98801 44.7777 6.49516 43.977 5.19023 42.9202C4.82906 42.605 4.53711 42.2185 4.33277 41.7848C4.12843 41.3512 4.01614 40.88 4.00299 40.4008C3.98984 39.9217 4.07611 39.445 4.25635 39.0008C4.43659 38.5567 4.7069 38.1547 5.05023 37.8202C5.83265 36.8569 6.91833 36.1872 8.13023 35.9202C8.83914 35.7848 9.57249 35.8693 10.232 36.1624C10.8915 36.4556 11.4457 36.9433 11.8202 37.5602C12.0002 37.8602 12.1602 38.1602 12.4402 38.6402C12.5465 38.2388 12.5621 37.8188 12.486 37.4106C12.4099 37.0025 12.244 36.6163 12.0002 36.2802C11.7086 35.8231 11.3201 35.4357 10.8621 35.1454C10.4042 34.8551 9.88806 34.6689 9.35023 34.6002C6.61023 34.2402 4.67023 35.6002 3.19023 37.6902C2.66473 38.4517 2.3833 39.355 2.3833 40.2802C2.3833 41.2054 2.66473 42.1087 3.19023 42.8702C3.63036 43.5774 4.20039 44.195 4.87023 44.6902C7.08568 46.3553 9.75171 47.3136 12.5202 47.4402C15.3502 47.6602 18.1902 47.7502 21.0202 47.8902L21.6602 47.9202C21.2002 48.2402 20.9502 48.4402 20.6602 48.6002C16.7931 50.8289 13.3446 53.7155 10.4702 57.1302C9.41778 58.464 8.48737 59.8897 7.69023 61.3902C7.5751 61.6321 7.52298 61.8993 7.53872 62.1667C7.55445 62.4342 7.63753 62.6934 7.78024 62.9202C7.99796 63.0459 8.24047 63.1227 8.49089 63.1451C8.74131 63.1676 8.99361 63.1352 9.23023 63.0502C13.9498 61.5745 18.3712 59.2757 22.2902 56.2602C25.1742 54.1615 27.1994 51.0882 27.9902 47.6102C28.0241 47.4944 28.0854 47.3884 28.169 47.3014C28.2526 47.2144 28.3559 47.1488 28.4702 47.1102C34.0902 46.3702 39.3502 44.3602 44.6902 42.5902C44.7702 42.5902 44.8602 42.5902 45.0402 42.7002C44.3602 43.1902 43.7002 43.7002 43.0402 44.1602C40.2233 45.9831 37.6838 48.2026 35.5002 50.7502C33.7364 52.7272 32.5438 55.147 32.0502 57.7502C31.7596 58.9645 31.4058 60.1628 30.9902 61.3402C30.9002 61.6602 30.8302 62.1202 30.9902 62.3402C31.1277 62.4339 31.283 62.4982 31.4465 62.5292C31.6099 62.5602 31.778 62.5571 31.9402 62.5202C32.4302 62.3885 32.8984 62.1864 33.3302 61.9202C39.3302 58.9202 44.1702 54.6902 46.1802 47.9202C47.1446 45.0155 48.8025 42.3898 51.0102 40.2702C51.1988 40.1076 51.4207 39.9881 51.6602 39.9202C56.9269 37.9202 62.1969 35.8902 67.4702 33.8302C68.7902 33.3302 70.1302 32.9202 71.4702 32.4802C71.5558 32.4444 71.6475 32.426 71.7402 32.426C71.8329 32.426 71.9247 32.4444 72.0102 32.4802C71.5502 32.8002 71.0802 33.1002 70.6302 33.4802C69.0479 34.5489 67.5256 35.704 66.0702 36.9402C63.6796 39.1685 62.2459 42.2368 62.0702 45.5002C62.0216 47.9046 61.3311 50.2523 60.0702 52.3002C59.7402 52.7802 59.1402 53.4902 59.7902 54.0702C60.4402 54.6502 60.8802 53.7702 61.3902 53.5202C64.0581 52.0261 66.4854 50.1382 68.5902 47.9202C72.3924 44.533 75.0219 40.0268 76.1002 35.0502C76.2167 34.1726 76.5108 33.3281 76.9647 32.5681C77.4186 31.8081 78.0228 31.1487 78.7402 30.6302C79.2806 30.2197 79.8952 29.9175 80.5502 29.7402C84.7102 28.9002 88.8702 28.0202 93.0602 27.3802C97.0602 26.7502 101.18 26.3802 105.25 25.9402C105.592 25.9068 105.936 25.9619 106.25 26.1002C105.828 26.3258 105.394 26.5294 104.95 26.7102C100.587 28.3403 96.7352 31.1013 93.7902 34.7102C91.9102 36.9202 90.9702 39.6202 89.7902 42.1902C89.1764 43.7776 88.3121 45.2563 87.2302 46.5702C86.9101 46.9631 86.6629 47.4102 86.5002 47.8902C86.2202 48.6302 86.5002 48.9802 87.2402 48.7702C90.9544 47.8402 94.5216 46.3998 97.8402 44.4902C103.07 41.3202 106.3 36.5602 108.73 31.1502C109.483 29.4239 110.528 27.8406 111.82 26.4702C111.942 26.3522 112.086 26.2596 112.244 26.1978C112.402 26.136 112.571 26.1062 112.74 26.1102C113.27 26.1102 113.81 26.1702 114.35 26.2202C114.88 25.7717 115.465 25.392 116.09 25.0902C115.41 25.0502 114.66 24.9702 113.98 24.9202ZM91.5202 23.6502C91.3502 23.6502 91.1902 23.6502 91.0202 23.6502C88.4802 23.5802 85.9502 23.4502 83.4102 23.4702C79.3103 23.4193 75.2616 22.5525 71.5002 20.9202C69.3902 20.0502 68.1202 18.2302 66.8202 16.4902C66.7139 16.2842 66.6333 16.0659 66.5802 15.8402C69.5066 18.0078 72.959 19.3542 76.5802 19.7402C81.0328 20.2631 85.4153 21.269 89.6502 22.7402C90.2702 22.9602 90.8902 23.2202 91.5202 23.4602C91.5156 23.5201 91.5156 23.5803 91.5202 23.6402V23.6502ZM92.3702 22.4602C87.5475 20.4206 82.4604 19.0739 77.2602 18.4602C74.2163 18.1661 71.2773 17.1922 68.6602 15.6102C67.9835 15.1149 67.3389 14.5771 66.7302 14.0002L66.8902 13.7702C67.1702 13.8402 67.4602 13.8802 67.7402 13.9702C72.063 15.3696 76.5208 16.3114 81.0402 16.7802C84.5365 17.0973 87.8717 18.3974 90.6602 20.5302C91.3702 21.0702 92.0202 21.7102 92.8202 22.4102C92.4802 22.4402 92.4202 22.4702 92.3702 22.4502V22.4602ZM28.6002 40.7202C31.1902 38.6502 33.5202 36.7202 35.9602 34.9002C37.053 34.1681 38.2319 33.5737 39.4702 33.1302C40.214 32.9074 40.9776 32.7567 41.7502 32.6802C41.7655 32.7613 41.7855 32.8414 41.8102 32.9202C41.7155 32.9801 41.615 33.0303 41.5102 33.0702C39.1502 33.8502 37.3902 35.4802 35.5602 37.0702C33.5654 38.8258 31.1787 40.0774 28.6002 40.7202V40.7202ZM31.3202 41.1702C31.8802 40.8602 32.3202 40.6702 32.6602 40.4302C33.9702 39.5502 35.2902 38.7002 36.5602 37.7502C37.5602 36.9602 38.5002 35.9802 39.5602 35.2402C40.4917 34.6779 41.4607 34.18 42.4602 33.7502C41.7102 38.6102 35.2102 41.4702 31.3202 41.1702ZM43.3202 16.3002C45.1002 18.0202 46.8202 19.8102 48.6702 21.4402C50.5202 23.0702 52.4202 24.3202 54.2002 25.8602C55.3011 26.9115 56.3428 28.0232 57.3202 29.1902L57.1202 29.3602C56.1202 28.5902 55.0502 27.7902 53.9502 27.0802C50.5502 24.9102 47.1802 22.7202 44.7202 19.4102C43.8442 18.3593 43.2062 17.1312 42.8502 15.8102L43.3202 16.3002ZM57.2302 31.5702C56.9591 31.4903 56.6921 31.3968 56.4302 31.2902C54.5302 30.4302 52.6502 29.4902 50.7202 28.7002C48.7435 27.8245 46.9772 26.5356 45.5402 24.9202C43.8237 23.1951 42.7327 20.9461 42.4402 18.5302C42.5489 18.6254 42.6462 18.7327 42.7302 18.8502C44.6723 21.6909 47.1524 24.1235 50.0302 26.0102C52.2502 27.4002 54.3302 29.0102 56.4702 30.5402L57.4702 31.2502C57.4002 31.3602 57.3202 31.4702 57.2302 31.5702V31.5702ZM25.2902 47.9202C20.7202 52.9202 15.7602 57.5502 9.74023 60.9202C13.5302 54.9202 18.9402 50.8102 25.2902 47.9202ZM16.6602 58.3202L16.5002 58.1202C18.2002 56.6302 19.9502 55.1202 21.6002 53.6102C23.2502 52.1002 24.7502 50.3802 26.5102 48.6102C24.5702 53.5002 20.6602 56.0002 16.6602 58.3202ZM33.0702 59.6402C33.6702 52.6402 38.7702 48.9402 43.8002 45.2302C40.8502 50.5202 34.4502 59.1602 33.0402 59.6402H33.0702ZM43.9802 49.9902C43.2228 51.5459 42.3293 53.0317 41.3102 54.4302C40.1054 56.0986 38.5084 57.4449 36.6602 58.3502C39.9802 53.4602 43.3702 48.4502 46.7902 43.4202C45.8302 45.6402 44.9802 47.8602 43.9502 49.9902H43.9802ZM62.7202 50.8002C62.5867 50.9641 62.4281 51.1059 62.2502 51.2202C62.6302 49.2802 63.0502 47.3402 63.4002 45.3702C63.6401 43.6583 64.2143 42.0104 65.0902 40.5202C66.9502 37.5202 69.8802 35.8502 72.6002 33.9602C71.4602 35.9602 70.3002 37.8402 69.2202 39.8002C67.8902 42.2302 66.6802 44.7402 65.3002 47.1502C64.4928 48.4177 63.6112 49.6365 62.6602 50.8002H62.7202ZM66.7202 47.4902C69.4802 42.8502 71.0102 37.4902 75.0502 33.3202C74.1258 38.9272 71.132 43.9835 66.6602 47.4902H66.7202ZM89.1802 46.9202C89.1598 46.9293 89.1376 46.934 89.1152 46.934C89.0928 46.934 89.0707 46.9293 89.0502 46.9202C89.6002 45.9202 90.1902 44.9802 90.7002 43.9702C91.4102 42.5302 92.0902 41.0602 92.7002 39.5902C94.7002 35.1202 98.2502 32.2002 102.25 29.7002C103.086 29.2401 103.955 28.8424 104.85 28.5102C103.69 30.0202 102.49 31.4502 101.43 32.9902C99.8402 35.2902 98.4302 37.7002 96.7802 39.9902C94.729 42.7791 92.1461 45.1344 89.1802 46.9202ZM108.18 29.3302C107.25 31.0002 106.38 32.7002 105.51 34.4102C103.229 38.6186 99.7481 42.054 95.5102 44.2802C95.3579 44.3538 95.2009 44.4172 95.0402 44.4702C95.369 43.9074 95.7652 43.3868 96.2202 42.9202C98.1064 40.8386 99.7564 38.5547 101.14 36.1102C102.59 33.2883 104.55 30.7591 106.92 28.6502C107.92 27.8302 109.02 27.1202 110.17 26.2902C109.45 27.3802 108.77 28.3002 108.21 29.2902L108.18 29.3302Z" fill="white"/>
<path d="M257.55 19.9198C256.699 19.9547 255.868 19.6637 255.225 19.1061C254.582 18.5485 254.176 17.7665 254.09 16.9198C254.195 16.0474 254.617 15.244 255.275 14.6616C255.933 14.0792 256.781 13.7583 257.66 13.7598C258.528 13.823 259.342 14.2036 259.947 14.8289C260.552 15.4542 260.905 16.2804 260.94 17.1498C260.95 18.6298 259.37 19.9198 257.55 19.9198ZM257.55 18.4998C258.62 18.4998 259.66 17.7698 259.41 17.0698C259.16 16.3698 258.67 15.5998 258.12 15.4598C257.327 15.3723 256.529 15.5518 255.85 15.9698C255.58 16.1198 255.45 16.9698 255.59 17.3998C255.756 17.7692 256.038 18.0739 256.394 18.2672C256.75 18.4604 257.16 18.5316 257.56 18.4698L257.55 18.4998Z" fill="white"/>
<path d="M260.72 33.85C260.57 31.85 262.33 31.03 263.72 30.98C264.412 30.9939 265.073 31.2683 265.572 31.7484C266.071 32.2285 266.37 32.879 266.41 33.57C266.351 34.3908 266.002 35.1639 265.425 35.7504C264.847 36.3368 264.08 36.6983 263.26 36.77C262.898 36.7554 262.543 36.667 262.216 36.5101C261.889 36.3533 261.598 36.1313 261.36 35.8579C261.122 35.5845 260.943 35.2653 260.833 34.92C260.723 34.5748 260.684 34.2106 260.72 33.85ZM261.92 33.85C261.92 34.85 262.44 35.47 263.2 35.46C263.658 35.4033 264.083 35.1955 264.409 34.8694C264.735 34.5433 264.943 34.1176 265 33.66C264.963 33.3172 264.81 32.9974 264.566 32.7536C264.323 32.5098 264.003 32.3568 263.66 32.32C262.35 32.38 261.92 32.75 261.92 33.8V33.85Z" fill="white"/>
<path d="M271.47 32.2898C270.888 32.3298 270.314 32.1443 269.865 31.772C269.416 31.3996 269.128 30.8689 269.06 30.2898C269.172 29.7245 269.456 29.2075 269.873 28.81C270.29 28.4125 270.82 28.1539 271.39 28.0698C271.975 28.1196 272.524 28.3748 272.94 28.7902C273.355 29.2056 273.61 29.7545 273.66 30.3398C273.646 30.6123 273.578 30.8792 273.46 31.1252C273.342 31.3711 273.176 31.5912 272.973 31.7726C272.769 31.954 272.531 32.0931 272.273 32.1819C272.015 32.2707 271.742 32.3074 271.47 32.2898V32.2898Z" fill="white"/>
<path d="M257.41 25.5999C256.31 25.5999 255.66 25.0299 255.68 24.0999C255.704 23.5378 255.934 23.0042 256.327 22.6017C256.721 22.1993 257.249 21.9564 257.81 21.9199C258.042 21.9211 258.272 21.969 258.486 22.0609C258.699 22.1528 258.892 22.2867 259.052 22.4547C259.213 22.6227 259.338 22.8213 259.42 23.0387C259.502 23.2561 259.54 23.4878 259.53 23.7199C259.523 23.9855 259.462 24.2468 259.349 24.4876C259.237 24.7284 259.077 24.9436 258.878 25.1198C258.679 25.2961 258.446 25.4297 258.194 25.5122C257.941 25.5948 257.675 25.6247 257.41 25.5999Z" fill="white"/>
<path d="M249.18 15.1601C248.73 14.7901 248.05 14.5101 247.88 14.0501C247.761 13.405 247.792 12.7413 247.97 12.1101C247.97 11.9601 248.35 11.7401 248.53 11.7601C249.197 11.7994 249.853 11.9516 250.47 12.2101C250.676 12.3393 250.851 12.5134 250.981 12.7194C251.111 12.9254 251.192 13.1581 251.22 13.4001C251.118 13.9026 250.846 14.3546 250.45 14.6801C250.2 14.9101 249.73 14.9101 249.36 15.0101L249.18 15.1601Z" fill="white"/>
<path d="M277.66 35.44C276.56 35.44 275.81 34.8 275.84 33.91C275.848 33.4738 276.024 33.0575 276.331 32.7481C276.639 32.4387 277.054 32.2603 277.49 32.25C277.955 32.2787 278.392 32.4767 278.72 32.8067C279.049 33.1366 279.244 33.5754 279.27 34.04C279.24 34.92 278.6 35.44 277.66 35.44Z" fill="white"/>
<path d="M18.2602 17.0598C18.2463 16.1652 18.5815 15.3003 19.1947 14.6488C19.8079 13.9972 20.6509 13.6102 21.5447 13.5699C22.4385 13.5296 23.3129 13.8391 23.9823 14.4327C24.6517 15.0264 25.0634 15.8575 25.1302 16.7498C25.049 17.5966 24.6458 18.38 24.0038 18.9382C23.3619 19.4965 22.5301 19.787 21.6802 19.7498C19.8602 19.7998 18.2802 18.5398 18.2602 17.0598ZM23.6202 17.2698C23.7602 16.8498 23.6202 15.9898 23.3602 15.8498C22.686 15.4291 21.8904 15.246 21.1002 15.3298C20.5502 15.4698 20.0202 16.3298 19.8002 16.9398C19.5802 17.5498 20.6002 18.3798 21.6602 18.3698C22.069 18.442 22.4903 18.3724 22.8541 18.1723C23.2178 17.9722 23.5023 17.6537 23.6602 17.2698H23.6202Z" fill="white"/>
<path d="M16.0101 36.6699C15.1877 36.6025 14.4168 36.2427 13.837 35.6556C13.2573 35.0685 12.9071 34.293 12.8501 33.4699C12.9022 32.7852 13.2078 32.1444 13.7071 31.6729C14.2063 31.2013 14.8635 30.9329 15.5501 30.9199C16.9001 30.9199 18.6601 31.7699 18.5501 33.7899C18.5801 34.1474 18.5374 34.5072 18.4248 34.8478C18.3121 35.1884 18.1317 35.5026 17.8944 35.7717C17.6571 36.0407 17.3678 36.259 17.044 36.4134C16.7202 36.5677 16.3685 36.655 16.0101 36.6699ZM15.5901 32.2199C15.2506 32.2485 14.931 32.3919 14.6838 32.6263C14.4366 32.8608 14.2766 33.1724 14.2301 33.5099C14.2859 33.9673 14.4919 34.3931 14.8159 34.7207C15.1398 35.0483 15.5634 35.2591 16.0201 35.3199C16.7901 35.3199 17.3001 34.6799 17.3001 33.7099C17.3001 32.7399 16.8701 32.2799 15.5901 32.2199V32.2199Z" fill="white"/>
<path d="M7.75015 32.1999C8.3324 32.2376 8.90708 32.0516 9.35683 31.6799C9.80658 31.3082 10.0975 30.7788 10.1702 30.1999C10.0693 29.6222 9.78886 29.0909 9.36879 28.6816C8.94872 28.2723 8.41034 28.0058 7.83015 27.9199C7.25404 27.9956 6.72228 28.2696 6.32626 28.6948C5.93025 29.12 5.69472 29.6699 5.66016 30.2499C5.69337 30.7805 5.92845 31.2782 6.31713 31.6408C6.70581 32.0035 7.21858 32.2035 7.75015 32.1999V32.1999Z" fill="white"/>
<path d="M21.8202 25.4999C22.9102 25.4999 23.5602 24.9299 23.5402 23.9999C23.5093 23.4441 23.2753 22.919 22.8826 22.5244C22.4899 22.1299 21.9659 21.8934 21.4102 21.8599C21.1757 21.8584 20.9434 21.9043 20.7271 21.9949C20.5108 22.0855 20.3151 22.2188 20.1516 22.3869C19.9882 22.5551 19.8604 22.7545 19.7759 22.9732C19.6915 23.192 19.6521 23.4256 19.6602 23.6599C19.6707 23.9263 19.7363 24.1876 19.8528 24.4274C19.9693 24.6671 20.1342 24.8802 20.3372 25.053C20.5401 25.2259 20.7767 25.3549 21.0319 25.4318C21.2872 25.5087 21.5556 25.5319 21.8202 25.4999V25.4999Z" fill="white"/>
<path d="M30.0498 15.0602C30.4998 14.7002 31.1798 14.4202 31.3398 13.9502C31.4665 13.3062 31.4391 12.6415 31.2598 12.0102C31.2008 11.9095 31.118 11.8249 31.0186 11.7638C30.9191 11.7028 30.8062 11.6672 30.6898 11.6602C30.025 11.7029 29.3723 11.8584 28.7598 12.1202C28.55 12.2431 28.3725 12.4143 28.2421 12.6195C28.1117 12.8247 28.032 13.058 28.0098 13.3002C28.1026 13.8061 28.3763 14.261 28.7798 14.5802C29.0198 14.8202 29.4898 14.8102 29.8598 14.9102L30.0498 15.0602Z" fill="white"/>
<path d="M1.60012 35.3499C2.70012 35.3499 3.45012 34.7099 3.42012 33.8099C3.41005 33.3745 3.23328 32.9596 2.92627 32.6507C2.61926 32.3419 2.20543 32.1626 1.77011 32.1499C1.30998 32.1783 0.876077 32.3739 0.550091 32.6999C0.224104 33.0259 0.0285059 33.4598 0.000110457 33.9199C-0.00988954 34.7999 0.660117 35.3499 1.60012 35.3499Z" fill="white"/>
<path d="M128.54 28.9201C127.997 28.5095 127.402 28.1732 126.77 27.9201L126.54 27.8301C125.54 27.9201 124.42 27.9101 123.37 27.9801C122.211 28.0189 121.067 28.2592 119.99 28.6901C119.99 28.7901 119.99 28.8901 119.99 28.9901H128.57C128.57 28.9901 128.55 28.9201 128.54 28.9201ZM121.08 26.0301C120.8 26.0301 120.51 26.1101 120.21 26.1701C120.21 26.2701 120.21 26.3701 120.16 26.4701L125.78 27.4701C124.25 26.8742 122.68 26.3896 121.08 26.0201V26.0301ZM160.96 34.0301C159 32.1827 156.584 30.8886 153.96 30.2801C153.17 30.0501 152.37 29.8301 151.57 29.6201L150.8 29.4101C150.957 29.2674 151.158 29.1827 151.37 29.1701C151.957 29.1386 152.541 29.0718 153.12 28.9701C155.073 28.6213 156.981 28.0579 158.81 27.2901V27.2901L159.66 26.9201C160.585 26.5298 161.445 26.0003 162.21 25.3501V25.3501L162.37 25.2101C164.47 23.3401 163.85 20.7301 161.19 19.8601C159.2 19.2167 157.069 19.144 155.04 19.6501C152.8 20.1701 150.58 20.7901 148.51 21.3301L151.25 18.8101C153.139 17.1836 154.709 15.2202 155.88 13.0201C156.237 12.4268 156.422 11.7455 156.413 11.053C156.404 10.3604 156.202 9.68407 155.83 9.1001C155.01 7.8901 153.74 7.9501 152.49 8.0401H152.35C149.715 8.50597 147.288 9.77365 145.4 11.6701C144.01 13.0301 142.83 14.6001 141.55 16.0801C141.42 16.2301 141.31 16.3801 141.19 16.5301C141.342 15.2973 141.569 14.075 141.87 12.8701C142.76 9.30188 142.43 5.53818 140.93 2.1801C140.765 1.72924 140.506 1.31862 140.17 0.97544C139.834 0.632257 139.429 0.36434 138.982 0.189433C138.535 0.0145253 138.055 -0.0633817 137.576 -0.0391307C137.096 -0.0148797 136.627 0.110976 136.2 0.330103C135.155 0.801446 134.271 1.57006 133.66 2.5401C132.554 4.07181 131.766 5.80937 131.341 7.65043C130.917 9.4915 130.866 11.3988 131.19 13.2601C131.499 14.7419 131.883 16.2071 132.34 17.6501V17.6501C132.311 17.6587 132.279 17.6587 132.25 17.6501C129.724 15.106 126.678 13.1378 123.32 11.8801C122.151 11.4386 120.909 11.2215 119.66 11.2401C119.102 11.2108 118.548 11.3378 118.058 11.6066C117.569 11.8755 117.164 12.2756 116.89 12.762C116.615 13.2484 116.482 13.8017 116.505 14.3596C116.528 14.9175 116.707 15.458 117.02 15.9201C117.374 16.6116 117.848 17.2346 118.42 17.7601C120.36 19.4101 122.42 20.9901 124.42 22.5801C124.79 22.8601 125.18 23.1201 125.55 23.3901C122.945 23.3023 120.347 23.6886 117.88 24.5301C117.291 24.696 116.718 24.917 116.17 25.1901C115.545 25.492 114.96 25.8716 114.43 26.3201C114.151 26.5492 113.89 26.8 113.65 27.0701C113.412 27.2812 113.222 27.542 113.095 27.8342C112.969 28.1263 112.907 28.4427 112.916 28.7611C112.924 29.0795 113.003 29.3921 113.145 29.677C113.287 29.9619 113.491 30.2121 113.74 30.4101C114.431 31.169 115.379 31.6461 116.4 31.7501C118.29 31.9101 120.2 32.0301 122.1 32.0501C123.74 32.0501 125.4 31.9001 127.1 31.8201C126.96 31.9101 126.89 31.9801 126.81 32.0201C124.207 33.4078 121.871 35.2463 119.91 37.4501C118.958 38.5216 118.297 39.8198 117.99 41.2201C117.47 43.5401 118.83 45.0501 121.2 44.8401C123.061 44.6271 124.823 43.8883 126.28 42.7101C128.28 41.2301 130.12 39.6501 132.12 38.0401C132.03 38.3001 132 38.5101 131.91 38.7001C131.042 40.8269 130.542 43.0857 130.43 45.3801C130.187 47.6239 130.583 49.8907 131.57 51.9201C131.777 52.422 132.105 52.8649 132.525 53.2093C132.944 53.5537 133.443 53.7889 133.976 53.8938C134.508 53.9988 135.059 53.9703 135.578 53.8108C136.097 53.6514 136.568 53.366 136.95 52.9801C137.468 52.5478 137.917 52.0386 138.28 51.4701C139.399 49.7135 140.11 47.728 140.36 45.6601C140.48 44.3501 140.56 43.0501 140.66 41.7201C140.73 41.7201 140.76 41.7201 140.77 41.7701L141.04 42.4401C141.956 44.9286 143.618 47.0731 145.8 48.5801C147.124 49.6423 148.691 50.3603 150.36 50.6701C150.629 50.7377 150.91 50.7439 151.182 50.6881C151.454 50.6324 151.71 50.5162 151.931 50.3481C152.152 50.18 152.332 49.9644 152.458 49.7172C152.584 49.47 152.653 49.1976 152.66 48.9201C152.876 47.5739 152.735 46.1945 152.25 44.9201C151.456 42.7427 150.38 40.6786 149.05 38.7801C148.918 38.577 148.798 38.3667 148.69 38.1501C150.75 39.4209 153.029 40.2959 155.41 40.7301C157.279 41.1554 159.228 41.0656 161.05 40.4701C161.433 40.3855 161.792 40.2138 162.099 39.9682C162.405 39.7227 162.651 39.41 162.817 39.0542C162.984 38.6985 163.066 38.3092 163.058 37.9166C163.049 37.524 162.951 37.1386 162.77 36.7901C162.331 35.7661 161.719 34.8256 160.96 34.0101V34.0301ZM156.88 20.6101C158.255 20.4599 159.646 20.6205 160.95 21.0801C162.56 21.6201 162.95 23.1401 161.67 24.2701C160.86 24.945 159.957 25.5007 158.99 25.9201L158.87 25.9801C157.039 26.811 155.105 27.3928 153.12 27.7101V27.7101C150.555 28.1026 147.965 28.2999 145.37 28.3001C144.66 28.3001 144.64 27.9401 144.72 27.4001C148.32 26.8701 152.05 26.9201 155.42 25.2401C152.93 24.7401 150.56 25.7501 148.08 25.6501C149.19 25.2501 150.3 24.8401 151.42 24.4701C152.54 24.1001 153.95 23.6801 155.2 23.2101C155.53 23.0801 155.77 22.6701 156.06 22.3901C155.677 22.2639 155.272 22.2163 154.87 22.2501C151.67 23.3201 148.49 24.4401 145.31 25.5501C144.99 25.6601 144.7 25.8001 144.31 25.9301L143.94 25.0401C144.5 24.7401 145.02 24.4401 145.56 24.1701C149.087 22.3043 152.922 21.0914 156.88 20.5901V20.6101ZM146.32 12.4901C147.92 10.9679 149.893 9.89508 152.04 9.3801C152.626 9.26823 153.224 9.23127 153.82 9.2701C153.992 9.26321 154.164 9.29171 154.325 9.35384C154.485 9.41597 154.632 9.51041 154.754 9.63132C154.877 9.75222 154.974 9.89703 155.039 10.0568C155.103 10.2165 155.134 10.3878 155.13 10.5601C155.133 11.2974 154.99 12.0281 154.71 12.7101C153.56 15.1001 151.63 16.8701 149.71 18.7101C147.644 20.6357 145.397 22.3571 143 23.8501C142.77 23.5801 142.55 23.3401 142.24 23.0001C143.17 22.2501 144.07 21.5001 144.98 20.7601C146.31 19.6601 147.66 18.5701 148.98 17.4301C149.22 17.2201 149.25 16.7901 149.39 16.4301C149.041 16.4815 148.704 16.5896 148.39 16.7501C147.19 17.5901 146.03 18.5001 144.78 19.3101C144.9 19.1601 145.01 19.0001 145.14 18.8601C145.87 18.0801 146.61 17.3201 147.32 16.5301C147.752 16.0767 148.15 15.592 148.51 15.0801C148.661 14.7656 148.756 14.4272 148.79 14.0801C148.471 14.1716 148.168 14.3098 147.89 14.4901C145.326 16.7605 142.982 19.2683 140.89 21.9801C140.69 21.9171 140.493 21.8437 140.3 21.7601C140.1 21.6901 139.9 21.6001 139.63 21.4801C140.09 20.7101 140.52 19.9601 140.97 19.2301C142.432 16.74 144.232 14.4649 146.32 12.4701V12.4901ZM142.98 30.4201C142.669 31.296 142.137 32.0771 141.437 32.6883C140.736 33.2995 139.89 33.7203 138.98 33.9101C138.301 34.0614 137.613 34.1716 136.92 34.2401C136.041 34.2958 135.161 34.1398 134.354 33.7851C133.547 33.4305 132.837 32.8875 132.284 32.2018C131.731 31.5161 131.35 30.7077 131.173 29.8444C130.997 28.981 131.03 28.088 131.27 27.2401C131.439 26.6924 131.73 26.1899 132.12 25.7701C132.83 25.0201 133.66 24.3901 134.41 23.6701C136.49 21.6701 140.59 22.7501 142.1 24.8501C142.702 25.6261 143.099 26.5418 143.253 27.5121C143.407 28.4824 143.313 29.4758 142.98 30.4001V30.4201ZM132.39 9.1201C132.603 7.03095 133.388 5.04111 134.66 3.3701C135.269 2.60041 136.023 1.95817 136.88 1.4801C137.146 1.32515 137.445 1.23383 137.752 1.21327C138.06 1.1927 138.368 1.24344 138.652 1.36154C138.937 1.47963 139.19 1.66189 139.393 1.89408C139.595 2.12627 139.742 2.40212 139.82 2.7001C141.201 5.71153 141.528 9.09994 140.75 12.3201C140.06 15.1501 139.23 17.9401 138.45 20.7501C138.32 21.2201 138.31 21.2201 137.55 21.0501C137.83 19.6401 138.2 18.2401 138.37 16.8201C138.62 14.6501 138.75 12.4601 138.89 10.2801C138.874 9.87909 138.803 9.48214 138.68 9.1001H138.41C138.3 9.7101 138.18 10.3201 138.08 10.9201C137.78 12.9201 137.477 14.9434 137.17 16.9901C137.133 17.221 137.025 17.4345 136.86 17.6001C136.45 15.6001 136.03 13.6001 135.62 11.5101C135.508 11.5358 135.394 11.5558 135.28 11.5701C134.71 14.8901 135.97 18.0401 136.28 21.2701L136.06 21.4501C135.85 21.1701 135.62 20.9101 135.43 20.6101C133.26 17.0701 131.75 13.3501 132.39 9.1001V9.1201ZM121.44 18.7901C120.332 17.7991 119.287 16.7404 118.31 15.6201C118.043 15.3316 117.872 14.9674 117.821 14.5778C117.77 14.1881 117.841 13.7922 118.024 13.4445C118.207 13.0968 118.494 12.8145 118.844 12.6364C119.194 12.4583 119.591 12.3932 119.98 12.4501C120.796 12.4635 121.606 12.6018 122.38 12.8601C126.566 14.3518 130.259 16.9716 133.05 20.4301C133.261 20.7213 133.442 21.0328 133.59 21.3601C134.06 22.2901 134.05 22.2901 133.06 22.8901C130.337 19.7954 127.078 17.2174 123.44 15.2801L123.2 15.5301C123.515 15.9534 123.866 16.3483 124.25 16.7101C125.64 17.8501 127.09 18.9401 128.51 20.0701L129.29 20.7401L123.95 19.0401L123.82 19.3301C124.331 19.6935 124.861 20.0274 125.41 20.3301C127.64 21.4601 129.89 22.5501 132.16 23.6701C131.73 24.4901 131.3 24.6701 130.53 24.3501C127.195 23.0409 124.117 21.1518 121.44 18.7701V18.7901ZM125.44 30.6301C122.563 30.9701 119.657 30.9701 116.78 30.6301C115.905 30.5396 115.091 30.1429 114.48 29.5101C113.96 28.9201 113.9 28.4401 114.48 27.9401C115.067 27.4284 115.689 26.9573 116.34 26.5301C116.631 26.344 116.939 26.1866 117.26 26.0601C117.71 25.8901 118.17 25.7201 118.62 25.5701C121.346 24.617 124.277 24.4098 127.11 24.9701C128.217 25.2752 129.305 25.6424 130.37 26.0701C130.18 26.6201 130.06 27.0101 129.92 27.4101C126.98 26.6401 124.09 25.6901 121.05 26.0801C120.77 26.0801 120.48 26.1601 120.18 26.2201C120.18 26.3201 120.18 26.4201 120.13 26.5201L125.75 27.5201L127.15 27.7701H126.51C125.51 27.8601 124.39 27.8501 123.34 27.9201C122.181 27.9589 121.037 28.1992 119.96 28.6301C119.96 28.7301 119.96 28.8301 119.96 28.9301H129.73C129.8 29.4801 129.85 29.8201 129.89 30.0801C128.4 30.2801 126.93 30.5201 125.46 30.6101L125.44 30.6301ZM125.29 41.7801C124.114 42.7638 122.667 43.367 121.14 43.5101C119.48 43.6501 118.85 42.9301 119.24 41.3001C119.591 39.9595 120.3 38.7394 121.29 37.7701C123.691 35.1338 126.664 33.0815 129.98 31.7701C130.124 31.7204 130.271 31.6803 130.42 31.6501L131.01 32.6501C128.3 34.4001 125.32 35.7701 123.26 38.4001C125.65 37.4601 127.69 35.9001 129.99 34.7401C129.28 35.4601 128.55 36.1601 127.85 36.8901C127.15 37.6201 126.43 38.4001 125.76 39.1901C125.078 39.947 124.557 40.8351 124.23 41.8001L124.54 42.0301L132.25 34.0301L133.25 34.7201C133.042 35.0416 132.804 35.3429 132.54 35.6201C130.18 37.6701 127.8 39.7801 125.31 41.7601L125.29 41.7801ZM138.88 46.7801C138.541 48.4114 137.859 49.9521 136.88 51.3001C136.643 51.6073 136.367 51.8829 136.06 52.1201C134.84 53.1201 133.47 52.9101 132.8 51.5001C132.226 50.3373 131.851 49.0867 131.69 47.8001C131.443 45.0509 131.809 42.2813 132.76 39.6901C133.19 38.4901 133.58 37.2601 134.07 36.0901C134.56 34.9201 134.54 35.0901 135.82 35.4601C135.41 36.8101 134.98 38.1201 134.63 39.4601C134.12 41.4601 133.63 43.3801 133.21 45.3501C133.107 45.8938 133.083 46.4496 133.14 47.0001C133.21 47.3776 133.321 47.7463 133.47 48.1001H133.65C134.377 45.1068 135.11 42.1068 135.85 39.1001H136.16C136.16 40.7901 136.11 42.4701 136.16 44.1501C136.232 45.0146 136.379 45.8712 136.6 46.7101C136.712 47.0312 136.871 47.3343 137.07 47.6101C137.137 47.5756 137.207 47.5488 137.28 47.5301V35.4801C137.67 35.4201 138.15 35.3601 138.78 35.2901C138.9 36.1301 139.03 36.9301 139.11 37.7301C139.501 40.7499 139.43 43.8116 138.9 46.8101L138.88 46.7801ZM151.02 45.0701C151.448 46.1769 151.609 47.3693 151.49 48.5501C151.42 49.3801 151.08 49.7101 150.3 49.4101C148.973 48.923 147.697 48.3067 146.49 47.5701C144.288 46.122 142.672 43.9389 141.93 41.4101C141.25 39.2701 140.73 37.1001 140.14 34.9201L140.81 34.5801C141.57 36.4201 142.3 38.2301 143.07 40.0201C143.67 41.4401 144.297 42.8534 144.95 44.2601C145.169 44.7118 145.437 45.1377 145.75 45.5301C145.87 45.7001 146.14 45.7401 146.34 45.8301C146.34 45.6101 146.48 45.3601 146.42 45.1801C146.03 44.1201 145.62 43.0701 145.17 42.0301C144.5 40.4701 143.8 38.9401 143.11 37.4001C143.021 37.2062 142.997 36.9889 143.04 36.7801C143.42 37.2201 143.8 37.6501 144.16 38.0901C145.34 39.5301 146.5 40.9801 147.71 42.3901C148.069 42.7426 148.469 43.0514 148.9 43.3101L149.15 43.1101C149.041 42.7967 148.9 42.4952 148.73 42.2101C147.34 40.4001 145.93 38.5901 144.5 36.8001C143.71 35.8001 142.86 34.8001 142 33.8501L143 32.9201C144.3 34.5601 145.67 36.1201 146.87 37.7901C148.591 40.0227 149.994 42.4827 151.04 45.1001L151.02 45.0701ZM160.66 39.3601C159.502 39.6823 158.301 39.824 157.1 39.7801C153.782 39.5797 150.621 38.2976 148.1 36.1301L143.66 32.2301L143.94 31.7701C149.47 35.5801 152.38 37.1101 153.83 36.7701C153.622 36.5065 153.384 36.2682 153.12 36.0601C151.58 35.1701 150.03 34.3001 148.48 33.4201C148.041 33.1728 147.62 32.8954 147.22 32.5901C149.8 33.2001 152.3 34.2001 155 33.9501C155.021 33.8617 155.047 33.7749 155.08 33.6901C154.754 33.5391 154.42 33.4056 154.08 33.2901C152.08 32.7501 150.08 32.2901 148.08 31.6901C146.88 31.3401 145.72 30.8701 144.5 30.4201L144.68 29.6201C147.975 29.8519 151.224 30.5245 154.34 31.6201C156.55 32.1747 158.572 33.3067 160.2 34.9001C160.809 35.5969 161.302 36.387 161.66 37.2401C161.793 37.4358 161.873 37.6629 161.892 37.8989C161.91 38.135 161.867 38.3718 161.766 38.586C161.665 38.8001 161.51 38.9842 161.316 39.12C161.122 39.2557 160.896 39.3385 160.66 39.3601V39.3601ZM121.08 26.0201C120.8 26.0201 120.51 26.1001 120.21 26.1601C120.21 26.2601 120.21 26.3601 120.16 26.4601L125.78 27.4601C124.25 26.8676 122.679 26.3864 121.08 26.0201ZM128.54 28.9201C127.997 28.5095 127.402 28.1732 126.77 27.9201L126.54 27.8301C125.54 27.9201 124.42 27.9101 123.37 27.9801C122.211 28.0189 121.067 28.2592 119.99 28.6901C119.99 28.7901 119.99 28.8901 119.99 28.9901H128.57C128.57 28.9901 128.55 28.9201 128.54 28.9201Z" fill="white"/>
<path d="M134.09 27.9202C133.921 27.9203 133.754 27.8864 133.599 27.8206C133.443 27.7548 133.302 27.6584 133.185 27.5371C133.067 27.4159 132.975 27.2722 132.914 27.1147C132.853 26.9572 132.825 26.789 132.83 26.6202C132.86 26.2577 133.026 25.9198 133.293 25.6735C133.561 25.4272 133.911 25.2905 134.275 25.2905C134.639 25.2905 134.989 25.4272 135.257 25.6735C135.525 25.9198 135.69 26.2577 135.72 26.6202C135.668 27.0049 135.469 27.3546 135.166 27.5967C134.862 27.8388 134.477 27.9546 134.09 27.9202V27.9202Z" fill="white"/>
<path d="M138.66 26.4002C138.497 26.4128 138.334 26.3912 138.18 26.3368C138.026 26.2824 137.885 26.1964 137.767 26.0843C137.648 25.9722 137.554 25.8365 137.491 25.686C137.428 25.5355 137.397 25.3734 137.4 25.2102C137.401 25.0299 137.439 24.8516 137.509 24.6858C137.58 24.52 137.683 24.3699 137.813 24.2443C137.942 24.1186 138.095 24.02 138.263 23.9541C138.431 23.8881 138.61 23.8562 138.79 23.8602C139.153 23.8729 139.497 24.024 139.752 24.2825C140.007 24.541 140.153 24.8873 140.16 25.2502C140.108 25.5989 139.922 25.9138 139.643 26.1284C139.363 26.3429 139.01 26.4404 138.66 26.4002Z" fill="white"/>
<path d="M134.42 29.6101C134.737 29.5992 135.045 29.7141 135.277 29.9295C135.509 30.145 135.647 30.4435 135.66 30.7601C135.653 31.0769 135.524 31.3789 135.301 31.6039C135.078 31.8289 134.777 31.9599 134.46 31.9701C134.309 31.9799 134.157 31.958 134.014 31.9057C133.872 31.8534 133.742 31.7719 133.633 31.6665C133.523 31.5611 133.437 31.434 133.38 31.2934C133.323 31.1528 133.296 31.0018 133.3 30.8501C133.282 30.6929 133.297 30.5336 133.345 30.3829C133.393 30.2321 133.473 30.0934 133.579 29.9759C133.685 29.8585 133.815 29.7651 133.96 29.702C134.105 29.6389 134.262 29.6076 134.42 29.6101V29.6101Z" fill="white"/>
<path d="M139.79 31.58C139.793 31.8902 139.678 32.1902 139.468 32.4187C139.258 32.6472 138.969 32.7871 138.66 32.81C138.356 32.7919 138.073 32.6545 137.87 32.4278C137.668 32.201 137.563 31.9034 137.58 31.6C137.581 31.4437 137.613 31.2892 137.674 31.1453C137.735 31.0014 137.824 30.871 137.935 30.7614C138.047 30.6519 138.179 30.5653 138.324 30.5067C138.469 30.4481 138.624 30.4186 138.78 30.42C138.923 30.4275 139.063 30.4638 139.192 30.5266C139.321 30.5895 139.436 30.6776 139.531 30.7859C139.625 30.8941 139.696 31.0202 139.741 31.1566C139.785 31.293 139.802 31.437 139.79 31.58V31.58Z" fill="white"/>
<path d="M141.51 26.85C141.658 26.8375 141.806 26.8559 141.946 26.9041C142.086 26.9524 142.214 27.0294 142.322 27.1302C142.431 27.2309 142.517 27.3533 142.575 27.4893C142.633 27.6254 142.662 27.7721 142.66 27.92C142.663 28.0701 142.635 28.2192 142.58 28.3586C142.524 28.498 142.441 28.625 142.336 28.732C142.231 28.8391 142.106 28.9241 141.967 28.9821C141.829 29.0402 141.68 29.0701 141.53 29.07C141.38 29.0853 141.228 29.0691 141.084 29.0225C140.94 28.9758 140.807 28.8998 140.695 28.7992C140.582 28.6985 140.491 28.5755 140.428 28.4379C140.366 28.3004 140.332 28.1512 140.33 28C140.354 27.6979 140.487 27.4146 140.704 27.2031C140.921 26.9915 141.207 26.8661 141.51 26.85V26.85Z" fill="white"/>
<path d="M137.46 27.7799C138.02 27.8399 138.38 28.0999 138.4 28.6799C138.4 28.9451 138.295 29.1994 138.107 29.387C137.92 29.5745 137.665 29.6799 137.4 29.6799C137.276 29.681 137.153 29.6543 137.041 29.6018C136.929 29.5492 136.829 29.4721 136.751 29.3762C136.672 29.2803 136.616 29.1679 136.586 29.0474C136.557 28.9269 136.555 28.8013 136.58 28.6799C136.573 28.5616 136.591 28.4431 136.632 28.332C136.674 28.221 136.738 28.1198 136.821 28.035C136.904 27.9503 137.003 27.8838 137.113 27.8399C137.224 27.7959 137.342 27.7755 137.46 27.7799V27.7799Z" fill="white"/>
</g>
<defs>
<clipPath id="clip0_373_88">
<rect width="279.23" height="63.19" fill="white"/>
</clipPath>
</defs>
</svg>
