<svg width="1440" height="259" viewBox="0 0 1440 259" fill="none" xmlns="http://www.w3.org/2000/svg">
<path d="M1440 256.723H0V0C0 0 225 187.9 396.5 106.174C568 24.4494 566 167.003 717 162.562C775.604 160.838 903 49.7871 1025 106.174C1147 162.562 1440 0 1440 0V256.723Z" fill="url(#paint0_linear_733_125)"/>
<path d="M1440 258.5H0V0.888428C0 0.888428 255.851 285.037 436.425 107.43C617 -70.1769 631.295 180.344 797.5 175.887C862.005 174.157 983.715 -7.72495 1118 48.8575C1252.28 105.44 1440 0.888428 1440 0.888428V258.5Z" fill="url(#paint1_linear_733_125)"/>
<defs>
<linearGradient id="paint0_linear_733_125" x1="720" y1="0" x2="720" y2="256.723" gradientUnits="userSpaceOnUse">
<stop stop-color="white" stop-opacity="0"/>
<stop offset="0.53125" stop-color="white" stop-opacity="0.5"/>
<stop offset="1" stop-color="white"/>
</linearGradient>
<linearGradient id="paint1_linear_733_125" x1="792.5" y1="0.888428" x2="792.5" y2="258.5" gradientUnits="userSpaceOnUse">
<stop stop-color="white" stop-opacity="0"/>
<stop offset="0.53125" stop-color="white" stop-opacity="0.5"/>
<stop offset="1" stop-color="white"/>
</linearGradient>
</defs>
</svg>
