<svg width="1440" height="100" viewBox="0 0 1440 100" fill="none" xmlns="http://www.w3.org/2000/svg">
<path d="M1440 99.3128H0V0C0 0 225 72.6884 396.5 41.0733C568 9.45819 566 64.6048 717 62.8866C775.604 62.2198 903 19.26 1025 41.0733C1147 62.8866 1440 0 1440 0V99.3128Z" fill="url(#paint0_linear_647_337)"/>
<path d="M1440 100H0V0.34375C0 0.34375 255.851 110.266 436.425 41.5592C617 -27.1477 631.295 69.7655 797.5 68.0413C862.005 67.3722 983.715 -2.98831 1118 18.9005C1252.28 40.7892 1440 0.34375 1440 0.34375V100Z" fill="url(#paint1_linear_647_337)"/>
<defs>
<linearGradient id="paint0_linear_647_337" x1="720" y1="0" x2="720" y2="99.3128" gradientUnits="userSpaceOnUse">
<stop stop-color="white" stop-opacity="0"/>
<stop offset="0.53125" stop-color="white" stop-opacity="0.5"/>
<stop offset="1" stop-color="white"/>
</linearGradient>
<linearGradient id="paint1_linear_647_337" x1="792.5" y1="0.34375" x2="792.5" y2="100" gradientUnits="userSpaceOnUse">
<stop stop-color="white" stop-opacity="0"/>
<stop offset="0.53125" stop-color="white" stop-opacity="0.5"/>
<stop offset="1" stop-color="white"/>
</linearGradient>
</defs>
</svg>
