<svg width="133" height="132" viewBox="0 0 133 132" fill="none" xmlns="http://www.w3.org/2000/svg">
<path d="M67 124C99.0325 124 125 98.0325 125 66C125 33.9675 99.0325 8 67 8C34.9675 8 9 33.9675 9 66C9 98.0325 34.9675 124 67 124Z" fill="#F5EBD8"/>
<path d="M84.4778 41.0544C79.5241 45.8644 72.8935 48.5587 65.9888 48.5672C72.8662 48.4934 79.4524 45.7806 84.3867 40.9893L84.4778 41.0544Z" fill="white" stroke="#A77D31" stroke-linecap="round" stroke-linejoin="round"/>
<path d="M101.105 54.3087C101.105 57.9414 99.5035 60.884 97.5244 60.884C97.2894 60.8842 97.0561 60.8445 96.8343 60.7668C95.5323 68.5791 91.3136 75.1544 85.6888 78.5398C83.0335 80.1784 79.9747 81.0462 76.8544 81.0462C73.7342 81.0462 70.6754 80.1784 68.0201 78.5398C62.3822 75.1544 58.1896 68.6312 56.8615 60.7799C56.6443 60.8576 56.4152 60.8972 56.1845 60.897C54.2054 60.897 52.5908 57.9544 52.5908 54.3217C52.5908 50.689 54.2054 47.8115 56.1845 47.8115C56.577 47.8698 56.9726 47.9046 57.3693 47.9157C59.5963 48.3568 61.8573 48.6051 64.1269 48.6578C64.7649 48.6578 65.429 48.6578 65.9889 48.6578C72.8936 48.6493 79.5242 45.9551 84.4779 41.145C85.3763 41.8351 90.4543 47.1344 96.3005 47.7855C96.3005 47.9026 97.1338 47.7855 97.5244 47.7855C99.5035 47.7334 101.105 50.676 101.105 54.3087Z" fill="#E8CE9E" stroke="#A77D31" stroke-linecap="round" stroke-linejoin="round"/>
<path d="M85.6888 78.5404V91.9514H68.02V78.5273C70.6754 80.166 73.7341 81.0338 76.8544 81.0338C79.9746 81.0338 83.0334 80.166 85.6888 78.5273V78.5404Z" fill="#E8CE9E"/>
<path d="M85.6888 78.5404V91.9514H68.02V78.5273C70.6754 80.166 73.7341 81.0338 76.8544 81.0338C79.9746 81.0338 83.0334 80.166 85.6888 78.5273V78.5404Z" stroke="#A77D31" stroke-linecap="round" stroke-linejoin="round"/>
<path d="M96.7562 41.3407V47.7207H96.4958C90.3632 47.0306 85.0769 41.2105 84.5691 41.0152L84.478 41.0803C79.5243 45.8903 72.8936 48.5846 65.9889 48.5931C65.39 48.5931 64.765 48.5931 64.127 48.5931C61.9403 48.524 59.7629 48.2757 57.6168 47.8509L57.0178 47.7337V41.3407C57.0052 39.1817 57.4862 37.0485 58.424 35.1039C60.4552 31.0285 65.2728 25.3125 76.4313 25H77.4209C88.2018 25.2995 93.0454 30.6509 95.2068 34.7002C96.2587 36.7536 96.7908 39.0338 96.7562 41.3407V41.3407Z" fill="#D19D3E" stroke="#A77D31" stroke-linecap="round" stroke-linejoin="round"/>
<path d="M96.9644 29.7529C99.3562 33.6434 100.223 38.2815 99.3992 42.7734" stroke="#A77D31" stroke-linecap="round" stroke-linejoin="round"/>
<path d="M54.4268 66.8872C54.7185 69.4608 55.5688 71.9395 56.9181 74.1503C58.2675 76.361 60.0835 78.2504 62.239 79.6863" stroke="#A77D31" stroke-linecap="round" stroke-linejoin="round"/>
<path d="M96.8603 70.1162C95.5136 74.4238 92.8889 78.2201 89.3345 81.0013" stroke="#A77D31" stroke-linecap="round" stroke-linejoin="round"/>
<path d="M102.212 31.6929C102.576 33.9584 102.928 36.237 103.293 38.5026Z" fill="white"/>
<path d="M102.212 31.6929C102.576 33.9584 102.928 36.237 103.293 38.5026" stroke="#A77D31" stroke-linecap="round" stroke-linejoin="round"/>
<path d="M60.1168 26.4326C58.1417 27.964 56.6072 29.9911 55.6696 32.3078C54.7319 34.6246 54.4244 37.1483 54.7784 39.6223" stroke="#A77D31" stroke-linecap="round" stroke-linejoin="round"/>
<path d="M63.8403 43.4893C66.5883 43.7126 69.3505 43.2936 71.9086 42.2654C74.4667 41.2372 76.7505 39.628 78.5795 37.5649" fill="#D19D3E"/>
<path d="M63.8403 43.4893C66.5883 43.7126 69.3505 43.2936 71.9086 42.2654C74.4667 41.2372 76.7505 39.628 78.5795 37.5649" stroke="#A77D31" stroke-linecap="round" stroke-linejoin="round"/>
<path d="M47.6707 73.0343C47.6699 74.4826 47.28 75.9041 46.542 77.1502C45.8039 78.3963 44.7447 79.4213 43.475 80.118C42.2053 80.8148 40.7718 81.1577 39.3243 81.1109C37.8767 81.0641 36.4683 80.6294 35.2463 79.8522C34.0242 79.075 33.0334 77.9837 32.3773 76.6926C31.7211 75.4014 31.4239 73.9578 31.5166 72.5125C31.6092 71.0671 32.0884 69.6732 32.904 68.4764C33.7197 67.2797 34.8418 66.3239 36.1531 65.7091V41.5683C36.1531 40.6702 36.5099 39.8089 37.1449 39.1739C37.7799 38.5389 38.6412 38.1821 39.5393 38.1821C40.4373 38.1821 41.2986 38.5389 41.9336 39.1739C42.5687 39.8089 42.9254 40.6702 42.9254 41.5683V65.7091C44.3378 66.3435 45.5369 67.3722 46.3786 68.6717C47.2204 69.9711 47.6691 71.486 47.6707 73.0343V73.0343Z" fill="#E8CE9E" stroke="#A77D31" stroke-linecap="round" stroke-linejoin="round"/>
<path d="M39.5391 46.7056H42.6719" stroke="#A77D31" stroke-linecap="round" stroke-linejoin="round"/>
<path d="M36.5908 52.0039H39.0556" stroke="#A77D31" stroke-linecap="round" stroke-linejoin="round"/>
<path d="M48.5255 101.659C49.2566 101.659 49.8366 101.88 50.2655 102.323C50.7013 102.766 50.9193 103.381 50.9193 104.169V107.606H49.1265V104.411C49.1265 104.032 49.0246 103.74 48.8207 103.536C48.6239 103.325 48.3497 103.22 47.9982 103.22C47.6467 103.22 47.369 103.325 47.1651 103.536C46.9682 103.74 46.8698 104.032 46.8698 104.411V107.606H45.0771V104.411C45.0771 104.032 44.9752 103.74 44.7713 103.536C44.5744 103.325 44.3002 103.22 43.9487 103.22C43.5972 103.22 43.3195 103.325 43.1156 103.536C42.9188 103.74 42.8204 104.032 42.8204 104.411V107.606H41.0171V101.722H42.8204V102.46C43.0032 102.214 43.2422 102.021 43.5375 101.88C43.8327 101.733 44.1667 101.659 44.5393 101.659C44.9822 101.659 45.3759 101.754 45.7204 101.944C46.0719 102.133 46.3461 102.404 46.5429 102.756C46.7468 102.432 47.0245 102.169 47.376 101.965C47.7275 101.761 48.1107 101.659 48.5255 101.659Z" fill="#A77D31"/>
<path d="M51.8219 104.654C51.8219 104.049 51.9344 103.518 52.1594 103.061C52.3914 102.604 52.7042 102.253 53.0979 102.007C53.4916 101.761 53.931 101.638 54.4161 101.638C54.8309 101.638 55.1929 101.722 55.5023 101.891C55.8186 102.06 56.0612 102.281 56.2299 102.555V101.722H58.0332V107.606H56.2299V106.773C56.0541 107.048 55.8081 107.269 55.4917 107.438C55.1824 107.606 54.8203 107.691 54.4055 107.691C53.9275 107.691 53.4916 107.568 53.0979 107.322C52.7042 107.069 52.3914 106.714 52.1594 106.257C51.9344 105.793 51.8219 105.258 51.8219 104.654ZM56.2299 104.664C56.2299 104.214 56.1034 103.859 55.8503 103.599C55.6042 103.339 55.3019 103.209 54.9434 103.209C54.5848 103.209 54.279 103.339 54.0259 103.599C53.7798 103.852 53.6568 104.204 53.6568 104.654C53.6568 105.104 53.7798 105.462 54.0259 105.729C54.279 105.989 54.5848 106.12 54.9434 106.12C55.3019 106.12 55.6042 105.989 55.8503 105.729C56.1034 105.469 56.2299 105.114 56.2299 104.664Z" fill="#A77D31"/>
<path d="M62.8178 107.606L61.6894 105.972L60.7403 107.606H58.7894L60.7298 104.601L58.7367 101.722H60.7614L61.8898 103.346L62.8388 101.722H64.7898L62.8178 104.685L64.8425 107.606H62.8178Z" fill="#A77D31"/>
<path d="M67.6561 102.081C67.6842 101.328 67.9302 100.748 68.3942 100.341C68.8582 99.9329 69.4875 99.729 70.2819 99.729C70.8092 99.729 71.2591 99.8204 71.6317 100.003C72.0113 100.186 72.2961 100.436 72.4859 100.752C72.6827 101.068 72.7812 101.423 72.7812 101.817C72.7812 102.281 72.6652 102.661 72.4332 102.956C72.2012 103.244 71.9305 103.441 71.6212 103.546V103.589C72.0219 103.722 72.3382 103.944 72.5702 104.253C72.8022 104.562 72.9182 104.96 72.9182 105.445C72.9182 105.881 72.8163 106.267 72.6124 106.605C72.4156 106.935 72.1238 107.195 71.7372 107.385C71.3575 107.575 70.9041 107.67 70.3768 107.67C69.5332 107.67 68.8582 107.462 68.3521 107.048C67.8529 106.633 67.5893 106.007 67.5612 105.17H69.3117C69.3187 105.48 69.4066 105.726 69.5753 105.909C69.7441 106.084 69.9901 106.172 70.3135 106.172C70.5877 106.172 70.7986 106.095 70.9462 105.94C71.1009 105.779 71.1782 105.568 71.1782 105.308C71.1782 104.97 71.0693 104.728 70.8513 104.58C70.6404 104.425 70.2995 104.348 69.8284 104.348H69.491V102.882H69.8284C70.187 102.882 70.4752 102.822 70.6932 102.703C70.9181 102.576 71.0306 102.355 71.0306 102.038C71.0306 101.785 70.9603 101.589 70.8197 101.448C70.6791 101.307 70.4858 101.237 70.2397 101.237C69.9725 101.237 69.7722 101.318 69.6386 101.48C69.5121 101.641 69.4382 101.842 69.4172 102.081H67.6561Z" fill="#A77D31"/>
<path d="M78.8919 101.258L76.245 107.606H74.3996L77.0781 101.458H73.7985V99.9188H78.8919V101.258Z" fill="#A77D31"/>
<path d="M79.4103 102.028C79.4103 101.444 79.6107 100.984 80.0114 100.646C80.4121 100.302 80.9394 100.13 81.5932 100.13C82.247 100.13 82.7708 100.302 83.1645 100.646C83.5652 100.984 83.7656 101.444 83.7656 102.028C83.7656 102.611 83.5652 103.079 83.1645 103.43C82.7708 103.775 82.2505 103.947 81.6037 103.947C81.1749 103.947 80.7953 103.87 80.4648 103.715C80.1344 103.553 79.8743 103.329 79.6845 103.04C79.5017 102.752 79.4103 102.415 79.4103 102.028ZM82.3736 102.038C82.3736 101.736 82.2962 101.504 82.1416 101.342C81.9869 101.181 81.8041 101.1 81.5932 101.1C81.3753 101.1 81.189 101.181 81.0343 101.342C80.8796 101.504 80.8023 101.736 80.8023 102.038C80.8023 102.341 80.8796 102.573 81.0343 102.734C81.196 102.889 81.3858 102.966 81.6037 102.966C81.8147 102.966 81.9939 102.889 82.1416 102.734C82.2962 102.573 82.3736 102.341 82.3736 102.038Z" fill="#A77D31"/>
<path d="M84.376 103.894C84.376 103.163 84.5342 102.513 84.8506 101.944C85.167 101.367 85.6063 100.921 86.1688 100.604C86.7382 100.281 87.3815 100.119 88.0986 100.119C88.9774 100.119 89.7296 100.351 90.3553 100.815C90.981 101.279 91.3993 101.912 91.6102 102.713H89.6277C89.48 102.404 89.2691 102.169 88.995 102.007C88.7278 101.845 88.422 101.764 88.0775 101.764C87.5221 101.764 87.0722 101.958 86.7277 102.344C86.3832 102.731 86.211 103.248 86.211 103.894C86.211 104.541 86.3832 105.058 86.7277 105.445C87.0722 105.831 87.5221 106.025 88.0775 106.025C88.422 106.025 88.7278 105.944 88.995 105.782C89.2691 105.62 89.48 105.385 89.6277 105.076H91.6102C91.3993 105.877 90.981 106.51 90.3553 106.974C89.7296 107.431 88.9774 107.659 88.0986 107.659C87.3815 107.659 86.7382 107.501 86.1688 107.185C85.6063 106.861 85.167 106.415 84.8506 105.845C84.5342 105.276 84.376 104.626 84.376 103.894Z" fill="#A77D31"/>
</svg>
