<svg width="132" height="132" viewBox="0 0 132 132" fill="none" xmlns="http://www.w3.org/2000/svg">
<circle cx="66" cy="66" r="66" fill="#F5EBD8"/>
<path d="M63.4764 13.1427C52.5403 24.1521 32.4804 31.925 25.5348 34.3903C24.8174 34.6444 24.1965 35.1149 23.7579 35.737C23.3194 36.3591 23.0847 37.1019 23.0864 37.863V70.2944C23.0864 86.4256 32.3565 101.51 47.8518 110.639L64.2813 119.971C64.8365 120.289 65.4652 120.457 66.1049 120.457C66.7447 120.457 67.3734 120.289 67.9286 119.971L84.3525 110.639C99.8533 101.521 109.118 86.4369 109.118 70.2944V37.8405C109.119 37.0847 108.888 36.3468 108.455 35.7274C108.021 35.108 107.408 34.6371 106.698 34.379C99.7351 31.8406 79.4444 23.8369 68.7334 13.1427C68.3896 12.7952 67.9802 12.5194 67.529 12.3311C67.0778 12.1428 66.5938 12.0459 66.1049 12.0459C65.6161 12.0459 65.132 12.1428 64.6808 12.3311C64.2297 12.5194 63.8203 12.7952 63.4764 13.1427Z" fill="#E8CE9E"/>
<path d="M66.1045 18.9004C76.157 29.9885 97.4214 37.9416 102.69 39.7877V69.7763C102.69 83.5267 94.7647 96.399 81.5096 104.194L66.1045 112.947L50.7275 104.206C37.4555 96.399 29.525 83.5267 29.525 69.7763V39.799C34.782 38.0091 55.765 30.3375 66.1101 18.9004H66.1045ZM66.1101 16.2944C55.416 29.8028 27.8364 38.5832 27.8364 38.5832V69.7763C27.8364 84.1233 36.0822 97.5528 49.8719 105.663L66.1045 114.889L82.337 105.663C96.1268 97.5528 104.373 84.1233 104.373 69.7763V38.5832C104.373 38.5832 76.3596 29.3187 66.0989 16.2944H66.1101Z" fill="#A77D31"/>
<path d="M70.0282 88.0017H61.7937C61.5798 88.0017 59.1934 81.6978 59.1934 81.3826L59.2665 44.1952C59.2665 44.0459 59.3258 43.9027 59.4314 43.7972C59.5369 43.6916 59.6801 43.6323 59.8294 43.6323H71.9869C72.1362 43.6323 72.2793 43.6916 72.3849 43.7972C72.4904 43.9027 72.5497 44.0459 72.5497 44.1952L72.4766 81.3826C72.4822 81.6752 70.2421 88.0017 70.0282 88.0017Z" fill="#A77D31"/>
<path d="M68.6771 32.9214H63.1499V44.2234H68.6771V32.9214Z" fill="#A77D31"/>
<path d="M67.276 74.4199H64.5518C64.4151 74.4199 64.3042 74.5308 64.3042 74.6676V92.4086C64.3042 92.5453 64.4151 92.6562 64.5518 92.6562H67.276C67.4128 92.6562 67.5237 92.5453 67.5237 92.4086V74.6676C67.5237 74.5308 67.4128 74.4199 67.276 74.4199Z" fill="#A77D31"/>
<path d="M66.4881 91.0132H65.3398V106.632H66.4881V91.0132Z" fill="#A77D31"/>
<path d="M72.555 32.9213C72.555 34.1652 69.5831 35.1727 65.9134 35.1727C62.2436 35.1727 59.2661 34.1596 59.2661 32.9213C59.2661 31.683 62.2436 30.6699 65.9134 30.6699C69.5831 30.6699 72.555 31.6774 72.555 32.9213Z" fill="#A77D31"/>
<path d="M70.2642 49.7446H61.5626C61.3791 49.7446 61.2305 49.8933 61.2305 50.0767V81.5118C61.2305 81.6952 61.3791 81.8439 61.5626 81.8439H70.2642C70.4476 81.8439 70.5963 81.6952 70.5963 81.5118V50.0767C70.5963 49.8933 70.4476 49.7446 70.2642 49.7446Z" fill="#E8CE9E"/>
<path d="M71.1534 53.4819H64.7031V54.0448H71.1534V53.4819Z" fill="#A77D31"/>
<path d="M71.0577 59.7637H64.6074V60.3265H71.0577V59.7637Z" fill="#A77D31"/>
<path d="M70.9566 66.0449H64.5063V66.6078H70.9566V66.0449Z" fill="#A77D31"/>
<path d="M70.8555 72.3262H64.4053V72.889H70.8555V72.3262Z" fill="#A77D31"/>
<path d="M70.7544 78.6074H64.3042V79.1703H70.7544V78.6074Z" fill="#A77D31"/>
<path d="M87.0874 50.5831C86.9002 49.7667 86.4867 49.0194 85.8944 48.4271C85.3021 47.8348 84.5549 47.4214 83.7384 47.2342C83.7146 47.2266 83.6937 47.2115 83.679 47.1913C83.6642 47.1711 83.6563 47.1467 83.6562 47.1216C83.6563 47.0966 83.6642 47.0722 83.679 47.0519C83.6937 47.0317 83.7146 47.0167 83.7384 47.0091C84.5585 46.8197 85.3082 46.4021 85.9009 45.8044C86.4935 45.2068 86.9049 44.4536 87.0874 43.632C87.095 43.6081 87.11 43.5873 87.1302 43.5725C87.1505 43.5578 87.1749 43.5498 87.1999 43.5498C87.225 43.5498 87.2494 43.5578 87.2696 43.5725C87.2898 43.5873 87.3049 43.6081 87.3125 43.632C87.4971 44.4572 87.9127 45.213 88.5106 45.8109C89.1086 46.4089 89.8643 46.8244 90.6896 47.0091C90.7134 47.0167 90.7343 47.0317 90.749 47.0519C90.7638 47.0722 90.7717 47.0966 90.7717 47.1216C90.7717 47.1467 90.7638 47.1711 90.749 47.1913C90.7343 47.2115 90.7134 47.2266 90.6896 47.2342C89.8679 47.4167 89.1147 47.828 88.5171 48.4207C87.9195 49.0133 87.5018 49.763 87.3125 50.5831C87.3049 50.607 87.2898 50.6278 87.2696 50.6426C87.2494 50.6573 87.225 50.6653 87.1999 50.6653C87.1749 50.6653 87.1505 50.6573 87.1302 50.6426C87.11 50.6278 87.095 50.607 87.0874 50.5831Z" fill="#A77D31"/>
<path d="M45.0372 50.5837C44.85 49.7672 44.4366 49.02 43.8443 48.4276C43.252 47.8353 42.5047 47.4219 41.6883 47.2347C41.6584 47.2347 41.6298 47.2228 41.6087 47.2017C41.5875 47.1806 41.5757 47.152 41.5757 47.1221C41.5757 47.0923 41.5875 47.0636 41.6087 47.0425C41.6298 47.0214 41.6584 47.0096 41.6883 47.0096C42.5083 46.8202 43.2581 46.4026 43.8507 45.805C44.4434 45.2073 44.8547 44.4541 45.0372 43.6325C45.0429 43.6076 45.0568 43.5854 45.0768 43.5695C45.0967 43.5536 45.1214 43.5449 45.147 43.5449C45.1725 43.5449 45.1972 43.5536 45.2172 43.5695C45.2371 43.5854 45.251 43.6076 45.2567 43.6325C45.4463 44.4554 45.8635 45.2085 46.4606 45.8056C47.0578 46.4028 47.8108 46.82 48.6338 47.0096C48.6637 47.0096 48.6923 47.0214 48.7134 47.0425C48.7345 47.0636 48.7464 47.0923 48.7464 47.1221C48.7464 47.152 48.7345 47.1806 48.7134 47.2017C48.6923 47.2228 48.6637 47.2347 48.6338 47.2347C47.8144 47.4221 47.0639 47.8351 46.467 48.4269C45.8702 49.0188 45.4509 49.7659 45.2567 50.5837C45.251 50.6085 45.2371 50.6307 45.2172 50.6466C45.1972 50.6625 45.1725 50.6712 45.147 50.6712C45.1214 50.6712 45.0967 50.6625 45.0768 50.6466C45.0568 50.6307 45.0429 50.6085 45.0372 50.5837Z" fill="#A77D31"/>
<path d="M87.0874 89.8027C86.9002 88.9863 86.4868 88.239 85.8945 87.6467C85.3021 87.0544 84.5549 86.641 83.7384 86.4538C83.7136 86.4481 83.6914 86.4342 83.6755 86.4142C83.6595 86.3943 83.6509 86.3695 83.6509 86.344C83.6509 86.3185 83.6595 86.2938 83.6755 86.2738C83.6914 86.2539 83.7136 86.24 83.7384 86.2343C84.5579 86.0437 85.307 85.6257 85.8995 85.0282C86.4919 84.4308 86.9037 83.6783 87.0874 82.8572C87.0874 82.8273 87.0992 82.7987 87.1204 82.7776C87.1415 82.7565 87.1701 82.7446 87.2 82.7446C87.2298 82.7446 87.2584 82.7565 87.2796 82.7776C87.3007 82.7987 87.3125 82.8273 87.3125 82.8572C87.4984 83.6819 87.9143 84.4369 88.5121 85.0347C89.1099 85.6325 89.8649 86.0484 90.6896 86.2343C90.7145 86.24 90.7367 86.2539 90.7526 86.2738C90.7685 86.2938 90.7772 86.3185 90.7772 86.344C90.7772 86.3695 90.7685 86.3943 90.7526 86.4142C90.7367 86.4342 90.7145 86.4481 90.6896 86.4538C89.868 86.6363 89.1148 87.0476 88.5171 87.6403C87.9195 88.2329 87.5019 88.9827 87.3125 89.8027C87.3125 89.8326 87.3007 89.8612 87.2796 89.8823C87.2584 89.9035 87.2298 89.9153 87.2 89.9153C87.1701 89.9153 87.1415 89.9035 87.1204 89.8823C87.0992 89.8612 87.0874 89.8326 87.0874 89.8027Z" fill="#A77D31"/>
<path d="M45.0376 89.8026C44.8504 88.9862 44.437 88.2389 43.8446 87.6466C43.2523 87.0543 42.5051 86.6409 41.6886 86.4537C41.6638 86.448 41.6416 86.4341 41.6256 86.4141C41.6097 86.3942 41.6011 86.3694 41.6011 86.3439C41.6011 86.3184 41.6097 86.2937 41.6256 86.2737C41.6416 86.2538 41.6638 86.2398 41.6886 86.2342C42.5081 86.0436 43.2572 85.6256 43.8497 85.0281C44.4421 84.4307 44.8539 83.6782 45.0376 82.8571C45.0432 82.8322 45.0572 82.81 45.0771 82.7941C45.0971 82.7782 45.1218 82.7695 45.1473 82.7695C45.1728 82.7695 45.1976 82.7782 45.2175 82.7941C45.2375 82.81 45.2514 82.8322 45.2571 82.8571C45.4467 83.68 45.8639 84.4331 46.461 85.0303C47.0582 85.6274 47.8112 86.0446 48.6342 86.2342C48.659 86.2398 48.6813 86.2538 48.6972 86.2737C48.7131 86.2937 48.7217 86.3184 48.7217 86.3439C48.7217 86.3694 48.7131 86.3942 48.6972 86.4141C48.6813 86.4341 48.659 86.448 48.6342 86.4537C47.8148 86.6411 47.0642 87.0541 46.4674 87.6459C45.8706 88.2378 45.4513 88.9849 45.2571 89.8026C45.2514 89.8275 45.2375 89.8497 45.2175 89.8656C45.1976 89.8815 45.1728 89.8902 45.1473 89.8902C45.1218 89.8902 45.0971 89.8815 45.0771 89.8656C45.0572 89.8497 45.0432 89.8275 45.0376 89.8026Z" fill="#A77D31"/>
</svg>
