<svg width="133" height="132" viewBox="0 0 133 132" fill="none" xmlns="http://www.w3.org/2000/svg">
<path d="M66.5 124.885C98.5325 124.885 124.5 98.7198 124.5 66.4427C124.5 34.1657 98.5325 8 66.5 8C34.4675 8 8.5 34.1657 8.5 66.4427C8.5 98.7198 34.4675 124.885 66.5 124.885Z" fill="#567340"/>
<path d="M85.6317 28.8188C82.5251 33.2217 80.1131 38.0824 78.4815 43.2284C78.002 44.5418 77.7052 45.9157 77.5996 47.3111C77.5996 49.5404 78.4785 51.6784 80.0429 53.2547C81.6073 54.8311 83.7291 55.7167 85.9415 55.7167C88.166 55.72 90.302 54.8393 91.886 53.2656C93.4701 51.692 94.3743 49.5524 94.4026 47.3111C94.3372 46.3675 94.1407 45.4378 93.8186 44.5493C91.8724 38.9285 89.1137 33.628 85.6317 28.8188Z" fill="#567340" stroke="white" stroke-width="1.6" stroke-miterlimit="10"/>
<path d="M87.0139 50.9618C86.3718 50.9634 85.7358 50.8372 85.1423 50.5903C84.5488 50.3434 84.0095 49.9809 83.5555 49.5234C83.1015 49.0659 82.7416 48.5225 82.4967 47.9245C82.2517 47.3265 82.1264 46.6856 82.1279 46.0386" stroke="white" stroke-width="1.6" stroke-miterlimit="10" stroke-linecap="round"/>
<path d="M100.885 77.2717C100.802 76.6165 100.488 76.0133 100 75.5723C99.5123 75.1314 98.8831 74.8821 98.2278 74.8701L71.2715 74.0535C71.036 74.048 70.811 73.9537 70.6411 73.7891C70.4712 73.6246 70.3688 73.4019 70.3539 73.165C70.3406 72.9128 70.4252 72.6652 70.5898 72.4747C70.7544 72.2843 70.986 72.1657 71.2358 72.1443L95.7013 70.4512C96.0628 70.4243 96.4147 70.3219 96.7348 70.1505C97.0548 69.979 97.3359 69.7423 97.5601 69.4554C97.7843 69.1685 97.9468 68.8376 98.0371 68.4839C98.1274 68.1302 98.1436 67.7615 98.0847 67.4011C97.9548 66.7617 97.6024 66.1901 97.0911 65.7894C96.5798 65.3887 95.9432 65.1852 95.2962 65.2157L80.102 65.648C73.7026 65.8041 66.6239 64.7954 61.1778 64.3511C60.6081 64.3083 60.0663 64.0855 59.6293 63.7146C59.1924 63.3437 58.8827 62.8434 58.7441 62.2849C58.6055 61.7264 58.6452 61.1381 58.8575 60.6037C59.0698 60.0692 59.4438 59.6157 59.9265 59.3078L62.882 57.3985C65.5569 56.0656 67.6704 53.8124 68.8405 51.0463L69.1503 50.2658C69.3543 49.8019 69.4634 49.3013 69.4709 48.794C69.4783 48.2866 69.3841 47.783 69.1939 47.3132C69.0036 46.8434 68.7212 46.4172 68.3635 46.06C68.0059 45.7028 67.5804 45.422 67.1125 45.2344C66.7888 45.1066 66.4328 45.0878 66.0977 45.1808C65.7625 45.2739 65.4663 45.4739 65.2534 45.7508L61.8571 49.4853L51.823 54.8408C42.921 60.4365 41.0977 66.5486 41.0977 66.5486L27.417 66.3805V88.7633L40.7879 89.0275C44.5432 92.1922 49.1649 94.1313 54.0395 94.5872C57.2847 95.0097 60.5515 95.2423 63.8234 95.2836L83.1885 99.0181C83.7108 99.1324 84.2562 99.0609 84.732 98.8157C85.2078 98.5705 85.5846 98.1668 85.7983 97.6732C85.9167 97.3741 85.9701 97.053 85.9552 96.7314C85.9402 96.4098 85.8571 96.0951 85.7115 95.8085C85.5659 95.5219 85.3611 95.27 85.111 95.0697C84.8608 94.8694 84.571 94.7253 84.261 94.6472L66.3856 89.844C66.2666 89.8227 66.153 89.778 66.0512 89.7125C65.9494 89.647 65.8614 89.5619 65.7922 89.4621C65.7231 89.3623 65.6741 89.2497 65.6481 89.1309C65.6221 89.012 65.6196 88.8891 65.6407 88.7693C65.6619 88.6495 65.7062 88.535 65.7712 88.4324C65.8363 88.3298 65.9207 88.2412 66.0198 88.1715C66.1188 88.1018 66.2305 88.0524 66.3485 88.0262C66.4664 88 66.5884 87.9975 66.7073 88.0188L93.5444 90.5885C93.9034 90.6132 94.2636 90.5632 94.6026 90.4416C94.9417 90.3199 95.2522 90.1293 95.5149 89.8814C95.7776 89.6336 95.9869 89.334 96.1297 89.0011C96.2724 88.6683 96.3457 88.3094 96.3449 87.9468C96.3186 87.2982 96.0645 86.6802 95.628 86.2029C95.1914 85.7257 94.6008 85.4202 93.9615 85.341L70.6757 82.243C70.447 82.2063 70.2401 82.085 70.0956 81.9028C69.951 81.7205 69.8791 81.4905 69.894 81.2577C69.9089 81.0248 70.0095 80.806 70.1762 80.644C70.3428 80.482 70.5634 80.3885 70.7948 80.3817L98.3588 80.1776C98.7194 80.1698 99.0744 80.0865 99.4013 79.9329C99.7281 79.7793 100.02 79.5588 100.257 79.2854C100.495 79.0121 100.674 78.6918 100.782 78.3451C100.89 77.9984 100.925 77.6329 100.885 77.2717Z" fill="#567340" stroke="white" stroke-width="1.6" stroke-miterlimit="10"/>
</svg>
