<svg width="133" height="133" viewBox="0 0 133 133" fill="none" xmlns="http://www.w3.org/2000/svg">
<path d="M66.5 125.075C98.5325 125.075 124.5 98.9097 124.5 66.6327C124.5 34.3556 98.5325 8.18994 66.5 8.18994C34.4675 8.18994 8.5 34.3556 8.5 66.6327C8.5 98.9097 34.4675 125.075 66.5 125.075Z" fill="#E2E9DD"/>
<path d="M85.6317 29.0088C82.5251 33.4117 80.1131 38.2724 78.4815 43.4183C78.002 44.7317 77.7052 46.1057 77.5996 47.501C77.5996 49.7303 78.4785 51.8683 80.0429 53.4447C81.6073 55.021 83.7291 55.9066 85.9415 55.9066C88.166 55.91 90.302 55.0292 91.886 53.4556C93.4701 51.8819 94.3743 49.7423 94.4026 47.501C94.3372 46.5574 94.1407 45.6277 93.8186 44.7392C91.8724 39.1185 89.1137 33.8179 85.6317 29.0088Z" fill="#B7C9AA" stroke="#5A7744" stroke-width="1.6" stroke-miterlimit="10"/>
<path d="M87.0149 51.1518C86.3728 51.1534 85.7367 51.0271 85.1432 50.7802C84.5497 50.5334 84.0105 50.1708 83.5565 49.7133C83.1025 49.2558 82.7426 48.7125 82.4976 48.1144C82.2527 47.5164 82.1273 46.8755 82.1289 46.2285" stroke="#5A7744" stroke-width="1.6" stroke-miterlimit="10" stroke-linecap="round"/>
<path d="M100.886 77.4616C100.803 76.8065 100.489 76.2032 100.001 75.7623C99.5133 75.3213 98.8841 75.072 98.2287 75.06L71.2725 74.2435C71.0369 74.2379 70.812 74.1436 70.6421 73.9791C70.4722 73.8146 70.3697 73.5918 70.3549 73.3549C70.3416 73.1027 70.4262 72.8552 70.5908 72.6647C70.7553 72.4742 70.987 72.3557 71.2367 72.3342L95.7023 70.6411C96.0638 70.6143 96.4157 70.5119 96.7357 70.3404C97.0558 70.169 97.3368 69.9323 97.5611 69.6453C97.7853 69.3584 97.9477 69.0275 98.0381 68.6739C98.1284 68.3202 98.1446 67.9514 98.0857 67.5911C97.9557 66.9517 97.6033 66.3801 97.092 65.9794C96.5807 65.5786 95.9442 65.3752 95.2971 65.4056L80.103 65.8379C73.7036 65.994 66.6249 64.9853 61.1788 64.541C60.6091 64.4982 60.0672 64.2755 59.6303 63.9045C59.1934 63.5336 58.8837 63.0333 58.7451 62.4749C58.6065 61.9164 58.6462 61.3281 58.8585 60.7936C59.0707 60.2591 59.4448 59.8057 59.9275 59.4977L62.8829 57.5884C65.5579 56.2555 67.6714 54.0024 68.8414 51.2362L69.1513 50.4557C69.3553 49.9918 69.4644 49.4912 69.4718 48.9839C69.4793 48.4766 69.3851 47.9729 69.1948 47.5031C69.0046 47.0333 68.7221 46.6071 68.3645 46.2499C68.0069 45.8927 67.5814 45.6119 67.1135 45.4244C66.7898 45.2965 66.4338 45.2777 66.0986 45.3708C65.7635 45.4639 65.4673 45.6638 65.2544 45.9407L61.8581 49.6752L51.824 55.0307C42.922 60.6265 41.0987 66.7385 41.0987 66.7385L27.418 66.5704V88.9532L40.7888 89.2174C44.5441 92.3822 49.1659 94.3212 54.0405 94.7771C57.2857 95.1997 60.5525 95.4322 63.8244 95.4736L83.1895 99.208C83.7117 99.3224 84.2572 99.2508 84.733 99.0056C85.2088 98.7604 85.5856 98.3567 85.7993 97.8631C85.9176 97.5641 85.9711 97.2429 85.9561 96.9213C85.9412 96.5997 85.8581 96.2851 85.7125 95.9985C85.5669 95.7119 85.3621 95.4599 85.112 95.2596C84.8618 95.0593 84.572 94.9153 84.262 94.8371L66.3865 90.034C66.2676 90.0127 66.154 89.968 66.0522 89.9025C65.9504 89.8369 65.8624 89.7518 65.7932 89.652C65.7241 89.5522 65.6751 89.4397 65.6491 89.3208C65.6231 89.202 65.6206 89.0791 65.6417 88.9592C65.6628 88.8394 65.7072 88.7249 65.7722 88.6223C65.8373 88.5198 65.9217 88.4311 66.0207 88.3614C66.1198 88.2917 66.2315 88.2424 66.3494 88.2162C66.4674 88.19 66.5893 88.1875 66.7083 88.2087L93.5453 90.7784C93.9044 90.8032 94.2646 90.7532 94.6036 90.6315C94.9426 90.5099 95.2532 90.3192 95.5159 90.0714C95.7786 89.8236 95.9878 89.5239 96.1306 89.1911C96.2734 88.8582 96.3467 88.4993 96.3458 88.1367C96.3196 87.4882 96.0655 86.8702 95.629 86.3929C95.1924 85.9156 94.6018 85.6101 93.9624 85.531L70.6766 82.4329C70.448 82.3963 70.2411 82.275 70.0965 82.0927C69.952 81.9105 69.8801 81.6804 69.895 81.4476C69.9099 81.2148 70.0105 80.9959 70.1771 80.8339C70.3437 80.6719 70.5644 80.5784 70.7958 80.5717L98.3598 80.3675C98.7204 80.3598 99.0754 80.2764 99.4023 80.1228C99.7291 79.9692 100.021 79.7487 100.258 79.4754C100.496 79.202 100.674 78.8818 100.783 78.5351C100.891 78.1884 100.926 77.8228 100.886 77.4616Z" fill="#B7C9AA" stroke="#5A7744" stroke-width="1.6" stroke-miterlimit="10"/>
</svg>
