<svg width="133" height="133" viewBox="0 0 133 133" fill="none" xmlns="http://www.w3.org/2000/svg">
<path d="M66 124.19C98.0325 124.19 124 98.2225 124 66.1899C124 34.1574 98.0325 8.18994 66 8.18994C33.9675 8.18994 8 34.1574 8 66.1899C8 98.2225 33.9675 124.19 66 124.19Z" fill="#E2E9DD"/>
<path d="M45.0303 43.6C45.0209 44.6963 44.6872 45.7652 44.0713 46.6722C43.4554 47.5791 42.5848 48.2835 41.5693 48.6965C40.5538 49.1095 39.4387 49.2127 38.3646 48.9931C37.2905 48.7735 36.3055 48.2408 35.5336 47.4623C34.7617 46.6838 34.2375 45.6942 34.0271 44.6183C33.8167 43.5424 33.9294 42.4283 34.3511 41.4163C34.7727 40.4044 35.4845 39.5398 36.3967 38.9317C37.3089 38.3236 38.3806 37.9991 39.4769 37.999C40.2102 37.999 40.9363 38.1442 41.6132 38.4263C42.2901 38.7083 42.9044 39.1216 43.4207 39.6424C43.937 40.1631 44.345 40.7809 44.6213 41.4602C44.8976 42.1395 45.0366 42.8667 45.0303 43.6Z" fill="#B7C9AA" stroke="#5A7744" stroke-width="1.6" stroke-miterlimit="10"/>
<path d="M56.2806 67.1836L48.7014 54.8376C48.1379 53.9185 47.3477 53.1597 46.4065 52.6338C45.4654 52.1079 44.4049 51.8327 43.3269 51.8345H35.414C34.3418 51.832 33.2868 52.1046 32.35 52.6262C31.4132 53.1478 30.6259 53.901 30.0633 54.8137L22.5198 67.0287C22.1319 67.6628 21.9951 68.419 22.1362 69.1488C22.2773 69.8787 22.6862 70.5294 23.2825 70.9732C23.5997 71.2026 23.9607 71.3645 24.3431 71.4488C24.7255 71.533 25.1211 71.5379 25.5054 71.463C25.8897 71.3882 26.2545 71.2352 26.5773 71.0136C26.9001 70.792 27.174 70.5065 27.3819 70.1747L31.8389 63.2271L31.9819 71.283L31.3265 90.9103C31.2871 91.6656 31.5082 92.4114 31.9529 93.0232C32.3976 93.6349 33.0389 94.0754 33.7694 94.2709C34.2297 94.369 34.7059 94.3646 35.1642 94.258C35.6226 94.1514 36.0518 93.9452 36.4215 93.654C36.7912 93.3628 37.0922 92.9938 37.3032 92.5731C37.5142 92.1525 37.6301 91.6906 37.6425 91.2202L38.3456 71.2949H40.6217L41.3725 91.1367C41.3868 91.8855 41.6553 92.6072 42.1339 93.1832C42.6124 93.7592 43.2727 94.1554 44.0061 94.3067C44.4753 94.3795 44.9549 94.3472 45.4101 94.2122C45.8653 94.0771 46.2848 93.8425 46.6383 93.5255C46.9917 93.2085 47.2704 92.817 47.4541 92.3791C47.6378 91.9413 47.7219 91.4681 47.7004 90.9937L47.0092 71.2949L47.1403 63.4893L51.3351 70.1747C51.7316 70.8198 52.3588 71.2896 53.0893 71.4888C53.8197 71.6881 54.5986 71.6017 55.2677 71.2473C55.6103 71.0559 55.91 70.7963 56.1484 70.4845C56.3868 70.1728 56.5588 69.8155 56.6537 69.4347C56.7486 69.0539 56.7645 68.6577 56.7003 68.2705C56.6362 67.8833 56.4933 67.5134 56.2806 67.1836Z" fill="#B7C9AA" stroke="#5A7744" stroke-width="1.6" stroke-linejoin="round"/>
<path d="M98.2275 43.6C98.2181 44.6963 97.8844 45.7652 97.2685 46.6722C96.6526 47.5791 95.7821 48.2835 94.7666 48.6965C93.751 49.1095 92.636 49.2127 91.5619 48.9931C90.4878 48.7735 89.5028 48.2408 88.7309 47.4623C87.959 46.6838 87.4348 45.6942 87.2244 44.6183C87.0139 43.5424 87.1266 42.4283 87.5483 41.4163C87.97 40.4044 88.6818 39.5398 89.594 38.9317C90.5061 38.3236 91.5779 37.9991 92.6742 37.999C93.4075 37.999 94.1336 38.1442 94.8104 38.4263C95.4873 38.7083 96.1017 39.1216 96.618 39.6424C97.1343 40.1631 97.5423 40.7809 97.8186 41.4602C98.0948 42.1395 98.2338 42.8667 98.2275 43.6Z" fill="#B7C9AA" stroke="#5A7744" stroke-width="1.6" stroke-miterlimit="10"/>
<path d="M109.478 67.1836L101.899 54.8376C101.335 53.9185 100.545 53.1597 99.6036 52.6338C98.6625 52.1079 97.6021 51.8327 96.524 51.8345H88.6468C87.5746 51.832 86.5197 52.1046 85.5829 52.6262C84.6461 53.1478 83.8587 53.901 83.2961 54.8137L75.7169 67.0287C75.3305 67.6621 75.1933 68.4167 75.3321 69.1456C75.4708 69.8746 75.8755 70.5259 76.4677 70.9732C76.7859 71.2029 77.1478 71.3649 77.5311 71.4493C77.9144 71.5337 78.3109 71.5387 78.6962 71.4638C79.0814 71.389 79.4473 71.236 79.7711 71.0143C80.095 70.7926 80.3699 70.5069 80.579 70.1747L85.0717 63.1795L85.2148 71.2354L84.5236 90.9103C84.4842 91.6656 84.7054 92.4114 85.15 93.0232C85.5947 93.6349 86.236 94.0754 86.9666 94.2709C87.4268 94.369 87.903 94.3646 88.3613 94.258C88.8197 94.1514 89.249 93.9452 89.6186 93.654C89.9883 93.3628 90.2893 92.9938 90.5003 92.5731C90.7114 92.1525 90.8272 91.6906 90.8396 91.2202L91.5427 71.2949H93.8069L94.4981 91.1367C94.5124 91.8855 94.7809 92.6072 95.2595 93.1832C95.738 93.7592 96.3983 94.1554 97.1318 94.3067C97.6009 94.3795 98.0805 94.3472 98.5357 94.2122C98.9909 94.0771 99.4104 93.8425 99.7639 93.5255C100.117 93.2085 100.396 92.817 100.58 92.3791C100.763 91.9413 100.848 91.4681 100.826 90.9937L100.135 71.2949L100.266 63.4893L104.532 70.1747C104.929 70.8198 105.556 71.2896 106.286 71.4888C107.017 71.6881 107.796 71.6017 108.465 71.2473C108.807 71.0559 109.107 70.7963 109.346 70.4845C109.584 70.1728 109.756 69.8155 109.851 69.4347C109.946 69.0539 109.962 68.6577 109.897 68.2705C109.833 67.8833 109.69 67.5134 109.478 67.1836Z" fill="#B7C9AA" stroke="#5A7744" stroke-width="1.6" stroke-linejoin="round"/>
<path d="M49.3203 35.9731V30.0146H82.6879V35.2224" stroke="#5A7744" stroke-width="1.6" stroke-linecap="round" stroke-linejoin="round"/>
<path d="M56.9473 38.855V37.0474H60.0965V45.3468H58.0728V38.855H56.9473Z" fill="#5A7744"/>
<path d="M72.1237 38.9346C72.912 38.9346 73.5373 39.1734 73.9996 39.6509C74.4695 40.1284 74.7045 40.7916 74.7045 41.6405V45.3468H72.7718V41.902C72.7718 41.4927 72.6619 41.1781 72.4421 40.9583C72.2298 40.7309 71.9342 40.6172 71.5553 40.6172C71.1763 40.6172 70.8769 40.7309 70.6571 40.9583C70.4449 41.1781 70.3388 41.4927 70.3388 41.902V45.3468H68.406V41.902C68.406 41.4927 68.2961 41.1781 68.0763 40.9583C67.8641 40.7309 67.5685 40.6172 67.1896 40.6172C66.8106 40.6172 66.5112 40.7309 66.2914 40.9583C66.0792 41.1781 65.9731 41.4927 65.9731 41.902V45.3468H64.029V39.0028H65.9731V39.7987C66.1701 39.5334 66.4278 39.325 66.7462 39.1734C67.0645 39.0142 67.4245 38.9346 67.8262 38.9346C68.3037 38.9346 68.7282 39.0369 69.0996 39.2416C69.4785 39.4462 69.7741 39.738 69.9863 40.117C70.2061 39.7684 70.5055 39.4841 70.8845 39.2643C71.2635 39.0445 71.6765 38.9346 72.1237 38.9346Z" fill="#5A7744"/>
</svg>
