<svg width="90" height="67" viewBox="0 0 90 67" fill="none" xmlns="http://www.w3.org/2000/svg">
<g clip-path="url(#clip0_47_39)">
<path d="M81.3111 41.999C70.3665 37.2514 57.9723 41.1791 47.4674 45.1477L46.6531 45.4511C46.3274 45.0903 45.9935 44.7295 45.6759 44.3688C38.3469 36.169 26.2052 26.7885 26.4577 14.7267C26.6042 7.73237 31.9625 2.32874 39.0065 2.63213C46.6368 2.95192 50.9935 10.5039 48.9251 17.5228C48.4446 19.1628 50.8876 19.8024 51.4414 18.228C53.4039 12.685 56.083 6.02682 62.2638 4.28848C63.7823 3.85239 65.3753 3.7456 66.9378 3.97514C68.5003 4.20468 69.9966 4.76534 71.328 5.62009C72.6594 6.47484 73.7956 7.60425 74.6616 8.93375C75.5276 10.2632 76.1037 11.7626 76.3518 13.3328C78.4772 25.8292 59.9186 34.6521 50.7085 38.4158C49.9593 38.7191 50.2443 39.9327 51.0505 39.6621C62.9642 35.6934 87.0603 24.7058 78.1352 7.92096C76.557 4.98556 74.0342 2.6779 70.9813 1.37706C67.9284 0.076209 64.5269 -0.140477 61.3355 0.762592C55.9935 2.21394 53.1026 6.19901 51.1726 10.8237C49.8453 5.94482 46.2866 1.73016 41.1726 0.418202C33.0863 -1.63993 25.1303 4.19828 23.8844 12.275C22.2557 22.5821 29.5847 30.8474 36.0993 37.7352C38.7785 40.5641 41.3762 43.557 44.0472 46.4843C41.987 47.3043 39.8208 48.2062 37.5896 49.0672C36.0749 47.1731 34.601 45.2461 33.127 43.3274C28.1678 36.8742 21.8811 29.478 13.0375 29.3468C9.87664 29.2579 6.79739 30.3644 4.40672 32.4484C2.01605 34.5323 0.487408 37.4424 0.122146 40.6051C-0.912055 47.8044 3.84365 53.3557 10.6352 54.9628C19.6824 57.1111 28.2655 54.9628 36.7752 51.8961C40.2606 56.2338 43.2899 59.6941 45.6596 62.236C45.9365 62.5312 50.684 67.6232 52.5326 66.9426C52.6873 66.8934 53.1678 66.713 53.2248 66.3768C53.3143 65.8684 52.4104 65.3273 52.1417 65.1633C49.2101 63.3511 43.5505 57.0537 40.9283 53.5607C40.5619 53.0687 39.9186 52.1831 39.1694 51.0105L45.8713 48.4522C50.3013 53.1589 55.0244 57.5457 60.7166 60.6206C68.4202 64.7861 79.6824 66.631 86.7752 60.0548C93.6401 53.6755 88.4935 45.1067 81.3111 41.999ZM9.29153 51.4205C3.26548 48.4112 1.3355 40.1213 6.5228 35.2179C13.5423 28.5925 23.2492 36.1854 28.0619 41.5562C30.5049 44.295 32.8257 47.1567 35.1873 49.9774C26.5147 53.1343 17.1498 55.34 9.29153 51.4205ZM72.5163 60.9486C62.614 60.4484 55.0814 54.3396 48.5423 47.4601C55.6189 44.8525 62.7524 42.7206 70.1873 43.024C75.7248 43.2536 84.2101 45.0657 86.1808 51.2893C88.5016 58.6199 77.5244 61.2192 72.5163 60.9486Z" fill="#719556"/>
</g>
<defs>
<clipPath id="clip0_47_39">
<rect width="90" height="67" fill="white"/>
</clipPath>
</defs>
</svg>
