<svg width="133" height="133" viewBox="0 0 133 133" fill="none" xmlns="http://www.w3.org/2000/svg">
<path d="M66 124.19C98.0325 124.19 124 98.2225 124 66.1899C124 34.1574 98.0325 8.18994 66 8.18994C33.9675 8.18994 8 34.1574 8 66.1899C8 98.2225 33.9675 124.19 66 124.19Z" fill="#E2E9DD"/>
<path d="M39.4302 72.8682C44.6627 67.6358 44.6626 59.1523 39.4302 53.9199C34.1978 48.6875 25.7144 48.6875 20.482 53.9199C15.2495 59.1523 15.2495 67.6358 20.4819 72.8682C25.7144 78.1006 34.1978 78.1006 39.4302 72.8682Z" stroke="#5A7744" stroke-width="1.6" stroke-miterlimit="10"/>
<path d="M111.278 72.8422C116.557 67.5637 116.557 59.0056 111.278 53.7271C106 48.4486 97.4415 48.4486 92.163 53.7271C86.8845 59.0056 86.8845 67.5637 92.163 72.8422C97.4415 78.1207 106 78.1207 111.278 72.8422Z" stroke="#5A7744" stroke-width="1.6" stroke-miterlimit="10"/>
<path d="M84.9762 47.344C78.7228 45.4299 76.6907 38.9404 65.8749 38.9404C55.0591 38.9404 54.1808 44.9448 46.9702 47.344C42.1982 49.0463 37.193 50.0058 32.1297 50.1888L31.9199 76.9071C31.9199 76.9071 45.8166 91.8132 66.006 91.8132C86.1955 91.8132 100.092 76.9071 100.092 76.9071V49.9922C94.953 49.8345 89.8629 48.9427 84.9762 47.344Z" fill="#B7C9AA" stroke="#5A7744" stroke-width="2" stroke-miterlimit="10"/>
<path d="M75.1967 60.4541H56.8164V78.8475H75.1967V60.4541Z" stroke="#5A7744" stroke-width="1.6" stroke-miterlimit="10"/>
<path d="M31.7891 58.7109H37.3477" stroke="#5A7744" stroke-width="1.6" stroke-miterlimit="10"/>
<path d="M31.7891 68.4912H37.3477" stroke="#5A7744" stroke-width="1.6" stroke-miterlimit="10"/>
<path d="M100.225 58.7109H94.666" stroke="#5A7744" stroke-width="1.6" stroke-miterlimit="10"/>
<path d="M68.7858 69.6445H63.2402" stroke="#5A7744" stroke-width="1.6" stroke-miterlimit="10"/>
<path d="M100.225 68.4912H94.666" stroke="#5A7744" stroke-width="1.6" stroke-miterlimit="10"/>
</svg>
