<svg width="133" height="133" viewBox="0 0 133 133" fill="none" xmlns="http://www.w3.org/2000/svg">
<path d="M67 124.19C99.0325 124.19 125 98.2225 125 66.1899C125 34.1574 99.0325 8.18994 67 8.18994C34.9675 8.18994 9 34.1574 9 66.1899C9 98.2225 34.9675 124.19 67 124.19Z" fill="#E2E9DD"/>
<path d="M84.4793 41.2443C79.5256 46.0543 72.895 48.7486 65.9902 48.7571C72.8676 48.6834 79.4539 45.9706 84.3881 41.1792L84.4793 41.2443Z" fill="#5A7744" stroke="#5A7744" stroke-linecap="round" stroke-linejoin="round"/>
<path d="M101.106 54.4986C101.106 58.1313 99.5045 61.074 97.5254 61.074C97.2904 61.0741 97.0571 61.0345 96.8353 60.9568C95.5332 68.7691 91.3146 75.3444 85.6898 78.7297C83.0344 80.3683 79.9757 81.2361 76.8554 81.2361C73.7352 81.2361 70.6764 80.3683 68.021 78.7297C62.3832 75.3444 58.1906 68.8211 56.8625 60.9698C56.6452 61.0475 56.4162 61.0872 56.1854 61.087C54.2063 61.087 52.5918 58.1444 52.5918 54.5117C52.5918 50.879 54.2063 48.0014 56.1854 48.0014C56.578 48.0598 56.9736 48.0946 57.3703 48.1056C59.5973 48.5468 61.8582 48.7951 64.1279 48.8478C64.7659 48.8478 65.43 48.8478 65.9898 48.8478C72.8946 48.8393 79.5252 46.145 84.4789 41.335C85.3773 42.025 90.4553 47.3244 96.3014 47.9754C96.3014 48.0926 97.1348 47.9754 97.5254 47.9754C99.5045 47.9233 101.106 50.8659 101.106 54.4986Z" fill="#B7C9AA" stroke="#5A7744" stroke-linecap="round" stroke-linejoin="round"/>
<path d="M85.6902 78.7303V92.1414H68.0215V78.7173C70.6768 80.3559 73.7356 81.2237 76.8559 81.2237C79.9761 81.2237 83.0349 80.3559 85.6902 78.7173V78.7303Z" fill="#719556"/>
<path d="M85.6902 78.7303V92.1414H68.0215V78.7173C70.6768 80.3559 73.7356 81.2237 76.8559 81.2237C79.9761 81.2237 83.0349 80.3559 85.6902 78.7173V78.7303Z" fill="#B7C9AA" stroke="#5A7744" stroke-linecap="round" stroke-linejoin="round"/>
<path d="M96.7562 41.5306V47.9106H96.4958C90.3632 47.2205 85.0769 41.4004 84.5691 41.2051L84.478 41.2702C79.5243 46.0802 72.8936 48.7745 65.9889 48.783C65.39 48.783 64.765 48.783 64.127 48.783C61.9403 48.7139 59.7629 48.4657 57.6168 48.0408L57.0178 47.9237V41.5306C57.0052 39.3717 57.4862 37.2384 58.424 35.2938C60.4552 31.2184 65.2728 25.5024 76.4313 25.1899H77.4209C88.2018 25.4894 93.0454 30.8408 95.2068 34.8902C96.2587 36.9436 96.7908 39.2237 96.7562 41.5306Z" fill="#719556" stroke="#5A7744" stroke-linecap="round" stroke-linejoin="round"/>
<path d="M96.9648 29.9429C99.3567 33.8334 100.224 38.4714 99.3997 42.9633" stroke="#5A7744" stroke-linecap="round" stroke-linejoin="round"/>
<path d="M54.4277 67.0771C54.7195 69.6507 55.5697 72.1295 56.9191 74.3402C58.2685 76.551 60.0844 78.4403 62.24 79.8763" stroke="#5A7744" stroke-linecap="round" stroke-linejoin="round"/>
<path d="M96.8618 70.3062C95.5151 74.6138 92.8904 78.4101 89.3359 81.1913" stroke="#5A7744" stroke-linecap="round" stroke-linejoin="round"/>
<path d="M102.213 31.8828C102.577 34.1484 102.929 36.4269 103.294 38.6925L102.213 31.8828Z" fill="#5A7744"/>
<path d="M102.213 31.8828C102.577 34.1484 102.929 36.4269 103.294 38.6925" stroke="#5A7744" stroke-linecap="round" stroke-linejoin="round"/>
<path d="M60.1178 26.6226C58.1426 28.154 56.6082 30.1811 55.6706 32.4978C54.7329 34.8145 54.4254 37.3382 54.7794 39.8123" stroke="#5A7744" stroke-linecap="round" stroke-linejoin="round"/>
<path d="M63.8418 43.6792C66.5897 43.9026 69.352 43.4836 71.9101 42.4554C74.4682 41.4272 76.752 39.8179 78.5809 37.7549" fill="#719556"/>
<path d="M63.8418 43.6792C66.5897 43.9026 69.352 43.4836 71.9101 42.4554C74.4682 41.4272 76.752 39.8179 78.5809 37.7549" stroke="#5A7744" stroke-linecap="round" stroke-linejoin="round"/>
<path d="M47.6707 73.2242C47.6699 74.6725 47.28 76.094 46.542 77.3401C45.8039 78.5862 44.7447 79.6112 43.475 80.308C42.2053 81.0047 40.7718 81.3476 39.3243 81.3008C37.8767 81.2541 36.4683 80.8194 35.2463 80.0421C34.0242 79.2649 33.0334 78.1737 32.3773 76.8825C31.7211 75.5914 31.4239 74.1477 31.5166 72.7024C31.6092 71.2571 32.0884 69.8632 32.904 68.6664C33.7197 67.4696 34.8418 66.5139 36.1531 65.8991V41.7582C36.1531 40.8602 36.5099 39.9989 37.1449 39.3639C37.7799 38.7288 38.6412 38.3721 39.5393 38.3721C40.4373 38.3721 41.2986 38.7288 41.9336 39.3639C42.5687 39.9989 42.9254 40.8602 42.9254 41.7582V65.8991C44.3378 66.5334 45.5369 67.5622 46.3786 68.8616C47.2204 70.1611 47.6691 71.676 47.6707 73.2242Z" fill="#719556" stroke="#5A7744" stroke-linecap="round" stroke-linejoin="round"/>
<path d="M39.5391 46.8955H42.6719" stroke="#5A7744" stroke-linecap="round" stroke-linejoin="round"/>
<path d="M36.5898 52.1938H39.0546" stroke="#5A7744" stroke-linecap="round" stroke-linejoin="round"/>
<path d="M48.5259 101.849C49.2571 101.849 49.8371 102.07 50.2659 102.513C50.7018 102.956 50.9198 103.571 50.9198 104.359V107.796H49.127V104.601C49.127 104.221 49.0251 103.93 48.8212 103.726C48.6244 103.515 48.3502 103.409 47.9987 103.409C47.6472 103.409 47.3695 103.515 47.1656 103.726C46.9687 103.93 46.8703 104.221 46.8703 104.601V107.796H45.0776V104.601C45.0776 104.221 44.9756 103.93 44.7718 103.726C44.5749 103.515 44.3007 103.409 43.9492 103.409C43.5977 103.409 43.32 103.515 43.1161 103.726C42.9193 103.93 42.8209 104.221 42.8209 104.601V107.796H41.0176V101.912H42.8209V102.65C43.0036 102.404 43.2427 102.211 43.5379 102.07C43.8332 101.923 44.1672 101.849 44.5398 101.849C44.9827 101.849 45.3764 101.944 45.7209 102.133C46.0724 102.323 46.3465 102.594 46.5434 102.945C46.7473 102.622 47.025 102.358 47.3765 102.155C47.728 101.951 48.1112 101.849 48.5259 101.849Z" fill="#5A7744"/>
<path d="M51.8224 104.844C51.8224 104.239 51.9349 103.708 52.1598 103.251C52.3918 102.794 52.7047 102.443 53.0984 102.197C53.4921 101.951 53.9315 101.828 54.4166 101.828C54.8314 101.828 55.1934 101.912 55.5027 102.081C55.8191 102.249 56.0617 102.471 56.2304 102.745V101.912H58.0337V107.796H56.2304V106.963C56.0546 107.237 55.8086 107.459 55.4922 107.628C55.1829 107.796 54.8208 107.881 54.406 107.881C53.928 107.881 53.4921 107.758 53.0984 107.512C52.7047 107.259 52.3918 106.904 52.1598 106.447C51.9349 105.983 51.8224 105.448 51.8224 104.844ZM56.2304 104.854C56.2304 104.404 56.1038 104.049 55.8507 103.789C55.6047 103.529 55.3024 103.399 54.9438 103.399C54.5853 103.399 54.2795 103.529 54.0264 103.789C53.7803 104.042 53.6573 104.394 53.6573 104.844C53.6573 105.294 53.7803 105.652 54.0264 105.919C54.2795 106.179 54.5853 106.309 54.9438 106.309C55.3024 106.309 55.6047 106.179 55.8507 105.919C56.1038 105.659 56.2304 105.304 56.2304 104.854Z" fill="#5A7744"/>
<path d="M62.8182 107.796L61.6899 106.162L60.7408 107.796H58.7899L60.7302 104.791L58.7372 101.912H60.7619L61.8902 103.536L62.8393 101.912H64.7902L62.8182 104.875L64.843 107.796H62.8182Z" fill="#5A7744"/>
<path d="M67.6565 102.271C67.6847 101.518 67.9307 100.938 68.3947 100.531C68.8587 100.123 69.4879 99.9189 70.2824 99.9189C70.8096 99.9189 71.2596 100.01 71.6322 100.193C72.0118 100.376 72.2966 100.625 72.4864 100.942C72.6832 101.258 72.7816 101.613 72.7816 102.007C72.7816 102.471 72.6656 102.851 72.4336 103.146C72.2016 103.434 71.931 103.631 71.6216 103.736V103.779C72.0224 103.912 72.3387 104.134 72.5707 104.443C72.8027 104.752 72.9187 105.149 72.9187 105.635C72.9187 106.07 72.8168 106.457 72.6129 106.795C72.4161 107.125 72.1243 107.385 71.7376 107.575C71.358 107.765 70.9046 107.86 70.3773 107.86C69.5336 107.86 68.8587 107.652 68.3525 107.237C67.8534 106.823 67.5898 106.197 67.5616 105.36H69.3122C69.3192 105.67 69.4071 105.916 69.5758 106.099C69.7446 106.274 69.9906 106.362 70.314 106.362C70.5882 106.362 70.7991 106.285 70.9467 106.13C71.1014 105.969 71.1787 105.758 71.1787 105.497C71.1787 105.16 71.0698 104.917 70.8518 104.77C70.6409 104.615 70.2999 104.538 69.8289 104.538H69.4915V103.072H69.8289C70.1875 103.072 70.4757 103.012 70.6936 102.893C70.9186 102.766 71.0311 102.545 71.0311 102.228C71.0311 101.975 70.9608 101.778 70.8202 101.638C70.6796 101.497 70.4862 101.427 70.2402 101.427C69.973 101.427 69.7727 101.508 69.6391 101.669C69.5126 101.831 69.4387 102.032 69.4176 102.271H67.6565Z" fill="#5A7744"/>
<path d="M78.8924 101.448L76.2455 107.796H74.4L77.0786 101.648H73.7989V100.109H78.8924V101.448Z" fill="#5A7744"/>
<path d="M79.4108 102.218C79.4108 101.634 79.6111 101.174 80.0119 100.836C80.4126 100.492 80.9399 100.32 81.5937 100.32C82.2475 100.32 82.7713 100.492 83.165 100.836C83.5657 101.174 83.7661 101.634 83.7661 102.218C83.7661 102.801 83.5657 103.269 83.165 103.62C82.7713 103.965 82.251 104.137 81.6042 104.137C81.1754 104.137 80.7957 104.06 80.4653 103.905C80.1349 103.743 79.8748 103.518 79.685 103.23C79.5022 102.942 79.4108 102.605 79.4108 102.218ZM82.3741 102.228C82.3741 101.926 82.2967 101.694 82.1421 101.532C81.9874 101.371 81.8046 101.29 81.5937 101.29C81.3757 101.29 81.1894 101.371 81.0348 101.532C80.8801 101.694 80.8028 101.926 80.8028 102.228C80.8028 102.531 80.8801 102.763 81.0348 102.924C81.1965 103.079 81.3863 103.156 81.6042 103.156C81.8151 103.156 81.9944 103.079 82.1421 102.924C82.2967 102.763 82.3741 102.531 82.3741 102.228Z" fill="#5A7744"/>
<path d="M84.3765 104.084C84.3765 103.353 84.5347 102.703 84.8511 102.133C85.1674 101.557 85.6068 101.111 86.1693 100.794C86.7387 100.471 87.382 100.309 88.0991 100.309C88.9779 100.309 89.7301 100.541 90.3558 101.005C90.9815 101.469 91.3998 102.102 91.6107 102.903H89.6282C89.4805 102.594 89.2696 102.358 88.9954 102.197C88.7283 102.035 88.4225 101.954 88.078 101.954C87.5226 101.954 87.0727 102.148 86.7282 102.534C86.3837 102.921 86.2114 103.438 86.2114 104.084C86.2114 104.731 86.3837 105.248 86.7282 105.635C87.0727 106.021 87.5226 106.215 88.078 106.215C88.4225 106.215 88.7283 106.134 88.9954 105.972C89.2696 105.81 89.4805 105.575 89.6282 105.265H91.6107C91.3998 106.067 90.9815 106.7 90.3558 107.164C89.7301 107.621 88.9779 107.849 88.0991 107.849C87.382 107.849 86.7387 107.691 86.1693 107.375C85.6068 107.051 85.1674 106.605 84.8511 106.035C84.5347 105.466 84.3765 104.816 84.3765 104.084Z" fill="#5A7744"/>
</svg>
