<svg width="133" height="132" viewBox="0 0 133 132" fill="none" xmlns="http://www.w3.org/2000/svg">
<path d="M66.5 124.886C98.5325 124.886 124.5 98.7198 124.5 66.4428C124.5 34.1657 98.5325 8.00003 66.5 8.00003C34.4675 8.00003 8.5 34.1657 8.5 66.4428C8.5 98.7198 34.4675 124.886 66.5 124.886Z" fill="#C7A9C0"/>
<path d="M85.6317 28.8189C82.5251 33.2218 80.1131 38.0824 78.4815 43.2284C78.002 44.5418 77.7052 45.9158 77.5996 47.3111C77.5996 49.5404 78.4785 51.6784 80.0429 53.2548C81.6073 54.8311 83.7291 55.7167 85.9415 55.7167C88.166 55.7201 90.302 54.8393 91.886 53.2657C93.4701 51.692 94.3743 49.5524 94.4026 47.3111C94.3372 46.3675 94.1407 45.4378 93.8186 44.5493C91.8724 38.9286 89.1137 33.628 85.6317 28.8189V28.8189Z" fill="#C7A9C0" stroke="white" stroke-width="1.6" stroke-miterlimit="10"/>
<path d="M87.0149 50.9619C86.3728 50.9635 85.7367 50.8372 85.1432 50.5904C84.5497 50.3435 84.0105 49.981 83.5565 49.5235C83.1025 49.066 82.7426 48.5226 82.4976 47.9246C82.2527 47.3266 82.1273 46.6856 82.1289 46.0387" stroke="white" stroke-width="1.6" stroke-miterlimit="10" stroke-linecap="round"/>
<path d="M100.886 77.2717C100.803 76.6165 100.489 76.0133 100.001 75.5724C99.5133 75.1314 98.8841 74.8821 98.2287 74.8701L71.2725 74.0536C71.0369 74.048 70.812 73.9537 70.6421 73.7892C70.4722 73.6247 70.3697 73.4019 70.3549 73.165C70.3416 72.9128 70.4262 72.6653 70.5908 72.4748C70.7553 72.2843 70.987 72.1658 71.2367 72.1443L95.7023 70.4512C96.0638 70.4244 96.4157 70.322 96.7357 70.1505C97.0558 69.9791 97.3368 69.7423 97.5611 69.4554C97.7853 69.1685 97.9477 68.8376 98.0381 68.484C98.1284 68.1303 98.1446 67.7615 98.0857 67.4012C97.9557 66.7617 97.6033 66.1902 97.092 65.7894C96.5807 65.3887 95.9442 65.1853 95.2971 65.2157L80.103 65.648C73.7036 65.8041 66.6249 64.7954 61.1788 64.3511C60.6091 64.3083 60.0672 64.0856 59.6303 63.7146C59.1934 63.3437 58.8837 62.8434 58.7451 62.2849C58.6065 61.7264 58.6462 61.1382 58.8585 60.6037C59.0707 60.0692 59.4448 59.6158 59.9275 59.3078L62.8829 57.3985C65.5579 56.0656 67.6714 53.8125 68.8414 51.0463L69.1513 50.2658C69.3553 49.8019 69.4644 49.3013 69.4718 48.794C69.4793 48.2866 69.3851 47.783 69.1948 47.3132C69.0046 46.8434 68.7221 46.4172 68.3645 46.06C68.0069 45.7028 67.5814 45.422 67.1135 45.2345C66.7898 45.1066 66.4338 45.0878 66.0986 45.1809C65.7635 45.274 65.4673 45.4739 65.2544 45.7508L61.8581 49.4853L51.824 54.8408C42.922 60.4365 41.0987 66.5486 41.0987 66.5486L27.418 66.3805V88.7633L40.7888 89.0275C44.5441 92.1923 49.1659 94.1313 54.0405 94.5872C57.2857 95.0098 60.5525 95.2423 63.8244 95.2837L83.1895 99.0181C83.7117 99.1325 84.2572 99.0609 84.733 98.8157C85.2088 98.5705 85.5856 98.1668 85.7993 97.6732C85.9176 97.3742 85.9711 97.053 85.9561 96.7314C85.9412 96.4098 85.8581 96.0951 85.7125 95.8085C85.5669 95.5219 85.3621 95.27 85.112 95.0697C84.8618 94.8694 84.572 94.7254 84.262 94.6472L66.3865 89.844C66.2676 89.8228 66.154 89.7781 66.0522 89.7125C65.9504 89.647 65.8624 89.5619 65.7932 89.4621C65.7241 89.3623 65.6751 89.2498 65.6491 89.1309C65.6231 89.012 65.6206 88.8892 65.6417 88.7693C65.6628 88.6495 65.7072 88.535 65.7722 88.4324C65.8373 88.3299 65.9217 88.2412 66.0207 88.1715C66.1198 88.1018 66.2315 88.0525 66.3494 88.0263C66.4674 88.0001 66.5893 87.9975 66.7083 88.0188L93.5453 90.5885C93.9044 90.6133 94.2646 90.5632 94.6036 90.4416C94.9426 90.32 95.2532 90.1293 95.5159 89.8815C95.7786 89.6337 95.9878 89.334 96.1306 89.0011C96.2734 88.6683 96.3467 88.3094 96.3458 87.9468C96.3196 87.2983 96.0655 86.6802 95.629 86.203C95.1924 85.7257 94.6018 85.4202 93.9624 85.3411L70.6766 82.243C70.448 82.2064 70.2411 82.0851 70.0965 81.9028C69.952 81.7206 69.8801 81.4905 69.895 81.2577C69.9099 81.0249 70.0105 80.806 70.1771 80.644C70.3437 80.482 70.5644 80.3885 70.7958 80.3818L98.3598 80.1776C98.7204 80.1698 99.0754 80.0865 99.4023 79.9329C99.7291 79.7793 100.021 79.5588 100.258 79.2854C100.496 79.0121 100.675 78.6919 100.783 78.3452C100.891 77.9985 100.926 77.6329 100.886 77.2717Z" fill="#C7A9C0" stroke="white" stroke-width="1.6" stroke-miterlimit="10"/>
</svg>
