<svg width="133" height="133" viewBox="0 0 133 133" fill="none" xmlns="http://www.w3.org/2000/svg">
<path d="M66.5 125.545C98.5325 125.545 124.5 99.3795 124.5 67.1024C124.5 34.8254 98.5325 8.65967 66.5 8.65967C34.4675 8.65967 8.5 34.8254 8.5 67.1024C8.5 99.3795 34.4675 125.545 66.5 125.545Z" fill="#FABEBE"/>
<path d="M85.6319 29.4785C82.5253 33.8814 80.1134 38.7421 78.4817 43.8881C78.0022 45.2015 77.7055 46.5754 77.5999 47.9708C77.5999 50.2001 78.4787 52.3381 80.0431 53.9144C81.6075 55.4908 83.7293 56.3763 85.9417 56.3763C88.1662 56.3797 90.3022 55.499 91.8863 53.9253C93.4703 52.3517 94.3746 50.212 94.4028 47.9708C94.3375 47.0272 94.1409 46.0975 93.8189 45.2089C91.8727 39.5882 89.114 34.2876 85.6319 29.4785Z" fill="#FDE5E5" stroke="#F67D7D" stroke-width="1.6" stroke-miterlimit="10"/>
<path d="M87.0144 51.6215C86.3723 51.6231 85.7363 51.4968 85.1428 51.25C84.5493 51.0031 84.01 50.6405 83.556 50.183C83.102 49.7256 82.7421 49.1822 82.4972 48.5842C82.2522 47.9861 82.1269 47.3452 82.1284 46.6982" stroke="#F67D7D" stroke-width="1.6" stroke-miterlimit="10" stroke-linecap="round"/>
<path d="M100.886 77.9313C100.803 77.2762 100.489 76.673 100.001 76.232C99.5128 75.791 98.8836 75.5418 98.2282 75.5298L71.272 74.7132C71.0364 74.7077 70.8115 74.6133 70.6416 74.4488C70.4717 74.2843 70.3692 74.0616 70.3544 73.8246C70.3411 73.5724 70.4257 73.3249 70.5903 73.1344C70.7549 72.9439 70.9865 72.8254 71.2363 72.8039L95.7018 71.1108C96.0633 71.084 96.4152 70.9816 96.7353 70.8102C97.0553 70.6387 97.3363 70.402 97.5606 70.1151C97.7848 69.8281 97.9472 69.4973 98.0376 69.1436C98.1279 68.7899 98.1441 68.4212 98.0852 68.0608C97.9553 67.4214 97.6028 66.8498 97.0915 66.4491C96.5802 66.0484 95.9437 65.8449 95.2967 65.8754L80.1025 66.3076C73.7031 66.4637 66.6244 65.4551 61.1783 65.0108C60.6086 64.9679 60.0667 64.7452 59.6298 64.3743C59.1929 64.0033 58.8832 63.5031 58.7446 62.9446C58.606 62.3861 58.6457 61.7978 58.858 61.2633C59.0703 60.7288 59.4443 60.2754 59.927 59.9674L62.8824 58.0582C65.5574 56.7253 67.6709 54.4721 68.8409 51.706L69.1508 50.9254C69.3548 50.4616 69.4639 49.961 69.4713 49.4536C69.4788 48.9463 69.3846 48.4426 69.1943 47.9729C69.0041 47.5031 68.7217 47.0768 68.364 46.7196C68.0064 46.3624 67.5809 46.0817 67.113 45.8941C66.7893 45.7662 66.4333 45.7474 66.0982 45.8405C65.763 45.9336 65.4668 46.1335 65.2539 46.4104L61.8576 50.1449L51.8235 55.5005C42.9215 61.0962 41.0982 67.2082 41.0982 67.2082L27.4175 67.0401V89.423L40.7883 89.6871C44.5436 92.8519 49.1654 94.7909 54.04 95.2468C57.2852 95.6694 60.552 95.902 63.8239 95.9433L83.189 99.6778C83.7112 99.7921 84.2567 99.7206 84.7325 99.4754C85.2083 99.2302 85.5851 98.8264 85.7988 98.3329C85.9171 98.0338 85.9706 97.7127 85.9556 97.3911C85.9407 97.0694 85.8576 96.7548 85.712 96.4682C85.5664 96.1816 85.3616 95.9297 85.1115 95.7294C84.8613 95.5291 84.5715 95.385 84.2615 95.3069L66.386 90.5037C66.2671 90.4824 66.1535 90.4377 66.0517 90.3722C65.9499 90.3067 65.8619 90.2215 65.7927 90.1218C65.7236 90.022 65.6746 89.9094 65.6486 89.7905C65.6226 89.6717 65.6201 89.5488 65.6412 89.429C65.6624 89.3091 65.7067 89.1946 65.7717 89.0921C65.8368 88.9895 65.9212 88.9008 66.0203 88.8311C66.1193 88.7615 66.231 88.7121 66.349 88.6859C66.4669 88.6597 66.5889 88.6572 66.7078 88.6785L93.5449 91.2482C93.9039 91.2729 94.2641 91.2229 94.6031 91.1012C94.9421 90.9796 95.2527 90.7889 95.5154 90.5411C95.7781 90.2933 95.9874 89.9936 96.1301 89.6608C96.2729 89.3279 96.3462 88.969 96.3454 88.6064C96.3191 87.9579 96.065 87.3399 95.6285 86.8626C95.1919 86.3853 94.6013 86.0799 93.962 86.0007L70.6762 82.9026C70.4475 82.866 70.2406 82.7447 70.096 82.5625C69.9515 82.3802 69.8796 82.1502 69.8945 81.9173C69.9094 81.6845 70.01 81.4657 70.1766 81.3037C70.3433 81.1417 70.5639 81.0481 70.7953 81.0414L98.3593 80.8373C98.7199 80.8295 99.0749 80.7461 99.4018 80.5925C99.7286 80.4389 100.02 80.2184 100.258 79.9451C100.495 79.6717 100.674 79.3515 100.782 79.0048C100.89 78.6581 100.926 78.2925 100.886 77.9313Z" fill="#FDE5E5" stroke="#F67D7D" stroke-width="1.6" stroke-miterlimit="10"/>
</svg>
