<svg width="428" height="35" viewBox="0 0 428 35" fill="none" xmlns="http://www.w3.org/2000/svg">
<path d="M11.0167 18.7631C11.8418 19.9447 12.444 20.7028 12.9123 21.5054C13.6316 22.6433 13.9578 23.9856 13.841 25.3265C13.7242 26.6675 13.1708 27.9332 12.2656 28.9297C11.3651 29.9248 10.179 30.6175 8.86958 30.9128C7.5602 31.2081 6.19151 31.0917 4.95085 30.5795C3.91925 30.1539 2.98836 29.5168 2.21824 28.7094C1.44812 27.9019 0.855879 26.942 0.479734 25.8916C0.10359 24.8412 -0.0481025 23.7236 0.0344445 22.611C0.116992 21.4984 0.431945 20.4154 0.958981 19.4319C2.1262 17.3229 3.88619 15.6021 6.0213 14.4824C8.47818 13.2146 11.146 12.4062 13.8935 12.0969C20.7114 11.3049 27.6174 11.7964 34.2543 13.546C39.714 14.8807 45.0204 16.7786 50.088 19.209L52.9871 20.5021C52.8087 19.5211 52.7195 18.83 52.5634 18.1611C52.3074 16.4828 52.4382 14.7681 52.9459 13.148C53.4536 11.5278 54.3247 10.045 55.4928 8.81271C56.6609 7.58038 58.0952 6.63107 59.6861 6.03721C61.2771 5.44335 62.9827 5.22063 64.6728 5.38604C65.7528 5.42664 66.8111 5.70101 67.7748 6.19023C68.7384 6.67945 69.5844 7.37186 70.2543 8.21969C70.9243 9.06752 71.4023 10.0506 71.6553 11.101C71.9083 12.1515 71.9304 13.2443 71.7199 14.3041C71.5283 15.4422 71.0182 16.5027 70.2485 17.3629C69.4789 18.223 68.4813 18.8477 67.3712 19.1644C66.2892 19.5654 65.1118 19.6331 63.9909 19.359C62.87 19.0848 61.857 18.4812 61.0824 17.626C60.4356 16.9795 59.7443 16.3775 58.9861 15.7087L57.5811 16.8011C57.4658 17.673 57.5504 18.5597 57.8286 19.3941C58.1068 20.2284 58.5713 20.9885 59.1868 21.6169C60.8551 23.7146 63.0152 25.3687 65.4756 26.4326C68.4189 27.7795 71.5328 28.7172 74.7305 29.2195C80.6132 30.29 86.5996 30.679 92.5713 30.3788C100.8 30.0483 108.827 27.7305 115.965 23.6234C117.9 22.5541 119.54 21.0221 120.737 19.1644C122.458 16.6194 124.952 14.6962 127.851 13.6798C131.799 12.25 135.99 11.6136 140.184 11.807C150.486 11.803 160.603 14.5509 169.487 19.7664C170.268 20.2346 171.093 20.6582 172.163 21.2378C172.163 20.5244 172.32 20.1008 172.32 19.6549C172.33 17.9247 172.764 16.2234 173.585 14.6998C174.405 13.1763 175.586 11.8768 177.025 10.9152C177.934 10.1395 179.041 9.63086 180.222 9.44588C181.403 9.26091 182.612 9.4068 183.715 9.86736C184.647 10.2437 185.472 10.8449 186.115 11.6174C186.758 12.3899 187.2 13.3096 187.401 14.2943C187.602 15.2791 187.556 16.2983 187.267 17.2609C186.978 18.2235 186.455 19.0996 185.745 19.811C185.369 20.2455 184.906 20.5973 184.387 20.8438C183.868 21.0903 183.303 21.2263 182.729 21.243C182.154 21.2598 181.582 21.157 181.05 20.9412C180.517 20.7254 180.035 20.4012 179.634 19.9893C178.809 19.2536 178.073 18.3841 177.092 17.3585C176.691 18.0942 176.178 18.6293 176.155 19.1644C176.08 20.384 176.223 21.6072 176.579 22.7762C177.642 25.2453 179.58 27.2346 182.021 28.3621C184.462 29.4896 187.234 29.6759 189.803 28.8851C192.389 28.0952 194.675 26.5405 196.36 24.426C197.475 22.9992 198.59 21.5054 199.527 19.967C200.307 18.8746 200.999 17.7375 201.757 16.6674C203.019 14.6618 204.939 13.1565 207.188 12.4084C209.437 11.6602 211.876 11.7156 214.089 12.5651C214.491 12.5651 215.026 12.2975 215.583 12.2083C217.219 11.8424 218.921 11.9113 220.522 12.4081C222.122 12.9049 223.564 13.8123 224.704 15.0398C225.712 16.2543 226.636 17.5354 227.47 18.8746C228.875 20.7919 230.124 22.8654 231.662 24.649C232.91 26.2283 234.52 27.4829 236.357 28.3058C238.193 29.1288 240.202 29.4958 242.211 29.3756C244.294 29.1279 246.269 28.3158 247.924 27.0269C249.579 25.738 250.85 24.0214 251.599 22.0628C251.89 21.3051 251.952 20.4787 251.778 19.6861C251.603 18.8935 251.2 18.1695 250.618 17.6038L248.388 19.8333C247.936 20.3665 247.36 20.781 246.711 21.0405C246.062 21.2999 245.359 21.3965 244.664 21.3217C243.968 21.2469 243.302 21.0031 242.723 20.6115C242.144 20.2199 241.669 19.6924 241.341 19.0752C240.654 18.041 240.288 16.8273 240.288 15.586C240.288 14.3448 240.654 13.1311 241.341 12.0969C242.078 11.0527 243.113 10.2542 244.31 9.80493C245.507 9.35569 246.811 9.27646 248.054 9.57752C250.045 10.2406 251.81 11.4524 253.143 13.0734C254.477 14.6945 255.325 16.6589 255.591 18.7408C255.591 19.4765 255.591 20.19 255.747 21.1933C256.617 20.7474 257.308 20.4575 257.978 20.0562C265.647 15.434 274.293 12.6701 283.222 11.9854C287.769 11.5183 292.362 11.7817 296.826 12.7657C299.087 13.1855 301.24 14.0575 303.156 15.3294C305.072 16.6014 306.712 18.247 307.976 20.1677C308.81 21.317 309.873 22.2811 311.098 22.9992C316.568 26.5022 322.73 28.7836 329.162 29.6877C338.788 31.1491 348.612 30.6103 358.02 28.1047C361.178 27.3469 364.127 25.8919 366.65 23.8464C368.426 22.5106 369.718 20.6319 370.33 18.4956C370.62 17.3808 370.575 16.3998 369.326 15.887C368.896 15.8964 368.476 16.0188 368.108 16.2419C367.74 16.4649 367.437 16.7808 367.23 17.1578C366.215 18.3781 364.77 19.1624 363.193 19.3491C361.616 19.5357 360.028 19.1105 358.756 18.1611C357.467 17.1911 356.572 15.7884 356.236 14.2111C355.9 12.6338 356.145 10.9883 356.927 9.57752C357.556 8.33928 358.512 7.29649 359.691 6.56172C360.87 5.82696 362.228 5.42815 363.617 5.40834C365.33 5.29744 367.045 5.58331 368.629 6.2437C370.213 6.90409 371.624 7.92117 372.75 9.21571C373.877 10.5103 374.689 12.0473 375.124 13.7072C375.559 15.367 375.605 17.1049 375.258 18.7854C375.147 19.209 375.058 19.6549 374.879 20.5021C376.106 19.9893 376.953 19.6549 377.778 19.2759C384.633 15.9505 391.935 13.6374 399.455 12.409C405.366 11.3519 411.428 11.4655 417.296 12.7434C420.854 13.4684 424.026 15.4661 426.216 18.3618C426.877 19.2127 427.357 20.1895 427.626 21.2323C427.896 22.2751 427.951 23.3621 427.786 24.4265C427.621 25.491 427.24 26.5106 426.667 27.4229C426.094 28.3353 425.341 29.1211 424.454 29.7323C423.069 30.7748 421.339 31.2528 419.615 31.07C418.592 30.9578 417.612 30.5953 416.762 30.0146C415.912 29.4339 415.218 28.6528 414.742 27.7403C414.266 26.8279 414.022 25.8122 414.032 24.7831C414.041 23.754 414.304 22.7431 414.798 21.8398C415.405 20.7801 416.067 19.7531 416.783 18.7631C415.724 18.0733 414.595 17.4978 413.415 17.0464C411.326 16.4379 409.182 16.0347 407.015 15.8424C397.936 15.2501 388.869 17.1465 380.789 21.327C376.641 23.5565 372.649 25.786 368.523 28.0156C362.979 31.0433 356.936 33.052 350.683 33.946C341.224 35.2142 331.611 34.6618 322.36 32.3185C318.789 31.4762 315.367 30.0928 312.213 28.2162C311.745 27.9264 311.232 27.6811 310.608 27.3467C310.362 28.0156 310.139 28.5283 309.961 29.0411C308.199 34.4811 300.862 35.4621 297.116 32.3185C296.11 31.5627 295.366 30.5121 294.986 29.3132C294.606 28.1142 294.61 26.8266 294.997 25.63C295.301 24.4632 295.947 23.4143 296.854 22.6193C297.761 21.8243 298.885 21.3197 300.082 21.171L302.646 20.8142C302.514 20.218 302.243 19.6612 301.855 19.1888C301.468 18.7163 300.975 18.3414 300.416 18.0942C299.091 17.3542 297.684 16.7706 296.224 16.3552C292.809 15.4934 289.277 15.1848 285.764 15.4411C280.454 15.7443 275.206 16.7412 270.154 18.4064C265.095 20.1194 260.315 22.5685 255.97 25.6746C253.584 27.3913 251.198 29.108 248.745 30.7579C246.898 32.1203 244.728 32.9786 242.448 33.2484C240.168 33.5181 237.858 33.19 235.743 32.2962C232.689 31.162 230.015 29.192 228.027 26.611C226.355 24.3815 224.838 22.1519 223.233 19.9224C222.563 18.6743 221.496 17.6856 220.2 17.1133C221.248 20.7697 220.802 23.8018 217.546 25.8306C216.401 26.5481 215.071 26.9155 213.72 26.8878C212.369 26.86 211.056 26.4384 209.941 25.6746C206.908 23.668 206.529 20.6359 207.577 17.0018C206.32 17.6144 205.278 18.5939 204.589 19.811C202.983 22.0405 201.445 24.27 199.794 26.4995C197.948 28.9429 195.485 30.8512 192.658 32.0287C190.411 33.1074 187.907 33.5371 185.428 33.2692C182.95 33.0013 180.595 32.0466 178.631 30.5126C176.133 28.7736 173.658 26.99 171.16 25.2733C163.098 19.6869 153.69 16.3542 143.908 15.6195C139.842 15.1523 135.726 15.3709 131.732 16.266C130.276 16.6833 128.87 17.259 127.539 17.9828C126.979 18.2304 126.486 18.6086 126.102 19.0857C125.718 19.5628 125.454 20.1249 125.331 20.7251L127.562 21.1264C128.943 21.2794 130.237 21.8813 131.244 22.8397C132.251 23.7981 132.916 25.0602 133.137 26.4326C133.292 27.802 133.011 29.1854 132.334 30.3862C131.658 31.5869 130.62 32.5439 129.368 33.1211C125.153 35.1277 119.065 33.567 117.771 28.3946C117.651 28.0154 117.509 27.6433 117.348 27.2798C116.965 27.4184 116.593 27.5822 116.233 27.7703C111.484 30.6135 106.214 32.4783 100.733 33.2549C95.394 34.2274 89.9684 34.6458 84.543 34.5034C77.5925 34.3271 70.7317 32.8918 64.2937 30.2674C60.4682 28.5433 56.7452 26.6004 53.1432 24.4483C48.3988 21.6489 43.3478 19.4047 38.0901 17.7598C32.3103 16.0348 26.2659 15.3701 20.2493 15.7978C18.2608 16.0022 16.2966 16.3979 14.3842 16.9795C13.21 17.4709 12.0829 18.0679 11.0167 18.7631Z" fill="#F67D7D"/>
<path d="M213.666 9.57776C212.798 9.42737 211.947 9.19597 211.123 8.88661C210.327 8.51358 209.667 7.89948 209.239 7.13123C208.811 6.36299 208.635 5.47954 208.737 4.60595C208.813 3.69869 209.18 2.8401 209.782 2.15741C210.385 1.47472 211.191 1.00427 212.082 0.815789C213.119 0.681847 214.168 0.681847 215.204 0.815789C216.212 0.850213 217.173 1.25257 217.904 1.94681C218.636 2.64105 219.087 3.57909 219.174 4.58366C219.294 5.63612 219.021 6.69572 218.408 7.5596C217.794 8.42348 216.884 9.03092 215.851 9.26562C215.131 9.41981 214.4 9.5241 213.666 9.57776Z" fill="#F67D7D"/>
</svg>
