<svg width="410" height="119" viewBox="0 0 410 119" fill="none" xmlns="http://www.w3.org/2000/svg">
<path d="M204.47 96.57C204.415 95.6041 204.281 94.6443 204.07 93.7C204.248 93.8991 204.438 94.0862 204.64 94.26C205.629 95.0425 206.81 95.5435 208.06 95.71C209.013 95.8347 209.978 95.8347 210.93 95.71C211.37 95.71 211.77 95.59 212.19 95.51L213.43 95.17C214.789 94.7371 216.097 94.157 217.33 93.44C218.525 92.7135 219.791 92.1136 221.11 91.65C221.43 91.53 221.75 91.5 222.11 91.41L222.6 91.31L223.15 91.25C223.88 91.15 224.62 91.12 225.37 91.09C228.376 90.9561 231.37 91.546 234.1 92.81C232.867 91.8859 231.524 91.1199 230.1 90.53C228.624 89.9161 227.099 89.4277 225.54 89.07C224.75 88.91 223.96 88.75 223.16 88.65L222.57 88.56H221.92C221.487 88.535 221.053 88.535 220.62 88.56C218.961 88.6724 217.318 88.9606 215.72 89.42C214.599 89.7339 213.456 89.9613 212.3 90.1L211.48 90.17C211.19 90.17 210.89 90.17 210.6 90.17C210.094 90.16 209.591 90.0929 209.1 89.97C208.88 89.9357 208.672 89.8424 208.5 89.7V89.7C208.5 89.7 208.5 89.64 208.5 89.62C208.5 89.6 208.5 89.62 208.5 89.62C208.48 89.6194 208.46 89.6135 208.442 89.603C208.425 89.5925 208.41 89.5777 208.4 89.56C208.377 89.458 208.377 89.352 208.4 89.25C208.4 89.25 208.4 89.19 208.4 89.1C208.404 89.0221 208.425 88.9461 208.461 88.877C208.498 88.808 208.548 88.7476 208.61 88.7L208.69 88.64H208.79C208.871 88.6119 208.955 88.5918 209.04 88.58C209.22 88.58 209.44 88.58 209.67 88.58C210.142 88.6942 210.637 88.6629 211.09 88.49C211.319 88.3476 211.502 88.1407 211.614 87.8952C211.726 87.6497 211.763 87.3765 211.72 87.11C211.664 86.7268 211.546 86.3553 211.37 86.01C211.24 85.8106 211.096 85.6202 210.94 85.44L210.69 85.16L210.37 84.92C210.152 84.7612 209.921 84.6208 209.68 84.5C209.425 84.3999 209.165 84.3131 208.9 84.24C208.428 84.1339 207.943 84.0968 207.46 84.13C207.122 84.1582 206.787 84.2185 206.46 84.31L206.1 84.44C204.927 84.8974 203.939 85.7309 203.29 86.81C202.874 87.4757 202.605 88.2222 202.5 89C202.29 88.57 202.16 88.33 202.16 88.33C202.16 88.33 202.02 88.57 201.82 89C201.717 87.9658 201.329 86.9806 200.698 86.1542C200.068 85.3278 199.22 84.6928 198.25 84.32L197.89 84.19C197.564 84.0977 197.229 84.0374 196.89 84.01C196.661 83.9901 196.43 83.9901 196.2 84.01C195.944 84.0228 195.69 84.0597 195.44 84.12C195.179 84.1917 194.922 84.2785 194.67 84.38C194.425 84.4984 194.19 84.639 193.97 84.8C193.86 84.88 193.75 84.96 193.66 85.04L193.4 85.32C193.244 85.4977 193.104 85.6884 192.98 85.89C192.798 86.2331 192.676 86.6053 192.62 86.99C192.578 87.2565 192.615 87.5297 192.727 87.7752C192.839 88.0207 193.021 88.2276 193.25 88.37C193.704 88.5429 194.199 88.5742 194.67 88.46C194.9 88.46 195.13 88.46 195.3 88.46C195.388 88.4731 195.475 88.4931 195.56 88.52H195.65L195.74 88.58C195.803 88.626 195.854 88.6863 195.889 88.7559C195.923 88.8254 195.941 88.9023 195.94 88.98C195.94 89.07 195.94 89.13 195.94 89.13C195.959 89.2325 195.959 89.3375 195.94 89.44C195.928 89.4579 195.911 89.4726 195.892 89.483C195.873 89.4934 195.852 89.4993 195.83 89.5V89.5V89.58C195.66 89.7251 195.452 89.8187 195.23 89.85C194.739 89.9735 194.236 90.0406 193.73 90.05C193.45 90.05 193.14 90.05 192.85 90.05L192.03 89.98C190.875 89.8402 189.731 89.6129 188.61 89.3C187.012 88.8398 185.37 88.5515 183.71 88.44C183.277 88.4151 182.843 88.4151 182.41 88.44H181.77L181.17 88.53C180.37 88.63 179.58 88.79 178.8 88.95C177.241 89.3048 175.715 89.7933 174.24 90.41C172.818 91.003 171.475 91.7688 170.24 92.69C171.605 92.0914 173.025 91.6292 174.48 91.31C175.962 91.0497 177.466 90.9358 178.97 90.97C179.72 90.97 180.46 91.03 181.19 91.13L181.74 91.19L182.24 91.29C182.578 91.3521 182.911 91.4322 183.24 91.53C184.557 92.0418 185.817 92.6886 187 93.46C188.229 94.179 189.533 94.7592 190.89 95.19L192.13 95.53C192.55 95.61 192.96 95.68 193.39 95.73C194.346 95.8546 195.314 95.8546 196.27 95.73C197.52 95.5635 198.702 95.0625 199.69 94.28C199.887 94.1035 200.074 93.9166 200.25 93.72C200.044 94.6652 199.911 95.6246 199.85 96.59C199.85 96.94 199.85 97.29 199.85 97.65C199.85 98.01 199.85 98.34 199.85 98.65C200.052 101.53 200.842 104.337 202.17 106.9C203.498 104.337 204.288 101.53 204.49 98.65C204.49 98.31 204.49 97.97 204.49 97.65C204.49 97.33 204.5 96.92 204.47 96.57Z" fill="#F67D7D"/>
<path d="M207.73 77.81C206.837 77.2954 206.019 76.6593 205.3 75.92C203.56 73.92 201.97 68.92 201.89 68.92C201.81 68.92 200.24 73.92 198.51 75.92C197.792 76.6602 196.974 77.2963 196.08 77.81C199.59 77.05 201.85 84.15 201.93 84.15C202.01 84.15 204.59 77 207.73 77.81Z" fill="#F67D7D"/>
<path d="M325.83 53.47C325.9 52.933 325.927 52.3913 325.91 51.85C325.69 45.85 322.39 41.07 317.86 37.75C316.561 36.5227 315.059 35.5312 313.42 34.82C309.887 33.3178 306.129 32.4122 302.3 32.14C301.24 32.01 300.19 31.91 299.15 31.86C301.159 31.0949 303.244 30.5451 305.37 30.22C306.347 30.2321 307.322 30.3056 308.29 30.44C308.434 30.5286 308.601 30.5737 308.77 30.57C308.88 30.57 308.99 30.57 309.11 30.57C309.993 30.7333 310.865 30.9538 311.72 31.23C317.05 33.01 323.08 36.23 325.72 41.45C327.61 45.2 327.33 49.54 325.83 53.47ZM329.89 38.74C327.44 35.64 323.75 33.96 320.16 32.32C318.52 31.57 316.85 30.74 315.16 30.07C316.979 30.1472 318.792 30.3309 320.59 30.62C324.24 31.28 331.06 33.7 329.89 38.74V38.74ZM300.89 27.92C301.31 27.76 301.74 27.61 302.18 27.47C305.691 26.2516 309.394 25.679 313.11 25.78C315.64 25.91 321.5 26.96 323.3 29.49C322.133 29.1733 320.947 28.9328 319.75 28.77C314.542 27.905 309.227 27.905 304.02 28.77C301.489 28.8732 298.978 29.2521 296.53 29.9C297.826 29.217 299.161 28.6126 300.53 28.09C300.653 28.065 300.768 28.0062 300.86 27.92H300.89Z" fill="#F67D7D"/>
<path d="M285.91 16.52C287 18.24 291 19.46 291.1 21.85C290.575 21.1981 289.974 20.6107 289.31 20.1C288.449 19.5002 287.438 19.1538 286.39 19.1C284.39 19.05 281.53 19.99 280.44 21.71C280.398 21.7649 280.371 21.8296 280.36 21.898C280.35 21.9663 280.357 22.0362 280.381 22.1011C280.405 22.1659 280.445 22.2237 280.497 22.269C280.55 22.3142 280.612 22.3456 280.68 22.36C281.515 22.4846 282.306 22.8136 282.983 23.3178C283.66 23.822 284.202 24.4858 284.56 25.25C285.326 26.8552 285.557 28.6637 285.22 30.41C284.78 33.6492 283.57 36.7356 281.69 39.41C279.911 41.9078 277.687 44.0569 275.13 45.75C273.37 46.82 271.27 47.27 269.86 48.84C269.818 48.8947 269.79 48.9595 269.78 49.028C269.77 49.0965 269.778 49.1665 269.803 49.231C269.829 49.2955 269.87 49.3524 269.924 49.396C269.978 49.4397 270.042 49.4686 270.11 49.48L270.49 49.57C270.561 49.588 270.635 49.582 270.702 49.5531C270.769 49.5241 270.825 49.4738 270.86 49.41C272.18 49.57 273.92 48.58 275.04 48.16C277.37 47.2167 279.542 45.9217 281.48 44.32C285.84 40.93 289.04 36.32 292.24 31.83C293.831 29.3998 295.807 27.245 298.09 25.45C300.33 23.87 302.28 22.01 304.63 20.58C307.098 18.9705 309.709 17.5914 312.43 16.46C315.217 15.3463 318.267 15.0649 321.21 15.65C321.279 15.661 321.349 15.654 321.414 15.6295C321.479 15.6051 321.537 15.5641 321.581 15.5106C321.626 15.4571 321.655 15.3929 321.668 15.3244C321.68 15.2559 321.674 15.1855 321.65 15.12C321.1 14.03 319.78 13.54 318.71 13.05C316.992 12.2928 315.179 11.7746 313.32 11.51C309.59 10.9 306.12 10.61 302.51 11.94C301.056 12.4179 299.673 13.0907 298.4 13.94C297.61 14.51 297.28 15.29 296.4 14.99C295.67 14.75 295.46 13.99 295.08 13.32C293.86 11.17 292.94 9.58 293.31 7.02C293.58 5.14 294.06 3.39 294.46 1.54C294.492 1.47227 294.503 1.39689 294.493 1.32283C294.483 1.24878 294.452 1.17916 294.403 1.12227C294.355 1.06538 294.291 1.02361 294.22 1.00193C294.148 0.980256 294.072 0.979588 294 1C292.4 1.3 290.9 3.56 289.92 4.69C288.183 6.55283 286.785 8.7053 285.79 11.05C285.393 11.9108 285.197 12.851 285.217 13.7989C285.238 14.7468 285.475 15.6775 285.91 16.52Z" fill="#F67D7D"/>
<path d="M210.37 49.84C210.588 50.0836 210.88 50.2486 211.202 50.3095C211.523 50.3704 211.856 50.324 212.148 50.1773C212.44 50.0305 212.676 49.7917 212.819 49.4976C212.962 49.2036 213.005 48.8706 212.94 48.55C215.34 48.43 218.28 49.55 220.26 50.24C221.758 50.702 223.135 51.4893 224.293 52.5456C225.451 53.6018 226.362 54.9009 226.96 56.35C227.884 59.2985 227.771 62.4746 226.64 65.35C226.104 66.892 224.993 68.1675 223.54 68.91C222.8 69.3 220.73 70.32 219.54 70.13C220.34 69.59 219.99 68.52 218.78 68.03C216.78 67.19 215.11 68.93 215.09 70.94C215.181 72.2973 215.673 73.5971 216.502 74.6756C217.332 75.754 218.462 76.5628 219.75 77C220.43 77.2106 221.138 77.3218 221.85 77.33C224.425 78.1632 227.226 77.944 229.64 76.72C232.92 74.91 234.64 71.33 235.08 67.72C235.682 63.8555 234.948 59.9013 233 56.51C230.58 52.44 227.16 50.25 223.24 47.76C223.147 47.6978 223.033 47.6745 222.922 47.6951C222.812 47.7156 222.714 47.7784 222.65 47.87C220.24 46.47 217.18 44.96 214.51 45.49C213.18 45.74 208.84 48 210.37 49.84ZM234.37 65.11C234.37 68.97 233.42 72.97 230.17 75.43C228.55 76.5935 226.58 77.1654 224.59 77.05C225.943 76.7505 227.207 76.1374 228.28 75.26C234.08 70.15 232.88 61.76 230.06 55.37C229.452 54.0042 228.625 52.7475 227.61 51.65C228.822 52.5325 229.903 53.583 230.82 54.77C233.178 57.6977 234.45 61.3511 234.42 65.11H234.37Z" fill="#F67D7D"/>
<path d="M191.64 35C191.64 35 191.56 24.09 198.37 27.81C204.64 31.25 212.9 45.81 233.64 52.19C233.577 52.2246 233.525 52.2753 233.489 52.3369C233.453 52.3984 233.434 52.4686 233.434 52.54C233.434 52.6115 233.453 52.6816 233.489 52.7432C233.525 52.8047 233.577 52.8554 233.64 52.89C235.227 53.6213 236.773 54.4392 238.27 55.34C239.491 56.0872 240.853 56.5772 242.27 56.78C245.304 57.0801 248.362 57.0499 251.39 56.69C257.18 56.2067 262.768 54.3337 267.68 51.23C272.94 47.9 276.53 42.56 278.68 36.76C279.851 33.706 280.578 30.5002 280.84 27.24C280.91 26.18 281.16 24.58 280.27 23.83C280.254 22.7816 280.102 21.7398 279.82 20.73C278.794 17.4915 276.731 14.6803 273.95 12.73C273.071 11.9151 272.056 11.2618 270.95 10.8C270.41 10.58 269.88 10.39 269.35 10.23C268.82 10.07 268.43 9.89001 267.97 9.76001C267.927 9.73637 267.879 9.72397 267.83 9.72397C267.781 9.72397 267.733 9.73637 267.69 9.76001C258.2 7.76001 249.54 13.54 251 20.25C252.63 27.73 260.65 26.35 261.34 21.44C261.616 20.9635 261.703 20.4003 261.582 19.8629C261.462 19.3254 261.143 18.8531 260.69 18.54C259.05 17.36 262.61 15.27 265.53 17.46C268.45 19.65 274.79 24.9 263.43 38.46C251.36 52.9 231.91 58.16 208.63 32.64C185.35 7.12 182.72 36 191.64 35ZM269.29 45.72C269.94 45.46 278.36 38.05 279.87 28.72C280.02 27.77 280.15 26.72 280.22 25.72C280.19 27.5458 279.945 29.3617 279.49 31.13C278.853 34.13 277.846 37.0391 276.49 39.79C274.119 44.8004 270.237 48.9413 265.39 51.63C260.675 54.2238 255.434 55.7177 250.06 56C247.283 56.3249 244.476 56.2846 241.71 55.88C240.092 55.4492 238.571 54.7126 237.23 53.71C236.52 53.2797 235.774 52.9116 235 52.61C236.34 52.99 237.73 53.33 239.17 53.61C252.71 56.5 262.68 51.77 269.29 45.74V45.72Z" fill="#F67D7D"/>
<path d="M222.84 60.81C222.454 61.4827 222.251 62.2445 222.25 63.02C222.25 65.25 223.73 66.26 225.65 66.94C225.652 67.0105 225.676 67.0787 225.719 67.1345C225.762 67.1903 225.822 67.2308 225.89 67.25C226.76 67.59 228.72 66.61 227.81 65.55C227.64 65.36 227.27 65.33 227.06 65.25C226.63 65.1 226.21 64.89 225.8 64.7C224.63 64.01 223.27 62.77 223.52 61.44C223.546 61.3105 223.583 61.1834 223.63 61.06V61.06C223.63 62.58 224.76 64.13 226.47 63.34C229.1 62.13 228.19 58.71 227.77 56.55C227.67 56.04 226.86 56.12 226.95 56.64C227.147 57.4637 227.294 58.2986 227.39 59.14C227.55 60.099 227.366 61.0837 226.87 61.92C224.87 62.09 224.08 61.62 224.57 60.52C224.65 60.23 224.35 60.05 224.11 60.04C223.919 60.0446 223.731 60.0898 223.558 60.1725C223.386 60.2553 223.233 60.3737 223.11 60.52C223.018 60.5608 222.946 60.6363 222.91 60.73C222.882 60.7526 222.859 60.7796 222.84 60.81V60.81Z" fill="#F67D7D"/>
<path d="M300.6 25.92C300.6 25.92 313.06 15.67 320.6 18.65C328.14 21.63 325.66 25.28 323.85 24.47C322.04 23.66 313.85 17.77 300.6 25.92Z" fill="#F67D7D"/>
<path d="M76.8302 43.58C79.3702 38.35 85.3402 34.99 90.6502 33.12C91.5004 32.8293 92.369 32.5955 93.2502 32.42C93.3602 32.42 93.4702 32.42 93.5902 32.42C93.7601 32.419 93.9264 32.3706 94.0702 32.28C95.0399 32.1242 96.0186 32.0307 97.0002 32C99.1327 32.2877 101.228 32.804 103.25 33.54C102.197 33.6 101.147 33.71 100.1 33.87C96.2662 34.202 92.5146 35.172 89.0002 36.74C87.3699 37.4706 85.8832 38.4865 84.6102 39.74C80.1402 43.13 76.9202 48 76.8002 54C76.7937 54.542 76.8305 55.0838 76.9102 55.62C75.3502 51.69 75.0002 47.35 76.8302 43.58ZM81.8302 32.66C83.6059 32.3364 85.3989 32.116 87.2002 32C85.5102 32.69 83.8602 33.56 82.2002 34.33C78.6302 36.03 74.9802 37.77 72.5702 40.92C71.3502 35.91 78.1302 33.38 81.7902 32.66H81.8302ZM101.9 29.78C103.269 30.2755 104.605 30.8566 105.9 31.52C103.441 30.9139 100.922 30.5786 98.3902 30.52C93.1667 29.7496 87.8518 29.8476 82.6602 30.81C81.4691 30.9955 80.2903 31.2526 79.1302 31.58C80.8902 29.02 86.7302 27.87 89.2602 27.71C92.9876 27.5367 96.7153 28.045 100.26 29.21C100.7 29.34 101.13 29.49 101.55 29.64C101.644 29.7061 101.749 29.7537 101.86 29.78H101.9Z" fill="#F67D7D"/>
<path d="M116.25 12.52C115.214 10.1897 113.776 8.0604 112 6.23C111 5.11 109.47 2.88 107.86 2.61C107.8 2.60433 107.739 2.61269 107.683 2.63444C107.627 2.65618 107.576 2.69071 107.535 2.73531C107.495 2.77991 107.465 2.83335 107.448 2.89143C107.432 2.94951 107.429 3.01064 107.44 3.07C107.87 4.91 108.37 6.65 108.68 8.53C109.09 11.08 108.2 12.68 107.01 14.86C106.65 15.53 106.45 16.3 105.72 16.54C104.8 16.86 104.45 16.09 103.66 15.54C102.369 14.7195 100.973 14.0771 99.51 13.63C95.89 12.36 92.42 12.71 88.7 13.38C86.8513 13.6742 85.0514 14.2192 83.35 15C82.29 15.51 80.98 16 80.45 17.12C80.4288 17.1849 80.4245 17.2542 80.4376 17.3212C80.4507 17.3882 80.4807 17.4508 80.5248 17.5029C80.5689 17.555 80.6257 17.595 80.6896 17.619C80.7535 17.643 80.8225 17.6502 80.89 17.64C83.826 17.0113 86.8808 17.2404 89.6901 18.3C92.4255 19.3932 95.0562 20.732 97.5501 22.3C99.9301 23.69 101.92 25.53 104.18 27.07C106.496 28.8211 108.506 30.943 110.13 33.35C113.4 37.73 116.68 42.35 121.13 45.66C123.096 47.2301 125.291 48.4881 127.64 49.39C128.76 49.79 130.52 50.75 131.83 50.57C131.869 50.6328 131.926 50.6814 131.995 50.7084C132.064 50.7355 132.139 50.7396 132.21 50.72L132.59 50.63C132.658 50.6167 132.722 50.5858 132.775 50.5404C132.828 50.4949 132.868 50.4364 132.891 50.3708C132.914 50.3051 132.92 50.2345 132.907 50.166C132.895 50.0974 132.865 50.0333 132.82 49.98C131.39 48.44 129.29 47.98 127.51 46.98C124.921 45.3328 122.66 43.2205 120.84 40.75C118.922 38.1223 117.661 35.0743 117.16 31.86C116.793 30.12 116.993 28.3083 117.73 26.69C118.07 25.912 118.598 25.2307 119.267 24.7071C119.935 24.1835 120.723 23.834 121.56 23.69C121.628 23.6767 121.692 23.6458 121.745 23.6004C121.798 23.5549 121.838 23.4964 121.861 23.4308C121.884 23.3651 121.89 23.2945 121.877 23.226C121.865 23.1574 121.835 23.0933 121.79 23.04C120.67 21.34 117.79 20.45 115.79 20.53C114.743 20.603 113.738 20.9704 112.89 21.59C112.235 22.1081 111.644 22.7022 111.13 23.36C111.19 20.98 115.13 19.69 116.23 17.96C116.645 17.114 116.863 16.1847 116.866 15.2423C116.87 14.2999 116.659 13.369 116.25 12.52V12.52Z" fill="#F67D7D"/>
<path d="M188.12 45.76C185.44 45.28 182.41 46.83 180.02 48.28C179.955 48.1883 179.857 48.1256 179.747 48.105C179.637 48.0845 179.523 48.1078 179.43 48.17C175.56 50.73 172.17 52.97 169.82 57.08C167.901 60.5107 167.219 64.4967 167.89 68.37C168.37 71.96 170.16 75.51 173.48 77.27C175.916 78.4463 178.717 78.6186 181.28 77.75C181.991 77.728 182.695 77.6034 183.37 77.38C184.649 76.9216 185.763 76.0949 186.573 75.0039C187.383 73.913 187.851 72.6068 187.92 71.25C187.92 69.25 186.19 67.52 184.19 68.39C182.99 68.91 182.66 69.98 183.46 70.51C182.28 70.72 180.19 69.74 179.46 69.36C177.991 68.644 176.858 67.3855 176.3 65.85C175.115 62.9932 174.946 59.8166 175.82 56.85C176.393 55.3906 177.282 54.0762 178.423 53.0008C179.564 51.9255 180.929 51.1158 182.42 50.63C184.42 49.93 187.31 48.73 189.72 48.82C189.679 49.1335 189.739 49.4519 189.892 49.7286C190.045 50.0053 190.282 50.2258 190.57 50.3577C190.857 50.4897 191.179 50.5261 191.489 50.4617C191.798 50.3973 192.079 50.2355 192.29 50C193.79 48.2 189.41 46 188.12 45.76ZM171.87 55.31C172.759 54.1114 173.813 53.0442 175 52.14C174 53.2521 173.192 54.5228 172.61 55.9C169.9 62.34 168.83 70.74 174.72 75.76C175.81 76.6153 177.083 77.2074 178.44 77.49C176.452 77.6357 174.474 77.0919 172.84 75.95C169.54 73.55 168.55 69.56 168.46 65.7C168.37 61.9479 169.574 58.2793 171.87 55.31V55.31Z" fill="#F67D7D"/>
<path d="M193.79 32.83C170.94 58.74 151.41 53.83 139.1 39.57C127.52 26.18 133.76 20.82 136.65 18.57C139.54 16.32 143.13 18.36 141.5 19.57C141.055 19.8923 140.746 20.3698 140.635 20.9084C140.524 21.4471 140.618 22.0077 140.9 22.48C141.68 27.38 149.72 28.63 151.22 21.12C152.57 14.38 143.81 8.71002 134.36 10.91C134.318 10.8897 134.272 10.8791 134.225 10.8791C134.178 10.8791 134.132 10.8897 134.09 10.91C133.62 11.06 133.17 11.23 132.71 11.4C132.25 11.57 131.65 11.77 131.12 12C130.007 12.4794 128.991 13.1571 128.12 14C125.358 16.0073 123.34 18.8734 122.38 22.15C122.11 23.1644 121.975 24.2102 121.98 25.26C121.1 26.02 121.38 27.62 121.47 28.67C121.78 31.929 122.561 35.1257 123.79 38.16C126 43.92 129.68 49.16 134.99 52.45C139.956 55.4663 145.573 57.2462 151.37 57.64C154.407 57.9468 157.468 57.9233 160.5 57.57C161.923 57.3514 163.285 56.8406 164.5 56.07C165.981 55.1382 167.514 54.2902 169.09 53.53C169.153 53.4969 169.206 53.4473 169.242 53.3865C169.279 53.3257 169.298 53.256 169.298 53.185C169.298 53.114 169.279 53.0444 169.242 52.9836C169.206 52.9228 169.153 52.8731 169.09 52.84C189.72 46.14 197.73 31.41 203.95 27.84C210.69 24.01 210.79 34.92 210.79 34.92C219.71 35.73 216.64 6.93002 193.79 32.83ZM163.59 54.32C165.03 53.99 166.41 53.62 167.74 53.22C166.96 53.5385 166.21 53.9267 165.5 54.38C164.176 55.4015 162.669 56.1616 161.06 56.62C158.3 57.0668 155.493 57.1542 152.71 56.88C147.345 56.6989 142.089 55.3148 137.33 52.83C132.43 50.2205 128.468 46.1435 126 41.17C124.593 38.4451 123.528 35.5565 122.83 32.57C122.346 30.8049 122.071 28.9892 122.01 27.16C122.1 28.16 122.25 29.16 122.42 30.16C124.07 39.43 132.62 46.71 133.28 46.96C140 52.84 150.07 57.4 163.59 54.32V54.32Z" fill="#F67D7D"/>
<path d="M178.87 50.71C178.511 50.4692 178.079 50.3629 177.65 50.41C177.596 50.4517 177.535 50.4823 177.47 50.5C177.236 50.5431 176.998 50.5665 176.76 50.57C175.415 51.1007 174.15 51.814 173 52.69C171.216 53.7112 169.693 55.1316 168.55 56.84C167.514 58.6973 166.835 60.7325 166.55 62.84C166.445 63.8178 166.56 64.8068 166.887 65.7342C167.214 66.6617 167.745 67.5042 168.44 68.2C168.38 68.5609 168.38 68.9292 168.44 69.29V69.29C166.01 68.59 164.05 67.23 163.26 64.71C162.935 63.5816 162.862 62.3954 163.047 61.2358C163.232 60.0761 163.67 58.9714 164.33 58C165.81 55.71 167.57 53.12 169.97 51.71C171.224 50.9963 172.57 50.458 173.97 50.11C174.705 49.9394 175.456 49.8489 176.21 49.84C176.698 49.5824 177.245 49.4579 177.796 49.479C178.347 49.5 178.883 49.666 179.35 49.96C179.79 50.33 179.32 51 178.87 50.71Z" fill="#F67D7D"/>
<path d="M180 61.13C179.961 61.035 179.885 60.9595 179.79 60.92C179.661 60.7687 179.5 60.6487 179.318 60.569C179.136 60.4893 178.939 60.452 178.74 60.46C178.51 60.46 178.21 60.66 178.29 60.95C178.8 62.04 178.04 62.52 176.02 62.38C175.512 61.5515 175.311 60.5715 175.45 59.61C175.534 58.7662 175.667 57.928 175.85 57.1C175.93 56.58 175.12 56.51 175.02 57.03C174.65 59.2 173.79 62.63 176.44 63.8C178.16 64.56 179.31 62.99 179.24 61.46C179.24 61.58 179.32 61.71 179.35 61.84C179.62 63.16 178.28 64.42 177.13 65.14C176.71 65.34 176.3 65.54 175.88 65.71C175.67 65.79 175.29 65.83 175.13 66.02C174.23 67.09 176.21 68.02 177.08 67.69C177.147 67.6671 177.205 67.624 177.246 67.5667C177.287 67.5094 177.31 67.4406 177.31 67.37C179.22 66.66 180.66 65.63 180.64 63.37C180.629 62.595 180.416 61.8365 180.02 61.17L180 61.13Z" fill="#F67D7D"/>
<path d="M101.68 27.63C101.68 27.63 89.0498 17.63 81.5298 20.69C74.0098 23.75 76.5298 27.41 78.3798 26.56C80.2298 25.71 88.2898 19.69 101.68 27.63Z" fill="#F67D7D"/>
<path d="M275 65.26C275.19 65.8194 275.508 66.3264 275.93 66.74C275.93 66.81 275.93 66.87 276.01 66.93C276.153 67.1865 276.335 67.4192 276.55 67.62C276.65 67.78 276.77 67.95 276.9 68.12C277.362 68.7377 277.942 69.258 278.606 69.651C279.271 70.044 280.006 70.3019 280.77 70.41C281.734 70.5046 282.702 70.2799 283.526 69.7704C284.35 69.2609 284.984 68.4948 285.33 67.59C285.543 67.3589 285.719 67.0957 285.85 66.81C286.53 65.25 285.3 63.18 283.76 62.22L283.61 62.1C303.54 46.77 313.16 67.5 313.82 70.15C314.39 72.46 314.05 76.82 310.56 76.58C308.01 76.4 306.51 75.3 307.42 72.93C307.466 72.7582 307.472 72.5781 307.437 72.4037C307.402 72.2292 307.328 72.0651 307.22 71.924C307.111 71.7829 306.972 71.6685 306.813 71.5898C306.653 71.5111 306.478 71.4701 306.3 71.47C302.76 71.81 302.75 75.64 304.47 78.03C307.26 81.9 313.47 83.38 317.99 83.03C322.51 82.68 325.5 79.03 325.9 74.59C325.995 73.367 325.866 72.1369 325.52 70.96C332.84 77.48 338.27 85.63 343.77 93.96C345.37 95.6583 347.084 97.2453 348.9 98.71C355.75 104.14 364.6 107.24 370.43 113.84C370.601 114.003 370.817 114.112 371.049 114.155C371.282 114.198 371.522 114.172 371.74 114.081C371.958 113.99 372.145 113.838 372.279 113.642C372.412 113.447 372.485 113.217 372.49 112.98C372.408 110.748 371.913 108.551 371.03 106.5L371.83 106.7C376.51 107.89 381.48 107.86 386.33 108.19C396.8 108.9 413.01 84.61 409.33 74.42C407.802 74.8351 406.206 74.9304 404.64 74.7C403.69 74.61 407.7 58.03 394.76 50.33C391.24 48.24 387.62 45.33 383.65 44.27C378.38 42.81 372.65 43.62 367.46 45.27C360.2 47.56 354.46 55.73 358.54 63.12C361.18 67.89 370.18 70.84 373.63 65.3C373.753 65.078 373.802 64.8224 373.77 64.5705C373.737 64.3186 373.625 64.0836 373.45 63.9C370.98 61.22 380.58 45.82 390.72 68.9C391.546 71.1366 391.904 73.5194 391.77 75.9C391.494 77.8807 390.791 79.7777 389.71 81.46C385.62 87.46 377.39 87.29 371.05 86.02C360.25 83.85 352.97 77.34 344.63 70.8C336.29 64.26 327.54 58.54 317.39 55.68C315.597 55.1764 313.777 54.7725 311.94 54.47C306.551 52.0374 300.747 50.656 294.84 50.4C289.4 50.26 281.84 50.98 277.56 54.82C276.107 56.0829 275.082 57.7644 274.623 59.6338C274.165 61.5031 274.296 63.4685 275 65.26V65.26ZM322 59.82C326.525 61.6377 330.845 63.927 334.89 66.65C344.07 72.76 351.36 80.99 361.6 85.46C369.22 88.78 380.6 91.46 388.06 86.27C388.451 85.9925 388.828 85.6955 389.19 85.38C386.84 89.04 382.86 91.61 377.11 92.22C362.74 93.75 351.93 82.28 341.84 73.88C337.84 70.56 333.7 67.33 329.43 64.23C326.977 62.7434 324.5 61.2734 322 59.82V59.82Z" fill="#F67D7D"/>
<path d="M132.79 59.64C128.5 55.8 120.95 55.08 115.51 55.21C109.599 55.4657 103.791 56.8506 98.4 59.29C96.5787 59.5916 94.7759 59.9956 93 60.5C82.86 63.36 74 69.16 65.76 75.61C57.52 82.06 50.1 88.67 39.3 90.84C33 92.11 24.73 92.31 20.64 86.27C19.5589 84.5877 18.856 82.6906 18.58 80.71C18.447 78.3294 18.8044 75.9468 19.63 73.71C29.77 50.59 39.37 65.98 36.9 68.71C36.7223 68.8944 36.6088 69.1311 36.5764 69.3852C36.544 69.6392 36.5943 69.8969 36.72 70.12C40.17 75.66 49.17 72.71 51.81 67.93C55.89 60.48 50.15 52.3 42.89 50C37.68 48.36 31.97 47.54 26.69 49C22.69 50.1 19.11 53 15.59 55C2.65003 62.78 6.66003 79.36 5.71003 79.45C4.1378 79.6885 2.53294 79.5931 1.00003 79.17C-2.68997 89.36 13.52 113.66 24 113C28.85 112.67 33.82 112.69 38.5 111.5L39.3 111.3C38.4117 113.353 37.9164 115.554 37.84 117.79C37.8467 118.026 37.9214 118.254 38.0553 118.448C38.1891 118.642 38.3763 118.794 38.5942 118.883C38.8121 118.973 39.0514 118.998 39.2832 118.955C39.5149 118.912 39.7292 118.802 39.9 118.64C45.72 112.04 54.58 108.95 61.43 103.51C63.2439 102.043 64.9577 100.456 66.56 98.76C72.06 90.48 77.49 82.33 84.81 75.81C84.4638 76.9868 84.335 78.217 84.43 79.44C84.83 83.86 87.82 87.44 92.34 87.87C96.86 88.3 103.07 86.76 105.86 82.87C107.58 80.48 107.57 76.65 104.02 76.3C103.842 76.3012 103.666 76.3434 103.507 76.4233C103.348 76.5033 103.209 76.6188 103.102 76.761C102.995 76.9031 102.922 77.0681 102.888 77.2431C102.855 77.418 102.862 77.5983 102.91 77.77C103.82 80.13 102.32 81.23 99.76 81.41C96.27 81.66 95.93 77.29 96.51 74.99C97.17 72.33 106.79 51.61 126.72 66.93L126.57 67.06C125.03 68.06 123.8 70.06 124.48 71.64C124.608 71.9274 124.784 72.1911 125 72.42C125.345 73.3239 125.977 74.0899 126.799 74.6009C127.62 75.1119 128.587 75.3399 129.55 75.25C130.316 75.1414 131.054 74.8823 131.72 74.4875C132.386 74.0928 132.967 73.5703 133.43 72.95C133.556 72.7898 133.673 72.6229 133.78 72.45C133.994 72.2523 134.176 72.023 134.32 71.77C134.32 71.71 134.37 71.64 134.4 71.58C134.816 71.1637 135.131 70.6573 135.32 70.1C136.032 68.3089 136.17 66.3412 135.717 64.4679C135.264 62.5947 134.241 60.9079 132.79 59.64V59.64ZM80.86 69C76.59 72.11 72.44 75.34 68.45 78.66C58.36 87.09 47.54 98.57 33.18 97C27.43 96.39 23.44 93.82 21.1 90.16C21.4545 90.4839 21.8321 90.7813 22.23 91.05C29.7 96.24 41.07 93.57 48.69 90.24C58.93 85.77 66.22 77.55 75.39 71.44C79.4373 68.7151 83.7613 66.4257 88.29 64.61C85.8 66.08 83.32 67.54 80.86 69Z" fill="#F67D7D"/>
</svg>
