<svg width="411" height="86" viewBox="0 0 411 86" fill="none" xmlns="http://www.w3.org/2000/svg">
<path d="M196.49 35.57C197.82 33.21 198.38 30.43 196.86 29.17C195.34 27.91 192.86 28.77 190.86 29.54C188.86 30.31 187.04 31.23 187.03 31.23C186.12 30.42 184.82 29.28 183.19 27.88C181.56 26.48 179.39 24.71 176.88 22.88C174.067 20.8127 171.002 19.1123 167.76 17.82C163.878 16.3449 159.74 15.6648 155.59 15.82C151.291 16.0311 147.033 16.7631 142.91 18L139.91 18.92L137.08 19.72C135.22 20.22 133.31 20.72 131.45 21.18C127.917 22.0673 124.339 22.7584 120.73 23.25C107.17 25.07 99.8298 22.61 95.2898 21.2C93.0298 20.48 91.5098 19.94 90.5298 19.69C90.0608 19.5541 89.5776 19.4735 89.0898 19.45C89.1859 19.9231 89.3545 20.3785 89.5898 20.8C90.3893 22.4393 91.4881 23.9146 92.8298 25.15C95.6431 27.8348 99.0227 29.8544 102.72 31.06C107.56 32.76 114.18 33.55 121.98 32.49C126 31.9261 129.964 31.0195 133.83 29.78C134.08 29.71 134.31 29.62 134.56 29.54C134.934 30.6844 135.381 31.8035 135.9 32.89C137.282 35.8107 139.187 38.4541 141.52 40.69C146.453 45.1898 152.615 48.1177 159.22 49.1C165.126 50.0827 171.173 49.8169 176.97 48.32C183.049 46.8616 188.658 43.8816 193.27 39.66C194.515 38.4411 195.597 37.0664 196.49 35.57V35.57ZM186.55 31.47C182.367 33.6572 178.052 35.581 173.63 37.23C169.15 38.9022 164.476 39.9977 159.72 40.49C154.286 41.1376 148.785 40.0898 143.97 37.49C141.471 36.0722 139.276 34.1761 137.51 31.91C136.834 31.0505 136.228 30.1375 135.7 29.18C137.06 28.73 138.4 28.25 139.77 27.74L142.71 26.6L145.45 25.44C148.907 23.9778 152.506 22.8786 156.19 22.16C159.579 21.5396 163.055 21.577 166.43 22.27C172.97 23.67 178.49 26.94 182.37 29.03C184.1 30.08 185.51 30.88 186.55 31.47Z" fill="white"/>
<path d="M134.68 12C131.57 10.2672 128.189 9.07364 124.68 8.46999C120.26 7.73089 115.761 7.57288 111.3 7.99999C106.18 8.49873 101.106 9.38459 96.12 10.65C90.74 11.86 85.12 12.98 79.49 13.97C68.19 15.9 56.54 17.14 45.94 16.75C37.3313 16.5804 28.79 15.1933 20.57 12.63C18.98 12.08 17.49 11.58 16.14 11.06L12.42 9.35999C10.4696 8.44614 8.59096 7.38647 6.8 6.18999C6.05 5.70999 5.37 5.25999 4.8 4.82999C4.23 4.39999 3.72 3.92999 3.26 3.54999C2.36 2.75999 1.7 2.12 1.26 1.63C0.780878 1.19394 0.357651 0.700172 0 0.159995C0.637782 0.155793 1.27435 0.216092 1.9 0.339988C2.57 0.449988 3.45 0.629995 4.57 0.909995L6.4 1.41L8.69 1.91999C20.943 5.22549 33.5437 7.07162 46.23 7.41999C56.9892 7.68556 67.7544 7.26471 78.46 6.16C84 5.62 89.62 4.99999 95 4.35999C100.346 3.57276 105.748 3.23824 111.15 3.35999C115.958 3.46046 120.729 4.2209 125.33 5.61999C128.978 6.74821 132.402 8.50089 135.45 10.8C137.419 12.3004 139.187 14.0481 140.71 16L142.25 18.15L140.41 16.26C138.681 14.6119 136.756 13.1813 134.68 12V12Z" fill="white"/>
<path d="M227.08 50.68C226.265 50.9498 225.483 51.3122 224.75 51.76C225.425 51.7519 226.096 51.6646 226.75 51.5C224.02 52.22 220.91 54.56 217.9 57.78C211.37 65.44 205.6 77.34 205.73 85.19C205.676 83.6834 205.472 82.186 205.12 80.72C204.767 82.1853 204.566 83.6833 204.52 85.19C204.65 77.34 198.87 65.43 192.34 57.78C189.34 54.56 186.23 52.22 183.49 51.5C184.144 51.6646 184.816 51.7519 185.49 51.76C184.756 51.314 183.975 50.9517 183.16 50.68C192.16 53.39 204.7 40.85 204.53 29.31C204.561 30.6605 204.749 32.0028 205.09 33.31C205.426 32.0019 205.614 30.6601 205.65 29.31C205.54 40.85 218.09 53.39 227.08 50.68Z" fill="white"/>
<path d="M270.38 19L267.38 18.08C263.257 16.8431 258.999 16.1111 254.7 15.9C250.55 15.7448 246.412 16.425 242.53 17.9C239.287 19.1924 236.223 20.8927 233.41 22.96C230.9 24.76 228.82 26.48 227.1 27.96C225.38 29.44 224.17 30.5 223.26 31.31C223.26 31.31 221.48 30.4 219.43 29.62C217.38 28.84 215.04 28.06 213.43 29.25C211.82 30.44 212.43 33.25 213.79 35.65C214.678 37.1619 215.757 38.5533 217 39.79C221.611 44.0116 227.22 46.9916 233.3 48.45C239.097 49.947 245.144 50.2127 251.05 49.23C257.654 48.2453 263.815 45.3178 268.75 40.82C271.083 38.5866 272.985 35.9424 274.36 33.02C274.878 31.9318 275.329 30.8131 275.71 29.67C275.95 29.75 276.19 29.84 276.44 29.91C280.306 31.1495 284.27 32.0561 288.29 32.62C296.09 33.68 302.71 32.89 307.55 31.19C311.247 29.9844 314.627 27.9648 317.44 25.28C318.779 24.0418 319.877 22.5671 320.68 20.93C320.915 20.5085 321.084 20.0531 321.18 19.58C320.692 19.6036 320.209 19.6841 319.74 19.82C318.74 20.07 317.25 20.61 314.98 21.33C310.44 22.74 303.1 25.2 289.53 23.38C285.925 22.8865 282.349 22.1954 278.82 21.31C276.96 20.89 275.05 20.31 273.19 19.85L270.38 19ZM267.59 26.68L270.52 27.82C271.9 28.33 273.25 28.82 274.6 29.26C274.068 30.2153 273.463 31.1281 272.79 31.99C271.026 34.2585 268.831 36.155 266.33 37.57C261.518 40.1684 256.02 41.2162 250.59 40.57C245.831 40.0779 241.153 38.9824 236.67 37.31C232.245 35.6591 227.927 33.7354 223.74 31.55L227.93 29.16C231.81 27.07 237.34 23.8 243.87 22.4C247.241 21.707 250.715 21.6697 254.1 22.29C257.785 23.0058 261.384 24.1051 264.84 25.57L267.59 26.68Z" fill="white"/>
<path d="M407.07 3.54L405.53 4.82001C404.93 5.25001 404.26 5.7 403.53 6.18C401.743 7.37665 399.867 8.43636 397.92 9.35001L394.2 11.05C392.83 11.57 391.35 12.05 389.76 12.62C381.54 15.1833 372.999 16.5704 364.39 16.74C353.79 17.13 342.14 15.89 330.83 13.96C325.18 12.96 319.6 11.85 314.21 10.64C309.214 9.37649 304.13 8.49396 299 8.00001C294.549 7.57336 290.061 7.728 285.65 8.46001C282.142 9.067 278.762 10.2604 275.65 11.99C273.564 13.171 271.627 14.5979 269.88 16.24C268.7 17.47 268.04 18.13 268.04 18.13L269.59 15.98C271.113 14.0281 272.881 12.2804 274.85 10.78C277.899 8.47676 281.328 6.72376 284.98 5.60001C289.574 4.20001 294.339 3.43952 299.14 3.34C304.545 3.21769 309.951 3.55221 315.3 4.34C320.71 5 326.3 5.60001 331.88 6.14001C342.586 7.24472 353.351 7.66557 364.11 7.4C376.793 7.0529 389.391 5.20674 401.64 1.9L403.93 1.39001L405.77 0.890006C406.88 0.610006 407.77 0.430014 408.44 0.320014C409.066 0.196455 409.702 0.136143 410.34 0.140006C409.998 0.668679 409.599 1.15827 409.15 1.60001C408.63 2.11001 408 2.75 407.07 3.54Z" fill="white"/>
</svg>
