<svg width="133" height="133" viewBox="0 0 133 133" fill="none" xmlns="http://www.w3.org/2000/svg">
<path d="M66 124.66C98.0325 124.66 124 98.6922 124 66.6597C124 34.6272 98.0325 8.65967 66 8.65967C33.9675 8.65967 8 34.6272 8 66.6597C8 98.6922 33.9675 124.66 66 124.66Z" fill="#FABEBE"/>
<path d="M45.0304 44.0697C45.021 45.166 44.6873 46.235 44.0714 47.1419C43.4555 48.0488 42.5849 48.7532 41.5694 49.1662C40.5539 49.5792 39.4388 49.6824 38.3647 49.4628C37.2907 49.2432 36.3056 48.7106 35.5337 47.932C34.7619 47.1535 34.2377 46.164 34.0272 45.0881C33.8168 44.0121 33.9295 42.898 34.3512 41.886C34.7729 40.8741 35.4846 40.0096 36.3968 39.4014C37.309 38.7933 38.3808 38.4688 39.4771 38.4688C40.2104 38.4687 40.9364 38.6139 41.6133 38.896C42.2902 39.178 42.9045 39.5914 43.4208 40.1121C43.9371 40.6328 44.3452 41.2507 44.6214 41.9299C44.8977 42.6092 45.0367 43.3365 45.0304 44.0697Z" fill="#FDE5E5" stroke="#F67D7D" stroke-width="1.6" stroke-miterlimit="10"/>
<path d="M56.2802 67.6533L48.7009 55.3073C48.1374 54.3882 47.3472 53.6294 46.406 53.1035C45.4649 52.5777 44.4045 52.3024 43.3264 52.3042H35.4135C34.3413 52.3017 33.2863 52.5743 32.3495 53.0959C31.4127 53.6175 30.6254 54.3707 30.0628 55.2835L22.5193 67.4984C22.1314 68.1325 21.9946 68.8887 22.1357 69.6185C22.2768 70.3484 22.6857 70.9991 23.282 71.4429C23.5993 71.6724 23.9602 71.8342 24.3426 71.9185C24.725 72.0028 25.1206 72.0076 25.5049 71.9328C25.8892 71.8579 26.2541 71.7049 26.5768 71.4833C26.8996 71.2617 27.1735 70.9762 27.3814 70.6445L31.8384 63.6969L31.9814 71.7528L31.326 91.38C31.2866 92.1353 31.5078 92.8812 31.9524 93.4929C32.3971 94.1046 33.0384 94.5451 33.769 94.7406C34.2292 94.8388 34.7054 94.8344 35.1637 94.7277C35.6221 94.6211 36.0514 94.4149 36.421 94.1237C36.7907 93.8325 37.0917 93.4635 37.3027 93.0429C37.5138 92.6222 37.6296 92.1603 37.642 91.6899L38.3451 71.7647H40.6212L41.372 91.6065C41.3863 92.3552 41.6548 93.0769 42.1334 93.6529C42.612 94.2289 43.2722 94.6251 44.0056 94.7764C44.4748 94.8492 44.9544 94.817 45.4096 94.6819C45.8648 94.5468 46.2843 94.3123 46.6378 93.9953C46.9913 93.6783 47.2699 93.2867 47.4536 92.8488C47.6373 92.411 47.7214 91.9378 47.6999 91.4635L47.0087 71.7647L47.1398 63.959L51.3346 70.6445C51.7311 71.2895 52.3583 71.7593 53.0888 71.9586C53.8192 72.1578 54.5981 72.0714 55.2672 71.717C55.6098 71.5256 55.9096 71.266 56.1479 70.9542C56.3863 70.6425 56.5583 70.2852 56.6532 69.9044C56.7481 69.5236 56.764 69.1274 56.6998 68.7402C56.6357 68.353 56.4928 67.9831 56.2802 67.6533Z" fill="#FDE5E5" stroke="#F67D7D" stroke-width="1.6" stroke-linejoin="round"/>
<path d="M98.2279 44.0697C98.2185 45.166 97.8848 46.235 97.2689 47.1419C96.653 48.0488 95.7824 48.7532 94.7669 49.1662C93.7514 49.5792 92.6363 49.6824 91.5623 49.4628C90.4882 49.2432 89.5031 48.7106 88.7313 47.932C87.9594 47.1535 87.4352 46.164 87.2247 45.0881C87.0143 44.0121 87.127 42.898 87.5487 41.886C87.9704 40.8741 88.6822 40.0096 89.5943 39.4014C90.5065 38.7933 91.5783 38.4688 92.6746 38.4688C93.4079 38.4687 94.1339 38.6139 94.8108 38.896C95.4877 39.178 96.102 39.5914 96.6183 40.1121C97.1346 40.6328 97.5427 41.2507 97.8189 41.9299C98.0952 42.6092 98.2342 43.3365 98.2279 44.0697Z" fill="#FDE5E5" stroke="#F67D7D" stroke-width="1.6" stroke-miterlimit="10"/>
<path d="M109.478 67.6533L101.898 55.3073C101.335 54.3882 100.545 53.6294 99.6034 53.1035C98.6623 52.5777 97.6018 52.3024 96.5237 52.3042H88.6466C87.5744 52.3017 86.5194 52.5743 85.5826 53.0959C84.6458 53.6175 83.8585 54.3707 83.2959 55.2835L75.7167 67.4984C75.3302 68.1319 75.1931 68.8864 75.3318 69.6153C75.4706 70.3443 75.8753 70.9957 76.4674 71.4429C76.7857 71.6726 77.1476 71.8347 77.5309 71.9191C77.9141 72.0035 78.3107 72.0084 78.6959 71.9336C79.0812 71.8587 79.447 71.7058 79.7709 71.484C80.0947 71.2623 80.3697 70.9766 80.5788 70.6445L85.0715 63.6492L85.2145 71.7051L84.5233 91.38C84.4839 92.1353 84.7051 92.8812 85.1498 93.4929C85.5945 94.1046 86.2358 94.5451 86.9663 94.7406C87.4266 94.8388 87.9028 94.8344 88.3611 94.7277C88.8195 94.6211 89.2487 94.4149 89.6184 94.1237C89.9881 93.8325 90.2891 93.4635 90.5001 93.0429C90.7111 92.6222 90.8269 92.1603 90.8393 91.6899L91.5424 71.7647H93.8067L94.4979 91.6065C94.5122 92.3552 94.7806 93.0769 95.2592 93.6529C95.7378 94.2289 96.398 94.6251 97.1315 94.7764C97.6007 94.8492 98.0802 94.817 98.5354 94.6819C98.9906 94.5468 99.4101 94.3123 99.7636 93.9953C100.117 93.6783 100.396 93.2867 100.579 92.8488C100.763 92.411 100.847 91.9378 100.826 91.4635L100.135 71.7647L100.266 63.959L104.532 70.6445C104.928 71.2895 105.556 71.7593 106.286 71.9586C107.017 72.1578 107.796 72.0714 108.465 71.717C108.807 71.5256 109.107 71.266 109.345 70.9542C109.584 70.6425 109.756 70.2852 109.851 69.9044C109.945 69.5236 109.961 69.1274 109.897 68.7402C109.833 68.353 109.69 67.9831 109.478 67.6533Z" fill="#FDE5E5" stroke="#F67D7D" stroke-width="1.6" stroke-linejoin="round"/>
<path d="M49.3206 36.4429V30.4844H82.6881V35.6921" stroke="#F67D7D" stroke-width="1.6" stroke-linecap="round" stroke-linejoin="round"/>
<path d="M56.9475 39.3248V37.5171H60.0967V45.8165H58.073V39.3248H56.9475Z" fill="#F67D7D"/>
<path d="M72.124 39.4044C72.9122 39.4044 73.5375 39.6431 73.9999 40.1206C74.4698 40.5981 74.7048 41.2613 74.7048 42.1102V45.8165H72.772V42.3717C72.772 41.9624 72.6621 41.6479 72.4423 41.428C72.2301 41.2007 71.9345 41.087 71.5555 41.087C71.1765 41.087 70.8772 41.2007 70.6574 41.428C70.4451 41.6479 70.339 41.9624 70.339 42.3717V45.8165H68.4063V42.3717C68.4063 41.9624 68.2964 41.6479 68.0766 41.428C67.8644 41.2007 67.5688 41.087 67.1898 41.087C66.8108 41.087 66.5114 41.2007 66.2916 41.428C66.0794 41.6479 65.9733 41.9624 65.9733 42.3717V45.8165H64.0292V39.4726H65.9733V40.2684C66.1704 40.0031 66.4281 39.7947 66.7464 39.6431C67.0647 39.4839 67.4248 39.4044 67.8265 39.4044C68.304 39.4044 68.7284 39.5067 69.0998 39.7113C69.4788 39.916 69.7744 40.2078 69.9866 40.5867C70.2064 40.2381 70.5058 39.9539 70.8847 39.7341C71.2637 39.5143 71.6768 39.4044 72.124 39.4044Z" fill="#F67D7D"/>
</svg>
