<svg width="90" height="67" viewBox="0 0 90 67" fill="none" xmlns="http://www.w3.org/2000/svg">
<g clip-path="url(#clip0_567_109)">
<path d="M81.3107 41.9991C70.3661 37.2515 57.972 41.1791 47.4671 45.1478L46.6528 45.4512C46.327 45.0904 45.9931 44.7296 45.6756 44.3688C38.3466 36.1691 26.2049 26.7886 26.4573 14.7268C26.6039 7.73243 31.9622 2.3288 39.0062 2.63219C46.6365 2.95198 50.9931 10.5039 48.9247 17.5229C48.4443 19.1628 50.8873 19.8024 51.441 18.2281C53.4036 12.6851 56.0827 6.02688 62.2635 4.28854C63.782 3.85246 65.375 3.74566 66.9375 3.9752C68.4999 4.20474 69.9963 4.7654 71.3277 5.62015C72.6591 6.47491 73.7953 7.60431 74.6613 8.93381C75.5273 10.2633 76.1034 11.7626 76.3515 13.3328C78.4769 25.8292 59.9182 34.6521 50.7081 38.4158C49.9589 38.7192 50.244 39.9328 51.0502 39.6622C62.9638 35.6935 87.0599 24.7059 78.1349 7.92102C76.5566 4.98562 74.0339 2.67796 70.981 1.37712C67.9281 0.07627 64.5265 -0.140416 61.3352 0.762653C55.9932 2.21401 53.1023 6.19908 51.1723 10.8237C49.8449 5.94488 46.2863 1.73022 41.1723 0.418263C33.086 -1.63987 25.13 4.19834 23.884 12.2751C22.2554 22.5821 29.5844 30.8475 36.099 37.7352C38.7782 40.5641 41.3759 43.557 44.0469 46.4843C41.9866 47.3043 39.8205 48.2063 37.5892 49.0673C36.0746 47.1731 34.6006 45.2462 33.1267 43.3275C28.1674 36.8743 21.8808 29.4781 13.0371 29.3469C9.8763 29.2579 6.79706 30.3645 4.40639 32.4484C2.01572 34.5324 0.487077 37.4425 0.121815 40.6051C-0.912387 47.8045 3.84332 53.3557 10.6348 54.9629C19.6821 57.1112 28.2651 54.9629 36.7749 51.8962C40.2603 56.2338 43.2896 59.6941 45.6593 62.236C45.9362 62.5312 50.6837 67.6233 52.5322 66.9427C52.687 66.8935 53.1674 66.7131 53.2244 66.3769C53.314 65.8685 52.4101 65.3273 52.1414 65.1633C49.2098 63.3512 43.5501 57.0538 40.928 53.5607C40.5615 53.0687 39.9182 52.1832 39.169 51.0106L45.871 48.4523C50.301 53.1589 55.0241 57.5458 60.7163 60.6207C68.4199 64.7861 79.6821 66.6311 86.7749 60.0549C93.6397 53.6755 88.4931 45.1068 81.3107 41.9991ZM9.2912 51.4206C3.26514 48.4113 1.33517 40.1214 6.52247 35.2179C13.542 28.5925 23.2489 36.1855 28.0616 41.5563C30.5046 44.295 32.8254 47.1567 35.187 49.9774C26.5143 53.1343 17.1495 55.3401 9.2912 51.4206ZM72.5159 60.9487C62.6137 60.4485 55.0811 54.3397 48.542 47.4601C55.6186 44.8526 62.7521 42.7207 70.187 43.0241C75.7244 43.2537 84.2097 45.0658 86.1804 51.2894C88.5013 58.6199 77.5241 61.2193 72.5159 60.9487Z" fill="#C7A9C0"/>
</g>
<defs>
<clipPath id="clip0_567_109">
<rect width="90" height="67" fill="white"/>
</clipPath>
</defs>
</svg>
