<svg width="280" height="182" viewBox="0 0 280 182" fill="none" xmlns="http://www.w3.org/2000/svg">
<g clip-path="url(#clip0_341_34)">
<path d="M85.6267 156.486C85.127 156.48 84.6404 156.326 84.2286 156.044C10.2303 108.213 -6.82001 58.7843 2.18254 28.5417C7.57044 10.3757 22.4042 -0.680342 40.6139 3.20316e-05C74.7145 1.3948 86.7861 25.48 91.0146 39.2576C96.5048 25.9563 110.929 3.12975 144.894 4.89872C162.728 5.85125 176.266 17.7238 180.256 35.9238C183.973 52.9331 178.619 73.3443 165.183 92.769C149.054 116.208 122.694 137.606 86.752 156.282C86.3982 156.437 86.0127 156.507 85.6267 156.486V156.486ZM38.9089 5.10284C23.8364 5.10284 11.6284 14.6621 7.12713 29.9705C-5.66059 73.0722 41.2277 121.821 85.7631 151.043C161.432 111.207 181.279 64.6356 175.243 37.0124C173.982 29.6968 170.25 23.0319 164.667 18.1246C159.084 13.2173 151.986 10.3629 144.553 10.0355C101.552 7.72228 93.4016 47.8643 92.9924 49.5313C92.8782 50.1344 92.5498 50.6762 92.0675 51.0574C91.5852 51.4385 90.9814 51.6334 90.3667 51.6064C89.7501 51.5705 89.1659 51.3189 88.7168 50.8958C88.2677 50.4727 87.9826 49.9052 87.9114 49.2931C87.9114 47.5582 83.3761 6.90583 40.3411 5.06882L38.9089 5.10284Z" fill="#F67D7D"/>
<path d="M193.009 78.7873C193.009 78.7873 190.963 34.0187 235.942 25.7181C280.921 17.4176 315.703 92.4288 212.856 182C84.0921 136.721 88.4229 54.1918 133.47 45.3129C178.517 36.434 193.009 78.7873 193.009 78.7873Z" fill="#F67D7D"/>
<path d="M16.8116 28.0994C16.1167 28.0924 15.4442 27.8528 14.902 27.419C14.289 26.914 13.8991 26.1891 13.8162 25.4003C13.7333 24.6114 13.964 23.8216 14.4587 23.2007C18.6768 17.8039 24.4923 13.8704 31.0792 11.9589C37.6661 10.0475 44.6892 10.2553 51.1509 12.5529C51.8925 12.8506 52.4852 13.4301 52.7986 14.1637C53.1119 14.8974 53.1203 15.7252 52.8218 16.465C52.5234 17.2049 51.9426 17.7961 51.2071 18.1087C50.4717 18.4213 49.6419 18.4297 48.9003 18.1319C43.6639 16.2846 37.9744 16.1458 32.6538 17.7357C27.3332 19.3256 22.657 22.5619 19.301 26.9768C19.0029 27.345 18.6224 27.6384 18.1901 27.8333C17.7577 28.0283 17.2856 28.1194 16.8116 28.0994V28.0994Z" fill="#F67D7D"/>
<path d="M224.825 151.179C224.308 151.178 223.798 151.047 223.345 150.797C222.892 150.547 222.51 150.187 222.234 149.75C222.029 149.413 221.893 149.039 221.834 148.65C221.775 148.26 221.793 147.863 221.888 147.48C221.984 147.098 222.153 146.738 222.388 146.421C222.623 146.104 222.918 145.837 223.257 145.634C223.598 145.43 256.232 125.223 264.621 77.5967C264.754 76.8244 265.187 76.1352 265.824 75.6772C266.462 75.2193 267.254 75.029 268.031 75.1474C268.797 75.2965 269.477 75.7314 269.933 76.3634C270.39 76.9954 270.587 77.777 270.486 78.5492C261.586 128.659 227.758 149.614 226.155 150.499C225.773 150.829 225.317 151.063 224.825 151.179V151.179Z" fill="#F8FEFF"/>
</g>
<defs>
<clipPath id="clip0_341_34">
<rect width="280" height="182" fill="white"/>
</clipPath>
</defs>
</svg>
