<svg width="133" height="133" viewBox="0 0 133 133" fill="none" xmlns="http://www.w3.org/2000/svg">
<path d="M66 124.66C98.0325 124.66 124 98.6922 124 66.6597C124 34.6272 98.0325 8.65967 66 8.65967C33.9675 8.65967 8 34.6272 8 66.6597C8 98.6922 33.9675 124.66 66 124.66Z" fill="#FABEBE"/>
<path d="M39.4295 73.3379C44.6619 68.1055 44.6619 59.6221 39.4295 54.3896C34.1971 49.1572 25.7136 49.1572 20.4812 54.3896C15.2488 59.6221 15.2488 68.1055 20.4812 73.3379C25.7136 78.5703 34.1971 78.5703 39.4295 73.3379Z" stroke="#F67D7D" stroke-width="1.6" stroke-miterlimit="10"/>
<path d="M111.278 73.312C116.556 68.0335 116.556 59.4753 111.278 54.1968C105.999 48.9183 97.4413 48.9183 92.1628 54.1968C86.8843 59.4753 86.8843 68.0335 92.1628 73.312C97.4413 78.5905 105.999 78.5905 111.278 73.312Z" stroke="#F67D7D" stroke-width="1.6" stroke-miterlimit="10"/>
<path d="M84.9767 47.8137C78.7232 45.8996 76.6912 39.4102 65.8754 39.4102C55.0596 39.4102 54.1813 45.4146 46.9707 47.8137C42.1987 49.5161 37.1935 50.4755 32.1302 50.6586L31.9204 77.3768C31.9204 77.3768 45.817 92.2829 66.0065 92.2829C86.196 92.2829 100.093 77.3768 100.093 77.3768V50.4619C94.9535 50.3042 89.8634 49.4124 84.9767 47.8137Z" fill="#FDE5E5" stroke="#F67D7D" stroke-width="2" stroke-miterlimit="10"/>
<path d="M75.1967 60.9238H56.8164V79.3172H75.1967V60.9238Z" fill="#FDE5E5" stroke="#F67D7D" stroke-width="1.6" stroke-miterlimit="10"/>
<path d="M31.7893 59.1807H37.348" stroke="#F67D7D" stroke-width="1.6" stroke-miterlimit="10"/>
<path d="M31.7893 68.9609H37.348" stroke="#F67D7D" stroke-width="1.6" stroke-miterlimit="10"/>
<path d="M100.224 59.1807H94.6652" stroke="#F67D7D" stroke-width="1.6" stroke-miterlimit="10"/>
<path d="M68.7859 70.1143H63.2404" stroke="#F67D7D" stroke-width="1.6" stroke-miterlimit="10"/>
<path d="M100.224 68.9609H94.6652" stroke="#F67D7D" stroke-width="1.6" stroke-miterlimit="10"/>
</svg>
