<svg width="133" height="133" viewBox="0 0 133 133" fill="none" xmlns="http://www.w3.org/2000/svg">
<path d="M67 124.66C99.0325 124.66 125 98.6922 125 66.6597C125 34.6272 99.0325 8.65967 67 8.65967C34.9675 8.65967 9 34.6272 9 66.6597C9 98.6922 34.9675 124.66 67 124.66Z" fill="#FABEBE"/>
<path d="M84.4781 41.714C79.5244 46.5241 72.8938 49.2183 65.989 49.2268C72.8664 49.1531 79.4527 46.4403 84.3869 41.6489L84.4781 41.714Z" fill="white" stroke="#F67D7D" stroke-linecap="round" stroke-linejoin="round"/>
<path d="M101.105 54.9684C101.105 58.6011 99.5036 61.5437 97.5245 61.5437C97.2895 61.5438 97.0562 61.5042 96.8344 61.4265C95.5324 69.2388 91.3138 75.8141 85.6889 79.1994C83.0336 80.838 79.9748 81.7059 76.8546 81.7059C73.7343 81.7059 70.6755 80.838 68.0202 79.1994C62.3823 75.8141 58.1897 69.2909 56.8617 61.4395C56.6444 61.5173 56.4153 61.5569 56.1846 61.5567C54.2055 61.5567 52.5909 58.6141 52.5909 54.9814C52.5909 51.3487 54.2055 48.4712 56.1846 48.4712C56.5771 48.5295 56.9728 48.5643 57.3694 48.5753C59.5965 49.0165 61.8574 49.2648 64.1271 49.3175C64.7651 49.3175 65.4291 49.3175 65.989 49.3175C72.8937 49.309 79.5243 46.6147 84.478 41.8047C85.3764 42.4948 90.4544 47.7941 96.3006 48.4451C96.3006 48.5623 97.1339 48.4451 97.5245 48.4451C99.5036 48.393 101.105 51.3357 101.105 54.9684Z" fill="#FDE5E5" stroke="#F67D7D" stroke-linecap="round" stroke-linejoin="round"/>
<path d="M85.6889 79.2V92.6111H68.0201V79.187C70.6755 80.8256 73.7343 81.6934 76.8545 81.6934C79.9748 81.6934 83.0335 80.8256 85.6889 79.187V79.2Z" fill="#FDE5E5"/>
<path d="M85.6889 79.2V92.6111H68.0201V79.187C70.6755 80.8256 73.7343 81.6934 76.8545 81.6934C79.9748 81.6934 83.0335 80.8256 85.6889 79.187V79.2Z" stroke="#F67D7D" stroke-linecap="round" stroke-linejoin="round"/>
<path d="M96.7564 42.0003V48.3804H96.4959C90.3633 47.6903 85.077 41.8701 84.5692 41.6748L84.4781 41.7399C79.5244 46.55 72.8938 49.2442 65.989 49.2527C65.3901 49.2527 64.7651 49.2527 64.1271 49.2527C61.9404 49.1836 59.763 48.9354 57.6169 48.5106L57.0179 48.3934V42.0003C57.0053 39.8414 57.4863 37.7082 58.4242 35.7635C60.4553 31.6881 65.2729 25.9722 76.4314 25.6597H77.421C88.2019 25.9591 93.0455 31.3105 95.2069 35.3599C96.2589 37.4133 96.7909 39.6934 96.7564 42.0003Z" fill="#F8A4A4" stroke="#F67D7D" stroke-linecap="round" stroke-linejoin="round"/>
<path d="M96.9646 30.4126C99.3564 34.3031 100.224 38.9411 99.3994 43.433" stroke="#F67D7D" stroke-linecap="round" stroke-linejoin="round"/>
<path d="M54.4268 67.5469C54.7185 70.1204 55.5688 72.5992 56.9181 74.81C58.2675 77.0207 60.0835 78.9101 62.239 80.346" stroke="#F67D7D" stroke-linecap="round" stroke-linejoin="round"/>
<path d="M96.8604 70.7759C95.5137 75.0835 92.889 78.8798 89.3346 81.661" stroke="#F67D7D" stroke-linecap="round" stroke-linejoin="round"/>
<path d="M102.212 32.3525C102.576 34.6181 102.928 36.8967 103.293 39.1622L102.212 32.3525Z" fill="white"/>
<path d="M102.212 32.3525C102.576 34.6181 102.928 36.8967 103.293 39.1622" stroke="#F67D7D" stroke-linecap="round" stroke-linejoin="round"/>
<path d="M60.1168 27.0923C58.1417 28.6237 56.6072 30.6508 55.6696 32.9675C54.7319 35.2842 54.4244 37.8079 54.7784 40.282" stroke="#F67D7D" stroke-linecap="round" stroke-linejoin="round"/>
<path d="M63.8406 44.1489C66.5885 44.3723 69.3508 43.9533 71.9089 42.9251C74.467 41.8969 76.7508 40.2876 78.5797 38.2246" fill="#F8A4A4"/>
<path d="M63.8406 44.1489C66.5885 44.3723 69.3508 43.9533 71.9089 42.9251C74.467 41.8969 76.7508 40.2876 78.5797 38.2246" stroke="#F67D7D" stroke-linecap="round" stroke-linejoin="round"/>
<path d="M47.6707 73.694C47.6699 75.1422 47.28 76.5637 46.542 77.8098C45.8039 79.056 44.7447 80.081 43.475 80.7777C42.2053 81.4744 40.7718 81.8173 39.3243 81.7706C37.8767 81.7238 36.4683 81.2891 35.2463 80.5119C34.0242 79.7346 33.0334 78.6434 32.3773 77.3523C31.7211 76.0611 31.4239 74.6174 31.5166 73.1721C31.6092 71.7268 32.0884 70.3329 32.904 69.1361C33.7197 67.9393 34.8418 66.9836 36.1531 66.3688V42.228C36.1531 41.3299 36.5099 40.4686 37.1449 39.8336C37.7799 39.1986 38.6412 38.8418 39.5393 38.8418C40.4373 38.8418 41.2986 39.1986 41.9336 39.8336C42.5687 40.4686 42.9254 41.3299 42.9254 42.228V66.3688C44.3378 67.0032 45.5369 68.0319 46.3786 69.3314C47.2204 70.6308 47.6691 72.1457 47.6707 73.694Z" fill="#FDE5E5" stroke="#F67D7D" stroke-linecap="round" stroke-linejoin="round"/>
<path d="M39.5392 47.3652H42.672" stroke="#F67D7D" stroke-linecap="round" stroke-linejoin="round"/>
<path d="M36.5908 52.6636H39.0556" stroke="#F67D7D" stroke-linecap="round" stroke-linejoin="round"/>
<path d="M48.5256 102.318C49.2567 102.318 49.8367 102.54 50.2656 102.983C50.7015 103.426 50.9194 104.041 50.9194 104.828V108.266H49.1267V105.071C49.1267 104.691 49.0247 104.399 48.8208 104.196C48.624 103.985 48.3498 103.879 47.9983 103.879C47.6468 103.879 47.3691 103.985 47.1652 104.196C46.9684 104.399 46.8699 104.691 46.8699 105.071V108.266H45.0772V105.071C45.0772 104.691 44.9753 104.399 44.7714 104.196C44.5745 103.985 44.3004 103.879 43.9488 103.879C43.5973 103.879 43.3196 103.985 43.1158 104.196C42.9189 104.399 42.8205 104.691 42.8205 105.071V108.266H41.0172V102.382H42.8205V103.12C43.0033 102.874 43.2423 102.681 43.5376 102.54C43.8328 102.392 44.1668 102.318 44.5394 102.318C44.9823 102.318 45.376 102.413 45.7205 102.603C46.072 102.793 46.3462 103.064 46.543 103.415C46.7469 103.092 47.0246 102.828 47.3761 102.624C47.7276 102.42 48.1108 102.318 48.5256 102.318Z" fill="#F67D7D"/>
<path d="M51.822 105.313C51.822 104.709 51.9345 104.178 52.1595 103.721C52.3915 103.264 52.7043 102.913 53.098 102.666C53.4917 102.42 53.9311 102.297 54.4162 102.297C54.831 102.297 55.193 102.382 55.5024 102.55C55.8187 102.719 56.0613 102.941 56.23 103.215V102.382H58.0333V108.266H56.23V107.433C56.0543 107.707 55.8082 107.929 55.4918 108.097C55.1825 108.266 54.8204 108.35 54.4057 108.35C53.9276 108.35 53.4917 108.227 53.098 107.981C52.7043 107.728 52.3915 107.373 52.1595 106.916C51.9345 106.452 51.822 105.918 51.822 105.313ZM56.23 105.324C56.23 104.874 56.1035 104.519 55.8504 104.259C55.6043 103.999 55.302 103.869 54.9435 103.869C54.5849 103.869 54.2791 103.999 54.026 104.259C53.78 104.512 53.6569 104.863 53.6569 105.313C53.6569 105.763 53.78 106.122 54.026 106.389C54.2791 106.649 54.5849 106.779 54.9435 106.779C55.302 106.779 55.6043 106.649 55.8504 106.389C56.1035 106.129 56.23 105.774 56.23 105.324Z" fill="#F67D7D"/>
<path d="M62.8179 108.266L61.6895 106.632L60.7404 108.266H58.7895L60.7299 105.261L58.7368 102.382H60.7615L61.8899 104.006L62.839 102.382H64.7899L62.8179 105.345L64.8426 108.266H62.8179Z" fill="#F67D7D"/>
<path d="M67.6562 102.74C67.6843 101.988 67.9304 101.408 68.3944 101C68.8584 100.593 69.4876 100.389 70.282 100.389C70.8093 100.389 71.2592 100.48 71.6318 100.663C72.0115 100.846 72.2962 101.095 72.486 101.412C72.6829 101.728 72.7813 102.083 72.7813 102.477C72.7813 102.941 72.6653 103.32 72.4333 103.616C72.2013 103.904 71.9306 104.101 71.6213 104.206V104.248C72.022 104.382 72.3384 104.603 72.5704 104.913C72.8024 105.222 72.9184 105.619 72.9184 106.104C72.9184 106.54 72.8164 106.927 72.6125 107.264C72.4157 107.595 72.1239 107.855 71.7373 108.045C71.3576 108.234 70.9042 108.329 70.3769 108.329C69.5333 108.329 68.8584 108.122 68.3522 107.707C67.853 107.292 67.5894 106.667 67.5613 105.83H69.3118C69.3188 106.139 69.4067 106.386 69.5755 106.568C69.7442 106.744 69.9902 106.832 70.3136 106.832C70.5878 106.832 70.7987 106.755 70.9464 106.6C71.101 106.438 71.1784 106.227 71.1784 105.967C71.1784 105.63 71.0694 105.387 70.8515 105.24C70.6405 105.085 70.2996 105.008 69.8285 105.008H69.4911V103.542H69.8285C70.1871 103.542 70.4753 103.482 70.6933 103.362C70.9182 103.236 71.0307 103.014 71.0307 102.698C71.0307 102.445 70.9604 102.248 70.8198 102.108C70.6792 101.967 70.4859 101.897 70.2398 101.897C69.9727 101.897 69.7723 101.978 69.6387 102.139C69.5122 102.301 69.4384 102.501 69.4173 102.74H67.6562Z" fill="#F67D7D"/>
<path d="M78.892 101.918L76.2451 108.266H74.3997L77.0782 102.118H73.7986V100.578H78.892V101.918Z" fill="#F67D7D"/>
<path d="M79.4104 102.688C79.4104 102.104 79.6108 101.644 80.0115 101.306C80.4122 100.962 80.9395 100.789 81.5933 100.789C82.2471 100.789 82.7709 100.962 83.1646 101.306C83.5653 101.644 83.7657 102.104 83.7657 102.688C83.7657 103.271 83.5653 103.739 83.1646 104.09C82.7709 104.435 82.2507 104.607 81.6039 104.607C81.175 104.607 80.7954 104.53 80.465 104.375C80.1345 104.213 79.8744 103.988 79.6846 103.7C79.5018 103.412 79.4104 103.074 79.4104 102.688ZM82.3737 102.698C82.3737 102.396 82.2964 102.164 82.1417 102.002C81.987 101.84 81.8042 101.76 81.5933 101.76C81.3754 101.76 81.1891 101.84 81.0344 102.002C80.8797 102.164 80.8024 102.396 80.8024 102.698C80.8024 103 80.8797 103.232 81.0344 103.394C81.1961 103.549 81.3859 103.626 81.6039 103.626C81.8148 103.626 81.994 103.549 82.1417 103.394C82.2964 103.232 82.3737 103 82.3737 102.698Z" fill="#F67D7D"/>
<path d="M84.3762 104.554C84.3762 103.823 84.5343 103.173 84.8507 102.603C85.1671 102.027 85.6065 101.58 86.1689 101.264C86.7383 100.941 87.3816 100.779 88.0987 100.779C88.9775 100.779 89.7297 101.011 90.3554 101.475C90.9811 101.939 91.3994 102.572 91.6104 103.373H89.6278C89.4802 103.064 89.2693 102.828 88.9951 102.666C88.7279 102.505 88.4221 102.424 88.0776 102.424C87.5222 102.424 87.0723 102.617 86.7278 103.004C86.3833 103.391 86.2111 103.907 86.2111 104.554C86.2111 105.201 86.3833 105.718 86.7278 106.104C87.0723 106.491 87.5222 106.684 88.0776 106.684C88.4221 106.684 88.7279 106.603 88.9951 106.442C89.2693 106.28 89.4802 106.045 89.6278 105.735H91.6104C91.3994 106.537 90.9811 107.169 90.3554 107.633C89.7297 108.09 88.9775 108.319 88.0987 108.319C87.3816 108.319 86.7383 108.161 86.1689 107.844C85.6065 107.521 85.1671 107.074 84.8507 106.505C84.5343 105.936 84.3762 105.285 84.3762 104.554Z" fill="#F67D7D"/>
</svg>
