<svg width="133" height="132" viewBox="0 0 133 132" fill="none" xmlns="http://www.w3.org/2000/svg">
<path d="M67 124C99.0325 124 125 98.0325 125 66C125 33.9675 99.0325 8 67 8C34.9675 8 9 33.9675 9 66C9 98.0325 34.9675 124 67 124Z" fill="#F9F6F8"/>
<path d="M84.478 41.0544C79.5243 45.8644 72.8937 48.5587 65.989 48.5672C72.8663 48.4934 79.4526 45.7806 84.3869 40.9893L84.478 41.0544Z" fill="white" stroke="#7F6C7A" stroke-linecap="round" stroke-linejoin="round"/>
<path d="M101.105 54.3087C101.105 57.9414 99.5036 60.884 97.5245 60.884C97.2895 60.8842 97.0562 60.8445 96.8344 60.7668C95.5324 68.5791 91.3137 75.1544 85.6889 78.5398C83.0335 80.1784 79.9748 81.0462 76.8545 81.0462C73.7343 81.0462 70.6755 80.1784 68.0201 78.5398C62.3823 75.1544 58.1897 68.6312 56.8616 60.7799C56.6444 60.8576 56.4153 60.8972 56.1846 60.897C54.2054 60.897 52.5909 57.9544 52.5909 54.3217C52.5909 50.689 54.2054 47.8115 56.1846 47.8115C56.5771 47.8698 56.9727 47.9046 57.3694 47.9157C59.5964 48.3568 61.8574 48.6051 64.127 48.6578C64.765 48.6578 65.4291 48.6578 65.989 48.6578C72.8937 48.6493 79.5243 45.9551 84.478 41.145C85.3764 41.8351 90.4544 47.1344 96.3006 47.7855C96.3006 47.9026 97.1339 47.7855 97.5245 47.7855C99.5036 47.7334 101.105 50.676 101.105 54.3087Z" fill="#E3D4DF" stroke="#7F6C7A" stroke-linecap="round" stroke-linejoin="round"/>
<path d="M85.6889 78.5404V91.9514H68.0201V78.5273C70.6755 80.166 73.7343 81.0338 76.8545 81.0338C79.9748 81.0338 83.0335 80.166 85.6889 78.5273V78.5404Z" fill="#F9F6F8"/>
<path d="M85.6889 78.5404V91.9514H68.0201V78.5273C70.6755 80.166 73.7343 81.0338 76.8545 81.0338C79.9748 81.0338 83.0335 80.166 85.6889 78.5273V78.5404Z" fill="#E3D4DF" stroke="#7F6C7A" stroke-linecap="round" stroke-linejoin="round"/>
<path d="M96.7563 41.3407V47.7207H96.4959C90.3632 47.0306 85.0769 41.2105 84.5691 41.0152L84.478 41.0803C79.5243 45.8903 72.8937 48.5846 65.9889 48.5931C65.39 48.5931 64.765 48.5931 64.127 48.5931C61.9403 48.524 59.7629 48.2757 57.6168 47.8509L57.0179 47.7337V41.3407C57.0052 39.1817 57.4862 37.0485 58.4241 35.1039C60.4553 31.0285 65.2728 25.3125 76.4313 25H77.4209C88.2018 25.2995 93.0454 30.6509 95.2068 34.7002C96.2588 36.7536 96.7908 39.0338 96.7563 41.3407Z" fill="#C7A9C0" stroke="#7F6C7A" stroke-linecap="round" stroke-linejoin="round"/>
<path d="M96.9646 29.7529C99.3564 33.6434 100.224 38.2815 99.3994 42.7734L96.9646 29.7529Z" fill="#F9F6F8"/>
<path d="M96.9646 29.7529C99.3564 33.6434 100.224 38.2815 99.3994 42.7734" stroke="#7F6C7A" stroke-linecap="round" stroke-linejoin="round"/>
<path d="M54.4268 66.8872C54.7185 69.4608 55.5688 71.9395 56.9182 74.1503C58.2676 76.361 60.0835 78.2504 62.2391 79.6863" fill="#F9F6F8"/>
<path d="M54.4268 66.8872C54.7185 69.4608 55.5688 71.9395 56.9182 74.1503C58.2676 76.361 60.0835 78.2504 62.2391 79.6863" stroke="#7F6C7A" stroke-linecap="round" stroke-linejoin="round"/>
<path d="M96.8604 70.1162C95.5137 74.4238 92.889 78.2201 89.3346 81.0013L96.8604 70.1162Z" fill="#F9F6F8"/>
<path d="M96.8604 70.1162C95.5137 74.4238 92.889 78.2201 89.3346 81.0013" stroke="#7F6C7A" stroke-linecap="round" stroke-linejoin="round"/>
<path d="M102.212 31.6929C102.576 33.9584 102.928 36.237 103.293 38.5026L102.212 31.6929Z" fill="white"/>
<path d="M102.212 31.6929C102.576 33.9584 102.928 36.237 103.293 38.5026" stroke="#7F6C7A" stroke-linecap="round" stroke-linejoin="round"/>
<path d="M60.1167 26.4326C58.1416 27.964 56.6072 29.9911 55.6695 32.3078C54.7318 34.6246 54.4244 37.1483 54.7783 39.6223" fill="#F9F6F8"/>
<path d="M60.1167 26.4326C58.1416 27.964 56.6072 29.9911 55.6695 32.3078C54.7318 34.6246 54.4244 37.1483 54.7783 39.6223" stroke="#7F6C7A" stroke-linecap="round" stroke-linejoin="round"/>
<path d="M63.8406 43.4893C66.5885 43.7126 69.3508 43.2936 71.9089 42.2654C74.467 41.2372 76.7508 39.628 78.5797 37.5649" fill="#C7A9C0"/>
<path d="M63.8406 43.4893C66.5885 43.7126 69.3508 43.2936 71.9089 42.2654C74.467 41.2372 76.7508 39.628 78.5797 37.5649" stroke="#7F6C7A" stroke-linecap="round" stroke-linejoin="round"/>
<path d="M47.6707 73.0343C47.6699 74.4826 47.28 75.9041 46.542 77.1502C45.8039 78.3963 44.7447 79.4213 43.475 80.118C42.2053 80.8148 40.7718 81.1577 39.3243 81.1109C37.8767 81.0641 36.4683 80.6294 35.2463 79.8522C34.0242 79.075 33.0334 77.9837 32.3773 76.6926C31.7211 75.4014 31.4239 73.9578 31.5166 72.5125C31.6092 71.0671 32.0884 69.6732 32.904 68.4764C33.7197 67.2797 34.8418 66.3239 36.1531 65.7091V41.5683C36.1531 40.6702 36.5099 39.8089 37.1449 39.1739C37.7799 38.5389 38.6412 38.1821 39.5393 38.1821C40.4373 38.1821 41.2986 38.5389 41.9336 39.1739C42.5687 39.8089 42.9254 40.6702 42.9254 41.5683V65.7091C44.3378 66.3435 45.5369 67.3722 46.3786 68.6717C47.2204 69.9711 47.6691 71.486 47.6707 73.0343Z" fill="#C7A9C0" stroke="#7F6C7A" stroke-linecap="round" stroke-linejoin="round"/>
<path d="M39.5392 46.7056H42.672" stroke="#7F6C7A" stroke-linecap="round" stroke-linejoin="round"/>
<path d="M36.5908 52.0039H39.0555" stroke="#7F6C7A" stroke-linecap="round" stroke-linejoin="round"/>
<path d="M48.5256 101.659C49.2567 101.659 49.8367 101.88 50.2656 102.323C50.7015 102.766 50.9194 103.381 50.9194 104.169V107.606H49.1267V104.411C49.1267 104.032 49.0247 103.74 48.8208 103.536C48.624 103.325 48.3498 103.22 47.9983 103.22C47.6468 103.22 47.3691 103.325 47.1652 103.536C46.9684 103.74 46.8699 104.032 46.8699 104.411V107.606H45.0772V104.411C45.0772 104.032 44.9753 103.74 44.7714 103.536C44.5745 103.325 44.3004 103.22 43.9488 103.22C43.5973 103.22 43.3196 103.325 43.1158 103.536C42.9189 103.74 42.8205 104.032 42.8205 104.411V107.606H41.0172V101.722H42.8205V102.46C43.0033 102.214 43.2423 102.021 43.5376 101.88C43.8328 101.733 44.1668 101.659 44.5394 101.659C44.9823 101.659 45.376 101.754 45.7205 101.944C46.072 102.133 46.3462 102.404 46.543 102.756C46.7469 102.432 47.0246 102.169 47.3761 101.965C47.7276 101.761 48.1108 101.659 48.5256 101.659Z" fill="#7F6C7A"/>
<path d="M51.822 104.654C51.822 104.049 51.9345 103.518 52.1595 103.061C52.3915 102.604 52.7043 102.253 53.098 102.007C53.4917 101.761 53.9311 101.638 54.4162 101.638C54.831 101.638 55.193 101.722 55.5024 101.891C55.8187 102.06 56.0613 102.281 56.23 102.555V101.722H58.0333V107.606H56.23V106.773C56.0543 107.048 55.8082 107.269 55.4918 107.438C55.1825 107.606 54.8204 107.691 54.4057 107.691C53.9276 107.691 53.4917 107.568 53.098 107.322C52.7043 107.069 52.3915 106.714 52.1595 106.257C51.9345 105.793 51.822 105.258 51.822 104.654ZM56.23 104.664C56.23 104.214 56.1035 103.859 55.8504 103.599C55.6043 103.339 55.302 103.209 54.9435 103.209C54.5849 103.209 54.2791 103.339 54.026 103.599C53.78 103.852 53.6569 104.204 53.6569 104.654C53.6569 105.104 53.78 105.462 54.026 105.729C54.2791 105.989 54.5849 106.12 54.9435 106.12C55.302 106.12 55.6043 105.989 55.8504 105.729C56.1035 105.469 56.23 105.114 56.23 104.664Z" fill="#7F6C7A"/>
<path d="M62.8179 107.606L61.6895 105.972L60.7404 107.606H58.7895L60.7299 104.601L58.7368 101.722H60.7615L61.8899 103.346L62.839 101.722H64.7899L62.8179 104.685L64.8426 107.606H62.8179Z" fill="#7F6C7A"/>
<path d="M67.6562 102.081C67.6843 101.328 67.9304 100.748 68.3944 100.341C68.8584 99.9329 69.4876 99.729 70.282 99.729C70.8093 99.729 71.2592 99.8204 71.6318 100.003C72.0115 100.186 72.2962 100.436 72.486 100.752C72.6829 101.068 72.7813 101.423 72.7813 101.817C72.7813 102.281 72.6653 102.661 72.4333 102.956C72.2013 103.244 71.9306 103.441 71.6213 103.546V103.589C72.022 103.722 72.3384 103.944 72.5704 104.253C72.8024 104.562 72.9184 104.96 72.9184 105.445C72.9184 105.881 72.8164 106.267 72.6125 106.605C72.4157 106.935 72.1239 107.195 71.7373 107.385C71.3576 107.575 70.9042 107.67 70.3769 107.67C69.5333 107.67 68.8584 107.462 68.3522 107.048C67.853 106.633 67.5894 106.007 67.5613 105.17H69.3118C69.3188 105.48 69.4067 105.726 69.5755 105.909C69.7442 106.084 69.9902 106.172 70.3136 106.172C70.5878 106.172 70.7987 106.095 70.9464 105.94C71.101 105.779 71.1784 105.568 71.1784 105.308C71.1784 104.97 71.0694 104.728 70.8515 104.58C70.6405 104.425 70.2996 104.348 69.8285 104.348H69.4911V102.882H69.8285C70.1871 102.882 70.4753 102.822 70.6933 102.703C70.9182 102.576 71.0307 102.355 71.0307 102.038C71.0307 101.785 70.9604 101.589 70.8198 101.448C70.6792 101.307 70.4859 101.237 70.2398 101.237C69.9727 101.237 69.7723 101.318 69.6387 101.48C69.5122 101.641 69.4384 101.842 69.4173 102.081H67.6562Z" fill="#7F6C7A"/>
<path d="M78.892 101.258L76.2451 107.606H74.3997L77.0782 101.458H73.7986V99.9187H78.892V101.258Z" fill="#7F6C7A"/>
<path d="M79.4104 102.028C79.4104 101.444 79.6108 100.984 80.0115 100.646C80.4122 100.302 80.9395 100.13 81.5933 100.13C82.2471 100.13 82.7709 100.302 83.1646 100.646C83.5653 100.984 83.7657 101.444 83.7657 102.028C83.7657 102.611 83.5653 103.079 83.1646 103.43C82.7709 103.775 82.2507 103.947 81.6039 103.947C81.175 103.947 80.7954 103.87 80.465 103.715C80.1345 103.553 79.8744 103.329 79.6846 103.04C79.5018 102.752 79.4104 102.415 79.4104 102.028ZM82.3737 102.038C82.3737 101.736 82.2964 101.504 82.1417 101.342C81.987 101.181 81.8042 101.1 81.5933 101.1C81.3754 101.1 81.1891 101.181 81.0344 101.342C80.8797 101.504 80.8024 101.736 80.8024 102.038C80.8024 102.341 80.8797 102.573 81.0344 102.734C81.1961 102.889 81.3859 102.966 81.6039 102.966C81.8148 102.966 81.994 102.889 82.1417 102.734C82.2964 102.573 82.3737 102.341 82.3737 102.038Z" fill="#7F6C7A"/>
<path d="M84.3762 103.894C84.3762 103.163 84.5343 102.513 84.8507 101.944C85.1671 101.367 85.6065 100.921 86.1689 100.604C86.7383 100.281 87.3816 100.119 88.0987 100.119C88.9775 100.119 89.7297 100.351 90.3554 100.815C90.9811 101.279 91.3994 101.912 91.6104 102.713H89.6278C89.4802 102.404 89.2693 102.169 88.9951 102.007C88.7279 101.845 88.4221 101.764 88.0776 101.764C87.5222 101.764 87.0723 101.958 86.7278 102.344C86.3833 102.731 86.2111 103.248 86.2111 103.894C86.2111 104.541 86.3833 105.058 86.7278 105.445C87.0723 105.831 87.5222 106.025 88.0776 106.025C88.4221 106.025 88.7279 105.944 88.9951 105.782C89.2693 105.62 89.4802 105.385 89.6278 105.076H91.6104C91.3994 105.877 90.9811 106.51 90.3554 106.974C89.7297 107.431 88.9775 107.659 88.0987 107.659C87.3816 107.659 86.7383 107.501 86.1689 107.185C85.6065 106.861 85.1671 106.415 84.8507 105.845C84.5343 105.276 84.3762 104.626 84.3762 103.894Z" fill="#7F6C7A"/>
</svg>
