<svg width="133" height="132" viewBox="0 0 133 132" fill="none" xmlns="http://www.w3.org/2000/svg">
<path d="M67 124C99.0325 124 125 98.0325 125 66C125 33.9675 99.0325 8 67 8C34.9675 8 9 33.9675 9 66C9 98.0325 34.9675 124 67 124Z" fill="#C7A9C0"/>
<path d="M84.4793 41.0545C79.5256 45.8645 72.895 48.5588 65.9902 48.5673C72.8676 48.4936 79.4539 45.7807 84.3881 40.9894L84.4793 41.0545Z" fill="white" stroke="white" stroke-linecap="round" stroke-linejoin="round"/>
<path d="M101.106 54.3088C101.106 57.9415 99.5045 60.8841 97.5254 60.8841C97.2904 60.8843 97.0571 60.8447 96.8353 60.767C95.5332 68.5792 91.3146 75.1546 85.6898 78.5399C83.0344 80.1785 79.9757 81.0463 76.8554 81.0463C73.7352 81.0463 70.6764 80.1785 68.021 78.5399C62.3832 75.1546 58.1906 68.6313 56.8625 60.78C56.6452 60.8577 56.4162 60.8974 56.1854 60.8972C54.2063 60.8972 52.5918 57.9545 52.5918 54.3218C52.5918 50.6891 54.2063 47.8116 56.1854 47.8116C56.578 47.87 56.9736 47.9048 57.3703 47.9158C59.5973 48.357 61.8582 48.6053 64.1279 48.6579C64.7659 48.6579 65.43 48.6579 65.9898 48.6579C72.8946 48.6494 79.5252 45.9552 84.4789 41.1451C85.3773 41.8352 90.4553 47.1346 96.3015 47.7856C96.3015 47.9028 97.1348 47.7856 97.5254 47.7856C99.5045 47.7335 101.106 50.6761 101.106 54.3088Z" fill="#C7A9C0" stroke="white" stroke-linecap="round" stroke-linejoin="round"/>
<path d="M85.6902 78.5405V91.9516H68.0215V78.5275C70.6768 80.1661 73.7356 81.0339 76.8559 81.0339C79.9761 81.0339 83.0349 80.1661 85.6902 78.5275V78.5405Z" fill="#C7A9C0"/>
<path d="M85.6902 78.5405V91.9516H68.0215V78.5275C70.6768 80.1661 73.7356 81.0339 76.8559 81.0339C79.9761 81.0339 83.0349 80.1661 85.6902 78.5275V78.5405Z" stroke="white" stroke-linecap="round" stroke-linejoin="round"/>
<path d="M96.7562 41.3409V47.7209H96.4958C90.3632 47.0308 85.0769 41.2106 84.5691 41.0153L84.478 41.0804C79.5243 45.8905 72.8936 48.5847 65.9889 48.5932C65.39 48.5932 64.765 48.5932 64.127 48.5932C61.9403 48.5241 59.7629 48.2759 57.6168 47.8511L57.0178 47.7339V41.3409C57.0052 39.1819 57.4862 37.0487 58.424 35.1041C60.4552 31.0287 65.2728 25.3127 76.4313 25.0002H77.4209C88.2018 25.2997 93.0454 30.6511 95.2068 34.7004C96.2587 36.7538 96.7908 39.034 96.7562 41.3409V41.3409Z" fill="#C7A9C0" stroke="white" stroke-linecap="round" stroke-linejoin="round"/>
<path d="M96.9648 29.7531C99.3567 33.6435 100.224 38.2816 99.3997 42.7735" stroke="white" stroke-linecap="round" stroke-linejoin="round"/>
<path d="M54.4277 66.8873C54.7195 69.4609 55.5697 71.9397 56.9191 74.1504C58.2685 76.3612 60.0844 78.2505 62.24 79.6864" stroke="white" stroke-linecap="round" stroke-linejoin="round"/>
<path d="M96.8618 70.1163C95.5151 74.4239 92.8904 78.2202 89.3359 81.0014" stroke="white" stroke-linecap="round" stroke-linejoin="round"/>
<path d="M102.213 31.693C102.577 33.9586 102.929 36.2371 103.294 38.5027Z" fill="white"/>
<path d="M102.213 31.693C102.577 33.9586 102.929 36.2371 103.294 38.5027" stroke="white" stroke-linecap="round" stroke-linejoin="round"/>
<path d="M60.1178 26.4327C58.1426 27.9641 56.6082 29.9912 55.6706 32.308C54.7329 34.6247 54.4254 37.1484 54.7794 39.6225" stroke="white" stroke-linecap="round" stroke-linejoin="round"/>
<path d="M63.8418 43.4894C66.5897 43.7127 69.352 43.2938 71.9101 42.2655C74.4682 41.2373 76.752 39.6281 78.5809 37.5651" fill="#C7A9C0"/>
<path d="M63.8418 43.4894C66.5897 43.7127 69.352 43.2938 71.9101 42.2655C74.4682 41.2373 76.752 39.6281 78.5809 37.5651" stroke="white" stroke-linecap="round" stroke-linejoin="round"/>
<path d="M47.6707 73.0343C47.6699 74.4826 47.28 75.9041 46.542 77.1502C45.8039 78.3963 44.7447 79.4213 43.475 80.1181C42.2053 80.8148 40.7718 81.1577 39.3243 81.111C37.8767 81.0642 36.4683 80.6295 35.2463 79.8523C34.0242 79.075 33.0334 77.9838 32.3773 76.6927C31.7211 75.4015 31.4239 73.9578 31.5166 72.5125C31.6092 71.0672 32.0884 69.6733 32.904 68.4765C33.7197 67.2797 34.8418 66.324 36.1531 65.7092V41.5684C36.1531 40.6703 36.5099 39.809 37.1449 39.174C37.7799 38.5389 38.6412 38.1822 39.5393 38.1822C40.4373 38.1822 41.2986 38.5389 41.9336 39.174C42.5687 39.809 42.9254 40.6703 42.9254 41.5684V65.7092C44.3378 66.3436 45.5369 67.3723 46.3786 68.6717C47.2204 69.9712 47.6691 71.4861 47.6707 73.0343V73.0343Z" fill="#C7A9C0" stroke="white" stroke-linecap="round" stroke-linejoin="round"/>
<path d="M39.5391 46.7056H42.6719" stroke="white" stroke-linecap="round" stroke-linejoin="round"/>
<path d="M36.5898 52.004H39.0546" stroke="white" stroke-linecap="round" stroke-linejoin="round"/>
<path d="M48.5259 101.659C49.2571 101.659 49.8371 101.88 50.2659 102.323C50.7018 102.766 50.9198 103.381 50.9198 104.169V107.607H49.127V104.411C49.127 104.032 49.0251 103.74 48.8212 103.536C48.6244 103.325 48.3502 103.22 47.9987 103.22C47.6472 103.22 47.3695 103.325 47.1656 103.536C46.9687 103.74 46.8703 104.032 46.8703 104.411V107.607H45.0776V104.411C45.0776 104.032 44.9756 103.74 44.7718 103.536C44.5749 103.325 44.3007 103.22 43.9492 103.22C43.5977 103.22 43.32 103.325 43.1161 103.536C42.9193 103.74 42.8209 104.032 42.8209 104.411V107.607H41.0176V101.722H42.8209V102.46C43.0036 102.214 43.2427 102.021 43.5379 101.88C43.8332 101.733 44.1672 101.659 44.5398 101.659C44.9827 101.659 45.3764 101.754 45.7209 101.944C46.0724 102.133 46.3465 102.404 46.5434 102.756C46.7473 102.432 47.025 102.169 47.3765 101.965C47.728 101.761 48.1112 101.659 48.5259 101.659Z" fill="white"/>
<path d="M51.8224 104.654C51.8224 104.049 51.9349 103.518 52.1598 103.061C52.3918 102.604 52.7047 102.253 53.0984 102.007C53.4921 101.761 53.9315 101.638 54.4166 101.638C54.8314 101.638 55.1934 101.722 55.5027 101.891C55.8191 102.06 56.0617 102.281 56.2304 102.555V101.722H58.0337V107.607H56.2304V106.773C56.0546 107.048 55.8086 107.269 55.4922 107.438C55.1829 107.607 54.8208 107.691 54.406 107.691C53.928 107.691 53.4921 107.568 53.0984 107.322C52.7047 107.069 52.3918 106.714 52.1598 106.257C51.9349 105.793 51.8224 105.258 51.8224 104.654ZM56.2304 104.664C56.2304 104.214 56.1038 103.859 55.8507 103.599C55.6047 103.339 55.3024 103.209 54.9438 103.209C54.5853 103.209 54.2795 103.339 54.0264 103.599C53.7803 103.852 53.6573 104.204 53.6573 104.654C53.6573 105.104 53.7803 105.462 54.0264 105.729C54.2795 105.99 54.5853 106.12 54.9438 106.12C55.3024 106.12 55.6047 105.99 55.8507 105.729C56.1038 105.469 56.2304 105.114 56.2304 104.664Z" fill="white"/>
<path d="M62.8182 107.607L61.6899 105.972L60.7408 107.607H58.7899L60.7302 104.601L58.7372 101.722H60.7619L61.8902 103.346L62.8393 101.722H64.7902L62.8182 104.685L64.843 107.607H62.8182Z" fill="white"/>
<path d="M67.6565 102.081C67.6847 101.328 67.9307 100.748 68.3947 100.341C68.8587 99.9329 69.4879 99.7291 70.2824 99.7291C70.8096 99.7291 71.2596 99.8205 71.6322 100.003C72.0118 100.186 72.2966 100.436 72.4864 100.752C72.6832 101.068 72.7816 101.423 72.7816 101.817C72.7816 102.281 72.6656 102.661 72.4336 102.956C72.2016 103.244 71.931 103.441 71.6216 103.547V103.589C72.0224 103.722 72.3387 103.944 72.5707 104.253C72.8027 104.562 72.9187 104.96 72.9187 105.445C72.9187 105.881 72.8168 106.267 72.6129 106.605C72.4161 106.935 72.1243 107.195 71.7376 107.385C71.358 107.575 70.9046 107.67 70.3773 107.67C69.5336 107.67 68.8587 107.462 68.3525 107.048C67.8534 106.633 67.5898 106.007 67.5616 105.171H69.3122C69.3192 105.48 69.4071 105.726 69.5758 105.909C69.7446 106.084 69.9906 106.172 70.314 106.172C70.5882 106.172 70.7991 106.095 70.9467 105.94C71.1014 105.779 71.1787 105.568 71.1787 105.308C71.1787 104.97 71.0698 104.728 70.8518 104.58C70.6409 104.425 70.2999 104.348 69.8289 104.348H69.4915V102.882H69.8289C70.1875 102.882 70.4757 102.822 70.6936 102.703C70.9186 102.576 71.0311 102.355 71.0311 102.039C71.0311 101.785 70.9608 101.589 70.8202 101.448C70.6796 101.307 70.4862 101.237 70.2402 101.237C69.973 101.237 69.7727 101.318 69.6391 101.48C69.5126 101.641 69.4387 101.842 69.4176 102.081H67.6565Z" fill="white"/>
<path d="M78.8924 101.258L76.2455 107.607H74.4L77.0786 101.459H73.7989V99.9189H78.8924V101.258Z" fill="white"/>
<path d="M79.4108 102.028C79.4108 101.444 79.6111 100.984 80.0119 100.647C80.4126 100.302 80.9399 100.13 81.5937 100.13C82.2475 100.13 82.7713 100.302 83.165 100.647C83.5657 100.984 83.7661 101.444 83.7661 102.028C83.7661 102.611 83.5657 103.079 83.165 103.431C82.7713 103.775 82.251 103.947 81.6042 103.947C81.1754 103.947 80.7957 103.87 80.4653 103.715C80.1349 103.554 79.8748 103.329 79.685 103.04C79.5022 102.752 79.4108 102.415 79.4108 102.028ZM82.3741 102.039C82.3741 101.736 82.2967 101.504 82.1421 101.343C81.9874 101.181 81.8046 101.1 81.5937 101.1C81.3757 101.1 81.1894 101.181 81.0348 101.343C80.8801 101.504 80.8028 101.736 80.8028 102.039C80.8028 102.341 80.8801 102.573 81.0348 102.735C81.1965 102.889 81.3863 102.967 81.6042 102.967C81.8151 102.967 81.9944 102.889 82.1421 102.735C82.2967 102.573 82.3741 102.341 82.3741 102.039Z" fill="white"/>
<path d="M84.3765 103.895C84.3765 103.163 84.5347 102.513 84.8511 101.944C85.1674 101.367 85.6068 100.921 86.1693 100.604C86.7387 100.281 87.382 100.119 88.0991 100.119C88.9779 100.119 89.7301 100.351 90.3558 100.815C90.9815 101.279 91.3998 101.912 91.6107 102.713H89.6282C89.4805 102.404 89.2696 102.169 88.9954 102.007C88.7283 101.845 88.4225 101.764 88.078 101.764C87.5226 101.764 87.0727 101.958 86.7282 102.344C86.3837 102.731 86.2114 103.248 86.2114 103.895C86.2114 104.541 86.3837 105.058 86.7282 105.445C87.0727 105.831 87.5226 106.025 88.078 106.025C88.4225 106.025 88.7283 105.944 88.9954 105.782C89.2696 105.62 89.4805 105.385 89.6282 105.076H91.6107C91.3998 105.877 90.9815 106.51 90.3558 106.974C89.7301 107.431 88.9779 107.659 88.0991 107.659C87.382 107.659 86.7387 107.501 86.1693 107.185C85.6068 106.861 85.1674 106.415 84.8511 105.845C84.5347 105.276 84.3765 104.626 84.3765 103.895Z" fill="white"/>
</svg>
