<svg width="133" height="132" viewBox="0 0 133 132" fill="none" xmlns="http://www.w3.org/2000/svg">
<path d="M66.5 124.885C98.5325 124.885 124.5 98.7198 124.5 66.4427C124.5 34.1657 98.5325 8 66.5 8C34.4675 8 8.5 34.1657 8.5 66.4427C8.5 98.7198 34.4675 124.885 66.5 124.885Z" fill="#F4E4E1"/>
<path d="M85.632 28.8188C82.5254 33.2217 80.1134 38.0824 78.4818 43.2284C78.0023 44.5418 77.7055 45.9157 77.5999 47.3111C77.5999 49.5404 78.4788 51.6784 80.0432 53.2547C81.6076 54.8311 83.7294 55.7167 85.9418 55.7167C88.1663 55.72 90.3023 54.8393 91.8863 53.2656C93.4704 51.692 94.3746 49.5524 94.4029 47.3111C94.3376 46.3675 94.141 45.4378 93.8189 44.5493C91.8728 38.9285 89.1141 33.628 85.632 28.8188V28.8188Z" fill="#CC796B" stroke="#A36055" stroke-width="1.6" stroke-miterlimit="10"/>
<path d="M87.0144 50.9618C86.3723 50.9634 85.7362 50.8372 85.1427 50.5903C84.5492 50.3434 84.01 49.9809 83.556 49.5234C83.1019 49.0659 82.7421 48.5225 82.4971 47.9245C82.2521 47.3265 82.1268 46.6856 82.1284 46.0386" stroke="#A36055" stroke-width="1.6" stroke-miterlimit="10" stroke-linecap="round"/>
<path d="M100.886 77.2717C100.803 76.6165 100.489 76.0133 100.001 75.5723C99.5127 75.1314 98.8835 74.8821 98.2282 74.8701L71.2719 74.0535C71.0364 74.048 70.8114 73.9537 70.6416 73.7891C70.4717 73.6246 70.3692 73.4019 70.3543 73.165C70.341 72.9127 70.4256 72.6652 70.5902 72.4747C70.7548 72.2843 70.9865 72.1657 71.2362 72.1443L95.7018 70.4512C96.0632 70.4243 96.4152 70.3219 96.7352 70.1505C97.0552 69.979 97.3363 69.7423 97.5605 69.4554C97.7847 69.1685 97.9472 68.8376 98.0375 68.4839C98.1278 68.1302 98.1441 67.7615 98.0852 67.4011C97.9552 66.7617 97.6028 66.1901 97.0915 65.7894C96.5802 65.3887 95.9436 65.1852 95.2966 65.2157L80.1024 65.648C73.703 65.8041 66.6243 64.7954 61.1783 64.3511C60.6085 64.3083 60.0667 64.0855 59.6298 63.7146C59.1929 63.3437 58.8831 62.8434 58.7445 62.2849C58.606 61.7264 58.6456 61.1381 58.8579 60.6037C59.0702 60.0692 59.4443 59.6157 59.927 59.3078L62.8824 57.3985C65.5573 56.0656 67.6708 53.8124 68.8409 51.0463L69.1507 50.2658C69.3548 49.8019 69.4638 49.3013 69.4713 48.794C69.4788 48.2866 69.3846 47.783 69.1943 47.3132C69.004 46.8434 68.7216 46.4172 68.364 46.06C68.0063 45.7028 67.5808 45.422 67.1129 45.2344C66.7893 45.1066 66.4332 45.0878 66.0981 45.1808C65.763 45.2739 65.4668 45.4739 65.2539 45.7508L61.8575 49.4853L51.8234 54.8408C42.9214 60.4365 41.0981 66.5486 41.0981 66.5486L27.4174 66.3805V88.7633L40.7883 89.0275C44.5436 92.1922 49.1653 94.1313 54.04 94.5872C57.2851 95.0097 60.5519 95.2423 63.8238 95.2836L83.1889 99.0181C83.7112 99.1324 84.2566 99.0609 84.7324 98.8157C85.2082 98.5705 85.585 98.1668 85.7988 97.6732C85.9171 97.3741 85.9706 97.053 85.9556 96.7314C85.9406 96.4098 85.8575 96.0951 85.7119 95.8085C85.5663 95.5219 85.3616 95.27 85.1114 95.0697C84.8612 94.8694 84.5714 94.7254 84.2615 94.6472L66.386 89.844C66.267 89.8227 66.1534 89.778 66.0516 89.7125C65.9498 89.647 65.8618 89.5619 65.7927 89.4621C65.7235 89.3623 65.6745 89.2497 65.6485 89.1309C65.6225 89.012 65.62 88.8891 65.6412 88.7693C65.6623 88.6495 65.7066 88.535 65.7717 88.4324C65.8367 88.3298 65.9212 88.2412 66.0202 88.1715C66.1192 88.1018 66.2309 88.0524 66.3489 88.0262C66.4669 88 66.5888 87.9975 66.7077 88.0188L93.5448 90.5885C93.9038 90.6132 94.2641 90.5632 94.6031 90.4416C94.9421 90.3199 95.2526 90.1293 95.5153 89.8814C95.778 89.6336 95.9873 89.334 96.1301 89.0011C96.2729 88.6683 96.3461 88.3094 96.3453 87.9468C96.319 87.2982 96.0649 86.6802 95.6284 86.2029C95.1919 85.7257 94.6012 85.4202 93.9619 85.341L70.6761 82.243C70.4474 82.2063 70.2406 82.085 70.096 81.9028C69.9514 81.7205 69.8795 81.4905 69.8945 81.2577C69.9094 81.0248 70.01 80.806 70.1766 80.644C70.3432 80.482 70.5638 80.3885 70.7953 80.3817L98.3593 80.1776C98.7198 80.1698 99.0748 80.0865 99.4017 79.9329C99.7286 79.7793 100.02 79.5588 100.258 79.2854C100.495 79.0121 100.674 78.6918 100.782 78.3451C100.89 77.9984 100.925 77.6329 100.886 77.2717Z" fill="#CC796B" stroke="#A36055" stroke-width="1.6" stroke-miterlimit="10"/>
</svg>
