<svg width="44" height="90" viewBox="0 0 44 90" fill="none" xmlns="http://www.w3.org/2000/svg">
<path d="M17.8119 80.1716C18.6405 70.5766 21.3814 61.2528 25.8682 52.7663C30.355 44.2798 36.494 36.8077 43.9124 30.8037C44.1639 30.6018 43.813 30.2455 43.5615 30.4414C36.0952 36.4921 29.9185 44.0205 25.4065 52.5694C20.8945 61.1183 18.1415 70.5092 17.3147 80.1716C17.2855 80.4982 17.7885 80.4982 17.8119 80.1716V80.1716Z" fill="#AD584D"/>
<path d="M17.923 80.1716C18.0634 69.6246 18.3266 58.0739 23.3864 48.578C27.7075 40.4695 34.7496 34.203 43.2338 30.9165C43.5321 30.8037 43.4034 30.3227 43.0993 30.4296C34.6554 33.6967 27.6142 39.878 23.2109 47.8892C17.882 57.5632 17.5486 69.3692 17.4258 80.1716C17.4349 80.2319 17.465 80.2868 17.5106 80.3265C17.5562 80.3663 17.6143 80.3881 17.6744 80.3881C17.7345 80.3881 17.7926 80.3663 17.8382 80.3265C17.8838 80.2868 17.9139 80.2319 17.923 80.1716V80.1716Z" fill="#AD584D"/>
<path d="M17.9286 79.2273C20.4405 69.6912 24.7121 60.7256 30.5167 52.8063C35.6233 45.8522 41.7887 39.29 43.9004 30.6315C43.9175 30.5669 43.9086 30.4981 43.8756 30.4402C43.8427 30.3823 43.7885 30.34 43.7249 30.3227C43.6613 30.3053 43.5935 30.3144 43.5365 30.3478C43.4794 30.3812 43.4378 30.4363 43.4207 30.5008C41.233 39.4741 34.6465 46.1551 29.458 53.424C23.9406 61.163 19.8701 69.8649 17.4489 79.0967C17.4318 79.1612 17.4407 79.2301 17.4737 79.288C17.5066 79.3459 17.5608 79.3882 17.6244 79.4055C17.688 79.4228 17.7558 79.4138 17.8128 79.3803C17.8699 79.3469 17.9115 79.2919 17.9286 79.2273Z" fill="#AD584D"/>
<path d="M17.6191 79.2926C18.0519 71.0914 15.4489 63.2583 12.1732 55.8766C8.56403 47.7288 4.49862 39.7889 0.62625 31.742C0.485862 31.451 0.0412991 31.7064 0.193386 31.9974C3.89028 39.6523 7.72755 47.2597 11.2373 55.0036C14.706 62.6467 17.5723 70.7529 17.1219 79.2926C17.1219 79.6133 17.6015 79.6133 17.6191 79.2926V79.2926Z" fill="#AD584D"/>
<path d="M0.187193 31.8192C4.62112 48.6018 9.14864 65.5269 17.2795 80.9258C17.4315 81.2108 17.8644 80.9258 17.7123 80.6704C9.59905 65.325 5.08908 48.4236 0.666853 31.6886C0.649788 31.624 0.608154 31.5689 0.55111 31.5355C0.494066 31.5021 0.426285 31.4931 0.362678 31.5104C0.299072 31.5277 0.244849 31.57 0.211939 31.6279C0.179029 31.6858 0.170128 31.7546 0.187193 31.8192V31.8192Z" fill="#AD584D"/>
<path d="M0.0410358 31.5223C4.23513 38.0073 8.54037 44.3854 12.6233 50.9238C14.5913 53.9191 15.9698 57.2727 16.6829 60.7997C17.379 64.6005 17.3322 68.52 17.2678 72.3444C17.2678 72.4122 17.2943 72.4771 17.3415 72.525C17.3887 72.5729 17.4527 72.5998 17.5194 72.5998C17.5861 72.5998 17.6501 72.5729 17.6972 72.525C17.7444 72.4771 17.7709 72.4122 17.7709 72.3444C17.8528 65.0102 17.4901 58.0917 13.6762 51.6839C9.52894 44.7357 4.90198 38.0251 0.473899 31.2669C0.298414 30.9937 -0.111051 31.2669 0.0410358 31.5223V31.5223Z" fill="#AD584D"/>
<path d="M18.2211 69.1138C18.0627 56.8501 16.7602 44.6293 14.3312 32.615C14.2669 32.2943 13.7814 32.4309 13.8457 32.7516C16.2713 44.7199 17.5679 56.8957 17.7181 69.1138C17.7181 69.1815 17.7446 69.2465 17.7917 69.2944C17.8389 69.3423 17.9029 69.3692 17.9696 69.3692C18.0363 69.3692 18.1003 69.3423 18.1475 69.2944C18.1946 69.2465 18.2211 69.1815 18.2211 69.1138V69.1138Z" fill="#AD584D"/>
<path d="M9.7686 24.1524C9.73689 26.0636 9.85818 27.9742 10.1313 29.8654C10.1569 30.2885 10.2844 30.6987 10.5027 31.0601C10.7209 31.4215 11.0232 31.7229 11.3831 31.938C13.0502 32.7813 15.4777 32.4309 16.1914 30.578C16.5998 29.2545 16.7973 27.8731 16.7763 26.4863C16.8231 25.453 16.7763 24.485 15.9398 23.8021C14.4599 22.6143 11.5235 22.7272 10.0903 23.9149C9.84465 24.1227 10.1956 24.4791 10.4413 24.2712C12.0148 22.9469 15.8228 23.1904 16.2908 25.6905C16.4313 27.1403 16.2862 28.6039 15.8638 29.996C14.9571 32.8466 10.9561 32.1577 10.5992 29.4022C10.3896 27.6625 10.288 25.9111 10.2951 24.1584C10.2859 24.0981 10.2558 24.0431 10.2102 24.0034C10.1646 23.9637 10.1065 23.9418 10.0465 23.9418C9.98637 23.9418 9.92828 23.9637 9.88268 24.0034C9.83708 24.0431 9.80699 24.0981 9.79785 24.1584L9.7686 24.1524Z" fill="#AD584D"/>
<path d="M11.9042 31.3857C10.1494 30.7384 8.39453 29.9723 8.02601 27.876C7.93242 27.3415 7.72768 26.0469 7.99676 25.5777C8.52907 24.6453 8.96193 24.9838 9.68142 24.9185C10.0031 24.9185 10.0031 24.3959 9.68142 24.4137C8.90343 24.4612 8.37113 23.7545 7.78033 24.5444C7.18953 25.3342 7.38841 26.8545 7.48785 27.6859C7.76863 30.1326 9.69897 31.1184 11.7755 31.8786C12.0739 31.9855 12.2084 31.4985 11.9042 31.3857Z" fill="#AD584D"/>
<path d="M14.4955 32.0686C17.7947 32.0211 19.4501 29.3963 19.5027 26.2963C19.5027 25.2214 19.5554 23.6655 18.403 23.1191C18.0054 22.9473 17.5593 22.9304 17.1502 23.0718C16.7412 23.2132 16.3978 23.5028 16.186 23.8852C16.0106 24.1524 16.4376 24.4078 16.6189 24.1406C18.327 24.0812 19.1225 24.6255 19.0055 25.7737C19.0055 26.1241 19.0055 26.4744 19.0055 26.8189C18.995 27.6278 18.8218 28.4261 18.4966 29.1646C18.1083 29.8923 17.5313 30.4983 16.8281 30.917C16.1249 31.3357 15.3224 31.5512 14.5072 31.5401C14.4478 31.5494 14.3937 31.5799 14.3546 31.6262C14.3155 31.6725 14.2939 31.7315 14.2939 31.7925C14.2939 31.8535 14.3155 31.9125 14.3546 31.9588C14.3937 32.0051 14.4478 32.0356 14.5072 32.0449L14.4955 32.0686Z" fill="#AD584D"/>
<path d="M8.62258 24.2772C8.74883 23.7444 9.05262 23.2723 9.48246 22.941C9.58209 22.8747 9.69529 22.8323 9.81347 22.8171C9.93164 22.8018 10.0517 22.8142 10.1645 22.8531C10.2772 22.892 10.3798 22.9565 10.4643 23.0417C10.5489 23.1269 10.6132 23.2306 10.6524 23.3448C10.7167 23.6655 11.1964 23.5289 11.132 23.2082C11.0888 23.0509 11.0155 22.9039 10.9162 22.7754C10.8169 22.647 10.6936 22.5397 10.5534 22.4597C10.4132 22.3798 10.2589 22.3286 10.0992 22.3093C9.93951 22.29 9.77764 22.3028 9.62285 22.3471C8.79222 22.5371 8.39445 23.4042 8.13708 24.1287C8.03178 24.4316 8.51144 24.5681 8.61673 24.2593L8.62258 24.2772Z" fill="#AD584D"/>
<path d="M11.4764 23.03C12.1374 22.1927 13.0149 21.3791 14.1497 21.4207C15.612 21.4741 15.9806 22.7568 16.1268 23.9861C16.1619 24.3068 16.6649 24.3128 16.624 23.9861C16.4719 22.7153 16.1502 21.391 14.7814 21.0168C13.3073 20.6071 11.997 21.5691 11.1255 22.6796C10.9266 22.9291 11.2775 23.2735 11.4764 23.036V23.03Z" fill="#AD584D"/>
<path d="M18.666 64.0897C17.8997 46.2738 17.2387 27.4959 25.6854 11.2359C25.8375 10.9508 25.4046 10.6955 25.2584 10.9805C16.7649 27.3177 17.4025 46.1848 18.1688 64.0897C18.1688 64.4104 18.6835 64.4164 18.666 64.0897Z" fill="#AD584D"/>
<path d="M23.3984 8.39129C24.0184 9.38899 24.8549 10.8915 25.9429 11.4319C26.8437 11.8773 27.8089 11.4853 28.6512 11.0815C30.6986 10.1076 33.2724 8.16563 32.2136 5.65952C31.7456 4.56088 30.8799 2.83273 29.8153 2.17948C29.0783 1.72221 28.1833 2.06071 27.4229 2.40515C26.311 2.92419 25.3579 3.73832 24.664 4.76162C23.97 5.78492 23.5611 6.97943 23.4803 8.21907C23.4803 8.53976 23.9541 8.53976 23.9775 8.21907C24.0358 7.37745 24.2576 6.55587 24.6301 5.80165C25.0025 5.04743 25.5183 4.37547 26.1477 3.82449C26.8079 3.20498 27.6134 2.76746 28.4875 2.55362C29.7861 2.37546 30.4178 3.52755 31.0028 4.50743C31.208 4.7957 31.3806 5.10646 31.5175 5.43386C31.7108 6.47948 31.5885 7.56 31.1665 8.53382C30.6376 9.19025 29.9905 9.73845 29.2596 10.1491C28.2067 10.8202 26.7151 11.3369 25.592 10.553C24.8374 10.0185 24.27 8.91389 23.7845 8.13593C23.6148 7.86276 23.1995 8.13593 23.3574 8.39129H23.3984Z" fill="#AD584D"/>
<path d="M29.4227 2.10228C28.9372 1.11647 28.6623 -0.249419 27.3227 0.0415741C25.796 0.374138 24.3161 1.66282 23.3977 2.89806C21.7013 5.20819 21.2568 9.27615 24.6144 10.262C24.6745 10.2702 24.7355 10.2561 24.7862 10.2223C24.8369 10.1884 24.8738 10.1371 24.8902 10.0779C24.9066 10.0186 24.9013 9.95527 24.8753 9.89961C24.8494 9.84396 24.8045 9.7997 24.7489 9.77499C21.8534 8.90795 22.3038 5.34477 23.696 3.35533C24.293 2.49919 25.0577 1.77742 25.9422 1.23524C26.5272 0.872983 27.738 0.641376 28.3464 1.03926C28.6155 1.22336 28.8553 2.07853 28.9898 2.35764C29.1244 2.63676 29.5748 2.39327 29.4227 2.10228V2.10228Z" fill="#AD584D"/>
<path d="M25.679 11.0577C26.4278 13.1838 28.7968 12.673 30.3996 11.9723C32.2071 11.1824 33.2775 9.54932 32.3709 7.58364C32.2363 7.28671 31.7859 7.54207 31.938 7.839C32.716 9.52557 31.7099 10.8439 30.1831 11.5091C28.9079 12.0673 26.7729 12.7562 26.1294 10.9152C26.0241 10.6123 25.5445 10.743 25.6498 11.0518L25.679 11.0577Z" fill="#AD584D"/>
<path d="M18.3736 57.5572C20.2119 43.5788 25.8878 30.4077 34.7522 19.55C34.957 19.3006 34.606 18.9561 34.4013 19.1937C25.4508 30.1505 19.7235 43.4467 17.8764 57.5572C17.8355 57.8779 18.3327 57.8779 18.3736 57.5572Z" fill="#AD584D"/>
<path d="M18.2387 55.0749C18.2981 55.0656 18.3522 55.0351 18.3913 54.9888C18.4304 54.9425 18.452 54.8835 18.452 54.8225C18.452 54.7615 18.4304 54.7025 18.3913 54.6562C18.3522 54.6099 18.2981 54.5794 18.2387 54.5701C18.1793 54.5794 18.1251 54.6099 18.086 54.6562C18.0469 54.7025 18.0254 54.7615 18.0254 54.8225C18.0254 54.8835 18.0469 54.9425 18.086 54.9888C18.1251 55.0351 18.1793 55.0656 18.2387 55.0749Z" fill="#AD584D"/>
<path d="M18.2685 54.8552C19.6665 41.7902 21.7782 26.1241 34.3079 19.0155C34.3585 18.9784 34.3938 18.9236 34.4068 18.8616C34.4198 18.7996 34.4096 18.7349 34.3783 18.6801C34.3469 18.6252 34.2966 18.5842 34.2371 18.565C34.1776 18.5458 34.1131 18.5497 34.0563 18.5761C21.3688 25.7796 19.1927 41.5704 17.7713 54.8552C17.7362 55.1818 18.2334 55.1759 18.2685 54.8552Z" fill="#AD584D"/>
<path d="M34.1607 18.6829C32.7569 33.3098 20.3676 43.7737 18.1331 58.163C18.0863 58.4777 18.566 58.6203 18.6186 58.2996C20.8648 43.8568 33.2775 33.3573 34.6697 18.6829C34.6697 18.3623 34.2017 18.3623 34.1724 18.6829H34.1607Z" fill="#AD584D"/>
<path d="M17.9349 77.5229C17.4193 81.5822 17.1049 85.6652 16.9932 89.7565C16.9932 90.0831 17.4787 90.0772 17.4904 89.7565C17.6012 85.665 17.9175 81.5818 18.438 77.5229C18.4789 77.2022 17.9759 77.2022 17.9349 77.5229V77.5229Z" fill="#AD584D"/>
</svg>
