<svg width="413" height="42" viewBox="0 0 413 42" fill="none" xmlns="http://www.w3.org/2000/svg">
<g clip-path="url(#clip0_22_417)">
<path d="M142.69 20.03C142.286 19.9436 141.898 19.7951 141.54 19.59C141.753 19.9769 142.043 20.3169 142.39 20.59C142.83 20.9526 143.352 21.203 143.91 21.32C144.667 21.4955 145.453 21.4955 146.21 21.32C147.129 21.1197 147.999 20.739 148.77 20.2C149.577 19.5733 150.351 18.9057 151.09 18.2C151.86 17.3033 152.485 16.2909 152.94 15.2L153.03 14.99L153.15 14.64C153.24 14.4 153.31 14.15 153.38 13.91C153.518 13.4167 153.629 12.9159 153.71 12.41C153.85 11.41 153.92 10.41 154.03 9.41C152.96 9.41 151.93 9.34 150.89 9.34C150.36 9.34 149.89 9.34 149.33 9.34H148.94H148.7H148.28C147.209 9.47143 146.152 9.6956 145.12 10.01C143.197 10.4928 141.48 11.5793 140.22 13.11C139.739 13.7696 139.461 14.5549 139.42 15.37C139.395 15.9304 139.491 16.4896 139.7 17.01C139.847 17.4686 140.066 17.9007 140.35 18.29C140.313 17.8775 140.313 17.4625 140.35 17.05C140.383 16.5788 140.528 16.1222 140.771 15.7173C141.014 15.3125 141.35 14.9707 141.75 14.72C143.018 14.0682 144.415 13.7094 145.84 13.67C146.69 13.59 147.6 13.56 148.55 13.56H148.91C148.96 13.56 149.07 13.56 149.06 13.56H149.11V13.7C148.884 14.4886 148.573 15.2499 148.18 15.97C147.801 16.6528 147.359 17.2989 146.86 17.9C146.468 18.416 145.995 18.8652 145.46 19.23C145.076 19.5424 144.632 19.7743 144.156 19.9117C143.68 20.0492 143.182 20.0894 142.69 20.03Z" fill="white"/>
<path d="M270.34 20.03C270.744 19.9436 271.132 19.7951 271.49 19.59C271.276 19.9769 270.987 20.3169 270.64 20.59C270.2 20.9525 269.678 21.203 269.12 21.32C268.363 21.4955 267.577 21.4955 266.82 21.32C265.901 21.1197 265.031 20.739 264.26 20.2C263.453 19.5733 262.679 18.9057 261.94 18.2C261.17 17.3033 260.545 16.2909 260.09 15.2L260 14.99L259.88 14.64C259.79 14.4 259.72 14.15 259.65 13.91C259.511 13.4167 259.401 12.9159 259.32 12.41C259.18 11.41 259.11 10.41 259 9.40999C260.07 9.40999 261.1 9.34 262.14 9.34C262.67 9.34 263.14 9.34 263.7 9.34H264.09H264.33H264.75C265.821 9.47142 266.878 9.69559 267.91 10.01C269.833 10.4928 271.55 11.5793 272.81 13.11C273.291 13.7696 273.569 14.5549 273.61 15.37C273.635 15.9304 273.539 16.4896 273.33 17.01C273.183 17.4686 272.963 17.9007 272.68 18.29C272.717 17.8775 272.717 17.4625 272.68 17.05C272.646 16.5788 272.502 16.1222 272.259 15.7173C272.016 15.3124 271.68 14.9707 271.28 14.72C270.012 14.0682 268.615 13.7094 267.19 13.67C266.34 13.59 265.43 13.56 264.48 13.56H264.12C264.07 13.56 263.96 13.56 263.97 13.56H263.92V13.7C264.145 14.4886 264.457 15.2499 264.85 15.97C265.229 16.6528 265.671 17.2989 266.17 17.9C266.562 18.416 267.035 18.8652 267.57 19.23C267.954 19.5424 268.398 19.7743 268.874 19.9117C269.349 20.0492 269.848 20.0894 270.34 20.03Z" fill="white"/>
<path d="M187.18 30.29C187.567 30.1139 187.978 29.996 188.4 29.94C187.981 29.9583 187.567 30.0358 187.17 30.17C186.66 30.3338 186.215 30.6561 185.9 31.09C185.7 31.4149 185.585 31.7849 185.566 32.1659C185.547 32.5469 185.624 32.9267 185.79 33.27C186.269 34.2224 187.031 35.0041 187.97 35.5086C188.909 36.0132 189.981 36.2162 191.04 36.09C192.407 35.9646 193.719 35.4894 194.85 34.71C195.5 34.2548 196.039 33.6603 196.43 32.97C196.845 32.2238 197.085 31.3927 197.13 30.54C197.183 28.7613 196.751 27.0017 195.88 25.45C194.984 23.7472 193.78 22.2249 192.33 20.96C191.94 20.63 191.54 20.31 191.11 20.01C190.68 19.71 190.29 19.44 189.84 19.17C188.928 18.628 187.979 18.1501 187 17.74C184.959 16.895 182.843 16.2421 180.68 15.79C178.354 15.295 175.987 15.0139 173.61 14.95C172.341 14.9209 171.072 14.971 169.81 15.1C168.55 15.23 167.31 15.41 166.04 15.6C163.52 16 160.947 16.48 158.32 17.04C157 17.32 155.66 17.62 154.32 17.96L153.68 18.13C152.93 18.88 149.33 21 148.99 21.56C151.1 21.64 153.05 22.56 153.45 22.45C154.06 22.25 154.69 22.05 155.32 21.87C156.57 21.49 157.83 21.15 159.08 20.87C161.587 20.2033 164.043 19.63 166.45 19.15C167.65 18.9 168.83 18.68 169.98 18.49C171.092 18.3068 172.214 18.1966 173.34 18.16C175.517 18.088 177.696 18.2152 179.85 18.54C184.04 19.18 187.85 20.35 190.75 22.43C192.111 23.4288 193.279 24.6653 194.2 26.08C195.043 27.3291 195.559 28.7698 195.7 30.27C195.754 30.9094 195.659 31.5527 195.423 32.1495C195.187 32.7463 194.817 33.2804 194.34 33.71C193.888 34.1242 193.371 34.4619 192.81 34.71C192.284 34.9676 191.726 35.1526 191.15 35.26C190.221 35.4703 189.25 35.3914 188.367 35.0339C187.484 34.6764 186.731 34.0574 186.21 33.26C186.032 32.9735 185.927 32.6477 185.904 32.3112C185.882 31.9747 185.942 31.6378 186.08 31.33C186.318 30.8687 186.706 30.5019 187.18 30.29Z" fill="white"/>
<path d="M132.44 12.66C132.676 12.8864 132.926 13.0969 133.19 13.29L132.98 12.35C132.793 11.5713 132.715 10.7702 132.75 9.96999C132.811 9.01546 133.212 8.11433 133.88 7.43C134.294 6.96729 134.738 6.53297 135.21 6.13C135.3 6.13 135.32 6.18999 135.32 6.21999L135.4 6.32999L135.71 6.76C136.08 7.31831 136.414 7.89948 136.71 8.50001C137.233 9.44624 137.508 10.5091 137.51 11.59C137.458 12.3934 137.154 13.1599 136.64 13.78C136.24 14.28 135.94 14.53 135.95 14.54C136.31 14.5126 136.665 14.4456 137.01 14.34C138.069 14.014 138.966 13.2996 139.52 12.34C140.311 10.8388 140.538 9.10411 140.16 7.45C139.98 6.52525 139.681 5.62776 139.27 4.78001C139.17 4.57001 139.05 4.35001 138.93 4.14001L138.84 3.98L138.68 3.71999C138.57 3.53999 138.45 3.35999 138.33 3.18999C137.847 2.50346 137.309 1.85794 136.72 1.26L135.53 0.0100021C134.36 1.18 133.22 2.28999 132.25 3.43999C131.696 4.13033 131.23 4.88598 130.86 5.68999C130.495 6.4911 130.301 7.35961 130.29 8.24C130.292 8.97984 130.445 9.71148 130.74 10.39C131.149 11.2529 131.727 12.0248 132.44 12.66Z" fill="white"/>
<path d="M119.66 11.03L119.74 11.27L119.79 11.42L119.9 11.7L120.14 12.26C120.3 12.62 120.47 12.97 120.66 13.31C121.32 14.5495 122.237 15.6336 123.35 16.49C124.11 17.1374 125.094 17.4606 126.09 17.39C126.421 17.3577 126.739 17.2481 127.02 17.07C126.726 17.0197 126.442 16.9217 126.18 16.78C125.578 16.3951 125.115 15.8273 124.86 15.16C124.434 14.1615 124.122 13.1183 123.93 12.05L123.75 11.11L123.67 10.62L123.62 10.37V10.25C123.62 10.25 123.73 10.2 123.75 10.25H123.85H124.33C124.918 10.219 125.507 10.2458 126.09 10.33C127.065 10.4481 127.976 10.8757 128.69 11.55C129.259 12.1346 129.725 12.8107 130.07 13.55C130.34 14.12 130.46 14.47 130.47 14.47C130.582 14.1438 130.669 13.8095 130.73 13.47C130.922 12.4707 130.861 11.4391 130.55 10.47C130.318 9.73358 129.937 9.0528 129.43 8.46999C128.827 7.79852 128.096 7.25451 127.28 6.87C126.414 6.47081 125.488 6.21418 124.54 6.11001C124.3 6.11001 124.06 6.11001 123.82 6.11001H123.32C123.11 6.11001 122.91 6.11001 122.71 6.11001C121.906 6.16986 121.107 6.28681 120.32 6.46L118.89 6.74C118.99 7.52 119.08 8.23999 119.19 8.96999C119.305 9.66548 119.462 10.3534 119.66 11.03Z" fill="white"/>
<path d="M123.46 26.59C124.603 26.606 125.721 26.2555 126.65 25.59C127.249 25.1374 127.664 24.4841 127.82 23.75C127.868 23.5132 127.884 23.2712 127.87 23.03C127.683 23.1575 127.49 23.2743 127.29 23.38C126.847 23.623 126.343 23.7308 125.84 23.69C125.2 23.5815 124.58 23.3793 124 23.09C123.49 22.89 123.61 22.82 123.6 22.75C123.61 22.7092 123.635 22.6735 123.67 22.65C123.654 22.6572 123.637 22.6609 123.62 22.6609C123.603 22.6609 123.586 22.6572 123.57 22.65C123.536 22.6316 123.508 22.6038 123.49 22.57C123.484 22.547 123.484 22.523 123.49 22.5C123.523 22.4104 123.563 22.3234 123.61 22.24C123.918 21.5737 124.294 20.9404 124.73 20.35C125.055 19.9279 125.472 19.5859 125.95 19.35C126.16 19.2471 126.381 19.1699 126.61 19.12C126.423 18.9408 126.207 18.7953 125.97 18.69C125.275 18.3842 124.5 18.3105 123.76 18.48C122.68 18.7119 121.678 19.2182 120.85 19.95C120.722 20.0515 120.602 20.1617 120.49 20.28C120.33 20.45 120.17 20.64 120.01 20.84C119.693 21.2383 119.405 21.6594 119.15 22.1C118.684 23.0055 118.296 23.9489 117.99 24.92L117.82 25.4C118.89 25.72 119.97 26 120.97 26.25C121.781 26.472 122.619 26.5863 123.46 26.59Z" fill="white"/>
<path d="M157.5 27.45C157.31 27.25 157.06 27.01 156.98 26.94C156.74 26.72 156.49 26.51 156.25 26.32C155.318 25.576 154.313 24.9293 153.25 24.39C151.448 23.408 149.441 22.8634 147.39 22.8C146.57 22.7909 145.756 22.9368 144.99 23.23C144.426 23.4501 143.917 23.7915 143.5 24.23C143.161 24.5786 142.899 24.9942 142.73 25.45C143.072 25.1569 143.461 24.9236 143.88 24.76C144.927 24.3987 146.07 24.4379 147.09 24.87C148.635 25.4781 150.073 26.3288 151.35 27.39C152.121 28.0173 152.859 28.6849 153.56 29.39L154.08 29.93C154.21 30.06 154.16 30.03 154.17 30.04L154.04 30.11L153.41 30.4C152.55 30.7459 151.655 30.9974 150.74 31.15C149.12 31.4494 147.455 31.412 145.85 31.04C144.724 30.7766 143.688 30.2173 142.85 29.42C142.525 29.0963 142.236 28.7374 141.99 28.35C142.015 28.8394 142.116 29.322 142.29 29.78C142.806 31.1016 143.735 32.2207 144.94 32.97C146.736 34.1096 148.813 34.7292 150.94 34.76C152.221 34.7875 153.498 34.6224 154.73 34.27C155.05 34.17 155.38 34.06 155.73 33.93L155.99 33.82L156.37 33.63C156.63 33.5 156.89 33.36 157.14 33.21C158.071 32.6068 158.924 31.8914 159.68 31.08L160.02 30.75C159.453 29.7986 158.818 28.8895 158.12 28.03C157.89 27.86 157.7 27.65 157.5 27.45Z" fill="white"/>
<path d="M133.13 20.48L133.18 20.28C133.27 19.906 133.208 19.5116 133.007 19.1834C132.807 18.8552 132.484 18.6202 132.11 18.53C131.736 18.4398 131.342 18.5019 131.013 18.7026C130.685 18.9032 130.45 19.226 130.36 19.6V19.8C130.27 20.1739 130.332 20.5684 130.533 20.8966C130.733 21.2248 131.056 21.4598 131.43 21.55C131.804 21.6402 132.198 21.5781 132.527 21.3774C132.855 21.1768 133.09 20.854 133.18 20.48H133.13Z" fill="white"/>
<path d="M58.52 25.07V25.28C58.4633 25.6425 58.5451 26.0131 58.7491 26.318C58.9532 26.6229 59.2646 26.8398 59.6213 26.9255C59.9781 27.0112 60.354 26.9595 60.6744 26.7806C60.9947 26.6017 61.2359 26.3087 61.35 25.96V25.76C61.4123 25.3957 61.3342 25.0213 61.1313 24.7124C60.9284 24.4034 60.6159 24.1829 60.2568 24.0954C59.8977 24.0078 59.5188 24.0597 59.1964 24.2406C58.8741 24.4215 58.6324 24.7179 58.52 25.07Z" fill="white"/>
<path d="M190.78 31.04C190.406 30.9485 190.011 31.0093 189.682 31.209C189.353 31.4088 189.116 31.7311 189.025 32.105C188.933 32.479 188.994 32.8739 189.194 33.2031C189.394 33.5322 189.716 33.7685 190.09 33.86C190.464 33.9515 190.859 33.8907 191.188 33.691C191.517 33.4912 191.753 33.169 191.845 32.795C191.936 32.4211 191.876 32.0261 191.676 31.6969C191.476 31.3678 191.154 31.1315 190.78 31.04Z" fill="white"/>
<path d="M147.77 27.02C147.396 26.9298 147.002 26.9919 146.673 27.1926C146.345 27.3932 146.11 27.716 146.02 28.09C145.93 28.464 145.992 28.8584 146.193 29.1866C146.393 29.5148 146.716 29.7498 147.09 29.84C147.464 29.9302 147.858 29.8681 148.187 29.6674C148.515 29.4668 148.75 29.1439 148.84 28.77C148.93 28.396 148.868 28.0016 148.667 27.6734C148.467 27.3452 148.144 27.1102 147.77 27.02Z" fill="white"/>
<path d="M145.48 17.07L145.53 16.87C145.595 16.6048 145.552 16.3246 145.41 16.0911C145.269 15.8576 145.04 15.69 144.775 15.625C144.51 15.56 144.23 15.6031 143.996 15.7446C143.763 15.8862 143.595 16.1148 143.53 16.38V16.58C143.498 16.7113 143.492 16.8477 143.512 16.9813C143.533 17.115 143.58 17.2432 143.65 17.3589C143.72 17.4745 143.812 17.5751 143.921 17.6551C144.03 17.7351 144.154 17.7928 144.285 17.825C144.416 17.8572 144.553 17.8632 144.686 17.8426C144.82 17.8221 144.948 17.7754 145.064 17.7053C145.18 17.6352 145.28 17.543 145.36 17.434C145.44 17.325 145.498 17.2013 145.53 17.07H145.48Z" fill="white"/>
<path d="M135.52 9.75001L135.32 9.70001C135.189 9.66784 135.052 9.66184 134.919 9.68237C134.785 9.7029 134.657 9.74955 134.541 9.81965C134.426 9.88976 134.325 9.98196 134.245 10.091C134.165 10.2 134.107 10.3237 134.075 10.455C134.043 10.5863 134.037 10.7227 134.057 10.8563C134.078 10.99 134.125 11.1183 134.195 11.2339C134.265 11.3495 134.357 11.4502 134.466 11.5301C134.575 11.6101 134.699 11.6678 134.83 11.7L135.03 11.75C135.161 11.7822 135.298 11.7882 135.431 11.7676C135.565 11.7471 135.693 11.7005 135.809 11.6304C135.924 11.5602 136.025 11.4681 136.105 11.359C136.185 11.25 136.243 11.1263 136.275 10.995C136.307 10.8637 136.313 10.7273 136.293 10.5937C136.272 10.46 136.225 10.3317 136.155 10.2161C136.085 10.1005 135.993 9.99987 135.884 9.91989C135.775 9.83991 135.651 9.78219 135.52 9.75001Z" fill="white"/>
<path d="M127.08 11.97C126.815 11.905 126.535 11.9481 126.301 12.0897C126.068 12.2312 125.9 12.4598 125.835 12.725C125.77 12.9902 125.813 13.2704 125.955 13.5039C126.096 13.7374 126.325 13.905 126.59 13.97C126.855 14.035 127.135 13.9919 127.369 13.8504C127.602 13.7088 127.77 13.4802 127.835 13.215C127.9 12.9498 127.857 12.6696 127.715 12.4361C127.574 12.2027 127.345 12.035 127.08 11.97Z" fill="white"/>
<path d="M126.64 20.83C126.375 20.765 126.095 20.8081 125.861 20.9497C125.628 21.0912 125.46 21.3198 125.395 21.585C125.33 21.8502 125.373 22.1304 125.515 22.3639C125.656 22.5974 125.885 22.765 126.15 22.83C126.281 22.8622 126.418 22.8682 126.551 22.8476C126.685 22.8271 126.813 22.7805 126.929 22.7104C127.045 22.6402 127.145 22.5481 127.225 22.439C127.305 22.33 127.363 22.2063 127.395 22.075C127.427 21.9437 127.433 21.8073 127.413 21.6737C127.392 21.54 127.346 21.4117 127.275 21.2961C127.205 21.1805 127.113 21.0799 127.004 20.9999C126.895 20.9199 126.771 20.8622 126.64 20.83Z" fill="white"/>
<path d="M138.13 18.14C137.435 17.3685 136.585 16.7525 135.635 16.332C134.686 15.9115 133.658 15.6962 132.62 15.7C131.333 15.7523 130.108 16.2671 129.17 17.15C128.86 17.4571 128.579 17.7918 128.33 18.15C128.614 17.8359 128.929 17.5511 129.27 17.3C130.23 16.5744 131.419 16.2194 132.62 16.3C133.532 16.3891 134.415 16.6683 135.212 17.1196C136.01 17.5709 136.704 18.1842 137.25 18.92C137.987 19.8187 138.469 20.8991 138.645 22.048C138.821 23.1969 138.684 24.3719 138.25 25.45C137.695 26.7522 136.882 27.929 135.862 28.9101C134.841 29.8912 133.633 30.6564 132.31 31.16C129.46 32.23 125.98 32.16 122.39 31.59C118.589 30.9123 114.857 29.8914 111.24 28.54C107.39 27.2 103.41 25.7 99.3 24.21C91.08 21.21 83.11 18.5 75.49 17.09C71.8299 16.3157 68.0714 16.1166 64.35 16.5C62.5923 16.7276 60.8948 17.2912 59.35 18.16C57.8995 19.0144 56.71 20.2489 55.91 21.73C55.1164 23.052 54.7335 24.58 54.81 26.12C54.8738 26.8286 55.1001 27.513 55.4712 28.12C55.8423 28.727 56.3484 29.2403 56.95 29.62C57.844 30.2167 58.9009 30.5217 59.9754 30.4931C61.0499 30.4644 62.0891 30.1035 62.95 29.46C63.5364 28.9416 63.9222 28.2338 64.04 27.46C64.1325 26.934 64.1325 26.396 64.04 25.87C63.9656 25.4426 63.8483 25.0239 63.69 24.62C63.7949 25.0327 63.8586 25.4547 63.88 25.88C63.9176 26.3882 63.8669 26.8991 63.73 27.39C63.5473 28.0288 63.1522 28.5861 62.61 28.97C61.8413 29.4317 60.9493 29.6457 60.0548 29.5831C59.1604 29.5205 58.3068 29.1842 57.61 28.62C57.1992 28.3158 56.8657 27.9193 56.6364 27.4624C56.4071 27.0056 56.2884 26.5012 56.29 25.99C56.3543 24.7895 56.7641 23.6332 57.47 22.66C58.1712 21.5487 59.1686 20.6552 60.35 20.08C61.6888 19.4535 63.1344 19.087 64.61 19C68.0525 18.8725 71.4952 19.2464 74.83 20.11C82.05 21.78 89.83 24.67 98.01 27.65C102.11 29.14 106.14 30.59 110.1 31.86C113.946 33.1881 117.916 34.1229 121.95 34.65C125.82 35.07 129.8 35 133.24 33.47C134.89 32.7392 136.355 31.6494 137.53 30.28C138.585 29.0368 139.402 27.6096 139.94 26.07C140.435 24.6138 140.48 23.0423 140.07 21.56C139.713 20.2786 139.046 19.1044 138.13 18.14Z" fill="white"/>
<path d="M222.69 22.37C225.54 20.29 229.41 19.12 233.59 18.48C235.747 18.1552 237.93 18.028 240.11 18.1C240.846 18.0729 241.583 18.1198 242.31 18.24C243.46 18.43 245.8 18.84 246.99 19.09C249.39 19.59 251.86 20.16 254.36 20.81C255.61 21.14 256.87 21.48 258.13 21.81C258.76 21.99 259.38 22.19 260 22.39C260.39 22.53 262.34 21.58 264.46 21.5C264.11 20.94 260.52 18.82 259.77 18.07L259.13 17.9C257.77 17.56 256.44 17.26 255.13 16.98C252.49 16.42 249.92 15.98 247.4 15.54C246.14 15.35 244.89 15.17 243.63 15.04C242.371 14.9112 241.105 14.8611 239.84 14.89C237.463 14.9525 235.096 15.2337 232.77 15.73C230.604 16.1807 228.484 16.8335 226.44 17.68C225.465 18.0922 224.52 18.57 223.61 19.11C223.15 19.38 222.73 19.68 222.33 19.95C221.91 20.245 221.506 20.5621 221.12 20.9C219.667 22.1647 218.46 23.6869 217.56 25.39C216.697 26.9444 216.268 28.7027 216.32 30.48C216.367 31.3312 216.602 32.1613 217.01 32.91C217.404 33.601 217.947 34.1954 218.6 34.65C219.729 35.4254 221.037 35.9003 222.4 36.03C223.45 36.1603 224.514 35.9679 225.452 35.4784C226.39 34.989 227.157 34.2257 227.65 33.29C227.813 32.9454 227.887 32.5655 227.867 32.1848C227.846 31.8041 227.73 31.4347 227.53 31.11C227.217 30.674 226.772 30.3512 226.26 30.19C225.866 30.0562 225.455 29.9788 225.04 29.96C225.458 30.0182 225.865 30.136 226.25 30.31C226.721 30.5099 227.112 30.862 227.36 31.31C227.498 31.6178 227.558 31.9547 227.536 32.2912C227.513 32.6277 227.408 32.9535 227.23 33.24C226.71 34.0385 225.957 34.6583 225.074 35.0159C224.191 35.3735 223.219 35.4517 222.29 35.24C221.717 35.1341 221.162 34.949 220.64 34.69C220.076 34.4419 219.556 34.1042 219.1 33.69C218.625 33.2589 218.256 32.7246 218.02 32.1282C217.784 31.5318 217.688 30.8892 217.74 30.25C217.884 28.7489 218.404 27.3081 219.25 26.06C220.166 24.6335 221.331 23.3835 222.69 22.37Z" fill="white"/>
<path d="M276.35 14.34C276.698 14.4454 277.057 14.5125 277.42 14.54C277.169 14.3032 276.935 14.0492 276.72 13.78C276.206 13.1612 275.904 12.3934 275.86 11.59C275.853 10.5079 276.129 9.44271 276.66 8.50001C276.952 7.89746 277.287 7.31604 277.66 6.76L277.96 6.32999L278.04 6.21999C278.04 6.21999 278.04 6.14 278.16 6.13C278.627 6.53817 279.071 6.97218 279.49 7.43C280.158 8.11433 280.559 9.01546 280.62 9.96999C280.65 10.77 280.572 11.5704 280.39 12.35L280.17 13.29C280.434 13.0969 280.684 12.8864 280.92 12.66C281.622 12.0226 282.184 11.2462 282.57 10.38C282.873 9.70383 283.03 8.9711 283.03 8.23C283.016 7.34897 282.818 6.48055 282.45 5.68C282.084 4.8763 281.62 4.12064 281.07 3.43C280.07 2.28 278.96 1.17001 277.78 7.62939e-06L276.66 1.29C276.074 1.88815 275.539 2.53367 275.06 3.21999C274.93 3.38999 274.82 3.57001 274.7 3.75001L274.54 4.01L274.45 4.17001C274.33 4.38001 274.22 4.60001 274.11 4.81001C273.707 5.65987 273.411 6.55682 273.23 7.48C272.843 9.13367 273.071 10.8716 273.87 12.37C274.422 13.313 275.307 14.0157 276.35 14.34Z" fill="white"/>
<path d="M282.75 13.29C282.812 13.6284 282.895 13.9624 283 14.29C283 14.29 283.14 13.94 283.41 13.37C283.747 12.6287 284.21 11.9519 284.78 11.37C285.491 10.716 286.39 10.303 287.35 10.19C287.929 10.1061 288.515 10.0793 289.1 10.11H289.58H289.69C289.69 10.11 289.77 10.11 289.82 10.11C289.87 10.11 289.82 10.11 289.82 10.11V10.23V10.48L289.74 10.97L289.55 11.91C289.356 12.9767 289.047 14.0194 288.63 15.02C288.371 15.6884 287.905 16.2562 287.3 16.64C287.038 16.7833 286.754 16.8813 286.46 16.93C286.744 17.1089 287.066 17.2185 287.4 17.25C288.396 17.3196 289.379 16.9965 290.14 16.35C291.232 15.4854 292.131 14.4023 292.78 13.17C292.97 12.83 293.15 12.48 293.31 12.12L293.54 11.56L293.65 11.28L293.71 11.13L293.78 10.89C294.005 10.1808 294.176 9.4553 294.29 8.71999C294.4 7.98999 294.49 7.27 294.59 6.49L293.16 6.21C292.376 6.03747 291.581 5.92053 290.78 5.86001C290.57 5.86001 290.37 5.86001 290.16 5.86001H289.66C289.42 5.86001 289.18 5.86001 288.94 5.86001C287.992 5.96418 287.066 6.22081 286.2 6.62C285.385 7.00702 284.655 7.55069 284.05 8.21999C283.552 8.80849 283.171 9.48755 282.93 10.22C282.611 11.2117 282.549 12.2679 282.75 13.29Z" fill="white"/>
<path d="M293.44 20.81C293.28 20.61 293.12 20.42 292.96 20.25C292.8 20.08 292.73 20.03 292.61 19.92C291.779 19.1881 290.773 18.682 289.69 18.45C288.95 18.2805 288.175 18.3542 287.48 18.66C287.243 18.7595 287.029 18.9058 286.85 19.09C287.078 19.1415 287.299 19.2187 287.51 19.32C287.983 19.5592 288.396 19.9008 288.72 20.32C289.168 20.9328 289.547 21.5935 289.85 22.29C289.85 22.37 289.95 22.5 289.96 22.55C289.966 22.573 289.966 22.597 289.96 22.62C289.942 22.6508 289.918 22.6779 289.89 22.7C289.855 22.7139 289.815 22.7139 289.78 22.7C289.815 22.7235 289.84 22.7591 289.85 22.8C289.85 22.87 289.97 22.94 289.45 23.14C288.87 23.4307 288.25 23.6329 287.61 23.74C287.107 23.7808 286.603 23.673 286.16 23.43C285.96 23.3244 285.767 23.2075 285.58 23.08C285.573 23.3215 285.593 23.563 285.64 23.8C285.792 24.5358 286.208 25.1905 286.81 25.64C287.736 26.3054 288.85 26.656 289.99 26.64C290.843 26.6284 291.69 26.504 292.51 26.27C293.51 26.02 294.58 25.74 295.65 25.42L295.49 24.94C295.176 23.9701 294.785 23.0271 294.32 22.12C294.06 21.6616 293.766 21.2236 293.44 20.81Z" fill="white"/>
<path d="M267.61 31.09C266.008 31.4606 264.347 31.4981 262.73 31.2C261.815 31.05 260.919 30.7984 260.06 30.45C259.84 30.36 259.63 30.26 259.43 30.16L259.29 30.09C259.29 30.09 259.29 30.09 259.37 29.98L259.9 29.44C260.596 28.73 261.334 28.0621 262.11 27.44C263.379 26.37 264.81 25.5092 266.35 24.89C267.37 24.4579 268.513 24.4187 269.56 24.78C269.976 24.95 270.364 25.1827 270.71 25.47C270.536 25.0167 270.274 24.6022 269.94 24.25C269.517 23.8137 269.005 23.4728 268.44 23.25C267.677 22.9576 266.867 22.8117 266.05 22.82C263.996 22.8833 261.985 23.4279 260.18 24.41C259.117 24.9493 258.111 25.596 257.18 26.34C256.94 26.53 256.7 26.74 256.46 26.96C256.38 27.03 256.12 27.27 255.93 27.47C255.74 27.67 255.54 27.88 255.35 28.1C254.652 28.9572 254.02 29.8665 253.46 30.82L253.79 31.15C254.55 31.968 255.41 32.687 256.35 33.29C256.59 33.44 256.85 33.58 257.11 33.71L257.49 33.9L257.76 34.01C258.08 34.14 258.41 34.25 258.76 34.35C259.988 34.7029 261.262 34.8681 262.54 34.84C264.667 34.8108 266.744 34.1911 268.54 33.05C269.747 32.3006 270.68 31.1819 271.2 29.86C271.375 29.4027 271.473 28.9194 271.49 28.43C271.244 28.8174 270.955 29.1763 270.63 29.5C269.786 30.294 268.742 30.8436 267.61 31.09Z" fill="white"/>
<path d="M281.35 18.53C280.977 18.6224 280.656 18.8579 280.456 19.1854C280.256 19.513 280.192 19.9062 280.28 20.28V20.48C280.325 20.6652 280.405 20.8397 280.517 20.9937C280.629 21.1477 280.771 21.2781 280.933 21.3774C281.096 21.4768 281.276 21.5432 281.464 21.5728C281.653 21.6024 281.845 21.5946 282.03 21.55C282.215 21.5053 282.39 21.4247 282.544 21.3125C282.698 21.2004 282.828 21.0591 282.927 20.8966C283.027 20.7341 283.093 20.5536 283.123 20.3655C283.152 20.1773 283.145 19.9852 283.1 19.8V19.6C283.007 19.2274 282.772 18.9062 282.444 18.7059C282.117 18.5056 281.724 18.4425 281.35 18.53Z" fill="white"/>
<path d="M353.89 27.03C354.261 26.9353 354.581 26.6993 354.781 26.3725C354.98 26.0456 355.045 25.6536 354.96 25.28L354.91 25.07C354.865 24.8848 354.783 24.7104 354.671 24.5567C354.558 24.4029 354.416 24.2729 354.253 24.174C354.09 24.0751 353.909 24.0093 353.721 23.9803C353.532 23.9513 353.34 23.9597 353.155 24.005C352.97 24.0503 352.795 24.1316 352.642 24.2444C352.488 24.3571 352.358 24.499 352.259 24.6619C352.16 24.8249 352.094 25.0057 352.065 25.1942C352.036 25.3826 352.045 25.5748 352.09 25.76L352.14 25.96C352.232 26.3326 352.468 26.6538 352.795 26.8541C353.123 27.0543 353.516 27.1175 353.89 27.03Z" fill="white"/>
<path d="M223.35 33.86C223.724 33.7698 224.047 33.5348 224.247 33.2066C224.448 32.8784 224.51 32.484 224.42 32.11C224.33 31.7361 224.095 31.4132 223.767 31.2126C223.438 31.0119 223.044 30.9498 222.67 31.04C222.296 31.1302 221.973 31.3652 221.773 31.6934C221.572 32.0216 221.51 32.416 221.6 32.79C221.69 33.164 221.925 33.4868 222.253 33.6874C222.582 33.8881 222.976 33.9502 223.35 33.86Z" fill="white"/>
<path d="M265.66 27.02C265.286 27.1115 264.964 27.3478 264.764 27.6769C264.564 28.0061 264.504 28.401 264.595 28.775C264.687 29.149 264.923 29.4712 265.252 29.671C265.581 29.8707 265.976 29.9315 266.35 29.84C266.724 29.7485 267.046 29.5122 267.246 29.1831C267.446 28.8539 267.507 28.459 267.415 28.085C267.324 27.711 267.087 27.3888 266.758 27.189C266.429 26.9893 266.034 26.9285 265.66 27.02Z" fill="white"/>
<path d="M268.66 15.62C268.526 15.6478 268.398 15.703 268.286 15.7821C268.174 15.8612 268.079 15.9625 268.008 16.0797C267.937 16.197 267.891 16.3277 267.872 16.4636C267.853 16.5996 267.863 16.7379 267.9 16.87L267.95 17.07C267.977 17.2053 268.031 17.3336 268.11 17.4468C268.188 17.5601 268.289 17.6559 268.407 17.7282C268.524 17.8005 268.655 17.8478 268.792 17.867C268.928 17.8863 269.067 17.8771 269.2 17.84C269.467 17.7713 269.697 17.6014 269.841 17.3661C269.984 17.1309 270.031 16.8489 269.97 16.58L269.92 16.38C269.892 16.2445 269.837 16.1162 269.757 16.0033C269.677 15.8903 269.575 15.7951 269.457 15.7236C269.338 15.6522 269.206 15.6061 269.069 15.5883C268.932 15.5704 268.793 15.5813 268.66 15.62Z" fill="white"/>
<path d="M278.12 9.7L277.92 9.75C277.655 9.81365 277.426 9.98004 277.283 10.2126C277.141 10.4451 277.096 10.7248 277.16 10.99C277.224 11.2552 277.39 11.4843 277.623 11.6268C277.855 11.7693 278.135 11.8137 278.4 11.75L278.61 11.7C278.875 11.635 279.104 11.4673 279.245 11.2339C279.387 11.0004 279.43 10.7202 279.365 10.455C279.3 10.1898 279.132 9.96123 278.899 9.81964C278.665 9.67805 278.385 9.63502 278.12 9.7Z" fill="white"/>
<path d="M286.35 11.97C286.085 12.035 285.856 12.2027 285.715 12.4361C285.573 12.6696 285.53 12.9498 285.595 13.215C285.66 13.4802 285.828 13.7088 286.061 13.8504C286.295 13.9919 286.575 14.035 286.84 13.97C287.105 13.905 287.334 13.7374 287.475 13.5039C287.617 13.2704 287.66 12.9902 287.595 12.725C287.53 12.4598 287.362 12.2312 287.129 12.0897C286.895 11.9481 286.615 11.905 286.35 11.97Z" fill="white"/>
<path d="M287.28 22.85C287.545 22.7864 287.774 22.6199 287.917 22.3874C288.059 22.1549 288.104 21.8752 288.04 21.61C287.976 21.3448 287.81 21.1157 287.577 20.9732C287.345 20.8307 287.065 20.7864 286.8 20.85C286.669 20.8815 286.545 20.9386 286.436 21.018C286.326 21.0973 286.234 21.1975 286.163 21.3126C286.093 21.4277 286.045 21.5557 286.024 21.6891C286.003 21.8224 286.008 21.9587 286.04 22.09C286.072 22.2213 286.129 22.3452 286.208 22.4544C286.287 22.5637 286.387 22.6562 286.503 22.7268C286.618 22.7974 286.746 22.8446 286.879 22.8657C287.012 22.8869 287.149 22.8815 287.28 22.85Z" fill="white"/>
<path d="M354.14 18.16C352.595 17.2912 350.898 16.7276 349.14 16.5C345.423 16.1111 341.668 16.3034 338.01 17.07C330.38 18.48 322.41 21.21 314.2 24.19C310.09 25.68 306.1 27.19 302.25 28.52C298.634 29.8726 294.901 30.8935 291.1 31.57C287.51 32.14 284.04 32.21 281.19 31.14C279.866 30.6379 278.657 29.8733 277.637 28.892C276.616 27.9107 275.804 26.7331 275.25 25.43C274.81 24.3529 274.671 23.1767 274.847 22.0268C275.023 20.8768 275.508 19.7962 276.25 18.9C276.795 18.1633 277.489 17.5493 278.287 17.098C279.084 16.6466 279.968 16.3679 280.88 16.28C282.077 16.2018 283.263 16.5567 284.22 17.28C284.562 17.5333 284.88 17.8179 285.17 18.13C284.919 17.7705 284.634 17.4356 284.32 17.13C283.382 16.2471 282.157 15.7322 280.87 15.68C279.833 15.6763 278.807 15.8918 277.859 16.3123C276.911 16.7328 276.063 17.3488 275.37 18.12C274.454 19.0843 273.787 20.2586 273.43 21.54C273.021 23.0219 273.063 24.5919 273.55 26.05C274.095 27.5883 274.915 29.0147 275.97 30.26C277.142 31.6324 278.608 32.7228 280.26 33.45C283.69 34.98 287.67 35.05 291.54 34.63C295.56 34.108 299.517 33.1799 303.35 31.86C307.35 30.59 311.35 29.14 315.44 27.65C323.64 24.65 331.44 21.78 338.62 20.11C341.955 19.2469 345.398 18.873 348.84 19C350.316 19.0858 351.762 19.4523 353.1 20.08C354.302 20.6625 355.317 21.5701 356.03 22.7C356.733 23.674 357.139 24.8304 357.2 26.03C357.201 26.5401 357.083 27.0433 356.856 27.4999C356.629 27.9564 356.298 28.3537 355.89 28.66C355.193 29.2242 354.34 29.5605 353.445 29.6231C352.551 29.6857 351.659 29.4717 350.89 29.01C350.345 28.629 349.949 28.0705 349.77 27.43C349.63 26.9396 349.576 26.4288 349.61 25.92C349.644 25.4961 349.708 25.0751 349.8 24.66C349.648 25.0658 349.531 25.4841 349.45 25.91C349.353 26.4356 349.353 26.9744 349.45 27.5C349.564 28.2752 349.95 28.9844 350.54 29.5C351.4 30.1449 352.44 30.5067 353.515 30.5353C354.589 30.564 355.647 30.2581 356.54 29.66C357.14 29.2785 357.645 28.7648 358.016 28.1582C358.387 27.5515 358.614 26.868 358.68 26.16C358.753 24.619 358.367 23.0911 357.57 21.77C356.783 20.2724 355.595 19.0227 354.14 18.16Z" fill="white"/>
<path d="M230.7 25.53C229.429 25.0348 228.052 24.873 226.7 25.06C225.74 25.1916 224.803 25.4611 223.92 25.86C223.191 26.1918 222.497 26.5972 221.85 27.07C222.582 26.7916 223.334 26.5709 224.1 26.41C224.968 26.2318 225.855 26.1679 226.74 26.22C227.847 26.3029 228.92 26.6455 229.87 27.22C230.936 27.8562 231.749 28.8421 232.17 30.01C232.389 30.6248 232.478 31.2786 232.43 31.9296C232.382 32.5806 232.198 33.2143 231.89 33.79C230.66 36.25 227.07 37.71 223.43 38.09C219.973 38.4302 216.508 37.5338 213.65 35.56C212.456 34.6942 211.486 33.556 210.82 32.24C210.706 32.0097 210.605 31.7726 210.52 31.53L210.84 31.26C212.688 29.801 214.228 27.9893 215.37 25.93C216.178 24.4106 216.636 22.7295 216.71 21.01C216.74 20.5605 216.74 20.1095 216.71 19.66L216.94 19.78C218.19 17.28 220.81 15.47 223.42 14.25C225.974 13.0888 228.661 12.2458 231.42 11.74C235.961 10.8836 240.599 10.6682 245.2 11.1C248.146 11.3452 251.049 11.9635 253.84 12.94C254.824 13.2871 255.78 13.7084 256.7 14.2C255.858 13.6124 254.972 13.0908 254.05 12.64C251.357 11.3538 248.505 10.4292 245.57 9.89001C240.886 8.98861 236.094 8.7864 231.35 9.29C228.297 9.59988 225.296 10.2989 222.42 11.37C220.79 11.9875 219.239 12.7965 217.8 13.78C217.085 14.2952 216.416 14.8706 215.8 15.5C215.75 15.39 215.72 15.27 215.67 15.16C214.04 11.34 211.15 7.98001 207.93 4.89001L206.76 3.77L206.68 3.82999V3.92001L205.68 4.92001C202.45 8.01001 199.57 11.37 197.93 15.19L197.82 15.49C197.202 14.8749 196.533 14.3129 195.82 13.81C194.381 12.8265 192.83 12.0175 191.2 11.4C188.324 10.3304 185.323 9.63149 182.27 9.32C177.502 8.79525 172.682 8.98399 167.97 9.88C165.034 10.4176 162.183 11.3423 159.49 12.63C158.568 13.0808 157.682 13.6024 156.84 14.19C157.76 13.6984 158.716 13.2772 159.7 12.93C162.49 11.9535 165.394 11.3352 168.34 11.09C172.941 10.6582 177.579 10.8736 182.12 11.73C184.88 12.2334 187.567 13.0765 190.12 14.24C192.74 15.46 195.36 17.24 196.6 19.77L196.78 19.68C196.602 21.8442 197.061 24.0133 198.1 25.92C199.239 27.9783 200.775 29.79 202.62 31.25L202.95 31.52C202.85 31.76 202.76 32 202.64 32.23C201.981 33.5478 201.014 34.6868 199.82 35.55C196.961 37.5214 193.496 38.4176 190.04 38.08C186.39 37.7 182.81 36.24 181.57 33.78C181.264 33.2036 181.082 32.5695 181.035 31.9186C180.989 31.2676 181.079 30.6141 181.3 30C181.717 28.83 182.531 27.8429 183.6 27.21C184.549 26.633 185.622 26.2903 186.73 26.21C187.614 26.1579 188.502 26.2218 189.37 26.4C190.136 26.5631 190.888 26.7837 191.62 27.06C190.968 26.5891 190.272 26.1837 189.54 25.85C188.66 25.4524 187.727 25.183 186.77 25.05C185.418 24.8665 184.042 25.0282 182.77 25.52C181.879 25.8747 181.067 26.4033 180.382 27.0749C179.697 27.7466 179.152 28.5478 178.78 29.432C178.407 30.3162 178.215 31.2657 178.213 32.225C178.211 33.1844 178.401 34.1345 178.77 35.02C179.68 37.1017 181.29 38.7997 183.32 39.82C184.302 40.3456 185.338 40.7647 186.41 41.07C186.91 41.22 187.56 41.37 188.02 41.46C188.584 41.583 189.155 41.6699 189.73 41.72C191.899 41.9288 194.088 41.699 196.167 41.0445C198.246 40.39 200.172 39.324 201.83 37.91C203.279 36.6171 204.374 34.9751 205.01 33.14C205.477 31.5677 205.593 29.9121 205.35 28.29C205.057 26.0661 204.304 23.9275 203.14 22.01C202.744 21.3173 202.307 20.6493 201.83 20.01C201.83 20.01 202.16 20.8 202.62 22.23C203.272 24.1988 203.574 26.2669 203.51 28.34C203.465 29.224 203.304 30.0982 203.03 30.94C202.999 30.8948 202.966 30.8514 202.93 30.81C201.533 29.1196 200.431 27.2062 199.67 25.15C199.214 23.8135 199.037 22.3976 199.15 20.99C199.321 19.3972 199.814 17.8559 200.6 16.46C202.231 13.7037 204.252 11.1977 206.6 9.02V8.79C209.026 11.0342 211.114 13.6176 212.8 16.46C213.588 17.8544 214.078 19.3968 214.24 20.99C214.363 22.3978 214.185 23.8157 213.72 25.15C212.958 27.2036 211.859 29.1163 210.47 30.81L210.36 30.94C210.091 30.097 209.93 29.2234 209.88 28.34C209.819 26.2663 210.124 24.198 210.78 22.23C211.23 20.8 211.57 20.01 211.56 20.01C211.55 20.01 211.04 20.67 210.25 22.01C209.09 23.9295 208.338 26.0672 208.04 28.29C207.816 30.0691 208.032 31.8761 208.67 33.5518C209.309 35.2276 210.349 36.7208 211.7 37.9C213.357 39.3132 215.281 40.3788 217.358 41.0333C219.435 41.6878 221.622 41.918 223.79 41.71C224.365 41.6599 224.936 41.573 225.5 41.45C225.96 41.36 226.61 41.21 227.12 41.06C228.191 40.753 229.227 40.334 230.21 39.81C232.236 38.7836 233.843 37.0875 234.76 35.01C235.126 34.1206 235.311 33.1672 235.305 32.2054C235.299 31.2437 235.101 30.2928 234.723 29.4084C234.345 28.5239 233.794 27.7237 233.104 27.0544C232.413 26.385 231.596 25.86 230.7 25.51V25.53Z" fill="white"/>
<path d="M53.18 25.96C38.45 26.15 14.73 26.31 0 26.6C14.88 26.89 38.76 27.04 53.64 27.23C53.5164 27.0062 53.4127 26.7719 53.33 26.53C53.27 26.37 53.22 26.18 53.18 25.96Z" fill="white"/>
<path d="M87.88 25.64L66.64 25.82C66.64 25.97 66.64 26.13 66.58 26.28C66.4956 26.6517 66.3819 27.0162 66.24 27.37L91.4 27.58C90.87 27.38 90.33 27.2 89.81 27C89.0569 26.727 88.3905 26.2574 87.88 25.64Z" fill="white"/>
<path d="M159.35 25.29V25.4C160.23 26.24 161.08 27.12 161.94 27.99H163.94H175.48C176.128 26.9655 176.904 26.0279 177.79 25.2H163.94L159.35 25.29Z" fill="white"/>
<path d="M254.09 25.23L236.25 25.18C237.17 26.0217 237.989 26.9681 238.69 28H252.11C252.705 27.0363 253.373 26.1202 254.11 25.26L254.09 25.23Z" fill="white"/>
<path d="M324.63 25.59L324.26 25.87L324.15 25.94C323.59 26.34 323.04 26.74 322.51 27.17C322.299 27.3304 322.079 27.4773 321.85 27.61L347.52 27.4C347.312 26.8713 347.148 26.326 347.03 25.77L324.63 25.59Z" fill="white"/>
<path d="M412.7 26.5H412.34H411.54L405.08 26.39L383.18 26.22L360.59 25.92C360.59 26.38 360.59 26.85 360.59 27.31L383.22 27.01L405.12 26.84L411.58 26.73H412.38H412.74C412.74 26.73 412.74 26.66 412.74 26.64C412.74 26.62 412.7 26.54 412.7 26.5Z" fill="white"/>
<path d="M206.74 21.36C208.397 21.36 209.74 20.0169 209.74 18.36C209.74 16.7031 208.397 15.36 206.74 15.36C205.083 15.36 203.74 16.7031 203.74 18.36C203.74 20.0169 205.083 21.36 206.74 21.36Z" fill="white"/>
</g>
<defs>
<clipPath id="clip0_22_417">
<rect width="412.69" height="41.79" fill="white"/>
</clipPath>
</defs>
</svg>
