<svg width="133" height="132" viewBox="0 0 133 132" fill="none" xmlns="http://www.w3.org/2000/svg">
<path d="M66 124C98.0325 124 124 98.0325 124 66C124 33.9675 98.0325 8 66 8C33.9675 8 8 33.9675 8 66C8 98.0325 33.9675 124 66 124Z" fill="#F4E4E1"/>
<path d="M45.0304 43.4101C45.021 44.5063 44.6874 45.5753 44.0715 46.4822C43.4556 47.3892 42.585 48.0935 41.5695 48.5066C40.5539 48.9196 39.4389 49.0228 38.3648 48.8031C37.2907 48.5835 36.3057 48.0509 35.5338 47.2724C34.7619 46.4939 34.2377 45.5043 34.0273 44.4284C33.8168 43.3525 33.9296 42.2383 34.3512 41.2264C34.7729 40.2144 35.4847 39.3499 36.3969 38.7418C37.3091 38.1337 38.3808 37.8091 39.4771 37.8091C40.2104 37.8091 40.9365 37.9543 41.6134 38.2363C42.2902 38.5184 42.9046 38.9317 43.4209 39.4524C43.9372 39.9732 44.3452 40.591 44.6215 41.2703C44.8977 41.9495 45.0367 42.6768 45.0304 43.4101V43.4101Z" fill="#CC796B" stroke="#A36055" stroke-width="1.6" stroke-miterlimit="10"/>
<path d="M56.2802 66.9936L48.7009 54.6476C48.1374 53.7286 47.3472 52.9697 46.406 52.4438C45.4649 51.918 44.4045 51.6428 43.3264 51.6445H35.4135C34.3413 51.642 33.2863 51.9146 32.3495 52.4362C31.4127 52.9578 30.6254 53.711 30.0628 54.6238L22.5193 66.8387C22.1314 67.4728 21.9946 68.2291 22.1357 68.9589C22.2768 69.6887 22.6857 70.3394 23.282 70.7832C23.5993 71.0127 23.9602 71.1746 24.3426 71.2588C24.725 71.3431 25.1206 71.3479 25.5049 71.2731C25.8892 71.1982 26.2541 71.0453 26.5768 70.8237C26.8996 70.6021 27.1735 70.3166 27.3814 69.9848L31.8384 63.0372L31.9814 71.0931L31.326 90.7204C31.2866 91.4756 31.5078 92.2215 31.9524 92.8332C32.3971 93.4449 33.0384 93.8854 33.769 94.081C34.2292 94.1791 34.7054 94.1747 35.1637 94.0681C35.6221 93.9614 36.0514 93.7552 36.421 93.464C36.7907 93.1728 37.0917 92.8038 37.3027 92.3832C37.5138 91.9626 37.6296 91.5006 37.642 91.0302L38.3451 71.105H40.6212L41.372 90.9468C41.3863 91.6956 41.6548 92.4172 42.1334 92.9932C42.612 93.5693 43.2722 93.9655 44.0056 94.1167C44.4748 94.1896 44.9544 94.1573 45.4096 94.0222C45.8648 93.8871 46.2843 93.6526 46.6378 93.3356C46.9913 93.0186 47.2699 92.627 47.4536 92.1892C47.6373 91.7513 47.7214 91.2781 47.6999 90.8038L47.0087 71.105L47.1398 63.2994L51.3346 69.9848C51.7311 70.6298 52.3583 71.0997 53.0888 71.2989C53.8192 71.4981 54.5981 71.4117 55.2672 71.0573C55.6098 70.8659 55.9096 70.6063 56.1479 70.2946C56.3863 69.9828 56.5583 69.6255 56.6532 69.2447C56.7481 68.8639 56.764 68.4677 56.6998 68.0805C56.6357 67.6934 56.4928 67.3235 56.2802 66.9936V66.9936Z" fill="#CC796B" stroke="#A36055" stroke-width="1.6" stroke-linejoin="round"/>
<path d="M98.2279 43.4101C98.2185 44.5063 97.8848 45.5753 97.2689 46.4822C96.653 47.3892 95.7824 48.0935 94.7669 48.5066C93.7514 48.9196 92.6363 49.0228 91.5623 48.8031C90.4882 48.5835 89.5031 48.0509 88.7313 47.2724C87.9594 46.4939 87.4352 45.5043 87.2247 44.4284C87.0143 43.3525 87.127 42.2383 87.5487 41.2264C87.9704 40.2144 88.6822 39.3499 89.5943 38.7418C90.5065 38.1337 91.5783 37.8091 92.6746 37.8091C93.4079 37.8091 94.1339 37.9543 94.8108 38.2363C95.4877 38.5184 96.102 38.9317 96.6183 39.4524C97.1346 39.9732 97.5427 40.591 97.8189 41.2703C98.0952 41.9495 98.2342 42.6768 98.2279 43.4101V43.4101Z" fill="#CC796B" stroke="#A36055" stroke-width="1.6" stroke-miterlimit="10"/>
<path d="M109.478 66.9936L101.898 54.6476C101.335 53.7286 100.545 52.9697 99.6035 52.4438C98.6623 51.918 97.6019 51.6428 96.5238 51.6445H88.6467C87.5744 51.642 86.5195 51.9146 85.5827 52.4362C84.6459 52.9578 83.8585 53.711 83.2959 54.6238L75.7167 66.8387C75.3303 67.4722 75.1931 68.2267 75.3319 68.9557C75.4706 69.6846 75.8754 70.336 76.4675 70.7832C76.7857 71.013 77.1476 71.175 77.5309 71.2594C77.9142 71.3438 78.3107 71.3487 78.696 71.2739C79.0813 71.1991 79.4471 71.0461 79.7709 70.8244C80.0948 70.6027 80.3697 70.3169 80.5789 69.9848L85.0716 62.9895L85.2146 71.0454L84.5234 90.7204C84.484 91.4756 84.7052 92.2215 85.1499 92.8332C85.5946 93.4449 86.2358 93.8854 86.9664 94.081C87.4266 94.1791 87.9028 94.1747 88.3612 94.0681C88.8195 93.9614 89.2488 93.7552 89.6184 93.464C89.9881 93.1728 90.2892 92.8038 90.5002 92.3832C90.7112 91.9626 90.827 91.5006 90.8394 91.0302L91.5425 71.105H93.8067L94.4979 90.9468C94.5122 91.6956 94.7807 92.4172 95.2593 92.9932C95.7379 93.5693 96.3981 93.9655 97.1316 94.1167C97.6008 94.1896 98.0803 94.1573 98.5355 94.0222C98.9907 93.8871 99.4102 93.6526 99.7637 93.3356C100.117 93.0186 100.396 92.627 100.58 92.1892C100.763 91.7513 100.847 91.2781 100.826 90.8038L100.135 71.105L100.266 63.2994L104.532 69.9848C104.929 70.6298 105.556 71.0997 106.286 71.2989C107.017 71.4981 107.796 71.4117 108.465 71.0573C108.807 70.8659 109.107 70.6063 109.345 70.2946C109.584 69.9828 109.756 69.6255 109.851 69.2447C109.946 68.8639 109.961 68.4677 109.897 68.0805C109.833 67.6934 109.69 67.3235 109.478 66.9936V66.9936Z" fill="#CC796B" stroke="#A36055" stroke-width="1.6" stroke-linejoin="round"/>
<path d="M49.3206 35.7832V29.8247H82.6881V35.0324" stroke="#A36055" stroke-width="1.6" stroke-linecap="round" stroke-linejoin="round"/>
<path d="M56.9475 38.6651V36.8574H60.0967V45.1568H58.073V38.6651H56.9475Z" fill="#A36055"/>
<path d="M72.124 38.7447C72.9122 38.7447 73.5375 38.9834 73.9999 39.4609C74.4698 39.9384 74.7047 40.6016 74.7047 41.4505V45.1568H72.772V41.712C72.772 41.3027 72.6621 40.9882 72.4423 40.7684C72.2301 40.541 71.9345 40.4273 71.5555 40.4273C71.1765 40.4273 70.8772 40.541 70.6574 40.7684C70.4451 40.9882 70.339 41.3027 70.339 41.712V45.1568H68.4063V41.712C68.4063 41.3027 68.2964 40.9882 68.0766 40.7684C67.8644 40.541 67.5688 40.4273 67.1898 40.4273C66.8108 40.4273 66.5114 40.541 66.2916 40.7684C66.0794 40.9882 65.9733 41.3027 65.9733 41.712V45.1568H64.0292V38.8129H65.9733V39.6087C66.1704 39.3435 66.4281 39.135 66.7464 38.9834C67.0647 38.8243 67.4248 38.7447 67.8265 38.7447C68.304 38.7447 68.7284 38.847 69.0998 39.0517C69.4788 39.2563 69.7744 39.5481 69.9866 39.9271C70.2064 39.5784 70.5058 39.2942 70.8847 39.0744C71.2637 38.8546 71.6768 38.7447 72.124 38.7447Z" fill="#A36055"/>
</svg>
