<svg width="133" height="132" viewBox="0 0 133 132" fill="none" xmlns="http://www.w3.org/2000/svg">
<path d="M66 124C98.0325 124 124 98.0325 124 66C124 33.9675 98.0325 8 66 8C33.9675 8 8 33.9675 8 66C8 98.0325 33.9675 124 66 124Z" fill="#F5F0DB"/>
<path d="M39.4296 72.6782C44.662 67.4458 44.662 58.9624 39.4296 53.73C34.1971 48.4975 25.7137 48.4975 20.4813 53.73C15.2489 58.9624 15.2489 67.4458 20.4813 72.6782C25.7137 77.9107 34.1971 77.9107 39.4296 72.6782Z" stroke="#A36055" stroke-width="1.6" stroke-miterlimit="10"/>
<path d="M111.278 72.6524C116.556 67.3739 116.556 58.8158 111.278 53.5373C105.999 48.2588 97.4414 48.2587 92.1629 53.5372C86.8844 58.8158 86.8844 67.3739 92.1629 72.6524C97.4414 77.9309 105.999 77.9309 111.278 72.6524Z" stroke="#A36055" stroke-width="1.6" stroke-miterlimit="10"/>
<path d="M84.9768 47.154C78.7233 45.24 76.6912 38.7505 65.8755 38.7505C55.0597 38.7505 54.1813 44.7549 46.9708 47.154C42.1987 48.8564 37.1935 49.8159 32.1302 49.9989L31.9205 76.7172C31.9205 76.7172 45.8171 91.6233 66.0066 91.6233C86.196 91.6233 100.093 76.7172 100.093 76.7172V49.8023C94.9536 49.6445 89.8634 48.7527 84.9768 47.154Z" fill="#E5BCB5" stroke="#A36055" stroke-width="2" stroke-miterlimit="10"/>
<path d="M75.1967 60.2642H56.8165V78.6575H75.1967V60.2642Z" stroke="#A36055" stroke-width="1.6" stroke-miterlimit="10"/>
<path d="M31.7894 58.521H37.348" stroke="#A36055" stroke-width="1.6" stroke-miterlimit="10"/>
<path d="M31.7894 68.3013H37.348" stroke="#A36055" stroke-width="1.6" stroke-miterlimit="10"/>
<path d="M100.224 58.521H94.6652" stroke="#A36055" stroke-width="1.6" stroke-miterlimit="10"/>
<path d="M68.7859 69.4546H63.2404" stroke="#A36055" stroke-width="1.6" stroke-miterlimit="10"/>
<path d="M100.224 68.3013H94.6652" stroke="#A36055" stroke-width="1.6" stroke-miterlimit="10"/>
</svg>
