<svg width="133" height="132" viewBox="0 0 133 132" fill="none" xmlns="http://www.w3.org/2000/svg">
<path d="M66.5 124.885C98.5325 124.885 124.5 98.7198 124.5 66.4427C124.5 34.1657 98.5325 8 66.5 8C34.4675 8 8.5 34.1657 8.5 66.4427C8.5 98.7198 34.4675 124.885 66.5 124.885Z" fill="#F5EBD8"/>
<path d="M85.6322 28.8188C82.5256 33.2217 80.1136 38.0824 78.482 43.2284C78.0025 44.5418 77.7057 45.9157 77.6001 47.3111C77.6001 49.5404 78.479 51.6784 80.0434 53.2547C81.6078 54.8311 83.7296 55.7167 85.942 55.7167C88.1664 55.72 90.3025 54.8393 91.8865 53.2656C93.4706 51.692 94.3748 49.5524 94.4031 47.3111C94.3377 46.3675 94.1412 45.4378 93.8191 44.5493C91.8729 38.9285 89.1142 33.628 85.6322 28.8188V28.8188Z" fill="#E8CE9E" stroke="#A77D31" stroke-width="1.6" stroke-miterlimit="10"/>
<path d="M87.0144 50.9618C86.3723 50.9634 85.7363 50.8372 85.1428 50.5903C84.5493 50.3434 84.01 49.9809 83.556 49.5234C83.102 49.0659 82.7421 48.5225 82.4972 47.9245C82.2522 47.3265 82.1269 46.6856 82.1284 46.0386" stroke="#A77D31" stroke-width="1.6" stroke-miterlimit="10" stroke-linecap="round"/>
<path d="M100.886 77.2717C100.803 76.6165 100.489 76.0133 100.001 75.5723C99.5128 75.1314 98.8836 74.8821 98.2282 74.8701L71.272 74.0535C71.0364 74.048 70.8115 73.9537 70.6416 73.7891C70.4717 73.6246 70.3692 73.4019 70.3544 73.165C70.3411 72.9127 70.4257 72.6652 70.5903 72.4747C70.7549 72.2843 70.9865 72.1657 71.2363 72.1443L95.7018 70.4512C96.0633 70.4243 96.4152 70.3219 96.7353 70.1505C97.0553 69.979 97.3364 69.7423 97.5606 69.4554C97.7848 69.1685 97.9472 68.8376 98.0376 68.4839C98.1279 68.1302 98.1441 67.7615 98.0852 67.4011C97.9553 66.7617 97.6028 66.1901 97.0915 65.7894C96.5802 65.3887 95.9437 65.1852 95.2967 65.2157L80.1025 65.648C73.7031 65.8041 66.6244 64.7954 61.1783 64.3511C60.6086 64.3083 60.0667 64.0855 59.6298 63.7146C59.1929 63.3437 58.8832 62.8434 58.7446 62.2849C58.606 61.7264 58.6457 61.1381 58.858 60.6037C59.0703 60.0692 59.4443 59.6157 59.927 59.3078L62.8824 57.3985C65.5574 56.0656 67.6709 53.8124 68.8409 51.0463L69.1508 50.2658C69.3548 49.8019 69.4639 49.3013 69.4713 48.794C69.4788 48.2866 69.3846 47.783 69.1943 47.3132C69.0041 46.8434 68.7217 46.4172 68.364 46.06C68.0064 45.7028 67.5809 45.422 67.113 45.2344C66.7893 45.1066 66.4333 45.0878 66.0982 45.1808C65.763 45.2739 65.4668 45.4739 65.2539 45.7508L61.8576 49.4853L51.8235 54.8408C42.9215 60.4365 41.0982 66.5486 41.0982 66.5486L27.4175 66.3805V88.7633L40.7883 89.0275C44.5436 92.1922 49.1654 94.1313 54.04 94.5872C57.2852 95.0097 60.552 95.2423 63.8239 95.2836L83.189 99.0181C83.7112 99.1324 84.2567 99.0609 84.7325 98.8157C85.2083 98.5705 85.5851 98.1668 85.7988 97.6732C85.9171 97.3741 85.9706 97.053 85.9556 96.7314C85.9407 96.4098 85.8576 96.0951 85.712 95.8085C85.5664 95.5219 85.3616 95.27 85.1115 95.0697C84.8613 94.8694 84.5715 94.7254 84.2615 94.6472L66.386 89.844C66.2671 89.8227 66.1535 89.778 66.0517 89.7125C65.9499 89.647 65.8619 89.5619 65.7927 89.4621C65.7236 89.3623 65.6746 89.2497 65.6486 89.1309C65.6226 89.012 65.6201 88.8891 65.6412 88.7693C65.6624 88.6495 65.7067 88.535 65.7717 88.4324C65.8368 88.3298 65.9212 88.2412 66.0203 88.1715C66.1193 88.1018 66.231 88.0524 66.349 88.0262C66.4669 88 66.5889 87.9975 66.7078 88.0188L93.5449 90.5885C93.9039 90.6132 94.2641 90.5632 94.6031 90.4416C94.9421 90.3199 95.2527 90.1293 95.5154 89.8814C95.7781 89.6336 95.9874 89.334 96.1301 89.0011C96.2729 88.6683 96.3462 88.3094 96.3454 87.9468C96.3191 87.2982 96.065 86.6802 95.6285 86.2029C95.1919 85.7257 94.6013 85.4202 93.962 85.341L70.6762 82.243C70.4475 82.2063 70.2406 82.085 70.096 81.9028C69.9515 81.7205 69.8796 81.4905 69.8945 81.2577C69.9094 81.0248 70.01 80.806 70.1766 80.644C70.3433 80.482 70.5639 80.3885 70.7953 80.3817L98.3593 80.1776C98.7199 80.1698 99.0749 80.0865 99.4018 79.9329C99.7286 79.7793 100.02 79.5588 100.258 79.2854C100.495 79.0121 100.674 78.6918 100.782 78.3451C100.89 77.9984 100.926 77.6329 100.886 77.2717Z" fill="#E8CE9E" stroke="#A77D31" stroke-width="1.6" stroke-miterlimit="10"/>
</svg>
