<svg width="1440" height="146" viewBox="0 0 1440 146" fill="none" xmlns="http://www.w3.org/2000/svg">
<path d="M1440 145H0V0.5C0 0.5 225 106.262 396.5 60.2617C568 14.2617 566 94.5 717 92C775.604 91.0297 903 28.5233 1025 60.2617C1147 92 1440 0.5 1440 0.5V145Z" fill="url(#paint0_linear_460_4)"/>
<path d="M1440 146H0V1C0 1 255.851 160.937 436.425 60.9684C617 -39 631.295 102.009 797.5 99.5C862.005 98.5264 983.715 -3.84815 1118 28C1252.28 59.8481 1440 1 1440 1V146Z" fill="url(#paint1_linear_460_4)"/>
<defs>
<linearGradient id="paint0_linear_460_4" x1="720" y1="0.5" x2="720" y2="145" gradientUnits="userSpaceOnUse">
<stop stop-color="white" stop-opacity="0"/>
<stop offset="0.53125" stop-color="white" stop-opacity="0.5"/>
<stop offset="1" stop-color="white"/>
</linearGradient>
<linearGradient id="paint1_linear_460_4" x1="792.5" y1="1" x2="792.5" y2="146" gradientUnits="userSpaceOnUse">
<stop stop-color="white" stop-opacity="0"/>
<stop offset="0.53125" stop-color="white" stop-opacity="0.5"/>
<stop offset="1" stop-color="white"/>
</linearGradient>
</defs>
</svg>
