<svg width="280" height="64" viewBox="0 0 280 64" fill="none" xmlns="http://www.w3.org/2000/svg">
<g clip-path="url(#clip0_575_729)">
<path d="M276.04 37.7898C274.56 35.7298 272.61 34.3498 269.87 34.7098C269.334 34.7799 268.82 34.9667 268.364 35.257C267.908 35.5472 267.521 35.9339 267.23 36.3898C266.982 36.7236 266.813 37.1098 266.737 37.5188C266.66 37.9278 266.679 38.3489 266.79 38.7498C267.06 38.2698 267.23 37.9698 267.41 37.6698C267.784 37.0518 268.338 36.5633 268.997 36.2701C269.657 35.9768 270.391 35.8929 271.1 36.0298C272.307 36.3021 273.39 36.9667 274.18 37.9198C274.522 38.2566 274.79 38.6602 274.969 39.1054C275.148 39.5507 275.232 40.0279 275.218 40.5075C275.204 40.987 275.092 41.4585 274.887 41.8924C274.683 42.3264 274.391 42.7136 274.03 43.0298C272.731 44.0716 271.249 44.8618 269.66 45.3598C267.517 45.9189 265.322 46.254 263.11 46.3598C256.374 46.7245 249.627 45.8777 243.19 43.8598L242.57 43.6698C233.44 40.9098 224.57 37.3798 215.7 33.9198C215.44 33.8198 215.21 33.6698 214.75 33.4398H215.66C218.76 33.4998 221.87 33.6998 224.98 33.5798C227.71 33.4698 230.44 33.0098 233.17 32.6898C234.63 32.5098 234.7 32.5398 235.23 33.8698C235.51 34.5598 235.81 35.2498 236.04 35.9498C236.707 37.7345 237.972 39.2329 239.62 40.1898C240.699 40.9288 241.878 41.5113 243.12 41.9198C246.52 43.0398 250.12 42.8598 253.8 42.5698C253.829 42.5805 253.861 42.5805 253.89 42.5698C254.1 42.3798 254.44 42.2198 254.49 41.9898C254.492 41.8493 254.465 41.7099 254.41 41.5807C254.355 41.4515 254.273 41.3353 254.17 41.2398C253.915 41.0368 253.64 40.8593 253.35 40.7098C251.29 39.2698 249.2 37.8798 247.2 36.3798C245.2 34.8798 243.28 33.1298 240.84 32.2398L239.25 31.6698C239.316 31.6018 239.39 31.5414 239.47 31.4898C239.7 31.4198 239.93 31.3598 240.15 31.2798C243.67 30.0098 247.23 28.8498 250.23 26.4998C252.03 25.0798 253.35 23.4398 253.32 21.0198C253.347 20.5192 253.203 20.0243 252.912 19.6158C252.622 19.2073 252.202 18.9091 251.72 18.7698C250.471 18.3782 249.128 18.397 247.89 18.8235C246.652 19.25 245.583 20.0617 244.84 21.1398C244.691 21.4618 244.57 21.7965 244.48 22.1398C244.72 22.1398 244.79 22.1398 244.83 22.0798C244.87 22.0198 245.16 21.7498 245.34 21.5998C246.86 20.2098 248.52 19.2598 250.7 19.8098C251.7 20.0598 251.94 20.3898 251.87 21.3898C251.835 22.0374 251.659 22.6696 251.353 23.2415C251.047 23.8135 250.619 24.3113 250.1 24.6998C248.534 25.8986 246.86 26.9497 245.1 27.8398C240.23 30.2298 234.96 31.1698 229.64 31.8398C227.95 32.0498 226.26 32.1998 224.57 32.3798C226.29 31.3798 228.02 30.5098 229.76 29.6398C232.844 28.1706 235.342 25.7043 236.85 22.6398C238.415 19.6551 238.905 16.2233 238.24 12.9198C238.077 12.5076 237.851 12.1231 237.57 11.7798C237.23 12.0698 236.73 12.2798 236.57 12.6498C235.855 14.3735 234.753 15.9098 233.35 17.1398C231.15 19.1398 228.85 20.9698 226.58 22.8398C224.06 24.9198 221.46 26.9198 220.22 30.1098C219.94 30.8498 219.72 31.6198 219.45 32.4298C214.94 32.2902 210.463 31.6189 206.11 30.4298C201.46 29.2198 196.8 28.0298 192.11 26.9598C189.83 26.4298 187.48 26.1998 185.11 25.8398V25.6998C185.386 25.608 185.671 25.5444 185.96 25.5098C188.71 25.3398 191.45 25.0298 194.2 25.0798C198.758 25.2211 203.289 24.3252 207.45 22.4598C208.629 21.9502 209.713 21.2471 210.66 20.3798C212.403 18.8045 213.633 16.7421 214.19 14.4598C214.361 13.9556 214.607 13.4801 214.92 13.0498C215.26 12.4598 215.05 12.0498 214.36 12.0498C213.886 12.0836 213.417 12.1674 212.96 12.2998C207.963 13.7453 202.87 14.838 197.72 15.5698C194.81 15.8117 191.998 16.733 189.509 18.2596C187.02 19.7863 184.924 21.8757 183.39 24.3598C183.148 24.6506 182.84 24.8807 182.493 25.0318C182.146 25.1828 181.768 25.2506 181.39 25.2298C176.021 24.575 170.597 24.4946 165.21 24.9898C164.21 25.0798 163.21 25.1898 162.21 25.3298C161.446 25.9871 160.586 26.5233 159.66 26.9198L158.83 27.2598C161.346 26.7044 163.906 26.3698 166.48 26.2598C166.82 26.2565 167.148 26.3815 167.4 26.6098C168.681 27.9888 169.725 29.5701 170.49 31.2898C172.92 36.7098 176.15 41.4698 181.37 44.6298C184.686 46.541 188.249 47.9847 191.96 48.9198C192.69 49.1198 192.96 48.7698 192.69 48.0398C192.54 47.5544 192.291 47.1052 191.96 46.7198C190.88 45.4009 190.016 43.9192 189.4 42.3298C188.2 39.7698 187.27 37.0698 185.4 34.8498C182.448 31.2489 178.598 28.4896 174.24 26.8498C173.79 26.6898 173.37 26.4498 172.94 26.2498C173.253 26.107 173.598 26.0517 173.94 26.0898C178.01 26.5498 182.1 26.8998 186.13 27.5198C190.33 28.1698 194.48 29.0498 198.64 29.8898C199.299 30.0647 199.917 30.3671 200.46 30.7798C201.175 31.3001 201.776 31.9602 202.229 32.7199C202.681 33.4797 202.974 34.3234 203.09 35.1998C204.189 40.1768 206.839 44.6764 210.66 48.0498C212.795 50.2776 215.252 52.1721 217.95 53.6698C218.47 53.9198 218.88 54.8098 219.55 54.2098C220.22 53.6098 219.6 52.9298 219.27 52.4398C218.007 50.3927 217.317 48.0445 217.27 45.6398C217.088 42.381 215.655 39.3182 213.27 37.0898C211.799 35.8481 210.26 34.6896 208.66 33.6198C208.21 33.2898 207.74 32.9798 207.27 32.6198C207.447 32.5521 207.643 32.5521 207.82 32.6198C209.15 33.0598 210.5 33.4698 211.82 33.9698C217.1 35.9698 222.373 37.9998 227.64 40.0598C227.861 40.1395 228.062 40.2656 228.23 40.4298C230.441 42.5504 232.1 45.1803 233.06 48.0898C235.06 54.8198 239.87 59.0198 245.91 62.0898C246.367 62.3104 246.851 62.4685 247.35 62.5598C247.512 62.6005 247.681 62.6056 247.845 62.5745C248.009 62.5434 248.164 62.477 248.3 62.3798C248.46 62.1898 248.39 61.7298 248.3 61.3798C247.881 60.2025 247.524 59.0043 247.23 57.7898C246.734 55.1894 245.546 52.7711 243.79 50.7898C241.601 48.2472 239.063 46.0284 236.25 44.1998C235.55 43.7498 234.89 43.1998 234.25 42.7398C234.43 42.6198 234.52 42.6098 234.6 42.6398C239.93 44.3998 245.19 46.4198 250.82 47.1498C250.932 47.1928 251.033 47.2612 251.115 47.3497C251.196 47.4381 251.256 47.5443 251.29 47.6598C252.089 51.1368 254.117 54.2083 257 56.3098C260.914 59.3258 265.332 61.6215 270.05 63.0898C270.288 63.1777 270.542 63.2116 270.795 63.1891C271.047 63.1667 271.292 63.0883 271.51 62.9598C271.627 62.7359 271.688 62.4872 271.688 62.2348C271.688 61.9824 271.627 61.7337 271.51 61.5098C270.72 60.0075 269.793 58.5814 268.74 57.2498C265.867 53.8268 262.415 50.9361 258.54 48.7098C258.27 48.5598 258.03 48.3598 257.54 48.0398L258.22 47.9898C261.05 47.8498 263.88 47.7698 266.71 47.5498C269.483 47.423 272.153 46.4609 274.37 44.7898C275.039 44.3004 275.606 43.6857 276.04 42.9798C276.562 42.2152 276.842 41.3108 276.842 40.3848C276.842 39.4588 276.562 38.5544 276.04 37.7898ZM237.48 32.7898C238.253 32.8673 239.016 33.018 239.76 33.2398C240.995 33.6803 242.17 34.2714 243.26 34.9998C245.71 36.7998 248.04 38.7498 250.63 40.8298C248.042 40.1912 245.643 38.947 243.63 37.1998C241.81 35.5898 240.04 33.9598 237.68 33.1998C237.576 33.166 237.478 33.1153 237.39 33.0498C237.414 32.9578 237.444 32.8675 237.48 32.7798V32.7898ZM239.66 35.3298C240.73 36.0798 241.66 37.0598 242.66 37.8498C243.92 38.7898 245.24 39.6398 246.55 40.5198C246.92 40.7598 247.33 40.9498 247.9 41.2598C244 41.5598 237.5 38.7098 236.75 33.8498C237.752 34.2776 238.724 34.772 239.66 35.3298ZM225.02 25.9198C226.8 24.3798 228.79 23.0698 230.55 21.5098C232.31 19.9498 234.13 18.0898 235.9 16.3698C236.06 16.2098 236.21 16.0398 236.37 15.8698C236.018 17.1902 235.383 18.4184 234.51 19.4698C232.05 22.7898 228.67 24.9698 225.27 27.1498C224.18 27.8498 223.15 28.6598 222.1 29.4198L221.91 29.2598C222.889 28.0944 223.927 26.9796 225.02 25.9198ZM222.75 30.6198C224.9 29.0998 226.97 27.4698 229.2 26.0898C232.074 24.1939 234.553 21.759 236.5 18.9198C236.56 18.8298 236.65 18.7498 236.78 18.5998C236.492 21.0199 235.4 23.2735 233.68 24.9998C232.246 26.6129 230.478 27.8957 228.5 28.7598C226.57 29.5598 224.69 30.4898 222.8 31.3498C222.54 31.4698 222.26 31.5398 221.99 31.6398L221.74 31.3198L222.75 30.6198ZM212.41 16.5798C211.1 18.3298 209.84 20.1398 207.73 21.0098C203.968 22.6546 199.915 23.5285 195.81 23.5798C193.28 23.5798 190.74 23.6998 188.21 23.7598C188.04 23.7598 187.88 23.7598 187.71 23.7598V23.5798C188.33 23.3398 188.95 23.0798 189.58 22.8698C193.812 21.3986 198.191 20.3927 202.64 19.8698C206.273 19.4702 209.732 18.1064 212.66 15.9198C212.604 16.1491 212.52 16.3707 212.41 16.5798ZM188.66 20.6298C191.422 18.523 194.721 17.2372 198.18 16.9198C202.702 16.4452 207.162 15.5035 211.49 14.1098C211.76 14.0198 212.06 13.9698 212.33 13.8998C212.39 13.9798 212.44 14.0598 212.5 14.1298C211.889 14.7076 211.245 15.2485 210.57 15.7498C207.953 17.3318 205.014 18.3057 201.97 18.5998C196.765 19.2073 191.674 20.5542 186.85 22.5998C186.85 22.5998 186.75 22.5998 186.46 22.5998C187.26 21.8098 187.9 21.1698 188.66 20.6298ZM176.97 29.7498C180.97 32.2498 184.55 35.1798 186.53 39.6498C187.18 41.1198 187.85 42.5898 188.53 44.0298C189.04 45.0298 189.63 46.0298 190.17 47.0298C190.17 47.0298 190.1 47.0298 190.05 47.0298C187.064 45.2479 184.464 42.8885 182.4 40.0898C180.79 37.8098 179.34 35.3998 177.75 33.0898C176.69 31.5598 175.49 30.0898 174.34 28.6098C175.228 28.9323 176.093 29.3131 176.93 29.7498H176.97ZM178.13 36.1998C179.516 38.6427 181.166 40.9264 183.05 43.0098C183.488 43.4621 183.864 43.9698 184.17 44.5198C184.013 44.4702 183.859 44.4101 183.71 44.3398C179.473 42.1121 175.993 38.6771 173.71 34.4698C172.84 32.7598 171.98 31.0598 171.04 29.3898C170.49 28.3898 169.8 27.4698 169.04 26.3898C170.2 27.2198 171.3 27.9198 172.29 28.7498C174.67 30.8503 176.638 33.3769 178.09 36.1998H178.13ZM204.23 33.4098C208.23 37.5898 209.8 42.9498 212.57 47.5898C208.102 44.077 205.112 39.0179 204.19 33.4098H204.23ZM214.23 40.6098C215.112 42.1017 215.69 43.7535 215.93 45.4698C216.27 47.4698 216.69 49.3798 217.07 51.3198C216.896 51.2047 216.741 51.063 216.61 50.8998C215.681 49.7312 214.816 48.5127 214.02 47.2498C212.64 44.8298 211.44 42.3298 210.1 39.8898C209.02 37.8898 207.86 36.0298 206.72 34.0598C209.38 35.9198 212.3 37.6098 214.16 40.6098H214.23ZM246.23 59.7398C244.83 59.2498 238.42 50.6098 235.51 45.3198C240.49 49.0398 245.59 52.7198 246.18 59.7398H246.23ZM242.63 58.4498C240.787 57.541 239.196 56.191 238 54.5198C236.977 53.1237 236.084 51.6376 235.33 50.0798C234.33 47.9598 233.44 45.7398 232.49 43.5098L242.63 58.4498ZM262.63 58.4498C258.58 56.1298 254.7 53.6398 252.79 48.6998C254.54 50.5098 256.06 52.1898 257.7 53.7498C259.34 55.3098 261.09 56.7498 262.79 58.2598L262.63 58.4498ZM269.52 61.0298C263.653 57.5912 258.401 53.1975 253.98 48.0298C260.29 50.9198 265.66 54.9698 269.48 60.9898L269.52 61.0298Z" fill="#90767D"/>
<path d="M113.98 24.9202C108.594 24.4233 103.169 24.5071 97.7997 25.1702C97.422 25.1879 97.0453 25.1187 96.6985 24.9679C96.3518 24.817 96.0443 24.5886 95.7997 24.3002C94.2683 21.8126 92.1734 19.72 89.6841 18.1913C87.1948 16.6627 84.381 15.7408 81.4697 15.5002C76.3219 14.7731 71.2323 13.6804 66.2397 12.2302C65.7798 12.0977 65.3072 12.0139 64.8297 11.9802C64.1497 11.9802 63.9397 12.3702 64.2797 12.9802C64.5882 13.4156 64.8308 13.894 64.9997 14.4002C65.4499 16.15 66.2863 17.7768 67.4474 19.1612C68.6085 20.5456 70.0649 21.6523 71.7097 22.4002C75.8716 24.2749 80.4076 25.1711 84.9697 25.0202C87.7097 25.0202 90.4597 25.2802 93.2097 25.4502C93.4977 25.4906 93.7819 25.5542 94.0597 25.6402C94.0597 25.6402 94.0597 25.7402 94.0597 25.7802C91.7397 26.1502 89.3897 26.3802 87.0597 26.9002C82.3697 27.9702 77.7097 29.1602 73.0597 30.3802C68.7027 31.5642 64.2224 32.2354 59.7097 32.3802C59.4397 31.5602 59.2297 30.8002 58.9397 30.0602C57.7097 26.8602 55.1097 24.8702 52.5897 22.7902C50.3097 20.9102 48.0197 19.0502 45.8097 17.0802C44.4305 15.828 43.3534 14.2791 42.6597 12.5502C42.5097 12.1902 42.0197 11.9702 41.6597 11.6802C41.3797 12.0257 41.1507 12.4096 40.9797 12.8202C40.321 16.113 40.8079 19.5321 42.3597 22.5102C43.8727 25.575 46.3738 28.0409 49.4597 29.5102C51.1897 30.3702 52.9297 31.2302 54.6497 32.2402C52.9597 32.0602 51.2697 31.9202 49.5797 31.7102C44.2497 31.0302 38.9797 30.0902 34.1097 27.7102C32.3499 26.8236 30.6761 25.7758 29.1097 24.5802C28.5919 24.1902 28.1653 23.6921 27.8596 23.1204C27.5539 22.5488 27.3765 21.9174 27.3397 21.2702C27.2697 20.2702 27.5397 19.9402 28.5097 19.6902C30.6897 19.1302 32.3497 20.0802 33.8797 21.4702C34.0497 21.6302 34.2097 21.8102 34.3897 21.9602C34.5697 22.1102 34.4997 21.9602 34.7297 22.0202C34.6441 21.6754 34.5235 21.3404 34.3697 21.0202C33.6265 19.9421 32.5575 19.1304 31.3194 18.7039C30.0814 18.2774 28.7393 18.2586 27.4897 18.6502C27.0064 18.7907 26.586 19.0927 26.2984 19.5058C26.0109 19.9189 25.8737 20.4182 25.9097 20.9202C25.9097 23.3302 27.1897 24.9802 28.9897 26.3902C31.9897 28.7502 35.5497 29.9102 39.0797 31.1702L39.7597 31.3902C39.8097 31.3902 39.8497 31.4602 39.9697 31.5702L38.3797 32.1302C35.9397 33.0202 34.0497 34.7402 32.0197 36.2702C29.9897 37.8002 27.9297 39.1602 25.8797 40.6002C25.5885 40.7567 25.3108 40.9373 25.0497 41.1402C24.9495 41.2379 24.8697 41.3544 24.8147 41.4832C24.7598 41.6119 24.7309 41.7502 24.7297 41.8902C24.7797 42.1102 25.1197 42.2802 25.3397 42.4602C25.3397 42.4602 25.3397 42.4602 25.4197 42.4602C29.0697 42.7602 32.6997 42.9402 36.1097 41.8102C37.3687 41.4128 38.5642 40.8369 39.6597 40.1002C41.2999 39.1371 42.56 37.6404 43.2297 35.8602C43.4697 35.1502 43.7697 34.4702 44.0397 33.7702C44.5697 32.4502 44.6397 32.4202 46.1097 32.5902C48.8397 32.9102 51.5597 33.3702 54.2997 33.4802C57.3997 33.6102 60.5097 33.4002 63.6097 33.3502H64.4897C64.0397 33.5902 63.7997 33.7302 63.5497 33.8302C54.6697 37.2902 45.7997 40.8302 36.6797 43.5802L36.0597 43.7702C29.62 45.792 22.8697 46.6422 16.1297 46.2802C13.921 46.1742 11.7292 45.8391 9.58974 45.2802C7.98752 44.7777 6.49467 43.977 5.18974 42.9202C4.82857 42.605 4.53662 42.2185 4.33228 41.7848C4.12794 41.3512 4.01565 40.88 4.0025 40.4008C3.98935 39.9217 4.07562 39.445 4.25586 39.0008C4.4361 38.5567 4.70641 38.1547 5.04974 37.8202C5.83216 36.8569 6.91784 36.1872 8.12974 35.9202C8.83865 35.7848 9.572 35.8693 10.2315 36.1624C10.891 36.4556 11.4452 36.9433 11.8197 37.5602C11.9997 37.8602 12.1597 38.1602 12.4397 38.6402C12.546 38.2388 12.5616 37.8188 12.4855 37.4106C12.4094 37.0025 12.2435 36.6163 11.9997 36.2802C11.7081 35.8231 11.3196 35.4357 10.8616 35.1454C10.4037 34.8551 9.88757 34.6689 9.34974 34.6002C6.60974 34.2402 4.66974 35.6002 3.18974 37.6902C2.66424 38.4517 2.38281 39.355 2.38281 40.2802C2.38281 41.2054 2.66424 42.1087 3.18974 42.8702C3.62987 43.5774 4.1999 44.195 4.86974 44.6902C7.08519 46.3553 9.75122 47.3136 12.5197 47.4402C15.3497 47.6602 18.1897 47.7502 21.0197 47.8902L21.6597 47.9202C21.1997 48.2402 20.9497 48.4402 20.6597 48.6002C16.7926 50.8289 13.3441 53.7155 10.4697 57.1302C9.41729 58.464 8.48688 59.8897 7.68974 61.3902C7.57461 61.6321 7.52249 61.8993 7.53823 62.1667C7.55396 62.4342 7.63704 62.6934 7.77975 62.9202C7.99747 63.0459 8.23998 63.1227 8.4904 63.1451C8.74082 63.1676 8.99312 63.1352 9.22974 63.0502C13.9493 61.5745 18.3707 59.2757 22.2897 56.2602C25.1737 54.1615 27.1989 51.0882 27.9897 47.6102C28.0236 47.4944 28.0849 47.3884 28.1685 47.3014C28.2521 47.2144 28.3554 47.1488 28.4697 47.1102C34.0897 46.3702 39.3497 44.3602 44.6897 42.5902C44.7697 42.5902 44.8597 42.5902 45.0397 42.7002C44.3597 43.1902 43.6997 43.7002 43.0397 44.1602C40.2228 45.9831 37.6833 48.2026 35.4997 50.7502C33.7359 52.7272 32.5433 55.147 32.0497 57.7502C31.7591 58.9645 31.4053 60.1628 30.9897 61.3402C30.8997 61.6602 30.8297 62.1202 30.9897 62.3402C31.1272 62.4339 31.2825 62.4982 31.446 62.5292C31.6094 62.5602 31.7775 62.5571 31.9397 62.5202C32.4297 62.3885 32.8979 62.1864 33.3297 61.9202C39.3297 58.9202 44.1697 54.6902 46.1797 47.9202C47.1441 45.0155 48.802 42.3898 51.0097 40.2702C51.1983 40.1076 51.4202 39.9881 51.6597 39.9202C56.9264 37.9202 62.1964 35.8902 67.4697 33.8302C68.7897 33.3302 70.1297 32.9202 71.4697 32.4802C71.5553 32.4444 71.647 32.426 71.7397 32.426C71.8324 32.426 71.9242 32.4444 72.0097 32.4802C71.5497 32.8002 71.0797 33.1002 70.6297 33.4802C69.0474 34.5489 67.5251 35.704 66.0697 36.9402C63.6791 39.1685 62.2454 42.2368 62.0697 45.5002C62.0211 47.9046 61.3306 50.2523 60.0697 52.3002C59.7397 52.7802 59.1397 53.4902 59.7897 54.0702C60.4397 54.6502 60.8797 53.7702 61.3897 53.5202C64.0576 52.0261 66.4849 50.1382 68.5897 47.9202C72.3919 44.533 75.0214 40.0268 76.0997 35.0502C76.2162 34.1726 76.5103 33.3281 76.9642 32.5681C77.4181 31.8081 78.0223 31.1487 78.7397 30.6302C79.2801 30.2197 79.8947 29.9175 80.5497 29.7402C84.7097 28.9002 88.8697 28.0202 93.0597 27.3802C97.0597 26.7502 101.18 26.3802 105.25 25.9402C105.592 25.9068 105.936 25.9619 106.25 26.1002C105.828 26.3258 105.394 26.5294 104.95 26.7102C100.587 28.3403 96.7347 31.1013 93.7897 34.7102C91.9097 36.9202 90.9697 39.6202 89.7897 42.1902C89.1759 43.7776 88.3116 45.2563 87.2297 46.5702C86.9096 46.9631 86.6624 47.4102 86.4997 47.8902C86.2197 48.6302 86.4997 48.9802 87.2397 48.7702C90.9539 47.8402 94.5211 46.3998 97.8397 44.4902C103.07 41.3202 106.3 36.5602 108.73 31.1502C109.483 29.4239 110.528 27.8406 111.82 26.4702C111.942 26.3522 112.086 26.2596 112.244 26.1978C112.402 26.136 112.571 26.1062 112.74 26.1102C113.27 26.1102 113.81 26.1702 114.35 26.2202C114.88 25.7717 115.465 25.392 116.09 25.0902C115.41 25.0502 114.66 24.9702 113.98 24.9202ZM91.5197 23.6502C91.3497 23.6502 91.1897 23.6502 91.0197 23.6502C88.4797 23.5802 85.9497 23.4502 83.4097 23.4702C79.3098 23.4193 75.2611 22.5525 71.4997 20.9202C69.3897 20.0502 68.1197 18.2302 66.8197 16.4902C66.7134 16.2842 66.6328 16.0659 66.5797 15.8402C69.5061 18.0078 72.9585 19.3542 76.5797 19.7402C81.0323 20.2631 85.4148 21.269 89.6497 22.7402C90.2697 22.9602 90.8897 23.2202 91.5197 23.4602C91.5151 23.5201 91.5151 23.5803 91.5197 23.6402V23.6502ZM92.3697 22.4602C87.547 20.4206 82.4599 19.0739 77.2597 18.4602C74.2158 18.1661 71.2768 17.1922 68.6597 15.6102C67.983 15.1149 67.3384 14.5771 66.7297 14.0002L66.8897 13.7702C67.1697 13.8402 67.4597 13.8802 67.7397 13.9702C72.0625 15.3696 76.5203 16.3114 81.0397 16.7802C84.536 17.0973 87.8712 18.3974 90.6597 20.5302C91.3697 21.0702 92.0197 21.7102 92.8197 22.4102C92.4797 22.4402 92.4197 22.4702 92.3697 22.4502V22.4602ZM28.5997 40.7202C31.1897 38.6502 33.5197 36.7202 35.9597 34.9002C37.0525 34.1681 38.2314 33.5737 39.4697 33.1302C40.2135 32.9074 40.9771 32.7567 41.7497 32.6802C41.765 32.7613 41.785 32.8414 41.8097 32.9202C41.715 32.9801 41.6145 33.0303 41.5097 33.0702C39.1497 33.8502 37.3897 35.4802 35.5597 37.0702C33.5649 38.8258 31.1782 40.0774 28.5997 40.7202ZM31.3197 41.1702C31.8797 40.8602 32.3197 40.6702 32.6597 40.4302C33.9697 39.5502 35.2897 38.7002 36.5597 37.7502C37.5597 36.9602 38.4997 35.9802 39.5597 35.2402C40.4912 34.6779 41.4602 34.18 42.4597 33.7502C41.7097 38.6102 35.2097 41.4702 31.3197 41.1702ZM43.3197 16.3002C45.0997 18.0202 46.8197 19.8102 48.6697 21.4402C50.5197 23.0702 52.4197 24.3202 54.1997 25.8602C55.3006 26.9115 56.3423 28.0232 57.3197 29.1902L57.1197 29.3602C56.1197 28.5902 55.0497 27.7902 53.9497 27.0802C50.5497 24.9102 47.1797 22.7202 44.7197 19.4102C43.8437 18.3593 43.2057 17.1312 42.8497 15.8102L43.3197 16.3002ZM57.2297 31.5702C56.9586 31.4903 56.6916 31.3968 56.4297 31.2902C54.5297 30.4302 52.6497 29.4902 50.7197 28.7002C48.743 27.8245 46.9767 26.5356 45.5397 24.9202C43.8232 23.1951 42.7322 20.9461 42.4397 18.5302C42.5484 18.6254 42.6457 18.7327 42.7297 18.8502C44.6718 21.6909 47.1519 24.1235 50.0297 26.0102C52.2497 27.4002 54.3297 29.0102 56.4697 30.5402L57.4697 31.2502C57.3997 31.3602 57.3197 31.4702 57.2297 31.5702ZM25.2897 47.9202C20.7197 52.9202 15.7597 57.5502 9.73974 60.9202C13.5297 54.9202 18.9397 50.8102 25.2897 47.9202ZM16.6597 58.3202L16.4997 58.1202C18.1997 56.6302 19.9497 55.1202 21.5997 53.6102C23.2497 52.1002 24.7497 50.3802 26.5097 48.6102C24.5697 53.5002 20.6597 56.0002 16.6597 58.3202ZM33.0697 59.6402C33.6697 52.6402 38.7697 48.9402 43.7997 45.2302C40.8497 50.5202 34.4497 59.1602 33.0397 59.6402H33.0697ZM43.9797 49.9902C43.2223 51.5459 42.3288 53.0317 41.3097 54.4302C40.1049 56.0986 38.5079 57.4449 36.6597 58.3502C39.9797 53.4602 43.3697 48.4502 46.7897 43.4202C45.8297 45.6402 44.9797 47.8602 43.9497 49.9902H43.9797ZM62.7197 50.8002C62.5862 50.9641 62.4276 51.1059 62.2497 51.2202C62.6297 49.2802 63.0497 47.3402 63.3997 45.3702C63.6396 43.6583 64.2138 42.0104 65.0897 40.5202C66.9497 37.5202 69.8797 35.8502 72.5997 33.9602C71.4597 35.9602 70.2997 37.8402 69.2197 39.8002C67.8897 42.2302 66.6797 44.7402 65.2997 47.1502C64.4923 48.4177 63.6107 49.6365 62.6597 50.8002H62.7197ZM66.7197 47.4902C69.4797 42.8502 71.0097 37.4902 75.0497 33.3202C74.1253 38.9272 71.1315 43.9835 66.6597 47.4902H66.7197ZM89.1797 46.9202C89.1593 46.9293 89.1371 46.934 89.1147 46.934C89.0923 46.934 89.0702 46.9293 89.0497 46.9202C89.5997 45.9202 90.1897 44.9802 90.6997 43.9702C91.4097 42.5302 92.0897 41.0602 92.6997 39.5902C94.6997 35.1202 98.2497 32.2002 102.25 29.7002C103.086 29.2401 103.955 28.8424 104.85 28.5102C103.69 30.0202 102.49 31.4502 101.43 32.9902C99.8397 35.2902 98.4297 37.7002 96.7797 39.9902C94.7285 42.7791 92.1456 45.1344 89.1797 46.9202ZM108.18 29.3302C107.25 31.0002 106.38 32.7002 105.51 34.4102C103.229 38.6186 99.7476 42.054 95.5097 44.2802C95.3574 44.3538 95.2004 44.4172 95.0397 44.4702C95.3685 43.9074 95.7647 43.3868 96.2197 42.9202C98.1059 40.8386 99.7559 38.5547 101.14 36.1102C102.59 33.2883 104.55 30.7591 106.92 28.6502C107.92 27.8302 109.02 27.1202 110.17 26.2902C109.45 27.3802 108.77 28.3002 108.21 29.2902L108.18 29.3302Z" fill="#90767D"/>
<path d="M257.55 19.9198C256.699 19.9547 255.868 19.6637 255.225 19.1061C254.582 18.5485 254.176 17.7665 254.09 16.9198C254.195 16.0474 254.617 15.244 255.275 14.6616C255.933 14.0792 256.781 13.7583 257.66 13.7598C258.528 13.823 259.342 14.2036 259.947 14.8289C260.552 15.4542 260.905 16.2804 260.94 17.1498C260.95 18.6298 259.37 19.9198 257.55 19.9198ZM257.55 18.4998C258.62 18.4998 259.66 17.7698 259.41 17.0698C259.16 16.3698 258.67 15.5998 258.12 15.4598C257.327 15.3723 256.529 15.5518 255.85 15.9698C255.58 16.1198 255.45 16.9698 255.59 17.3998C255.756 17.7692 256.038 18.0739 256.394 18.2672C256.75 18.4604 257.16 18.5316 257.56 18.4698L257.55 18.4998Z" fill="#90767D"/>
<path d="M260.72 33.85C260.57 31.85 262.33 31.03 263.72 30.98C264.412 30.9939 265.073 31.2683 265.572 31.7484C266.071 32.2285 266.37 32.879 266.41 33.57C266.351 34.3908 266.002 35.1639 265.425 35.7504C264.847 36.3368 264.08 36.6983 263.26 36.77C262.898 36.7554 262.543 36.667 262.216 36.5101C261.889 36.3533 261.598 36.1313 261.36 35.8579C261.122 35.5845 260.943 35.2653 260.833 34.92C260.723 34.5748 260.684 34.2106 260.72 33.85ZM261.92 33.85C261.92 34.85 262.44 35.47 263.2 35.46C263.658 35.4033 264.083 35.1955 264.409 34.8694C264.735 34.5433 264.943 34.1176 265 33.66C264.963 33.3172 264.81 32.9974 264.566 32.7536C264.323 32.5098 264.003 32.3568 263.66 32.32C262.35 32.38 261.92 32.75 261.92 33.8V33.85Z" fill="#90767D"/>
<path d="M271.471 32.2898C270.889 32.3298 270.315 32.1443 269.866 31.772C269.417 31.3996 269.129 30.8689 269.061 30.2898C269.173 29.7245 269.457 29.2075 269.874 28.81C270.291 28.4125 270.821 28.1539 271.391 28.0698C271.976 28.1196 272.525 28.3748 272.941 28.7902C273.356 29.2056 273.611 29.7545 273.661 30.3398C273.647 30.6123 273.579 30.8792 273.461 31.1252C273.343 31.3711 273.177 31.5912 272.974 31.7726C272.77 31.954 272.532 32.0931 272.274 32.1819C272.016 32.2707 271.743 32.3074 271.471 32.2898Z" fill="#90767D"/>
<path d="M257.41 25.5999C256.31 25.5999 255.66 25.0299 255.68 24.0999C255.704 23.5378 255.934 23.0042 256.327 22.6017C256.721 22.1993 257.249 21.9564 257.81 21.9199C258.042 21.9211 258.272 21.969 258.486 22.0609C258.699 22.1528 258.892 22.2867 259.052 22.4547C259.213 22.6227 259.338 22.8213 259.42 23.0387C259.502 23.2561 259.54 23.4878 259.53 23.7199C259.523 23.9855 259.462 24.2468 259.349 24.4876C259.237 24.7284 259.077 24.9436 258.878 25.1198C258.679 25.2961 258.446 25.4297 258.194 25.5122C257.941 25.5948 257.675 25.6247 257.41 25.5999Z" fill="#90767D"/>
<path d="M249.18 15.1601C248.73 14.7901 248.05 14.5101 247.88 14.0501C247.761 13.405 247.792 12.7413 247.97 12.1101C247.97 11.9601 248.35 11.7401 248.53 11.7601C249.197 11.7994 249.853 11.9516 250.47 12.2101C250.676 12.3393 250.851 12.5134 250.981 12.7194C251.111 12.9254 251.192 13.1581 251.22 13.4001C251.118 13.9026 250.846 14.3546 250.45 14.6801C250.2 14.9101 249.73 14.9101 249.36 15.0101L249.18 15.1601Z" fill="#90767D"/>
<path d="M277.661 35.44C276.561 35.44 275.811 34.8 275.841 33.91C275.849 33.4738 276.025 33.0575 276.332 32.7481C276.64 32.4387 277.055 32.2603 277.491 32.25C277.956 32.2787 278.393 32.4767 278.721 32.8067C279.05 33.1366 279.245 33.5754 279.271 34.04C279.241 34.92 278.601 35.44 277.661 35.44Z" fill="#90767D"/>
<path d="M18.2602 17.0598C18.2463 16.1652 18.5815 15.3003 19.1947 14.6488C19.8079 13.9972 20.6509 13.6102 21.5447 13.5699C22.4385 13.5296 23.3129 13.8391 23.9823 14.4327C24.6517 15.0264 25.0634 15.8575 25.1302 16.7498C25.049 17.5966 24.6458 18.38 24.0038 18.9382C23.3619 19.4965 22.5301 19.787 21.6802 19.7498C19.8602 19.7998 18.2802 18.5398 18.2602 17.0598ZM23.6202 17.2698C23.7602 16.8498 23.6202 15.9898 23.3602 15.8498C22.686 15.4291 21.8904 15.246 21.1002 15.3298C20.5502 15.4698 20.0202 16.3298 19.8002 16.9398C19.5802 17.5498 20.6002 18.3798 21.6602 18.3698C22.069 18.442 22.4903 18.3724 22.8541 18.1723C23.2178 17.9722 23.5023 17.6537 23.6602 17.2698H23.6202Z" fill="#90767D"/>
<path d="M16.0096 36.6699C15.1872 36.6025 14.4163 36.2427 13.8365 35.6556C13.2568 35.0685 12.9066 34.293 12.8496 33.4699C12.9017 32.7852 13.2073 32.1444 13.7066 31.6729C14.2058 31.2013 14.863 30.9329 15.5496 30.9199C16.8996 30.9199 18.6596 31.7699 18.5496 33.7899C18.5796 34.1474 18.5369 34.5072 18.4243 34.8478C18.3116 35.1884 18.1312 35.5026 17.8939 35.7717C17.6566 36.0407 17.3673 36.259 17.0435 36.4134C16.7197 36.5677 16.368 36.655 16.0096 36.6699ZM15.5896 32.2199C15.2501 32.2485 14.9305 32.3919 14.6833 32.6263C14.4361 32.8608 14.2761 33.1724 14.2296 33.5099C14.2854 33.9673 14.4914 34.3931 14.8154 34.7207C15.1393 35.0483 15.5629 35.2591 16.0196 35.3199C16.7896 35.3199 17.2996 34.6799 17.2996 33.7099C17.2996 32.7399 16.8696 32.2799 15.5896 32.2199Z" fill="#90767D"/>
<path d="M7.75015 32.1999C8.3324 32.2376 8.90708 32.0516 9.35683 31.6799C9.80658 31.3082 10.0975 30.7788 10.1702 30.1999C10.0693 29.6222 9.78886 29.0909 9.36879 28.6816C8.94872 28.2723 8.41034 28.0058 7.83015 27.9199C7.25404 27.9956 6.72228 28.2696 6.32626 28.6948C5.93025 29.12 5.69472 29.6699 5.66016 30.2499C5.69337 30.7805 5.92845 31.2782 6.31713 31.6408C6.70581 32.0035 7.21858 32.2035 7.75015 32.1999Z" fill="#90767D"/>
<path d="M21.8192 25.4999C22.9092 25.4999 23.5592 24.9299 23.5392 23.9999C23.5083 23.4441 23.2743 22.919 22.8816 22.5244C22.4889 22.1299 21.9649 21.8934 21.4092 21.8599C21.1747 21.8584 20.9424 21.9043 20.7261 21.9949C20.5098 22.0855 20.3141 22.2188 20.1506 22.3869C19.9872 22.5551 19.8594 22.7545 19.7749 22.9732C19.6905 23.192 19.6511 23.4256 19.6592 23.6599C19.6697 23.9263 19.7353 24.1876 19.8518 24.4274C19.9683 24.6671 20.1332 24.8802 20.3362 25.053C20.5391 25.2259 20.7757 25.3549 21.0309 25.4318C21.2862 25.5087 21.5546 25.5319 21.8192 25.4999Z" fill="#90767D"/>
<path d="M30.0498 15.0602C30.4998 14.7002 31.1798 14.4202 31.3398 13.9502C31.4665 13.3062 31.4391 12.6415 31.2598 12.0102C31.2008 11.9095 31.118 11.8249 31.0186 11.7638C30.9191 11.7028 30.8062 11.6672 30.6898 11.6602C30.025 11.7029 29.3723 11.8584 28.7598 12.1202C28.55 12.2431 28.3725 12.4143 28.2421 12.6195C28.1117 12.8247 28.032 13.058 28.0098 13.3002C28.1026 13.8061 28.3763 14.261 28.7798 14.5802C29.0198 14.8202 29.4898 14.8102 29.8598 14.9102L30.0498 15.0602Z" fill="#90767D"/>
<path d="M1.60012 35.3499C2.70012 35.3499 3.45012 34.7099 3.42012 33.8099C3.41005 33.3745 3.23328 32.9596 2.92627 32.6507C2.61926 32.3419 2.20543 32.1626 1.77011 32.1499C1.30998 32.1783 0.876077 32.3739 0.550091 32.6999C0.224104 33.0259 0.0285059 33.4598 0.000110457 33.9199C-0.00988954 34.7999 0.660117 35.3499 1.60012 35.3499Z" fill="#90767D"/>
<path d="M128.541 28.9201C127.998 28.5095 127.403 28.1732 126.771 27.9201L126.541 27.8301C125.541 27.9201 124.421 27.9101 123.371 27.9801C122.212 28.0189 121.068 28.2592 119.991 28.6901C119.991 28.7901 119.991 28.8901 119.991 28.9901H128.571C128.571 28.9901 128.551 28.9201 128.541 28.9201ZM121.081 26.0301C120.801 26.0301 120.511 26.1101 120.211 26.1701C120.211 26.2701 120.211 26.3701 120.161 26.4701L125.781 27.4701C124.251 26.8742 122.681 26.3896 121.081 26.0201V26.0301ZM160.961 34.0301C159.001 32.1827 156.585 30.8886 153.961 30.2801C153.171 30.0501 152.371 29.8301 151.571 29.6201L150.801 29.4101C150.958 29.2674 151.159 29.1827 151.371 29.1701C151.958 29.1386 152.542 29.0718 153.121 28.9701C155.074 28.6213 156.982 28.0579 158.811 27.2901L159.661 26.9201C160.586 26.5298 161.446 26.0003 162.211 25.3501L162.371 25.2101C164.471 23.3401 163.851 20.7301 161.191 19.8601C159.201 19.2167 157.07 19.144 155.041 19.6501C152.801 20.1701 150.581 20.7901 148.511 21.3301L151.251 18.8101C153.14 17.1836 154.71 15.2202 155.881 13.0201C156.238 12.4268 156.423 11.7455 156.414 11.053C156.405 10.3604 156.203 9.68407 155.831 9.1001C155.011 7.8901 153.741 7.9501 152.491 8.0401H152.351C149.716 8.50597 147.289 9.77365 145.401 11.6701C144.011 13.0301 142.831 14.6001 141.551 16.0801C141.421 16.2301 141.311 16.3801 141.191 16.5301C141.343 15.2973 141.57 14.075 141.871 12.8701C142.761 9.30188 142.431 5.53818 140.931 2.1801C140.766 1.72924 140.507 1.31862 140.171 0.97544C139.835 0.632257 139.43 0.36434 138.983 0.189433C138.536 0.0145253 138.056 -0.0633817 137.577 -0.0391307C137.097 -0.0148797 136.628 0.110976 136.201 0.330103C135.156 0.801446 134.272 1.57006 133.661 2.5401C132.555 4.07181 131.767 5.80937 131.342 7.65043C130.918 9.4915 130.867 11.3988 131.191 13.2601C131.5 14.7419 131.884 16.2071 132.341 17.6501C132.312 17.6587 132.28 17.6587 132.251 17.6501C129.725 15.106 126.679 13.1378 123.321 11.8801C122.152 11.4386 120.91 11.2215 119.661 11.2401C119.103 11.2108 118.549 11.3378 118.059 11.6066C117.57 11.8755 117.165 12.2756 116.891 12.762C116.616 13.2484 116.483 13.8017 116.506 14.3596C116.529 14.9175 116.708 15.458 117.021 15.9201C117.375 16.6116 117.849 17.2346 118.421 17.7601C120.361 19.4101 122.421 20.9901 124.421 22.5801C124.791 22.8601 125.181 23.1201 125.551 23.3901C122.946 23.3023 120.348 23.6886 117.881 24.5301C117.292 24.696 116.719 24.917 116.171 25.1901C115.546 25.492 114.961 25.8716 114.431 26.3201C114.152 26.5492 113.891 26.8 113.651 27.0701C113.413 27.2812 113.223 27.542 113.096 27.8342C112.97 28.1263 112.908 28.4427 112.917 28.7611C112.925 29.0795 113.004 29.3921 113.146 29.677C113.288 29.9619 113.492 30.2121 113.741 30.4101C114.432 31.169 115.38 31.6461 116.401 31.7501C118.291 31.9101 120.201 32.0301 122.101 32.0501C123.741 32.0501 125.401 31.9001 127.101 31.8201C126.961 31.9101 126.891 31.9801 126.811 32.0201C124.208 33.4078 121.872 35.2463 119.911 37.4501C118.959 38.5216 118.298 39.8198 117.991 41.2201C117.471 43.5401 118.831 45.0501 121.201 44.8401C123.062 44.6271 124.824 43.8883 126.281 42.7101C128.281 41.2301 130.121 39.6501 132.121 38.0401C132.031 38.3001 132.001 38.5101 131.911 38.7001C131.043 40.8269 130.543 43.0857 130.431 45.3801C130.188 47.6239 130.584 49.8907 131.571 51.9201C131.778 52.422 132.106 52.8649 132.526 53.2093C132.945 53.5537 133.444 53.7889 133.977 53.8938C134.509 53.9988 135.06 53.9703 135.579 53.8108C136.098 53.6514 136.569 53.366 136.951 52.9801C137.469 52.5478 137.918 52.0386 138.281 51.4701C139.4 49.7135 140.111 47.728 140.361 45.6601C140.481 44.3501 140.561 43.0501 140.661 41.7201C140.731 41.7201 140.761 41.7201 140.771 41.7701L141.041 42.4401C141.957 44.9286 143.619 47.0731 145.801 48.5801C147.125 49.6423 148.692 50.3603 150.361 50.6701C150.63 50.7377 150.911 50.7439 151.183 50.6881C151.455 50.6324 151.711 50.5162 151.932 50.3481C152.153 50.18 152.333 49.9644 152.459 49.7172C152.585 49.47 152.654 49.1976 152.661 48.9201C152.877 47.5739 152.736 46.1945 152.251 44.9201C151.457 42.7427 150.381 40.6786 149.051 38.7801C148.919 38.577 148.799 38.3667 148.691 38.1501C150.751 39.4209 153.03 40.2959 155.411 40.7301C157.28 41.1554 159.229 41.0656 161.051 40.4701C161.434 40.3855 161.793 40.2138 162.1 39.9682C162.406 39.7227 162.652 39.41 162.818 39.0542C162.985 38.6985 163.067 38.3092 163.059 37.9166C163.05 37.524 162.952 37.1386 162.771 36.7901C162.332 35.7661 161.72 34.8256 160.961 34.0101V34.0301ZM156.881 20.6101C158.256 20.4599 159.647 20.6205 160.951 21.0801C162.561 21.6201 162.951 23.1401 161.671 24.2701C160.861 24.945 159.958 25.5007 158.991 25.9201L158.871 25.9801C157.04 26.811 155.106 27.3928 153.121 27.7101C150.556 28.1026 147.966 28.2999 145.371 28.3001C144.661 28.3001 144.641 27.9401 144.721 27.4001C148.321 26.8701 152.051 26.9201 155.421 25.2401C152.931 24.7401 150.561 25.7501 148.081 25.6501C149.191 25.2501 150.301 24.8401 151.421 24.4701C152.541 24.1001 153.951 23.6801 155.201 23.2101C155.531 23.0801 155.771 22.6701 156.061 22.3901C155.678 22.2639 155.273 22.2163 154.871 22.2501C151.671 23.3201 148.491 24.4401 145.311 25.5501C144.991 25.6601 144.701 25.8001 144.311 25.9301L143.941 25.0401C144.501 24.7401 145.021 24.4401 145.561 24.1701C149.088 22.3043 152.923 21.0914 156.881 20.5901V20.6101ZM146.321 12.4901C147.921 10.9679 149.894 9.89508 152.041 9.3801C152.627 9.26823 153.225 9.23127 153.821 9.2701C153.993 9.26321 154.165 9.29171 154.326 9.35384C154.486 9.41597 154.633 9.51041 154.755 9.63132C154.878 9.75222 154.975 9.89703 155.04 10.0568C155.104 10.2165 155.135 10.3878 155.131 10.5601C155.134 11.2974 154.991 12.0281 154.711 12.7101C153.561 15.1001 151.631 16.8701 149.711 18.7101C147.645 20.6357 145.398 22.3571 143.001 23.8501C142.771 23.5801 142.551 23.3401 142.241 23.0001C143.171 22.2501 144.071 21.5001 144.981 20.7601C146.311 19.6601 147.661 18.5701 148.981 17.4301C149.221 17.2201 149.251 16.7901 149.391 16.4301C149.042 16.4815 148.705 16.5896 148.391 16.7501C147.191 17.5901 146.031 18.5001 144.781 19.3101C144.901 19.1601 145.011 19.0001 145.141 18.8601C145.871 18.0801 146.611 17.3201 147.321 16.5301C147.753 16.0767 148.151 15.592 148.511 15.0801C148.662 14.7656 148.757 14.4272 148.791 14.0801C148.472 14.1716 148.169 14.3098 147.891 14.4901C145.327 16.7605 142.983 19.2683 140.891 21.9801C140.691 21.9171 140.494 21.8437 140.301 21.7601C140.101 21.6901 139.901 21.6001 139.631 21.4801C140.091 20.7101 140.521 19.9601 140.971 19.2301C142.433 16.74 144.233 14.4649 146.321 12.4701V12.4901ZM142.981 30.4201C142.67 31.296 142.138 32.0771 141.438 32.6883C140.737 33.2995 139.891 33.7203 138.981 33.9101C138.302 34.0614 137.614 34.1716 136.921 34.2401C136.042 34.2958 135.162 34.1398 134.355 33.7851C133.548 33.4305 132.838 32.8875 132.285 32.2018C131.732 31.5161 131.351 30.7077 131.174 29.8444C130.998 28.981 131.031 28.088 131.271 27.2401C131.44 26.6924 131.731 26.1899 132.121 25.7701C132.831 25.0201 133.661 24.3901 134.411 23.6701C136.491 21.6701 140.591 22.7501 142.101 24.8501C142.703 25.6261 143.1 26.5418 143.254 27.5121C143.408 28.4824 143.314 29.4758 142.981 30.4001V30.4201ZM132.391 9.1201C132.604 7.03095 133.389 5.04111 134.661 3.3701C135.27 2.60041 136.024 1.95817 136.881 1.4801C137.147 1.32515 137.446 1.23383 137.753 1.21327C138.061 1.1927 138.369 1.24344 138.653 1.36154C138.938 1.47963 139.191 1.66189 139.394 1.89408C139.596 2.12627 139.743 2.40212 139.821 2.7001C141.202 5.71153 141.529 9.09994 140.751 12.3201C140.061 15.1501 139.231 17.9401 138.451 20.7501C138.321 21.2201 138.311 21.2201 137.551 21.0501C137.831 19.6401 138.201 18.2401 138.371 16.8201C138.621 14.6501 138.751 12.4601 138.891 10.2801C138.875 9.87909 138.804 9.48214 138.681 9.1001H138.411C138.301 9.7101 138.181 10.3201 138.081 10.9201C137.781 12.9201 137.478 14.9434 137.171 16.9901C137.134 17.221 137.026 17.4345 136.861 17.6001C136.451 15.6001 136.031 13.6001 135.621 11.5101C135.509 11.5358 135.395 11.5558 135.281 11.5701C134.711 14.8901 135.971 18.0401 136.281 21.2701L136.061 21.4501C135.851 21.1701 135.621 20.9101 135.431 20.6101C133.261 17.0701 131.751 13.3501 132.391 9.1001V9.1201ZM121.441 18.7901C120.333 17.7991 119.288 16.7404 118.311 15.6201C118.044 15.3316 117.873 14.9674 117.822 14.5778C117.771 14.1881 117.842 13.7922 118.025 13.4445C118.208 13.0968 118.495 12.8145 118.845 12.6364C119.195 12.4583 119.592 12.3932 119.981 12.4501C120.797 12.4635 121.607 12.6018 122.381 12.8601C126.567 14.3518 130.26 16.9716 133.051 20.4301C133.262 20.7213 133.443 21.0328 133.591 21.3601C134.061 22.2901 134.051 22.2901 133.061 22.8901C130.338 19.7954 127.079 17.2174 123.441 15.2801L123.201 15.5301C123.516 15.9534 123.867 16.3483 124.251 16.7101C125.641 17.8501 127.091 18.9401 128.511 20.0701L129.291 20.7401L123.951 19.0401L123.821 19.3301C124.332 19.6935 124.862 20.0274 125.411 20.3301C127.641 21.4601 129.891 22.5501 132.161 23.6701C131.731 24.4901 131.301 24.6701 130.531 24.3501C127.196 23.0409 124.118 21.1518 121.441 18.7701V18.7901ZM125.441 30.6301C122.564 30.9701 119.658 30.9701 116.781 30.6301C115.906 30.5396 115.092 30.1429 114.481 29.5101C113.961 28.9201 113.901 28.4401 114.481 27.9401C115.068 27.4284 115.69 26.9573 116.341 26.5301C116.632 26.344 116.94 26.1866 117.261 26.0601C117.711 25.8901 118.171 25.7201 118.621 25.5701C121.347 24.617 124.278 24.4098 127.111 24.9701C128.218 25.2752 129.306 25.6424 130.371 26.0701C130.181 26.6201 130.061 27.0101 129.921 27.4101C126.981 26.6401 124.091 25.6901 121.051 26.0801C120.771 26.0801 120.481 26.1601 120.181 26.2201C120.181 26.3201 120.181 26.4201 120.131 26.5201L125.751 27.5201L127.151 27.7701H126.511C125.511 27.8601 124.391 27.8501 123.341 27.9201C122.182 27.9589 121.038 28.1992 119.961 28.6301C119.961 28.7301 119.961 28.8301 119.961 28.9301H129.731C129.801 29.4801 129.851 29.8201 129.891 30.0801C128.401 30.2801 126.931 30.5201 125.461 30.6101L125.441 30.6301ZM125.291 41.7801C124.115 42.7638 122.668 43.367 121.141 43.5101C119.481 43.6501 118.851 42.9301 119.241 41.3001C119.592 39.9595 120.301 38.7394 121.291 37.7701C123.692 35.1338 126.665 33.0815 129.981 31.7701C130.125 31.7204 130.272 31.6803 130.421 31.6501L131.011 32.6501C128.301 34.4001 125.321 35.7701 123.261 38.4001C125.651 37.4601 127.691 35.9001 129.991 34.7401C129.281 35.4601 128.551 36.1601 127.851 36.8901C127.151 37.6201 126.431 38.4001 125.761 39.1901C125.079 39.947 124.558 40.8351 124.231 41.8001L124.541 42.0301L132.251 34.0301L133.251 34.7201C133.043 35.0416 132.805 35.3429 132.541 35.6201C130.181 37.6701 127.801 39.7801 125.311 41.7601L125.291 41.7801ZM138.881 46.7801C138.542 48.4114 137.86 49.9521 136.881 51.3001C136.644 51.6073 136.368 51.8829 136.061 52.1201C134.841 53.1201 133.471 52.9101 132.801 51.5001C132.227 50.3373 131.852 49.0867 131.691 47.8001C131.444 45.0509 131.81 42.2813 132.761 39.6901C133.191 38.4901 133.581 37.2601 134.071 36.0901C134.561 34.9201 134.541 35.0901 135.821 35.4601C135.411 36.8101 134.981 38.1201 134.631 39.4601C134.121 41.4601 133.631 43.3801 133.211 45.3501C133.108 45.8938 133.084 46.4496 133.141 47.0001C133.211 47.3776 133.322 47.7463 133.471 48.1001H133.651C134.378 45.1068 135.111 42.1068 135.851 39.1001H136.161C136.161 40.7901 136.111 42.4701 136.161 44.1501C136.233 45.0146 136.38 45.8712 136.601 46.7101C136.713 47.0312 136.872 47.3343 137.071 47.6101C137.138 47.5756 137.208 47.5488 137.281 47.5301V35.4801C137.671 35.4201 138.151 35.3601 138.781 35.2901C138.901 36.1301 139.031 36.9301 139.111 37.7301C139.502 40.7499 139.431 43.8116 138.901 46.8101L138.881 46.7801ZM151.021 45.0701C151.449 46.1769 151.61 47.3693 151.491 48.5501C151.421 49.3801 151.081 49.7101 150.301 49.4101C148.974 48.923 147.698 48.3067 146.491 47.5701C144.289 46.122 142.673 43.9389 141.931 41.4101C141.251 39.2701 140.731 37.1001 140.141 34.9201L140.811 34.5801C141.571 36.4201 142.301 38.2301 143.071 40.0201C143.671 41.4401 144.298 42.8534 144.951 44.2601C145.17 44.7118 145.438 45.1377 145.751 45.5301C145.871 45.7001 146.141 45.7401 146.341 45.8301C146.341 45.6101 146.481 45.3601 146.421 45.1801C146.031 44.1201 145.621 43.0701 145.171 42.0301C144.501 40.4701 143.801 38.9401 143.111 37.4001C143.022 37.2062 142.998 36.9889 143.041 36.7801C143.421 37.2201 143.801 37.6501 144.161 38.0901C145.341 39.5301 146.501 40.9801 147.711 42.3901C148.07 42.7426 148.47 43.0514 148.901 43.3101L149.151 43.1101C149.042 42.7967 148.901 42.4952 148.731 42.2101C147.341 40.4001 145.931 38.5901 144.501 36.8001C143.711 35.8001 142.861 34.8001 142.001 33.8501L143.001 32.9201C144.301 34.5601 145.671 36.1201 146.871 37.7901C148.592 40.0227 149.995 42.4827 151.041 45.1001L151.021 45.0701ZM160.661 39.3601C159.503 39.6823 158.302 39.824 157.101 39.7801C153.783 39.5797 150.622 38.2976 148.101 36.1301L143.661 32.2301L143.941 31.7701C149.471 35.5801 152.381 37.1101 153.831 36.7701C153.623 36.5065 153.385 36.2682 153.121 36.0601C151.581 35.1701 150.031 34.3001 148.481 33.4201C148.042 33.1728 147.621 32.8954 147.221 32.5901C149.801 33.2001 152.301 34.2001 155.001 33.9501C155.022 33.8617 155.048 33.7749 155.081 33.6901C154.755 33.5391 154.421 33.4056 154.081 33.2901C152.081 32.7501 150.081 32.2901 148.081 31.6901C146.881 31.3401 145.721 30.8701 144.501 30.4201L144.681 29.6201C147.976 29.8519 151.225 30.5245 154.341 31.6201C156.551 32.1747 158.573 33.3067 160.201 34.9001C160.81 35.5969 161.303 36.387 161.661 37.2401C161.794 37.4358 161.874 37.6629 161.893 37.8989C161.911 38.135 161.868 38.3718 161.767 38.586C161.666 38.8001 161.511 38.9842 161.317 39.12C161.123 39.2557 160.897 39.3385 160.661 39.3601ZM121.081 26.0201C120.801 26.0201 120.511 26.1001 120.211 26.1601C120.211 26.2601 120.211 26.3601 120.161 26.4601L125.781 27.4601C124.251 26.8676 122.68 26.3864 121.081 26.0201ZM128.541 28.9201C127.998 28.5095 127.403 28.1732 126.771 27.9201L126.541 27.8301C125.541 27.9201 124.421 27.9101 123.371 27.9801C122.212 28.0189 121.068 28.2592 119.991 28.6901C119.991 28.7901 119.991 28.8901 119.991 28.9901H128.571C128.571 28.9901 128.551 28.9201 128.541 28.9201Z" fill="#90767D"/>
<path d="M134.091 27.9202C133.922 27.9203 133.755 27.8864 133.6 27.8206C133.444 27.7548 133.303 27.6584 133.186 27.5371C133.068 27.4159 132.976 27.2722 132.915 27.1147C132.854 26.9572 132.826 26.789 132.831 26.6202C132.861 26.2577 133.027 25.9198 133.294 25.6735C133.562 25.4272 133.912 25.2905 134.276 25.2905C134.64 25.2905 134.99 25.4272 135.258 25.6735C135.526 25.9198 135.691 26.2577 135.721 26.6202C135.669 27.0049 135.47 27.3546 135.167 27.5967C134.863 27.8388 134.478 27.9546 134.091 27.9202Z" fill="#90767D"/>
<path d="M138.661 26.4002C138.498 26.4128 138.335 26.3912 138.181 26.3368C138.027 26.2824 137.886 26.1964 137.768 26.0843C137.649 25.9722 137.555 25.8365 137.492 25.686C137.429 25.5355 137.398 25.3734 137.401 25.2102C137.402 25.0299 137.44 24.8516 137.51 24.6858C137.581 24.52 137.684 24.3699 137.814 24.2443C137.943 24.1186 138.096 24.02 138.264 23.9541C138.432 23.8881 138.611 23.8562 138.791 23.8602C139.154 23.8729 139.498 24.024 139.753 24.2825C140.008 24.541 140.154 24.8873 140.161 25.2502C140.109 25.5989 139.923 25.9138 139.644 26.1284C139.364 26.3429 139.011 26.4404 138.661 26.4002Z" fill="#90767D"/>
<path d="M134.42 29.6101C134.737 29.5992 135.045 29.7141 135.277 29.9295C135.509 30.145 135.647 30.4435 135.66 30.7601C135.653 31.0769 135.524 31.3789 135.301 31.6039C135.078 31.8289 134.777 31.9599 134.46 31.9701C134.309 31.9799 134.157 31.958 134.014 31.9057C133.872 31.8534 133.742 31.7719 133.633 31.6665C133.523 31.5611 133.437 31.434 133.38 31.2934C133.323 31.1528 133.296 31.0018 133.3 30.8501C133.282 30.6929 133.297 30.5336 133.345 30.3829C133.393 30.2321 133.473 30.0934 133.579 29.9759C133.685 29.8585 133.815 29.7651 133.96 29.702C134.105 29.6389 134.262 29.6076 134.42 29.6101Z" fill="#90767D"/>
<path d="M139.79 31.58C139.793 31.8902 139.678 32.1902 139.468 32.4187C139.258 32.6472 138.969 32.7871 138.66 32.81C138.356 32.7919 138.073 32.6545 137.87 32.4278C137.668 32.201 137.563 31.9034 137.58 31.6C137.581 31.4437 137.613 31.2892 137.674 31.1453C137.735 31.0014 137.824 30.871 137.935 30.7614C138.047 30.6519 138.179 30.5653 138.324 30.5067C138.469 30.4481 138.624 30.4186 138.78 30.42C138.923 30.4275 139.063 30.4638 139.192 30.5266C139.321 30.5895 139.436 30.6776 139.531 30.7859C139.625 30.8941 139.696 31.0202 139.741 31.1566C139.785 31.293 139.802 31.437 139.79 31.58Z" fill="#90767D"/>
<path d="M141.51 26.85C141.658 26.8375 141.806 26.8559 141.946 26.9041C142.086 26.9524 142.214 27.0294 142.322 27.1302C142.431 27.2309 142.517 27.3533 142.575 27.4893C142.633 27.6254 142.662 27.7721 142.66 27.92C142.663 28.0701 142.635 28.2192 142.58 28.3586C142.524 28.498 142.441 28.625 142.336 28.732C142.231 28.8391 142.106 28.9241 141.967 28.9821C141.829 29.0402 141.68 29.0701 141.53 29.07C141.38 29.0853 141.228 29.0691 141.084 29.0225C140.94 28.9758 140.807 28.8998 140.695 28.7992C140.582 28.6985 140.491 28.5755 140.428 28.4379C140.366 28.3004 140.332 28.1512 140.33 28C140.354 27.6979 140.487 27.4146 140.704 27.2031C140.921 26.9915 141.207 26.8661 141.51 26.85Z" fill="#90767D"/>
<path d="M137.46 27.7799C138.02 27.8399 138.38 28.0999 138.4 28.6799C138.4 28.9451 138.295 29.1994 138.107 29.387C137.92 29.5745 137.665 29.6799 137.4 29.6799C137.276 29.681 137.153 29.6543 137.041 29.6018C136.929 29.5492 136.829 29.4721 136.751 29.3762C136.672 29.2803 136.616 29.1679 136.586 29.0474C136.557 28.9269 136.555 28.8013 136.58 28.6799C136.573 28.5616 136.591 28.4431 136.632 28.332C136.674 28.221 136.738 28.1198 136.821 28.035C136.904 27.9503 137.003 27.8838 137.113 27.8399C137.224 27.7959 137.342 27.7755 137.46 27.7799Z" fill="#90767D"/>
</g>
<defs>
<clipPath id="clip0_575_729">
<rect width="280" height="64" fill="white"/>
</clipPath>
</defs>
</svg>
