<svg width="133" height="132" viewBox="0 0 133 132" fill="none" xmlns="http://www.w3.org/2000/svg">
<path d="M66 124C98.0325 124 124 98.0325 124 66C124 33.9675 98.0325 8 66 8C33.9675 8 8 33.9675 8 66C8 98.0325 33.9675 124 66 124Z" fill="#F3F1F2"/>
<path d="M45.0303 43.4101C45.0209 44.5063 44.6872 45.5753 44.0713 46.4822C43.4554 47.3892 42.5848 48.0935 41.5693 48.5066C40.5538 48.9196 39.4387 49.0228 38.3646 48.8031C37.2905 48.5835 36.3055 48.0509 35.5336 47.2724C34.7617 46.4939 34.2375 45.5043 34.0271 44.4284C33.8167 43.3525 33.9294 42.2383 34.3511 41.2264C34.7727 40.2144 35.4845 39.3499 36.3967 38.7418C37.3089 38.1337 38.3806 37.8091 39.4769 37.8091C40.2102 37.8091 40.9363 37.9543 41.6132 38.2363C42.2901 38.5184 42.9044 38.9317 43.4207 39.4524C43.937 39.9732 44.345 40.591 44.6213 41.2703C44.8976 41.9495 45.0366 42.6768 45.0303 43.4101Z" fill="#C7BABE" stroke="#735E64" stroke-width="1.6" stroke-miterlimit="10"/>
<path d="M56.2806 66.9936L48.7014 54.6476C48.1379 53.7286 47.3477 52.9697 46.4065 52.4438C45.4654 51.918 44.4049 51.6428 43.3269 51.6445H35.414C34.3418 51.642 33.2868 51.9146 32.35 52.4362C31.4132 52.9578 30.6259 53.711 30.0633 54.6238L22.5198 66.8387C22.1319 67.4728 21.9951 68.2291 22.1362 68.9589C22.2773 69.6887 22.6862 70.3394 23.2825 70.7832C23.5997 71.0127 23.9607 71.1746 24.3431 71.2588C24.7255 71.3431 25.1211 71.3479 25.5054 71.2731C25.8897 71.1982 26.2545 71.0453 26.5773 70.8237C26.9001 70.6021 27.174 70.3166 27.3819 69.9848L31.8389 63.0372L31.9819 71.0931L31.3265 90.7204C31.2871 91.4756 31.5082 92.2215 31.9529 92.8332C32.3976 93.4449 33.0389 93.8854 33.7694 94.081C34.2297 94.1791 34.7059 94.1747 35.1642 94.0681C35.6226 93.9614 36.0518 93.7552 36.4215 93.464C36.7912 93.1728 37.0922 92.8038 37.3032 92.3832C37.5142 91.9626 37.6301 91.5006 37.6425 91.0302L38.3456 71.105H40.6217L41.3725 90.9468C41.3868 91.6956 41.6553 92.4172 42.1339 92.9932C42.6124 93.5693 43.2727 93.9655 44.0061 94.1167C44.4753 94.1896 44.9549 94.1573 45.4101 94.0222C45.8653 93.8871 46.2848 93.6526 46.6383 93.3356C46.9917 93.0186 47.2704 92.627 47.4541 92.1892C47.6378 91.7513 47.7219 91.2781 47.7004 90.8038L47.0092 71.105L47.1403 63.2994L51.3351 69.9848C51.7316 70.6298 52.3588 71.0997 53.0893 71.2989C53.8197 71.4981 54.5986 71.4117 55.2677 71.0573C55.6103 70.8659 55.91 70.6063 56.1484 70.2946C56.3868 69.9828 56.5588 69.6255 56.6537 69.2447C56.7486 68.8639 56.7645 68.4677 56.7003 68.0805C56.6362 67.6934 56.4933 67.3235 56.2806 66.9936Z" fill="#C7BABE" stroke="#735E64" stroke-width="1.6" stroke-linejoin="round"/>
<path d="M98.2275 43.4101C98.2181 44.5063 97.8844 45.5753 97.2685 46.4822C96.6526 47.3892 95.7821 48.0935 94.7666 48.5066C93.751 48.9196 92.636 49.0228 91.5619 48.8031C90.4878 48.5835 89.5028 48.0509 88.7309 47.2724C87.959 46.4939 87.4348 45.5043 87.2244 44.4284C87.0139 43.3525 87.1266 42.2383 87.5483 41.2264C87.97 40.2144 88.6818 39.3499 89.594 38.7418C90.5061 38.1337 91.5779 37.8091 92.6742 37.8091C93.4075 37.8091 94.1336 37.9543 94.8104 38.2363C95.4873 38.5184 96.1017 38.9317 96.618 39.4524C97.1343 39.9732 97.5423 40.591 97.8186 41.2703C98.0948 41.9495 98.2338 42.6768 98.2275 43.4101Z" fill="#C7BABE" stroke="#735E64" stroke-width="1.6" stroke-miterlimit="10"/>
<path d="M109.478 66.9936L101.899 54.6476C101.335 53.7286 100.545 52.9697 99.6036 52.4438C98.6625 51.918 97.6021 51.6428 96.524 51.6445H88.6468C87.5746 51.642 86.5197 51.9146 85.5829 52.4362C84.6461 52.9578 83.8587 53.711 83.2961 54.6238L75.7169 66.8387C75.3305 67.4722 75.1933 68.2267 75.3321 68.9557C75.4708 69.6846 75.8755 70.336 76.4677 70.7832C76.7859 71.013 77.1478 71.175 77.5311 71.2594C77.9144 71.3438 78.3109 71.3487 78.6962 71.2739C79.0814 71.1991 79.4473 71.0461 79.7711 70.8244C80.095 70.6027 80.3699 70.3169 80.579 69.9848L85.0717 62.9895L85.2148 71.0454L84.5236 90.7204C84.4842 91.4756 84.7054 92.2215 85.15 92.8332C85.5947 93.4449 86.236 93.8854 86.9666 94.081C87.4268 94.1791 87.903 94.1747 88.3613 94.0681C88.8197 93.9614 89.249 93.7552 89.6186 93.464C89.9883 93.1728 90.2893 92.8038 90.5003 92.3832C90.7114 91.9626 90.8272 91.5006 90.8396 91.0302L91.5427 71.105H93.8069L94.4981 90.9468C94.5124 91.6956 94.7809 92.4172 95.2595 92.9932C95.738 93.5693 96.3983 93.9655 97.1318 94.1167C97.6009 94.1896 98.0805 94.1573 98.5357 94.0222C98.9909 93.8871 99.4104 93.6526 99.7639 93.3356C100.117 93.0186 100.396 92.627 100.58 92.1892C100.763 91.7513 100.848 91.2781 100.826 90.8038L100.135 71.105L100.266 63.2994L104.532 69.9848C104.929 70.6298 105.556 71.0997 106.286 71.2989C107.017 71.4981 107.796 71.4117 108.465 71.0573C108.807 70.8659 109.107 70.6063 109.346 70.2946C109.584 69.9828 109.756 69.6255 109.851 69.2447C109.946 68.8639 109.962 68.4677 109.897 68.0805C109.833 67.6934 109.69 67.3235 109.478 66.9936Z" fill="#C7BABE" stroke="#735E64" stroke-width="1.6" stroke-linejoin="round"/>
<path d="M49.3203 35.7832V29.8247H82.6879V35.0324" stroke="#735E64" stroke-width="1.6" stroke-linecap="round" stroke-linejoin="round"/>
<path d="M56.9473 38.6651V36.8574H60.0965V45.1568H58.0728V38.6651H56.9473Z" fill="#735E64"/>
<path d="M72.1237 38.7447C72.912 38.7447 73.5373 38.9834 73.9996 39.4609C74.4695 39.9384 74.7045 40.6016 74.7045 41.4505V45.1568H72.7718V41.712C72.7718 41.3027 72.6619 40.9882 72.4421 40.7684C72.2298 40.541 71.9342 40.4273 71.5553 40.4273C71.1763 40.4273 70.8769 40.541 70.6571 40.7684C70.4449 40.9882 70.3388 41.3027 70.3388 41.712V45.1568H68.406V41.712C68.406 41.3027 68.2961 40.9882 68.0763 40.7684C67.8641 40.541 67.5685 40.4273 67.1896 40.4273C66.8106 40.4273 66.5112 40.541 66.2914 40.7684C66.0792 40.9882 65.9731 41.3027 65.9731 41.712V45.1568H64.029V38.8129H65.9731V39.6087C66.1701 39.3435 66.4278 39.135 66.7462 38.9834C67.0645 38.8243 67.4245 38.7447 67.8262 38.7447C68.3037 38.7447 68.7282 38.847 69.0996 39.0517C69.4785 39.2563 69.7741 39.5481 69.9863 39.9271C70.2061 39.5784 70.5055 39.2942 70.8845 39.0744C71.2635 38.8546 71.6765 38.7447 72.1237 38.7447Z" fill="#735E64"/>
</svg>
