<svg width="90" height="67" viewBox="0 0 90 67" fill="none" xmlns="http://www.w3.org/2000/svg">
<g clip-path="url(#clip0_515_498)">
<path d="M81.3107 41.999C70.3661 37.2514 57.972 41.1791 47.4671 45.1477L46.6528 45.4511C46.327 45.0903 45.9931 44.7295 45.6756 44.3688C38.3466 36.169 26.2049 26.7885 26.4573 14.7267C26.6039 7.73237 31.9622 2.32874 39.0062 2.63213C46.6365 2.95192 50.9931 10.5039 48.9247 17.5228C48.4443 19.1628 50.8873 19.8024 51.441 18.228C53.4036 12.685 56.0827 6.02682 62.2635 4.28848C63.782 3.85239 65.375 3.7456 66.9375 3.97514C68.4999 4.20468 69.9963 4.76534 71.3277 5.62009C72.6591 6.47484 73.7953 7.60425 74.6613 8.93375C75.5273 10.2632 76.1034 11.7626 76.3515 13.3328C78.4769 25.8292 59.9182 34.6521 50.7081 38.4158C49.959 38.7191 50.244 39.9327 51.0502 39.6621C62.9638 35.6934 87.0599 24.7058 78.1348 7.92096C76.5566 4.98556 74.0339 2.6779 70.981 1.37706C67.9281 0.076209 64.5266 -0.140477 61.3352 0.762592C55.9932 2.21394 53.1023 6.19901 51.1723 10.8237C49.8449 5.94482 46.2863 1.73016 41.1723 0.418202C33.086 -1.63993 25.13 4.19828 23.884 12.275C22.2554 22.5821 29.5844 30.8474 36.099 37.7352C38.7782 40.5641 41.3759 43.557 44.0469 46.4843C41.9866 47.3043 39.8205 48.2062 37.5892 49.0672C36.0746 47.1731 34.6006 45.2461 33.1267 43.3274C28.1674 36.8742 21.8808 29.478 13.0371 29.3468C9.8763 29.2579 6.79706 30.3644 4.40639 32.4484C2.01572 34.5323 0.487077 37.4424 0.121815 40.6051C-0.912387 47.8044 3.84332 53.3557 10.6348 54.9628C19.6821 57.1111 28.2651 54.9628 36.7749 51.8961C40.2603 56.2338 43.2896 59.6941 45.6593 62.236C45.9361 62.5312 50.6837 67.6232 52.5322 66.9426C52.687 66.8934 53.1674 66.713 53.2244 66.3768C53.314 65.8684 52.4101 65.3273 52.1414 65.1633C49.2098 63.3511 43.5501 57.0537 40.928 53.5607C40.5616 53.0687 39.9182 52.1831 39.169 51.0105L45.871 48.4522C50.301 53.1589 55.0241 57.5457 60.7163 60.6206C68.4199 64.7861 79.6821 66.631 86.7749 60.0548C93.6397 53.6755 88.4931 45.1067 81.3107 41.999ZM9.2912 51.4205C3.26514 48.4112 1.33517 40.1213 6.52247 35.2179C13.542 28.5925 23.2489 36.1854 28.0616 41.5562C30.5046 44.295 32.8254 47.1567 35.187 49.9774C26.5143 53.1343 17.1495 55.34 9.2912 51.4205ZM72.5159 60.9486C62.6137 60.4484 55.0811 54.3396 48.542 47.4601C55.6186 44.8525 62.7521 42.7206 70.187 43.024C75.7244 43.2536 84.2097 45.0657 86.1804 51.2893C88.5013 58.6199 77.5241 61.2192 72.5159 60.9486Z" fill="#9A7E86"/>
</g>
<defs>
<clipPath id="clip0_515_498">
<rect width="90" height="67" fill="white"/>
</clipPath>
</defs>
</svg>
