<svg width="133" height="132" viewBox="0 0 133 132" fill="none" xmlns="http://www.w3.org/2000/svg">
<path d="M66 124C98.0325 124 124 98.0325 124 66C124 33.9675 98.0325 8 66 8C33.9675 8 8 33.9675 8 66C8 98.0325 33.9675 124 66 124Z" fill="#F5EBD8"/>
<path d="M39.4297 72.6782C44.6622 67.4458 44.6622 58.9624 39.4297 53.73C34.1973 48.4975 25.7139 48.4975 20.4815 53.73C15.249 58.9624 15.249 67.4458 20.4815 72.6782C25.7139 77.9107 34.1973 77.9107 39.4297 72.6782Z" stroke="#A77D31" stroke-width="1.6" stroke-miterlimit="10"/>
<path d="M111.278 72.6523C116.556 67.3738 116.556 58.8157 111.278 53.5372C105.999 48.2587 97.4411 48.2586 92.1626 53.5371C86.8841 58.8157 86.8841 67.3738 92.1626 72.6523C97.4411 77.9308 105.999 77.9308 111.278 72.6523Z" stroke="#A77D31" stroke-width="1.6" stroke-miterlimit="10"/>
<path d="M84.9767 47.154C78.7232 45.24 76.6912 38.7505 65.8754 38.7505C55.0596 38.7505 54.1813 44.7549 46.9707 47.154C42.1987 48.8564 37.1935 49.8159 32.1302 49.9989L31.9204 76.7172C31.9204 76.7172 45.817 91.6233 66.0065 91.6233C86.196 91.6233 100.093 76.7172 100.093 76.7172V49.8023C94.9535 49.6445 89.8634 48.7527 84.9767 47.154Z" fill="#E8CE9E" stroke="#A77D31" stroke-width="2" stroke-miterlimit="10"/>
<path d="M75.1967 60.2642H56.8164V78.6575H75.1967V60.2642Z" fill="#E8CE9E" stroke="#A77D31" stroke-width="1.6" stroke-miterlimit="10"/>
<path d="M31.7896 58.521H37.3482" stroke="#A77D31" stroke-width="1.6" stroke-miterlimit="10"/>
<path d="M31.7896 68.3013H37.3482" stroke="#A77D31" stroke-width="1.6" stroke-miterlimit="10"/>
<path d="M100.224 58.521H94.665" stroke="#A77D31" stroke-width="1.6" stroke-miterlimit="10"/>
<path d="M68.7858 69.4546H63.2402" stroke="#A77D31" stroke-width="1.6" stroke-miterlimit="10"/>
<path d="M100.224 68.3013H94.665" stroke="#A77D31" stroke-width="1.6" stroke-miterlimit="10"/>
</svg>
