<svg width="132" height="132" viewBox="0 0 132 132" fill="none" xmlns="http://www.w3.org/2000/svg">
<circle cx="66" cy="66" r="66" fill="#F3F1F2"/>
<path d="M63.4769 13.1427C52.5408 24.1521 32.4809 31.925 25.5353 34.3903C24.8179 34.6444 24.197 35.1149 23.7584 35.737C23.3198 36.3591 23.0852 37.1019 23.0869 37.863V70.2944C23.0869 86.4256 32.357 101.51 47.8523 110.639L64.2818 119.971C64.837 120.289 65.4656 120.457 66.1054 120.457C66.7452 120.457 67.3739 120.289 67.9291 119.971L84.353 110.639C99.8538 101.521 109.118 86.4369 109.118 70.2944V37.8405C109.12 37.0847 108.888 36.3468 108.455 35.7274C108.022 35.108 107.408 34.6371 106.698 34.379C99.7356 31.8406 79.4449 23.8369 68.7339 13.1427C68.39 12.7952 67.9807 12.5194 67.5295 12.3311C67.0783 12.1428 66.5943 12.0459 66.1054 12.0459C65.6165 12.0459 65.1325 12.1428 64.6813 12.3311C64.2302 12.5194 63.8208 12.7952 63.4769 13.1427Z" fill="#C7BABE"/>
<path d="M66.105 18.9004C76.1574 29.9885 97.4218 37.9416 102.69 39.7877V69.7763C102.69 83.5267 94.7652 96.399 81.5101 104.194L66.105 112.947L50.728 104.206C37.456 96.399 29.5255 83.5267 29.5255 69.7763V39.799C34.7825 38.0091 55.7654 30.3375 66.1106 18.9004H66.105ZM66.1106 16.2944C55.4165 29.8028 27.8369 38.5832 27.8369 38.5832V69.7763C27.8369 84.1233 36.0826 97.5528 49.8724 105.663L66.105 114.889L82.3375 105.663C96.1273 97.5528 104.373 84.1233 104.373 69.7763V38.5832C104.373 38.5832 76.3601 29.3187 66.0993 16.2944H66.1106Z" fill="#735E64"/>
<path d="M70.0292 88.0017H61.7947C61.5808 88.0017 59.1943 81.6978 59.1943 81.3826L59.2675 44.1952C59.2675 44.0459 59.3268 43.9027 59.4324 43.7972C59.5379 43.6916 59.6811 43.6323 59.8304 43.6323H71.9879C72.1372 43.6323 72.2803 43.6916 72.3859 43.7972C72.4914 43.9027 72.5507 44.0459 72.5507 44.1952L72.4776 81.3826C72.4832 81.6752 70.243 88.0017 70.0292 88.0017Z" fill="#735E64"/>
<path d="M68.6776 32.9214H63.1504V44.2234H68.6776V32.9214Z" fill="#735E64"/>
<path d="M67.2765 74.4199H64.5523C64.4156 74.4199 64.3047 74.5308 64.3047 74.6676V92.4086C64.3047 92.5453 64.4156 92.6562 64.5523 92.6562H67.2765C67.4133 92.6562 67.5242 92.5453 67.5242 92.4086V74.6676C67.5242 74.5308 67.4133 74.4199 67.2765 74.4199Z" fill="#735E64"/>
<path d="M66.4881 91.0132H65.3398V106.632H66.4881V91.0132Z" fill="#735E64"/>
<path d="M72.5555 32.9213C72.5555 34.1652 69.5836 35.1727 65.9138 35.1727C62.2441 35.1727 59.2666 34.1596 59.2666 32.9213C59.2666 31.683 62.2441 30.6699 65.9138 30.6699C69.5836 30.6699 72.5555 31.6774 72.5555 32.9213Z" fill="#735E64"/>
<path d="M70.2642 49.7446H61.5626C61.3791 49.7446 61.2305 49.8933 61.2305 50.0767V81.5118C61.2305 81.6952 61.3791 81.8439 61.5626 81.8439H70.2642C70.4476 81.8439 70.5963 81.6952 70.5963 81.5118V50.0767C70.5963 49.8933 70.4476 49.7446 70.2642 49.7446Z" fill="#C7BABE"/>
<path d="M71.1534 53.4819H64.7031V54.0448H71.1534V53.4819Z" fill="#735E64"/>
<path d="M71.0586 59.7637H64.6084V60.3265H71.0586V59.7637Z" fill="#735E64"/>
<path d="M70.9571 66.0449H64.5068V66.6078H70.9571V66.0449Z" fill="#735E64"/>
<path d="M70.8555 72.3262H64.4053V72.889H70.8555V72.3262Z" fill="#735E64"/>
<path d="M70.7549 78.6074H64.3047V79.1703H70.7549V78.6074Z" fill="#735E64"/>
<path d="M87.0874 50.5831C86.9002 49.7667 86.4867 49.0194 85.8944 48.4271C85.3021 47.8348 84.5549 47.4214 83.7384 47.2342C83.7146 47.2266 83.6937 47.2115 83.679 47.1913C83.6642 47.1711 83.6563 47.1467 83.6562 47.1216C83.6563 47.0966 83.6642 47.0722 83.679 47.0519C83.6937 47.0317 83.7146 47.0167 83.7384 47.0091C84.5585 46.8197 85.3082 46.4021 85.9009 45.8044C86.4935 45.2068 86.9049 44.4536 87.0874 43.632C87.095 43.6081 87.11 43.5873 87.1302 43.5725C87.1505 43.5578 87.1749 43.5498 87.1999 43.5498C87.225 43.5498 87.2494 43.5578 87.2696 43.5725C87.2898 43.5873 87.3049 43.6081 87.3125 43.632C87.4971 44.4572 87.9127 45.213 88.5106 45.8109C89.1086 46.4089 89.8643 46.8244 90.6896 47.0091C90.7134 47.0167 90.7343 47.0317 90.749 47.0519C90.7638 47.0722 90.7717 47.0966 90.7717 47.1216C90.7717 47.1467 90.7638 47.1711 90.749 47.1913C90.7343 47.2115 90.7134 47.2266 90.6896 47.2342C89.8679 47.4167 89.1147 47.828 88.5171 48.4207C87.9195 49.0133 87.5018 49.763 87.3125 50.5831C87.3049 50.607 87.2898 50.6278 87.2696 50.6426C87.2494 50.6573 87.225 50.6653 87.1999 50.6653C87.1749 50.6653 87.1505 50.6573 87.1302 50.6426C87.11 50.6278 87.095 50.607 87.0874 50.5831Z" fill="#735E64"/>
<path d="M45.0377 50.5837C44.8505 49.7672 44.4371 49.02 43.8448 48.4276C43.2524 47.8353 42.5052 47.4219 41.6887 47.2347C41.6589 47.2347 41.6303 47.2228 41.6091 47.2017C41.588 47.1806 41.5762 47.152 41.5762 47.1221C41.5762 47.0923 41.588 47.0636 41.6091 47.0425C41.6303 47.0214 41.6589 47.0096 41.6887 47.0096C42.5088 46.8202 43.2586 46.4026 43.8512 45.805C44.4439 45.2073 44.8552 44.4541 45.0377 43.6325C45.0434 43.6076 45.0573 43.5854 45.0772 43.5695C45.0972 43.5536 45.1219 43.5449 45.1474 43.5449C45.173 43.5449 45.1977 43.5536 45.2176 43.5695C45.2376 43.5854 45.2515 43.6076 45.2572 43.6325C45.4468 44.4554 45.864 45.2085 46.4611 45.8056C47.0583 46.4028 47.8113 46.82 48.6343 47.0096C48.6641 47.0096 48.6928 47.0214 48.7139 47.0425C48.735 47.0636 48.7469 47.0923 48.7469 47.1221C48.7469 47.152 48.735 47.1806 48.7139 47.2017C48.6928 47.2228 48.6641 47.2347 48.6343 47.2347C47.8149 47.4221 47.0643 47.8351 46.4675 48.4269C45.8707 49.0188 45.4514 49.7659 45.2572 50.5837C45.2515 50.6085 45.2376 50.6307 45.2176 50.6466C45.1977 50.6625 45.173 50.6712 45.1474 50.6712C45.1219 50.6712 45.0972 50.6625 45.0772 50.6466C45.0573 50.6307 45.0434 50.6085 45.0377 50.5837Z" fill="#735E64"/>
<path d="M87.0879 89.8027C86.9007 88.9863 86.4873 88.239 85.8949 87.6467C85.3026 87.0544 84.5554 86.641 83.7389 86.4538C83.7141 86.4481 83.6918 86.4342 83.6759 86.4142C83.66 86.3943 83.6514 86.3695 83.6514 86.344C83.6514 86.3185 83.66 86.2938 83.6759 86.2738C83.6918 86.2539 83.7141 86.24 83.7389 86.2343C84.5584 86.0437 85.3075 85.6257 85.9 85.0282C86.4924 84.4308 86.9042 83.6783 87.0879 82.8572C87.0879 82.8273 87.0997 82.7987 87.1208 82.7776C87.142 82.7565 87.1706 82.7446 87.2004 82.7446C87.2303 82.7446 87.2589 82.7565 87.28 82.7776C87.3012 82.7987 87.313 82.8273 87.313 82.8572C87.4989 83.6819 87.9148 84.4369 88.5126 85.0347C89.1104 85.6325 89.8654 86.0484 90.6901 86.2343C90.715 86.24 90.7372 86.2539 90.7531 86.2738C90.769 86.2938 90.7777 86.3185 90.7777 86.344C90.7777 86.3695 90.769 86.3943 90.7531 86.4142C90.7372 86.4342 90.715 86.4481 90.6901 86.4538C89.8685 86.6363 89.1153 87.0476 88.5176 87.6403C87.92 88.2329 87.5023 88.9827 87.313 89.8027C87.313 89.8326 87.3012 89.8612 87.28 89.8823C87.2589 89.9035 87.2303 89.9153 87.2004 89.9153C87.1706 89.9153 87.142 89.9035 87.1208 89.8823C87.0997 89.8612 87.0879 89.8326 87.0879 89.8027Z" fill="#735E64"/>
<path d="M45.0381 89.8026C44.8509 88.9862 44.4374 88.2389 43.8451 87.6466C43.2528 87.0543 42.5056 86.6409 41.6891 86.4537C41.6642 86.448 41.642 86.4341 41.6261 86.4141C41.6102 86.3942 41.6016 86.3694 41.6016 86.3439C41.6016 86.3184 41.6102 86.2937 41.6261 86.2737C41.642 86.2538 41.6642 86.2398 41.6891 86.2342C42.5086 86.0436 43.2577 85.6256 43.8501 85.0281C44.4426 84.4307 44.8544 83.6782 45.0381 82.8571C45.0437 82.8322 45.0577 82.81 45.0776 82.7941C45.0976 82.7782 45.1223 82.7695 45.1478 82.7695C45.1733 82.7695 45.1981 82.7782 45.218 82.7941C45.238 82.81 45.2519 82.8322 45.2576 82.8571C45.4472 83.68 45.8643 84.4331 46.4615 85.0303C47.0587 85.6274 47.8117 86.0446 48.6347 86.2342C48.6595 86.2398 48.6817 86.2538 48.6977 86.2737C48.7136 86.2937 48.7222 86.3184 48.7222 86.3439C48.7222 86.3694 48.7136 86.3942 48.6977 86.4141C48.6817 86.4341 48.6595 86.448 48.6347 86.4537C47.8153 86.6411 47.0647 87.0541 46.4679 87.6459C45.8711 88.2378 45.4518 88.9849 45.2576 89.8026C45.2519 89.8275 45.238 89.8497 45.218 89.8656C45.1981 89.8815 45.1733 89.8902 45.1478 89.8902C45.1223 89.8902 45.0976 89.8815 45.0776 89.8656C45.0577 89.8497 45.0437 89.8275 45.0381 89.8026V89.8026Z" fill="#735E64"/>
</svg>
